<?xml version="1.0" encoding="utf-8"?>
<!-- Generator: Adobe Illustrator 19.0.0, SVG Export Plug-In . SVG Version: 6.00 Build 0)  -->
<svg version="1.1" id="Layer_1" xmlns="http://www.w3.org/2000/svg" xmlns:xlink="http://www.w3.org/1999/xlink" x="0px" y="0px"
	 viewBox="0 0 87.3 87.3" style="enable-background:new 0 0 87.3 87.3;" xml:space="preserve">
<style type="text/css">
	.st0{clip-path:url(#SVGID_2_);fill:none;stroke:#2E353F;stroke-linecap:round;stroke-linejoin:round;stroke-miterlimit:10;}
	.st1{clip-path:url(#SVGID_2_);fill:#FFFFFF;}
</style>
<g>
	<defs>
		<rect id="SVGID_1_" y="0" width="87.3" height="87.3"/>
	</defs>
	<clipPath id="SVGID_2_">
		<use xlink:href="#SVGID_1_"  style="overflow:visible;"/>
	</clipPath>
	<circle class="st0" cx="43.6" cy="43.6" r="43.1"/>
	<path class="st0" d="M69,52.4c4.2-0.3,8.8-0.7,10.3-0.7c2,0,4.6,1.8-4.4,4.3c-1.6,0.4-4.5,0.7-6.9,0.9"/>
	<path class="st0" d="M18.9,47.6C23.1,40,43,40.7,51,40.4c5.9-0.3,9.1-3.1,10.4-2.2c0,0,0.8,3.3-2.3,5.1c-2.4,1.4-19.1,4.4-22.6,3.1
		c0,0,9.3,1.5,13.3,4c1.3,0.8,3.8,1.4,5.8,1.7"/>
	<path class="st0" d="M40.2,65.7c1.1-1.4,6.7-4.4,8.9-4"/>
	<path class="st0" d="M46.3,68.7c4.7-1.2,9.1-7.3,10-9.2c1.7-3.4,2.1-8.2,0.5-8.2s-3,4.6-4.2,6.2C51.4,59,49,60.3,48.3,64"/>
	<path class="st0" d="M57.9,53.1c0.4-2.5,2.1-6.2,3.4-4.9c1.3,1.3,0.8,1.3,1,4.9c0.1,3.7,0.2,6.5-2.6,10c-2.7,3.5-7.3,5-11.6,4.9"/>
	<path class="st0" d="M52.5,67.5c4.8-1.3,9.9-1.9,12.7-5.5c2.8-3.5,3.8-7.9,4-11.5c0.2-2.6,0.3-4-1-4.9c-1.5-1-2.6,2.6-3,5.6
		c-0.4,2.7-2.9,6-2.9,6"/>
	<path class="st0" d="M17.6,61.6c2.6,3,14.4,9.3,28.7,7"/>
	<path class="st0" d="M1.4,52.6c6.8-2,19.3-7.2,19.3-7.2"/>
	<path class="st0" d="M8.3,68.4c4.8-2.2,11.7-4.8,11.7-4.8"/>
	<path class="st0" d="M23,52.2c4.1,4.1,18.6,3.9,21.2,1.2"/>
	<path class="st0" d="M64.7,52.9c-1.4,0.1-2.5,0.2-2.5,0.2"/>
	<path class="st1" d="M25.2,34.8c0,0,7.4,3.5,7.4,13.5c0-10,7.4-13.5,7.4-13.5s-7.4-3.1-7.4-12.6C32.6,31.5,25.2,34.8,25.2,34.8"/>
	<path class="st0" d="M25.2,34.8c0,0,7.4,3.5,7.4,13.5c0-10,7.4-13.5,7.4-13.5s-7.4-3.1-7.4-12.6C32.6,31.5,25.2,34.8,25.2,34.8z"/>
	<path class="st1" d="M42.9,26.5c0,0,4.7,2.2,4.7,8.6c0-6.3,4.7-8.6,4.7-8.6s-4.7-2-4.7-8C47.6,24.4,42.9,26.5,42.9,26.5"/>
	<path class="st0" d="M42.9,26.5c0,0,4.7,2.2,4.7,8.6c0-6.3,4.7-8.6,4.7-8.6s-4.7-2-4.7-8C47.6,24.4,42.9,26.5,42.9,26.5z"/>
</g>
</svg>
