<?xml version="1.0" encoding="utf-8"?>
<!-- Generator: Adobe Illustrator 19.0.0, SVG Export Plug-In . SVG Version: 6.00 Build 0)  -->
<svg version="1.1" id="Layer_1" xmlns="http://www.w3.org/2000/svg" xmlns:xlink="http://www.w3.org/1999/xlink" x="0px" y="0px"
	 viewBox="-397.4 290.9 608.6 211.7" style="enable-background:new -397.4 290.9 608.6 211.7;" xml:space="preserve">
<style type="text/css">
	.st0{fill:#484F57;}
</style>
<g>
	<g id="XMLID_133_">
		<g id="XMLID_341_">
			<g id="XMLID_345_">
				<g id="XMLID_346_">
					<g id="XMLID_347_">
						<path id="XMLID_402_" class="st0" d="M-348.6,397.5c-0.3,0.1-0.1,0.3,0.6,0.2l0.5-0.3L-348.6,397.5z"/>
						<path id="XMLID_401_" class="st0" d="M-343.5,398.1c0.9-0.2,1.9-0.5,1.3-0.8c-0.9,0.3-1.1,0.2-2,0.6c-0.8,0-1.3-0.1-1.2-0.2
							c-0.3,0.1-1.2-0.1-1.6,0.1c1,0.3,2.2,0.3,3.5,0C-343.2,397.9-343.5,398-343.5,398.1z"/>
						<path id="XMLID_400_" class="st0" d="M-270.2,398.2h-0.5C-270.6,398.2-270.4,398.2-270.2,398.2z"/>
						<path id="XMLID_399_" class="st0" d="M-224.8,398.2c-0.3,0-0.5,0-0.5,0.1C-225,398.3-224.7,398.2-224.8,398.2z"/>
						<path id="XMLID_398_" class="st0" d="M-217,398.5c-0.2,0-0.3,0-0.5,0C-217.3,398.5-217.1,398.6-217,398.5z"/>
						<path id="XMLID_397_" class="st0" d="M-270.2,398.2l1.2,0.1C-268.9,398.2-269.6,398.3-270.2,398.2z"/>
						<path id="XMLID_396_" class="st0" d="M-333.4,397.2c-0.3,0-0.5,0-0.7,0.1C-333.9,397.3-333.7,397.3-333.4,397.2
							C-333.5,397.3-333.5,397.3-333.4,397.2z"/>
						<path id="XMLID_395_" class="st0" d="M-290.2,398.6h-0.4c-0.1,0-0.2,0.1-0.3,0.1L-290.2,398.6z"/>
						<path id="XMLID_394_" class="st0" d="M-305.6,398.7c0.3,0,0.5-0.3,0.6-0.4c-0.2,0.1-0.5,0.2-0.8,0.2
							C-305.8,398.6-305.7,398.7-305.6,398.7z"/>
						<path id="XMLID_393_" class="st0" d="M-330,398.4h-0.4C-330.3,398.4-330.1,398.4-330,398.4z"/>
						<path id="XMLID_392_" class="st0" d="M-279.2,398.6l0.1,0.1L-279.2,398.6z"/>
						<path id="XMLID_391_" class="st0" d="M150.5,388.8L150.5,388.8C150.6,388.8,150.6,388.8,150.5,388.8z"/>
						<path id="XMLID_390_" class="st0" d="M168.4,389.3h-0.2c0,0.1,0,0.1,0,0.2L168.4,389.3z"/>
						<path id="XMLID_389_" class="st0" d="M-202.8,398.8C-202.9,398.8-202.9,398.8-202.8,398.8C-203.3,398.8-203,398.8-202.8,398.8
							z"/>
						<path id="XMLID_388_" class="st0" d="M-72.5,397.4c-1.5-0.2,2.4-0.4,0.2-0.6C-72.1,396.9-74.3,397.3-72.5,397.4z"/>
						<path id="XMLID_387_" class="st0" d="M-333,397.3c0.2,0,0.4,0,0.6,0C-332.7,397.3-332.9,397.3-333,397.3z"/>
						<path id="XMLID_386_" class="st0" d="M-72.3,396.8L-72.3,396.8h-0.2C-72.5,396.8-72.4,396.8-72.3,396.8z"/>
						<path id="XMLID_385_" class="st0" d="M-170.1,398.4c-0.1,0-0.2-0.1-0.3-0.1C-170.4,398.3-170.4,398.4-170.1,398.4z"/>
						<path id="XMLID_384_" class="st0" d="M-194.5,398.2h0.6C-194.1,398.2-194.3,398.2-194.5,398.2z"/>
						<path id="XMLID_383_" class="st0" d="M-157.5,397.9c0.3,0,0.4,0.1,0.9,0h-0.1C-156.9,398-157.1,398-157.5,397.9z"/>
						<path id="XMLID_382_" class="st0" d="M-144.3,397.8c-0.1,0-0.2,0-0.2-0.1c-0.1,0-0.3,0-0.4,0L-144.3,397.8z"/>
						<path id="XMLID_381_" class="st0" d="M110.5,390.6c0.3,0.1,0.5,0.1,0.6,0.2C110.9,390.7,112.9,390.5,110.5,390.6z"/>
						<path id="XMLID_380_" class="st0" d="M-333.4,397.4c0.1-0.1,0.2-0.1,0.4-0.1c-0.2,0-0.3,0-0.4,0
							C-333.5,397.3-333.5,397.4-333.4,397.4z"/>
						<path id="XMLID_379_" class="st0" d="M-156.9,395.7h2.1C-155.4,395.7-156.2,395.7-156.9,395.7z"/>
						<path id="XMLID_378_" class="st0" d="M16.1,393.5h0.5C16.4,393.5,16.2,393.5,16.1,393.5z"/>
						<path id="XMLID_377_" class="st0" d="M-148.6,395.7c0.4,0.1,0.8,0.2,1.2,0.2c0.1,0,0.2,0,0.2-0.1L-148.6,395.7z"/>
						<path id="XMLID_376_" class="st0" d="M111.1,390.9L111.1,390.9L111.1,390.9z"/>
						<path id="XMLID_371_" class="st0" d="M124.9,389.6c-2,0.1-0.9,0.4-1.3,0.6c-2.4,0.2-1.1-0.2-1.9-0.4c-1.5,0.2-2.6,0.5-3.7,0.6
							c-0.1-0.1-0.3-0.1-0.1-0.2c-1.6,0.4-4.7,0.2-6.5,0.6c-0.1,0-0.2-0.1-0.2-0.1c0.3,0.2,0.4,0.4,0.3,0.5c-0.9,0-1.6,0.3-2,0.1
							c0.5,0,0.6-0.1,0.8-0.2l-0.9,0.1c-0.9-0.3,1.3-0.2,1.3-0.4c-1.8,0.2-3.9,0.6-5.3,0.5c-0.3-0.3,3.3-0.2,1.4-0.5h2.2
							c-1.7-0.5,1.3,0-0.2-0.5c-2.8,0-3.2,0.3-6,0.3c-0.6,0.2,0.2,0.3-0.4,0.5c-4,0.5-3.2-0.7-6.2-0.2c-0.8,0.3-1,0.7-3.2,0.5
							l0.7-0.4c-2.8,0.1-1.6,0.6-4.5,0.4c0.5-0.2,2.2-0.2,1.7-0.2c-1.9-0.2-1.3,0.3-2.8,0.3l-0.3-0.3c-2.9,0.2-6.2,0.5-9.4,0.7
							c0.2-0.1,0.7-0.2,0-0.3c-4.1,0.3-8.8,0.2-12.7,0.1l-1.5,0.3c-0.4,0-0.7-0.1-0.3-0.2c-1.5-0.1-0.1,0.2-0.8,0.3
							c-0.9,0-1.2-0.1-0.6-0.2c-2.7,0.3-7.7,0.8-10.6,0.5l0.6-0.1c-2.2-0.1-2.5,0.7-4.6,0.5l0.4-0.1c-4.8,0-10.2,0.4-13.9,0.1
							c-0.7,0.4-4.8-0.1-5.1,0.5c-2.8-0.2-2-0.3-5.9-0.5c-1,0-1.5,0.4-2.8,0.5V393l-1.7,0.4l-0.9-0.3l-1.2,0.1c0.5,0,1,0.1,1,0.2
							c-1.9,0.2-4.6-0.1-4.6-0.3l-4.5,0.4c0.1-0.1,0.8-0.2,1.4-0.3c-2.4,0.4-0.4-0.3-2.6,0c0.3,0.1-0.2,0.2-0.2,0.2
							c-1.1-0.2-3.6-0.1-5.4,0l0.3-0.2c-3.3,0-7,0.2-10.7,0.3c1.3,0.1,1,0.4-0.1,0.5l-0.4-0.3c-0.7,0.2,1.1,0.1-0.3,0.4
							c-1.4,0-0.9-0.4-0.1-0.5l-1.7,0.1c-0.1-0.1,0.3-0.2,0.4-0.3c-0.7,0.2-2.9-0.3-3.9,0.1l-0.1-0.1c-3.7,0.1-5.4,0.2-8.4,0.3
							c-0.1,0.3-1.2,0.2-2.1,0.5c-2.2-0.1-4.7-0.2-7.4-0.2c-1.9,0.2-0.5,0.2-1.4,0.4c-0.1-0.3-2.8-0.2-1.4-0.4
							c-3.2,0.1-4.1,0.1-8.2,0.4c0.4,0.1,0.9,0.1,0.7,0.2c-0.7,0.1-1.7-0.1-1.6-0.2h0.2c-4.6,0.5-10.5-0.6-14.2,0h0.2l-3.8,0.3
							c-1.7,0,1-0.2-0.2-0.3c-4.1,0.5-6.4,0-9.8,0.4c-2.6-0.7-9.2,0.2-12.7-0.3l0.2,0.2c-0.9,0.2-1.1-0.1-1.8-0.1
							c0.1,0.1,1,0.1,0.4,0.3c-7.6,0.3-15.8-0.1-23.6-0.2c-2.9,0-1.6,0.9-5.2,0.6l1-0.3c-5.8,0.5-11.8,0.1-17.5,0.5
							c0.3-0.1,0.3-0.2,0.9-0.2c-1.2-0.2-4.4,0-4.4,0.2c-0.9,0-0.2-0.2-0.8-0.3c-1.2-0.1-3,0.3-3.7,0.1c-0.1,0,0.3-0.1,0.6-0.1
							c-0.8,0.1-3.6,0-2.9,0.3c-2.1-0.1-4.1,0.2-5.8,0c-1.1,0.3-3.6-0.1-4,0.3c0.1-0.5-3.7-0.3-5.1-0.1c0.4-0.1-1.2-0.1-0.6-0.3
							c-1.5,0-2.9,0.1-2.7,0.3c-2.8-0.5-5.7,0.5-7.3-0.2c-4.6,0.3-8.8,0.5-12.9,0.6c0.1-0.5,4.5-0.1,4.4-0.5
							c-3.9,0.2-6.1,0.6-10,0.5c-1-0.1,0.6-0.2,0.9-0.3c-3.9,0.2-7.5,0-11,0.3c0,0,0.4-0.1,0.7-0.1c-0.7,0-1.6-0.1-1.5,0.1l0.7-0.1
							c1.1,0.3-2.7,0.6-2.8,0.8c1.2-0.6-3.4-0.1-1.6-0.9c-0.4,0-1,0.1-0.9,0.3c-0.7,0-0.9-0.1-0.2-0.3c-2.4,0.1-1.6,0.3-3.8,0.3
							c0-0.1,0.5-0.1,0.7-0.3c-1.1,0.2-2.2,0.4-4.1,0.3c0.1-0.1-0.1-0.1,0.5-0.1c-3.2,0-5.5,0.5-9,0.4c1-0.4-1.2-0.1-1.4-0.5
							l-1.9,0.1l0.8,0.2c-1.7,0-3.1,0.3-4.6,0.2l1.2-0.2l-3.1,0.1l1.8,0.1c-1.7,0.2,0.2,0.5-2,0.4c0.4,0-1.7,0-2.5-0.2l0,0
							c-0.8,0.1-1.7,0.3-2.9,0.2c-0.3-0.1,0.3-0.4,0-0.5c-0.8,0.3-3.9,0.1-4.9,0.4c0.3-0.1,0.4-0.3,0.2-0.3l-0.7,0.3
							c-0.8-0.1-0.9-0.1-0.8-0.3c-2.3,0,0.7,0.5-2,0.3c0.2,0,0.1-0.1,0.6-0.1c-2.8-0.1-5.3,0.2-7.9,0.1c-0.7-0.4,2.2-0.1,1.4-0.4
							c-3.7,0.1-7.6,0.5-11.1,0.4h0.7c-0.5,0.5-2.6-0.3-4.4,0c0.4,0,0.6-0.3,0.5-0.2c-2.4-0.1-4.9,0.2-8.6,0.3l0.5-0.1
							c-1.4-0.1-3.8-0.1-5.3-0.1c-0.5,0.1-1.3,0.1-0.8,0.3c-4.8-0.8-9.1,0.5-13.3-0.2c0.5,0,1.2-0.1,0.8-0.1l-3.6,0.1
							c0.3,0.2,0.5,0.1,1.2,0.3c-0.5,0.1-1.5,0.3-2.4,0.3c1.6-0.2,0-0.4-0.7-0.5c0.1,0.1-0.1,0.1-0.1,0.2c-1.9-0.4-0.3,0.5-2.9,0.2
							l0.1-0.1c-1,0.1-1.8,0.2-2.9,0.2c-0.4-0.3,1-0.1,1.1-0.3c-1.5,0-2.9,0.5-4.2,0.3c0.6-0.1,1.5-0.1,2.1-0.2
							c-1.4-0.3-1.6-0.2-2.7-0.3h0.1l-2.5-0.1l0.6,0.1c-1.8,0.7-3.7,0.1-6.1,0.6c2.4-0.4,0.4-0.3,0.6-0.6c-0.6-0.1-1.6-0.2-1.3-0.3
							c-1.2,0.2-1.9-0.2-3.6,0.2c-0.1-0.1-1.2,0-1-0.2c-1.5,0.1,0.4,0.2,0.2,0.3c-2.3,0.3-5.5-0.4-8.8,0.1c-2.9,0.2-3.4,0.5-6.1,0.7
							c-0.9-0.2,0.7-0.4,0.7-0.4c-1.5-0.1-2.5-0.1-3.9,0c0.3-0.1,0-0.2-0.4-0.3c-1.1,0-0.7,0.4-2.2,0.2c0.2-0.1,0.6-0.3,1.1-0.4
							c-1.3,0.1-2.6,0.3-3.9,0.4c-0.4-0.2,0.8-0.3,1.3-0.4c-1.5,0.1-3.9,0.2-4.4,0.4l1,0.1c-0.5,0-0.3-0.2,0.1-0.3
							c1.3-0.2,1.9,0.1,1.9,0.2l-1,0.1c1,0.6,3.8-0.1,5.8-0.1l-0.8,0.4l2-0.4c0.4,0.1,0.7,0.3-0.2,0.4c1.4,0.2,1.2-0.2,2.4,0.1
							c0.1,0,0.1,0.1,0,0.1l1.3-0.1c-0.3,0.1,0.2,0.3-0.6,0.2c2.4,0.2,3.9-0.3,4.8,0h-0.2c3.4-0.2,0.3-0.3,2.8-0.7l1.7,0.7l0.3-0.3
							c0.3,0,1,0,0.9,0.2c1.3-0.2-0.2-0.1,0.5-0.3c1.7,0.3,4.6-0.2,5,0.3c0.6-0.2-1.6-0.2,0.2-0.3c0.5,0.5,2.1-0.1,3.6,0.1
							c-0.5,0.3-1.9,0.1-0.4,0.4c0.9-0.5,3,0.1,4.2,0c0.1-0.4,2.8-0.2,4.9-0.3c-0.1,0.1,4.1,0.2,6.1,0.3l-0.1,0.1
							c0.4-0.4,2.5-0.3,4-0.4c-0.1,0.2-0.3,0.3-1.1,0.4h1.4c0.3-0.1,0.8-0.2,1.7-0.2l-0.4,0.3c1.9,0,3.8-0.3,6.2-0.2
							c0.1-0.3-1.9-0.7,0.6-0.9c0.1,0.1,0.2,0.4-0.5,0.4c0.2,0,0.8-0.1,1.2-0.1l-1,0.2c1.1,0.1,0.6-0.2,1.5-0.2
							c0,0.2,0.7,0.1,0.5,0.3c-0.2,0-0.8-0.1-1.1,0c1,0,2.2,0.1,2.6,0.3c-0.1-0.1,0-0.3,0.7-0.3c1.9,0,0.6,0.2,1.7,0.3
							c0.5-0.1,1.7,0,1.7-0.3c0.6,0,0.7,0.1,0.9,0.2c1-0.1,4.5-0.1,3.4-0.4h-0.2c0,0,0.1,0,0.2,0l0,0l0,0c3.2-0.3,6.6,0.1,9.8,0v0.1
							c1.9-0.1,4.2-0.1,5.6-0.3c0.6,0,1.3,0.2,1.1,0.3c1.4-0.1,1.6-0.2,3.7,0c-1.5,0.2,0.5,0.2-1.5,0.1c1.9,0.1,2.3,0.2,4.3,0
							c-0.7,0.3,1.4,0.3,2.3,0.2l-1.3-0.2c1,0,1.9,0,2.8,0l-0.5,0.3c3.8,0.4,6.9-0.7,9.9-0.1c1-0.2-2.1-0.2-1.2-0.4
							c1.8,0,3.6,0.5,4.2,0.5c2.4,0.2,2.3-0.5,4.8-0.4c-0.3-0.1-0.6-0.4,1.3-0.6c1.8,0,2.2,0.5,1.1,0.6c-0.4,0-0.6,0-0.6-0.1
							c-0.6,0-1.3,0.1-0.6,0.2l0.2-0.1c0.9,0.1,3.3,0.1,2.7,0.3c1.3-0.1,0.6-0.2-0.4-0.3c2.3,0.2,3.5,0,5.9,0.1
							c-0.4-0.1-0.7-0.2-0.3-0.2c3.4,0.1,1.5-0.2,3.8-0.3c1.3,0.2-0.5,0.4,1.9,0.3c1.4,0.1,0.3,0.3-0.3,0.4c2.1-0.2,4,0.1,5.2,0.2
							l-1.1,0.1c0.7-0.1,1.2-0.1,1.8-0.1l-0.6-0.2c0.7,0,1.2,0,1.2,0.1c0.7-0.2-0.5-0.4,0.8-0.6c0.9,0.1,2.7-0.1,3,0.2
							c-2.8-0.1,0.3,0.3-2,0.4c0.5,0,1,0,1.7,0c0.1,0-0.1,0.1-0.3,0.1c2.6,0.3,1.2-0.4,3.9-0.4c-0.3,0.2,0.6,0.3,1.1,0.3
							c-1.1,0-0.5-0.3,0.5-0.4c1.8,0.1,1.9-0.1,2.8-0.1l-1-0.1c0.4-0.2,1.2-0.2,2.5-0.2c0.1,0.1-1.1,0.1-0.7,0.2
							c1.4-0.3,3.1,0.3,5,0.1c0.9,0.1,0.1,0.3,0.9,0.4c2.1-0.2,2.3,0.2,4.5,0c-0.6-0.2-0.8-0.2,0.8-0.4l-3.7,0.2l2.4-0.4
							c-1.1,0-2.3,0.2-3,0.1c1.1-0.2,1-0.1,0.5-0.3c1.5,0.3,3-0.2,4.8,0v0.6c2.6,0.2,4.7-0.3,8.1-0.2l-1.1-0.1
							c0.5-0.2,2.1,0,3.2-0.2c-0.1,0.2,0.6,0.3,1.1,0.4c-0.1-0.1,2.5,0,2.8-0.4l1.5,0.2c2.8,0.1,3.1-0.6,5.8-0.5
							c-0.8,0.2,0.4,0.4-1.4,0.5c0.9,0,1.7,0,1.7-0.1c0.5,0.1,2.5-0.3,3.3-0.1c0.4-0.1,0.5-0.3,1.5-0.3c0.1,0,0,0.1,0,0.1
							c0-0.1,1.6-0.1,0.7-0.4c2.7,0.6,7.6-0.1,10,0.4c1.9-0.1,4.3-0.2,6-0.2c-0.1,0.1,0,0.1-0.3,0.1c2.4,0.2,1.5-0.6,4.2-0.4
							c1.4,0.3-1.5,0.2-0.6,0.3c0.4,0.6,3.3-0.1,5.2,0.2h-0.4c1.4,0.2,3.5-0.3,5.8-0.2c0,0-0.1,0.1,0,0.1c1.6-0.3,4.6-0.5,6.8-0.6
							c-0.7,0.3-1,0.1-0.6,0.4c1,0-0.3-0.4,1.7-0.5c0.6,0.1,2.1,0.2,2.3,0.5h-1.9c1,0.3,2.4,0,3.4,0l-0.1,0.2c2.9-0.1,2.9-0.5,6-0.5
							l-0.3-0.1c1.7-0.4,1.4,0.2,3.1-0.1l0.5,0.4c1.1-0.1,3.9-0.4,5.9-0.5c-1.1,0.3-3.5,0.5-4.9,0.7c1.1,0,3.8-0.1,4.3-0.3
							c-0.4,0-1,0.1-1.4,0.1c1.4-0.3,3.1-0.5,5.3-0.5c-0.4,0.8,5.7,0.1,7.4,0.7c3.9-0.3,7.7,0,12.3-0.1c-1.6-0.6,1.3,0,1-0.6
							c1.1-0.1,1.5,0,1.6,0l3.2,0.3c0.8,0.2-1,0.1-0.9,0.3c2.3,0,1,0.2,2.5,0.4c-0.3-0.2,0.8-0.3,2.1-0.3l-1.9-0.3
							c3.2-0.4,2.8,0.5,6.1,0.1l-1,0.2c1.7-0.1,6.2-0.1,7.8-0.6c0.3,0.1,0.7,0.2,0,0.3c4,0,8.9-0.7,12-0.4l-0.3,0.2
							c0.7-0.1,1.3-0.3,2.2-0.2c0,0.1-0.3,0.2,0,0.2c0.4-0.1,2-0.3,3-0.2l-0.8,0.2c3.9,0.1,6-0.5,9.3-0.7c0,0.4,3.1,0.5,4.6,0.6
							l-0.1,0.1c4.5,0,7.7-0.5,11.9-0.8c2.6,0.4,8.9,0,13.1,0.2c-0.6-0.1,0.1-0.3,0.8-0.4c1,0.1,2.7-0.4,2.6,0H3.9
							c0.8,0.4,2.8,0.2,4.4,0.2l0.2-0.5c4.2,0.7,10.8-0.5,13.1,0.1c1-0.2,2.2-0.2,3.2-0.3v0.3c2.8,0,4.2,0,7.6-0.1l-0.7,0.2
							c1.9,0,2.4-0.9,4.2-0.9l0.5,0.4c3.4-0.1,6.8,0.2,10.1-0.3c-0.1,0.1-0.1,0.2-0.7,0.2c1.6,0,6.1,0.1,5.5-0.5
							c0,0.4,3.5-0.1,5.3-0.3l-0.3,0.3c1.5-0.4,1.6-0.5,3.7-0.7c0.5,0,0.5,0.2-0.2,0.2c1.7,0.1,1.3-0.3,3.4-0.2l-0.8,0.2
							c1.7,0,1.6-0.1,2.6-0.4c1.1-0.1,3.3,0,3.6,0.2c0.2-0.2,1.2-0.4,2.2-0.4c0.1,0.1-0.2,0.2-0.4,0.2c2.9,0.1,4.3-0.4,6.3-0.2
							c0,0.1,0.2,0.1,0.3,0.2c-2.3,0.1-4.2,0.1-4,0.1c0,0.3,1.9,0.2,0.4,0.6c1.5-0.2,4-0.8,5.9-0.7c0.1,0,0.2,0,0.2,0.1h-0.2
							c0.4,0,0.8,0,1.1-0.1c0.6,0,1,0,1.5,0c0.2,0.2,2.1,0,3.1,0c-0.1-0.3,1.1-0.3,0-0.5c0.1,0-0.2,0-0.8,0.1c-0.1,0-0.3,0-0.4,0
							c0,0,0,0,0.1,0c-0.6,0-1.4,0.1-2.3,0.1c0.7-0.2,1.5-0.3,2.5-0.2c0.5-0.2,1-0.4,1.3-0.5c1.3,0.3,3.7,0.5,4.1,0.7
							c2.8-0.3,6.7-0.3,8.5-0.9c0.8-0.1,0.9,0.1,1.2,0.2c-0.5,0.1-1,0.1-1.3,0.2c1.6-0.2,4.8-0.2,5.2-0.6c2,0.1-1.1,0.4,1.7,0.2
							l-0.4,0.1c5.5,0.4,8.9-1.3,15-0.8c-0.4,0-0.6,0-0.7-0.1c7,0,14.3-0.9,21.2-0.7c2,0,2.2-0.2,3.3-0.5l0.4,0.3l2-0.4
							c2.9-0.4,5,0.5,8.7-0.2l-0.5-0.2c1.3,0,4.2-0.3,3.9-0.1c0.1,0,0.4-0.2,0.9-0.2v0.2l3.2-0.4c2.5,0-0.4,0.6,3.3,0.5
							c1.4-0.1,3.8-0.6,3.3-0.7c-0.5,0-1.4,0-1.5-0.2l1.2-0.1c0.2-0.5,1.1-1-1.9-1.2l-2.1,0.4l-0.7-0.2l1.8-0.1
							c-1-0.2-1.7,0.1-2.4,0.2c-0.2-0.1-0.5-0.2-0.9-0.2l-2.1,0.5c-0.3-0.2,0.9-0.4-0.5-0.4c-1,0.3,1,0.4-0.7,0.6
							c-1-0.2-0.7-0.3-1.9-0.1c-0.2-0.1,0.1-0.2,0.5-0.3c-1.1,0.2-2.8,0.2-3.3,0.5c-1.1-0.2-3.6,0.2-3.5-0.2
							c-0.3,0.1-1.8,0.4-2.8,0.5c1.8-0.6-3.6,0.1-3.2-0.4c-1.3,0.5-4.7,0.4-7.1,0.8c0.1,0,0.4-0.1,0.6-0.1c-1.3,0-1.7-0.1-2.5-0.2
							c-0.2,0.4-2.2,0.6-3.3,0.9c-1.6-0.3,1-0.5,0.4-0.8c0.1,0.3-2.8,0.4-2.2,0.7c-1.2-0.2-1.1-0.1-1.7-0.4
							c-0.2,0.5-1.1,0.1-2.1,0.5c-1.8-0.2-0.5-0.4-2.4-0.2C123.2,389.9,124.9,389.6,124.9,389.6z M78.4,392.2L78.4,392.2
							c0.4,0,0.7,0,1-0.1C79.2,392.2,78.9,392.2,78.4,392.2z M74.5,392.4c0.5,0,1.1,0,1.7,0c0.1,0.1,0,0.2-0.4,0.2
							C76,392.4,75.1,392.4,74.5,392.4z M82.8,394c-0.6,0.1-0.8,0-0.9,0c0.3,0,0.6,0,1.1-0.1h0.1C83,393.9,82.9,394,82.8,394z"/>
						<path id="XMLID_370_" class="st0" d="M83.9,393.6c0.1,0,0.1,0,0.3,0c-0.1,0-0.2,0-0.4-0.1c-0.1,0-0.1,0.1-0.2,0.1
							C83.7,393.6,83.8,393.6,83.9,393.6z"/>
						<path id="XMLID_369_" class="st0" d="M-270.8,398.2L-270.8,398.2L-270.8,398.2L-270.8,398.2z"/>
						<polygon id="XMLID_368_" class="st0" points="20.5,393.3 20.5,393.4 20.8,393.3 						"/>
						<path id="XMLID_367_" class="st0" d="M-292.3,397.3c0,0-0.1,0-0.3-0.1C-292.6,397.3-292.5,397.3-292.3,397.3z"/>
						<path id="XMLID_366_" class="st0" d="M-301.6,397.3l-1.3-0.1C-302.4,397.3-302,397.3-301.6,397.3z"/>
						<path id="XMLID_365_" class="st0" d="M-308.8,397.2c-0.1,0-0.1,0.1-0.1,0.1l0,0L-308.8,397.2z"/>
						<path id="XMLID_364_" class="st0" d="M-195,396.3c0.1,0,0.2,0,0.3,0C-194.1,396.2-194.5,396.3-195,396.3z"/>
						<path id="XMLID_363_" class="st0" d="M-228.9,397.2c0.4-0.1,0.7-0.1,1.1-0.1C-228.4,397-228.8,397-228.9,397.2z"/>
						<path id="XMLID_362_" class="st0" d="M-157.2,395.7L-157.2,395.7c0.1,0,0.1,0,0.2,0H-157.2z"/>
						<path id="XMLID_361_" class="st0" d="M-226.2,397c-0.6-0.1-1.1,0-1.6,0C-227.3,397-226.7,397.1-226.2,397z"/>
						<path id="XMLID_360_" class="st0" d="M-339.8,397.2h-0.3l0,0H-339.8z"/>
						<path id="XMLID_359_" class="st0" d="M-340.2,397.3h-0.4C-340.4,397.3-340.3,397.3-340.2,397.3z"/>
						<path id="XMLID_358_" class="st0" d="M-341.4,397.4l0.8-0.1C-340.9,397.3-341.2,397.3-341.4,397.4z"/>
						<path id="XMLID_357_" class="st0" d="M-330.3,397.3l0.1-0.1C-330.3,397.2-330.3,397.3-330.3,397.3z"/>
						<path id="XMLID_356_" class="st0" d="M-327.5,397.3c-0.7,0-1.7-0.2-2.7-0.1l-0.1,0.1C-329.8,397.1-328.1,397.5-327.5,397.3z"
							/>
						<path id="XMLID_355_" class="st0" d="M-315.4,398.5l-2.4-0.1c0.4,0.1,1,0.2-0.1,0.3C-314.9,399-318.6,398.5-315.4,398.5z"/>
						<path id="XMLID_354_" class="st0" d="M-308,398.6c-1.3,0.1,0,0.2-0.1,0.2C-307.2,398.7-307,398.7-308,398.6z"/>
						<path id="XMLID_353_" class="st0" d="M-253.9,398.3l-0.1,0.3C-253,398.6-254,398.5-253.9,398.3z"/>
						<polygon id="XMLID_352_" class="st0" points="-243.6,397 -244.5,396.8 -245,397.1 						"/>
						<polygon id="XMLID_351_" class="st0" points="-237.4,398.8 -237.9,398.8 -236.2,398.7 						"/>
						<path id="XMLID_350_" class="st0" d="M-146.6,398.1l-0.3-0.3C-147.6,397.9-147.8,398.2-146.6,398.1z"/>
						<path id="XMLID_349_" class="st0" d="M-107.4,397.4c0.4,0.2,1.5,0.2,2.2,0.1C-106.1,397.5-107,397.4-107.4,397.4z"/>
						<polygon id="XMLID_348_" class="st0" points="10.1,396.1 9.3,396.2 10.8,396.1 						"/>
					</g>
				</g>
			</g>
		</g>
	</g>
	<g id="XMLID_132_">
		<g id="XMLID_278_">
			<g id="XMLID_282_">
				<g id="XMLID_283_">
					<g id="XMLID_284_">
						<path id="XMLID_339_" class="st0" d="M-325.4,410c0.1-0.1,0.2-0.2,0.1-0.2l-0.2,0.2H-325.4z"/>
						<path id="XMLID_338_" class="st0" d="M-325.2,409.3c-0.1,0.1-0.4,0.3-0.5,0.5c0.2-0.2,0.2-0.1,0.5-0.4c0.1,0,0,0.1-0.1,0.2
							c0.1-0.1,0,0.1,0.2,0c0.1-0.2,0.1-0.3-0.1-0.2C-325.3,409.4-325.2,409.4-325.2,409.3z"/>
						<path id="XMLID_337_" class="st0" d="M-328.5,406.2L-328.5,406.2L-328.5,406.2z"/>
						<path id="XMLID_336_" class="st0" d="M-330.8,404.5C-330.8,404.5-330.7,404.5-330.8,404.5
							C-330.7,404.5-330.8,404.5-330.8,404.5z"/>
						<path id="XMLID_335_" class="st0" d="M-331,403.9C-331,403.9-331,404-331,403.9L-331,403.9z"/>
						<path id="XMLID_334_" class="st0" d="M-328.5,406.2v-0.1C-328.6,406.1-328.5,406.1-328.5,406.2z"/>
						<path id="XMLID_333_" class="st0" d="M-326.2,409.5C-326.2,409.5-326.1,409.5-326.2,409.5
							C-326.1,409.5-326.1,409.5-326.2,409.5L-326.2,409.5z"/>
						<path id="XMLID_332_" class="st0" d="M-327.3,406.7L-327.3,406.7c0,0,0.1,0,0.1-0.1L-327.3,406.7z"/>
						<path id="XMLID_331_" class="st0" d="M-326.5,407.2c0,0-0.2,0.2-0.3,0.3c0.1-0.1,0.1-0.1,0.2-0.1
							C-326.6,407.3-326.6,407.3-326.5,407.2z"/>
						<path id="XMLID_330_" class="st0" d="M-325.6,408.5L-325.6,408.5L-325.6,408.5z"/>
						<path id="XMLID_329_" class="st0" d="M-327.8,406.2L-327.8,406.2L-327.8,406.2z"/>
						<path id="XMLID_328_" class="st0" d="M-353,399.5L-353,399.5L-353,399.5z"/>
						<polygon id="XMLID_327_" class="st0" points="-354,398.1 -354,398.1 -353.9,397.9 						"/>
						<path id="XMLID_326_" class="st0" d="M-331.6,403.2L-331.6,403.2L-331.6,403.2z"/>
						<path id="XMLID_325_" class="st0" d="M-339.1,399.9c0,0.3-0.3,0.3-0.2,0.6C-339.3,400.4-339.1,400.1-339.1,399.9z"/>
						<path id="XMLID_324_" class="st0" d="M-326.2,409.5L-326.2,409.5L-326.2,409.5z"/>
						<path id="XMLID_323_" class="st0" d="M-339.3,400.5L-339.3,400.5L-339.3,400.5L-339.3,400.5z"/>
						<path id="XMLID_322_" class="st0" d="M-333.5,402.4L-333.5,402.4L-333.5,402.4z"/>
						<path id="XMLID_321_" class="st0" d="M-332.3,403.4L-332.3,403.4L-332.3,403.4z"/>
						<path id="XMLID_320_" class="st0" d="M-334.4,402.4C-334.4,402.3-334.4,402.3-334.4,402.4
							C-334.4,402.3-334.4,402.3-334.4,402.4C-334.4,402.3-334.4,402.3-334.4,402.4z"/>
						<path id="XMLID_319_" class="st0" d="M-335.1,402L-335.1,402L-335.1,402L-335.1,402z"/>
						<path id="XMLID_318_" class="st0" d="M-350.6,399.6c0-0.1,0-0.2,0-0.3C-350.6,399.6-350.7,399.6-350.6,399.6z"/>
						<path id="XMLID_317_" class="st0" d="M-326.1,409.4C-326.1,409.5-326.2,409.5-326.1,409.4L-326.1,409.4
							C-326.1,409.5-326.1,409.4-326.1,409.4z"/>
						<path id="XMLID_316_" class="st0" d="M-335.4,404.3L-335.4,404.3C-335.5,404.3-335.4,404.3-335.4,404.3z"/>
						<path id="XMLID_315_" class="st0" d="M-345,400.6L-345,400.6L-345,400.6z"/>
						<path id="XMLID_314_" class="st0" d="M-335.8,404.1c0-0.1,0-0.2,0-0.2s0,0,0,0.1V404.1z"/>
						<path id="XMLID_313_" class="st0" d="M-350.6,399.4L-350.6,399.4L-350.6,399.4z"/>
						<path id="XMLID_308_" class="st0" d="M-351.5,399.9c0.1,0,0.1-0.4,0.1-0.6c0.2-0.1,0,0.3,0.1,0.5c0.1-0.1,0.2-0.4,0.3-0.4
							c0,0.1,0,0.1,0,0.2c0.1-0.3,0.3,0,0.4-0.3v0.1c0-0.2,0-0.4,0-0.5c0.1,0,0.1-0.2,0.1,0c0,0,0,0.1-0.1,0.2l0.1-0.1
							c0,0.3-0.1,0.1-0.1,0.4c0.1-0.1,0.3-0.4,0.4-0.3c0,0.3-0.2,0.1-0.1,0.4l-0.1-0.1c0,0.5-0.1,0-0.1,0.5c0.2,0.1,0.2-0.2,0.4,0
							c0.1-0.2,0-0.3,0.1-0.5c0.3-0.3,0.1,0.9,0.3,0.5c0.1-0.2,0.2-0.6,0.2-0.4l-0.1,0.4c0.2,0.1,0.2-0.5,0.3-0.3
							c-0.1,0.1-0.1,0.1-0.1,0.2c0.1,0.3,0.1-0.2,0.2-0.2v0.3c0.2,0,0.4-0.2,0.6-0.3c0,0.1-0.1,0.2,0,0.3c0.3-0.1,0.5,0.1,0.7,0.4
							l0.1-0.3c0,0,0,0.1,0,0.2c0.1,0.1,0-0.2,0.1-0.3c0.1,0,0,0.2,0,0.3c0.2-0.2,0.6-0.4,0.7-0.1v0.1c0.1,0.1,0.3-0.6,0.3-0.3l0,0
							c0.3,0.2,0.6,0,0.8,0.5c0.1-0.4,0.2,0.2,0.4-0.3c0.1,0.3,0,0.4,0.2,0.7c0.1,0,0.2-0.3,0.3-0.4l-0.1,0.3l0.2-0.3v0.4l0.1-0.1
							c0,0,0-0.1,0-0.2c0.1-0.1,0.2,0.3,0.2,0.4l0.3-0.2c0,0.1-0.1,0.1-0.1,0.2c0.2-0.3-0.1,0.3,0.1,0.1c0-0.1,0.1-0.2,0.1-0.2
							c0,0.2,0.2,0.2,0.3,0.2l-0.1,0.2c0.2,0.1,0.4,0,0.6,0.1c-0.1-0.1,0.1-0.5,0.1-0.5l-0.1,0.3c0.1-0.2,0-0.1,0.1-0.4
							c0.1,0.1,0,0.4-0.1,0.5l0.1-0.1c0,0.1-0.1,0.1-0.1,0.3c0.1-0.2,0.1,0.4,0.2,0v0.1c0.2,0.1,0.3,0,0.5,0
							c0.1-0.3,0.1-0.2,0.3-0.4c0.1,0.1,0.2,0.4,0.3,0.4c0.1-0.1,0.1-0.2,0.2-0.4c-0.1,0.2,0.1,0.3,0,0.4c0.2,0,0.2,0,0.5-0.1
							c0-0.1,0-0.2,0-0.2c0.1,0,0.1,0.1,0,0.2l0,0c0.4-0.3,0.4,0.9,0.7,0.5l0,0l0.3-0.2c0.1,0.1-0.1,0.2-0.1,0.3
							c0.4-0.3,0.3,0.2,0.6,0c-0.1,0.8,0.5,0.1,0.6,0.7l0.1-0.2c0.1-0.1,0,0.1,0,0.2c0-0.1,0-0.2,0.1-0.2c0.5,0,0.8,0.6,1.1,0.9
							c0.1,0.1,0.4-0.8,0.5-0.3l-0.2,0.3c0.5-0.2,0.6,0.3,1.1,0.1c0,0.1-0.1,0.2-0.1,0.1c0,0.2,0.2,0.1,0.3-0.1c0,0-0.1,0.2-0.1,0.3
							c0,0.2,0.3-0.2,0.2,0l-0.1,0.1c0.1-0.1,0.2,0.1,0.3-0.2c0.1,0.2,0.3,0,0.3,0.2c0.2-0.3,0.1,0.2,0.3-0.2
							c-0.2,0.4,0,0.4,0.2,0.3c-0.1,0.1,0,0.2-0.1,0.3c0.1,0,0.2,0,0.3-0.2c-0.1,0.6,0.5-0.2,0.3,0.4c0.4-0.1,0.7-0.1,0.9-0.1
							c-0.2,0.4-0.3-0.1-0.5,0.3c0.3-0.1,0.6-0.3,0.8-0.1c0,0.1-0.1,0.2-0.2,0.2c0.3-0.1,0.4,0.3,0.7,0.1l-0.1,0.1
							c0,0,0.1,0.1,0.1-0.1h-0.1c0.1-0.3,0.4-0.5,0.5-0.6c-0.3,0.5,0.1,0.2-0.4,0.8c0,0,0.1-0.1,0.2-0.2c0,0.1,0,0.1-0.1,0.2
							c0.2,0,0.2-0.2,0.4-0.2c0,0.1-0.1,0.1-0.2,0.2c0.2-0.1,0.3-0.3,0.4-0.1l-0.1,0.1c0.2,0.1,0.5-0.3,0.6,0
							c-0.3,0.3,0,0.2-0.2,0.5h0.2l0.1-0.2c0.1,0.1,0.3-0.1,0.3,0l-0.1,0.1h0.2v-0.2c0.2-0.1,0.2-0.4,0.3-0.3c0,0,0.1,0.1,0,0.3l0,0
							c0.1-0.1,0.2-0.2,0.2,0c0,0.1-0.2,0.3-0.3,0.4c0.2-0.2,0.2,0.1,0.5-0.2c-0.1,0.1-0.2,0.2-0.2,0.3l0.2-0.2c0,0.1,0,0.1-0.1,0.3
							c0.1,0.1,0.2-0.4,0.2-0.2c0,0,0,0-0.1,0.1c0.1,0.2,0.4,0,0.4,0.2c-0.2,0.3-0.2,0-0.3,0.3c0.2,0.1,0.6-0.1,0.8,0.1v-0.1
							c0.3-0.4,0,0.3,0.2,0.2l-0.2,0.2c0.1,0.2,0.3,0.1,0.6,0l-0.1,0.1c0,0.1,0.1,0.2,0.2,0.3c0.1-0.1,0.1,0,0.2-0.2
							c-0.2,0.8,0.7,0,0.5,0.6l-0.1,0.1h0.2c0.1-0.2,0.1-0.1,0.1-0.3c0.1-0.1,0.2-0.1,0.3-0.1c-0.2,0.1-0.2,0.3-0.3,0.4
							c0-0.1,0.1-0.1,0.1-0.2c-0.2,0.4,0.3-0.4,0.3,0l-0.1,0.1c0.1,0,0.2-0.1,0.3,0c-0.1,0.2-0.1,0.1-0.3,0.2c0.1,0,0.4-0.3,0.3,0
							c-0.1,0-0.1,0-0.2,0c-0.1,0.3-0.1,0.2,0,0.3l0,0v0.2v-0.1c0.5-0.5,0.3,0,0.7-0.2c-0.4,0.3-0.2,0.2-0.4,0.4
							c0,0.1,0,0.2-0.1,0.3c0.2-0.2,0,0.2,0.3,0c-0.1,0.1,0.1,0.1-0.1,0.2c0.1,0,0.1-0.1,0.2-0.2c0.3-0.2,0,0.5,0.4,0.3
							c0.3,0,0.5-0.3,0.7-0.3c-0.1,0.2-0.3,0.2-0.3,0.2c0,0.2,0,0.2,0.2,0.2c-0.1,0.1-0.1,0.1-0.1,0.2c0.1,0,0.3-0.2,0.2-0.1
							s-0.2,0.2-0.3,0.3c0.1,0,0.3-0.1,0.4-0.1c-0.1,0.1-0.2,0.2-0.3,0.2c0.1,0,0.3,0,0.5-0.2v-0.1c0,0-0.1,0.2-0.2,0.2
							c-0.2,0.1,0-0.1,0-0.2h0.1c0.3-0.5-0.2-0.1-0.3-0.2l0.3-0.3l-0.3,0.2c0-0.1,0.2-0.3,0.3-0.3c0.1-0.2-0.2,0.1-0.1-0.2
							c0,0,0,0,0-0.1h-0.1c0.1-0.1,0.2-0.2,0.2-0.2c0-0.3-0.4,0.1-0.2-0.2l0,0c-0.2,0-0.2,0.2-0.5,0.4l0.4-0.7l-0.2,0.2
							c0,0,0-0.1,0.1-0.2c-0.2,0.1-0.1,0.1-0.2,0.2c0.1-0.3-0.3-0.1,0-0.5c-0.2,0.2,0,0.2-0.2,0.3c0.3-0.4-0.2,0-0.1-0.3
							c0.2-0.2,0.2,0,0.2-0.3c-0.3,0.3-0.1-0.2-0.2-0.2c-0.2,0.3-0.2,0-0.4,0c0.1-0.1-0.1-0.3-0.1-0.5l0,0c-0.2,0.3-0.3,0.2-0.4,0.2
							c0.1-0.2,0.2-0.2,0.3-0.3l-0.1-0.1c-0.1,0.1-0.1,0.1-0.2,0.1l0.2-0.2c-0.1-0.1-0.4,0.1-0.4-0.1c-0.2,0.2-0.3,0.6-0.5,0.7
							c0.1-0.1,0.2-0.3,0.3-0.3c0,0-0.1,0.1-0.1,0l0.2-0.2c0-0.1-0.1,0.1-0.2,0.1c0.1-0.2,0-0.1,0.1-0.3c0,0,0,0.1,0.1,0
							c0-0.1,0-0.2,0-0.3c-0.1,0.1-0.2,0.2-0.2,0.2c-0.1-0.1,0.1-0.2,0.1-0.3c-0.1,0.1-0.1-0.1-0.3,0.2c0,0,0-0.1,0.1-0.2
							c-0.1,0.1-0.3-0.1-0.4,0.2l0,0l0,0l0,0l0,0c-0.3,0.1-0.2-0.4-0.5-0.4l0.1-0.1c-0.2,0-0.3-0.1-0.4,0c0,0,0-0.2,0.1-0.3
							c-0.1,0-0.2,0.1-0.2-0.1c0.2-0.1,0.1-0.1,0.1-0.1c-0.1-0.1,0-0.3-0.2-0.1c0.2-0.2,0.1-0.3,0-0.3v0.2c-0.1,0-0.1,0-0.1-0.1
							l0.2-0.3c0-0.5-0.7,0.4-0.5-0.3c-0.2,0.2,0,0.2-0.2,0.4c-0.1-0.1,0.1-0.6,0.1-0.6c0-0.2-0.4,0.3-0.4,0.1
							c0,0.1-0.2,0.4-0.3,0.4c-0.1-0.1,0.1-0.5,0.3-0.5c0,0,0,0,0,0.1c0.1,0,0.1,0,0.1-0.2l-0.1,0.1c0-0.1-0.1-0.2,0-0.4
							c-0.1,0.1-0.1,0.1-0.1,0.2c0-0.2-0.2-0.1-0.3-0.3c0,0.1-0.1,0.2-0.1,0.2c-0.1-0.2-0.2,0.1-0.3,0.1c0-0.2,0.2-0.4,0-0.3
							c0-0.1,0.1-0.3,0.2-0.3c-0.2,0.1-0.1-0.3-0.2-0.3h0.1c-0.1,0-0.1,0-0.1,0l-0.1,0.2c0-0.1,0-0.1,0-0.2
							c-0.1,0.1-0.2,0.4-0.3,0.5c0-0.1-0.2,0-0.1-0.3c0.1,0.2,0.1-0.3,0.3-0.3c0,0-0.1,0-0.1-0.1c0,0,0-0.1,0.1-0.1
							c0-0.3-0.2,0.3-0.4,0.2c0.1-0.1,0.1-0.3,0.1-0.3c0.1,0-0.1,0.3-0.2,0.4c0-0.2-0.2,0-0.2,0v0.1c-0.1,0.1-0.1,0.1-0.2,0.1
							c0.1-0.1,0.1,0,0.1-0.1c-0.2,0.2,0-0.4-0.2-0.3c0-0.1,0.2-0.3,0.2-0.4c-0.2,0.1,0-0.3-0.2-0.2c-0.1,0.2,0,0.2-0.2,0.3h0.3
							l-0.3,0.2c0.1,0,0.2-0.1,0.2,0c-0.2,0.1-0.1,0.1-0.2,0.3c0.1-0.4-0.3,0.1-0.2-0.2l0.3-0.5c0-0.3-0.4,0.1-0.5-0.1v0.1
							c-0.1,0.2-0.1,0-0.2,0c0.1-0.2,0.1-0.3,0.1-0.4c-0.1,0.1-0.1-0.1-0.3,0.3v-0.3c-0.1-0.2-0.4,0.4-0.5,0.3
							c0.1-0.2,0.1-0.3,0.3-0.4c0,0-0.1-0.1-0.1,0c0-0.1-0.3,0.2-0.2,0c-0.1,0.1-0.2,0.2-0.2,0.2v-0.1c0,0.1-0.1,0.1-0.2,0.3
							c0.1-0.6-0.4-0.2-0.4-0.7c-0.1,0-0.3,0-0.4,0c0-0.1,0-0.1,0.1-0.1c-0.1-0.2-0.3,0.5-0.4,0.2c0.1-0.3,0.2-0.1,0.2-0.3
							c0.2-0.6-0.2,0-0.2-0.4l0,0c0-0.2-0.3,0.1-0.4,0c0,0,0,0,0-0.1c-0.2,0.3-0.4,0.3-0.6,0.3c0.1-0.2,0.1-0.1,0.2-0.3
							c-0.1,0-0.1,0.4-0.3,0.4c0-0.1,0-0.3,0.1-0.5h0.1c0.1-0.4-0.1,0-0.2-0.1l0.1-0.1c-0.2,0-0.3,0.3-0.5,0.2v0.1
							c-0.2,0.3,0-0.2-0.2,0l0.1-0.4c-0.1,0.1-0.4,0.3-0.5,0.3c0.2-0.2,0.4-0.3,0.5-0.5c-0.1,0-0.2-0.1-0.3,0.1c0,0,0.1-0.1,0.1,0
							c-0.2,0.3-0.4,0.4-0.5,0.3c0.3-0.7-0.3-0.3-0.1-0.9c-0.3,0.2-0.4-0.3-0.7-0.3c-0.1,0.6-0.1,0-0.3,0.6c-0.1,0-0.1,0-0.1,0
							l-0.1-0.4c0-0.2,0.1-0.1,0.1-0.2c-0.1-0.1,0-0.3,0-0.5c-0.1,0.2-0.2,0.3-0.2,0.2v0.3c-0.3,0.2,0-0.5-0.3-0.3l0.1-0.2
							c-0.1,0.1-0.4-0.1-0.6,0.3c0-0.1,0-0.2,0.1-0.3c-0.2-0.1-0.7,0.3-0.8,0l0.1-0.1c-0.1,0-0.2,0.2-0.2,0.1s0.1-0.1,0-0.2
							c0,0-0.2,0.2-0.2,0.1l0.1-0.1c-0.2-0.3-0.5,0.3-0.7,0.3c0.1-0.4,0-0.6-0.1-0.7v-0.1c-0.3-0.1-0.6,0.2-0.9,0.3
							c0-0.5-0.5-0.3-0.7-0.7c0,0.1-0.1,0.3-0.1,0.4c0-0.1-0.2,0.3-0.1-0.1l0,0c0.1-0.4-0.1-0.3-0.2-0.4l-0.1,0.5
							c-0.1-0.8-0.7,0.1-0.7-0.6c-0.1,0.1-0.2,0.1-0.3,0.2l0.1-0.3c-0.2-0.1-0.2-0.2-0.5-0.1l0.1-0.2c-0.1,0-0.3,0.8-0.4,0.8
							l0.1-0.4c-0.2,0-0.3-0.4-0.6-0.1c0-0.1,0-0.2,0.1-0.2c-0.1,0-0.3-0.4-0.4,0.2c0.1-0.4-0.2-0.1-0.3,0.1l0.1-0.3
							c-0.2,0.3-0.2,0.4-0.3,0.5c0,0,0-0.2,0-0.1c-0.1-0.2-0.1,0.2-0.2,0.1l0.1-0.2c-0.1,0-0.1,0.1-0.2,0.2
							c-0.1,0.1-0.2-0.1-0.2-0.4c0,0.1-0.1,0.3-0.2,0.3c0-0.1,0-0.1,0.1-0.2c-0.1-0.2-0.3,0.3-0.4,0c0-0.1,0-0.1,0-0.2
							c0.1,0,0.3,0.1,0.2,0.1c0-0.3-0.1-0.3,0.1-0.7c-0.1,0.2-0.4,0.6-0.4,0.4v-0.1l0,0c0,0,0,0-0.1,0c0,0,0-0.1-0.1-0.1
							c0-0.2-0.1-0.1-0.2-0.2c0,0.3-0.1,0.2-0.1,0.5c0,0,0,0,0.1,0l0,0l0,0h0.1c-0.1,0.1-0.1,0.2-0.2,0.1c-0.1,0.2-0.1,0.4-0.1,0.4
							c0-0.4-0.1-0.6-0.1-0.9c-0.2,0.1-0.4,0-0.6,0.5c-0.1,0.1,0-0.2,0-0.2s0.1,0,0.1-0.1c-0.1,0.1-0.3,0-0.4,0.4
							c-0.1-0.2,0.1-0.3-0.1-0.3v-0.1c-0.3-0.6-0.7,0.9-1,0.1v0.1c-0.4-0.4-0.9,0.2-1.3-0.3c-0.1-0.1-0.1,0.1-0.2,0.3v-0.3l-0.2,0.3
							c-0.2,0.2-0.3-0.8-0.5-0.3v0.2c-0.1,0-0.3,0.1-0.2-0.1c0,0,0,0.2-0.1,0.1v-0.2l-0.2,0.3c-0.1-0.1,0.1-0.6-0.2-0.7
							c-0.1,0.1-0.3,0.4-0.2,0.6c0,0,0.1,0.1,0.1,0.3l-0.1,0.1c0,0.5-0.1,0.9,0.1,1.3l0.1-0.3v0.2h-0.1c0.1,0.2,0.1,0,0.1-0.1
							c0,0.1,0,0.2,0,0.3l0.1-0.4c0,0.2-0.1,0.4,0,0.5c0.1-0.2,0-0.4,0.1-0.5c0,0.2,0,0.4,0.1,0.2c0,0.1,0,0.2,0,0.2
							c0.1-0.1,0.2-0.1,0.2-0.3c0,0.3,0.2-0.1,0.2,0.4c0-0.1,0.1-0.3,0.2-0.4c-0.1,0.5,0.2,0,0.1,0.6c0.1-0.5,0.3-0.2,0.5-0.4v0.1
							c0.1,0,0.1,0.2,0.1,0.3c0-0.4,0.2-0.5,0.3-0.7c0.1,0.4-0.1,0.5-0.1,0.8c0-0.3,0.2-0.3,0.2-0.6c0.1,0.2,0.1,0.1,0.1,0.4
							c0.1-0.5,0.1-0.1,0.2-0.4c0.1,0.3,0,0.5,0.1,0.3C-351.4,399.8-351.5,399.9-351.5,399.9z M-348.6,399.5L-348.6,399.5
							L-348.6,399.5L-348.6,399.5z M-348.4,399.5L-348.4,399.5c-0.1-0.1-0.1-0.2,0-0.2C-348.4,399.3-348.4,399.4-348.4,399.5z
							 M-348.6,397.5C-348.5,397.5-348.5,397.5-348.6,397.5c0,0.1,0,0.1,0,0.1l0,0V397.5z"/>
						<path id="XMLID_307_" class="st0" d="M-348.7,397.8C-348.7,397.8-348.7,397.9-348.7,397.8
							C-348.7,397.9-348.7,397.9-348.7,397.8L-348.7,397.8L-348.7,397.8z"/>
						<path id="XMLID_306_" class="st0" d="M-328.5,406.2L-328.5,406.2C-328.5,406.2-328.5,406.3-328.5,406.2
							C-328.5,406.3-328.5,406.2-328.5,406.2z"/>
						<polygon id="XMLID_305_" class="st0" points="-345.3,400.7 -345.3,400.6 -345.3,400.6 						"/>
						<path id="XMLID_304_" class="st0" d="M-328,407.8L-328,407.8L-328,407.8z"/>
						<path id="XMLID_303_" class="st0" d="M-327.6,408.2v0.1C-327.5,408.2-327.5,408.2-327.6,408.2z"/>
						<path id="XMLID_302_" class="st0" d="M-327.3,408.5C-327.3,408.5-327.2,408.5-327.3,408.5L-327.3,408.5L-327.3,408.5z"/>
						<path id="XMLID_301_" class="st0" d="M-333.2,405.1L-333.2,405.1C-333.3,405.1-333.3,405.1-333.2,405.1z"/>
						<path id="XMLID_300_" class="st0" d="M-331.1,405.5l-0.1,0.1C-331.2,405.7-331.2,405.7-331.1,405.5z"/>
						<path id="XMLID_299_" class="st0" d="M-335.4,404.3L-335.4,404.3L-335.4,404.3z"/>
						<path id="XMLID_298_" class="st0" d="M-331.3,405.6L-331.3,405.6C-331.3,405.6-331.3,405.5-331.3,405.6z"/>
						<path id="XMLID_297_" class="st0" d="M-325.9,409.8L-325.9,409.8L-325.9,409.8L-325.9,409.8z"/>
						<path id="XMLID_296_" class="st0" d="M-325.9,409.8L-325.9,409.8C-325.8,409.8-325.8,409.8-325.9,409.8z"/>
						<path id="XMLID_295_" class="st0" d="M-325.7,409.8L-325.7,409.8C-325.8,409.8-325.8,409.8-325.7,409.8z"/>
						<path id="XMLID_294_" class="st0" d="M-326.3,409.3L-326.3,409.3C-326.3,409.4-326.3,409.4-326.3,409.3z"/>
						<path id="XMLID_293_" class="st0" d="M-326.4,409.3c0,0-0.1,0.2,0,0.2l0.1-0.1C-326.5,409.5-326.3,409.1-326.4,409.3z"/>
						<path id="XMLID_292_" class="st0" d="M-326.2,407.8l0.1,0.2c0-0.1,0.1-0.2,0.2-0.2C-325.9,407.4-326.1,408-326.2,407.8z"/>
						<path id="XMLID_291_" class="st0" d="M-326.5,407.4c0.1,0,0.1-0.1,0.1-0.2C-326.5,407.3-326.5,407.3-326.5,407.4z"/>
						<path id="XMLID_290_" class="st0" d="M-329.2,405.5l0.1-0.2C-329.2,405.2-329.1,405.3-329.2,405.5z"/>
						<polygon id="XMLID_289_" class="st0" points="-330.5,406.2 -330.5,406.4 -330.4,406.2 						"/>
						<polygon id="XMLID_288_" class="st0" points="-329.8,404.5 -329.8,404.5 -329.9,404.5 						"/>
						<path id="XMLID_287_" class="st0" d="M-334.9,401.8l-0.1,0.3C-334.9,402.1-334.8,401.8-334.9,401.8z"/>
						<path id="XMLID_286_" class="st0" d="M-337.3,401.1c0-0.2,0-0.3-0.1-0.1C-337.3,401-337.3,401.2-337.3,401.1z"/>
						<path id="XMLID_285_" class="st0" d="M-344.1,398.3L-344.1,398.3L-344.1,398.3z"/>
					</g>
				</g>
			</g>
		</g>
	</g>
	<g id="XMLID_79_">
		<g id="XMLID_215_">
			<g id="XMLID_219_">
				<g id="XMLID_220_">
					<g id="XMLID_221_">
						<path id="XMLID_276_" class="st0" d="M-334.7,383.6c-0.1-0.1-0.2-0.2-0.2-0.1L-334.7,383.6L-334.7,383.6z"/>
						<path id="XMLID_275_" class="st0" d="M-335.3,383.4c0.1,0.1,0.3,0.3,0.6,0.5c-0.2-0.2-0.1-0.1-0.4-0.4c0,0,0.1,0,0.2,0.1
							c-0.1-0.1,0.1,0-0.1-0.1c-0.2-0.1-0.3-0.1-0.1,0.1C-335.2,383.5-335.3,383.5-335.3,383.4z"/>
						<path id="XMLID_274_" class="st0" d="M-337.5,385.6L-337.5,385.6L-337.5,385.6z"/>
						<path id="XMLID_273_" class="st0" d="M-338.9,386.9C-338.9,386.8-338.9,386.8-338.9,386.9
							C-338.9,386.8-338.9,386.8-338.9,386.9z"/>
						<path id="XMLID_272_" class="st0" d="M-339.4,386.8C-339.4,386.8-339.3,386.8-339.4,386.8L-339.4,386.8z"/>
						<path id="XMLID_271_" class="st0" d="M-337.5,385.6L-337.5,385.6C-337.6,385.6-337.6,385.6-337.5,385.6z"/>
						<path id="XMLID_270_" class="st0" d="M-334.9,384.2L-334.9,384.2L-334.9,384.2L-334.9,384.2z"/>
						<path id="XMLID_269_" class="st0" d="M-337.2,384.8L-337.2,384.8l-0.1-0.1L-337.2,384.8z"/>
						<path id="XMLID_268_" class="st0" d="M-336.9,384.2c0,0,0.2,0.2,0.3,0.3c-0.1-0.1-0.1-0.1-0.1-0.1
							C-336.8,384.3-336.8,384.3-336.9,384.2z"/>
						<path id="XMLID_267_" class="st0" d="M-335.9,383.7L-335.9,383.7L-335.9,383.7z"/>
						<path id="XMLID_266_" class="st0" d="M-337.5,385.1C-337.6,385.1-337.6,385-337.5,385.1L-337.5,385.1z"/>
						<path id="XMLID_265_" class="st0" d="M-351.4,396.4L-351.4,396.4L-351.4,396.4z"/>
						<polygon id="XMLID_264_" class="st0" points="-352.5,395.2 -352.5,395.2 -352.5,395 						"/>
						<path id="XMLID_263_" class="st0" d="M-340,387L-340,387C-340,386.9-340,387-340,387z"/>
						<path id="XMLID_262_" class="st0" d="M-343.9,390.4c0.2,0.2,0.1,0.3,0.3,0.5C-343.7,390.8-343.8,390.5-343.9,390.4z"/>
						<path id="XMLID_261_" class="st0" d="M-334.9,384.2L-334.9,384.2L-334.9,384.2z"/>
						<path id="XMLID_260_" class="st0" d="M-343.6,390.9L-343.6,390.9L-343.6,390.9z"/>
						<path id="XMLID_259_" class="st0" d="M-340.9,388C-340.8,388-340.8,388-340.9,388C-340.8,388-340.8,388-340.9,388z"/>
						<path id="XMLID_258_" class="st0" d="M-339.9,387.6L-339.9,387.6L-339.9,387.6z"/>
						<path id="XMLID_257_" class="st0" d="M-341,388.6L-341,388.6L-341,388.6L-341,388.6z"/>
						<path id="XMLID_256_" class="st0" d="M-341.4,389L-341.4,389L-341.4,389L-341.4,389z"/>
						<path id="XMLID_255_" class="st0" d="M-349.8,395.8c0-0.1-0.1-0.2-0.1-0.2C-349.8,395.7-349.9,395.8-349.8,395.8z"/>
						<path id="XMLID_254_" class="st0" d="M-335,384.1C-335,384.2-334.9,384.2-335,384.1L-335,384.1
							C-335,384.2-335,384.2-335,384.1z"/>
						<path id="XMLID_253_" class="st0" d="M-339.5,390.3L-339.5,390.3C-339.6,390.4-339.6,390.3-339.5,390.3z"/>
						<path id="XMLID_252_" class="st0" d="M-346,394.2L-346,394.2C-346,394.3-346,394.3-346,394.2z"/>
						<path id="XMLID_251_" class="st0" d="M-339.8,390.6c-0.1-0.1-0.1-0.1-0.2-0.1c0,0,0,0,0,0.1H-339.8z"/>
						<path id="XMLID_250_" class="st0" d="M-349.9,395.5L-349.9,395.5L-349.9,395.5z"/>
						<path id="XMLID_245_" class="st0" d="M-350.3,396.4c0.1,0-0.1-0.4-0.1-0.6c0.1-0.1,0.1,0.2,0.2,0.4c0-0.1,0-0.5,0-0.5
							c0,0.1,0,0.1,0,0.2c0-0.3,0.2-0.1,0.2-0.4v0.1c-0.1-0.2-0.1-0.4-0.2-0.5c0,0,0-0.2,0.1,0c0,0,0,0.1,0,0.2v-0.1
							c0.1,0.3,0,0.1,0.1,0.4c0-0.1,0-0.4,0.1-0.4c0.1,0.3-0.1,0.1,0.1,0.4l-0.1-0.1c0.2,0.5-0.1,0,0.2,0.5c0.1,0.1,0.1-0.2,0.2-0.1
							c0-0.2-0.1-0.3-0.1-0.5c0.1-0.4,0.4,0.8,0.4,0.3c0-0.2-0.2-0.6,0-0.5l0.1,0.4c0.1,0-0.1-0.5,0.1-0.3c0,0.1,0,0.2,0,0.2
							c0.2,0.3,0-0.2,0-0.2l0.1,0.3c0.1-0.1,0.2-0.4,0.3-0.5c0,0.1,0,0.2,0.1,0.3c0.1-0.2,0.4-0.1,0.6,0v-0.3c0,0,0.1,0.1,0.1,0.2
							c0.1,0.1-0.1-0.2-0.1-0.3c0,0,0.1,0.1,0.1,0.2c0-0.3,0.1-0.6,0.3-0.4v0.1c0.1,0.1-0.1-0.6,0.1-0.4v0.1c0.2,0,0.3-0.3,0.7,0
							c-0.1-0.4,0.3,0.1,0-0.5c0.2,0.2,0.2,0.3,0.5,0.4c0.1,0-0.1-0.4-0.1-0.4l0.1,0.3l-0.1-0.3l0.2,0.3v-0.1c0,0-0.1-0.1-0.1-0.2
							c0-0.2,0.3,0.1,0.3,0.2l0.1-0.3c0.1,0.1,0,0.2,0.1,0.2c0-0.3,0.2,0.3,0.1,0c0-0.1-0.1-0.2-0.1-0.2c0.1,0.1,0.2,0.1,0.3,0
							l0.1,0.2c0.2,0,0.2-0.2,0.4-0.3c-0.1-0.1-0.3-0.4-0.2-0.4l0.2,0.3c-0.1-0.2-0.1-0.1-0.2-0.3c0.1,0,0.2,0.3,0.2,0.4v-0.1
							c0,0.1,0.1,0.1,0.1,0.2c-0.1-0.2,0.3,0.2,0.1-0.1v0.1c0.1-0.1,0.2-0.2,0.3-0.3c-0.1-0.2-0.1-0.2-0.1-0.4
							c0.1,0,0.3,0.2,0.4,0.1c0-0.2-0.1-0.2-0.2-0.4c0.1,0.2,0.2,0.1,0.3,0.3c0.1-0.1,0.1-0.1,0.2-0.4c-0.1-0.1-0.1-0.1-0.1-0.2
							c0-0.1,0.1,0.1,0.2,0.2l0,0c0-0.4,0.8,0.4,0.6-0.1l0,0v-0.3c0.1,0,0.1,0.2,0.2,0.3c-0.1-0.5,0.3-0.1,0.2-0.4
							c0.5,0.6,0.3-0.3,0.7,0l-0.1-0.1c-0.1-0.2,0.1,0.1,0.1,0.1c-0.1-0.1-0.1-0.1-0.2-0.2c0.2-0.4,0.7-0.2,1.1-0.3
							c0.1,0-0.5-0.8-0.1-0.5l0.2,0.3c0-0.5,0.4-0.3,0.4-0.7c0,0.1,0.1,0.1,0.1,0.2c0.2,0.2,0.2-0.1,0-0.3c0,0,0.1,0.1,0.2,0.2
							c0.1,0.1-0.1-0.3,0.1-0.2v0.1c0-0.1,0.1-0.1-0.1-0.3c0.2,0,0.1-0.2,0.2-0.1c-0.2-0.3,0.2,0-0.1-0.3c0.3,0.3,0.4,0.2,0.3,0
							c0.1,0.1,0.1,0.1,0.2,0.2c0,0,0-0.2-0.1-0.3c0.4,0.3-0.1-0.5,0.4,0c0-0.3,0-0.6,0.1-0.8c0.3,0.3-0.1,0.2,0.2,0.5
							c0-0.3-0.2-0.6,0-0.6c0.1,0,0.1,0.2,0.2,0.2c0-0.2,0.3-0.2,0.2-0.5c0,0,0,0.1,0.1,0.1c0,0,0.1,0-0.1-0.1v0.1
							c-0.2-0.2-0.4-0.5-0.5-0.6c0.4,0.5,0.2,0,0.7,0.6c0,0-0.1-0.1-0.2-0.2c0,0,0.1,0.1,0.2,0.2c0-0.2-0.2-0.3-0.1-0.3
							c0.1,0.1,0.1,0.1,0.2,0.2c-0.1-0.2-0.2-0.3-0.1-0.3l0.1,0.1c0.1-0.1-0.2-0.5,0-0.5c0.3,0.3,0.1,0.1,0.4,0.3v-0.1l-0.2-0.1
							c0.1,0-0.1-0.3,0-0.2l0.1,0.1v-0.1h-0.2c-0.1-0.2-0.3-0.3-0.2-0.3c0,0,0.1,0,0.2,0.1l0,0c-0.1-0.1-0.1-0.2,0-0.2
							c0.1,0.1,0.3,0.3,0.4,0.3c-0.2-0.2,0-0.2-0.2-0.4c0,0.1,0.2,0.2,0.2,0.2l-0.2-0.2c0.1,0,0.1,0.1,0.2,0.2
							c0.1,0-0.4-0.3-0.1-0.2c0,0,0,0,0.1,0.1c0.2,0,0-0.3,0.2-0.3c0.3,0.2,0,0.1,0.3,0.3c0.1-0.2-0.1-0.5,0-0.6l0,0
							c-0.4-0.4,0.3,0.1,0.1-0.1l0.2,0.2c0.1,0,0-0.2,0-0.5l0.1,0.1c0.1,0,0.2-0.1,0.2-0.1c-0.1-0.1-0.1-0.1-0.2-0.2
							c0.7,0.3-0.1-0.6,0.5-0.3l0.1,0.1v-0.2c-0.2-0.1-0.1-0.1-0.3-0.2c-0.1-0.1-0.2-0.2-0.1-0.2c0.1,0.1,0.3,0.2,0.4,0.3
							c-0.1,0-0.1-0.1-0.2-0.1c0.4,0.2-0.4-0.3-0.1-0.2l0.1,0.1c0-0.1-0.1-0.2-0.1-0.2c0.2,0.1,0.1,0.1,0.2,0.2
							c0-0.1-0.3-0.4-0.1-0.3c0,0.1,0,0.1,0.1,0.2c0.3,0.1,0.2,0.1,0.3,0.1l0,0h0.2h-0.1c-0.5-0.5,0-0.2-0.3-0.6
							c0.3,0.3,0.2,0.2,0.4,0.3c0.1,0,0.2,0.1,0.2,0.1c-0.2-0.2,0.2,0,0-0.2c0.1,0.1,0,0,0.2,0.1c0-0.1-0.1-0.1-0.2-0.2
							c-0.2-0.3,0.5,0,0.2-0.3c-0.1-0.2-0.3-0.4-0.4-0.6c0.2,0.1,0.3,0.2,0.3,0.2c0.2,0,0.2,0,0.1-0.1c0.1,0.1,0.1,0.1,0.2,0.1
							c0-0.1-0.3-0.2-0.1-0.2c0.1,0.1,0.2,0.2,0.3,0.3c0-0.1-0.2-0.2-0.2-0.3c0.2,0.1,0.2,0.2,0.3,0.2c0-0.1,0-0.2-0.3-0.4h-0.1
							c0,0,0.2,0.1,0.2,0.2c0.1,0.2-0.1,0-0.2,0v-0.1c-0.5-0.3,0,0.2-0.1,0.2l-0.3-0.3l0.2,0.3c-0.1,0-0.3-0.2-0.3-0.2
							c-0.2-0.1,0.1,0.1-0.1,0c0,0,0,0-0.1,0l0.1,0.1c-0.1-0.1-0.2-0.2-0.2-0.2c-0.3-0.1,0.2,0.3-0.1,0.2l0,0c0,0.2,0.2,0.2,0.5,0.5
							l-0.7-0.4l0.2,0.2c0,0-0.1,0-0.1-0.1c0.1,0.2,0.1,0.1,0.3,0.2c-0.3-0.1,0,0.2-0.4,0c0.2,0.2,0.2,0.1,0.3,0.2
							c-0.4-0.3,0,0.1-0.2,0c-0.2-0.2-0.1-0.1-0.3-0.2c0.3,0.3-0.2,0-0.1,0.1c0.3,0.2,0.1,0.2,0.1,0.3c-0.1-0.1-0.3,0-0.4,0l0,0
							c0.3,0.2,0.2,0.3,0.2,0.4c-0.2-0.1-0.2-0.2-0.3-0.3l0,0c0.1,0.1,0.1,0.1,0.1,0.2l-0.2-0.2c0,0.1,0.2,0.3,0,0.3
							c0.2,0.2,0.6,0.4,0.7,0.6c-0.1-0.1-0.3-0.2-0.3-0.3c0,0,0.1,0.1,0,0.1l-0.2-0.2c-0.1,0,0.1,0.1,0.1,0.2
							c-0.2-0.1-0.1-0.1-0.2-0.2c0,0,0.1,0,0,0s-0.2,0-0.3-0.1c0.1,0.1,0.2,0.2,0.2,0.2c0,0.1-0.2-0.1-0.3-0.2c0.1,0.1,0,0,0.2,0.2
							c0,0-0.1-0.1-0.2-0.1c0.1,0.1-0.1,0.2,0.2,0.3l0,0l0,0l0,0l0,0c0.1,0.3-0.3,0.1-0.3,0.3l-0.1-0.1c0,0.1-0.1,0.2,0.1,0.4
							c0,0-0.2-0.1-0.3-0.2c0,0.1,0.1,0.2-0.1,0.1c-0.1-0.2-0.1-0.1-0.1-0.1c-0.1,0-0.2-0.1-0.1,0.1c-0.2-0.2-0.3-0.2-0.2-0.1
							l0.2,0.1c0,0.1,0,0.1-0.1,0.1l-0.2-0.2c-0.4-0.2,0.3,0.7-0.3,0.3c0.1,0.2,0.2,0,0.4,0.3c-0.1,0-0.5-0.2-0.5-0.2
							c-0.2-0.1,0.3,0.4,0.1,0.4c0.1,0.1,0.3,0.3,0.4,0.4c-0.1,0-0.4-0.3-0.5-0.4c0,0,0,0,0.1,0c0,0,0-0.1-0.1-0.2l0.1,0.1
							c-0.1-0.1-0.2,0-0.3-0.1c0,0.1,0.1,0.2,0.2,0.2c-0.2-0.1-0.1,0.1-0.2,0.1c0.1,0,0.2,0.1,0.2,0.1c-0.2,0,0.1,0.2,0.1,0.3
							c-0.2-0.1-0.3-0.3-0.3-0.1c-0.1,0-0.2-0.2-0.3-0.3c0.1,0.2-0.2,0-0.3,0v-0.1c0,0.1,0,0.1,0,0.1l0.2,0.1c0,0-0.1,0-0.1-0.1
							c0.1,0.1,0.3,0.3,0.4,0.5c-0.1-0.1,0,0.2-0.2,0c0.2,0-0.2-0.2-0.2-0.3c0,0,0,0.1-0.1,0c0,0,0,0-0.1-0.1
							c-0.3-0.1,0.2,0.3,0.1,0.4c-0.1-0.1-0.3-0.2-0.2-0.2c0,0,0.2,0.2,0.3,0.3c-0.1,0,0,0.1,0,0.1h0.1c0.1,0.1,0.1,0.1,0.1,0.2
							c-0.1-0.1,0-0.1-0.1-0.1c0.2,0.3-0.3-0.1-0.2,0.1c-0.1-0.1-0.2-0.2-0.3-0.3c0.1,0.2-0.2-0.1-0.2,0.1c0.2,0.2,0.1,0.1,0.3,0.3
							v-0.2l0.2,0.3v-0.2c0.1,0.2,0.1,0.1,0.2,0.3c-0.3-0.2,0.1,0.2-0.2,0.1l-0.4-0.4c-0.3-0.1,0.1,0.3-0.1,0.3h0.1
							c0.1,0.2,0,0.1,0,0.2c-0.1-0.1-0.2-0.2-0.3-0.3c0.1,0.1-0.1,0.1,0.2,0.4l-0.2-0.2c-0.2,0,0.3,0.5,0.2,0.5
							c-0.1-0.2-0.2-0.3-0.3-0.4c0,0-0.1,0,0,0.1c-0.1-0.1,0.1,0.3,0,0.1c0,0.1,0.2,0.2,0.1,0.3l-0.1-0.1c0.1,0.1,0,0.1,0.2,0.3
							c-0.5-0.4-0.2,0.2-0.6-0.1c0,0.1-0.1,0.2-0.1,0.3c0,0-0.1-0.1,0-0.1c-0.2-0.1,0.3,0.5,0.1,0.4c-0.2-0.2-0.1-0.2-0.2-0.2
							c-0.4-0.5,0,0.2-0.3-0.1l0,0c-0.2-0.1,0,0.3-0.1,0.3c0,0,0,0-0.1-0.1c0.2,0.3,0.1,0.5,0.1,0.6c-0.1-0.2,0-0.1-0.2-0.3
							c0,0.1,0.3,0.3,0.2,0.4c-0.1-0.1-0.2-0.2-0.4-0.4l0.1-0.1c-0.2-0.3-0.1,0.1-0.1,0l-0.1-0.1c-0.1,0.1,0.2,0.4,0.1,0.5l0.1,0.1
							c0.2,0.4-0.2-0.1-0.1,0.1l-0.2-0.3c0,0.1,0.1,0.4,0.1,0.5c-0.1-0.3-0.1-0.4-0.2-0.6c0,0-0.1,0.1,0,0.3v-0.1
							c0.1,0.3,0.2,0.5,0.1,0.5c-0.4-0.6-0.3,0-0.7-0.5c0,0.3-0.3,0.1-0.5,0.2c0.4,0.5,0,0,0.3,0.5c0,0.1,0,0.1-0.1,0l-0.3-0.2
							c-0.1-0.1,0-0.1-0.1-0.2c-0.1,0-0.2-0.2-0.3-0.3c0.1,0.2,0.1,0.3,0.1,0.2l0.2,0.2c0.1,0.3-0.4-0.4-0.3,0l-0.1-0.2
							c0,0.1-0.2,0.1,0,0.6c0-0.1-0.1-0.2-0.1-0.2c-0.2,0,0,0.6-0.3,0.4l-0.1-0.1c0,0.1,0.1,0.3,0,0.2c0-0.1-0.1-0.1-0.1-0.1
							c0,0.1,0.1,0.3,0,0.2l-0.1-0.2c-0.2-0.1,0,0.5-0.1,0.6c-0.2-0.4-0.4-0.4-0.5-0.5v-0.1c-0.2,0-0.1,0.5-0.2,0.7
							c-0.3-0.4-0.4,0-0.7-0.2c0.1,0.1,0.2,0.3,0.1,0.4c-0.1-0.1,0,0.3-0.1,0l0,0c-0.2-0.3-0.2-0.2-0.3-0.2l0.2,0.5
							c-0.5-0.6-0.3,0.4-0.7-0.1c0,0.1,0,0.2,0,0.3l-0.1-0.3c-0.1,0-0.2,0-0.3,0.1l-0.1-0.2c-0.1,0,0.3,0.8,0.2,0.8l-0.2-0.4
							c-0.1,0.1-0.4-0.2-0.4,0.2c0-0.1-0.1-0.2-0.1-0.2c-0.1,0-0.3-0.2-0.1,0.4c-0.1-0.3-0.1,0-0.1,0.2l-0.1-0.3
							c0.1,0.4,0.1,0.4,0.1,0.6c0,0-0.1-0.2,0-0.1c-0.1-0.1,0,0.3-0.1,0.2v-0.2c-0.1,0,0,0.1,0,0.3c0,0.1-0.2,0-0.3-0.2
							c0,0.1,0.1,0.4,0,0.3c0-0.1,0-0.1-0.1-0.2c-0.2-0.1,0,0.4-0.2,0.1c0-0.1-0.1-0.1-0.1-0.2c0.1,0,0.2,0,0.2,0
							c-0.1-0.2-0.2-0.3-0.2-0.6c0,0.2,0.1,0.6,0,0.5c0,0,0,0,0-0.1l0,0c0,0,0,0,0,0.1l-0.1-0.1c-0.1-0.2-0.1-0.1-0.2-0.1
							c0.1,0.3,0,0.2,0.2,0.4c0,0,0,0,0-0.1l0,0l0,0c0,0,0,0,0.1,0c0,0.1,0,0.3-0.1,0.1c0,0.2,0.1,0.4,0.1,0.4
							c-0.2-0.4-0.3-0.5-0.4-0.7c-0.1,0.2-0.2,0.2-0.1,0.7c0,0.1-0.1-0.1-0.1-0.2s0-0.1,0-0.1c0,0.2-0.2,0.1-0.1,0.5
							c-0.1-0.1-0.1-0.3-0.2-0.2v-0.1c-0.4-0.5-0.1,1-0.5,0.4c0,0,0,0.1,0.1,0.1c-0.4-0.2-0.5,0.5-0.9,0c-0.1-0.1-0.1,0.1-0.1,0.3
							l-0.1-0.3v0.4c-0.1,0.3-0.4-0.7-0.4-0.2l0.1,0.2c-0.1,0-0.1,0.2-0.2-0.1c0,0,0,0.2,0,0.1V395l-0.1,0.3
							c-0.1-0.1-0.1-0.6-0.3-0.6c0,0.1-0.1,0.5,0,0.6c0,0,0.1,0.1,0.1,0.2v0.1c0.1,0.5,0.2,0.9,0.4,1.2v-0.3l0.1,0.2h-0.1
							c0.1,0.2,0.1,0,0.1-0.1c0,0.1,0.1,0.2,0.1,0.2v-0.5c0.1,0.2,0,0.4,0.1,0.4c0-0.2-0.1-0.4-0.1-0.5c0.1,0.2,0.1,0.4,0.1,0.2
							c0,0.1,0,0.2,0,0.2c0-0.2,0.1-0.1,0.1-0.3c0.1,0.2,0.1-0.1,0.2,0.3c0-0.1,0-0.4,0-0.4c0.1,0.5,0.2,0,0.3,0.5
							c-0.1-0.5,0.1-0.3,0.2-0.5v0.1c0.1,0,0.1,0.2,0.2,0.2c-0.1-0.4,0-0.5-0.1-0.7c0.2,0.3,0.1,0.5,0.2,0.8c-0.1-0.3,0-0.3-0.1-0.6
							C-350.5,396.2-350.5,396.1-350.3,396.4c-0.2-0.5-0.1-0.1-0.1-0.4c0.1,0.2,0.1,0.4,0.2,0.3
							C-350.2,396.2-350.3,396.4-350.3,396.4z M-348.6,394.9L-348.6,394.9L-348.6,394.9L-348.6,394.9z M-348.5,394.9L-348.5,394.9
							c-0.1-0.1-0.1-0.2-0.1-0.2C-348.6,394.8-348.5,394.8-348.5,394.9z M-349.5,393.1C-349.4,393.1-349.4,393.2-349.5,393.1
							c0.1,0.1,0,0.1,0,0.1l0,0C-349.4,393.2-349.4,393.2-349.5,393.1z"/>
						<path id="XMLID_244_" class="st0" d="M-349.4,393.5L-349.4,393.5C-349.4,393.6-349.4,393.6-349.4,393.5L-349.4,393.5
							L-349.4,393.5z"/>
						<path id="XMLID_243_" class="st0" d="M-337.5,385.6L-337.5,385.6L-337.5,385.6L-337.5,385.6z"/>
						<path id="XMLID_242_" class="st0" d="M-346.1,394.4L-346.1,394.4L-346.1,394.4z"/>
						<path id="XMLID_241_" class="st0" d="M-336.2,385.5C-336.1,385.5-336.1,385.5-336.2,385.5
							C-336.1,385.5-336.1,385.5-336.2,385.5z"/>
						<path id="XMLID_240_" class="st0" d="M-335.9,385.2L-335.9,385.2C-335.8,385.2-335.9,385.2-335.9,385.2z"/>
						<path id="XMLID_239_" class="st0" d="M-335.6,385L-335.6,385L-335.6,385L-335.6,385z"/>
						<path id="XMLID_238_" class="st0" d="M-338.5,389C-338.5,389-338.6,389-338.5,389L-338.5,389z"/>
						<path id="XMLID_237_" class="st0" d="M-338,387.5l0.1,0.1C-337.9,387.6-337.9,387.6-338,387.5z"/>
						<path id="XMLID_236_" class="st0" d="M-339.5,390.3L-339.5,390.3L-339.5,390.3z"/>
						<path id="XMLID_235_" class="st0" d="M-338,387.6C-337.9,387.7-337.9,387.6-338,387.6L-338,387.6z"/>
						<path id="XMLID_234_" class="st0" d="M-334.7,384L-334.7,384L-334.7,384L-334.7,384z"/>
						<path id="XMLID_233_" class="st0" d="M-334.7,384L-334.7,384C-334.8,384-334.8,384-334.7,384z"/>
						<path id="XMLID_232_" class="st0" d="M-334.8,383.9L-334.8,383.9C-334.7,383.9-334.7,383.9-334.8,383.9z"/>
						<path id="XMLID_231_" class="st0" d="M-335.1,384.3L-335.1,384.3C-335,384.3-335,384.3-335.1,384.3z"/>
						<path id="XMLID_230_" class="st0" d="M-335.1,384.4c0,0,0.2,0.1,0.2,0h-0.1C-334.9,384.4-335.2,384.3-335.1,384.4z"/>
						<path id="XMLID_229_" class="st0" d="M-336.4,384.1L-336.4,384.1c0,0-0.1-0.1-0.1-0.2C-336.9,383.8-336.3,384-336.4,384.1z"/>
						<path id="XMLID_228_" class="st0" d="M-336.7,384.3c0-0.1-0.1-0.1-0.2-0.1C-336.8,384.2-336.8,384.2-336.7,384.3z"/>
						<path id="XMLID_227_" class="st0" d="M-338.1,386l-0.2-0.2C-338.3,385.9-338.2,385.9-338.1,386z"/>
						<polygon id="XMLID_226_" class="st0" points="-337.4,387.2 -337.2,387.2 -337.4,387.1 						"/>
						<polygon id="XMLID_225_" class="st0" points="-338.9,386.1 -338.9,386.1 -338.9,386.2 						"/>
						<path id="XMLID_224_" class="st0" d="M-341.5,388.7l0.2,0.2C-341.3,388.9-341.5,388.6-341.5,388.7z"/>
						<path id="XMLID_223_" class="st0" d="M-342.5,389.9C-342.6,389.8-342.7,389.7-342.5,389.9C-342.6,389.9-342.5,390-342.5,389.9
							z"/>
						<path id="XMLID_222_" class="st0" d="M-346.8,392L-346.8,392L-346.8,392z"/>
					</g>
				</g>
			</g>
		</g>
	</g>
</g>
</svg>
