<?xml version="1.0" encoding="utf-8"?>
<!-- Generator: Adobe Illustrator 19.0.0, SVG Export Plug-In . SVG Version: 6.00 Build 0)  -->
<svg version="1.1" id="Layer_1" xmlns="http://www.w3.org/2000/svg" xmlns:xlink="http://www.w3.org/1999/xlink" x="0px" y="0px"
	 viewBox="0 0 134.6 70.2" style="enable-background:new 0 0 134.6 70.2;" xml:space="preserve">
<style type="text/css">
	.st0{clip-path:url(#SVGID_2_);fill:#484F57;}
</style>
<g>
	<defs>
		<rect id="SVGID_1_" y="0" width="134.6" height="70.2"/>
	</defs>
	<clipPath id="SVGID_2_">
		<use xlink:href="#SVGID_1_"  style="overflow:visible;"/>
	</clipPath>
	<path class="st0" d="M123.2,58.6c0.1,0,0.3-0.1,0.1-0.3h-0.4L123.2,58.6z"/>
	<path class="st0" d="M122.8,56.6c-0.3-0.2-0.7-0.4-0.9-0.1c0.4,0.1,0.4,0.3,0.9,0.4c0.2,0.2,0.1,0.5,0,0.5c0.1,0,0.2,0.4,0.4,0.4
		c0-0.4-0.2-0.8-0.6-1.2C122.6,56.6,122.7,56.7,122.8,56.6"/>
	<path class="st0" d="M109.6,32.9l0.1,0.2C109.6,33,109.6,33,109.6,32.9"/>
	<path class="st0" d="M99.3,19.5c0.1,0.1,0.2,0.1,0.2,0.1C99.4,19.5,99.3,19.5,99.3,19.5"/>
	<path class="st0" d="M97.6,17.2c0,0.1,0.1,0.1,0.1,0.1C97.7,17.2,97.6,17.2,97.6,17.2"/>
	<path class="st0" d="M109.6,32.9l-0.2-0.4C109.3,32.5,109.5,32.7,109.6,32.9"/>
	<path class="st0" d="M120.3,53.7c0.1,0.1,0.1,0.1,0.2,0.2L120.3,53.7C120.4,53.7,120.3,53.7,120.3,53.7"/>
	<path class="st0" d="M113.8,39l0.1,0.1c0.1,0,0.1,0,0.2,0L113.8,39z"/>
	<path class="st0" d="M116.8,43.9c-0.1-0.1-0.3,0-0.5,0c0.1,0,0.2,0.1,0.3,0.1C116.7,44,116.8,44,116.8,43.9"/>
	<path class="st0" d="M120.7,52.1l0.1,0.1C120.8,52.2,120.8,52.1,120.7,52.1"/>
	<path class="st0" d="M111.7,35.5C111.7,35.5,111.8,35.5,111.7,35.5C111.7,35.5,111.7,35.5,111.7,35.5"/>
	<path class="st0" d="M2.4,63.6C2.4,63.6,2.4,63.6,2.4,63.6C2.4,63.7,2.4,63.7,2.4,63.6"/>
	<path class="st0" d="M0.9,70.2L0.9,70.2C0.9,70.1,0.8,70,0.8,70L0.9,70.2z"/>
	<path class="st0" d="M94,13.2C94,13.2,94,13.2,94,13.2C94.1,13.3,94.1,13.3,94,13.2"/>
	<path class="st0" d="M48.2,1.8c0.6,0.1-0.8,0.5,0.1,0.6C48.2,2.3,49,1.8,48.2,1.8"/>
	<path class="st0" d="M120.3,53.6l-0.1-0.2C120.2,53.5,120.3,53.5,120.3,53.6"/>
	<path class="st0" d="M48.3,2.4L48.3,2.4L48.3,2.4C48.4,2.4,48.4,2.4,48.3,2.4"/>
	<path class="st0" d="M84,6c0,0.1,0,0.1,0,0.2C84,6.1,84,6.1,84,6"/>
	<path class="st0" d="M91.2,11.6l-0.2-0.2C91.1,11.5,91.2,11.6,91.2,11.6"/>
	<path class="st0" d="M79.6,4.1C79.5,4,79.4,4,79.3,4c0,0,0,0,0,0.1C79.4,4,79.5,4,79.6,4.1"/>
	<path class="st0" d="M75,2.2L75,2.2c0.1,0.1,0.2,0.1,0.2,0.1L75,2.2z"/>
	<path class="st0" d="M4.5,49.2c-0.1,0.1-0.2,0.1-0.3,0.2C4.4,49.4,4.3,50.1,4.5,49.2"/>
	<path class="st0" d="M120.5,53.7c-0.1,0-0.1,0-0.2-0.1L120.5,53.7C120.4,53.7,120.5,53.7,120.5,53.7"/>
	<path class="st0" d="M78.4,6l-0.7-0.4C78,5.8,78.2,5.9,78.4,6"/>
	<path class="st0" d="M21.1,19.6L21,19.8C21.1,19.7,21.1,19.7,21.1,19.6"/>
	<path class="st0" d="M75.7,4.9c-0.1-0.1-0.2-0.2-0.3-0.3c0,0-0.1,0-0.1,0L75.7,4.9z"/>
	<path class="st0" d="M4.2,49.4L4.2,49.4L4.2,49.4z"/>
	<path class="st0" d="M3.8,54.4c0.2-0.7-0.3-0.4-0.5-0.6c0.1-0.9,0.3-0.3,0.6-0.6c0-0.5-0.2-1-0.1-1.4c0.1,0,0.1-0.1,0.2,0
		c-0.2-0.6,0.4-1.7,0.2-2.4c0,0,0.1-0.1,0.1-0.1c-0.2,0.1-0.4,0-0.5,0c0.1-0.3-0.1-0.7,0.2-0.7c-0.1,0.2,0,0.2,0.1,0.3l0-0.4
		c0.4-0.2,0,0.5,0.3,0.6c0-0.7,0-1.5,0.2-2c0.4,0-0.2,1.2,0.3,0.6c-0.1,0.2-0.2,0.5-0.3,0.7C5,48.1,4.2,49,4.9,48.6
		c0.4-1,0.2-1.2,0.5-2.1c-0.1-0.3-0.3,0-0.4-0.3c0.1-1.5,1.2-0.8,1.1-2c-0.1-0.3-0.5-0.6,0-1.2l0.3,0.4c0.4-0.9-0.3-0.7,0.3-1.6
		c0.1,0.2-0.2,0.8-0.1,0.7c0.5-0.5,0-0.5,0.2-1l0.4,0c0.2-0.5,0.3-1.1,0.5-1.6c0.2-0.6,0.3-1.1,0.6-1.7c0.1,0.1,0.1,0.3,0.3,0.1
		c0.2-0.7,0.6-1.4,1-2.1c0.4-0.7,0.8-1.3,1.3-1.9l0-0.6c0.1-0.1,0.2-0.1,0.2,0c0.4-0.4-0.1-0.1-0.1-0.4c0.1-0.3,0.4-0.3,0.3-0.1
		c0.2-1,1-2.7,1.8-3.4l0,0.2c0.5-0.6,0-1.1,0.7-1.6l0,0.1c1.1-1.4,2.1-3.1,3.2-3.9c-0.2-0.5,1.3-1.2,0.9-1.7
		c0.9-0.6,0.8-0.3,1.9-1.2c0.3-0.3,0.1-0.7,0.4-1.1l0.2,0.2l0.2-0.7l0.5,0l0.3-0.4c-0.1,0.1-0.4,0.2-0.4,0.1c0.4-0.6,1.3-1,1.5-0.9
		c0.3-0.4,0.7-0.9,1-1.3c0.1,0.1-0.1,0.3-0.2,0.5c0.4-0.8,0.3,0.1,0.7-0.6c-0.1,0-0.1-0.2-0.1-0.2c0.4-0.1,1.1-0.7,1.5-1.2l0,0.2
		c1-0.7,1.9-1.7,3-2.5c-0.4,0.2-0.6-0.2-0.3-0.4l0.3,0.2c0.1-0.3-0.4,0.1-0.1-0.4c0.4-0.3,0.5,0.1,0.3,0.4l0.4-0.5
		c0.1,0.1,0,0.2,0,0.3c0.1-0.3,1-0.4,1.1-0.8l0.1,0.1c1.1-0.7,1.6-1.2,2.5-1.7c-0.1-0.3,0.3-0.4,0.4-0.8c0.7-0.3,1.6-0.6,2.5-1
		c0.5-0.4,0.1-0.3,0.3-0.6c0.2,0.2,1-0.3,0.7,0.1c1-0.6,1.3-0.7,2.6-1.5c-0.2,0-0.4,0-0.3-0.1c0.2-0.2,0.6-0.2,0.6,0l-0.1,0.1
		c1.4-1,3.8-0.8,4.9-1.7l-0.1,0l1.2-0.7c0.6-0.2-0.3,0.3,0.2,0.3c1.3-0.8,2.3-0.6,3.3-1.2c1.1,0.5,3.2-0.8,4.6-0.6l-0.1-0.2
		c0.3-0.2,0.4,0,0.7,0c-0.1-0.1-0.4-0.1-0.2-0.2c1.3-0.4,2.8-0.5,4.2-0.6c0.7,0,1.4,0,2.1,0c0.7,0,1.4,0,2.1,0.1
		c1,0.1,0.6-0.9,1.9-0.4l-0.4,0.3c1-0.2,2.1-0.1,3.1,0.1c0.5,0.1,1,0.1,1.6,0.2c0.5,0.1,1,0.2,1.5,0.2c-0.1,0-0.2,0.1-0.4,0.1
		c0.4,0.3,1.5,0.3,1.6,0.1c0.3,0.1,0,0.2,0.2,0.3c0.4,0.3,1.1,0,1.3,0.3c0,0-0.1,0-0.2,0c0.3,0,1.2,0.4,1.1,0.1
		c0.7,0.3,1.4,0.3,1.9,0.7c0.5-0.1,1.2,0.6,1.5,0.2C76.7,5,77,5.2,77.4,5.4c0.4,0.2,0.8,0.3,1.1,0.3c-0.2,0.1,0.3,0.3,0.1,0.4
		c0.5,0.2,1,0.4,1,0.1c0.7,0.9,2,0.6,2.2,1.5c1.6,0.5,2.9,1.3,4.2,2c-0.3,0.3-1.4-0.9-1.6-0.4c1.3,0.6,2.2,0.8,3.2,1.7
		c0.3,0.3-0.3,0-0.4,0c1.3,0.7,2.1,1.7,3.3,2.3c0,0-0.2,0-0.3-0.1c0.2,0.1,0.4,0.4,0.5,0.2l-0.2-0.1c-0.1-0.5,1.2,0.1,1.3,0.1
		c-0.7,0.2,0.8,0.9-0.1,1.1c0.1,0.1,0.4,0.1,0.4,0c0.2,0.2,0.2,0.3-0.1,0.3c0.7,0.5,0.6,0.1,1.2,0.7c-0.1,0.1-0.2,0-0.4,0
		c0.4,0.1,0.9,0.3,1.3,0.8c-0.1,0-0.1,0.1-0.2,0c0.9,0.8,1.8,1,2.6,2.1c-0.6,0,0.2,0.4,0,0.7l0.6,0.4L97,19.1c0.4,0.4,1,0.7,1.3,1.1
		L97.8,20c0.3,0.3,0.6,0.5,0.8,0.8c-0.1-0.2-0.2-0.4-0.3-0.6c0.6,0.3,0.3-0.4,0.8,0.3c-0.1-0.1,0.4,0.5,0.4,0.8l0,0
		c0.3,0.1,0.6,0.3,0.8,0.7c0,0.2-0.4,0.2-0.4,0.3c0.4,0,1,1,1.5,1.1c-0.1,0-0.3,0.1-0.3,0.1l0.4,0c0.1,0.3,0.1,0.3,0,0.4
		c0.5,0.7,0.2-0.5,0.7,0.4c-0.1,0-0.1,0-0.2-0.1c0.6,0.8,1.4,1.4,1.8,2.2c-0.1,0.4-0.6-0.6-0.6-0.1c0.9,1,2.1,1.9,2.8,3l-0.1-0.2
		c0.5-0.2,0.4,0.9,1,1.3c-0.1-0.1-0.4,0-0.3,0c0.5,0.8,1.2,1.4,2.1,2.4l-0.2-0.1c0.2,0.5,0.7,1.2,1,1.7c0.2,0.1,0.4,0.3,0.4,0.1
		c0.3,1.9,2.2,2.6,2.5,4.2c-0.1-0.2-0.3-0.3-0.3-0.2l0.8,1.1c0.1-0.2,0-0.2,0-0.6c0.2,0.1,0.5,0.3,0.7,0.6c-0.4-0.4-0.3,0.2-0.3,0.5
		c0-0.1,0.2,0,0.2-0.1c0,0.8,0.5-0.1,0.7,0.8l-0.1,0c0.2,0.3,0.5,0.5,0.7,0.8c-0.1,0.3-0.3-0.3-0.5-0.2c0.3,0.5,1,0.7,1,1.2
		c-0.2-0.2-0.3-0.4-0.5-0.6c0,0.6,0.1,0.6,0.3,1l0,0l0.3,0.9l0-0.2c0.9,0.2,0.8,1.1,1.6,1.7c-0.8-0.5-0.3,0-0.6,0.1
		c0,0.2,0.1,0.6,0,0.5c0.4,0.3,0.2,0.7,0.8,1.1c-0.1,0.1,0.2,0.4,0,0.4c0.3,0.4,0.1-0.2,0.2-0.2c0.7,0.6,0.6,2,1.6,2.8
		c0.7,0.8,1.1,0.9,1.7,1.7c0,0.4-0.4-0.1-0.4-0.1c0.1,0.5,0.3,0.9,0.7,1.3c-0.1-0.1-0.1,0.1-0.2,0.3c0.2,0.3,0.4,0.1,0.6,0.6
		c-0.1,0-0.3-0.1-0.5-0.2c0.3,0.4,0.7,0.7,1,1.1c-0.1,0.2-0.4-0.1-0.5-0.2c0.3,0.5,0.8,1.2,1.1,1.2l-0.1-0.4
		c0.1,0.2-0.2,0.2-0.3,0.1c-0.4-0.3-0.2-0.7-0.2-0.7l0.2,0.3c0.3-0.6-0.7-1.2-1.1-1.9l0.5,0.1l-0.6-0.5c0-0.2,0.2-0.4,0.4-0.1
		c-0.1-0.5-0.3-0.3-0.3-0.8c0-0.1,0,0,0.1,0l-0.3-0.4c0.1,0,0.2-0.2,0.3,0.1c-0.2-0.9-1-1.1-0.8-1.6l0.1,0.1c-0.7-1-0.3,0-1.1-0.6
		l0.4-0.9l-0.3,0c-0.1-0.1-0.2-0.4,0-0.4c-0.4-0.3-0.1,0.1-0.4,0c0-0.7-0.9-1.4-0.6-1.8c-0.3-0.1,0.1,0.6-0.3,0.1
		c0.4-0.4-0.5-0.6-0.5-1.2c0.3,0,0.5,0.6,0.4-0.1c-0.6-0.1-0.5-1-0.8-1.4c-0.3,0.2-0.6-0.8-1.2-1.4c0.1,0-0.6-1.4-0.9-2.1l0.1,0
		c-0.4,0.1-0.7-0.6-1.1-1.1c0.2-0.1,0.3-0.1,0.6,0.2l-0.3-0.4c-0.2,0-0.3-0.2-0.5-0.4l0.3,0c-0.4-0.6-1-1-1.3-1.9
		c-0.2,0.1-0.2,1-0.9,0.3c0.1-0.1,0.3-0.3,0.5-0.1c-0.1-0.1-0.3-0.2-0.3-0.4l0.4,0.2c-0.1-0.4-0.3-0.1-0.4-0.4
		c0.2-0.1,0-0.3,0.1-0.3c0.1,0.1,0.1,0.3,0.2,0.3c-0.2-0.3-0.3-0.8-0.3-1c-0.1,0.1-0.2,0.1-0.4-0.1c-0.4-0.6,0.1-0.3-0.1-0.7
		c-0.2-0.1-0.3-0.5-0.6-0.4c-0.1-0.2,0-0.3,0-0.4c-0.3-0.2-1-1.4-1-0.9l0,0.1l0,0l0,0l0,0c-0.9-0.8-1.3-2.1-2-3l0.1-0.1
		c-0.5-0.5-1-1.2-1.4-1.5c-0.1-0.2-0.1-0.5,0-0.5c-0.4-0.4-0.5-0.4-0.8-1.1c0.5,0.3,0-0.2,0.4,0.4c-0.4-0.6-0.3-0.8-1-1.3
		c0.4,0-0.1-0.6-0.3-0.8l0.2,0.5c-0.3-0.3-0.4-0.5-0.6-0.8l0.4-0.1c-0.6-1.4-2.2-1.6-2.3-2.8c-0.4-0.1,0.4,0.7-0.1,0.6
		c-0.4-0.5-0.5-1.4-0.6-1.5c-0.5-0.8-0.9-0.3-1.5-1.1c0,0.2-0.2,0.5-0.7,0c-0.4-0.5-0.2-0.9,0.2-0.7c0.1,0.1,0.1,0.2,0.1,0.2
		c0.2,0.1,0.4,0.3,0.3,0l-0.1,0c-0.1-0.3-0.8-1-0.5-1c-0.4-0.3-0.3,0-0.1,0.3c-0.5-0.7-0.9-1-1.4-1.7c0,0.1,0,0.3-0.1,0.2
		c-0.8-1-0.6-0.2-1.2-0.8c-0.2-0.5,0.4-0.2-0.3-0.7c-0.3-0.5,0.1-0.3,0.4-0.2c-0.7-0.4-1-1.2-1.3-1.5l0.4,0.2
		c-0.2-0.1-0.4-0.3-0.5-0.4l0,0.3c-0.2-0.2-0.3-0.3-0.2-0.4c-0.3-0.1-0.1,0.4-0.6,0.2c-0.2-0.3-0.8-0.6-0.7-0.9
		c0.7,0.8,0.1-0.3,0.8,0.2c-0.2-0.1-0.3-0.2-0.5-0.4c0,0,0.1,0,0.1,0c-0.6-0.9-0.6,0-1.3-0.7c0.2,0,0-0.4-0.1-0.5
		c0.3,0.3,0,0.3-0.4,0.2c-0.4-0.5-0.6-0.4-0.9-0.6l0.3,0.3c-0.2,0.1-0.5-0.2-0.8-0.4c0.1-0.1,0.4,0.2,0.3,0c-0.6-0.1-0.7-1-1.4-1.3
		c-0.2-0.3,0.2-0.3,0-0.5c-0.8-0.3-0.6-0.7-1.4-1C88.3,9,88.3,9,87.7,8.9l1.2,0.7L88,9.3c0.3,0.2,0.8,0.4,1,0.6
		c-0.5-0.1-0.4-0.1-0.3,0.2c-0.2-0.6-1-0.5-1.4-1.1l0.4-0.5c-0.6-0.8-1.6-0.7-2.6-1.6l0.3,0.3c-0.3,0.1-0.7-0.4-1.1-0.5
		c0.1-0.1,0-0.4-0.1-0.5C84,6.3,83.2,5.7,82.9,6l-0.4-0.5c-0.9-0.6-1.3-0.1-2.2-0.6c0.4-0.1,0-0.4,0.7-0.2c-0.3-0.1-0.6-0.3-0.6-0.2
		c-0.1-0.2-1-0.2-1.1-0.5c-0.2,0-0.3,0.2-0.6,0c0-0.1,0-0.1,0-0.1c0,0.1-0.6-0.1-0.4,0.2c-0.7-1-2.7-1-3.3-1.8
		c-0.7-0.2-1.6-0.3-2.2-0.5c0.1,0,0-0.1,0.1,0c-0.8-0.4-0.7,0.4-1.6-0.1c-0.4-0.4,0.6-0.1,0.3-0.2c0-0.7-1.2-0.2-1.9-0.7l0.2,0
		c-0.5-0.3-1.3-0.1-2.2-0.2c0,0,0.1-0.1,0-0.1c-0.6,0.3-1.8,0.2-2.6,0.2c0.3-0.2,0.4-0.1,0.3-0.4c-0.4,0,0.1,0.4-0.7,0.4
		C64.5,0.6,64,0.5,64,0.2l0.7,0c-0.3-0.4-0.9,0-1.3-0.1L63.4,0c-1.1,0-1.1,0.4-2.3,0.4l0.1,0.1c-0.6,0.4-0.5-0.2-1.2,0.1l-0.2-0.4
		c-0.4,0.1-1.4,0.5-2.2,0.6c0.4-0.4,1.3-0.5,1.8-0.8c-0.4,0-1.4,0.1-1.6,0.3c0.2-0.1,0.4-0.2,0.5-0.1C58,0.7,57.3,0.9,56.5,1
		c0-0.8-2.2,0.1-2.8-0.4C53,0.9,52.3,1,51.5,1.1c-0.8,0.1-1.5,0.2-2.4,0.4c0.7,0.4-0.5,0.1-0.2,0.7c-0.4,0.1-0.5,0.2-0.6,0.1
		c-0.4,0-0.8,0-1.3,0c-0.3-0.1,0.3-0.2,0.3-0.4c-0.9,0.2-0.4-0.1-1-0.1c0.2,0.2-0.2,0.4-0.7,0.4l0.8,0.1c-1.1,0.7-1.2-0.2-2.2,0.5
		l0.3-0.3c-0.6,0.3-2.2,0.8-2.6,1.4c-0.1,0-0.3-0.1-0.1-0.3c-1.4,0.5-2.9,1.7-4.1,1.9l0-0.2c-0.2,0.2-0.3,0.5-0.7,0.5
		c0-0.1,0-0.2-0.1-0.1c-0.1,0.1-0.6,0.5-0.9,0.6l0.2-0.3c-1.4,0.5-1.8,1.4-2.9,2.1c-0.2-0.4-1.3,0.1-1.8,0.3l0-0.1
		c-0.8,0.4-1.3,0.9-1.9,1.4c-0.5,0.5-1,1-1.6,1.5c-1.1,0.2-2.8,1.8-4.2,2.6c0.2-0.1,0.2,0.3,0,0.5c-0.4,0.2-0.6,0.9-0.8,0.5l0.1-0.1
		c-0.5-0.1-1,0.5-1.4,0.9l0.3,0.5c-0.9,0.2-1.5,1-2.1,1.7c-0.6,0.7-1.1,1.4-1.7,1.5c-0.2,0.4-0.5,0.7-0.6,1.1l-0.2-0.2
		c-0.8,0.7-1.1,1.1-1.9,2.1l0-0.3c-0.5,0.6,0,1.2-0.4,1.7l-0.5-0.1c-0.8,1-1.9,1.8-2.2,3.1c0-0.1-0.1-0.2,0-0.3
		c-0.3,0.5-1.6,1.8-0.9,1.9c-0.3-0.2-0.7,1.1-0.9,1.8l-0.2-0.2c0,0.7,0.1,0.7-0.3,1.5c-0.1,0.1-0.3,0-0.1-0.2
		c-0.4,0.5,0,0.6-0.5,1.2l0-0.3c-0.3,0.6-0.2,0.6-0.2,1c-0.1,0.4-0.7,1-0.9,1c0.1,0.2,0.1,0.6-0.1,0.9C8,34.8,8,34.6,8,34.6
		c-0.7,0.9-0.4,1.6-1,2.1c-0.1,0-0.2,0-0.2,0c0.4-0.8,0.7-1.4,0.7-1.3c-0.2-0.1-0.6,0.5-0.7-0.2c-0.1,0.6-0.1,1.6-0.5,2.2
		c0,0-0.1,0-0.1,0l0-0.1c-0.1,0.1-0.1,0.3-0.1,0.4c-0.1,0.2-0.2,0.3-0.3,0.5c-0.2,0-0.4,0.7-0.6,1c0.3,0.1,0.1,0.5,0.4,0.2
		c0,0,0-0.1,0.1-0.3c0-0.1,0-0.1,0-0.1l0,0c0.1-0.2,0.2-0.5,0.3-0.8c0,0.3,0,0.6-0.3,0.9C5.9,39.5,6,39.7,6,39.9
		C5.5,40.2,5,40.9,4.7,41c-0.3,1-0.7,2.4-0.5,3.2c0,0.3-0.3,0.3-0.4,0.4c0-0.2,0.1-0.4,0-0.5c-0.1,0.6-0.5,1.7-0.2,2
		c-0.4,0.7-0.2-0.5-0.4,0.5l-0.1-0.2c-0.6,0.9-0.6,1.8-0.6,2.7c0,0.9-0.1,1.8-0.6,2.8c0.1-0.1,0.1-0.2,0.2-0.2
		c-0.4,1.2-0.6,2.6-0.8,3.9c-0.2,1.3-0.3,2.6-0.7,3.9c-0.2,0.7,0,0.8,0.2,1.3l-0.3,0.1l0.3,0.8c0.2,1.1-0.9,1.8-0.4,3.2l0.2-0.2
		c-0.1,0.5,0.1,1.6-0.2,1.5c0,0.1,0.2,0.2,0.1,0.4l-0.2,0c0.1,0.4,0.2,0.8,0.3,1.2C0.5,68.6,0,67.5,0,68.9c0.1,0.5,0.5,1.4,0.6,1.2
		c0-0.2,0.1-0.5,0.3-0.5l0.1,0.5c0.5,0.1,0.9,0.4,1.3-0.7l-0.3-0.8l0.2-0.3l0,0.7c0.2-0.4,0-0.6-0.1-0.9c0.1-0.1,0.2-0.2,0.2-0.3
		L1.8,67c0.2-0.1,0.4,0.3,0.5-0.2c-0.2-0.4-0.4,0.3-0.5-0.3C2,66.2,2.1,66.3,2,65.9c0.1-0.1,0.2,0,0.2,0.2c-0.1-0.4,0-1-0.3-1.2
		c0.3-0.4,0-1.3,0.4-1.3c-0.1-0.1-0.3-0.7-0.3-1.1c0.5,0.7,0.1-1.3,0.7-1.1c-0.5-0.5-0.1-1.7-0.2-2.6c0,0.1,0.1,0.2,0.1,0.2
		c0.1-0.5,0.3-0.6,0.4-0.9c-0.4-0.1-0.4-0.9-0.6-1.3c0.5-0.5,0.4,0.4,0.8,0.3c-0.3,0-0.2-1.1-0.4-0.9c0.3-0.4,0.2-0.4,0.5-0.5
		c-0.5-0.2,0-0.4-0.3-0.8c0.3-0.6,0.5-0.1,0.5-0.8C3.7,53.8,3.8,54.4,3.8,54.4 M8,38L8,38c0,0.1-0.1,0.3-0.1,0.3
		C7.9,38.3,7.9,38.2,8,38 M8.6,36.7c-0.1,0.1-0.2,0.3-0.3,0.6c-0.1,0-0.2-0.1-0.1-0.2C8.2,37.2,8.4,36.9,8.6,36.7 M5.5,38.7
		c0.1-0.2,0.1-0.3,0.2-0.3c0,0.1-0.1,0.2-0.1,0.4c0,0,0,0,0,0C5.6,38.8,5.5,38.8,5.5,38.7"/>
	<path class="st0" d="M5.7,39.3C5.7,39.3,5.7,39.3,5.7,39.3C5.7,39.3,5.8,39.3,5.7,39.3c0.1,0,0.1-0.1,0-0.1
		C5.7,39.2,5.7,39.2,5.7,39.3"/>
	<path class="st0" d="M109.7,33.1L109.7,33.1C109.7,33.1,109.7,33.1,109.7,33.1C109.7,33.1,109.7,33.1,109.7,33.1"/>
	<polygon class="st0" points="20.1,20.9 20,20.8 20,21 	"/>
	<path class="st0" d="M113.2,40.3c0,0,0,0.1,0,0.1C113.2,40.5,113.2,40.4,113.2,40.3"/>
	<path class="st0" d="M114.9,43.3l0.2,0.5C115,43.6,114.9,43.4,114.9,43.3"/>
	<path class="st0" d="M116.1,45.7c0.1,0,0.1,0,0.1,0l0,0L116.1,45.7z"/>
	<path class="st0" d="M90.2,13.2C90.2,13.2,90.1,13.1,90.2,13.2C89.9,13,90,13.1,90.2,13.2"/>
	<path class="st0" d="M99.5,21.4c-0.1-0.1-0.2-0.1-0.4-0.2C99.3,21.3,99.4,21.5,99.5,21.4"/>
	<polygon class="st0" points="78.5,6.1 78.5,6.1 78.4,6 	"/>
	<path class="st0" d="M98.8,20.7c0.1,0.2,0.2,0.3,0.4,0.4C99.1,21,98.9,20.8,98.8,20.7"/>
	<path class="st0" d="M121.4,55.8l0.1,0.1c0,0,0,0,0,0L121.4,55.8z"/>
	<path class="st0" d="M121.5,55.9l0.1,0.1C121.6,56,121.6,55.9,121.5,55.9"/>
	<path class="st0" d="M121.8,56.3l-0.2-0.2C121.7,56.1,121.7,56.3,121.8,56.3"/>
	<path class="st0" d="M119.9,52.7l-0.1,0C119.8,52.7,119.8,52.7,119.9,52.7"/>
	<path class="st0" d="M119.4,51.7c0.1,0.2,0.1,0.7,0.3,0.9l0.1,0C119.6,52.6,119.6,51.9,119.4,51.7"/>
	<path class="st0" d="M118.3,47.2l0.4,0.8c0-0.2,0.1-0.4,0.3-0.1C118.7,46.8,118.9,48.3,118.3,47.2"/>
	<path class="st0" d="M117.1,44.7c0.3,0.4,0.1-0.1,0.2-0.1C117.1,44.4,117,44.4,117.1,44.7"/>
	<path class="st0" d="M106.2,27.9l0.2-0.1C106.2,27.5,106.4,27.8,106.2,27.9"/>
	<polygon class="st0" points="102.8,25.7 102.9,26 103.2,26 	"/>
	<polygon class="st0" points="102.8,22.8 102.9,22.9 102.5,22.4 	"/>
	<path class="st0" d="M75.9,2.3l0,0.3C76.1,2.7,76.3,2.4,75.9,2.3"/>
	<path class="st0" d="M61.3,0.2c-0.2-0.1-0.6-0.2-0.8-0.1C60.8,0.2,61.1,0.3,61.3,0.2"/>
	<polygon class="st0" points="21.1,16.4 21.2,16.1 20.9,16.5 	"/>
	<path class="st0" d="M101.9,56.2c0,0.1-0.1,0.3,0,0.2l0.1-0.3L101.9,56.2z"/>
	<path class="st0" d="M102.3,56.9c0.1-0.1,0.3-0.4,0.3-0.7c-0.1,0.3-0.1,0.2-0.3,0.5c-0.1,0-0.1-0.1-0.1-0.2c0,0.1-0.1-0.1-0.2,0.1
		c0,0.3,0.2,0.3,0.3,0.1C102.4,56.8,102.3,56.9,102.3,56.9"/>
	<path class="st0" d="M109,59.3L109,59.3C108.9,59.2,108.9,59.3,109,59.3"/>
	<path class="st0" d="M113,60.8C113,60.8,113,60.9,113,60.8C113,60.9,113,60.9,113,60.8"/>
	<path class="st0" d="M113.6,61.4C113.6,61.4,113.6,61.4,113.6,61.4C113.6,61.4,113.6,61.5,113.6,61.4"/>
	<path class="st0" d="M109,59.3l0.1,0.1C109.1,59.3,109,59.3,109,59.3"/>
	<path class="st0" d="M103.4,56.3C103.4,56.4,103.4,56.4,103.4,56.3C103.4,56.4,103.4,56.4,103.4,56.3L103.4,56.3z"/>
	<path class="st0" d="M107.1,58.9L107.1,58.9c-0.1,0-0.1,0.1-0.1,0.1L107.1,58.9z"/>
	<path class="st0" d="M105.6,58.6c0,0,0.1-0.2,0.2-0.4c0,0.1-0.1,0.2-0.1,0.2C105.7,58.4,105.6,58.5,105.6,58.6"/>
	<path class="st0" d="M103.5,57.5L103.5,57.5C103.5,57.5,103.5,57.5,103.5,57.5"/>
	<path class="st0" d="M108,59.3c0,0,0,0.1,0,0.1C108,59.4,108,59.3,108,59.3"/>
	<path class="st0" d="M131.9,44.1C132,44.2,132,44.2,131.9,44.1C132,44.1,131.9,44.1,131.9,44.1"/>
	<polygon class="st0" points="134,43.2 134,43.2 134.1,43.3 	"/>
	<path class="st0" d="M114.8,62.2L114.8,62.2C114.7,62.3,114.7,62.3,114.8,62.2"/>
	<path class="st0" d="M127.5,66.1c-0.3-0.2,0.2-0.3-0.2-0.6C127.4,65.7,127.2,66,127.5,66.1"/>
	<path class="st0" d="M103.5,56.4C103.5,56.4,103.5,56.4,103.5,56.4C103.5,56.4,103.5,56.4,103.5,56.4"/>
	<path class="st0" d="M127.3,65.6L127.3,65.6L127.3,65.6C127.3,65.6,127.3,65.6,127.3,65.6"/>
	<path class="st0" d="M117.8,63.2c0,0,0-0.1,0-0.1C117.8,63.1,117.8,63.1,117.8,63.2"/>
	<path class="st0" d="M115.7,62L115.7,62C115.7,62,115.7,62,115.7,62"/>
	<path class="st0" d="M119,63.2C119.1,63.3,119,63.3,119,63.2C119.1,63.3,119.1,63.3,119,63.2C119.1,63.3,119,63.3,119,63.2"/>
	<path class="st0" d="M120.2,63.7C120.2,63.6,120.2,63.6,120.2,63.7L120.2,63.7L120.2,63.7z"/>
	<path class="st0" d="M130.7,47.9c0.1,0,0.2,0,0.3,0C130.7,47.9,130.7,47.7,130.7,47.9"/>
	<path class="st0" d="M103.4,56.5c0-0.1,0-0.1,0.1-0.1c0,0,0,0,0,0C103.4,56.4,103.4,56.5,103.4,56.5"/>
	<path class="st0" d="M119.9,61.2l0.2,0.1C120,61.2,119.9,61.2,119.9,61.2"/>
	<path class="st0" d="M128.4,56.8L128.4,56.8C128.3,56.8,128.3,56.8,128.4,56.8"/>
	<path class="st0" d="M120.6,61.4c0,0.1,0,0.2,0,0.2c0,0,0,0,0-0.1L120.6,61.4z"/>
	<path class="st0" d="M130.9,47.9L130.9,47.9L130.9,47.9z"/>
	<path class="st0" d="M130.7,46.4c-0.1,0.2,0.3,0.2,0.5,0.3c0,0.3-0.3,0-0.5,0c0,0.2,0.3,0.4,0.3,0.5c-0.1,0-0.1,0-0.2,0
		c0.2,0.2-0.1,0.4,0.2,0.7c0,0-0.1,0-0.1,0c0.2,0,0.4,0.1,0.5,0.1c0,0.1,0.2,0.2-0.1,0.2c0,0-0.1-0.1-0.1-0.1l0.1,0.1
		c-0.4,0-0.1-0.2-0.3-0.2c0.1,0.2,0.3,0.5,0.1,0.6c-0.3-0.1,0-0.3-0.4-0.3l0.2-0.2c-0.6,0,0.1-0.1-0.5-0.1c-0.2,0.2,0.1,0.4-0.1,0.6
		c0.2,0.1,0.3,0.1,0.4,0.2c0.2,0.5-0.9,0.1-0.6,0.5c0.2,0.1,0.6,0.3,0.3,0.4l-0.3-0.2c-0.1,0.2,0.5,0.3,0.2,0.5
		c-0.1-0.1-0.1-0.2-0.1-0.2c-0.3,0.1,0.2,0.2,0.1,0.3L130,50c0,0.3,0.1,0.7,0.1,1c-0.1,0-0.2-0.1-0.3-0.1c0.1,0.4-0.3,0.8-0.6,1.1
		l0.2,0.2c0,0-0.1,0-0.2,0c-0.1,0.1,0.2,0.1,0.3,0.2c0,0.1-0.2,0.1-0.3,0c0.2,0.3,0.3,0.9,0,1.1l-0.1-0.1c-0.2,0.2,0.5,0.4,0.2,0.5
		l0-0.1c-0.2,0.4-0.1,1-0.6,1.2c0.4,0.2-0.3,0.4,0.3,0.6c-0.3,0.2-0.4,0.1-0.7,0.4c-0.1,0.1,0.3,0.2,0.4,0.4l-0.3-0.1l0.3,0.2
		l-0.4,0l0.1,0.1c0,0,0.2-0.1,0.2,0c0.1,0.2-0.3,0.4-0.5,0.4l0.2,0.5c-0.1,0-0.1-0.1-0.2-0.2c0.3,0.3-0.3,0-0.1,0.2
		c0.1,0,0.2,0.1,0.2,0.1c-0.2,0.1-0.3,0.3-0.2,0.5l-0.2-0.1c-0.1,0.3-0.1,0.7-0.1,1c0.1-0.1,0.5,0,0.5,0.1l-0.3,0
		c0.2,0.1,0.1-0.1,0.4,0.1c-0.1,0.1-0.4,0-0.5-0.1l0.1,0.2c-0.1,0-0.1-0.1-0.3-0.1c0.2,0.1-0.4,0.2-0.1,0.4l-0.1,0
		c-0.1,0.3,0,0.5-0.1,0.8c0.3,0.1,0.2,0.2,0.4,0.3c-0.1,0.2-0.4,0.4-0.4,0.6c0.1,0.2,0.2,0.1,0.4,0.2c-0.3,0-0.3,0.2-0.4,0
		c0,0.3,0,0.4,0.1,0.8c0.1,0,0.2,0,0.2,0c0,0.1-0.1,0.1-0.3,0.1l0,0c0.1,0.3-0.1,0.4-0.3,0.6c-0.1,0.1-0.2,0.2-0.3,0.2
		c0,0,0,0,0.1,0.1l0,0c0.1,0.1,0.1,0.2,0.2,0.3c-0.1,0-0.1-0.2-0.3-0.2c0.2,0.2,0.1,0.3,0.1,0.3c0,0-0.1,0-0.1,0.1
		c-0.2-0.4-0.2-0.4-0.2-0.4c0,0-0.1,0.1-0.1-0.1l0,0.2c-0.1,0.2,0-0.1-0.1-0.2c0,0.1,0,0.2,0,0.3c-0.7,0-1.3-0.7-2-1.1
		c-0.2-0.1-0.5,0.8-0.6,0.3l0.2-0.3c-0.7,0.2-1.1-0.4-1.7-0.3c0.1-0.1,0.1-0.2,0.1-0.1c0-0.3-0.4-0.2-0.5,0c-0.1-0.1,0-0.2,0-0.3
		c-0.1-0.2-0.4,0.2-0.4-0.1c0,0,0.1-0.1,0.1-0.1c-0.1,0.1-0.3-0.2-0.3,0.1c-0.1-0.2-0.4,0-0.5-0.2c-0.2,0.3-0.3-0.3-0.5,0.1
		c0.2-0.4-0.2-0.5-0.4-0.3c0.1-0.1-0.1-0.2,0.1-0.3c-0.1,0-0.3,0-0.4,0.2c-0.1-0.6-0.7,0.2-0.6-0.5c-0.5,0.1-0.9,0.1-1.3,0
		c0.2-0.4,0.4,0.1,0.6-0.3c-0.4,0-0.8,0.3-1.1,0.1c-0.1-0.1,0.1-0.2,0.2-0.2c-0.4,0-0.7-0.3-1.1-0.2c0,0,0.1-0.1,0.1-0.1
		c-0.1,0-0.1-0.1-0.2,0.1l0.1,0c0,0.3-0.5,0.5-0.5,0.6c0.3-0.5-0.3-0.3,0.2-0.9c-0.1,0-0.1,0.1-0.2,0.2c0-0.1,0-0.1,0.1-0.3
		c-0.3,0-0.3,0.3-0.5,0.2c0-0.1,0.1-0.1,0.1-0.2c-0.2,0.1-0.3,0.3-0.5,0.1c0-0.1,0-0.1,0.1-0.1c-0.3-0.1-0.7,0.3-0.9,0
		c0.2-0.4-0.1-0.2,0-0.5l-0.2,0l0,0.2c-0.1-0.1-0.4,0.1-0.5,0l0.2-0.1l-0.3,0l0.1,0.2c-0.2,0.1-0.1,0.5-0.3,0.3
		c0.1,0-0.1-0.1-0.2-0.3l0,0c-0.1,0.1-0.2,0.2-0.3,0.1c0-0.1,0.2-0.4,0.2-0.5c-0.2,0.3-0.4,0-0.6,0.2c0.1-0.1,0.1-0.2,0.1-0.3
		l-0.1,0.2c0-0.1,0-0.1,0-0.3c-0.2-0.1-0.1,0.5-0.3,0.2c0,0,0-0.1,0.1-0.1c-0.2-0.2-0.5,0-0.7-0.2c0.1-0.4,0.2,0,0.3-0.3
		c-0.4,0-0.8,0.2-1.1,0l0,0.1c-0.2,0.5-0.2-0.3-0.4-0.1c0.1,0,0.1-0.3,0.1-0.2c-0.2-0.2-0.5,0-0.9,0l0.1-0.1
		c-0.1-0.2-0.3-0.2-0.4-0.3c-0.1,0.1-0.2,0.1-0.2,0.3c-0.2-0.9-1,0.1-1.2-0.6c0,0,0.1-0.1,0.1-0.1l-0.4,0c0,0.2,0,0.1,0,0.3
		c-0.1,0.1-0.2,0.2-0.3,0.2c0.2-0.1,0.1-0.4,0.1-0.5c0,0.1-0.1,0.1-0.1,0.2c-0.1-0.4-0.2,0.4-0.3,0.1l0-0.1c-0.1,0-0.2,0.2-0.3,0.1
		c0-0.3,0.1-0.1,0.2-0.3c-0.1,0-0.4,0.4-0.5,0.1c0.1-0.1,0.2,0,0.2-0.1c0-0.3-0.1-0.3-0.2-0.3l0,0l-0.2-0.2l0,0.1
		c-0.4,0.6-0.4,0-0.7,0.4c0.3-0.4,0.1-0.2,0.2-0.5c0-0.1-0.1-0.2-0.1-0.3c-0.2,0.2-0.1-0.2-0.4,0.1c0-0.1-0.1,0,0-0.3
		c-0.2,0,0,0.2-0.1,0.3c-0.3,0.3-0.4-0.5-0.8-0.2c-0.3,0.1-0.4,0.4-0.7,0.5c0-0.2,0.2-0.3,0.2-0.3c-0.1-0.2-0.2-0.2-0.4-0.1
		c0-0.1,0-0.2,0-0.3c-0.1,0-0.1,0.3-0.3,0.2c0-0.1,0.1-0.3,0.2-0.4c-0.1,0.1-0.3,0.2-0.4,0.3c0-0.2,0.1-0.2,0.2-0.3
		c-0.2,0-0.4,0.1-0.5,0.3l0.1,0.1c-0.1,0,0-0.2,0.1-0.3c0.2-0.2,0.2,0.1,0.1,0.2l-0.1,0c0,0.6,0.4,0,0.6,0.1l-0.2,0.4l0.3-0.3
		c0,0.1,0,0.3-0.1,0.4c0.1,0.2,0.1-0.1,0.2,0.1c0,0,0,0.1,0,0.1l0.2-0.1c0,0.1,0,0.3-0.1,0.2c0.2,0.3,0.4-0.2,0.4,0.1l0,0
		c0.3-0.1,0.1-0.3,0.4-0.6l0,0.8l0.1-0.3c0,0,0.1,0.1,0,0.2c0.2-0.2,0-0.1,0.1-0.3c0.1,0.3,0.5,0,0.4,0.5c0.1-0.2-0.1-0.2,0.1-0.3
		c-0.1,0.5,0.2,0,0.3,0.2c-0.1,0.2-0.2,0.1-0.1,0.3c0.2-0.4,0.2,0.2,0.4,0.1c0.1-0.3,0.3-0.1,0.5-0.1c0,0.1,0.3,0.3,0.5,0.5l0,0.1
		c0.1-0.3,0.3-0.2,0.5-0.2c-0.1,0.2-0.1,0.3-0.2,0.4l0.1,0c0.1-0.1,0.1-0.2,0.2-0.2l-0.1,0.3c0.2,0,0.4-0.2,0.6,0
		c0.1-0.2,0-0.7,0.3-0.8c0,0.1-0.1,0.4-0.2,0.4c0,0,0.1-0.1,0.1,0l-0.2,0.2c0.1,0.1,0.1-0.2,0.2-0.1c-0.1,0.2,0,0.2,0,0.3
		c0,0,0-0.1-0.1,0c0.1,0.1,0.2,0.2,0.1,0.4c0-0.1,0.1-0.3,0.2-0.3c0.2,0,0,0.2,0.1,0.4c0.1-0.1,0.1,0.1,0.2-0.2c0.1,0,0,0.2,0,0.2
		c0.1-0.1,0.4,0.1,0.4-0.2l0,0c0,0,0,0,0,0h0h0c0.4-0.2,0.6,0.4,0.9,0.3l0,0.1c0.2-0.1,0.4,0.1,0.6-0.1c0.1,0,0.1,0.2,0,0.3
		c0.2,0,0.2-0.1,0.3,0.1c-0.2,0.1,0,0.2-0.2,0.1c0.1,0.1,0.1,0.3,0.4,0.1c-0.1,0.2,0,0.3,0.1,0.3l-0.1-0.2c0.1,0,0.2,0,0.2,0.1
		l-0.2,0.3c0.2,0.5,0.9-0.4,0.9,0.3c0.2-0.2-0.1-0.2,0-0.4c0.1,0.1,0.2,0.6,0.2,0.6c0.2,0.3,0.4-0.4,0.6-0.2c0-0.1,0.1-0.4,0.3-0.5
		c0.1,0.1,0,0.5-0.1,0.6c0,0,0,0,0-0.1c-0.1,0-0.2,0-0.1,0.2l0.1-0.1c0,0.1,0.3,0.2,0.1,0.4c0.2-0.1,0.1-0.2,0-0.3
		c0.1,0.2,0.3,0.1,0.5,0.3c0-0.1,0-0.2,0-0.2c0.3,0.2,0.2-0.2,0.4-0.1c0.1,0.2-0.2,0.4,0.1,0.3c0.1,0.2-0.1,0.3-0.2,0.4
		c0.3-0.1,0.3,0.3,0.4,0.3l-0.1,0.1c0.1,0,0.1,0,0.2,0l0-0.2c0,0.1,0.1,0.1,0.1,0.2c0.1-0.1,0.1-0.4,0.3-0.5c0,0.1,0.3,0,0.2,0.3
		c-0.2-0.2-0.1,0.3-0.3,0.3c0.1,0,0.1,0,0.1,0.1c0,0,0,0.1-0.1,0.1c0.1,0.4,0.2-0.3,0.5-0.2c-0.1,0.2-0.1,0.3,0,0.3
		c-0.1,0,0.1-0.3,0.2-0.4c0.1,0.2,0.2,0,0.3,0l-0.1-0.1c0.1-0.2,0.2-0.1,0.3-0.1c0,0.1-0.1,0.1-0.1,0.1c0.2-0.2,0.2,0.4,0.4,0.3
		c0,0.1-0.1,0.3-0.1,0.4c0.3-0.1,0.1,0.3,0.4,0.2c0-0.2,0-0.2,0.2-0.4l-0.4,0l0.3-0.2c-0.1,0-0.3,0.1-0.3,0c0.2-0.1,0.1-0.1,0.2-0.3
		c0,0.4,0.3-0.1,0.4,0.2l-0.2,0.6c0.1,0.3,0.5-0.1,0.8,0.1l-0.1-0.1c0.1-0.2,0.2,0,0.3,0c-0.1,0.2,0,0.3,0,0.4
		c0-0.1,0.2,0.1,0.4-0.3l0,0.3c0.2,0.2,0.5-0.4,0.7-0.3c-0.1,0.2-0.1,0.3-0.3,0.4c0.1,0,0.1,0.1,0.2,0c0,0.1,0.3-0.2,0.3,0
		c0.1-0.1,0.1-0.3,0.2-0.2c0,0,0,0.1,0,0.1c0-0.1,0.2-0.1,0.2-0.3c0,0.7,0.7,0.2,0.7,0.8c0.2,0,0.4,0,0.6,0.1c0,0.1,0,0.1-0.1,0.1
		c0.2,0.3,0.3-0.5,0.5-0.2c0,0.3-0.2,0.1-0.2,0.3c-0.2,0.6,0.3,0,0.4,0.4l-0.1,0c0.1,0.3,0.4-0.1,0.6,0c0,0,0,0,0,0.1
		c0.3-0.3,0.6-0.3,0.8-0.3c-0.1,0.2-0.1,0.1-0.2,0.3c0.1,0,0.1-0.4,0.3-0.4c0,0.2,0.1,0.3,0,0.6l-0.2,0c0,0.4,0.2,0.1,0.3,0.2
		l-0.1,0.1c0.3,0,0.4-0.3,0.7-0.2l0-0.1c0.3-0.3,0.1,0.3,0.3,0l-0.1,0.4c0.1-0.1,0.5-0.2,0.7-0.2c-0.2,0.2-0.5,0.3-0.7,0.4
		c0.1,0,0.4,0.1,0.5-0.1c-0.1,0-0.1,0.1-0.2,0c0.2-0.2,0.4-0.3,0.6-0.3c-0.3,0.7,0.5,0.4,0.5,1c0.4-0.2,1.1,0.5,1.8,0.4
		c-0.4-0.6,0.2,0-0.1-0.6c0.1,0,0.2,0,0.2,0c0.2,0.1,0.4,0.2,0.5,0.2c0.2,0.1,0,0.2,0,0.3c0.3-0.2,0.2,0.1,0.5,0.1
		c-0.2-0.1-0.1-0.3,0.1-0.4c-0.1,0-0.2,0-0.4,0c0.1-0.6,0.6,0.1,0.6-0.6l0.1,0.3c0-0.2,0.1-0.4,0.2-0.7c0.1-0.3,0.1-0.6-0.2-0.7
		c0.1,0,0.2,0,0.3,0.1c0.2-0.4-0.3-1,0.1-1.2l0.1,0.1c0-0.1-0.2-0.2-0.1-0.2c0.1,0,0.1,0.1,0.2,0c0-0.1-0.2-0.3-0.1-0.3l0.1,0.1
		c0.3-0.3-0.3-0.7-0.3-1c0.4,0.1,0.6-0.2,0.7-0.3l0.1,0c0.2-0.4-0.2-0.8-0.3-1.2c0.5-0.1,0.4-0.8,0.7-1.1c-0.1,0-0.3-0.1-0.4-0.2
		c0.1-0.1-0.2-0.3,0.2-0.2l0,0c0.4,0,0.3-0.2,0.4-0.3l-0.5-0.1c0.8-0.2,0-1.1,0.7-1.1c-0.1-0.1-0.1-0.2-0.2-0.4l0.3,0.1
		c0.1-0.2,0.2-0.4,0.2-0.7l0.2,0.1c0.1-0.2-0.7-0.4-0.7-0.6l0.4,0c0.1-0.3,0.5-0.5,0.2-0.9c0.1,0,0.2,0.1,0.2,0.1
		c0-0.1,0.4-0.5-0.2-0.6c0.4,0.1,0.1-0.3,0-0.5l0.3,0.1c-0.3-0.2-0.4-0.3-0.4-0.5c0,0,0.2,0,0.1,0.1c0.2-0.1-0.2-0.2,0-0.3l0.2,0.1
		c0.1-0.2,0-0.2-0.2-0.3c-0.1-0.1,0.1-0.3,0.4-0.2c-0.1-0.1-0.3-0.2-0.2-0.3c0.1,0,0.1,0.1,0.2,0.1c0.3-0.2-0.2-0.5,0.1-0.6
		c0.1,0,0.1,0,0.2,0c-0.1,0.2-0.1,0.4-0.1,0.4c0.2,0.1,0.3-0.1,0.6,0.1c-0.2-0.2-0.5-0.5-0.3-0.7c0,0,0.1,0,0.1,0l0,0
		c0,0,0-0.1,0-0.1c0.1,0,0.1-0.1,0.1-0.1c0.2,0,0.2-0.2,0.2-0.2c-0.3-0.1-0.2-0.2-0.5-0.1c0,0,0,0,0,0.1c0,0,0,0,0,0l0,0
		c0,0.1,0,0.1,0,0.2c-0.1-0.1-0.2-0.2,0-0.3c-0.2-0.1-0.3-0.2-0.4-0.2c0.4,0,0.7-0.2,0.9-0.1c-0.1-0.3,0.1-0.6-0.4-1
		c0-0.1,0.2,0,0.3,0c0,0.1,0,0.1,0.1,0.2c-0.1-0.2,0.1-0.5-0.3-0.6c0.2-0.1,0.3,0.2,0.3-0.1l0.1,0.1c0.7-0.3-0.6-1.1,0.3-1.4
		c-0.1,0-0.1,0-0.1,0c0.5-0.5,0.2-1.4,0.9-1.8c0.2-0.1,0-0.2-0.2-0.4l0.3,0.1l-0.2-0.3c-0.1-0.4,0.9-0.1,0.6-0.6l-0.2,0
		c0.1-0.1,0.1-0.4,0.3-0.3c0,0-0.2-0.1-0.1-0.1l0.1,0.1l-0.1-0.4c0.2-0.2,0.5,0.3,0.7,0c0-0.1-0.2-0.5-0.3-0.5c0,0-0.1,0.1-0.3,0
		l0-0.1c-0.4-0.2-0.8-0.6-1.2-0.5l0.1,0.3l-0.2,0l0.1-0.2c-0.2,0-0.1,0.1,0,0.3c-0.1,0-0.2-0.1-0.3,0l0.3,0.4
		c-0.2-0.1-0.3-0.2-0.4-0.2c0.1,0.2,0.4,0.1,0.5,0.3c-0.2,0-0.4-0.1-0.3,0.1c-0.1,0-0.2-0.1-0.2-0.2c0.1,0.2-0.1,0.3,0.1,0.4
		c-0.3,0-0.1,0.4-0.5,0.2c0.1,0.1,0.2,0.3,0.2,0.4c-0.4-0.4-0.2,0.3-0.7,0.1c0.4,0.3,0,0.5,0.2,0.8c0,0-0.1-0.1-0.1-0.1
		c-0.1,0.1-0.2,0.1-0.3,0.1c0.4,0.2,0.4,0.4,0.6,0.6c-0.4,0-0.4-0.2-0.8-0.3c0.3,0.1,0.2,0.4,0.5,0.4c-0.3,0-0.1,0.1-0.5,0
		c0.5,0.2,0,0.1,0.3,0.3c-0.3,0.1-0.4-0.1-0.4,0.1C130.8,46.7,130.7,46.4,130.7,46.4 M130.2,51.1L130.2,51.1
		C130.2,51,130.2,51,130.2,51.1C130.2,51,130.2,51,130.2,51.1 M130.1,51.4c0,0,0-0.1,0.1-0.2c0.1,0,0.2,0.1,0.2,0.1
		C130.3,51.3,130.2,51.4,130.1,51.4 M132.2,51.2C132.2,51.2,132.2,51.2,132.2,51.2C132.1,51.2,132.1,51.2,132.2,51.2l-0.1-0.1
		C132.1,51.1,132.2,51.1,132.2,51.2"/>
	<path class="st0" d="M131.9,51C131.9,51,131.9,51,131.9,51C131.8,50.9,131.8,51,131.9,51L131.9,51L131.9,51z"/>
	<path class="st0" d="M108.9,59.2L108.9,59.2C108.9,59.2,108.9,59.2,108.9,59.2C108.9,59.2,108.9,59.2,108.9,59.2"/>
	<polygon class="st0" points="128.3,56.4 128.4,56.4 128.3,56.3 	"/>
	<path class="st0" d="M107.2,57.7C107.2,57.6,107.2,57.6,107.2,57.7C107.2,57.6,107.2,57.6,107.2,57.7"/>
	<path class="st0" d="M106.4,57.4l-0.1-0.1C106.3,57.3,106.4,57.3,106.4,57.4"/>
	<path class="st0" d="M105.8,57c0,0,0,0.1,0,0.1l0,0L105.8,57z"/>
	<path class="st0" d="M116.3,60.2C116.3,60.2,116.3,60.2,116.3,60.2C116.4,60.2,116.4,60.2,116.3,60.2"/>
	<path class="st0" d="M113,59.7c0,0,0.1-0.1,0.1-0.1C113.1,59.6,113.1,59.6,113,59.7"/>
	<polygon class="st0" points="119.8,61.2 119.8,61.2 119.9,61.2 	"/>
	<path class="st0" d="M113.3,59.7c0-0.1-0.1-0.1-0.1-0.1C113.2,59.7,113.2,59.7,113.3,59.7"/>
	<path class="st0" d="M102.8,56.2L102.8,56.2C102.8,56.2,102.8,56.2,102.8,56.2L102.8,56.2z"/>
	<path class="st0" d="M102.8,56.2L102.8,56.2C102.8,56.2,102.8,56.2,102.8,56.2"/>
	<path class="st0" d="M102.7,56.3L102.7,56.3C102.7,56.2,102.7,56.2,102.7,56.3"/>
	<path class="st0" d="M103.7,56.5L103.7,56.5C103.7,56.4,103.7,56.5,103.7,56.5"/>
	<path class="st0" d="M104,56.5c-0.1,0-0.1-0.3-0.2-0.2l0,0.1C103.8,56.3,103.9,56.7,104,56.5"/>
	<path class="st0" d="M104.8,58.1l-0.2-0.1c0,0.1,0,0.3-0.1,0.3C104.7,58.6,104.5,57.9,104.8,58.1"/>
	<path class="st0" d="M105.5,58.4c-0.1,0,0,0.2-0.1,0.2C105.5,58.5,105.5,58.5,105.5,58.4"/>
	<path class="st0" d="M110.4,59.9l-0.1,0.2C110.4,60.2,110.3,60.1,110.4,59.9"/>
	<polygon class="st0" points="111.8,59 111.7,58.8 111.6,59 	"/>
	<polygon class="st0" points="111.7,60.9 111.7,60.9 111.8,60.9 	"/>
	<path class="st0" d="M119.9,63.8l0.1-0.3C119.9,63.5,119.8,63.9,119.9,63.8"/>
	<path class="st0" d="M123.6,64.8c0,0.2,0.1,0.3,0.2,0.2C123.7,65,123.6,64.8,123.6,64.8"/>
	<polygon class="st0" points="130.6,57.9 130.6,58 130.6,57.9 	"/>
</g>
</svg>
