<?xml version="1.0" encoding="utf-8"?>
<!-- Generator: Adobe Illustrator 19.0.0, SVG Export Plug-In . SVG Version: 6.00 Build 0)  -->
<svg version="1.1" id="Layer_1" xmlns="http://www.w3.org/2000/svg" xmlns:xlink="http://www.w3.org/1999/xlink" x="0px" y="0px"
	 viewBox="0 0 70.2 134.6" style="enable-background:new 0 0 70.2 134.6;" xml:space="preserve">
<style type="text/css">
	.st0{clip-path:url(#SVGID_2_);fill:#484F57;}
</style>
<g>
	<defs>
		<rect id="SVGID_1_" x="0" y="0" width="70.2" height="134.6"/>
	</defs>
	<clipPath id="SVGID_2_">
		<use xlink:href="#SVGID_1_"  style="overflow:visible;"/>
	</clipPath>
	<path class="st0" d="M58.6,123.2c0,0.1-0.1,0.3-0.3,0.1v-0.4L58.6,123.2z"/>
	<path class="st0" d="M56.6,122.8c-0.2-0.3-0.4-0.7-0.1-0.9c0.1,0.4,0.3,0.4,0.4,0.9c0.2,0.2,0.5,0.1,0.5,0c0,0.1,0.4,0.2,0.4,0.4
		c-0.4,0-0.8-0.2-1.2-0.6C56.6,122.6,56.7,122.7,56.6,122.8"/>
	<path class="st0" d="M32.9,109.6l0.2,0.1C33,109.6,33,109.6,32.9,109.6"/>
	<path class="st0" d="M19.5,99.3c0.1,0.1,0.1,0.2,0.1,0.2C19.5,99.4,19.5,99.3,19.5,99.3"/>
	<path class="st0" d="M17.2,97.6c0.1,0,0.1,0.1,0.1,0.1C17.2,97.7,17.2,97.6,17.2,97.6"/>
	<path class="st0" d="M32.9,109.6l-0.4-0.2C32.5,109.3,32.7,109.5,32.9,109.6"/>
	<path class="st0" d="M53.7,120.3c0.1,0.1,0.1,0.1,0.2,0.2L53.7,120.3C53.7,120.4,53.7,120.3,53.7,120.3"/>
	<path class="st0" d="M39,113.8l0.1,0.1c0,0.1,0,0.1,0,0.2L39,113.8z"/>
	<path class="st0" d="M43.9,116.8c-0.1-0.1,0-0.3,0-0.5c0,0.1,0.1,0.2,0.1,0.3C44,116.7,44,116.8,43.9,116.8"/>
	<path class="st0" d="M52.1,120.7l0.1,0.1C52.2,120.8,52.1,120.8,52.1,120.7"/>
	<path class="st0" d="M35.5,111.7C35.5,111.7,35.5,111.8,35.5,111.7C35.5,111.7,35.5,111.7,35.5,111.7"/>
	<path class="st0" d="M63.6,2.4C63.6,2.4,63.6,2.4,63.6,2.4C63.7,2.4,63.7,2.4,63.6,2.4"/>
	<path class="st0" d="M70.2,0.9L70.2,0.9C70.1,0.9,70,0.8,70,0.8L70.2,0.9z"/>
	<path class="st0" d="M13.2,94C13.2,94,13.2,94,13.2,94C13.3,94.1,13.3,94.1,13.2,94"/>
	<path class="st0" d="M1.8,48.2c0.1,0.6,0.5-0.8,0.6,0.1C2.3,48.2,1.8,49,1.8,48.2"/>
	<path class="st0" d="M53.6,120.3l-0.2-0.1C53.5,120.2,53.5,120.3,53.6,120.3"/>
	<path class="st0" d="M2.4,48.3L2.4,48.3L2.4,48.3C2.4,48.4,2.4,48.4,2.4,48.3"/>
	<path class="st0" d="M6,84c0.1,0,0.1,0,0.2,0C6.1,84,6.1,84,6,84"/>
	<path class="st0" d="M11.6,91.2l-0.2-0.2C11.5,91.1,11.6,91.2,11.6,91.2"/>
	<path class="st0" d="M4.1,79.6C4,79.5,4,79.4,4,79.3c0,0,0,0,0.1,0C4,79.4,4,79.5,4.1,79.6"/>
	<path class="st0" d="M2.2,75L2.2,75c0.1,0.1,0.1,0.2,0.1,0.2L2.2,75z"/>
	<path class="st0" d="M49.2,4.5c0.1-0.1,0.1-0.2,0.2-0.3C49.4,4.4,50.1,4.3,49.2,4.5"/>
	<path class="st0" d="M53.7,120.5c0-0.1,0-0.1-0.1-0.2L53.7,120.5C53.7,120.4,53.7,120.5,53.7,120.5"/>
	<path class="st0" d="M6,78.4l-0.4-0.7C5.8,78,5.9,78.2,6,78.4"/>
	<path class="st0" d="M19.6,21.1l0.1-0.1C19.7,21.1,19.7,21.1,19.6,21.1"/>
	<path class="st0" d="M4.9,75.7c-0.1-0.1-0.2-0.2-0.3-0.3c0,0,0-0.1,0-0.1L4.9,75.7z"/>
	<path class="st0" d="M49.4,4.2L49.4,4.2L49.4,4.2z"/>
	<path class="st0" d="M54.4,3.8c0,0-0.6,0-0.3-0.3c0.7,0,0.2-0.1,0.8-0.5c0.4,0.2,0.7-0.2,0.8,0.3c0.2-0.4,0.1-0.2,0.5-0.5
		c-0.2,0.3,0.9,0.1,0.9,0.4c0.1-0.4-0.8-0.3-0.3-0.8c0.4,0.2,1.2,0.2,1.3,0.6c0.3-0.1,0.4-0.3,0.9-0.4c-0.1,0-0.2,0-0.2-0.1
		c0.9,0.2,2.1-0.2,2.6,0.2c-0.2-0.6,1.8-0.2,1.1-0.7c0.4,0,0.9,0.2,1.1,0.3c-0.1-0.4,0.9-0.1,1.3-0.4c0.2,0.2,0.8,0.1,1.2,0.3
		c-0.2,0-0.3-0.1-0.2-0.2c0.4,0.2,0.3,0,0.7-0.2c0.6,0.1-0.1,0.3,0.3,0.5C67.4,2.2,66.9,2,67,1.8l0.8,0.5c0.2,0,0.3-0.1,0.3-0.2
		c0.3,0.1,0.5,0.3,0.9,0.1l-0.7,0l0.3-0.2l0.8,0.3c1.1-0.3,0.8-0.8,0.7-1.3l-0.5-0.1c0-0.2,0.3-0.2,0.5-0.3c0.2-0.1-0.7-0.5-1.2-0.6
		c-1.4,0-0.3,0.5-1.2,0.6c-0.4-0.1-0.8-0.2-1.2-0.3l0,0.2c-0.2,0.1-0.3-0.1-0.4-0.1c0.1,0.2-1,0.1-1.5,0.2l0.2-0.2
		c-1.4-0.5-2.1,0.6-3.2,0.4l-0.8-0.3l-0.1,0.3c-0.5-0.2-0.6-0.4-1.3-0.2c-1.2,0.4-2.6,0.5-3.9,0.7c-1.3,0.1-2.7,0.3-3.9,0.8
		c0-0.1,0.1-0.1,0.2-0.2c-1,0.6-1.9,0.6-2.8,0.6c-0.9,0-1.8,0-2.7,0.6l0.2,0.1c-1,0.2,0.2,0.1-0.5,0.4c-0.2-0.3-1.4,0.1-2,0.2
		c0.1,0,0.3,0,0.5,0c-0.1,0.1-0.1,0.3-0.4,0.4C43.4,3.9,42,4.4,41,4.7c0,0.3-0.8,0.8-1.1,1.3c-0.1,0-0.4-0.1-0.6-0.2
		c-0.3,0.3-0.6,0.3-0.9,0.3c0.3-0.1,0.6-0.2,0.8-0.3l0,0c0,0,0.1,0,0.1,0c0.2-0.1,0.3-0.1,0.3-0.1c0.3-0.4-0.1-0.2-0.2-0.4
		c-0.3,0.1-1,0.3-1,0.6c-0.2,0.1-0.3,0.2-0.5,0.3c-0.1,0-0.3,0.1-0.4,0.1l0.1,0c0,0,0,0.1,0,0.1c-0.6,0.4-1.6,0.4-2.2,0.5
		c0.7,0.1,0,0.4,0.2,0.7c-0.1,0,0.5-0.3,1.3-0.7c0,0.1-0.1,0.1,0,0.2c-0.6,0.6-1.3,0.3-2.1,1c0.1,0,0.2,0,0.2,0.1
		c-0.3,0.2-0.7,0.2-0.9,0.1c0,0.3-0.6,0.8-1,0.9c-0.4,0-0.4-0.1-1,0.2l0.3,0c-0.6,0.5-0.7,0.1-1.2,0.5c0.2-0.2,0.3,0,0.2,0.1
		c-0.7,0.3-0.8,0.3-1.5,0.3l0.2,0.2c-0.7,0.2-2,0.6-1.8,0.9c-0.1-0.6-1.4,0.6-1.9,0.9c0.2-0.1,0.3,0,0.3,0c-1.3,0.4-2.1,1.5-3.1,2.2
		l0.1,0.5c-0.5,0.4-1.2-0.1-1.7,0.4l0.3,0c-1,0.8-1.4,1.1-2.1,1.9l0.2,0.2c-0.4,0.2-0.7,0.5-1.1,0.6c-0.1,0.5-0.7,1-1.5,1.7
		c-0.7,0.6-1.5,1.3-1.7,2.1l-0.5-0.3c-0.4,0.5-1,1-0.9,1.4l0.1-0.1c0.3,0.2-0.4,0.5-0.5,0.8c-0.2,0.2-0.6,0.2-0.5,0
		c-0.8,1.4-2.4,3.1-2.6,4.2c-0.5,0.6-1,1.1-1.5,1.6c-0.5,0.5-1,1.1-1.4,1.9l0.1,0c-0.2,0.5-0.7,1.6-0.3,1.8c-0.7,1-1.6,1.5-2.1,2.9
		l0.3-0.2c-0.1,0.4-0.5,0.8-0.6,0.9c0,0.1,0.1,0.1,0.1,0.1c0,0.4-0.3,0.5-0.5,0.7l0.2,0c-0.2,1.2-1.4,2.7-1.9,4.1
		c0.1-0.2,0.2,0,0.3,0.1c-0.7,0.4-1.1,2.1-1.4,2.6l0.3-0.3c-0.7,1.1,0.2,1.2-0.5,2.2l-0.1-0.8c-0.1,0.5-0.3,0.9-0.4,0.7
		c0,0.6,0.3,0.2,0.1,1c0.1,0.1,0.3-0.6,0.4-0.3c0,0.4,0,0.8,0,1.3c0,0,0,0.2-0.1,0.6c-0.6-0.2-0.3,1-0.7,0.2
		c-0.2,0.8-0.3,1.6-0.4,2.4C1,52.3,0.9,53,0.7,53.7c0.4,0.7-0.4,2.9,0.4,2.8c-0.1,0.8-0.4,1.4-0.7,1.9c0-0.2,0.1-0.4,0.1-0.5
		c-0.2,0.2-0.3,1.2-0.3,1.6c0.2-0.5,0.4-1.4,0.8-1.8c-0.2,0.7-0.5,1.8-0.6,2.2l0.4,0.2c-0.3,0.6,0.3,0.5-0.1,1.2l-0.1-0.1
		c0,1.2-0.4,1.2-0.4,2.3l0.2-0.1c0.1,0.4-0.3,0.9,0.1,1.3l0-0.7c0.3,0.1,0.4,0.6,0.6,0.8c0,0.7-0.4,0.3-0.4,0.7
		c0.3,0.1,0.1,0,0.4-0.3c0,0.8,0,2-0.2,2.6c0,0,0.1,0,0.1,0c0.1,0.9-0.1,1.7,0.2,2.2l0-0.2c0.5,0.6,0,1.9,0.7,1.9
		c0.2,0.3-0.2-0.7,0.2-0.3c0.4,0.9-0.3,0.8,0.1,1.6c-0.1-0.1,0-0.1,0-0.1C2,73.5,2.2,74.3,2.3,75c0.8,0.6,0.8,2.6,1.8,3.3
		c-0.3-0.2-0.1,0.3-0.2,0.4c0,0,0-0.1,0.1,0c0.2,0.3,0,0.5,0,0.6c0.3,0.2,0.3,1,0.5,1.1c-0.1,0.1,0,0.3,0.2,0.6
		c-0.2-0.7,0.2-0.3,0.2-0.7c0.5,0.9,0,1.3,0.6,2.2L6,82.9C5.7,83.2,6.3,84,6.2,84c0.2,0.1,0.4,0.3,0.5,0.1c0.1,0.4,0.6,0.8,0.5,1.1
		L6.9,85c0.8,1,0.7,2,1.6,2.6L9,87.2c0.6,0.4,0.4,1.2,1.1,1.4c-0.3,0-0.3-0.1-0.2,0.3c-0.2-0.2-0.3-0.6-0.6-1l0.2,0.9l-0.7-1.2
		C9,88.3,9,88.3,8.7,88.2c0.3,0.8,0.8,0.6,1,1.4c0.2,0.2,0.2-0.2,0.5,0c0.3,0.7,1.2,0.8,1.3,1.4c0.1,0.1-0.2-0.2,0-0.3
		c0.2,0.4,0.5,0.6,0.4,0.8l-0.3-0.3c0.2,0.3,0.1,0.5,0.6,0.9c0.1,0.4,0.1,0.7-0.2,0.4c0.1,0.2,0.4,0.3,0.5,0.1
		c0.7,0.8-0.1,0.8,0.7,1.3c0-0.1-0.1-0.1,0-0.1c0.2,0.2,0.3,0.3,0.4,0.5c-0.5-0.7,0.5-0.1-0.2-0.8c0.3-0.1,0.6,0.5,0.9,0.7
		c0.2,0.5-0.3,0.3-0.2,0.6c0.1-0.1,0.2,0.1,0.4,0.2l-0.3,0c0.1,0.2,0.3,0.3,0.4,0.5l-0.2-0.4c0.4,0.3,1.1,0.5,1.5,1.3
		c-0.1-0.2-0.2-0.7,0.2-0.4c0.5,0.7,0.2,0.1,0.7,0.3c0.6,0.6-0.2,0.4,0.8,1.2c0.1,0.1-0.1,0.1-0.2,0.1c0.7,0.5,0.9,1,1.7,1.4
		c-0.3-0.2-0.6-0.3-0.3,0.1c0-0.3,0.6,0.3,1,0.5l0,0.1c0.3,0.1,0.1-0.1,0-0.3c0,0-0.1,0-0.2-0.1c-0.2-0.4,0.2-0.6,0.7-0.2
		c0.5,0.5,0.2,0.7,0,0.7c0.8,0.5,0.3,1,1.1,1.5c0.2,0.1,1,0.2,1.5,0.6c0.1,0.4-0.8-0.4-0.6,0.1c1.3,0.2,1.5,1.8,2.8,2.3L25,104
		c0.3,0.2,0.5,0.4,0.8,0.6l-0.5-0.2c0.2,0.3,0.9,0.7,0.8,0.3c0.4,0.7,0.7,0.6,1.3,1c-0.6-0.4,0,0-0.4-0.4c0.7,0.3,0.7,0.5,1.1,0.8
		c0-0.1,0.3-0.1,0.5,0c0.3,0.5,1,0.9,1.5,1.4l0.1-0.1c0.9,0.8,2.2,1.1,3,2l0,0l0,0l0,0l-0.1,0c-0.5,0,0.6,0.7,0.9,1
		c0.1,0,0.2-0.1,0.4,0c-0.2,0.3,0.3,0.4,0.4,0.6c0.4,0.1,0.1-0.3,0.7,0.1c0.2,0.2,0.2,0.3,0.1,0.4c0.2,0,0.6,0.1,1,0.3
		c-0.1-0.1-0.3-0.2-0.3-0.2c0-0.2,0.2,0,0.3-0.1c0.3,0.2,0,0.3,0.4,0.4l-0.2-0.4c0.2,0,0.3,0.2,0.4,0.3c-0.2-0.2,0-0.4,0.1-0.5
		c0.7,0.7-0.2,0.6-0.3,0.9c0.9,0.3,1.3,1,1.9,1.3l0-0.3c0.3,0.2,0.4,0.4,0.4,0.5l0.4,0.3c-0.2-0.2-0.2-0.4-0.2-0.6
		c0.4,0.4,1.1,0.7,1.1,1.1l0-0.1c0.7,0.3,2.1,1,2.1,0.9c0.6,0.5,1.6,0.8,1.4,1.2c0.4,0.3,1.3,0.2,1.4,0.8c0.6,0.1,0.1-0.1,0.1-0.4
		c0.6,0.1,0.8,0.9,1.2,0.5c0.5,0.5-0.2,0-0.1,0.3c0.4-0.4,1.1,0.5,1.8,0.6c0.1,0.3-0.3,0,0,0.4c0-0.1,0.3,0,0.4,0l0,0.3l0.9-0.4
		c0.6,0.8-0.4,0.4,0.6,1.1l-0.1-0.1c0.4-0.1,0.7,0.6,1.6,0.8c-0.3-0.1,0-0.2-0.1-0.3l0.4,0.3c0,0,0-0.1,0-0.1c0.5,0,0.3,0.3,0.8,0.3
		c-0.3-0.2-0.1-0.4,0.1-0.4l0.5,0.6l-0.1-0.5c0.6,0.3,1.3,1.4,1.9,1.1l-0.3-0.2c0.1-0.1,0.4-0.2,0.7,0.2c0.1,0.1,0.1,0.4-0.1,0.3
		l0.4,0.1c0-0.3-0.8-0.8-1.2-1.1c0.1,0.2,0.4,0.5,0.2,0.5c-0.4-0.3-0.7-0.7-1.1-1c0.1,0.2,0.1,0.4,0.2,0.5c-0.5-0.1-0.3-0.4-0.6-0.6
		c-0.2,0-0.3,0-0.3,0.2c-0.4-0.3-0.7-0.6-1.3-0.7c0,0,0.4,0.5,0.1,0.4c-0.8-0.6-0.8-1-1.7-1.7c-0.9-1-2.2-0.9-2.8-1.6
		c0-0.1,0.7,0.1,0.2-0.2c0,0.3-0.4,0-0.4,0c-0.4-0.6-0.8-0.4-1.1-0.8c0,0.1-0.3,0-0.5,0c-0.1,0.3-0.6-0.2-0.1,0.6
		c-0.6-0.8-1.4-0.7-1.7-1.6l0.2,0l-0.9-0.3l0,0c-0.4-0.2-0.4-0.3-1-0.3c0.2,0.2,0.4,0.3,0.6,0.5c-0.6,0-0.8-0.7-1.2-1
		c-0.1,0.2,0.4,0.4,0.2,0.5c-0.3-0.2-0.5-0.5-0.8-0.7l0,0.1c-1-0.2,0-0.7-0.8-0.7c0.1-0.1,0-0.2,0.1-0.2c-0.3,0-0.9-0.2-0.5,0.3
		c-0.3-0.2-0.5-0.5-0.6-0.7c0.3,0,0.3,0.1,0.6,0l-1.1-0.8c-0.1-0.1,0,0.2,0.2,0.3c-1.7-0.3-2.4-2.1-4.2-2.5c0.3-0.1,0-0.2-0.1-0.4
		c-0.5-0.3-1.2-0.8-1.7-1l0.1,0.2c-1-0.9-1.7-1.6-2.4-2.1c0-0.1-0.1,0.2,0,0.3c-0.4-0.6-1.5-0.4-1.3-1l0.2,0.1c-1.1-0.7-2-1.9-3-2.8
		c-0.4,0.1,0.6,0.5,0.1,0.6c-0.8-0.5-1.4-1.3-2.2-1.8c0.1,0.1,0,0.1,0.1,0.2c-0.9-0.5,0.3-0.2-0.4-0.7c-0.1,0.2-0.1,0.2-0.4,0l0-0.4
		c-0.1,0-0.2,0.2-0.1,0.3c-0.1-0.5-1.1-1.1-1.1-1.5c-0.1,0-0.1,0.4-0.3,0.4c-0.4-0.2-0.6-0.5-0.7-0.8l0,0c-0.4,0-0.9-0.6-0.8-0.4
		c-0.7-0.5,0-0.2-0.3-0.8c0.2,0.1,0.4,0.2,0.6,0.3c-0.3-0.3-0.5-0.6-0.8-0.8l0.2,0.4c-0.5-0.3-0.7-0.8-1.1-1.3l0.3,0.1L19,96.5
		c-0.3,0.2-0.7-0.6-0.7,0c-1.1-0.8-1.3-1.7-2.1-2.6c0.1,0.1,0,0.1,0,0.2c-0.5-0.4-0.7-0.9-0.8-1.3c0,0.1,0.1,0.3,0,0.4
		c-0.5-0.6-0.2-0.5-0.7-1.2c0,0.3-0.1,0.3-0.3,0.1c0.1-0.1,0.1-0.3,0-0.4c-0.1,1-0.9-0.5-1.1,0.1c0.1-0.1-0.5-1.4-0.1-1.3l0.1,0.2
		c0.2-0.1-0.1-0.3-0.2-0.5c0.1,0.1,0.1,0.3,0.1,0.3c-0.6-1.1-1.6-2-2.3-3.3c0,0.1,0.2,0.7,0,0.4c-0.9-1.1-1.1-2-1.7-3.2
		C8.8,84.6,10,85.7,9.7,86c-0.7-1.3-1.5-2.7-2-4.2c-0.9-0.2-0.6-1.5-1.5-2.2c0.2,0,0.1-0.5-0.1-1c-0.1,0.3-0.3-0.3-0.4-0.1
		c0-0.3-0.1-0.7-0.3-1.1C5.2,77,5,76.7,4.8,76.8c0.4-0.3-0.4-1-0.2-1.5c-0.4-0.5-0.4-1.2-0.7-1.9c0.3,0.2-0.1-0.8-0.1-1.1
		c0,0.1,0,0.2,0,0.2c-0.3-0.2,0-0.9-0.3-1.3c-0.1-0.2-0.2,0.1-0.3-0.2c0.2-0.1,0.2-1.2-0.1-1.6c0,0.2-0.1,0.2-0.1,0.4
		c0-0.5-0.1-1-0.2-1.5c-0.1-0.5-0.1-1-0.2-1.6c-0.1-1-0.3-2.1-0.1-3.1L2.1,64c-0.5-1.3,0.5-0.9,0.4-1.9c-0.1-0.7,0-1.4-0.1-2.1
		c0-0.7-0.1-1.4,0-2.1C2.5,56.4,2.6,55,3,53.6c0.1-0.2,0.1,0.1,0.2,0.2c0-0.2-0.3-0.4,0-0.7l0.2,0.1c-0.3-1.4,1.1-3.5,0.6-4.6
		c0.6-1.1,0.4-2.1,1.2-3.3c0-0.5-0.5,0.4-0.3-0.2l0.7-1.2l0,0.1c0.9-1.1,0.6-3.5,1.7-4.9l-0.1,0.1c-0.1,0-0.1-0.4,0-0.6
		c0.1-0.1,0.1,0.1,0.1,0.3c0.8-1.3,0.9-1.6,1.5-2.6c-0.4,0.4,0.1-0.5-0.1-0.7c0.3-0.2,0.2,0.3,0.6-0.3c0.5-0.9,0.7-1.7,1-2.5
		c0.4-0.2,0.5-0.6,0.8-0.4c0.6-0.9,1-1.4,1.7-2.5l-0.1-0.1c0.5-0.1,0.5-1.1,0.8-1.1c-0.1,0-0.2,0-0.3,0l0.5-0.4
		c-0.3,0.2-0.6,0.1-0.4-0.3c0.5-0.3,0,0.2,0.4,0.1l-0.2-0.3c0.3-0.3,0.6-0.2,0.4,0.3c0.8-1.1,1.8-2,2.5-3l-0.2,0
		c0.5-0.5,1.1-1.1,1.2-1.5c0.1,0,0.3,0,0.2,0.1c0.7-0.4-0.2-0.3,0.6-0.7c-0.2,0.1-0.4,0.3-0.5,0.2c0.4-0.3,0.8-0.7,1.3-1
		c-0.1-0.1,0.3-1.1,0.9-1.5c0.1,0,0,0.3-0.1,0.4l0.4-0.3l0-0.5l0.7-0.2l-0.2-0.2c0.4-0.3,0.8-0.1,1.1-0.4c0.9-1.1,0.6-1,1.2-1.9
		c0.5,0.4,1.2-1.1,1.7-0.9c0.8-1.2,2.5-2.2,3.9-3.2l-0.1,0c0.5-0.6,0.9-0.1,1.6-0.7l-0.2,0c0.7-0.8,2.4-1.6,3.4-1.8
		c-0.2,0-0.2-0.2,0.1-0.3c0.3,0,0,0.5,0.4,0.1c-0.1,0-0.1-0.1,0-0.2l0.6,0c0.6-0.5,1.2-0.9,1.9-1.3c0.7-0.4,1.4-0.8,2.1-1
		c0.2-0.2,0-0.2-0.1-0.3c0.6-0.2,1.1-0.4,1.7-0.6c0.6-0.1,1.1-0.3,1.6-0.5l0-0.4c0.5-0.2,0.5,0.4,1-0.2c0.1-0.1-0.4,0.1-0.7,0.1
		c0.9-0.6,0.7,0.1,1.6-0.3L43,6c0.7-0.5,0.9-0.1,1.2,0c1.2,0.1,0.5-1,2-1.1c0.3,0.1,0,0.3,0.3,0.4c1-0.4,1.2-0.2,2.1-0.5
		C49,4.2,48.1,5,48.6,4.3c-0.2,0.1-0.5,0.2-0.7,0.3c0.6-0.5-0.6,0.1-0.6-0.3c0.5-0.2,1.3-0.2,2-0.2c-0.1-0.2-0.8,0.2-0.6-0.3l0.4,0
		c-0.1,0-0.2-0.1-0.3-0.1c0.1-0.3,0.4-0.1,0.7-0.2c0.1,0.1,0.1,0.3,0,0.5c0,0,0-0.1,0.1-0.1c0.7,0.2,1.8-0.4,2.4-0.2
		c-0.1-0.1,0-0.1,0-0.2c0.4-0.1,0.9,0.2,1.4,0.1c0.3-0.2-0.3-0.5,0.6-0.6C54,3.5,53.7,3.9,54.4,3.8 M38,8c0.2-0.1,0.3-0.1,0.3-0.1
		C38.3,7.9,38.2,7.9,38,8L38,8 M36.7,8.6c0.2-0.2,0.4-0.4,0.3-0.4c0.1-0.1,0.2,0,0.2,0.1C37.1,8.4,36.9,8.5,36.7,8.6 M38.7,5.5
		c0.1,0,0.1,0.1,0.1,0.1c0,0,0,0,0,0c-0.2,0.1-0.3,0.1-0.4,0.1C38.5,5.7,38.5,5.6,38.7,5.5"/>
	<path class="st0" d="M39.3,5.7C39.3,5.7,39.3,5.7,39.3,5.7C39.3,5.7,39.3,5.8,39.3,5.7c0,0.1-0.1,0.1-0.1,0
		C39.2,5.7,39.2,5.7,39.3,5.7"/>
	<path class="st0" d="M33.1,109.7L33.1,109.7C33.1,109.7,33.1,109.7,33.1,109.7C33.1,109.7,33.1,109.7,33.1,109.7"/>
	<polygon class="st0" points="20.9,20.1 20.8,20 21,20 	"/>
	<path class="st0" d="M40.3,113.2c0,0,0.1,0,0.1,0C40.5,113.2,40.4,113.2,40.3,113.2"/>
	<path class="st0" d="M43.3,114.9l0.5,0.2C43.6,115,43.4,114.9,43.3,114.9"/>
	<path class="st0" d="M45.7,116.1c0,0.1,0,0.1,0,0.1l0,0L45.7,116.1z"/>
	<path class="st0" d="M13.2,90.2C13.2,90.2,13.1,90.1,13.2,90.2C13,89.9,13.1,90,13.2,90.2"/>
	<path class="st0" d="M21.4,99.5c-0.1-0.1-0.1-0.2-0.2-0.4C21.3,99.3,21.5,99.4,21.4,99.5"/>
	<polygon class="st0" points="6.1,78.5 6.1,78.5 6,78.4 	"/>
	<path class="st0" d="M20.7,98.8c0.2,0.1,0.3,0.2,0.4,0.4C21,99.1,20.8,98.9,20.7,98.8"/>
	<path class="st0" d="M55.8,121.4l0.1,0.1c0,0,0,0,0,0L55.8,121.4z"/>
	<path class="st0" d="M55.9,121.5l0.1,0.1C56,121.6,55.9,121.6,55.9,121.5"/>
	<path class="st0" d="M56.3,121.8l-0.2-0.2C56.1,121.7,56.3,121.7,56.3,121.8"/>
	<path class="st0" d="M52.7,119.9l0-0.1C52.7,119.8,52.7,119.8,52.7,119.9"/>
	<path class="st0" d="M51.7,119.4c0.2,0.1,0.7,0.1,0.9,0.3l0,0.1C52.6,119.6,51.9,119.6,51.7,119.4"/>
	<path class="st0" d="M47.2,118.3l0.8,0.4c-0.2,0-0.4,0.1-0.1,0.3C46.8,118.7,48.3,118.9,47.2,118.3"/>
	<path class="st0" d="M44.7,117.1c0.4,0.3-0.1,0.1-0.1,0.2C44.4,117.1,44.4,117,44.7,117.1"/>
	<path class="st0" d="M27.9,106.2l-0.1,0.2C27.5,106.2,27.8,106.4,27.9,106.2"/>
	<polygon class="st0" points="25.7,102.8 26,102.9 26,103.2 	"/>
	<polygon class="st0" points="22.8,102.8 22.9,102.9 22.4,102.5 	"/>
	<path class="st0" d="M2.3,75.9l0.3,0C2.7,76.1,2.4,76.3,2.3,75.9"/>
	<path class="st0" d="M0.2,61.3c-0.1-0.2-0.2-0.6-0.1-0.8C0.2,60.8,0.3,61.1,0.2,61.3"/>
	<polygon class="st0" points="16.4,21.1 16.1,21.2 16.5,20.9 	"/>
	<path class="st0" d="M56.2,101.9c0.1,0,0.3-0.1,0.2,0l-0.3,0.1L56.2,101.9z"/>
	<path class="st0" d="M56.9,102.3c-0.1,0.1-0.4,0.3-0.7,0.3c0.3-0.1,0.2-0.1,0.5-0.3c0-0.1-0.1-0.1-0.2-0.1c0.1,0-0.1-0.1,0.1-0.2
		c0.3,0,0.3,0.2,0.1,0.3C56.8,102.4,56.9,102.3,56.9,102.3"/>
	<path class="st0" d="M59.3,109L59.3,109C59.2,108.9,59.3,108.9,59.3,109"/>
	<path class="st0" d="M60.8,113C60.8,113,60.9,113,60.8,113C60.9,113,60.9,113,60.8,113"/>
	<path class="st0" d="M61.4,113.6C61.4,113.6,61.4,113.6,61.4,113.6C61.4,113.6,61.5,113.6,61.4,113.6"/>
	<path class="st0" d="M59.3,109l0.1,0.1C59.3,109.1,59.3,109,59.3,109"/>
	<path class="st0" d="M56.3,103.4C56.4,103.4,56.4,103.4,56.3,103.4C56.4,103.4,56.4,103.4,56.3,103.4L56.3,103.4z"/>
	<path class="st0" d="M58.9,107.1L58.9,107.1c0-0.1,0.1-0.1,0.1-0.1L58.9,107.1z"/>
	<path class="st0" d="M58.6,105.6c0,0-0.2,0.1-0.4,0.2c0.1,0,0.2-0.1,0.2-0.1C58.4,105.7,58.5,105.6,58.6,105.6"/>
	<path class="st0" d="M57.5,103.5L57.5,103.5C57.5,103.5,57.5,103.5,57.5,103.5"/>
	<path class="st0" d="M59.3,108C59.4,108,59.4,108,59.3,108C59.4,108,59.3,108,59.3,108"/>
	<path class="st0" d="M44.1,131.9C44.2,132,44.2,132,44.1,131.9C44.1,132,44.1,131.9,44.1,131.9"/>
	<polygon class="st0" points="43.2,134 43.2,134 43.3,134.1 	"/>
	<path class="st0" d="M62.2,114.8L62.2,114.8C62.3,114.7,62.3,114.7,62.2,114.8"/>
	<path class="st0" d="M66.1,127.5c-0.2-0.3-0.3,0.2-0.6-0.2C65.7,127.4,66,127.2,66.1,127.5"/>
	<path class="st0" d="M56.4,103.5C56.4,103.5,56.4,103.5,56.4,103.5C56.4,103.5,56.4,103.5,56.4,103.5"/>
	<path class="st0" d="M65.6,127.3L65.6,127.3L65.6,127.3C65.6,127.3,65.6,127.3,65.6,127.3"/>
	<path class="st0" d="M63.2,117.8c0,0-0.1,0-0.1,0C63.1,117.8,63.1,117.8,63.2,117.8"/>
	<path class="st0" d="M62,115.7L62,115.7C62,115.7,62,115.7,62,115.7"/>
	<path class="st0" d="M63.2,119C63.3,119.1,63.3,119,63.2,119C63.3,119.1,63.3,119.1,63.2,119C63.3,119.1,63.3,119,63.2,119"/>
	<path class="st0" d="M63.7,120.2C63.6,120.2,63.6,120.2,63.7,120.2L63.7,120.2L63.7,120.2z"/>
	<path class="st0" d="M47.9,130.7c0,0.1,0,0.2,0,0.3C47.9,130.7,47.7,130.7,47.9,130.7"/>
	<path class="st0" d="M56.5,103.4c-0.1,0-0.1,0-0.1,0.1c0,0,0,0,0,0C56.4,103.4,56.5,103.4,56.5,103.4"/>
	<path class="st0" d="M61.2,119.9l0.1,0.2C61.2,120,61.2,119.9,61.2,119.9"/>
	<path class="st0" d="M56.8,128.4L56.8,128.4C56.8,128.3,56.8,128.3,56.8,128.4"/>
	<path class="st0" d="M61.4,120.6c0.1,0,0.2,0,0.2,0c0,0,0,0-0.1,0L61.4,120.6z"/>
	<path class="st0" d="M47.9,130.9L47.9,130.9L47.9,130.9z"/>
	<path class="st0" d="M46.4,130.7c0,0,0.2,0.1,0.2,0.3c-0.2-0.1,0,0.1-0.1,0.4c-0.2-0.2-0.1,0.2-0.3-0.3c0.1,0.3,0,0.2,0,0.5
		c0-0.3-0.3-0.2-0.4-0.5c0.1,0.4,0.3,0.3,0.3,0.8c-0.2-0.2-0.4-0.2-0.6-0.6c0,0.1,0,0.3-0.1,0.3c0,0,0.1,0,0.1,0.1
		c-0.3-0.2-0.5,0.2-0.8-0.2c0.3,0.5-0.4,0.3-0.1,0.7c-0.1,0-0.3-0.1-0.4-0.2c0.2,0.4-0.2,0.2-0.2,0.5c-0.2-0.2-0.3,0-0.4-0.1
		c0.1,0,0.1,0.1,0.2,0.2c-0.2-0.1-0.1,0-0.1,0.3c-0.2-0.1-0.1-0.3-0.3-0.5c-0.1,0.2,0.1,0.3,0.2,0.4l-0.4-0.3c0,0.1,0,0.2,0,0.3
		c-0.1-0.1-0.3-0.2-0.3,0l0.2-0.1l0,0.2l-0.3-0.1c-0.1,0.4,0.2,0.8,0.5,1.2l0.1,0c0.1,0.1,0,0.3,0,0.3c0,0.1,0.4,0.4,0.5,0.3
		c0.3-0.2-0.2-0.5,0-0.7l0.4,0.1l-0.1-0.1c0-0.1,0.1,0,0.1,0.1c-0.1-0.2,0.2-0.2,0.3-0.3l0,0.2c0.5,0.3,0.3-0.7,0.6-0.6l0.3,0.2
		l-0.1-0.3c0.2,0.1,0.3,0.3,0.4,0.2c0.4-0.7,1.3-0.4,1.8-0.9c0,0.1,0,0.1,0,0.1c0.3-0.9,1.1,0.5,1.4-0.3l-0.1-0.1
		c0.3,0-0.1-0.1,0.1-0.3c0.1,0.3,0.4,0.2,0.6,0.3c0-0.1-0.1,0-0.2-0.1c0-0.1,0-0.3,0-0.3c0.3,0.5,0.6,0.3,1,0.4
		c0-0.2,0.1-0.5,0.1-0.9c0,0.1,0.1,0.2,0.2,0.4c0.1-0.2,0.2-0.1,0.3,0c-0.1,0-0.2,0-0.2,0l0,0c0,0,0,0,0,0c-0.1,0-0.1,0-0.1,0
		c0,0.3,0.1,0.2,0.1,0.5c0.1,0,0.3,0,0.2-0.2c0,0,0.1-0.1,0.1-0.1c0,0,0.1,0,0.1,0l0,0c0,0,0-0.1,0-0.1c0.1-0.2,0.5,0.2,0.7,0.3
		c-0.2-0.3-0.1-0.4-0.1-0.6c0,0-0.1,0.1-0.4,0.1c0,0,0-0.1,0-0.2c0.1-0.3,0.4,0.1,0.6-0.1c0,0-0.1-0.1-0.1-0.2
		c0.1-0.1,0.2,0.1,0.3,0.2c0-0.2,0.1-0.5,0.2-0.4c0.1,0.2,0.2,0.3,0.3,0.2l-0.1-0.2c0.2-0.2,0.2,0.2,0.3,0c0,0.1-0.1-0.1-0.1-0.1
		c0.2,0,0.3,0.1,0.5,0.4l-0.1-0.3c0.2,0.1,0.6,0.4,0.5,0c0.1,0.6,0.4,0.2,0.6,0.2c-0.1,0-0.1-0.1-0.1-0.2c0.4,0.3,0.6-0.1,0.9-0.2
		l0-0.4c0.2,0,0.4,0.8,0.6,0.7l-0.1-0.2c0.3,0,0.5-0.1,0.7-0.2l-0.1-0.3c0.1,0.1,0.2,0.1,0.4,0.2c0.1-0.7,0.9,0.2,1.1-0.7l0.1,0.5
		c0.1,0,0.4,0,0.3-0.4l0,0c-0.1-0.4,0.1,0,0.2-0.2c0.1,0,0.2,0.3,0.2,0.4c0.3-0.4,1-0.2,1.1-0.7c0.4,0.1,0.8,0.4,1.2,0.3l0-0.1
		c0.1-0.1,0.4-0.3,0.3-0.7c0.3,0,0.7,0.6,1,0.3l-0.1-0.1c0.1-0.1,0.3,0.1,0.3,0.1c0,0,0-0.1,0-0.2c0.1-0.2,0.2,0,0.2,0.1l-0.1-0.1
		c0.2-0.4,0.8,0.1,1.2-0.1c-0.1,0-0.1-0.2-0.1-0.3c0.1,0.2,0.4,0.2,0.7,0.2c0.3,0,0.5-0.2,0.7-0.2l-0.3-0.1c0.7,0,0-0.6,0.6-0.6
		c0,0.1,0,0.2,0,0.4c0.1-0.2,0.3-0.3,0.4-0.1c0-0.3-0.3-0.2-0.1-0.5c-0.1-0.1-0.2,0.1-0.3,0c0-0.2,0-0.4-0.2-0.5c0,0,0-0.1,0-0.2
		c0.6,0.2,0-0.3,0.6,0.1c0.1-0.7-0.6-1.4-0.4-1.8c-0.6,0-0.3-0.7-1-0.5c-0.1-0.2,0-0.4,0.3-0.6c0.1,0,0,0.1,0,0.2
		c0.2-0.1,0.1-0.4,0.1-0.5c-0.1,0.2-0.2,0.5-0.4,0.7c0-0.2,0.2-0.6,0.2-0.7l-0.4,0.1c0.2-0.2-0.3,0,0-0.3l0.1,0
		c-0.1-0.3,0.2-0.4,0.2-0.7l-0.1,0.1c-0.1-0.1,0.2-0.3-0.2-0.3l0,0.2c-0.3,0.1-0.4,0-0.6,0c0-0.2,0.4-0.2,0.4-0.3
		c-0.3,0-0.1,0-0.3,0.2c0-0.2,0-0.5,0.3-0.8c0,0-0.1,0-0.1,0c-0.1-0.2,0.2-0.5,0-0.6l0,0.1c-0.4,0,0.2-0.6-0.4-0.4
		c-0.1,0,0.1,0.2-0.3,0.2c-0.3-0.2,0.5-0.4,0.2-0.5c0,0,0,0-0.1,0.1c0-0.2-0.1-0.4-0.1-0.6c-0.6,0-0.1-0.7-0.8-0.7
		c0.2,0,0.2-0.2,0.3-0.2c0,0,0,0-0.1,0c0-0.1,0.1-0.2,0.2-0.2c-0.2,0,0.1-0.3,0-0.3c0.1,0,0.1-0.1,0-0.2c-0.1,0.2-0.3,0.2-0.4,0.3
		c-0.2-0.2,0.5-0.5,0.3-0.7l-0.3,0c0.4-0.2,0.1-0.3,0.3-0.4c-0.1,0-0.2,0-0.4,0c0.1-0.1-0.2-0.2,0-0.3l0.1,0.1
		c-0.3-0.3,0.2-0.6-0.1-0.8l-0.6,0.2c-0.3-0.1,0.2-0.4-0.2-0.4c0.2,0,0.1,0,0.3-0.2c0.1,0,0,0.2,0,0.3l0.2-0.3l0,0.4
		c0.2-0.2,0.1-0.2,0.4-0.2c0.1-0.3-0.3-0.1-0.2-0.4c-0.1,0-0.3,0.1-0.4,0.1c0.1-0.2-0.5-0.2-0.3-0.4c-0.1,0,0,0.1-0.1,0.1
		c0-0.1,0-0.2,0.1-0.3l0.1,0.1c0-0.1,0.2-0.2,0-0.3c0.1-0.1,0.3-0.3,0.4-0.2c0-0.1-0.2-0.1-0.3,0c-0.1-0.2,0.5-0.3,0.2-0.5
		c0,0,0,0.1-0.1,0.1c-0.1,0-0.1-0.1-0.1-0.1c0,0.2-0.5,0.1-0.3,0.3c-0.3,0.1-0.1-0.2-0.3-0.2c0.2-0.2,0.4-0.2,0.5-0.3
		c-0.1,0-0.1,0-0.2-0.1l0.2,0c0,0,0-0.1,0-0.2l-0.1,0.1c-0.1-0.1-0.5-0.1-0.3-0.4c-0.1,0.1-0.2,0.3-0.4,0.2c0.1-0.3-0.1,0-0.3-0.1
		c0-0.2,0.4-0.2,0.1-0.4c0,0,0.1,0,0.2,0c-0.2-0.2-0.1-0.3-0.3-0.5c0.1,0.1,0.2,0.1,0.3,0c-0.2,0.1-0.2-0.1-0.4-0.1l0.1-0.1
		c-0.1,0-0.2,0.1-0.2,0.1c0,0,0.1,0,0.1,0c-0.1,0.1-0.5,0.2-0.6,0.1c0-0.2,0.4-0.3,0.5-0.3c-0.2-0.2,0.4-0.4,0.2-0.6
		c0-0.1-0.5-0.1-0.6-0.2c0.2-0.2,0.3,0.1,0.4,0c-0.7,0,0.2-0.7-0.3-0.9l-0.3,0.2c0-0.1-0.1-0.1-0.1-0.2l0.2,0.1
		c0-0.1-0.1-0.3-0.3-0.1c0.2-0.3,0-0.3-0.1-0.4c0.1,0.2,0,0-0.1,0.2c-0.2-0.1-0.1-0.2-0.1-0.3c-0.1,0.1-0.3,0-0.3,0
		c0.2-0.2,0-0.4,0.1-0.6l-0.1,0c0-0.3-0.5-0.5-0.3-0.9v0v0c0,0,0,0,0,0l0,0c0.3,0,0.1-0.3,0.2-0.4c-0.1,0-0.2,0-0.2,0
		c0.3-0.1,0.1-0.2,0.2-0.2c-0.1-0.1-0.3,0.1-0.4-0.1c0-0.1,0.1-0.1,0.3-0.2c-0.2,0-0.3-0.1-0.4-0.1c-0.1,0.1,0,0.1,0,0.1
		c-0.1,0.1-0.1,0-0.3,0c0-0.1,0.3-0.1,0.1-0.2l-0.2,0.2c-0.1,0,0-0.1,0-0.1c0,0.1-0.3,0.1-0.4,0.2c0.1-0.3,0.6-0.2,0.8-0.3
		c-0.2-0.2,0-0.4,0-0.6l-0.3,0.1c0-0.1,0.1-0.2,0.2-0.2l0-0.1c-0.1,0.1-0.1,0.2-0.4,0.2c0-0.2-0.1-0.3,0.2-0.5l-0.1,0
		c-0.2-0.1-0.4-0.5-0.5-0.5c0.1-0.2-0.2-0.4,0.1-0.5c0.1-0.1-0.5-0.2-0.1-0.4c-0.3-0.1-0.1,0-0.3,0.1c-0.3-0.1,0.3-0.4-0.2-0.3
		c0.1-0.2,0.1,0,0.3-0.1c-0.5,0.1-0.2-0.3-0.5-0.4c0.2-0.1,0.1,0,0.3-0.1c-0.1,0-0.2,0-0.2,0l0.3-0.1l-0.8,0
		c0.3-0.3,0.5-0.1,0.6-0.4l0,0c-0.3,0,0.2-0.3-0.1-0.4c0.1,0.1-0.1,0.1-0.2,0.1l0.1-0.2c0,0,0,0-0.1,0c-0.2-0.1,0.1-0.1-0.1-0.2
		c0,0.1-0.3,0.1-0.4,0.1l0.3-0.3l-0.4,0.2c-0.1-0.2,0.5-0.6-0.1-0.6l0,0.1c-0.1,0-0.4,0-0.2-0.1c0-0.1,0.3-0.1,0.3-0.1l-0.1-0.1
		c-0.3,0.1-0.3,0.3-0.3,0.5c0.1-0.1,0.2-0.2,0.3-0.2c-0.1,0.1-0.2,0.3-0.3,0.4c0.1-0.1,0.3-0.1,0.4-0.2c0.2,0.1-0.2,0.1-0.2,0.3
		c0.1,0,0.2,0,0.3,0c-0.1,0.2-0.1,0.3,0.1,0.4c0,0,0.2-0.2,0.3-0.2c-0.1,0.3-0.4,0.4-0.5,0.7c-0.4,0.4,0.4,0.5,0.2,0.8
		c-0.1,0-0.3-0.1-0.3,0.1c0.2-0.1,0.2,0,0.3,0c-0.3,0.2,0.1,0.2-0.1,0.4c0.1,0,0.2,0,0.3,0.1c0.3-0.1,0.2,0.1,0.5-0.2
		c-0.4,0.3,0.2,0.4-0.4,0.7l-0.1,0l0.2,0.2l0,0c0.1,0.1,0,0.1,0.3,0.2c0.1-0.1,0-0.2,0.1-0.2c0.3,0-0.1,0.3-0.1,0.5
		c0.2-0.1,0-0.2,0.3-0.2c0.1,0.1-0.1,0.2-0.1,0.3l0.1,0c0.3,0.2-0.5,0.3-0.1,0.3c-0.1,0-0.1,0.1-0.2,0.1c0.1,0,0.4,0.1,0.5-0.1
		c0,0.1,0,0.2-0.2,0.3c-0.2,0-0.1-0.1-0.3,0l0,0.4c0,0,0.1-0.1,0.1-0.1c0.7,0.2-0.3,1,0.6,1.2c-0.2,0-0.2,0.1-0.3,0.2
		c0.1,0.1,0.1,0.4,0.3,0.4l0.1-0.1c0,0.4-0.2,0.7,0,0.9c-0.1,0,0.2-0.1,0.2-0.1c-0.2,0.2,0.6,0.2,0.1,0.4l-0.1,0
		c0.2,0.3,0,0.8,0,1.1c0.3,0,0-0.2,0.3-0.3c0.2,0.2,0,0.5,0.2,0.7c0-0.1,0.1-0.1,0.1-0.1c0.3,0.2-0.3,0.1-0.2,0.3
		c0.1-0.1,0.2-0.1,0.3,0l-0.2,0.1c0,0,0.2-0.1,0.3-0.1c-0.3,0.2,0,0.4-0.2,0.6c0.1,0,0.3-0.2,0.5-0.2c0.1,0.1,0,0.2,0,0.3l0,0
		c0.2,0,0.3,0.2,0.3,0.2c0.2,0.2-0.2,0.1-0.3,0.3l-0.2-0.1l0,0.3l0.1-0.2c0.2,0.1,0,0.3,0,0.5l-0.2,0l0,0.2c0.4-0.1,0.2,0.2,0.5,0
		c0.3,0.3-0.1,0.6,0,0.9c0-0.1,0.1-0.1,0.1-0.1c0.1,0.1,0,0.3-0.1,0.5c0.1-0.1,0.1-0.1,0.2-0.1c0.1,0.2-0.2,0.2-0.2,0.5
		c0.1-0.1,0.2-0.1,0.3-0.1c-0.1,0-0.2,0.1-0.2,0.2c0.6-0.4,0.4,0.1,0.9-0.2c-0.1,0.1-0.3,0.5-0.6,0.5l0-0.1
		c-0.2,0.1-0.1,0.1-0.1,0.2c0,0,0.1-0.1,0.1-0.1c-0.1,0.4,0.2,0.6,0.2,1.1c0.1-0.1,0.1-0.2,0.2-0.2c0.2,0.3-0.1,0.6-0.1,1.1
		c0.4-0.1-0.1-0.4,0.3-0.6c0,0.4,0,0.8,0,1.3c0.7-0.1-0.1,0.5,0.5,0.6c-0.2,0.1-0.3,0.2-0.2,0.4c0.2-0.1,0.2,0,0.3-0.1
		c-0.2,0.2-0.1,0.6,0.3,0.4c-0.4,0.2,0.1,0.3-0.1,0.5c0.2,0.1,0,0.4,0.2,0.5c-0.3,0-0.1,0.2-0.1,0.3c0,0,0-0.1,0.1-0.1
		c0.2,0-0.1,0.3,0.1,0.4c0.1,0,0.2-0.1,0.3,0c-0.2,0.1-0.3,0.4,0,0.5c0-0.1,0.1-0.1,0.1-0.1c-0.1,0.6,0.5,1,0.3,1.7l0.3-0.2
		c0.5,0.2-0.4,0.4-0.3,0.6c0.4,0.6,1.1,1.2,1.1,2c-0.1,0.1-0.1,0-0.3,0c0,0,0.3,0,0.2,0.1l-0.2,0c0.2-0.1,0.2,0,0.1,0.1
		c0,0-0.1,0,0.4,0.2c-0.2,0-0.1,0-0.1,0.1c0,0-0.1,0.1-0.3-0.1c0.1,0.1,0.3,0.2,0.2,0.3c-0.1-0.1-0.2-0.1-0.3-0.2l0,0
		c-0.1-0.1-0.1-0.1-0.1-0.1c0,0-0.2,0.2-0.2,0.3c-0.2,0.2-0.4,0.5-0.6,0.3l0,0c0,0.1,0,0.3-0.1,0.3c0-0.1,0-0.1,0-0.2
		c-0.4-0.1-0.5-0.1-0.8-0.1c0.2,0.1-0.1,0.2,0,0.4c-0.1-0.1,0-0.3-0.2-0.4c-0.3,0-0.4,0.3-0.6,0.4c-0.1-0.2-0.2-0.1-0.3-0.4
		c-0.3,0.1-0.5,0-0.8,0.1l0,0.1c-0.2-0.3-0.3,0.2-0.4,0.1c0,0.1,0.1,0.2,0.1,0.3l-0.2-0.1c0.1,0.1,0.2,0.4,0.1,0.5
		c-0.2-0.2,0-0.2-0.1-0.4l0,0.3c-0.1,0-0.2-0.4-0.1-0.5c-0.3,0.1-0.7,0-1,0.1l0.1,0.2c-0.2,0-0.4,0-0.5,0.2c0-0.1-0.1-0.2-0.1-0.2
		c-0.3-0.2,0.1,0.3-0.2,0.1c0.1,0.1,0.2,0.1,0.2,0.2l-0.5-0.2c0,0.2-0.1,0.6-0.4,0.5c0-0.1,0-0.2,0-0.2l-0.1-0.1l0,0.4l-0.2-0.3
		l0.1,0.3c-0.1,0-0.3-0.4-0.4-0.4c-0.3,0.3-0.2,0.4-0.4,0.7c-0.2-0.6-0.4,0.1-0.6-0.3c-0.2,0.5-0.8,0.4-1.2,0.6l0.1,0
		c-0.1,0.3-0.3-0.4-0.5-0.2l0.1,0.1c-0.2,0.4-0.7,0.2-1.1,0c0.1,0.1,0.1,0.3,0,0.3c-0.1-0.1,0-0.4-0.2-0.3c0.1,0,0.1,0.2,0,0.2
		l-0.2-0.2c-0.3,0.3-0.7,0.6-1.1,0.6c0,0.1,0,0.2,0.1,0.3c-0.3,0-0.7-0.1-1-0.1l0.1,0.3c-0.1,0-0.2-0.5-0.3-0.1c0,0.1,0.1,0,0.2,0.1
		c-0.2,0.3-0.3-0.3-0.5-0.2l0.2,0.3c-0.1,0.3-0.3-0.1-0.4-0.3c-0.4-0.3,0,0.8-0.5,0.6c-0.1-0.2-0.1-0.3-0.2-0.4
		c-0.2,0.2-0.3-0.1-0.6,0.1c0,0.6,0.1,0,0.1,0.5l0.2-0.2c-0.1,0.3,0.2,0,0.3,0.4c-0.1,0.1-0.4-0.1-0.6-0.1c0.1,0.2,0.2,0,0.2,0.3
		l-0.1-0.1c0,0.1,0.1,0.2,0.1,0.1c0,0.2-0.1,0-0.2,0.1c0-0.1-0.1-0.3-0.1-0.5c0,0,0,0.1,0,0.1c-0.3-0.3-0.5,0.1-0.7-0.2
		c0,0.1,0,0.1,0,0.2c-0.1,0-0.3-0.2-0.5-0.3c0,0.2,0.2,0.5,0,0.5C46.7,131,46.6,130.7,46.4,130.7 M51.1,130.2
		C51,130.2,51,130.2,51.1,130.2C51,130.2,51,130.2,51.1,130.2L51.1,130.2 M51.4,130.1c0,0.1-0.1,0.2-0.1,0.2c0,0-0.1-0.1-0.1-0.2
		C51.3,130.1,51.4,130.1,51.4,130.1 M51.2,132.2c0,0,0-0.1-0.1-0.1L51.2,132.2C51.2,132.1,51.2,132.1,51.2,132.2
		C51.2,132.2,51.2,132.2,51.2,132.2"/>
	<path class="st0" d="M51,131.9C51,131.9,51,131.9,51,131.9C50.9,131.8,51,131.8,51,131.9L51,131.9L51,131.9z"/>
	<path class="st0" d="M59.2,108.9L59.2,108.9C59.2,108.9,59.2,108.9,59.2,108.9C59.2,108.9,59.2,108.9,59.2,108.9"/>
	<polygon class="st0" points="56.4,128.3 56.4,128.4 56.3,128.3 	"/>
	<path class="st0" d="M57.7,107.2C57.6,107.2,57.6,107.2,57.7,107.2C57.6,107.2,57.6,107.2,57.7,107.2"/>
	<path class="st0" d="M57.4,106.4l-0.1-0.1C57.3,106.3,57.3,106.4,57.4,106.4"/>
	<path class="st0" d="M57,105.8c0,0,0.1,0,0.1,0l0,0L57,105.8z"/>
	<path class="st0" d="M60.2,116.3C60.2,116.3,60.2,116.3,60.2,116.3C60.2,116.4,60.2,116.4,60.2,116.3"/>
	<path class="st0" d="M59.7,113c0,0-0.1,0.1-0.1,0.1C59.6,113.1,59.6,113.1,59.7,113"/>
	<polygon class="st0" points="61.2,119.8 61.2,119.8 61.2,119.9 	"/>
	<path class="st0" d="M59.7,113.3c-0.1,0-0.1-0.1-0.1-0.1C59.7,113.2,59.7,113.2,59.7,113.3"/>
	<path class="st0" d="M56.2,102.8L56.2,102.8C56.2,102.8,56.2,102.8,56.2,102.8L56.2,102.8z"/>
	<path class="st0" d="M56.2,102.8L56.2,102.8C56.2,102.8,56.2,102.8,56.2,102.8"/>
	<path class="st0" d="M56.3,102.7L56.3,102.7C56.2,102.7,56.2,102.7,56.3,102.7"/>
	<path class="st0" d="M56.5,103.7L56.5,103.7C56.4,103.7,56.5,103.7,56.5,103.7"/>
	<path class="st0" d="M56.5,104c0-0.1-0.3-0.1-0.2-0.2l0.1,0C56.3,103.8,56.7,103.9,56.5,104"/>
	<path class="st0" d="M58.1,104.8l-0.1-0.2c0.1,0,0.3,0,0.3-0.1C58.6,104.7,57.9,104.5,58.1,104.8"/>
	<path class="st0" d="M58.4,105.5c0-0.1,0.2,0,0.2-0.1C58.5,105.5,58.5,105.5,58.4,105.5"/>
	<path class="st0" d="M59.9,110.4l0.2-0.1C60.2,110.4,60.1,110.3,59.9,110.4"/>
	<polygon class="st0" points="59,111.8 58.8,111.7 59,111.6 	"/>
	<polygon class="st0" points="60.9,111.7 60.9,111.7 60.9,111.8 	"/>
	<path class="st0" d="M63.8,119.9l-0.3,0.1C63.5,119.9,63.9,119.8,63.8,119.9"/>
	<path class="st0" d="M64.8,123.6c0.2,0,0.3,0.1,0.2,0.2C65,123.7,64.8,123.6,64.8,123.6"/>
	<polygon class="st0" points="57.9,130.6 58,130.6 57.9,130.6 	"/>
</g>
</svg>
