<?xml version="1.0" encoding="utf-8"?>
<!-- Generator: Adobe Illustrator 23.1.1, SVG Export Plug-In . SVG Version: 6.00 Build 0)  -->
<svg version="1.1" baseProfile="tiny" id="Layer_1" xmlns="http://www.w3.org/2000/svg" xmlns:xlink="http://www.w3.org/1999/xlink"
	 x="0px" y="0px" viewBox="0 0 33.4 85.5" xml:space="preserve">
<g>
	<g>
		<path fill="#484F57" d="M13.4,77.5c0,0.1,0.1,0.1,0.2,0l-0.1-0.2L13.4,77.5z"/>
		<path fill="#484F57" d="M14.1,77c0-0.2-0.1-0.4-0.3-0.4c0.1,0.2,0,0.2,0.1,0.5c0,0.1-0.2,0.2-0.2,0.1c0,0.1-0.1,0.1-0.1,0.3
			c0.2-0.1,0.3-0.2,0.3-0.5C14.1,76.9,14.1,76.9,14.1,77z"/>
		<path fill="#484F57" d="M20.1,65.9L20.1,65.9C20,66,20,66,20.1,65.9z"/>
		<path fill="#484F57" d="M23.3,58.9C23.2,58.9,23.3,59,23.3,58.9C23.3,58.9,23.3,58.9,23.3,58.9z"/>
		<path fill="#484F57" d="M24,57.7C24,57.8,24,57.8,24,57.7C24,57.8,24,57.8,24,57.7z"/>
		<path fill="#484F57" d="M20.1,65.9l0.1-0.2C20.2,65.7,20.1,65.9,20.1,65.9z"/>
		<path fill="#484F57" d="M14.5,75.2c0,0,0,0.1,0,0.1C14.5,75.3,14.5,75.3,14.5,75.2L14.5,75.2z"/>
		<path fill="#484F57" d="M18.8,69.1L18.8,69.1c0,0.1,0,0.1,0,0.1L18.8,69.1z"/>
		<path fill="#484F57" d="M17.7,71.5c0,0-0.1-0.2-0.2-0.2c0.1,0.1,0.1,0.1,0.1,0.2C17.6,71.5,17.6,71.5,17.7,71.5z"/>
		<path fill="#484F57" d="M15.5,75L15.5,75C15.5,75.1,15.5,75.1,15.5,75z"/>
		<path fill="#484F57" d="M19.6,67.4C19.6,67.4,19.7,67.4,19.6,67.4C19.7,67.4,19.6,67.4,19.6,67.4z"/>
		<path fill="#484F57" d="M6.1,5.4C6.1,5.4,6.1,5.3,6.1,5.4C6.1,5.3,6.1,5.4,6.1,5.4z"/>
		<path fill="#484F57" d="M4,3L4,3c0.1,0,0.1,0,0.1-0.1L4,3z"/>
		<path fill="#484F57" d="M25.1,55.6L25.1,55.6C25.1,55.6,25.1,55.6,25.1,55.6z"/>
		<path fill="#484F57" d="M29.4,33.6c-0.1,0.3-0.2-0.4-0.4,0C29.1,33.6,29.4,33.9,29.4,33.6z"/>
		<path fill="#484F57" d="M14.6,75.2C14.6,75.1,14.6,75.1,14.6,75.2C14.6,75.1,14.6,75.1,14.6,75.2z"/>
		<path fill="#484F57" d="M29,33.6L29,33.6L29,33.6C29,33.6,29,33.6,29,33.6z"/>
		<path fill="#484F57" d="M26.9,50.2C26.8,50.2,26.8,50.3,26.9,50.2C26.8,50.3,26.8,50.3,26.9,50.2z"/>
		<path fill="#484F57" d="M25.3,54.1L25.3,54.1C25.3,54,25.3,54.1,25.3,54.1z"/>
		<path fill="#484F57" d="M27.3,48.1c0,0,0.1-0.1,0.1-0.1c0,0,0,0,0,0C27.3,48,27.3,48,27.3,48.1z"/>
		<path fill="#484F57" d="M27.9,45.9C27.9,45.9,27.9,45.9,27.9,45.9c0,0.1-0.1,0.1-0.1,0.1L27.9,45.9z"/>
		<path fill="#484F57" d="M11.8,9.1c0-0.1,0-0.1,0-0.2C11.7,9,11.5,8.8,11.8,9.1z"/>
		<path fill="#484F57" d="M14.6,75.2C14.6,75.2,14.6,75.2,14.6,75.2L14.6,75.2C14.6,75.2,14.6,75.3,14.6,75.2z"/>
		<path fill="#484F57" d="M25.9,47.6l0.1-0.3C26,47.3,26,47.5,25.9,47.6z"/>
		<path fill="#484F57" d="M23.1,20L23.1,20C23.1,20,23.1,20,23.1,20z"/>
		<path fill="#484F57" d="M26.3,46.2c0.1,0,0.1-0.1,0.2-0.2c0,0,0,0,0-0.1L26.3,46.2z"/>
		<path fill="#484F57" d="M11.8,8.9L11.8,8.9L11.8,8.9z"/>
		<path fill="#484F57" d="M9.6,7.9C9.9,8.1,9.9,7.8,10,7.7c0.4,0.2,0.1,0.3,0.1,0.4c0.2,0.1,0.5,0,0.7,0.1c0,0,0,0.1-0.1,0.1
			c0.3,0,0.6,0.4,1,0.4c0,0,0,0.1,0,0.1c0-0.1,0.1-0.2,0.2-0.3c0.1,0.1,0.3,0,0.3,0.2c-0.1-0.1-0.1,0-0.2,0l0.2,0
			c0,0.3-0.2-0.1-0.3,0.1c0.3,0.1,0.7,0.2,0.9,0.4c-0.1,0.2-0.5-0.3-0.4,0.1L12.1,9c0,0.4-0.2-0.1-0.2,0.3c0.4,0.3,0.5,0.2,0.8,0.6
			c0.2,0,0.1-0.2,0.2-0.2c0.7,0.2,0.1,0.8,0.7,0.8c0.2,0,0.4-0.2,0.6,0.1L14,10.8c0.3,0.3,0.4-0.1,0.7,0.3c-0.1,0-0.3-0.2-0.3-0.1
			c0.1,0.3,0.3,0,0.5,0.2l-0.1,0.2c0.4,0.3,0.9,0.5,1.4,0.8c-0.1,0-0.2,0-0.1,0.2c0.6,0.4,1.1,1,1.5,1.5l0.3,0c0,0,0,0.1-0.1,0.1
			c0.1,0.2,0.1-0.1,0.2,0c0.1,0.1,0.1,0.2,0,0.2c0.4,0.2,1.2,0.7,1.4,1.1l-0.1,0c0.2,0.3,0.6,0,0.7,0.4l-0.1,0
			c0.5,0.7,1.2,1.2,1.4,1.9c0.3-0.1,0.4,0.7,0.7,0.5c0.1,0.5,0,0.4,0.3,1c0.1,0.1,0.3,0.1,0.5,0.2l-0.2,0.1l0.3,0.1l-0.1,0.3L23,20
			c0-0.1,0-0.2,0-0.2c0.3,0.2,0.3,0.7,0.2,0.8l0.5,0.5c-0.1,0-0.2-0.1-0.3-0.1c0.4,0.2-0.1,0.2,0.2,0.4c0-0.1,0.1,0,0.2-0.1
			c0,0.2,0.2,0.6,0.4,0.8l-0.2,0c0.3,0.5,0.6,1,0.9,1.5c0-0.2,0.2-0.3,0.3-0.1l-0.2,0.2c0.2,0,0-0.2,0.2-0.1
			c0.1,0.2-0.1,0.2-0.3,0.2l0.2,0.2c-0.1,0-0.1,0-0.2,0c0.2,0,0,0.5,0.3,0.6l-0.1,0c0.3,0.5,0.4,0.8,0.6,1.3
			c0.2-0.1,0.2,0.1,0.4,0.2c0.1,0.4,0.1,0.8,0.3,1.2c0.2,0.3,0.2,0,0.3,0.1c-0.2,0.1,0,0.5-0.2,0.3c0.2,0.5,0.2,0.6,0.5,1.3
			c0-0.1,0.1-0.2,0.1-0.1c0.1,0.1,0,0.3-0.1,0.3l0,0c0.5,0.7-0.1,1.8,0.3,2.3l0,0l0.3,0.6c0,0.3-0.2-0.2-0.2,0.1
			c0.4,0.6,0.1,1.1,0.3,1.6c-0.5,0.5,0.2,1.5-0.2,2.1l0.1,0c0.1,0.1-0.1,0.2-0.1,0.3c0.1,0,0.1-0.2,0.2-0.1c0,0.6,0,1.3-0.1,2
			c0,0.3-0.1,0.7-0.2,1c-0.1,0.3-0.2,0.6-0.2,1c-0.1,0.5,0.6,0.3,0.2,0.9l-0.2-0.2c0.2,1-0.3,1.9-0.3,2.9c0-0.1-0.1-0.1-0.1-0.2
			c-0.2,0.2-0.2,0.7,0,0.8c-0.1,0.1-0.1,0-0.2,0.1c-0.1,0.2,0.1,0.5-0.1,0.6c0,0,0-0.1,0-0.1c0,0.1-0.2,0.6,0,0.5
			c-0.2,0.3-0.1,0.7-0.3,0.9c0.1,0.2-0.3,0.6,0,0.7c-0.3-0.1-0.4,0.5-0.3,0.8c-0.1-0.1-0.1,0.2-0.2,0c-0.1,0.2-0.1,0.5,0.1,0.5
			c-0.5,0.4,0,1-0.5,1.1c-0.1,0.8-0.2,1.5-0.4,2.2c-0.3-0.1,0.2-0.7-0.1-0.8c-0.1,0.7,0,1.1-0.3,1.7c-0.1,0.1-0.1-0.1-0.1-0.2
			c-0.1,0.7-0.4,1.2-0.5,1.8c0,0,0-0.1,0-0.1c0,0.1-0.1,0.2,0,0.3l0-0.1c0.2-0.1,0.2,0.6,0.3,0.6c-0.3-0.3-0.3,0.5-0.6,0
			c0,0.1,0,0.2,0.1,0.2c-0.1,0.1-0.1,0.1-0.2,0c-0.1,0.4,0.1,0.3,0,0.7c-0.1,0-0.1-0.1-0.1-0.2c0.1,0.2,0.1,0.4-0.1,0.7
			c0,0-0.1,0-0.1-0.1c-0.2,0.5,0,1-0.4,1.5c-0.2-0.3-0.2,0.2-0.4,0.1l-0.1,0.3l0.2-0.1c-0.1,0.3,0,0.6-0.2,0.8l0-0.2l-0.2,0.5
			l0.2-0.2c0,0.3,0.3,0.1,0.1,0.4c0-0.1-0.1,0.3-0.3,0.3l0,0c0,0.2,0,0.3-0.1,0.5c-0.1,0-0.2-0.1-0.3-0.1c0.1,0.2-0.2,0.6-0.1,0.9
			c0-0.1-0.1-0.1-0.2-0.1l0.1,0.2c-0.1,0.1-0.1,0.1-0.2,0c-0.2,0.4,0.3,0,0,0.4c0,0,0,0,0-0.1c-0.2,0.4-0.3,0.9-0.5,1.2
			c-0.3,0,0.1-0.4-0.2-0.3c-0.2,0.6-0.2,1.3-0.5,1.8l0.1-0.1c0.3,0.2-0.3,0.3-0.3,0.7c0-0.1-0.1-0.2-0.1-0.1
			c-0.2,0.4-0.3,0.8-0.4,1.4l0-0.1c-0.2,0.2-0.3,0.6-0.5,0.8c0,0.1,0,0.2,0.1,0.2c-0.8,0.5-0.4,1.5-1.1,2c0-0.1,0-0.2,0-0.2L18,68.8
			c0.2,0,0.1,0,0.3-0.1c0,0.1,0,0.3,0,0.4c0-0.3-0.2-0.1-0.3,0c0.1,0,0.1,0.1,0.1,0.1c-0.4,0.2,0.3,0.2-0.1,0.5l-0.1-0.1
			c0,0.2,0,0.3-0.1,0.5c-0.2,0,0-0.2-0.1-0.3c-0.1,0.2,0.1,0.6-0.2,0.7c0-0.1,0.1-0.3,0.1-0.4c-0.3,0.1-0.3,0.2-0.4,0.3l0,0
			l-0.3,0.3l0.1-0.1c0.3,0.5-0.2,0.6-0.1,1.1c-0.1-0.5-0.1-0.1-0.3-0.3c-0.1,0.1-0.2,0.2-0.3,0.1c0.1,0.2-0.3,0.2-0.2,0.6
			c-0.1,0-0.1,0.2-0.2,0.1c-0.1,0.3,0.1,0,0.2,0.1c0,0.5-0.7,0.7-0.7,1.3c-0.1,0.5,0,0.7-0.1,1.1c-0.2,0.1-0.1-0.2-0.1-0.2
			C15,74.8,15,75,14.9,75.2c0-0.1-0.1,0-0.2,0c-0.1,0.2,0.1,0.2-0.1,0.4c0-0.1-0.1-0.2-0.1-0.3c-0.1,0.2-0.1,0.5-0.1,0.7
			c-0.1,0-0.1-0.2-0.1-0.3c-0.1,0.2-0.2,0.6-0.1,0.8l0.1-0.1c0,0.1-0.2,0-0.2-0.1c0-0.3,0.2-0.2,0.3-0.2l0,0.2
			c0.4,0,0.3-0.6,0.4-0.9l0.2,0.3l0-0.4c0.1,0,0.3,0,0.2,0.2c0.2-0.1,0-0.2,0.2-0.3c0,0,0,0,0,0l0-0.2c0,0.1,0.2,0.1,0.1,0.2
			c0.3-0.3,0.1-0.7,0.4-0.7l0,0c0.2-0.5-0.2-0.1-0.2-0.6l0.6,0l-0.2-0.1c0,0,0.1-0.1,0.2-0.1c0-0.3-0.1,0-0.2-0.2
			c0.3-0.2,0.3-0.7,0.6-0.6c-0.1-0.2-0.2,0.2-0.2-0.1c0.3,0.1,0.1-0.3,0.4-0.5c0.1,0.2-0.1,0.3,0.2,0.2c-0.2-0.3,0.3-0.4,0.3-0.6
			c-0.2-0.1,0.1-0.5,0.2-0.8c0.1,0.1,0.4-0.6,0.6-0.8l0,0c-0.2-0.2,0-0.5,0.1-0.7c0.1,0.1,0.2,0.1,0.2,0.3l0.1-0.2
			c0-0.1-0.1-0.2,0-0.3l0.1,0.1c0.1-0.3,0.1-0.7,0.4-1c-0.1-0.1-0.6,0.1-0.5-0.3c0.1,0,0.2,0.1,0.2,0.2c0,0,0-0.2,0.1-0.2l0.1,0.2
			c0.1-0.1-0.1-0.1,0-0.3c0.1,0.1,0.1-0.1,0.2,0c0,0-0.1,0.1-0.1,0.2c0.1-0.1,0.3-0.3,0.4-0.3c-0.1,0-0.2-0.1-0.1-0.2
			c0.1-0.3,0.2,0,0.3-0.2c0-0.1,0.1-0.3-0.1-0.3c0-0.1,0.1-0.1,0.2-0.1c0-0.2,0.3-0.7,0-0.6l0,0c0,0,0,0,0,0l0,0l0,0
			c0.1-0.6,0.6-1,0.7-1.5l0.1,0c0.1-0.3,0.2-0.7,0.2-0.9c0-0.1,0.2-0.2,0.3-0.1c0.1-0.2,0-0.3,0.2-0.6c0,0.3,0.1,0,0,0.3
			c0.2-0.3,0.3-0.3,0.3-0.7c0.1,0.2,0.3-0.1,0.3-0.3l-0.2,0.2c0-0.2,0.1-0.3,0.2-0.4l0.2,0.2c0.5-0.5,0-1.3,0.6-1.6
			c-0.1-0.2-0.2,0.3-0.3,0.1c0.1-0.3,0.6-0.4,0.6-0.5c0.3-0.3-0.1-0.5,0.1-0.8c-0.1,0-0.3,0-0.3-0.3c0.1-0.3,0.4-0.2,0.4,0
			c0,0.1-0.1,0.1-0.1,0.1c0,0.1,0,0.2,0.1,0.2l-0.1-0.1c0.1-0.1,0.3-0.5,0.4-0.4c0-0.2-0.1-0.1-0.2,0c0.3-0.3,0.2-0.6,0.4-0.9
			c-0.1,0-0.2,0.1-0.1,0c0.3-0.5,0-0.3,0.1-0.7c0.2-0.2,0.2,0.2,0.3-0.2c0.2-0.2,0.2,0,0.2,0.1c0-0.4,0.3-0.6,0.4-0.8l0,0.2
			c0-0.1,0-0.2,0.1-0.3l-0.2,0c0.1-0.1,0.1-0.2,0.2-0.2c-0.1-0.1-0.3,0-0.3-0.3c0.1-0.1,0.1-0.5,0.3-0.4c-0.2,0.4,0.2,0,0.1,0.4
			c0-0.1,0-0.2,0.1-0.3c0,0,0,0,0,0.1c0.3-0.4-0.1-0.3,0-0.7c0.1,0.1,0.2,0,0.2-0.1c-0.1,0.2-0.2,0-0.2-0.2c0.2-0.2,0.1-0.3,0.1-0.5
			l-0.1,0.2c-0.1-0.1,0-0.2,0-0.4c0.1,0,0,0.2,0.1,0.1c-0.1-0.3,0.4-0.4,0.4-0.8c0.1-0.1,0.2,0.1,0.3,0c0-0.4,0.3-0.3,0.3-0.7
			C26,52.5,26,52.5,26,52.2l-0.1,0.6l-0.1-0.5c-0.1,0.2,0,0.4-0.1,0.5c-0.1-0.2,0-0.2-0.2-0.2c0.3-0.2,0-0.5,0.3-0.8l0.4,0.1
			c0.3-0.4,0.1-0.8,0.4-1.3l-0.1,0.2c-0.1-0.1,0.1-0.4,0.1-0.6c0.1,0.1,0.2,0,0.3-0.1c-0.1,0,0.1-0.4-0.1-0.5l0.2-0.2
			c0.2-0.4-0.2-0.6,0-1c0.1,0.2,0.2,0,0.3,0.3c0-0.1,0.1-0.3,0-0.3c0.1-0.1,0-0.5,0.1-0.6c0-0.1-0.2-0.1-0.1-0.3c0,0,0.1,0,0.1,0
			c-0.1,0,0-0.3-0.2-0.2c0.5-0.3,0.3-1.3,0.8-1.6c0-0.3,0.1-0.7,0.2-1c0,0,0.1,0,0,0.1c0.2-0.4-0.3-0.3-0.1-0.8
			c0.3-0.2,0,0.3,0.2,0.1c0.4,0,0.1-0.6,0.4-0.8l0,0.1c0.2-0.2,0-0.6,0.1-1c0,0,0,0,0.1,0c-0.2-0.3-0.1-0.8-0.1-1.2
			c0.2,0.1,0.1,0.2,0.2,0.1c0-0.2-0.3,0-0.3-0.3c0.1-0.1,0.2-0.3,0.4-0.3l0,0.3c0.3-0.1,0-0.4,0.1-0.6l0.1,0c0-0.5-0.2-0.5-0.1-1.1
			l-0.1,0c-0.2-0.3,0.2-0.2,0-0.5l0.3-0.1c0-0.2-0.2-0.7-0.2-1c0.2,0.2,0.3,0.6,0.3,0.9c0-0.2,0-0.6-0.1-0.8c0,0.1,0.1,0.2,0,0.3
			c-0.2-0.2-0.3-0.6-0.3-0.9c0.5,0.1,0.2-1,0.6-1.3c-0.1-0.7,0.1-1.3,0-2.1c-0.4,0.3,0-0.2-0.4-0.2c0-0.2,0-0.3,0-0.3l0.2-0.6
			c0.1-0.1,0.1,0.2,0.2,0.1c0-0.4,0.2-0.2,0.2-0.5c-0.1,0.1-0.2-0.1-0.2-0.4l-0.2,0.3c-0.2-0.5,0.3-0.5,0-1.1l0.2,0.2
			c-0.1-0.3-0.2-1.1-0.5-1.3c0-0.1,0.1-0.1,0.2,0c0-0.4-0.2-0.7-0.3-1.1c-0.2-0.3-0.3-0.7-0.3-1l0.1,0c-0.1-0.1-0.2-0.2-0.2-0.4
			c0,0,0.1,0,0.1,0c-0.1-0.1-0.3-0.3-0.2-0.5l0.1,0.1c-0.1-0.7-0.5-0.9-0.8-1.4c0.3-0.1,0.2-0.6,0.1-0.9l0,0
			c-0.3-0.8-0.7-1.2-1.1-1.8c0.1-0.5-0.6-1.5-0.8-2.2c0,0.1-0.2,0.1-0.3,0c0-0.2-0.4-0.3-0.2-0.4l0,0.1c0.2-0.2-0.1-0.5-0.2-0.7
			l-0.3,0.1c0-0.4-0.3-0.8-0.5-1.2c-0.3-0.3-0.6-0.6-0.5-0.9c-0.2-0.1-0.3-0.3-0.5-0.3l0.2-0.1c-0.3-0.4-0.4-0.6-0.8-1.1l0.2,0
			c-0.2-0.3-0.7,0-0.9-0.2l0.2-0.2c-0.4-0.4-0.6-1-1.2-1.3c0,0,0.1-0.1,0.2,0c-0.2-0.2-0.6-0.9-0.8-0.6c0.2-0.2-0.4-0.4-0.7-0.6
			l0.2-0.1c-0.4,0-0.4,0-0.7-0.2c0-0.1,0-0.2,0.1,0c-0.1-0.3-0.3,0-0.5-0.4l0.2,0c-0.2-0.2-0.2-0.2-0.4-0.2
			c-0.2-0.1-0.4-0.4-0.3-0.6c-0.1,0-0.3,0-0.4-0.1c0-0.1,0.1,0,0.1,0c-0.3-0.4-0.7-0.3-0.8-0.7c0-0.1,0-0.1,0-0.1
			c0.3,0.3,0.5,0.5,0.5,0.5c0.1-0.1-0.1-0.4,0.2-0.4c-0.3-0.1-0.8-0.2-1-0.4c0,0,0,0,0-0.1l0,0c0-0.1-0.1-0.1-0.2-0.1
			c-0.1-0.1-0.1-0.1-0.2-0.2c0.1-0.1-0.2-0.3-0.3-0.4c-0.1,0.2-0.2,0-0.2,0.2c0,0,0,0,0.1,0.1c0,0,0,0,0.1,0l0,0
			c0.1,0.1,0.2,0.2,0.3,0.3c-0.2,0-0.3,0-0.4-0.2c-0.1,0-0.3,0.1-0.4,0.1c0-0.3-0.2-0.7-0.2-0.9c-0.5-0.2-1-0.7-1.4-0.6
			c-0.1-0.1-0.1-0.2-0.1-0.3c0.1,0,0.2,0.1,0.2,0.1c-0.3-0.1-0.7-0.5-0.9-0.3c-0.2-0.3,0.3-0.1-0.1-0.3l0.1,0
			c-0.5-0.9-1.6-0.4-2.2-1.4c0,0.1,0.1,0.1,0.1,0.1c-0.8-0.9-2.1-1.2-2.9-2.1C8.2,5,8.1,5.1,7.8,5.1l0-0.2l-0.4,0C7,4.8,7,4,6.3,4
			l0,0.2C6.1,4,5.6,3.8,5.8,3.7c0,0-0.1,0.1-0.2,0l0-0.1L5.1,3.5C4.7,3.2,5.3,3.1,4.8,2.8c-0.2-0.1-0.7-0.1-0.7,0
			C4.2,2.9,4.3,3,4.3,3.1L4,3C3.9,3.3,3.6,3.5,3.9,3.9l0.4,0l0,0.2L4.1,4c0.1,0.2,0.2,0.2,0.4,0.2c0,0.1,0,0.2,0,0.2l0.5-0.1
			c0,0.1-0.3,0.1-0.1,0.3c0.2,0,0-0.3,0.3-0.2c0.1,0.2,0,0.3,0.2,0.3c0,0.1-0.1,0.1-0.2,0.1c0.2,0,0.4,0.2,0.6,0.1
			c0.1,0.2,0.5,0.3,0.4,0.5c0.1,0,0.4,0,0.5,0C6.2,5.5,7.2,5.7,6.9,6c0.4-0.1,0.7,0.3,1.2,0.4c0,0-0.1,0-0.1,0
			c0.2,0.1,0.2,0.3,0.3,0.4C8.4,6.6,8.7,6.7,9,6.7C9.1,7,8.7,6.9,8.6,7.1C8.7,6.9,9.1,7.2,9.1,7c0.1,0.2,0.1,0.2,0.1,0.4
			c0.2-0.2,0.2,0.1,0.4,0c0.2,0.3-0.1,0.3,0.2,0.4C10,7.9,9.6,7.9,9.6,7.9z M16.2,12.2L16.2,12.2c-0.1,0-0.1-0.1-0.1-0.1
			C16.1,12.1,16.1,12.1,16.2,12.2z M16.7,12.6c-0.1-0.1-0.1-0.1-0.2-0.2c0-0.1,0.1-0.1,0.1,0C16.6,12.4,16.7,12.5,16.7,12.6z
			 M16.5,10.7c0.1,0.1,0.1,0.1,0.1,0.1C16.5,10.8,16.5,10.8,16.5,10.7L16.5,10.7C16.4,10.8,16.5,10.7,16.5,10.7z"/>
		<path fill="#484F57" d="M16.2,10.8C16.2,10.8,16.2,10.8,16.2,10.8C16.2,10.8,16.2,10.8,16.2,10.8L16.2,10.8L16.2,10.8z"/>
		<path fill="#484F57" d="M20,66L20,66C20,66,20,66,20,66C20,66,20,66,20,66z"/>
		<polygon fill="#484F57" points="22.6,19.5 22.6,19.5 22.6,19.5 		"/>
		<path fill="#484F57" d="M17.9,69.1C17.8,69.1,17.8,69.1,17.9,69.1C17.8,69.1,17.8,69.1,17.9,69.1z"/>
		<path fill="#484F57" d="M17.1,70.5L17,70.6C17.1,70.6,17.1,70.5,17.1,70.5z"/>
		<path fill="#484F57" d="M16.5,71.5C16.5,71.6,16.6,71.6,16.5,71.5L16.5,71.5L16.5,71.5z"/>
		<path fill="#484F57" d="M24.1,53.7C24.1,53.7,24.1,53.7,24.1,53.7C24.1,53.6,24.1,53.7,24.1,53.7z"/>
		<path fill="#484F57" d="M22.4,59.2c0-0.1,0-0.1,0-0.2C22.3,59.1,22.3,59.2,22.4,59.2z"/>
		<polygon fill="#484F57" points="25.9,47.6 25.9,47.6 25.9,47.6 		"/>
		<path fill="#484F57" d="M22.4,58.8c-0.1,0.1-0.1,0.2-0.1,0.2C22.4,59,22.4,58.9,22.4,58.8z"/>
		<path fill="#484F57" d="M14,76.1L14,76.1C14,76.2,14,76.2,14,76.1L14,76.1z"/>
		<path fill="#484F57" d="M14,76.2L14,76.2C14,76.2,14,76.2,14,76.2z"/>
		<path fill="#484F57" d="M13.9,76.4l0-0.1C13.9,76.3,13.9,76.4,13.9,76.4z"/>
		<path fill="#484F57" d="M14.8,74.8L14.8,74.8C14.8,74.7,14.8,74.8,14.8,74.8z"/>
		<path fill="#484F57" d="M15,74.3c-0.1,0.1-0.3,0.2-0.3,0.4l0,0C14.7,74.6,15.1,74.5,15,74.3z"/>
		<path fill="#484F57" d="M16.7,72.9l-0.2,0.3c0.1,0,0.2-0.1,0.2,0.1C17.1,73,16.5,73.4,16.7,72.9z"/>
		<path fill="#484F57" d="M17.4,71.8c-0.1,0.2,0.1,0,0.1,0.1C17.5,71.7,17.5,71.7,17.4,71.8z"/>
		<path fill="#484F57" d="M21.3,63.4l0.1,0.1C21.5,63.4,21.4,63.5,21.3,63.4z"/>
		<polygon fill="#484F57" points="21.2,61.5 21.1,61.6 21.2,61.7 		"/>
		<polygon fill="#484F57" points="22.7,61 22.7,61.1 22.8,60.8 		"/>
		<path fill="#484F57" d="M28,46.3l-0.2,0C27.8,46.5,28,46.5,28,46.3z"/>
		<path fill="#484F57" d="M29,39.7c0.1-0.1,0.2-0.2,0.1-0.4C29.1,39.4,29,39.6,29,39.7z"/>
		<polygon fill="#484F57" points="25,20 25.1,20.1 24.9,19.9 		"/>
	</g>
	<g>
		<path fill="#484F57" d="M8.7,64.2c-0.1,0-0.2,0-0.1,0.1L8.7,64.2L8.7,64.2z"/>
		<path fill="#484F57" d="M8.4,64.6c0.1,0,0.3,0,0.5,0c-0.2,0-0.1,0-0.4,0c0,0,0-0.1,0.1-0.1c-0.1,0,0-0.1-0.1-0.1
			c-0.1,0.1-0.1,0.2,0,0.2C8.5,64.6,8.4,64.6,8.4,64.6z"/>
		<path fill="#484F57" d="M8.9,69.2L8.9,69.2C8.9,69.2,8.9,69.2,8.9,69.2z"/>
		<path fill="#484F57" d="M9.1,72.1C9.1,72.1,9.1,72.1,9.1,72.1C9.1,72.1,9.1,72.1,9.1,72.1z"/>
		<path fill="#484F57" d="M8.9,72.6C8.9,72.6,8.9,72.6,8.9,72.6C8.9,72.6,8.9,72.6,8.9,72.6z"/>
		<path fill="#484F57" d="M8.9,69.2L8.9,69.2C8.9,69.3,8.9,69.3,8.9,69.2z"/>
		<path fill="#484F57" d="M9,65.1C9,65.1,9,65.1,9,65.1C9,65.1,9,65.1,9,65.1L9,65.1z"/>
		<path fill="#484F57" d="M8.5,68L8.5,68C8.5,68,8.5,68,8.5,68L8.5,68z"/>
		<path fill="#484F57" d="M8.3,67.1c0,0,0.2,0,0.3,0c-0.1,0-0.1,0-0.1,0C8.4,67,8.4,67.1,8.3,67.1z"/>
		<path fill="#484F57" d="M8.3,65.5L8.3,65.5C8.3,65.5,8.3,65.5,8.3,65.5z"/>
		<path fill="#484F57" d="M8.6,68.7C8.5,68.7,8.5,68.7,8.6,68.7C8.5,68.7,8.6,68.7,8.6,68.7z"/>
		<path fill="#484F57" d="M24.4,78.5C24.4,78.5,24.4,78.5,24.4,78.5C24.4,78.5,24.4,78.5,24.4,78.5z"/>
		<polygon fill="#484F57" points="25.6,79.4 25.5,79.4 25.5,79.5 		"/>
		<path fill="#484F57" d="M8.8,73.5L8.8,73.5C8.8,73.5,8.8,73.5,8.8,73.5z"/>
		<path fill="#484F57" d="M10.1,82.2c0-0.2,0.3,0,0.3-0.3C10.4,82,10.1,82,10.1,82.2z"/>
		<path fill="#484F57" d="M9,65.2C9,65.2,9,65.2,9,65.2C9,65.2,9,65.2,9,65.2z"/>
		<path fill="#484F57" d="M10.4,81.9L10.4,81.9L10.4,81.9C10.4,81.9,10.4,81.9,10.4,81.9z"/>
		<path fill="#484F57" d="M9.1,75.6C9.1,75.5,9.1,75.5,9.1,75.6C9.1,75.5,9.1,75.5,9.1,75.6z"/>
		<path fill="#484F57" d="M9.2,74L9.2,74C9.2,74,9.2,74,9.2,74z"/>
		<path fill="#484F57" d="M9.4,76.3C9.4,76.3,9.4,76.4,9.4,76.3C9.4,76.4,9.4,76.4,9.4,76.3C9.4,76.4,9.4,76.4,9.4,76.3z"/>
		<path fill="#484F57" d="M9.5,77.2C9.5,77.1,9.5,77.1,9.5,77.2L9.5,77.2L9.5,77.2z"/>
		<path fill="#484F57" d="M21.8,78.8c0,0,0,0.1,0.1,0.2C21.8,78.9,22,78.8,21.8,78.8z"/>
		<path fill="#484F57" d="M8.9,65.1C9,65.1,9,65.1,8.9,65.1L8.9,65.1C9,65.1,8.9,65.1,8.9,65.1z"/>
		<path fill="#484F57" d="M10.9,76.2l0,0.1C10.9,76.3,10.9,76.3,10.9,76.2z"/>
		<path fill="#484F57" d="M15.9,80L15.9,80C15.9,80,15.9,80,15.9,80z"/>
		<path fill="#484F57" d="M10.9,76.7c-0.1,0-0.1,0.1-0.1,0.1C10.8,76.8,10.8,76.8,10.9,76.7L10.9,76.7z"/>
		<path fill="#484F57" d="M21.9,79L21.9,79L21.9,79z"/>
		<path fill="#484F57" d="M22.7,78.4c-0.1,0,0,0.2,0,0.4c-0.1,0.1-0.1-0.2-0.2-0.3c-0.1,0.1-0.1,0.3-0.2,0.3c0,0,0-0.1,0-0.1
			c-0.1,0.2-0.3,0-0.4,0.3c0,0,0,0,0-0.1c0,0.1,0.1,0.2,0.1,0.3c-0.1,0-0.1,0.2-0.1,0c0,0,0-0.1,0-0.1l0,0.1c-0.1-0.2,0.1-0.1,0-0.3
			c-0.1,0.1-0.2,0.3-0.3,0.2c-0.1-0.2,0.2-0.1,0-0.3l0.1,0.1c-0.2-0.3,0.1,0-0.1-0.3c-0.2,0-0.2,0.1-0.4,0.1c0,0.1,0,0.2,0,0.3
			c-0.2,0.3-0.3-0.5-0.4-0.2c0,0.2,0,0.4-0.2,0.3l0-0.3c-0.2,0,0,0.4-0.2,0.2c0-0.1,0.1-0.1,0.1-0.1c-0.2-0.2-0.1,0.2-0.1,0.2
			L20.4,79c-0.2,0.1-0.4,0.3-0.6,0.3c0-0.1,0-0.1,0-0.2c-0.2,0.2-0.6,0.1-0.8,0l-0.1,0.2c0,0-0.1-0.1,0-0.1c-0.1-0.1,0,0.1,0,0.2
			c-0.1,0-0.1-0.1-0.1-0.2c-0.1,0.2-0.4,0.4-0.6,0.3l0-0.1c-0.2,0-0.1,0.4-0.2,0.3l0,0c-0.3,0-0.6,0.2-0.9,0c0,0.3-0.3-0.1-0.3,0.3
			c-0.2-0.1-0.2-0.2-0.4-0.3c-0.1,0,0,0.3-0.1,0.3l0-0.2l-0.1,0.2L16,79.9L15.9,80c0,0,0.1,0.1,0.1,0.1c-0.1,0.1-0.3-0.1-0.3-0.2
			l-0.2,0.2c0-0.1,0-0.1,0.1-0.2c-0.1,0.2-0.1-0.2-0.2,0c0,0,0,0.1,0,0.2c-0.1-0.1-0.2-0.1-0.3,0l0-0.1c-0.2,0-0.4,0.2-0.6,0.2
			c0.1,0,0.1,0.3,0.1,0.3l-0.1-0.2c0,0.1,0.1,0.1,0,0.2c-0.1,0-0.1-0.2-0.1-0.3l-0.1,0.1c0-0.1,0-0.1,0-0.2c0,0.1-0.2-0.2-0.2,0.1
			l0-0.1c-0.2,0.1-0.3,0.1-0.5,0.2c0,0.2,0,0.2-0.1,0.3c-0.1,0-0.3-0.1-0.5-0.1c-0.1,0.1,0,0.2,0,0.3c0-0.2-0.2-0.1-0.1-0.2
			c-0.2,0.1-0.2,0.1-0.5,0.3c0,0.1,0.1,0.1,0.1,0.1c0,0-0.1,0-0.1-0.1l0,0c-0.1,0.2-0.3,0.1-0.5,0c-0.1,0-0.2-0.1-0.2-0.1
			c0,0,0,0,0,0.1l0,0c0,0.1-0.1,0.1-0.1,0.2c0,0,0.1-0.1,0.1-0.2C11.4,81,11.3,81,11.3,81c0,0,0-0.1-0.1,0c0.2-0.3,0.2-0.2,0.1-0.2
			c0,0-0.1,0,0.1-0.1l-0.1,0c-0.1,0,0.1-0.1,0.1-0.1c-0.1,0-0.1,0.1-0.2,0.1c-0.2-0.4,0-1,0.1-1.5c0-0.2-0.6,0-0.4-0.3l0.2,0
			c-0.3-0.3-0.1-0.7-0.3-1.1c0.1,0,0.1,0,0.1,0c0.1-0.1,0-0.3-0.1-0.3c0-0.1,0.1,0,0.2-0.1c0.1-0.1-0.2-0.2-0.1-0.2c0,0,0.1,0,0.1,0
			c-0.1,0,0-0.2-0.2-0.2c0.1-0.1-0.1-0.2,0-0.4c-0.2-0.1,0.1-0.2-0.2-0.2c0.3,0,0.2-0.3,0.1-0.3c0.1,0,0.1-0.1,0.2-0.1
			c0-0.1-0.1-0.2-0.2-0.1c0.3-0.2-0.3-0.3,0.1-0.5c-0.2-0.3-0.3-0.5-0.4-0.8c0.3,0,0.1,0.3,0.4,0.2c-0.1-0.2-0.4-0.4-0.4-0.6
			c0-0.1,0.1,0,0.2,0c-0.1-0.2,0-0.5-0.2-0.7c0,0,0.1,0,0.1,0c0,0,0-0.1-0.1-0.1l0,0c-0.2,0.1-0.4-0.1-0.5-0.1
			c0.4,0,0.1-0.2,0.6-0.2c0,0-0.1-0.1-0.2,0c0,0,0.1-0.1,0.2,0c-0.1-0.1-0.2-0.1-0.2-0.2c0.1,0,0.1,0,0.2,0
			c-0.1-0.1-0.3-0.1-0.2-0.2c0,0,0.1,0,0.1,0c0-0.2-0.4-0.3-0.3-0.5c0.3,0,0.1-0.1,0.3-0.1l-0.1-0.1l-0.1,0.1c0-0.1-0.2-0.2-0.1-0.3
			l0.1,0.1L10,71.9L9.9,72c-0.1-0.1-0.3,0-0.3-0.1c0,0,0-0.1,0.1-0.2l0,0c-0.1,0-0.2-0.1-0.1-0.2c0.1,0,0.3,0,0.3,0
			c-0.2,0-0.1-0.2-0.3-0.3c0.1,0,0.2,0,0.2,0l-0.2,0c0-0.1,0.1-0.1,0.2-0.1c0-0.1-0.3,0.1-0.2-0.1c0,0,0,0,0.1,0
			c0-0.2-0.1-0.3-0.1-0.5c0.2-0.1,0.1,0.1,0.3,0.1c-0.1-0.2-0.4-0.4-0.3-0.7l0,0c-0.3,0,0.1-0.2,0-0.3c0,0,0.2,0,0.2,0
			c0-0.2-0.1-0.3-0.3-0.5l0.1,0c0.1-0.1,0-0.2,0-0.3c-0.1,0-0.1-0.1-0.2,0c0.5-0.4-0.4-0.5,0-0.9c0,0,0.1,0.1,0.1,0l-0.1-0.2
			c-0.1,0-0.1,0-0.2,0.1C9.1,68,9,67.9,9,67.8c0.1,0.1,0.2,0,0.3-0.1c0,0-0.1,0-0.1,0c0.2-0.2-0.3,0-0.2-0.2l0.1,0
			c-0.1-0.1-0.2-0.1-0.2-0.2c0.2-0.1,0.1,0.1,0.2,0c0-0.1-0.4-0.1-0.2-0.2c0.1,0,0.1,0.1,0.1,0.1c0.2-0.1,0.1-0.1,0.2-0.2l0,0
			L9.3,67l0,0c-0.5,0-0.1-0.2-0.4-0.3c0.3,0.1,0.2,0,0.4,0c0,0,0.1-0.1,0.2-0.1c-0.2,0,0.1-0.1-0.1-0.2c0.1,0,0-0.1,0.2-0.1
			c-0.1-0.1-0.1,0-0.2,0.1c-0.2-0.1,0.2-0.4-0.1-0.5c-0.2-0.2-0.4-0.1-0.5-0.3c0.1-0.1,0.2,0,0.2,0c0.1-0.1,0-0.2-0.1-0.2
			c0.1,0,0.1,0,0.2-0.1c0-0.1-0.2,0-0.2-0.1c0.1,0,0.2,0,0.3,0C8.9,65,8.7,65,8.7,64.9c0.1,0,0.2,0,0.3,0c-0.1-0.1-0.2-0.2-0.3-0.2
			l0,0.1c0,0,0.1-0.1,0.2,0c0.2,0,0,0.1-0.1,0.2l-0.1,0c-0.4,0.2,0.1,0.2,0.1,0.3l-0.3,0l0.2,0.1c-0.1,0-0.2,0.1-0.3,0
			c-0.1,0.1,0.1,0.1,0,0.2c0,0,0,0,0,0l0.1,0.1c-0.1,0-0.2,0.1-0.2,0c-0.1,0.2,0.3,0.2,0.1,0.3l0,0c0.1,0.2,0.2,0,0.5,0.1l-0.5,0.2
			l0.2,0c0,0,0,0.1-0.1,0.1c0.2,0.1,0.1,0,0.2,0c-0.2,0.1,0.1,0.3-0.2,0.4c0.2,0,0.1-0.1,0.2,0c-0.3,0.1,0.1,0.1-0.1,0.2
			c-0.2,0-0.1-0.1-0.2,0c0.3,0,0,0.2,0,0.3c0.2,0,0.1,0.2,0.2,0.3c-0.1,0-0.1,0.3-0.2,0.4l0,0c0.2,0,0.2,0.1,0.3,0.2
			c-0.1,0-0.2,0-0.3,0l0,0.1c0.1,0,0.1,0,0.2,0.1l-0.2,0c0,0.1,0.2,0.2,0.1,0.4c0.2,0,0.4-0.2,0.6,0c-0.1,0-0.2,0-0.3,0
			c0,0,0.1,0,0,0.1l-0.2,0c-0.1,0.1,0.1,0,0.1,0.1c-0.1,0-0.1,0.1-0.2,0.1c0,0,0-0.1,0-0.1c0,0.1-0.1,0.2-0.2,0.2c0.1,0,0.2,0,0.2,0
			c0,0.1-0.1,0.1-0.2,0.1c0.1,0,0,0.1,0.2,0.1c0,0-0.1,0.1-0.1,0.1c0.1,0,0.1,0.3,0.3,0.2l0,0l0,0v0v0c0.2,0.2-0.1,0.4,0.1,0.6
			l-0.1,0C9,69.9,9,70.1,9.1,70.1c0,0-0.1,0.1-0.2,0.1c0.1,0.1,0.1,0.1,0,0.2c-0.1-0.1-0.1,0-0.1-0.1c0,0.1-0.1,0.2,0.1,0.3
			c-0.2,0-0.2,0.1-0.1,0.2l0.1-0.1c0,0.1,0,0.1,0,0.2l-0.2,0c-0.2,0.3,0.5,0.4,0.1,0.6c0.2,0,0.1-0.1,0.3-0.1c0,0.1-0.3,0.3-0.3,0.3
			C8.7,71.8,9.1,71.8,9,72c0.1,0,0.3-0.1,0.4,0c0,0.1-0.3,0.2-0.4,0.1c0,0,0,0,0,0C9,72,9,72,8.9,72L9,72c-0.1,0.1,0,0.2-0.2,0.2
			c0.1,0.1,0.1,0,0.2,0c-0.1,0.2,0,0.2,0,0.4c0,0,0.1-0.1,0.1,0c-0.1,0.2,0.2,0.1,0.2,0.2c-0.1,0.1-0.3,0-0.2,0.1
			c-0.1,0.1-0.2,0-0.3,0C9,73,8.8,73.2,8.7,73.2l-0.1-0.1c0,0,0,0.1,0,0.1l0.2-0.1c0,0,0,0.1-0.1,0.1c0.1,0,0.3-0.1,0.4,0
			c-0.1,0.1,0.1,0.2-0.1,0.2c0.1-0.2-0.2,0-0.3-0.1c0,0,0,0.1,0,0.1c0,0,0,0-0.1,0C8.6,73.7,9,73.6,9,73.7c-0.1,0-0.2,0.1-0.2,0.1
			c0-0.1,0.2-0.1,0.3,0C9,73.9,9.2,73.9,9.2,74l0-0.1c0.1,0,0.1,0.1,0.2,0.1c-0.1,0-0.1-0.1-0.1,0c0.2,0.1-0.2,0.2,0,0.3
			c-0.1,0.1-0.2,0-0.3,0.1c0.2,0.1-0.1,0.2,0,0.3c0.2-0.1,0.1-0.1,0.3,0l-0.1-0.2l0.2,0.1c0-0.1-0.1-0.1-0.1-0.2
			c0.1,0.1,0.1,0.1,0.2,0c-0.2,0.1,0.2,0.2,0,0.3l-0.4,0c-0.2,0.2,0.2,0.3,0.1,0.5l0.1-0.1c0.2,0,0,0.1,0.1,0.2
			c-0.1,0-0.2,0.1-0.3,0.1c0.1,0,0,0.2,0.3,0.2l-0.2,0.1C9.2,76,9.7,76,9.6,76.1c-0.1,0-0.2,0-0.3-0.1c0,0.1,0,0.1,0.1,0.1
			c-0.1,0,0.2,0.1,0.1,0.2c0.1,0,0.2,0,0.2,0.1c0,0-0.1,0-0.1,0c0.1,0,0.1,0.1,0.2,0c-0.4,0.2,0.1,0.5-0.3,0.7
			c0.1,0.1,0.1,0.3,0.1,0.4c0,0-0.1,0-0.1,0c-0.1,0.2,0.4,0.1,0.3,0.2c-0.2,0.1-0.1-0.1-0.2,0c-0.4,0.1,0.1,0.2-0.2,0.3l0,0
			c-0.1,0.1,0.2,0.2,0.2,0.4c0,0,0,0-0.1,0c0.2,0.1,0.3,0.3,0.4,0.4c-0.2,0-0.1-0.1-0.3,0c0,0.1,0.3,0,0.3,0.1
			C10,78.9,9.9,79,9.7,79l0-0.1c-0.2,0.1,0,0.2,0,0.2l-0.1,0c0.1,0.2,0.3,0.2,0.3,0.4l0.1,0c0.3,0.1-0.1,0.1,0.1,0.2l-0.3,0.1
			c0.1,0.1,0.3,0.2,0.3,0.3c-0.2,0-0.3-0.2-0.4-0.3c0,0.1,0,0.2,0.2,0.3c0,0-0.1-0.1-0.1-0.1c0.2,0.1,0.3,0.2,0.3,0.3
			c-0.5,0-0.1,0.4-0.4,0.5c0.2,0.2,0,0.8,0.3,1.2c0.2-0.4,0.1,0.1,0.4-0.2c0.1,0.1,0.1,0.1,0.1,0.1c0,0.1,0,0.3,0.1,0.4
			c0,0.1-0.1,0-0.2,0.1c0.2,0.1,0,0.2,0.1,0.3c0-0.1,0.2-0.1,0.3-0.1c0-0.1-0.1-0.1-0.1-0.2c0.4-0.1,0.1,0.4,0.6,0.2L11,82.7
			c0.1,0,0.3,0,0.5-0.1c0.2,0,0.4-0.1,0.4-0.3c0,0,0.1,0.1,0,0.2c0.3,0,0.5-0.4,0.8-0.3v0.1c0,0,0-0.2,0.1-0.1c0,0,0,0.1,0,0.1
			c0,0,0.1-0.2,0.2-0.2l0,0.1c0.3,0.1,0.3-0.3,0.5-0.5c0.1,0.3,0.3,0.3,0.4,0.4l0,0c0.3,0,0.4-0.3,0.7-0.5c0.2,0.3,0.6,0,0.9,0.1
			c-0.1,0,0-0.2,0-0.3c0.1,0,0.1-0.2,0.2,0h0c0.1,0.2,0.2,0.1,0.3,0.1l-0.1-0.3c0.4,0.4,0.6-0.3,0.9,0.1c0-0.1,0.1-0.1,0.2-0.2
			l0,0.2c0.2,0,0.3,0,0.5-0.1l0,0.1c0.1,0,0-0.6,0.1-0.6l0.1,0.3c0.2,0,0.5,0.1,0.6-0.1c0,0,0,0.1,0,0.1c0.1,0,0.4,0.1,0.3-0.3
			c0.1,0.2,0.2,0,0.3-0.2l0,0.2c0-0.2,0-0.3,0.2-0.4c0,0,0.1,0.1,0,0.1c0.1,0.1,0-0.2,0.2-0.1l0,0.1c0.1,0,0.1-0.1,0.1-0.2
			c0.1-0.1,0.2,0,0.3,0.2c0-0.1,0-0.2,0.1-0.2c0,0.1,0,0.1,0,0.1c0.2,0.1,0.2-0.3,0.4-0.1c0,0.1,0,0.1,0,0.1c-0.1,0-0.3,0-0.3,0
			c0,0.2,0.2,0.2,0.1,0.4c0.1-0.1,0.2-0.4,0.3-0.4c0,0,0,0,0,0.1l0,0c0,0,0,0,0.1,0c0,0,0.1,0,0.1,0c0,0.1,0.1,0,0.2,0
			c0-0.2,0-0.2-0.1-0.3c0,0,0,0,0,0c0,0,0,0,0,0l0,0c0,0-0.1,0-0.1,0c0-0.1,0.1-0.2,0.1-0.1c0-0.1,0-0.2,0-0.3
			c0.1,0.2,0.3,0.4,0.3,0.5c0.2-0.1,0.4-0.1,0.5-0.5c0-0.1,0.1,0.1,0.1,0.1c0,0-0.1,0-0.1,0.1c0.1-0.1,0.3-0.1,0.3-0.3
			c0.1,0.1,0,0.2,0.1,0.2l0,0.1c0.4,0.3,0.5-0.7,0.9-0.3c0,0,0,0-0.1-0.1c0.5,0.2,0.9-0.3,1.3,0c0.1,0.1,0.1-0.1,0.2-0.2l0,0.2
			l0.1-0.2c0.2-0.2,0.3,0.5,0.5,0.1l0-0.1c0.1,0,0.3-0.1,0.2,0.1c0,0,0-0.1,0.1-0.1l0,0.1l0.2-0.2c0.2,0.1,0,0.4,0.2,0.4
			c0.1,0,0.2-0.3,0.2-0.4c0,0-0.1-0.1-0.1-0.2l0.1-0.1c0-0.3,0.1-0.6-0.1-0.8l-0.2,0.2l0-0.2l0.1,0c-0.1-0.1-0.1,0-0.2,0.1
			c0-0.1,0-0.1-0.1-0.2L25,78.8c0-0.1,0.1-0.2,0-0.3c-0.1,0.1,0.1,0.3,0,0.4c-0.1-0.1,0-0.3-0.1-0.1c0-0.1,0-0.1,0-0.2
			c-0.1,0.1-0.2,0-0.2,0.2c-0.1-0.2-0.2,0.1-0.2-0.2c0,0.1-0.1,0.2-0.2,0.2c0.1-0.4-0.2,0-0.2-0.4c-0.1,0.3-0.3,0.2-0.4,0.3
			c0,0,0-0.1,0-0.1c-0.1,0-0.1-0.1-0.2-0.2c0,0.3-0.1,0.3-0.2,0.5c-0.1-0.2,0-0.3,0-0.5c0,0.2-0.2,0.2-0.1,0.4
			C23,78.7,23,78.8,23,78.6c0,0.3-0.1,0.1-0.1,0.3c-0.1-0.1-0.1-0.3-0.2-0.2C22.6,78.6,22.7,78.4,22.7,78.4z M19.8,79.4L19.8,79.4
			C19.8,79.4,19.9,79.4,19.8,79.4C19.9,79.4,19.9,79.4,19.8,79.4z M19.6,79.5c0,0,0.1,0,0.1,0c0,0.1,0,0.1,0,0.1
			C19.7,79.6,19.6,79.5,19.6,79.5z M20.3,80.7C20.3,80.7,20.3,80.7,20.3,80.7C20.3,80.6,20.3,80.6,20.3,80.7L20.3,80.7
			C20.3,80.6,20.3,80.6,20.3,80.7z"/>
		<path fill="#484F57" d="M20.4,80.4C20.4,80.4,20.4,80.4,20.4,80.4C20.4,80.4,20.3,80.4,20.4,80.4L20.4,80.4L20.4,80.4z"/>
		<path fill="#484F57" d="M8.9,69.2L8.9,69.2C8.9,69.2,8.9,69.2,8.9,69.2C8.9,69.2,8.9,69.2,8.9,69.2z"/>
		<polygon fill="#484F57" points="16.1,79.9 16.2,79.9 16.2,79.9 		"/>
		<path fill="#484F57" d="M9.3,67.7C9.3,67.7,9.4,67.7,9.3,67.7C9.4,67.7,9.3,67.7,9.3,67.7z"/>
		<path fill="#484F57" d="M9.3,67.2L9.3,67.2C9.3,67.1,9.3,67.1,9.3,67.2z"/>
		<path fill="#484F57" d="M9.3,66.7C9.2,66.7,9.2,66.7,9.3,66.7L9.3,66.7L9.3,66.7z"/>
		<path fill="#484F57" d="M10.4,73.8C10.4,73.9,10.4,73.9,10.4,73.8C10.5,73.9,10.5,73.9,10.4,73.8z"/>
		<path fill="#484F57" d="M9.8,71.8C9.8,71.8,9.8,71.8,9.8,71.8C9.9,71.8,9.9,71.7,9.8,71.8z"/>
		<polygon fill="#484F57" points="10.9,76.2 10.9,76.2 10.9,76.2 		"/>
		<path fill="#484F57" d="M9.9,71.9C9.9,71.9,9.9,71.8,9.9,71.9C9.9,71.8,9.8,71.9,9.9,71.9z"/>
		<path fill="#484F57" d="M8.9,64.7L8.9,64.7C8.9,64.7,8.9,64.7,8.9,64.7L8.9,64.7z"/>
		<path fill="#484F57" d="M8.9,64.7L8.9,64.7C8.9,64.7,8.9,64.7,8.9,64.7z"/>
		<path fill="#484F57" d="M8.8,64.6L8.8,64.6C8.9,64.7,8.9,64.6,8.8,64.6z"/>
		<path fill="#484F57" d="M9,65.3L9,65.3C9.1,65.3,9,65.3,9,65.3z"/>
		<path fill="#484F57" d="M9.1,65.5c0,0,0.1-0.1,0.1-0.2l-0.1,0C9.2,65.3,8.9,65.5,9.1,65.5z"/>
		<path fill="#484F57" d="M8.4,66.4l0-0.2c-0.1,0-0.2,0.1-0.2,0C8.1,66.5,8.4,66.2,8.4,66.4z"/>
		<path fill="#484F57" d="M8.4,66.9c0-0.1-0.1,0-0.1,0C8.3,67,8.3,67,8.4,66.9z"/>
		<path fill="#484F57" d="M8.9,70.3l-0.2,0C8.8,70.3,8.8,70.3,8.9,70.3z"/>
		<polygon fill="#484F57" points="9.8,70.8 9.9,70.7 9.8,70.7 		"/>
		<polygon fill="#484F57" points="8.7,71.3 8.7,71.3 8.7,71.4 		"/>
		<path fill="#484F57" d="M9.3,77l0.2,0C9.5,76.9,9.2,77,9.3,77z"/>
		<path fill="#484F57" d="M9.8,79.5c-0.1,0-0.2,0.1-0.1,0.1C9.7,79.6,9.8,79.5,9.8,79.5z"/>
		<polygon fill="#484F57" points="15.9,81.6 15.8,81.7 15.9,81.6 		"/>
	</g>
</g>
</svg>
