<?xml version="1.0" encoding="utf-8"?>
<!-- Generator: Adobe Illustrator 19.0.0, SVG Export Plug-In . SVG Version: 6.00 Build 0)  -->
<svg version="1.1" id="Layer_1" xmlns="http://www.w3.org/2000/svg" xmlns:xlink="http://www.w3.org/1999/xlink" x="0px" y="0px"
	 viewBox="0 0 27 136.2" style="enable-background:new 0 0 27 136.2;" xml:space="preserve">
<style type="text/css">
	.st0{clip-path:url(#SVGID_2_);fill:#484F57;}
</style>
<g>
	<defs>
		<rect id="SVGID_1_" width="27" height="136.2"/>
	</defs>
	<clipPath id="SVGID_2_">
		<use xlink:href="#SVGID_1_"  style="overflow:visible;"/>
	</clipPath>
	<path class="st0" d="M14.5,130.9c0.1,0.1,0.3,0,0.2-0.2l-0.3-0.1L14.5,130.9z"/>
	<path class="st0" d="M15,129.5c-0.2-0.2-0.5-0.4-0.8-0.3c0.3,0.2,0.2,0.3,0.6,0.5c0.1,0.2-0.1,0.3-0.2,0.3c0.1,0.1,0,0.3,0.2,0.4
		c0.2-0.3,0.2-0.6,0-0.9C14.9,129.5,15,129.5,15,129.5"/>
	<path class="st0" d="M14.2,111l0,0.1C14.1,111.1,14.2,111,14.2,111"/>
	<path class="st0" d="M13.6,99.5c0,0.1,0,0.1,0.1,0.1C13.7,99.5,13.7,99.5,13.6,99.5"/>
	<path class="st0" d="M13.9,97.5c0,0,0,0.1,0,0.1C13.9,97.6,13.9,97.5,13.9,97.5"/>
	<path class="st0" d="M14.2,111l0.1-0.3C14.1,110.7,14.2,110.8,14.2,111"/>
	<path class="st0" d="M14,127.1c0,0.1,0.1,0.1,0.1,0.2C14.1,127.2,14.1,127.1,14,127.1L14,127.1z"/>
	<path class="st0" d="M14.8,116L14.8,116c0,0.1,0.1,0.1,0.1,0.2L14.8,116z"/>
	<path class="st0" d="M15.1,119.9c0-0.1-0.3-0.1-0.4-0.1c0.1,0,0.2,0.1,0.2,0.2C15,120,15,119.9,15.1,119.9"/>
	<path class="st0" d="M15.1,126.1l0,0.1C15.1,126.2,15.1,126.1,15.1,126.1"/>
	<path class="st0" d="M14.6,113.2C14.7,113.2,14.7,113.2,14.6,113.2C14.7,113.2,14.7,113.2,14.6,113.2"/>
	<path class="st0" d="M8.3,4.6C8.3,4.6,8.3,4.6,8.3,4.6C8.3,4.6,8.3,4.5,8.3,4.6"/>
	<path class="st0" d="M9.5,0L9.5,0c0.1,0.1,0.1,0.1,0.2,0.1L9.5,0z"/>
	<path class="st0" d="M14.1,93.9C14.1,93.9,14.1,93.9,14.1,93.9C14.1,94,14.1,94,14.1,93.9"/>
	<path class="st0" d="M12.4,61c-0.2,0.4-0.3-0.6-0.6,0C11.9,60.9,12.3,61.5,12.4,61"/>
	<path class="st0" d="M14.1,127c0-0.1,0-0.1,0-0.2C14.1,126.9,14.1,126.9,14.1,127"/>
	<path class="st0" d="M11.8,61L11.8,61L11.8,61C11.8,61,11.8,61,11.8,61"/>
	<path class="st0" d="M13.5,85.7c0,0-0.1,0.1-0.1,0.1C13.4,85.7,13.4,85.7,13.5,85.7"/>
	<path class="st0" d="M13.4,91.8l0-0.2C13.4,91.7,13.4,91.8,13.4,91.8"/>
	<path class="st0" d="M12.9,82.5c0-0.1,0.1-0.1,0-0.2c0,0,0,0,0,0C12.9,82.3,13,82.4,12.9,82.5"/>
	<path class="st0" d="M12.8,79.2C12.7,79.2,12.7,79.2,12.8,79.2c0,0.1,0,0.1,0,0.2L12.8,79.2z"/>
	<path class="st0" d="M8.7,14.7c0.1-0.1,0.2-0.1,0.2-0.2C8.8,14.6,8.7,14.1,8.7,14.7"/>
	<path class="st0" d="M14.2,127c-0.1,0-0.1,0-0.1-0.1l0,0.1C14.1,127.1,14.2,127.1,14.2,127"/>
	<path class="st0" d="M10.7,82.4l0-0.5C10.7,82.1,10.7,82.3,10.7,82.4"/>
	<path class="st0" d="M9.4,38.6l0-0.1C9.3,38.5,9.3,38.6,9.4,38.6"/>
	<path class="st0" d="M10.6,80.3c0.1-0.1,0.1-0.2,0.2-0.3c0,0,0,0-0.1-0.1L10.6,80.3z"/>
	<path class="st0" d="M9,14.5L9,14.5L9,14.5z"/>
	<path class="st0" d="M8.2,11.1c0,0.5,0.4,0.2,0.6,0.3c0.1,0.6-0.3,0.3-0.4,0.5c0.1,0.4,0.5,0.7,0.4,0.9c-0.1,0-0.1,0.1-0.2,0
		c0.3,0.4,0,1.2,0.4,1.6c0,0-0.1,0.1-0.1,0.1c0.2-0.1,0.4-0.1,0.5-0.1c0,0.2,0.2,0.4,0,0.5c0-0.1-0.1-0.1-0.2-0.2L9.4,15
		c-0.3,0.2-0.1-0.3-0.4-0.3c0.1,0.5,0.4,1,0.3,1.3c-0.3,0.1-0.1-0.8-0.4-0.3l0.1-0.6c-0.5,0.4,0-0.3-0.5,0.1
		c-0.1,0.7,0.2,0.8,0.1,1.5c0.2,0.2,0.3-0.1,0.5,0.1c0.4,1-0.8,0.8-0.4,1.6c0.2,0.2,0.7,0.3,0.4,0.8L8.8,19c0,0.7,0.6,0.4,0.3,1.1
		C9,20,9,19.6,8.9,19.7c-0.3,0.5,0.2,0.3,0.2,0.7l-0.3,0.1c0.1,0.7,0.3,1.6,0.4,2.4c-0.1,0-0.2-0.2-0.3,0c0.2,1,0,2.2-0.2,3.2
		l0.3,0.4c0,0.1-0.1,0.2-0.2,0.1c-0.1,0.4,0.2,0,0.3,0.2c0,0.2-0.2,0.3-0.3,0.2c0.3,0.7,0.6,1.9,0.3,2.7l-0.1-0.1
		C9.1,30,9.8,30,9.5,30.6l-0.1-0.1c-0.1,1.2,0.2,2.6-0.2,3.5c0.4,0.2-0.2,1.2,0.4,1.3c-0.3,0.7-0.4,0.5-0.6,1.5
		c0,0.3,0.4,0.4,0.5,0.7l-0.3,0l0.3,0.4l-0.4,0.2l0.1,0.3c0-0.1,0.1-0.3,0.2-0.2c0.2,0.5-0.2,1.2-0.3,1.2l0.3,1.1
		c-0.1,0-0.2-0.2-0.3-0.4c0.3,0.6-0.3,0.1,0,0.7c0.1-0.1,0.2,0,0.2,0c-0.2,0.3-0.2,0.9-0.1,1.4l-0.2-0.1c0,0.8,0.2,1.8,0.2,2.7
		c0.1-0.3,0.5-0.3,0.5,0L9.6,45c0.2,0.2,0.1-0.3,0.4,0.1c0,0.4-0.4,0.2-0.5,0l0.1,0.4c-0.1,0-0.2-0.1-0.3-0.1c0.2,0.2-0.3,0.7,0.1,1
		l-0.1,0c0,0.9,0.2,1.4,0.2,2.1c0.3,0,0.2,0.3,0.5,0.5c-0.1,0.6-0.3,1.2-0.2,1.9c0.2,0.5,0.2,0.1,0.4,0.3c-0.3,0-0.2,0.7-0.4,0.4
		c0.1,0.8,0.1,1,0.3,2.1c0.1-0.1,0.1-0.2,0.2-0.2c0,0.2-0.1,0.4-0.2,0.4l0,0c0.4,1.1-0.7,2.7-0.1,3.6l0-0.1l0.3,0.9
		c0,0.4-0.2-0.3-0.3,0.1c0.5,1,0,1.6,0.3,2.5c-0.7,0.7,0.1,2.3-0.3,3.2l0.2-0.1c0.2,0.2-0.1,0.3-0.1,0.4c0.1,0,0.1-0.3,0.3-0.1
		c0.3,1.9-0.1,4-0.2,6c0,0.7,0.9,0.4,0.6,1.3l-0.3-0.2c0.5,1.4,0.1,3,0.5,4.4c-0.1-0.1-0.2-0.1-0.2-0.2c-0.2,0.3,0,1.1,0.2,1.1
		c0,0.2-0.2,0.1-0.3,0.2c-0.1,0.3,0.3,0.8,0.1,0.9c0,0-0.1-0.1-0.1-0.1c0.1,0.2,0,0.9,0.3,0.7c-0.1,0.5,0.2,1,0,1.5
		c0.3,0.3-0.1,0.9,0.3,1c-0.5,0-0.3,1-0.1,1.3c-0.1-0.1-0.1,0.3-0.3,0.2c0,0.4,0.1,0.7,0.4,0.7c-0.5,0.7,0.5,1.4-0.2,1.9
		c0.3,1.1,0.5,2.2,0.7,3.2c-0.5,0-0.1-1.1-0.6-1.1c0.2,1,0.6,1.5,0.6,2.5c0,0.3-0.2-0.1-0.3-0.2c0.2,1,0.1,1.9,0.3,2.8
		c0,0-0.1-0.1-0.1-0.2c0,0.2,0,0.4,0.2,0.4l-0.1-0.2c0.3-0.3,0.7,0.7,0.8,0.7c-0.6-0.3-0.1,0.9-0.9,0.4c0,0.1,0.1,0.2,0.3,0.2
		c0,0.2-0.1,0.2-0.3,0.1c0.1,0.6,0.4,0.4,0.4,0.9c-0.1,0-0.1-0.1-0.3-0.2c0.2,0.3,0.4,0.5,0.4,1c-0.1,0-0.1,0-0.1-0.1
		c0.1,0.8,0.6,1.4,0.5,2.3c-0.4-0.2-0.1,0.3-0.5,0.4l0.1,0.5l0.2-0.2c0,0.4,0.3,0.8,0.2,1.1l-0.2-0.3l0.1,0.8l0.1-0.5
		c0.2,0.4,0.5-0.1,0.4,0.5c0-0.1,0,0.4-0.2,0.7l0,0c0.1,0.2,0.3,0.4,0.2,0.7c-0.1,0.1-0.4,0-0.5,0c0.3,0.2,0.1,1,0.5,1.2
		c-0.1-0.1-0.3-0.1-0.3,0l0.3,0.2c-0.1,0.2-0.1,0.2-0.3,0.2c0,0.6,0.5-0.2,0.3,0.5c0-0.1-0.1,0-0.1-0.1c-0.1,0.7,0.2,1.3,0.2,2
		c-0.4,0.2-0.1-0.6-0.4-0.3c0.1,0.9,0.6,1.9,0.5,2.8l0-0.2c0.5,0.1-0.2,0.7,0.1,1.1c0-0.1-0.3-0.1-0.2-0.1c0,0.6,0.2,1.2,0.4,2.2
		l-0.1-0.1c-0.1,0.4,0,1,0,1.3c0.1,0.1,0.1,0.3,0.3,0.2c-0.7,1.3,0.6,2.3,0,3.4c0-0.1-0.1-0.3-0.1-0.2l0.2,0.9
		c0.2-0.1,0.1-0.1,0.3-0.3c0.1,0.1,0.3,0.4,0.3,0.6c-0.2-0.4-0.4,0-0.5,0.2c0.1,0,0.2,0,0.2,0c-0.4,0.5,0.5,0,0.2,0.7l-0.1,0
		c0.1,0.2,0.3,0.4,0.2,0.7c-0.3,0.1-0.1-0.2-0.4-0.2c0,0.4,0.6,0.7,0.3,1c-0.1-0.1-0.1-0.4-0.2-0.5c-0.3,0.4-0.2,0.4-0.2,0.7l0,0
		l-0.1,0.6l0.1-0.2c0.7,0.4,0.2,0.9,0.7,1.5c-0.5-0.6-0.3-0.1-0.6-0.1c-0.1,0.2-0.1,0.4-0.2,0.3c0.3,0.3-0.2,0.5,0.2,0.9
		c-0.1,0,0,0.3-0.2,0.3c0.1,0.4,0.2-0.1,0.3-0.1c0.4,0.6-0.3,1.4,0.2,2.2c0.2,0.7,0.6,0.8,0.8,1.5c-0.1,0.2-0.4-0.2-0.4-0.2
		c-0.1,0.4-0.1,0.7,0.1,1c-0.1-0.1-0.2,0-0.3,0.1c0,0.3,0.4,0.2,0.3,0.5c-0.1-0.1-0.3-0.1-0.4-0.2c0.1,0.3,0.3,0.6,0.4,1
		c-0.2,0.1-0.3-0.2-0.4-0.3c0.1,0.4,0.2,1,0.5,1.1l0.1-0.3c0,0.1-0.2,0.1-0.3,0c-0.2-0.3,0.1-0.5,0.2-0.5l0.1,0.2
		c0.6-0.3-0.2-1-0.2-1.4l0.4,0.2l-0.4-0.5c0.1-0.1,0.3-0.2,0.4,0c0.2-0.4-0.2-0.3,0-0.6c0,0,0.1,0,0.1,0l-0.2-0.3
		c0.1,0.1,0.3-0.1,0.2,0.1c0.2-0.6-0.4-1-0.1-1.2l0,0c-0.2-0.8-0.3-0.1-0.7-0.7l0.7-0.5l-0.3-0.1c0-0.1,0-0.3,0.1-0.2
		c-0.2-0.3-0.1,0.1-0.3-0.1c0.2-0.4-0.2-1.1,0.3-1.3c-0.2-0.1-0.1,0.4-0.3,0c0.5-0.2-0.1-0.5,0.1-0.9c0.3,0.1,0.2,0.5,0.4,0.1
		c-0.5-0.2,0-0.8-0.1-1.1c-0.4,0-0.2-0.7-0.4-1.2c0.1,0,0.1-1,0.2-1.6l0.1,0c-0.4-0.1-0.3-0.6-0.4-1c0.2,0,0.3,0.1,0.4,0.3l0-0.4
		c-0.1-0.1-0.2-0.2-0.3-0.4l0.3,0.1c0-0.5-0.4-0.9-0.3-1.6c-0.3,0-0.7,0.5-0.9-0.1c0.1,0,0.4-0.1,0.4,0.1c0-0.1-0.1-0.2-0.1-0.3
		l0.2,0.2c0.1-0.3-0.2-0.1-0.2-0.4c0.2,0,0.1-0.2,0.3-0.2c0,0.1-0.1,0.2,0,0.3c0-0.3,0.1-0.6,0.3-0.7c-0.1,0-0.3,0-0.3-0.2
		c0-0.5,0.2-0.2,0.3-0.5c-0.1-0.1,0-0.4-0.3-0.4c0-0.1,0.1-0.2,0.2-0.2c-0.1-0.2-0.1-1.1-0.4-0.8l0,0.1c0,0,0,0,0,0v0v0
		c-0.3-0.8,0.1-1.7-0.1-2.5l0.1,0c-0.1-0.5-0.1-1.1-0.4-1.4c0-0.1,0.2-0.3,0.3-0.3c-0.1-0.4-0.2-0.4-0.1-0.9
		c0.2,0.4,0.1-0.1,0.1,0.4c0.1-0.5,0.2-0.6-0.1-1.1c0.3,0.2,0.3-0.4,0.2-0.6l-0.2,0.3c-0.1-0.3,0-0.5,0-0.7l0.3,0.1
		c0.3-1-0.8-1.7-0.2-2.5c-0.2-0.2-0.1,0.5-0.4,0.3c0-0.4,0.5-0.9,0.5-1.1c0.1-0.6-0.5-0.5-0.4-1.2c-0.1,0.1-0.4,0.2-0.6-0.3
		c0-0.4,0.5-0.6,0.6-0.3c0,0.1,0,0.2-0.1,0.2c0.1,0.1,0.1,0.3,0.2,0.1l-0.1-0.1c0.1-0.2,0.1-0.8,0.3-0.7c-0.1-0.3-0.2-0.1-0.2,0.1
		c0.1-0.6,0-0.9,0-1.5c-0.1,0.1-0.2,0.2-0.2,0.1c0.1-0.9-0.2-0.4-0.3-1c0.2-0.3,0.4,0.1,0.3-0.5c0.1-0.4,0.3-0.1,0.4,0
		c-0.3-0.5,0.1-1,0.1-1.3l0.1,0.3c-0.1-0.2-0.1-0.3-0.1-0.4L13.9,95c0-0.2,0-0.3,0.1-0.3c-0.2-0.2-0.4,0.2-0.6-0.2
		c0.1-0.2-0.2-0.7,0.1-0.8c-0.1,0.7,0.3-0.1,0.4,0.5c0-0.1-0.1-0.3,0-0.4c0,0,0.1,0,0.1,0.1c0.2-0.7-0.4-0.3-0.4-1
		c0.2,0.1,0.3-0.2,0.3-0.3c0,0.3-0.3,0.1-0.4-0.1c0.1-0.5-0.1-0.5-0.1-0.7l-0.1,0.3c-0.2-0.1-0.2-0.3-0.2-0.6c0.1,0,0.1,0.3,0.2,0.2
		c-0.3-0.3,0.3-0.8,0-1.3c0.1-0.2,0.3,0,0.4-0.2c-0.3-0.5,0.2-0.6,0-1.1c-0.2,0.2-0.2,0.2-0.4-0.2l0.2,0.9l-0.4-0.6
		c0,0.3,0.2,0.6,0.1,0.8c-0.2-0.3-0.1-0.2-0.3-0.1c0.3-0.4-0.2-0.7,0-1.2l0.6,0c0.2-0.7-0.4-1.2-0.3-2l-0.1,0.3
		c-0.2-0.1-0.1-0.5-0.2-0.8c0.2,0,0.3-0.2,0.4-0.3c-0.1,0,0-0.6-0.4-0.7l0.2-0.4c0.1-0.7-0.6-0.8-0.6-1.4c0.2,0.2,0.3-0.1,0.5,0.3
		c0-0.2,0-0.4-0.1-0.4c0.1-0.1-0.3-0.6-0.1-0.8c-0.1-0.1-0.3-0.1-0.3-0.4c0,0,0.1,0,0.1,0c-0.1,0-0.2-0.4-0.4-0.2
		c0.6-0.7-0.1-1.9,0.4-2.6c-0.1-0.5-0.2-1.1-0.2-1.5c0.1,0,0.1,0,0.1,0.1c0.2-0.6-0.6-0.4-0.4-1.1c0.3-0.4,0.2,0.4,0.3,0.1
		c0.6-0.1-0.1-0.8,0.2-1.3l0,0.1c0.2-0.4-0.3-0.9-0.3-1.5c0,0,0.1,0,0.1,0c-0.3-0.4-0.5-1.1-0.6-1.7c0.3,0.2,0.1,0.2,0.4,0.1
		c0-0.3-0.4,0.1-0.5-0.4c0.1-0.2,0.2-0.5,0.5-0.6l0,0.5c0.3-0.3,0-0.6,0-0.9l0.2,0c-0.1-0.7-0.5-0.7-0.5-1.5L12,69.8
		c-0.4-0.4,0.2-0.4-0.1-0.8l0.4-0.1c-0.1-0.3-0.4-1-0.5-1.5c0.3,0.3,0.5,0.9,0.7,1.2c0-0.3-0.1-1-0.3-1.1c0,0.1,0.1,0.2,0.1,0.4
		c-0.3-0.3-0.5-0.8-0.5-1.3c0.8,0.1,0.1-1.5,0.7-1.9c-0.3-1,0-2,0-3.1c-0.6,0.4,0-0.3-0.6-0.2c0-0.3,0-0.4,0-0.4l0.3-0.8
		c0.2-0.2,0.1,0.2,0.3,0.2c0-0.6,0.3-0.3,0.4-0.6c-0.2,0.1-0.3-0.2-0.2-0.5l-0.3,0.5c-0.4-0.8,0.5-0.7,0.1-1.5l0.2,0.3
		c-0.1-0.4,0-1.6-0.6-2c0.1-0.1,0.2-0.2,0.3,0c0-1-0.6-2.2-0.3-3l0.2,0.1c0-0.2-0.3-0.3-0.1-0.6c0.1,0,0.2,0.1,0.2,0
		c-0.1-0.1-0.3-0.5-0.2-0.7l0.2,0.2c0.2-1-0.5-1.5-0.6-2.3c0.4,0,0.6-0.8,0.6-1.2l0.1,0c0-1.2-0.4-1.9-0.6-3
		c0.5-0.7,0.1-2.2,0.4-3.3c-0.1,0.2-0.3,0-0.4-0.2c0.1-0.3-0.3-0.7,0.1-0.7l0,0.1c0.4-0.2,0.3-0.7,0.3-1.1l-0.5-0.1
		c0.7-1.1-0.4-2.7,0.3-3.3c-0.1-0.2-0.1-0.6-0.3-0.8l0.3,0c0.1-0.7,0.1-1.1,0-1.9l0.2,0.2c0-0.5-0.8-0.6-0.9-1l0.4-0.1
		c0-0.9,0.3-1.7-0.1-2.6c0.1,0,0.2,0,0.2,0.2c0-0.4,0.2-1.6-0.3-1.4c0.4,0,0-0.9-0.2-1.3l0.3,0.1c-0.4-0.4-0.5-0.4-0.6-0.9
		c0-0.1,0.2-0.1,0.2,0.1c0.1-0.4-0.3-0.3-0.1-0.8l0.2,0.2c0-0.4-0.1-0.4-0.3-0.6c-0.1-0.3,0-0.8,0.3-0.9c-0.2-0.1-0.4-0.3-0.3-0.6
		c0.1,0,0.2,0.1,0.2,0.1c0.2-0.7-0.4-1.1-0.1-1.6c0.1,0,0.1,0,0.2-0.1c0,0.6,0,1.1,0,1c0.3,0,0.3-0.5,0.7-0.1
		c-0.2-0.4-0.6-1-0.5-1.5c0,0,0,0,0.1-0.1l0,0c0-0.1,0-0.2,0-0.3c0-0.1,0.1-0.2,0.1-0.4c0.2-0.1,0.1-0.5,0.1-0.8
		c-0.3,0-0.2-0.3-0.5,0c0,0,0,0,0.1,0.2c0,0,0,0.1,0,0.1l0,0c0,0.2,0,0.4,0,0.6c-0.1-0.2-0.3-0.4-0.1-0.6c-0.2-0.1-0.4-0.2-0.5-0.3
		c0.4-0.3,0.6-1,0.8-1.1c-0.2-0.7-0.1-1.7-0.7-2.1c-0.1-0.2,0.1-0.2,0.2-0.3c0.1,0.1,0.1,0.3,0.1,0.3c-0.1-0.4-0.1-1.2-0.5-1.3
		c0.2-0.5,0.3,0.3,0.3-0.4l0.1,0.1c0.6-1.4-1-2.2-0.3-3.8c0,0.1-0.1,0.2-0.1,0.2c0.3-1.8-0.4-3.6,0.1-5.4c0.1-0.5-0.1-0.5-0.3-0.8
		l0.3-0.1l-0.4-0.5c-0.3-0.7,0.7-1.3,0.2-2.2l-0.2,0.1c0-0.3-0.2-1.1,0.1-1c0,0-0.2-0.1-0.1-0.2l0.2,0L9.9,1.7
		c0.1-0.6,0.6,0.1,0.6-0.9C10.4,0.5,10-0.1,9.9,0c0,0.1-0.1,0.4-0.2,0.4L9.6,0.1c-0.5,0-1-0.2-1.2,0.5l0.3,0.5L8.4,1.3l0-0.4
		c-0.2,0.3,0,0.4,0.1,0.6c-0.1,0-0.2,0.1-0.2,0.2l0.5,0.5C8.5,2.3,8.4,2,8.3,2.3c0.2,0.2,0.4-0.3,0.6,0.1C8.6,2.8,8.4,2.7,8.6,3
		C8.5,3,8.4,3,8.4,2.8c0.2,0.3,0.1,0.7,0.3,0.8C8.5,4,8.8,4.6,8.4,4.6C8.5,4.7,8.7,5,8.8,5.3c-0.5-0.4,0,0.9-0.6,0.8
		c0.5,0.3,0.2,1.2,0.5,1.8c0,0-0.1-0.1-0.1-0.1c0,0.3-0.2,0.4-0.3,0.6c0.4,0,0.5,0.5,0.7,0.8C8.7,9.6,8.6,9,8.3,9.1
		c0.3,0,0.3,0.7,0.6,0.6C8.6,10,8.8,9.9,8.4,10.1c0.5,0,0.1,0.3,0.4,0.5c-0.2,0.5-0.5,0.1-0.3,0.6C8.4,11.5,8.2,11.1,8.2,11.1
		 M9.4,22.8L9.4,22.8c0-0.1,0-0.2,0-0.2C9.3,22.6,9.3,22.7,9.4,22.8 M9.4,23.8c0-0.1,0-0.3,0-0.4c0.1,0,0.2,0,0.2,0.1
		C9.5,23.4,9.5,23.7,9.4,23.8 M11.3,21.7c0,0.2,0,0.2-0.1,0.2c0-0.1,0-0.2,0-0.3l0,0C11.2,21.6,11.2,21.6,11.3,21.7"/>
	<path class="st0" d="M10.9,21.4C10.9,21.4,10.9,21.4,10.9,21.4C10.9,21.4,10.8,21.4,10.9,21.4L10.9,21.4L10.9,21.4z"/>
	<path class="st0" d="M14.1,111.1L14.1,111.1C14.1,111.1,14.1,111.1,14.1,111.1C14.1,111.1,14.1,111.1,14.1,111.1"/>
	<polygon class="st0" points="9.2,37.5 9.3,37.5 9.2,37.4 	"/>
	<path class="st0" d="M13.5,116.6C13.5,116.7,13.5,116.7,13.5,116.6C13.5,116.7,13.5,116.7,13.5,116.6"/>
	<path class="st0" d="M13.6,119l-0.1,0.3C13.6,119.2,13.6,119.1,13.6,119"/>
	<path class="st0" d="M13.6,120.8c0.1,0,0.1,0,0.1,0l0,0L13.6,120.8z"/>
	<path class="st0" d="M11.5,92.1C11.5,92,11.5,92,11.5,92.1C11.4,91.8,11.5,91.9,11.5,92.1"/>
	<path class="st0" d="M12.6,100.6c-0.1-0.1-0.1-0.2-0.1-0.3C12.5,100.5,12.5,100.6,12.6,100.6"/>
	<polygon class="st0" points="10.7,82.5 10.7,82.5 10.7,82.4 	"/>
	<path class="st0" d="M12.5,99.9c0,0.2,0,0.3,0,0.4C12.5,100.2,12.5,100,12.5,99.9"/>
	<path class="st0" d="M14.2,128.7L14.2,128.7C14.2,128.8,14.2,128.8,14.2,128.7L14.2,128.7z"/>
	<path class="st0" d="M14.2,128.8L14.2,128.8C14.2,128.8,14.2,128.8,14.2,128.8"/>
	<path class="st0" d="M14.3,129.1l-0.1-0.2C14.2,128.9,14.2,129,14.3,129.1"/>
	<path class="st0" d="M14.1,126.3l-0.1,0C14,126.3,14,126.3,14.1,126.3"/>
	<path class="st0" d="M14,125.5c0,0.2-0.2,0.5-0.1,0.7l0.1,0C13.8,126.1,14.2,125.7,14,125.5"/>
	<path class="st0" d="M15,122.4l0,0.6c0.1-0.1,0.2-0.3,0.3,0C15.5,122.2,15,123.2,15,122.4"/>
	<path class="st0" d="M15,120.5c0.1,0.3,0.2,0,0.2,0C15.1,120.3,15.1,120.3,15,120.5"/>
	<path class="st0" d="M14.1,106.9l0.3,0C14.3,106.6,14.2,106.9,14.1,106.9"/>
	<polygon class="st0" points="12.6,104.3 12.5,104.6 12.7,104.7 	"/>
	<polygon class="st0" points="14.3,102.7 14.4,102.8 14.2,102.4 	"/>
	<path class="st0" d="M13,79.7l-0.3,0.1C12.8,80,13.2,80,13,79.7"/>
	<path class="st0" d="M12.3,69.8c0.2-0.1,0.2-0.4,0.1-0.6C12.4,69.5,12.3,69.7,12.3,69.8"/>
	<polygon class="st0" points="11.8,40.1 11.9,40.3 11.8,39.9 	"/>
	<path class="st0" d="M27,107.6c-0.1-0.1-0.2-0.2-0.2-0.1l0.2,0.2L27,107.6z"/>
	<path class="st0" d="M26.3,107.4c0.1,0.1,0.3,0.4,0.5,0.5c-0.2-0.2-0.1-0.2-0.4-0.5c0-0.1,0.1,0,0.2,0.1c-0.1-0.1,0.1,0,0-0.2
		c-0.2-0.1-0.3-0.1-0.2,0.1C26.4,107.5,26.4,107.5,26.3,107.4"/>
	<path class="st0" d="M23.2,110.7L23.2,110.7C23.2,110.7,23.2,110.7,23.2,110.7"/>
	<path class="st0" d="M21.5,113C21.5,113,21.5,112.9,21.5,113C21.5,113,21.5,113,21.5,113"/>
	<path class="st0" d="M21,113.2C21,113.2,21,113.2,21,113.2C21,113.2,21,113.2,21,113.2"/>
	<path class="st0" d="M23.2,110.7l-0.1,0C23.2,110.8,23.2,110.7,23.2,110.7"/>
	<path class="st0" d="M26.6,108.4C26.6,108.4,26.6,108.4,26.6,108.4C26.5,108.3,26.5,108.4,26.6,108.4L26.6,108.4z"/>
	<path class="st0" d="M23.7,109.5L23.7,109.5c0,0,0-0.1-0.1-0.1L23.7,109.5z"/>
	<path class="st0" d="M24.2,108.7c0,0,0.2,0.2,0.3,0.3c-0.1-0.1-0.1-0.1-0.1-0.2C24.4,108.8,24.3,108.8,24.2,108.7"/>
	<path class="st0" d="M25.6,107.9L25.6,107.9C25.5,107.8,25.5,107.8,25.6,107.9"/>
	<path class="st0" d="M23.3,110.1C23.2,110.1,23.2,110,23.3,110.1C23.2,110,23.2,110.1,23.3,110.1"/>
	<path class="st0" d="M16.6,135.2C16.6,135.2,16.5,135.2,16.6,135.2C16.6,135.2,16.6,135.2,16.6,135.2"/>
	<polygon class="st0" points="15.1,136.2 15.1,136.2 14.9,136.2 	"/>
	<path class="st0" d="M20.2,113.8L20.2,113.8C20.2,113.8,20.2,113.8,20.2,113.8"/>
	<path class="st0" d="M17,121.4c0.3,0,0.3,0.3,0.6,0.2C17.4,121.5,17.2,121.3,17,121.4"/>
	<path class="st0" d="M26.5,108.4C26.5,108.4,26.5,108.4,26.5,108.4C26.5,108.4,26.5,108.4,26.5,108.4"/>
	<path class="st0" d="M17.5,121.6L17.5,121.6L17.5,121.6C17.6,121.6,17.6,121.6,17.5,121.6"/>
	<path class="st0" d="M19.4,115.7c0,0,0.1,0,0.1,0C19.5,115.7,19.5,115.7,19.4,115.7"/>
	<path class="st0" d="M20.5,114.6L20.5,114.6C20.4,114.6,20.4,114.6,20.5,114.6"/>
	<path class="st0" d="M19.4,116.6C19.4,116.6,19.3,116.6,19.4,116.6C19.4,116.6,19.4,116.6,19.4,116.6
		C19.3,116.6,19.3,116.6,19.4,116.6"/>
	<path class="st0" d="M19,117.3C19.1,117.3,19.1,117.4,19,117.3L19,117.3L19,117.3z"/>
	<path class="st0" d="M16.7,132.8c-0.1,0-0.2,0-0.3,0C16.6,132.8,16.7,132.9,16.7,132.8"/>
	<path class="st0" d="M26.4,108.3C26.5,108.4,26.5,108.4,26.4,108.3L26.4,108.3C26.5,108.3,26.5,108.3,26.4,108.3"/>
	<path class="st0" d="M21.4,117.6L21.4,117.6C21.3,117.7,21.3,117.6,21.4,117.6"/>
	<path class="st0" d="M17.6,127.2L17.6,127.2C17.6,127.3,17.6,127.2,17.6,127.2"/>
	<path class="st0" d="M21.2,118.1c-0.1,0-0.2,0-0.2,0c0,0,0,0,0.1,0L21.2,118.1z"/>
	<path class="st0" d="M16.4,132.8L16.4,132.8L16.4,132.8z"/>
	<path class="st0" d="M17,133.7c0-0.1-0.4-0.1-0.6-0.1c-0.1-0.2,0.3,0,0.5-0.1c-0.1-0.1-0.4-0.2-0.4-0.3c0.1,0,0.1,0,0.2,0
		c-0.3-0.1,0-0.3-0.3-0.4c0,0,0.1,0,0.1,0c-0.2,0-0.4,0-0.5,0c0-0.1-0.2-0.1,0-0.1c0,0,0.1,0,0.2,0.1l-0.1-0.1
		c0.4,0,0.1,0.1,0.4,0.1c-0.1-0.1-0.4-0.3-0.3-0.4c0.3,0,0.1,0.2,0.4,0.1l-0.1,0.1c0.5,0,0,0.1,0.5,0.1c0.1-0.2-0.2-0.2,0-0.4
		c-0.2-0.1-0.3,0-0.5-0.1c-0.3-0.3,0.9-0.1,0.5-0.3c-0.2-0.1-0.6-0.2-0.4-0.2l0.4,0.1c0.1-0.2-0.5-0.2-0.3-0.3
		c0.1,0.1,0.1,0.1,0.2,0.1c0.3-0.1-0.2-0.1-0.2-0.2l0.3,0c0-0.2-0.2-0.4-0.3-0.6c0.1,0,0.2,0.1,0.3,0c-0.1-0.3,0.1-0.5,0.4-0.7
		L17,130c0,0,0.1,0,0.2,0c0.1-0.1-0.2,0-0.3-0.1c0-0.1,0.2,0,0.3,0c-0.2-0.2-0.4-0.6-0.1-0.7l0.1,0.1c0.1-0.1-0.6-0.3-0.3-0.3l0,0
		c0.2-0.3,0-0.6,0.5-0.8c-0.4-0.1,0.2-0.2-0.3-0.4c0.3-0.1,0.4,0,0.7-0.2c0-0.1-0.3-0.2-0.4-0.3l0.3,0.1l-0.3-0.2l0.4,0l-0.1-0.1
		c0,0-0.1,0-0.2,0c-0.1-0.1,0.3-0.2,0.4-0.2l-0.2-0.3c0.1,0,0.1,0.1,0.2,0.1c-0.3-0.2,0.3,0.1,0.1-0.1c-0.1,0-0.2-0.1-0.2-0.1
		c0.2,0,0.2-0.2,0.2-0.3l0.2,0.1c0.1-0.2,0-0.4,0.1-0.6c-0.1,0.1-0.5-0.1-0.5-0.1l0.3,0.1c-0.2-0.1-0.1,0-0.4-0.1
		c0.1-0.1,0.4,0,0.5,0.1l-0.1-0.1c0.1,0,0.1,0.1,0.3,0.1c-0.2-0.1,0.4-0.1,0-0.2l0.1,0c0.1-0.2,0-0.3,0-0.5
		c-0.3-0.1-0.2-0.1-0.4-0.3c0.1-0.1,0.4-0.2,0.4-0.3c-0.1-0.1-0.2-0.1-0.4-0.2c0.2,0.1,0.3-0.1,0.4,0c0-0.2,0-0.2-0.1-0.5
		c-0.1,0-0.2,0-0.2,0c0-0.1,0.1-0.1,0.2,0l0,0c-0.3-0.4,0.9-0.4,0.5-0.7l0,0l-0.2-0.3c0.1-0.1,0.2,0.1,0.3,0.1
		c-0.3-0.4,0.2-0.3,0-0.6c0.8,0.1,0.1-0.5,0.7-0.6l-0.2-0.1c-0.1-0.1,0.1,0,0.2,0c-0.1,0-0.2,0-0.2-0.1c0-0.5,0.6-0.8,0.9-1.1
		c0.1-0.1-0.8-0.4-0.3-0.5l0.3,0.2c-0.2-0.5,0.3-0.6,0.1-1.1c0.1,0,0.2,0.1,0.1,0.1c0.2,0,0.1-0.2-0.1-0.3c0,0,0.2,0.1,0.3,0.1
		c0.2,0-0.2-0.3,0-0.2c0,0,0.1,0.1,0.1,0.1c-0.1-0.1,0.1-0.2-0.2-0.3c0.2-0.1,0-0.3,0.2-0.3c-0.3-0.2,0.2-0.1-0.2-0.3
		c0.4,0.2,0.4,0,0.3-0.2c0.1,0.1,0.2,0,0.3,0.1c0-0.1,0-0.2-0.2-0.3c0.6,0.1-0.2-0.5,0.4-0.3c-0.1-0.4-0.1-0.7-0.1-0.9
		c0.4,0.2-0.1,0.3,0.3,0.5c-0.1-0.3-0.3-0.6-0.1-0.8c0.1,0,0.2,0.1,0.2,0.2c-0.1-0.3,0.3-0.4,0.1-0.7c0,0,0.1,0.1,0.1,0.1
		c0,0,0.1-0.1-0.1-0.1l0,0.1c-0.3-0.1-0.5-0.4-0.6-0.5c0.5,0.3,0.2-0.1,0.8,0.4c0,0-0.1-0.1-0.2-0.2c0.1,0,0.1,0,0.2,0.1
		c0-0.2-0.2-0.2-0.2-0.4c0.1,0,0.1,0.1,0.2,0.2c-0.1-0.2-0.3-0.3-0.1-0.4c0,0,0.1,0.1,0.1,0.1c0.1-0.2-0.3-0.5,0-0.6
		c0.3,0.3,0.2,0,0.5,0.2l0-0.2l-0.2-0.1c0.1-0.1-0.1-0.3,0-0.3l0.1,0.1l0-0.2l-0.2,0c-0.1-0.2-0.4-0.2-0.3-0.3c0,0,0.1-0.1,0.3,0
		l0,0c-0.1-0.1-0.2-0.2,0-0.2c0.1,0,0.3,0.2,0.4,0.3c-0.2-0.2,0.1-0.2-0.2-0.5c0.1,0.1,0.2,0.2,0.3,0.2l-0.2-0.2
		c0.1,0,0.1,0,0.3,0.1c0.1-0.1-0.4-0.2-0.2-0.2c0,0,0,0,0.1,0.1c0.2-0.1,0-0.4,0.2-0.4c0.3,0.2,0,0.2,0.3,0.3
		c0.1-0.2-0.1-0.6,0.1-0.8l-0.1,0c-0.4-0.3,0.3,0,0.2-0.2c0,0,0.2,0.2,0.2,0.2c0.2-0.1,0.1-0.3,0-0.6l0.1,0.1c0.1,0,0.2-0.1,0.3-0.2
		c-0.1-0.1,0-0.1-0.2-0.2c0.8,0.2,0-0.7,0.6-0.5c0,0,0.1,0.1,0.1,0.1l0-0.2c-0.2-0.1-0.1-0.1-0.3-0.1c-0.1-0.1-0.1-0.2-0.1-0.3
		c0.1,0.2,0.3,0.2,0.4,0.3c-0.1,0-0.1-0.1-0.2-0.1c0.4,0.2-0.4-0.3,0-0.3l0.1,0.1c0-0.1-0.1-0.2,0-0.3c0.2,0.1,0.1,0.1,0.2,0.3
		c0-0.1-0.3-0.4,0-0.3c0,0.1,0,0.1,0,0.2c0.3,0.1,0.2,0.1,0.3,0l0,0l0.2,0l-0.1,0c-0.5-0.5,0-0.3-0.2-0.7c0.3,0.4,0.2,0.2,0.4,0.4
		c0.1,0,0.2,0,0.3,0.1c-0.2-0.2,0.2,0,0-0.3c0.1,0.1,0.1-0.1,0.2,0.1c0-0.1-0.1-0.1-0.2-0.2c-0.2-0.3,0.5,0,0.3-0.4
		c0-0.3-0.3-0.5-0.3-0.7c0.2,0.1,0.2,0.3,0.2,0.3c0.2,0,0.2,0,0.2-0.2c0.1,0.1,0.1,0.1,0.2,0.1c0-0.1-0.2-0.3-0.1-0.2
		c0.1,0.1,0.2,0.2,0.3,0.3c0-0.1-0.1-0.3-0.1-0.4c0.1,0.1,0.2,0.2,0.2,0.3c0-0.1,0-0.3-0.2-0.5l-0.1,0c0,0,0.2,0.1,0.2,0.2
		c0.1,0.2-0.1,0-0.2,0l0-0.1c-0.5-0.3-0.1,0.2-0.2,0.3l-0.3-0.3l0.2,0.3c-0.1,0-0.3-0.2-0.3-0.3c-0.2-0.1,0.1,0.2-0.2,0.1
		c0,0,0,0-0.1,0l0,0.1c-0.1-0.1-0.2-0.2-0.2-0.2c-0.3,0,0.1,0.4-0.2,0.2l0,0c0,0.2,0.2,0.2,0.4,0.5l-0.7-0.4l0.2,0.2
		c0,0-0.1,0-0.2-0.1c0.1,0.2,0.1,0.1,0.2,0.2c-0.3-0.1-0.1,0.3-0.5,0c0.2,0.2,0.2,0,0.3,0.2c-0.4-0.3,0,0.2-0.3,0.1
		c-0.2-0.2,0-0.2-0.3-0.2c0.3,0.3-0.2,0.1-0.2,0.2c0.3,0.2,0,0.2,0,0.4c-0.1-0.1-0.3,0.1-0.5,0.1l0,0c0.3,0.2,0.2,0.3,0.2,0.4
		c-0.2-0.1-0.2-0.2-0.3-0.3l-0.1,0.1c0.1,0.1,0.1,0.1,0.1,0.2l-0.2-0.2c-0.1,0.1,0.1,0.4-0.1,0.4c0.2,0.2,0.6,0.3,0.7,0.5
		c-0.1-0.1-0.3-0.2-0.3-0.3c0,0,0.1,0.1,0,0.1l-0.2-0.2c-0.1,0,0.1,0.1,0.1,0.2c-0.2-0.1-0.1,0-0.3-0.1c0,0,0.1,0,0-0.1
		c-0.1,0-0.2,0-0.3,0c0.1,0.1,0.2,0.2,0.2,0.2c-0.1,0.1-0.2-0.1-0.3-0.1c0.1,0.1-0.1,0.1,0.2,0.3c0,0-0.1,0-0.2-0.1
		c0.1,0.1-0.1,0.3,0.2,0.4l0,0c0,0,0,0,0,0c0.1,0.3-0.4,0.2-0.4,0.5l-0.1-0.1c0,0.2-0.1,0.3,0,0.4c0,0-0.2,0-0.3-0.1
		c0,0.1,0.1,0.2-0.1,0.2c-0.1-0.2-0.1-0.1-0.1-0.1c-0.1,0.1-0.3,0-0.1,0.2c-0.2-0.2-0.3-0.1-0.3,0l0.2,0c0,0.1,0,0.1-0.1,0.1
		l-0.3-0.2c-0.5,0,0.4,0.7-0.3,0.5c0.2,0.2,0.2,0,0.4,0.2c-0.1,0.1-0.6-0.1-0.6-0.1c-0.2,0,0.3,0.4,0.1,0.4c0.1,0,0.4,0.2,0.4,0.3
		c-0.1,0.1-0.5-0.1-0.5-0.2c0,0,0,0,0.1,0c0-0.1,0-0.1-0.2-0.1l0.1,0.1c-0.1,0-0.2,0.1-0.3,0c0.1,0.1,0.1,0.1,0.2,0.1
		c-0.2,0-0.1,0.2-0.3,0.3c0.1,0,0.2,0.1,0.2,0.1c-0.2,0.1,0.1,0.2,0.1,0.3c-0.2,0-0.4-0.2-0.3,0c-0.1,0-0.3-0.1-0.3-0.2
		c0.1,0.2-0.3,0.1-0.3,0.2l0-0.1c0,0.1,0,0.1,0,0.1l0.2,0.1c-0.1,0-0.1,0-0.2,0c0.1,0.1,0.4,0.2,0.5,0.3c-0.1,0,0,0.2-0.3,0.1
		c0.2-0.1-0.3-0.1-0.3-0.3c0,0,0,0.1-0.1,0.1c0,0-0.1,0-0.1-0.1c-0.3,0,0.3,0.2,0.2,0.4c-0.1-0.1-0.3-0.1-0.3-0.1
		c0-0.1,0.3,0.1,0.4,0.2c-0.2,0,0,0.2,0,0.2l0.1,0c0.1,0.1,0.1,0.1,0.1,0.2c-0.1-0.1-0.1-0.1-0.1-0.1c0.2,0.2-0.4,0-0.3,0.2
		c-0.1,0-0.3-0.2-0.4-0.2c0.1,0.2-0.3,0-0.2,0.2c0.2,0.1,0.2,0,0.3,0.2l0-0.3l0.2,0.3c0-0.1-0.1-0.2,0-0.2c0.1,0.2,0.1,0.1,0.3,0.2
		c-0.4-0.1,0.1,0.3-0.2,0.2l-0.5-0.3c-0.3,0,0.1,0.4-0.1,0.5l0.1,0c0.2,0.1,0,0.1,0,0.2c-0.2-0.1-0.3-0.1-0.4-0.1
		c0.1,0.1-0.1,0.1,0.3,0.3l-0.3,0c-0.2,0.1,0.4,0.4,0.3,0.5c-0.2-0.1-0.3-0.1-0.4-0.3c0,0-0.1,0.1,0,0.1c-0.1,0,0.2,0.3,0,0.2
		c0.1,0.1,0.2,0.2,0.2,0.2c0,0-0.1,0-0.1,0c0.1,0,0.1,0.1,0.3,0.2c-0.6-0.1-0.2,0.4-0.7,0.4c0,0.1,0,0.3,0,0.4c-0.1,0-0.1,0-0.1-0.1
		c-0.2,0.1,0.5,0.3,0.2,0.4c-0.3-0.1-0.1-0.2-0.3-0.2c-0.6-0.2,0,0.2-0.4,0.2l0,0c-0.2,0,0.1,0.3,0,0.4c0,0,0,0-0.1,0
		c0.3,0.2,0.3,0.4,0.3,0.6c-0.2-0.1-0.1-0.1-0.3-0.2c0,0.1,0.4,0.1,0.4,0.3c-0.1,0-0.3,0-0.5-0.1l0-0.1c-0.4-0.1,0,0.1-0.1,0.2
		l-0.1-0.1c0,0.2,0.3,0.3,0.2,0.5l0.1,0c0.3,0.2-0.2,0,0,0.2l-0.4-0.1c0.1,0.1,0.3,0.4,0.3,0.5c-0.2-0.2-0.3-0.4-0.5-0.5
		c0,0.1-0.1,0.2,0.1,0.3c0,0-0.1-0.1,0-0.1c0.3,0.2,0.4,0.4,0.3,0.5c-0.7-0.3-0.3,0.3-0.9,0.1c0.2,0.3-0.3,0.4-0.3,0.7
		c0.6,0.1,0,0.1,0.6,0.3c0,0.1,0,0.1,0,0.1l-0.4,0.1c-0.2,0-0.1-0.1-0.2-0.1c-0.1,0.1-0.3,0-0.5,0c0.2,0.1,0.3,0.2,0.2,0.2l0.3,0
		c0.2,0.3-0.5,0-0.3,0.3l-0.2-0.1c0.1,0.1-0.1,0.4,0.3,0.6c-0.1,0-0.2,0-0.3-0.1c-0.1,0.2,0.3,0.7,0,0.8l-0.1-0.1
		c0,0.1,0.2,0.2,0.1,0.2c-0.1,0-0.1-0.1-0.2,0c0,0,0.2,0.2,0.1,0.2l-0.1-0.1c-0.3,0.2,0.3,0.5,0.3,0.7c-0.4-0.1-0.6,0-0.7,0.1
		l-0.1,0c-0.1,0.3,0.2,0.6,0.3,0.9c-0.5,0-0.3,0.5-0.7,0.7c0.1,0,0.3,0.1,0.4,0.2c-0.1,0,0.2,0.2-0.1,0.1l0,0
		c-0.4-0.1-0.3,0.1-0.4,0.2l0.5,0.1c-0.8,0.1,0.1,0.7-0.6,0.7c0.1,0.1,0.1,0.2,0.2,0.3l-0.3-0.1c-0.1,0.2-0.2,0.2-0.1,0.5l-0.2-0.1
		c0,0.1,0.8,0.3,0.8,0.4l-0.4-0.1c0,0.2-0.4,0.3-0.1,0.6c-0.1,0-0.2,0-0.2-0.1c0,0.1-0.4,0.3,0.2,0.4c-0.4-0.1-0.1,0.2,0.1,0.3
		l-0.3-0.1c0.3,0.2,0.4,0.2,0.5,0.3c0,0-0.2,0-0.1,0c-0.2,0.1,0.2,0.1,0.1,0.2l-0.2-0.1c0,0.1,0.1,0.1,0.2,0.2
		c0.1,0.1-0.1,0.2-0.4,0.2c0.1,0,0.3,0.1,0.3,0.2c-0.1,0-0.2,0-0.2-0.1c-0.2,0.1,0.3,0.3,0,0.4c-0.1,0-0.1,0-0.2,0
		c0-0.1,0.1-0.3,0.1-0.2c-0.3,0-0.3,0.1-0.7-0.1c0.2,0.1,0.6,0.4,0.4,0.4c0,0-0.1,0-0.1,0l0,0c0,0,0,0,0,0.1c0,0-0.1,0-0.1,0.1
		c-0.2,0-0.1,0.1-0.2,0.2c0.3,0,0.2,0.1,0.5,0.1c0,0,0,0,0-0.1c0,0,0,0,0,0l0,0c0,0,0-0.1,0-0.1c0.1,0.1,0.2,0.1,0.1,0.2
		c0.2,0.1,0.4,0.1,0.4,0.1c-0.4,0-0.6,0.1-0.9,0.1c0.1,0.2,0,0.4,0.5,0.6c0.1,0.1-0.2,0-0.2,0c0,0,0-0.1-0.1-0.1
		c0.1,0.1,0,0.3,0.4,0.4c-0.2,0.1-0.3-0.1-0.3,0.1l-0.1,0c-0.6,0.3,0.9,0.7,0.1,1c0,0,0.1,0,0.1,0c-0.4,0.4,0.2,0.9-0.3,1.3
		c-0.1,0.1,0.1,0.1,0.3,0.2l-0.3,0l0.3,0.2c0.2,0.2-0.8,0.3-0.3,0.5l0.2,0c0,0.1,0.1,0.3-0.1,0.2c0,0,0.2,0,0.1,0.1l-0.2,0l0.3,0.2
		c-0.1,0.1-0.6-0.1-0.7,0.2c0.1,0.1,0.4,0.3,0.6,0.2c0,0,0.1-0.1,0.3-0.1l0.1,0.1c0.5,0,0.9,0.1,1.3-0.1l-0.3-0.1l0.2,0l0,0.1
		c0.2-0.1,0-0.1-0.1-0.1c0.1,0,0.2,0,0.3,0l-0.4-0.1c0.2,0,0.4,0.1,0.5,0c-0.2-0.1-0.4,0-0.5-0.1c0.2,0,0.4,0,0.2-0.1
		c0.1,0,0.2,0,0.2,0c-0.1-0.1-0.1-0.2-0.3-0.2c0.3,0-0.1-0.2,0.4-0.2c-0.1,0-0.3-0.1-0.4-0.2c0.5,0.1,0-0.2,0.6-0.1
		c-0.5-0.1-0.2-0.3-0.4-0.5c0,0,0.1,0,0.1,0c0-0.1,0.2-0.1,0.3-0.1c-0.4,0-0.5-0.2-0.7-0.3c0.4-0.1,0.5,0.1,0.8,0.1
		c-0.3,0-0.3-0.2-0.6-0.2c0.2-0.1,0.1-0.1,0.4-0.1c-0.5-0.1-0.1-0.1-0.4-0.2c0.3-0.1,0.5,0,0.3-0.1C16.8,133.6,17,133.7,17,133.7
		 M16.5,130.8L16.5,130.8C16.5,130.9,16.5,130.9,16.5,130.8C16.5,130.9,16.5,130.9,16.5,130.8 M16.5,130.6c0,0,0,0.1,0,0.1
		c-0.1,0-0.2,0-0.2-0.1C16.4,130.7,16.4,130.6,16.5,130.6 M14.5,130.8C14.5,130.7,14.5,130.7,14.5,130.8c0.1,0,0.1,0,0.1,0l0,0
		C14.6,130.8,14.6,130.8,14.5,130.8"/>
	<path class="st0" d="M14.9,130.9C14.9,130.9,14.9,130.9,14.9,130.9C14.9,130.9,14.9,130.9,14.9,130.9L14.9,130.9L14.9,130.9z"/>
	<path class="st0" d="M23.3,110.7L23.3,110.7C23.3,110.7,23.3,110.7,23.3,110.7C23.3,110.7,23.3,110.7,23.3,110.7"/>
	<polygon class="st0" points="17.7,127.5 17.6,127.5 17.7,127.5 	"/>
	<path class="st0" d="M24.8,110.2C24.8,110.2,24.9,110.2,24.8,110.2C24.9,110.2,24.8,110.2,24.8,110.2"/>
	<path class="st0" d="M25.2,109.8l0.1,0C25.3,109.8,25.2,109.8,25.2,109.8"/>
	<path class="st0" d="M25.6,109.5C25.5,109.5,25.5,109.5,25.6,109.5L25.6,109.5L25.6,109.5z"/>
	<path class="st0" d="M22.1,115.4C22.1,115.4,22.1,115.4,22.1,115.4C22.2,115.5,22.1,115.5,22.1,115.4"/>
	<path class="st0" d="M22.6,113.3c0,0,0.1,0.1,0.1,0.1C22.7,113.4,22.7,113.4,22.6,113.3"/>
	<polygon class="st0" points="21.4,117.6 21.4,117.6 21.4,117.6 	"/>
	<path class="st0" d="M22.6,113.5C22.7,113.5,22.7,113.5,22.6,113.5C22.6,113.5,22.6,113.5,22.6,113.5"/>
	<path class="st0" d="M26.8,108.1L26.8,108.1C26.8,108.1,26.8,108.1,26.8,108.1L26.8,108.1z"/>
	<path class="st0" d="M26.8,108.1L26.8,108.1C26.8,108.1,26.8,108.1,26.8,108.1"/>
	<path class="st0" d="M26.8,108L26.8,108C26.8,108,26.8,108,26.8,108"/>
	<path class="st0" d="M26.4,108.5L26.4,108.5C26.4,108.5,26.4,108.5,26.4,108.5"/>
	<path class="st0" d="M26.3,108.6c0,0,0.2,0.1,0.2,0l-0.1-0.1C26.6,108.7,26.2,108.5,26.3,108.6"/>
	<path class="st0" d="M24.8,108.4l0.2-0.1c-0.1,0-0.2-0.1-0.2-0.2C24.4,108.1,25,108.3,24.8,108.4"/>
	<path class="st0" d="M24.4,108.7c0-0.1-0.1-0.1-0.2-0.1C24.3,108.7,24.3,108.7,24.4,108.7"/>
	<path class="st0" d="M22.5,111.5l-0.2-0.1C22.3,111.4,22.4,111.4,22.5,111.5"/>
	<polygon class="st0" points="23.3,112.7 23.4,112.7 23.2,112.6 	"/>
	<polygon class="st0" points="21.5,112.1 21.5,112 21.5,112.2 	"/>
	<path class="st0" d="M18.9,117.1l0.3,0.1C19.1,117.2,18.8,117,18.9,117.1"/>
	<path class="st0" d="M18.2,119.5c-0.2,0-0.3,0-0.1,0.1C18.1,119.5,18.2,119.5,18.2,119.5"/>
	<polygon class="st0" points="15.4,126.3 15.3,126.2 15.3,126.3 	"/>
	<path class="st0" d="M0.6,116.9c-0.1,0.1-0.2,0.2-0.1,0.2L0.6,116.9L0.6,116.9z"/>
	<path class="st0" d="M0.5,117.5c0.1-0.1,0.3-0.3,0.5-0.6c-0.2,0.2-0.1,0.1-0.4,0.4c0,0,0-0.1,0.1-0.2c-0.1,0.1,0-0.1-0.1,0.1
		c-0.1,0.2-0.1,0.3,0.1,0.1C0.6,117.4,0.5,117.5,0.5,117.5"/>
	<path class="st0" d="M2.6,119.8L2.6,119.8C2.6,119.7,2.6,119.7,2.6,119.8"/>
	<path class="st0" d="M3.9,121.1C3.9,121.1,3.8,121.1,3.9,121.1C3.8,121.1,3.9,121.1,3.9,121.1"/>
	<path class="st0" d="M3.9,121.6C3.9,121.6,3.9,121.6,3.9,121.6C3.8,121.6,3.8,121.6,3.9,121.6"/>
	<path class="st0" d="M2.6,119.8l0,0.1C2.7,119.8,2.6,119.8,2.6,119.8"/>
	<path class="st0" d="M1.3,117.1C1.2,117.1,1.2,117.1,1.3,117.1C1.2,117.2,1.2,117.2,1.3,117.1L1.3,117.1z"/>
	<path class="st0" d="M1.8,119.5L1.8,119.5c0,0-0.1,0.1-0.1,0.1L1.8,119.5z"/>
	<path class="st0" d="M1.3,119.1c0,0,0.2-0.2,0.3-0.3c-0.1,0.1-0.1,0.1-0.1,0.1C1.4,119,1.3,119.1,1.3,119.1"/>
	<path class="st0" d="M0.8,118.1L0.8,118.1C0.7,118.2,0.7,118.2,0.8,118.1"/>
	<path class="st0" d="M2.1,119.8C2.1,119.8,2.1,119.8,2.1,119.8L2.1,119.8z"/>
	<path class="st0" d="M13.4,133.7C13.4,133.7,13.4,133.7,13.4,133.7C13.4,133.7,13.4,133.7,13.4,133.7"/>
	<polygon class="st0" points="12.2,134.7 12.2,134.7 12.1,134.7 	"/>
	<path class="st0" d="M4,122.3L4,122.3C4,122.3,4,122.3,4,122.3"/>
	<path class="st0" d="M7.4,126.1c0.2-0.2,0.3-0.1,0.5-0.3C7.8,125.9,7.5,126,7.4,126.1"/>
	<path class="st0" d="M1.3,117.2C1.3,117.2,1.3,117.2,1.3,117.2C1.3,117.2,1.3,117.2,1.3,117.2"/>
	<polygon class="st0" points="7.9,125.8 7.9,125.8 8,125.8 	"/>
	<path class="st0" d="M5,123.1C5.1,123,5.1,123,5,123.1C5.1,123,5.1,123,5,123.1"/>
	<path class="st0" d="M4.6,122.1L4.6,122.1C4.7,122.1,4.7,122.1,4.6,122.1"/>
	<path class="st0" d="M5.7,123.2C5.6,123.2,5.6,123.3,5.7,123.2C5.7,123.2,5.7,123.2,5.7,123.2C5.7,123.2,5.6,123.2,5.7,123.2"/>
	<path class="st0" d="M6,123.6C6,123.6,6,123.6,6,123.6L6,123.6L6,123.6z"/>
	<path class="st0" d="M12.8,132c-0.1,0-0.2,0.1-0.2,0.1C12.8,132,12.9,132.1,12.8,132"/>
	<path class="st0" d="M1.2,117.2C1.2,117.2,1.2,117.2,1.2,117.2L1.2,117.2C1.2,117.2,1.2,117.2,1.2,117.2"/>
	<path class="st0" d="M7.4,121.8L7.4,121.8C7.4,121.8,7.4,121.8,7.4,121.8"/>
	<path class="st0" d="M11.3,128.2L11.3,128.2C11.3,128.2,11.3,128.2,11.3,128.2"/>
	<path class="st0" d="M7.6,122c-0.1,0.1-0.1,0.1-0.1,0.2c0,0,0,0,0.1,0L7.6,122z"/>
	<path class="st0" d="M12.6,132.1L12.6,132.1L12.6,132.1z"/>
	<path class="st0" d="M13.4,132.5c0-0.1-0.4,0.1-0.6,0.1c-0.1-0.1,0.2-0.1,0.4-0.2c-0.1,0-0.5,0-0.5,0c0.1,0,0.1,0,0.2,0
		c-0.3,0-0.1-0.2-0.4-0.2c0,0,0.1,0,0.1,0c-0.2,0.1-0.4,0.1-0.5,0.2c0,0-0.2,0,0-0.1c0,0,0.1,0,0.2,0l-0.1,0c0.3-0.1,0.1,0,0.4-0.1
		c-0.1,0-0.4,0-0.4-0.1c0.3-0.1,0.2,0.1,0.4-0.1l-0.1,0.1c0.5-0.2,0,0.1,0.5-0.2c0.1-0.2-0.2-0.1-0.1-0.2c-0.2,0-0.3,0.1-0.4,0.1
		c-0.4-0.1,0.8-0.4,0.3-0.4c-0.2,0-0.6,0.2-0.5,0l0.4-0.1c0-0.1-0.5,0.1-0.3-0.1c0.1,0,0.2,0,0.2,0c0.3-0.2-0.2,0-0.2,0l0.3-0.1
		c-0.1-0.1-0.4-0.2-0.5-0.3c0.1,0,0.2,0,0.3-0.1c-0.2-0.1-0.1-0.4,0-0.6l-0.3,0c0,0,0.1-0.1,0.2-0.1c0.1-0.1-0.2,0.1-0.3,0.1
		c0,0,0.1-0.1,0.2-0.1c-0.3,0-0.6-0.1-0.4-0.3l0.1,0c0.1-0.1-0.6,0.1-0.4-0.1l0.1,0c0-0.2-0.3-0.3,0-0.7c-0.4,0.1,0.1-0.3-0.5,0
		c0.2-0.2,0.3-0.2,0.4-0.5c0-0.1-0.4,0.1-0.4,0.1l0.3-0.1l-0.3,0.1l0.3-0.2l-0.1,0c0,0-0.1,0.1-0.2,0.1c-0.2,0,0.1-0.3,0.2-0.3
		l-0.3-0.1c0.1-0.1,0.2,0,0.2-0.1c-0.3,0,0.3-0.2,0-0.1c-0.1,0-0.2,0.1-0.2,0.1c0.1-0.1,0.1-0.2,0-0.3l0.2-0.1
		c0-0.2-0.2-0.2-0.3-0.4c-0.1,0.1-0.4,0.3-0.4,0.2l0.3-0.2c-0.2,0.1-0.1,0.1-0.3,0.2c0-0.1,0.3-0.2,0.4-0.2l-0.1,0
		c0.1-0.1,0.1-0.1,0.2-0.1c-0.2,0.1,0.2-0.3-0.1-0.1l0.1-0.1c-0.1-0.1-0.2-0.2-0.3-0.3c-0.2,0.1-0.2,0.1-0.4,0.1
		c0-0.1,0.2-0.3,0.1-0.4c-0.2,0-0.2,0.1-0.4,0.2c0.2-0.1,0.1-0.2,0.3-0.3c-0.1-0.1-0.1-0.1-0.4-0.2c-0.1,0.1-0.1,0.1-0.2,0.1
		c-0.1,0,0.1-0.1,0.2-0.2l0,0c-0.4,0,0.4-0.8-0.1-0.6l0,0l-0.3,0c0-0.1,0.2-0.1,0.3-0.2c-0.5,0.1-0.1-0.3-0.4-0.2
		c0.6-0.5-0.3-0.3,0-0.7l-0.1,0.1c-0.2,0.1,0.1-0.1,0.1-0.1c-0.1,0.1-0.1,0.1-0.2,0.2c-0.4-0.2-0.2-0.7-0.3-1.1
		c0-0.1-0.8,0.5-0.5,0.1l0.3-0.2c-0.5,0-0.3-0.4-0.7-0.4c0.1,0,0.1-0.1,0.2-0.1c0.2-0.2-0.1-0.2-0.3,0c0,0,0.1-0.1,0.2-0.2
		c0.1-0.1-0.3,0.1-0.2-0.1c0,0,0.1,0,0.1,0c-0.1,0-0.1-0.1-0.3,0.1c0-0.2-0.2-0.1-0.1-0.2c-0.3,0.2,0-0.2-0.3,0.1
		c0.4-0.3,0.2-0.4,0-0.3c0.1-0.1,0.1-0.1,0.2-0.2c-0.1,0-0.2,0-0.3,0.1c0.3-0.4-0.5,0.1,0-0.4c-0.3,0-0.6,0-0.8-0.1
		c0.3-0.3,0.2,0.1,0.5-0.2c-0.3,0-0.6,0.2-0.6,0c0-0.1,0.2-0.1,0.2-0.2c-0.2,0-0.2-0.3-0.5-0.2c0,0,0.1,0,0.1-0.1c0,0,0-0.1-0.1,0
		l0.1,0c-0.2,0.2-0.5,0.4-0.6,0.5c0.5-0.4,0-0.2,0.6-0.7c0,0-0.1,0.1-0.2,0.2c0,0,0.1-0.1,0.2-0.2c-0.2,0-0.3,0.2-0.3,0.1
		c0.1-0.1,0.1-0.1,0.2-0.2c-0.2,0.1-0.3,0.2-0.3,0.1c0,0,0.1-0.1,0.1-0.1c-0.1-0.1-0.5,0.2-0.5,0c0.3-0.3,0.1-0.1,0.3-0.4l-0.1,0
		L5,120.2c0-0.1-0.3,0.1-0.2,0l0.1-0.1l-0.1,0l0,0.2c-0.2,0.1-0.3,0.3-0.3,0.2c0,0,0,0,0.1-0.2l0,0c-0.1,0.1-0.2,0.1-0.2,0
		c0.1-0.1,0.3-0.3,0.3-0.4c-0.2,0.2-0.2,0-0.4,0.2c0.1,0,0.2-0.2,0.2-0.2L4.2,120c0-0.1,0.1-0.1,0.2-0.2c0-0.1-0.3,0.4-0.2,0.1
		c0,0,0,0,0.1-0.1c0-0.2-0.3,0-0.3-0.2c0.2-0.3,0.1,0,0.3-0.3c-0.2-0.1-0.5,0.1-0.6,0l0,0c-0.4,0.4,0.1-0.3-0.1-0.1
		c0,0,0.2-0.2,0.2-0.2c0-0.1-0.2,0-0.5,0l0.1-0.1c0-0.1-0.1-0.2-0.1-0.2c-0.1,0.1-0.1,0.1-0.2,0.2c0.3-0.7-0.6,0.1-0.3-0.5
		c0,0,0.1-0.1,0.1-0.1l-0.2,0c-0.1,0.2-0.1,0.1-0.2,0.3c-0.1,0.1-0.2,0.2-0.2,0.1c0.1-0.1,0.2-0.3,0.3-0.4c0,0.1-0.1,0.1-0.1,0.2
		c0.2-0.4-0.3,0.4-0.2,0.1l0.1-0.1c-0.1,0-0.2,0.1-0.2,0.1c0.1-0.2,0.1-0.1,0.2-0.2c-0.1,0-0.4,0.3-0.3,0.1c0.1,0,0.1,0,0.2-0.1
		c0.1-0.3,0.1-0.2,0.1-0.3l0,0v-0.2l0,0.1c-0.5,0.5-0.2,0-0.6,0.3c0.3-0.3,0.2-0.2,0.3-0.4c0-0.1,0.1-0.2,0.1-0.2
		c-0.2,0.2,0-0.2-0.2,0c0.1-0.1,0,0,0.1-0.2c-0.1,0-0.1,0.1-0.2,0.2c-0.3,0.2,0-0.5-0.3-0.2c-0.2,0.1-0.4,0.3-0.6,0.4
		c0.1-0.2,0.2-0.3,0.2-0.3c0-0.2,0-0.2-0.1-0.1c0.1-0.1,0.1-0.1,0.1-0.2c-0.1,0-0.2,0.3-0.2,0.1c0.1-0.1,0.2-0.2,0.3-0.3
		c-0.1,0-0.2,0.2-0.3,0.2c0.1-0.2,0.2-0.2,0.2-0.3c-0.1,0-0.2,0-0.4,0.2l0,0.1c0,0,0.1-0.2,0.2-0.2c0.2-0.1,0,0.1,0,0.2l-0.1,0
		c-0.3,0.5,0.2,0,0.2,0.1l-0.3,0.3l0.3-0.2c0,0.1-0.2,0.3-0.2,0.3c-0.1,0.2,0.1-0.1,0,0.1c0,0,0,0,0,0.1l0.1-0.1
		c-0.1,0.1-0.2,0.2-0.2,0.2c-0.1,0.3,0.3-0.2,0.2,0.1l0,0c0.2,0,0.2-0.2,0.5-0.5L1,118.6l0.2-0.2c0,0,0,0.1-0.1,0.1
		c0.2-0.1,0.1-0.1,0.2-0.3c-0.1,0.3,0.2,0,0,0.4c0.2-0.2,0.1-0.2,0.2-0.3c-0.3,0.4,0.1,0,0,0.2c-0.2,0.2-0.1,0.1-0.2,0.3
		c0.3-0.3,0,0.2,0.1,0.1c0.2-0.3,0.2-0.1,0.3-0.1c-0.1,0.1,0,0.3,0,0.4l0,0c0.2-0.3,0.3-0.2,0.4-0.2c-0.1,0.2-0.2,0.2-0.3,0.3l0,0
		c0.1-0.1,0.1-0.1,0.2-0.1l-0.2,0.2c0.1,0,0.3-0.2,0.3,0c0.2-0.2,0.4-0.6,0.6-0.7c-0.1,0.1-0.2,0.3-0.3,0.3c0,0,0.1-0.1,0.1,0
		l-0.2,0.2c0,0.1,0.1-0.1,0.2-0.1c-0.1,0.2-0.1,0.1-0.2,0.2c0,0,0-0.1,0,0c0,0.1,0,0.2-0.1,0.3c0.1-0.1,0.2-0.2,0.2-0.2
		c0.1,0-0.1,0.2-0.2,0.3c0.1-0.1,0,0,0.2-0.2c0,0-0.1,0.1-0.1,0.2c0.1-0.1,0.2,0.1,0.3-0.2l0,0c0,0,0,0,0,0c0.3-0.1,0.1,0.3,0.3,0.3
		L2.9,120c0.1,0,0.2,0.1,0.4-0.1c0,0-0.1,0.2-0.2,0.3c0.1,0,0.2-0.1,0.1,0.1c-0.2,0.1-0.1,0.1-0.1,0.1c0,0.1-0.1,0.2,0.1,0.1
		c-0.2,0.2-0.2,0.3-0.1,0.2l0.1-0.2c0.1,0,0.1,0,0.1,0.1L3,120.8c-0.2,0.4,0.7-0.3,0.3,0.3c0.2-0.1,0-0.2,0.3-0.4
		c0,0.1-0.2,0.5-0.2,0.5c-0.1,0.2,0.4-0.3,0.4-0.1c0.1-0.1,0.3-0.3,0.4-0.4c0,0.1-0.3,0.4-0.4,0.5c0,0,0,0,0-0.1c0,0-0.1,0-0.2,0.1
		l0.1-0.1c-0.1,0.1,0,0.2-0.1,0.3c0.1,0,0.2-0.1,0.2-0.2c-0.1,0.2,0.1,0.1,0.1,0.2c0-0.1,0.1-0.2,0.1-0.2c0,0.2,0.2-0.1,0.3-0.1
		c-0.1,0.2-0.3,0.3-0.1,0.3c0,0.1-0.2,0.2-0.3,0.3c0.2-0.1,0,0.2,0,0.3l-0.1,0c0.1,0,0.1,0,0.1,0L4,122c0,0,0,0.1-0.1,0.1
		c0.1-0.1,0.3-0.3,0.5-0.4c-0.1,0.1,0.2,0,0,0.2c0-0.2-0.2,0.2-0.3,0.2c0,0,0.1,0,0,0.1c0,0,0,0-0.1,0c-0.1,0.3,0.3-0.2,0.4-0.1
		c-0.1,0.1-0.2,0.3-0.2,0.2c0,0,0.2-0.2,0.3-0.3c0,0.1,0.1,0,0.1,0l0-0.1c0.1-0.1,0.1-0.1,0.2-0.1c-0.1,0.1-0.1,0-0.1,0.1
		c0.3-0.2-0.1,0.3,0.1,0.2c-0.1,0.1-0.2,0.2-0.3,0.3c0.2-0.1-0.1,0.2,0.1,0.2c0.2-0.2,0.1-0.1,0.3-0.3l-0.2,0l0.3-0.2
		c0,0-0.2,0-0.2,0c0.2-0.1,0.1-0.1,0.3-0.2c-0.2,0.3,0.2,0,0.1,0.2l-0.4,0.4c-0.1,0.3,0.3-0.1,0.3,0.1l0-0.1c0.2-0.1,0.1,0,0.2,0
		c-0.1,0.1-0.2,0.2-0.3,0.3c0.1-0.1,0.1,0.1,0.4-0.2L5.3,123c0,0.2,0.5-0.3,0.5-0.2c-0.2,0.1-0.3,0.2-0.4,0.3c0,0,0,0.1,0.1,0
		c-0.1,0.1,0.3-0.1,0.1,0c0.1,0,0.2-0.2,0.3-0.1c0,0-0.1,0.1-0.1,0.1c0.1-0.1,0.1,0,0.3-0.2c-0.4,0.5,0.2,0.2-0.1,0.6
		c0.1,0,0.2,0.1,0.3,0.1c0,0-0.1,0.1-0.1,0c-0.1,0.2,0.5-0.3,0.4-0.1c-0.2,0.2-0.2,0.1-0.2,0.2c-0.5,0.4,0.2,0.1-0.1,0.3l0,0
		c-0.1,0.2,0.3,0,0.3,0.1c0,0,0,0-0.1,0.1c0.3-0.2,0.5-0.1,0.6-0.1c-0.2,0.1-0.1,0-0.3,0.2c0.1,0,0.3-0.3,0.4-0.2
		c-0.1,0.1-0.2,0.2-0.4,0.4l-0.1-0.1c-0.3,0.2,0.1,0.1,0,0.1l-0.1,0.1c0.1,0.1,0.4-0.2,0.5-0.1l0.1-0.1c0.4-0.2-0.1,0.2,0.1,0.1
		L7,124.9c0.1,0,0.4-0.1,0.5-0.1c-0.3,0.1-0.4,0.1-0.6,0.2c0,0,0.1,0.1,0.3,0c0,0-0.1,0-0.1,0c0.3-0.1,0.5-0.2,0.5-0.1
		c-0.6,0.4,0,0.3-0.5,0.7c0.3,0,0.1,0.3,0.2,0.5c0.5-0.4,0,0,0.5-0.3c0.1,0,0.1,0,0,0.1l-0.2,0.3c-0.1,0.1-0.1,0-0.2,0.1
		c0,0.1-0.2,0.2-0.3,0.3c0.2-0.1,0.3-0.1,0.2-0.1l0.2-0.2c0.3-0.1-0.4,0.4,0,0.3l-0.2,0.1c0.1,0,0.1,0.2,0.6,0
		c-0.1,0-0.2,0.2-0.2,0.1c0,0.2,0.6,0,0.4,0.3L8,127.2c0.1,0,0.3-0.1,0.2,0c-0.1,0-0.1,0.1-0.1,0.1c0.1,0,0.3-0.1,0.2,0l-0.2,0.1
		c-0.1,0.2,0.5,0,0.6,0.1c-0.4,0.2-0.4,0.4-0.5,0.5l-0.1,0c0,0.2,0.5,0.1,0.7,0.2c-0.4,0.3,0,0.4-0.2,0.7c0.1-0.1,0.3-0.2,0.4-0.1
		c-0.1,0.1,0.3,0,0,0.1l0,0c-0.3,0.2-0.2,0.2-0.2,0.3l0.5-0.2c-0.6,0.5,0.4,0.3-0.1,0.7c0.1,0,0.2,0,0.3,0l-0.3,0.1
		c0,0.1,0,0.2,0.1,0.3l-0.2,0.1c0,0.1,0.8-0.2,0.8-0.2l-0.4,0.2c0.1,0.1-0.2,0.4,0.2,0.4c-0.1,0-0.2,0.1-0.2,0.1
		c0,0.1-0.2,0.3,0.4,0.1c-0.3,0.1,0,0.1,0.2,0.1l-0.3,0.1c0.4-0.1,0.4-0.1,0.6-0.1c0,0-0.2,0.1-0.1,0c-0.1,0.1,0.3,0,0.2,0.1l-0.2,0
		c0,0.1,0.1,0,0.3,0c0.1,0,0,0.2-0.2,0.3c0.1,0,0.4-0.1,0.3,0c-0.1,0-0.1,0-0.2,0.1c-0.1,0.2,0.4,0,0.1,0.2c-0.1,0-0.1,0.1-0.2,0.1
		c0-0.1,0-0.2,0-0.2c-0.2,0.1-0.3,0.2-0.6,0.2c0.2,0,0.6-0.1,0.5,0c0,0,0,0-0.1,0l0,0c0,0,0,0,0.1,0c0,0-0.1,0.1-0.1,0.1
		c-0.2,0.1-0.1,0.1-0.1,0.2c0.3-0.1,0.2,0,0.4-0.2c0,0,0,0-0.1,0c0,0,0,0,0,0l0,0c0,0,0,0,0-0.1c0.1,0,0.3,0,0.1,0.1
		c0.2,0,0.4-0.1,0.4-0.1c-0.4,0.2-0.5,0.3-0.7,0.4c0.2,0.1,0.2,0.2,0.7,0.1c0.1,0-0.1,0.1-0.2,0.1c-0.1,0-0.1,0-0.1,0
		c0.1,0,0.1,0.2,0.5,0.1c-0.1,0.1-0.3,0.1-0.2,0.2l-0.1,0c-0.5,0.4,1,0.1,0.4,0.5c0,0,0.1,0,0.1-0.1c-0.2,0.4,0.5,0.5,0,0.9
		c-0.1,0.1,0.1,0.1,0.3,0.1l-0.3,0.1l0.4,0c0.3,0.1-0.7,0.4-0.2,0.4l0.2-0.1c0,0.1,0.2,0.1-0.1,0.2c0,0,0.2,0,0.1,0l-0.2,0l0.3,0.1
		c-0.1,0.1-0.6,0.1-0.6,0.3c0.1,0,0.5,0.1,0.6,0c0,0,0.1-0.1,0.2-0.1l0.1,0c0.5-0.1,0.9-0.2,1.2-0.3l-0.3,0l0.2-0.1l0,0.1
		c0.2-0.1,0-0.1-0.1-0.1c0.1,0,0.2-0.1,0.2-0.1l-0.5,0c0.2-0.1,0.4,0,0.4-0.1c-0.2,0-0.4,0.1-0.5,0.1c0.2-0.1,0.4-0.1,0.2-0.1
		c0.1,0,0.2,0,0.2,0c-0.2,0-0.1-0.1-0.3-0.1c0.2-0.1-0.1-0.1,0.3-0.2c-0.1,0-0.4,0-0.4,0c0.5-0.1,0-0.2,0.5-0.3
		c-0.5,0.1-0.3-0.2-0.5-0.2c0,0,0.1,0,0.1,0c0-0.1,0.2-0.1,0.2-0.2c-0.4,0.1-0.5,0-0.7,0.1c0.3-0.2,0.5-0.1,0.8-0.2
		c-0.3,0.1-0.3,0-0.6,0.1c0.2-0.1,0.1-0.1,0.4-0.2c-0.5,0.1-0.1,0-0.4,0c0.2-0.1,0.4-0.1,0.3-0.2C13.2,132.5,13.4,132.5,13.4,132.5
		 M12,130.8L12,130.8C12,130.8,12,130.9,12,130.8C12,130.9,12,130.9,12,130.8 M11.9,130.7C11.9,130.7,11.9,130.7,11.9,130.7
		c-0.1,0.1-0.2,0.1-0.2,0.1C11.8,130.8,11.8,130.7,11.9,130.7 M10.2,131.7C10.1,131.7,10.2,131.6,10.2,131.7c0.1-0.1,0.1,0,0.1,0
		l0,0C10.3,131.7,10.2,131.7,10.2,131.7"/>
	<path class="st0" d="M10.5,131.6C10.5,131.6,10.6,131.6,10.5,131.6C10.6,131.6,10.6,131.6,10.5,131.6L10.5,131.6L10.5,131.6z"/>
	<path class="st0" d="M2.6,119.7L2.6,119.7C2.6,119.7,2.6,119.7,2.6,119.7C2.6,119.7,2.6,119.7,2.6,119.7"/>
	<polygon class="st0" points="11.5,128.3 11.4,128.4 11.5,128.3 	"/>
	<path class="st0" d="M2.5,118.4C2.5,118.4,2.5,118.3,2.5,118.4C2.5,118.3,2.5,118.4,2.5,118.4"/>
	<path class="st0" d="M2.2,118.1l0-0.1C2.2,118,2.2,118.1,2.2,118.1"/>
	<path class="st0" d="M2.1,117.8C2,117.8,2,117.9,2.1,117.8L2.1,117.8L2.1,117.8z"/>
	<path class="st0" d="M6,120.8C6,120.8,6,120.8,6,120.8C6.1,120.8,6,120.8,6,120.8"/>
	<path class="st0" d="M4.5,120.2c0,0,0.1-0.1,0.1-0.1C4.6,120.1,4.6,120.1,4.5,120.2"/>
	<polygon class="st0" points="7.4,121.8 7.3,121.8 7.4,121.8 	"/>
	<path class="st0" d="M4.7,120.2C4.7,120.1,4.7,120.1,4.7,120.2C4.6,120.2,4.6,120.2,4.7,120.2"/>
	<path class="st0" d="M1.1,116.9L1.1,116.9C1,116.9,1,117,1.1,116.9L1.1,116.9z"/>
	<path class="st0" d="M1,117L1,117C1,117,1,117,1,117"/>
	<path class="st0" d="M0.9,117L0.9,117C1,117,1,117,0.9,117"/>
	<path class="st0" d="M1.3,117.3L1.3,117.3C1.4,117.2,1.3,117.2,1.3,117.3"/>
	<path class="st0" d="M1.4,117.3c0,0,0.1-0.2,0-0.2l0,0.1C1.5,117.1,1.3,117.4,1.4,117.3"/>
	<path class="st0" d="M1.1,118.6l0-0.1c0,0.1-0.1,0.2-0.2,0.2C0.8,119.1,1.1,118.5,1.1,118.6"/>
	<path class="st0" d="M1.3,118.9c-0.1,0-0.1,0.1-0.1,0.2C1.2,119.1,1.3,119,1.3,118.9"/>
	<path class="st0" d="M3,120.3l-0.2,0.2C2.9,120.5,2.9,120.4,3,120.3"/>
	<polygon class="st0" points="4.2,119.6 4.3,119.5 4.1,119.6 	"/>
	<polygon class="st0" points="3.2,121.1 3.1,121.1 3.2,121.1 	"/>
	<path class="st0" d="M5.7,123.7l0.2-0.2C5.9,123.5,5.6,123.7,5.7,123.7"/>
	<path class="st0" d="M7,124.7c-0.1,0.1-0.2,0.2,0,0.1C6.9,124.8,7,124.7,7,124.7"/>
	<polygon class="st0" points="9,129 8.9,129.1 9,129.1 	"/>
</g>
</svg>
