<?xml version="1.0" encoding="utf-8"?>
<!-- Generator: Adobe Illustrator 19.0.0, SVG Export Plug-In . SVG Version: 6.00 Build 0)  -->
<svg version="1.1" id="Layer_1" xmlns="http://www.w3.org/2000/svg" xmlns:xlink="http://www.w3.org/1999/xlink" x="0px" y="0px"
	 viewBox="0 0 39.4 121.6" style="enable-background:new 0 0 39.4 121.6;" xml:space="preserve">
<style type="text/css">
	.st0{clip-path:url(#SVGID_2_);fill:#484F57;}
</style>
<g>
	<defs>
		<rect id="SVGID_1_" y="0" width="39.4" height="100.6"/>
	</defs>
	<clipPath id="SVGID_2_">
		<use xlink:href="#SVGID_1_"  style="overflow:visible;"/>
	</clipPath>
	<path class="st0" d="M24.8,94c0,0.1-0.2,0.1-0.3,0l0.2-0.2L24.8,94z"/>
	<path class="st0" d="M23.6,93.4c0-0.2,0.1-0.5,0.5-0.6c-0.2,0.3,0,0.3-0.2,0.6c0.1,0.2,0.3,0.2,0.4,0.1c0,0.1,0.2,0.2,0.1,0.3
		c-0.3-0.1-0.5-0.3-0.5-0.6C23.7,93.2,23.7,93.3,23.6,93.4"/>
	<path class="st0" d="M14.6,79.5L14.6,79.5C14.7,79.6,14.7,79.5,14.6,79.5"/>
	<path class="st0" d="M9.8,70.6c0,0.1,0,0.1,0,0.1C9.7,70.7,9.7,70.6,9.8,70.6"/>
	<path class="st0" d="M8.7,69.2C8.7,69.2,8.7,69.2,8.7,69.2C8.7,69.2,8.7,69.2,8.7,69.2"/>
	<path class="st0" d="M14.6,79.5l-0.2-0.2C14.5,79.3,14.6,79.4,14.6,79.5"/>
	<path class="st0" d="M23.1,91.2c0,0.1,0,0.1,0,0.2C23.1,91.3,23,91.2,23.1,91.2L23.1,91.2z"/>
	<path class="st0" d="M16.6,83.5L16.6,83.5c0,0.1,0,0.1,0,0.2L16.6,83.5z"/>
	<path class="st0" d="M18.3,86.5c0-0.1,0.2-0.2,0.3-0.3c-0.1,0.1-0.1,0.1-0.1,0.2C18.4,86.5,18.4,86.5,18.3,86.5"/>
	<path class="st0" d="M21.6,91L21.6,91C21.6,91,21.6,91,21.6,91"/>
	<path class="st0" d="M15.3,81.4c0,0-0.1,0-0.1,0C15.2,81.4,15.3,81.4,15.3,81.4"/>
	<path class="st0" d="M35.8,3.3C35.8,3.3,35.8,3.3,35.8,3.3C35.8,3.3,35.9,3.3,35.8,3.3"/>
	<path class="st0" d="M39,0.4L39,0.4c-0.1,0-0.1-0.1-0.2-0.1L39,0.4z"/>
	<path class="st0" d="M7,66.4L7,66.4C7,66.5,7,66.5,7,66.4"/>
	<path class="st0" d="M0.4,38.9c0.2,0.3,0.4-0.5,0.6,0C0.9,38.8,0.5,39.3,0.4,38.9"/>
	<path class="st0" d="M23,91.1c0,0,0-0.1-0.1-0.1C22.9,91,23,91.1,23,91.1"/>
	<path class="st0" d="M1,38.8L1,38.8L1,38.8C1,38.9,1,38.9,1,38.8"/>
	<path class="st0" d="M4.3,59.8c0.1,0,0.1,0,0.1,0C4.4,59.8,4.4,59.8,4.3,59.8"/>
	<path class="st0" d="M6.7,64.6l-0.1-0.1C6.7,64.5,6.7,64.6,6.7,64.6"/>
	<path class="st0" d="M3.7,57.1c0-0.1-0.1-0.1-0.1-0.2c0,0,0,0,0,0C3.6,56.9,3.6,57,3.7,57.1"/>
	<path class="st0" d="M2.7,54.3C2.7,54.3,2.8,54.3,2.7,54.3c0.1,0.1,0.1,0.1,0.1,0.1L2.7,54.3z"/>
	<path class="st0" d="M27.2,8c0-0.1,0-0.2,0-0.2C27.3,7.9,27.7,7.7,27.2,8"/>
	<path class="st0" d="M22.9,91.2c0.1,0,0.1-0.1,0.1-0.1L22.9,91.2C23,91.2,23,91.2,22.9,91.2"/>
	<path class="st0" d="M5.7,56.4L5.5,56C5.6,56.1,5.7,56.3,5.7,56.4"/>
	<path class="st0" d="M10,21.8l0.1-0.1C10.1,21.7,10.1,21.8,10,21.8"/>
	<path class="st0" d="M5.1,54.7c-0.1-0.1-0.2-0.1-0.3-0.2c0,0,0,0,0.1-0.1L5.1,54.7z"/>
	<path class="st0" d="M27.2,7.7L27.2,7.7L27.2,7.7z"/>
	<path class="st0" d="M30.5,6.5c0,0-0.5,0.1-0.4-0.1c0.5-0.1,0.1-0.1,0.3-0.5c0.4,0.1,0.4-0.3,0.7,0c0-0.3,0-0.2,0.1-0.5
		c0,0.2,0.6-0.1,0.8,0.1C32,5.2,31.4,5.4,31.5,5c0.4,0,0.9-0.1,1.1,0.1c0.1-0.2,0.1-0.3,0.4-0.5c0,0-0.1,0-0.2,0
		c0.6-0.1,1.2-0.7,1.8-0.5c-0.4-0.3,1-0.6,0.4-0.8c0.2-0.1,0.7-0.1,0.8-0.1c-0.3-0.3,0.5-0.3,0.6-0.6c0.3,0.1,0.6-0.1,0.9-0.2
		c-0.1,0-0.2,0-0.3-0.1c0.4,0,0.2-0.1,0.3-0.4c0.4-0.1,0.1,0.3,0.4,0.3c0.3-0.2-0.1-0.2-0.1-0.4L38.3,2c0.1-0.1,0.1-0.2,0.1-0.3
		c0.2,0,0.5,0.1,0.6-0.2l-0.4,0.2l0-0.2l0.6,0c0.5-0.6,0.1-0.8-0.2-1.1l-0.3,0.1c-0.1-0.1,0.1-0.3,0.2-0.3c0.1-0.1-0.7-0.1-1,0
		c-0.8,0.4,0.1,0.5-0.4,0.8l-0.9,0.2l0.1,0.1c-0.1,0.1-0.2,0-0.3,0c0.2,0.1-0.5,0.3-0.8,0.5l0-0.2c-1.1,0.1-1,1-1.8,1.2l-0.6,0
		L33.2,3c-0.4,0-0.5-0.1-0.9,0.2c-1.2,1.2-3.2,1.6-4.5,2.7c0-0.1,0-0.1,0.1-0.2c-0.8,1.3-2.5,0.7-3.3,1.8l0.1,0
		c-0.6,0.3,0.1,0-0.2,0.4c-0.3-0.2-0.9,0.3-1.3,0.4c0.1,0,0.2-0.1,0.3-0.1c0,0.1,0.1,0.3-0.1,0.3c-0.7-0.1-1.5,0.4-2.1,0.7
		c0.1,0.2-0.3,0.7-0.3,1.1c-0.1,0-0.3-0.1-0.5-0.1c-0.1,0.2-0.3,0.3-0.6,0.3c0.2-0.1,0.3-0.2,0.5-0.3l0,0c0,0,0.1,0,0.1,0
		c0.1-0.1,0.2-0.1,0.2-0.1c0.1-0.3-0.1-0.1-0.3-0.3c-0.2,0.1-0.6,0.4-0.5,0.5c-0.1,0.1-0.2,0.2-0.2,0.3c-0.1,0-0.2,0.1-0.3,0.1
		l0.1,0c0,0,0,0.1,0,0.1c-0.3,0.3-1.1,0.4-1.5,0.5c0.5,0,0.2,0.3,0.4,0.5c0,0,0.3-0.3,0.8-0.6c0,0,0,0.1,0,0.2
		c-0.2,0.5-0.8,0.3-1.3,0.9c0.1,0,0.2,0,0.2,0.1c-0.2,0.2-0.5,0.2-0.6,0.1c0.1,0.2-0.2,0.6-0.5,0.7c-0.3,0-0.4-0.1-0.7,0.2l0.3,0
		c-0.3,0.4-0.5,0.1-0.7,0.4c0.1-0.1,0.2,0,0.1,0.1c-0.5,0.3-0.5,0.2-1.1,0.2l0.3,0.1c-0.5,0.2-1.3,0.5-1.1,0.7
		c-0.3-0.4-0.9,0.5-1.2,0.7c0.1-0.1,0.2,0,0.3,0c-0.9,0.3-1.2,1.1-1.8,1.6l0.2,0.3c-0.3,0.3-1.1-0.1-1.4,0.3l0.3,0
		c-0.6,0.6-0.8,0.8-1.2,1.4l0.2,0.1c-0.3,0.1-0.5,0.3-0.7,0.4c0.1,0.4-0.3,0.7-0.8,1.1c-0.4,0.4-0.9,0.9-0.8,1.5l-0.5-0.2
		c-0.2,0.3-0.6,0.6-0.4,0.9l0-0.1c0.4,0.1-0.2,0.3-0.3,0.5c-0.1,0.1-0.5,0.2-0.5,0c-0.3,0.9-1.3,2.1-1.2,2.7
		c-0.7,0.7-1.3,1.3-1.7,2.2l0.1,0c-0.1,0.3-0.2,1,0.2,1.1c-0.4,0.6-1.1,0.9-1.2,1.8l0.2-0.1c0,0.2-0.3,0.5-0.4,0.6
		c0,0.1,0.1,0,0.1,0c0.1,0.2-0.2,0.3-0.3,0.4l0.2,0c0,0.4-0.2,0.8-0.4,1.2c-0.2,0.4-0.4,0.9-0.5,1.3c0.1-0.2,0.2,0,0.3,0
		c-0.6,0.3-0.6,1.3-0.8,1.6l0.2-0.2c-0.4,0.7,0.3,0.7,0,1.3l-0.2-0.4c0.1,0.3-0.1,0.5-0.3,0.4c0.1,0.4,0.4,0.1,0.4,0.6
		c0.1,0,0.1-0.4,0.3-0.2L1,38.8c0,0,0,0.1,0,0.3c-0.6-0.1-0.1,0.6-0.6,0.2c-0.1,1,0.2,1.8,0,2.7c0.6,0.3,0.1,1.7,0.8,1.6
		c0,0.5-0.1,0.9-0.4,1.2c-0.1-0.1,0-0.2,0.1-0.3c-0.2,0.1-0.2,0.7-0.1,1c0.1-0.3,0.2-0.8,0.5-1.1c-0.1,0.4-0.3,1.1-0.3,1.3l0.4,0.1
		c-0.2,0.4,0.4,0.3,0,0.7l-0.1-0.1c0.1,0.7-0.3,0.7-0.2,1.3l0.1,0c0.1,0.2-0.2,0.6,0.2,0.7l0-0.4c0.3,0,0.4,0.3,0.6,0.4
		c0,0.4-0.4,0.2-0.4,0.4c0.3,0.1,0.1,0,0.4-0.2c0,0.5,0,1.1-0.2,1.5c0,0,0.1,0,0.1,0c0.2,0.5-0.2,1,0.1,1.3l0-0.1
		c0.4,0.3-0.1,1.1,0.6,1c0.2,0.2-0.2-0.4,0.2-0.2c0.4,0.5-0.4,0.5-0.1,1c0-0.1,0-0.1,0.1-0.1c0.1,0.4,0.2,0.9,0.2,1.3
		c0.7,0.4,0.4,1.5,1.2,2c-0.3-0.1-0.2,0.2-0.3,0.2c0,0,0,0,0.1,0c0.1,0.2-0.1,0.3-0.2,0.4c0.2,0.1,0,0.6,0.2,0.7c-0.1,0,0,0.2,0,0.4
		c0-0.4,0.2-0.2,0.4-0.4c0.3,0.5-0.3,0.8,0,1.3l0.4,0.2c-0.4,0.2,0,0.6-0.1,0.7c0.2,0.1,0.3,0.2,0.5,0.1c0,0.3,0.3,0.5,0.1,0.7
		l-0.2-0.2c0.4,0.7,0.1,1.2,0.5,1.7l0.6-0.2c0.4,0.3,0,0.7,0.4,1c-0.2-0.1-0.2-0.1-0.3,0.2C6,62.9,6,62.6,5.9,62.4L5.8,63l-0.2-0.8
		c-0.1,0.4,0,0.3-0.3,0.3c0,0.5,0.5,0.4,0.4,0.9c0.1,0.1,0.3-0.1,0.5,0.1c0,0.4,0.7,0.6,0.5,1c0.1,0.1-0.1-0.2,0.1-0.2
		c0.1,0.3,0.2,0.4,0,0.6l-0.2-0.2c0.1,0.2-0.1,0.3,0.2,0.6c0,0.2-0.3,0.4-0.4,0.2c0,0.1,0.2,0.3,0.4,0.1c0.3,0.5-0.5,0.4,0,0.9
		c0,0,0-0.1,0.1-0.1c0.1,0.1,0.2,0.2,0.2,0.3c-0.2-0.5,0.5,0,0.2-0.5c0.3,0,0.3,0.4,0.4,0.5c-0.1,0.3-0.4,0.2-0.5,0.3
		c0.1,0,0.1,0.1,0.2,0.2l-0.3-0.1c0.1,0.1,0.1,0.2,0.1,0.4l0-0.3c0.2,0.2,0.7,0.5,0.7,1c0-0.1,0.1-0.4,0.4-0.2
		c0.1,0.5,0.1,0.1,0.4,0.3C9,68.9,8.5,68.6,9,69.3c0,0.1-0.1,0-0.2,0C9.1,69.7,9,70,9.4,70.4c-0.2-0.2-0.3-0.3-0.3,0
		c0.1-0.2,0.3,0.3,0.5,0.5l-0.1,0.1c0.2,0.1,0.2-0.1,0.1-0.2c0,0-0.1,0-0.1-0.1c0-0.3,0.4-0.3,0.6,0c0.1,0.4-0.2,0.5-0.4,0.4
		c0.4,0.5-0.3,0.6,0.1,1.1c0.1,0.1,0.7,0.3,0.9,0.7c-0.2,0.3-0.4-0.4-0.5-0.1c0.9,0.4,0.2,1.3,1,2l0.3-0.2c0.1,0.2,0.2,0.3,0.3,0.5
		l-0.3-0.2c0,0.2,0.3,0.6,0.5,0.4c0,0.5,0.2,0.5,0.4,0.9c-0.2-0.4,0,0,0-0.3c0.4,0.4,0.3,0.4,0.4,0.7c0.1-0.1,0.3,0,0.4,0.1
		c-0.1,0.3,0.2,0.8,0.3,1.2l0.1,0c0.2,0.7,1,1.2,1.1,1.9v0v0c0,0,0,0,0,0l0,0c-0.4-0.1,0.1,0.6,0.1,0.8c0.1,0,0.2,0,0.3,0.1
		c-0.3,0.1,0,0.3-0.1,0.4c0.2,0.2,0.3-0.1,0.5,0.2c0.1,0.1-0.1,0.2-0.2,0.2c0.2,0,0.4,0.2,0.6,0.4c0-0.1-0.1-0.2-0.1-0.2
		c0.1-0.1,0.2,0.1,0.3,0c0.1,0.2-0.2,0.2,0,0.3l0.1-0.3c0.1,0.1,0.1,0.2,0.1,0.3c0-0.1,0.2-0.2,0.3-0.2c0.1,0.6-0.5,0.3-0.7,0.4
		c0.4,0.4,0.4,0.9,0.6,1.3l0.2-0.2c0.1,0.2,0.1,0.3,0,0.4l0.2,0.3c0-0.2,0-0.3,0.2-0.4c0.1,0.3,0.4,0.7,0.1,0.9l0,0
		c0.3,0.3,0.9,1.1,1,1c0.1,0.5,0.6,0.9,0.3,1.1c0.1,0.3,0.8,0.5,0.5,0.8c0.4,0.2,0.1,0,0.3-0.2c0.4,0.2,0,0.7,0.6,0.6
		c0.1,0.4-0.1,0-0.3,0.2c0.5-0.1,0.5,0.6,0.9,0.8c-0.1,0.2-0.2-0.1-0.2,0.2c0.1-0.1,0.2,0.1,0.2,0.1l-0.2,0.2l0.9,0
		c0,0.6-0.5,0.1-0.2,0.8l0,0c0.4,0.1,0.1,0.5,0.6,0.9c-0.2-0.1,0.1-0.1,0.1-0.2l0.1,0.3c0,0,0,0,0.1,0c0.3,0.1,0,0.2,0.4,0.4
		c-0.1-0.2,0.2-0.2,0.3-0.2l-0.1,0.5l0.3-0.3c0.3,0.3,0,1.1,0.7,1.1l-0.1-0.2c0.1,0,0.4,0,0.4,0.3c0,0.1-0.2,0.2-0.2,0.1l0.2,0.1
		c0.2-0.2-0.1-0.7-0.2-1c0,0.1,0,0.4-0.2,0.4c-0.1-0.3-0.1-0.6-0.2-0.9c0,0.1-0.1,0.3-0.2,0.4c-0.3-0.2,0-0.3-0.1-0.5
		c-0.1,0-0.2-0.1-0.3,0c-0.1-0.3-0.2-0.5-0.5-0.7c0,0,0,0.4-0.2,0.3c-0.2-0.6,0-0.8-0.1-1.4c0-0.8-1-1.1-1-1.7
		c0.1-0.1,0.4,0.2,0.3-0.1c-0.2,0.1-0.2-0.1-0.3-0.1c0.1-0.4-0.4-0.4-0.3-0.7c0,0.1-0.2-0.1-0.4-0.2c-0.2,0.1-0.3-0.3-0.4,0.3
		c0.1-0.6-0.6-0.8-0.2-1.4l0.1,0.1l-0.4-0.4l0,0C18.9,85,19,85,18.5,84.8c0,0.1,0.1,0.3,0.1,0.5c-0.4-0.2-0.1-0.6-0.3-0.9
		c-0.2,0.1,0.1,0.3-0.2,0.3c-0.1-0.2-0.1-0.4-0.2-0.6l-0.1,0.1c-0.5-0.4,0.4-0.4-0.2-0.6c0.1,0,0.1-0.1,0.2-0.1
		c-0.2-0.1-0.6-0.3-0.5,0c-0.1-0.2-0.1-0.4,0-0.5c0.2,0.1,0.2,0.2,0.4,0.1l-0.3-0.7c0-0.1-0.1,0.1,0,0.2c-1-0.6-0.5-1.8-1.7-2.5
		c0.2,0,0.1-0.1,0.2-0.3c-0.2-0.3-0.4-0.7-0.7-1l-0.1,0.1c-0.2-0.8-0.3-1.3-0.7-1.8c0,0-0.2,0.1-0.2,0.2c0-0.4-0.9-0.6-0.5-0.9
		l0.1,0.1c-0.4-0.7-0.5-1.6-0.8-2.3c-0.4-0.1,0.2,0.4-0.2,0.4c-0.4-0.5-0.4-1-0.8-1.6c0,0.1,0,0.1,0,0.1c-0.5-0.5,0.3,0,0-0.5
		c-0.1,0.1-0.2,0.1-0.3-0.1l0.2-0.2c0,0-0.2,0.1-0.3,0.1c0.2-0.3-0.3-0.8-0.1-1.1c-0.1,0-0.3,0.2-0.4,0.2c-0.2-0.2-0.2-0.4-0.2-0.6
		v0c-0.3-0.1-0.5-0.5-0.5-0.4c-0.3-0.4,0.1-0.1,0.1-0.5l0.3,0.3l-0.2-0.6l0,0.3c-0.3-0.2-0.1-0.6-0.3-0.9l0.2,0.1l-0.1-0.4
		c-0.4,0.1-0.3-0.5-0.6-0.1c-0.5-0.6-0.3-1.2-0.6-1.9c0.1,0.1,0,0.1-0.1,0.1c-0.3-0.3-0.2-0.6-0.1-0.9c-0.1,0.1-0.1,0.2-0.2,0.2
		c-0.2-0.4,0.1-0.3,0-0.9c-0.1,0.2-0.2,0.2-0.3,0c0.1,0,0.2-0.2,0.2-0.3c-0.5,0.6-0.5-0.5-1-0.1c0.1-0.1,0.1-0.9,0.5-0.8l0,0.1
		c0.2,0,0-0.2,0-0.3c0,0.1,0,0.2,0,0.2c-0.1-0.8-0.6-1.4-0.8-2.3c0,0.1,0,0.4-0.2,0.3c-0.4-0.7-0.3-1.3-0.4-2.1
		c-0.5,0.1,0.3,0.9-0.1,1c-0.3-0.9-0.4-1.8-0.6-2.7c-0.8-0.1-0.1-1-0.8-1.4c0.2,0,0.2-0.3,0.1-0.6c-0.1,0.2-0.3-0.2-0.4-0.1
		c0.1-0.3-0.1-1.1-0.5-1c0.4-0.2-0.2-0.6,0-0.9c-0.3-0.3-0.1-0.8-0.4-1.2c0.3,0.1,0-0.5,0.1-0.6c0,0,0,0.1-0.1,0.1
		c-0.3-0.1,0.1-0.5-0.2-0.8C4.2,52,4.1,52.2,4,52c0.2,0,0.2-0.7-0.1-0.9c0,0.1-0.1,0.1-0.1,0.2c0.1-1.2-0.7-2.4-0.4-3.7l-0.3,0.3
		c-0.5-0.7,0.5-0.6,0.3-1.1c-0.1-0.4-0.2-0.8-0.3-1.2c-0.1-0.4-0.2-0.8-0.3-1.2c-0.1-0.8-0.2-1.7-0.2-2.5c0.1-0.1,0.1,0.1,0.3,0.1
		c0-0.1-0.3-0.2-0.2-0.4l0.2,0c-0.5-0.7,0.5-2.1-0.3-2.7c0.4-0.7-0.2-1.2,0.4-2c-0.1-0.3-0.4,0.3-0.3-0.1l0.4-0.7l0,0
		c0.7-0.7-0.3-2.1,0.5-2.9l0,0c-0.1,0-0.2-0.2-0.1-0.4c0.1,0,0.1,0.1,0.2,0.2c0.5-0.8,0.5-1,0.8-1.6c-0.3,0.2-0.1-0.3-0.3-0.4
		c0.2-0.1,0.2,0.2,0.5-0.2c0.3-0.5,0.3-1.1,0.4-1.5c0.3-0.1,0.3-0.4,0.6-0.3c0.3-0.6,0.5-0.9,0.9-1.6l-0.1-0.1
		c0.4-0.1,0.2-0.7,0.5-0.7c-0.1,0-0.2,0-0.3,0l0.3-0.3c-0.2,0.1-0.5,0.1-0.4-0.2c0.4-0.2,0.1,0.1,0.4,0.1l-0.2-0.2
		C6.7,25.9,7.1,26,7,26.3c0.4-0.7,0.9-1.3,1.3-1.9l-0.2,0c0.3-0.3,0.6-0.7,0.6-1c0.1,0,0.2,0,0.2,0.1c0.5-0.3-0.3-0.2,0.3-0.5
		C9.2,23,9,23.1,8.9,23.1l0.8-0.7c-0.1-0.1-0.1-0.7,0.4-1c0.1,0,0.1,0.2,0,0.3l0.2-0.2l-0.2-0.3l0.5-0.1l-0.2-0.2
		c0.2-0.2,0.6-0.1,0.8-0.3c0.4-0.7,0.2-0.7,0.4-1.3c0.5,0.2,0.7-0.8,1.1-0.6c0.3-0.8,1.4-1.5,2.1-2.4l-0.1,0
		c0.1-0.5,0.7-0.1,1.1-0.5l-0.2,0c0.3-0.6,1.4-1.2,2.1-1.4c-0.2,0-0.2-0.1-0.1-0.2c0.2,0,0.2,0.4,0.4,0.1c-0.1,0-0.1-0.1-0.1-0.2
		l0.5,0c0.6-0.7,1.4-1.5,2.3-1.9c0.1-0.2-0.1-0.2-0.2-0.2c0.7-0.4,1.4-0.7,2.1-1.1l-0.2-0.3c0.3-0.2,0.5,0.2,0.7-0.2
		c0.1-0.1-0.3,0.1-0.5,0.1c0.4-0.5,0.6,0,1.1-0.4L23.4,10c0.3-0.4,0.6-0.2,0.9-0.1c0.9-0.1,0-0.8,1-1.1c0.2,0,0.1,0.2,0.4,0.3
		c0.5-0.4,0.7-0.3,1.3-0.7c0-0.6-0.3,0.2-0.3-0.4l-0.4,0.4c0.2-0.4-0.4,0.2-0.5-0.1C26,8,26.6,7.9,27.1,7.7
		c-0.2-0.2-0.5,0.2-0.5-0.1l0.3,0c-0.1,0-0.2-0.1-0.3,0c-0.1-0.2,0.2-0.1,0.4-0.3c0.1,0.1,0.2,0.2,0.2,0.4c0,0,0-0.1,0-0.1
		c0.6,0,1.1-0.5,1.6-0.5c-0.1,0-0.1-0.1-0.1-0.1c0.2-0.1,0.7-0.1,1-0.2c0.1-0.2-0.4-0.3,0.1-0.5C30.1,6.3,30.1,6.7,30.5,6.5
		 M20.5,11.9c0.1-0.1,0.2-0.1,0.2-0.1C20.6,11.8,20.6,11.9,20.5,11.9L20.5,11.9 M19.7,12.5c0.1-0.1,0.2-0.3,0.1-0.3
		c0.1-0.1,0.2,0,0.2,0.1C19.9,12.3,19.8,12.4,19.7,12.5 M20.1,10.1c0,0,0.1,0,0.1,0.1l0,0c-0.1,0.1-0.2,0.1-0.2,0.1
		C19.9,10.2,19.9,10.1,20.1,10.1"/>
	<path class="st0" d="M20.5,10.1C20.6,10.1,20.6,10.1,20.5,10.1C20.6,10.1,20.6,10.2,20.5,10.1L20.5,10.1L20.5,10.1z"/>
	<path class="st0" d="M14.7,79.6L14.7,79.6C14.7,79.6,14.8,79.6,14.7,79.6C14.8,79.6,14.8,79.6,14.7,79.6"/>
	<polygon class="st0" points="10.8,21.1 10.7,21.1 10.8,21 	"/>
	<path class="st0" d="M18,83.4C18,83.4,18,83.5,18,83.4C18.1,83.5,18,83.5,18,83.4"/>
	<path class="st0" d="M19.1,85.2l0.2,0.2C19.2,85.3,19.1,85.3,19.1,85.2"/>
	<path class="st0" d="M20,86.5C20,86.6,20,86.6,20,86.5L20,86.5L20,86.5z"/>
	<path class="st0" d="M8.6,64.2C8.5,64.1,8.5,64.1,8.6,64.2C8.5,64,8.6,64.1,8.6,64.2"/>
	<path class="st0" d="M11.2,71.1c0-0.1,0-0.2,0-0.3C11.2,70.9,11.3,71,11.2,71.1"/>
	<polygon class="st0" points="5.8,56.5 5.8,56.5 5.7,56.4 	"/>
	<path class="st0" d="M11,70.5c0.1,0.1,0.1,0.2,0.2,0.3C11.1,70.7,11,70.6,11,70.5"/>
	<path class="st0" d="M23.9,92.3L23.9,92.3C23.9,92.4,23.9,92.4,23.9,92.3L23.9,92.3z"/>
	<path class="st0" d="M23.9,92.4L23.9,92.4C23.9,92.5,23.9,92.4,23.9,92.4"/>
	<path class="st0" d="M24,92.7l0-0.2C23.9,92.6,24,92.6,24,92.7"/>
	<path class="st0" d="M22.6,90.6L22.6,90.6C22.7,90.6,22.6,90.6,22.6,90.6"/>
	<path class="st0" d="M22.3,90.1c0.1,0.1,0.4,0.2,0.5,0.4l-0.1,0C22.7,90.4,22.2,90.3,22.3,90.1"/>
	<path class="st0" d="M19.7,88.3l0.4,0.4c-0.1,0-0.3-0.1-0.2,0.1C19.2,88.4,20.1,88.9,19.7,88.3"/>
	<path class="st0" d="M18.7,86.9c0.1,0.3-0.1,0.1-0.2,0.1C18.5,86.8,18.5,86.7,18.7,86.9"/>
	<path class="st0" d="M12.7,76.4l-0.2,0.1C12.4,76.3,12.6,76.4,12.7,76.4"/>
	<polygon class="st0" points="12.9,73.9 13.1,74 12.9,74.2 	"/>
	<polygon class="st0" points="10.6,73.3 10.6,73.4 10.5,73 	"/>
	<path class="st0" d="M2.6,54.9l0.3,0C2.9,55,2.6,55.1,2.6,54.9"/>
	<path class="st0" d="M1,46.5c-0.2-0.1-0.3-0.3-0.2-0.5C0.9,46.2,1,46.4,1,46.5"/>
	<polygon class="st0" points="7.2,21.8 7,21.9 7.3,21.6 	"/>
	<path class="st0" d="M32,77.3c0.1,0,0.3,0.1,0.2,0.1l-0.3,0L32,77.3z"/>
	<path class="st0" d="M32.4,77.9c-0.2,0-0.5,0.1-0.8-0.1c0.3,0,0.2,0,0.6,0c0.1,0-0.1-0.1-0.2-0.1c0.1,0,0-0.1,0.2-0.1
		c0.2,0.1,0.2,0.2,0,0.3C32.3,77.8,32.4,77.8,32.4,77.9"/>
	<path class="st0" d="M31.7,83.6L31.7,83.6C31.6,83.6,31.6,83.6,31.7,83.6"/>
	<path class="st0" d="M31.3,87.2C31.3,87.2,31.3,87.2,31.3,87.2C31.4,87.2,31.3,87.2,31.3,87.2"/>
	<path class="st0" d="M31.6,87.9C31.6,87.9,31.6,87.9,31.6,87.9C31.6,87.9,31.6,87.9,31.6,87.9"/>
	<path class="st0" d="M31.7,83.6l0.1,0.1C31.6,83.7,31.7,83.7,31.7,83.6"/>
	<path class="st0" d="M31.4,78.5c0,0,0.1,0,0.1,0C31.5,78.5,31.5,78.5,31.4,78.5L31.4,78.5z"/>
	<path class="st0" d="M32.2,82.1L32.2,82.1c0,0,0.1,0,0.1,0L32.2,82.1z"/>
	<path class="st0" d="M32.5,80.9c0,0-0.3,0-0.4,0c0.1,0,0.2,0,0.2,0C32.4,80.9,32.4,80.9,32.5,80.9"/>
	<path class="st0" d="M32.5,79L32.5,79C32.5,78.9,32.5,79,32.5,79"/>
	<path class="st0" d="M32.1,83C32.1,83,32.2,83,32.1,83C32.2,83,32.1,83,32.1,83"/>
	<path class="st0" d="M8,95.3C8,95.3,8,95.3,8,95.3C8,95.3,8,95.3,8,95.3"/>
	<polygon class="st0" points="6.3,96.5 6.3,96.5 6.3,96.6 	"/>
	<path class="st0" d="M31.8,89L31.8,89C31.8,89,31.8,89,31.8,89"/>
	<path class="st0" d="M29.8,99.9c-0.1-0.3-0.4,0-0.4-0.4C29.4,99.7,29.8,99.6,29.8,99.9"/>
	<path class="st0" d="M31.5,78.5C31.4,78.5,31.4,78.6,31.5,78.5C31.4,78.5,31.4,78.5,31.5,78.5"/>
	<path class="st0" d="M29.4,99.6L29.4,99.6L29.4,99.6C29.3,99.5,29.3,99.6,29.4,99.6"/>
	<path class="st0" d="M31.3,91.6c0,0-0.1,0-0.1,0C31.2,91.6,31.3,91.6,31.3,91.6"/>
	<path class="st0" d="M31.2,89.6L31.2,89.6C31.2,89.7,31.2,89.7,31.2,89.6"/>
	<path class="st0" d="M30.8,92.6C30.8,92.6,30.9,92.6,30.8,92.6C30.8,92.6,30.8,92.6,30.8,92.6C30.8,92.6,30.9,92.6,30.8,92.6"/>
	<path class="st0" d="M30.7,93.6C30.7,93.6,30.7,93.6,30.7,93.6L30.7,93.6L30.7,93.6z"/>
	<path class="st0" d="M12,95.7c0,0.1-0.1,0.1-0.1,0.2C11.9,95.8,11.8,95.7,12,95.7"/>
	<path class="st0" d="M31.6,78.5c-0.1,0-0.1,0-0.1,0l0,0C31.5,78.5,31.6,78.5,31.6,78.5"/>
	<path class="st0" d="M28.6,92.4l0,0.2C28.6,92.6,28.6,92.5,28.6,92.4"/>
	<path class="st0" d="M21,97.2L21,97.2C21,97.2,21,97.2,21,97.2"/>
	<path class="st0" d="M28.5,93.1c0.1,0,0.1,0.1,0.2,0.1c0,0,0,0-0.1,0L28.5,93.1z"/>
	<path class="st0" d="M11.9,95.9L11.9,95.9L11.9,95.9z"/>
	<path class="st0" d="M10.6,95.2c0,0,0.2,0.2,0,0.3c-0.2-0.1-0.1,0.1-0.3,0.2c-0.1-0.3-0.2,0.1-0.2-0.3c-0.1,0.3-0.1,0.2-0.2,0.3
		c0.1-0.2-0.2-0.2-0.2-0.5c-0.1,0.3,0.2,0.4,0,0.7c-0.1-0.2-0.3-0.3-0.3-0.6c-0.1,0.1-0.1,0.2-0.3,0.2c0,0,0,0,0.1,0.1
		c-0.2-0.2-0.6,0-0.7-0.4c0,0.5-0.5,0-0.3,0.5c-0.1,0-0.2-0.2-0.3-0.3c0,0.4-0.2,0.1-0.4,0.3c-0.1-0.2-0.2-0.1-0.3-0.3
		c0,0,0.1,0.1,0.1,0.2c-0.1-0.1-0.1,0-0.2,0.2c-0.2-0.1,0-0.3-0.1-0.5c-0.1,0.1,0,0.2,0,0.4l-0.2-0.4c0,0-0.1,0.1-0.1,0.2
		c-0.1-0.1-0.2-0.3-0.2-0.1l0.2,0l-0.1,0.2l-0.2-0.2c-0.3,0.3-0.2,0.7-0.1,1.1l0.1,0.1c0,0.1-0.1,0.2-0.1,0.2c0,0.1,0.2,0.4,0.3,0.5
		c0.3,0,0-0.5,0.3-0.6l0.3,0.2l0-0.1c0-0.1,0.1,0.1,0.1,0.1c0-0.2,0.2-0.1,0.4-0.1l0,0.2c0.3,0.4,0.6-0.4,0.8-0.2L8.6,97l0.1-0.2
		C8.8,96.9,8.8,97.1,9,97c0.7-0.4,1.3,0.2,2,0c0,0,0,0.1-0.1,0.1c0.7-0.6,0.8,0.7,1.4,0.3l0-0.1c0.3,0.1,0-0.1,0.2-0.2
		c0,0.3,0.3,0.3,0.4,0.4c0-0.1-0.1-0.1-0.1-0.1c0-0.1,0.1-0.2,0.2-0.2c0.1,0.5,0.5,0.5,0.7,0.6c0.1-0.2,0.3-0.3,0.5-0.6
		c0,0.1,0,0.2,0,0.4c0.1-0.1,0.2,0,0.2,0.1c-0.1,0-0.2,0-0.2,0l0,0c0,0,0,0,0,0c-0.1,0-0.1,0-0.1,0c-0.1,0.2,0,0.2-0.1,0.4
		c0.1,0,0.2,0.1,0.3-0.1c0.1,0,0.1,0,0.2,0c0,0,0.1,0.1,0.1,0.1l0,0c0,0,0,0,0-0.1c0.2-0.1,0.4,0.3,0.5,0.5
		c-0.1-0.3,0.1-0.3,0.2-0.5c0,0-0.2,0-0.4,0c0,0,0-0.1,0.1-0.1c0.2-0.2,0.3,0.2,0.6,0.1c0,0,0-0.1,0-0.2c0.1,0,0.2,0.1,0.2,0.3
		c0.1-0.2,0.3-0.3,0.4-0.2c0,0.2,0,0.3,0.2,0.3l0-0.2c0.2-0.1,0.1,0.2,0.3,0.1c-0.1,0,0-0.1,0-0.1c0.2,0.1,0.2,0.2,0.2,0.5l0-0.2
		c0.1,0.2,0.4,0.5,0.5,0.2c-0.2,0.5,0.3,0.3,0.5,0.3c0,0,0-0.1,0-0.2c0.2,0.4,0.6,0.1,0.9,0.2l0.1-0.3c0.2,0,0,0.7,0.2,0.7l0-0.2
		c0.3,0.1,0.4,0.1,0.7,0.1l0.1-0.2c0.1,0.1,0.2,0.1,0.2,0.3c0.4-0.5,0.8,0.4,1.3-0.1l-0.1,0.4c0.1,0,0.3,0.1,0.5-0.2h0
		c0.1-0.3,0.1,0,0.3,0c0.1,0,0.1,0.3,0,0.3c0.5-0.1,1,0.2,1.3-0.1c0.4,0.2,0.6,0.6,1,0.6l0-0.1c0.2,0,0.5-0.1,0.6-0.4
		c0.3,0.1,0.4,0.7,0.8,0.6l0-0.1c0.1-0.1,0.2,0.1,0.2,0.2c0,0,0-0.1,0-0.1c0.1-0.1,0.1,0.1,0.2,0.1V100c0.4-0.2,0.7,0.4,1.1,0.4
		c-0.1,0,0-0.2,0-0.2c0,0.2,0.3,0.3,0.6,0.4c0.3,0.1,0.5,0.1,0.7,0.1l-0.2-0.2c0.7,0.3,0.3-0.4,0.9-0.2c0,0.1-0.1,0.2-0.1,0.3
		c0.2-0.1,0.4-0.1,0.4,0.1c0.1-0.2-0.2-0.3,0.1-0.4c-0.1-0.1-0.3,0-0.3-0.1c0.1-0.1,0.1-0.3,0.1-0.5c0,0,0-0.1,0.1-0.1
		c0.4,0.4,0.2-0.2,0.5,0.3c0.4-0.5,0.1-1.2,0.4-1.5c-0.6-0.2,0.1-0.6-0.7-0.7c0-0.2,0.2-0.3,0.5-0.4c0.1,0,0,0.1-0.1,0.1
		c0.2,0,0.3-0.2,0.3-0.3c-0.2,0.1-0.4,0.3-0.7,0.3c0.1-0.2,0.4-0.3,0.5-0.4l-0.4-0.1c0.3-0.1-0.3-0.1,0.1-0.2l0.1,0
		c0-0.2,0.4-0.2,0.5-0.4l-0.2,0c-0.1-0.1,0.3-0.2,0-0.3l0,0.1c-0.3,0-0.4-0.2-0.5-0.2c0.1-0.2,0.5,0,0.5-0.1c-0.3-0.1-0.1,0-0.4,0
		c0.1-0.2,0.3-0.4,0.6-0.5c0,0-0.1,0-0.1,0c0-0.2,0.5-0.3,0.3-0.4l0,0c-0.4-0.2,0.4-0.4-0.2-0.4c-0.1-0.1,0,0.2-0.3,0
		c-0.2-0.2,0.6-0.1,0.4-0.3c0,0,0,0-0.1,0c0-0.1,0.1-0.3,0.2-0.5c-0.5-0.2,0.2-0.6-0.4-0.8c0.2,0.1,0.3,0,0.4,0c0,0-0.1,0-0.1,0
		c0-0.1,0.2-0.1,0.3-0.1c-0.2-0.1,0.2-0.2,0.1-0.3c0.1,0,0.1-0.1,0.1-0.1c-0.2,0.1-0.3,0-0.5,0.1c0-0.2,0.6-0.2,0.5-0.4l-0.2-0.1
		c0.4,0,0.3-0.2,0.4-0.2c-0.1,0-0.2-0.1-0.4-0.1c0.1-0.1-0.1-0.2,0.2-0.2l0.1,0.1c-0.1-0.3,0.5-0.4,0.2-0.6l-0.6,0
		c-0.2-0.2,0.4-0.2,0-0.4c0.2,0.1,0.1,0.1,0.3,0c0,0.1-0.1,0.1-0.1,0.2l0.4-0.2l-0.2,0.3c0.2-0.1,0.2-0.1,0.4,0
		c0.2-0.2-0.3-0.2,0-0.4c-0.1-0.1-0.3,0-0.4-0.1c0.2-0.1-0.4-0.3-0.1-0.4c-0.1,0,0,0.1-0.2,0c0.1-0.1,0.1-0.2,0.2-0.2l0.1,0.1
		c0-0.1,0.2-0.1,0.1-0.2c0.1-0.1,0.4-0.1,0.4,0c0,0-0.1-0.1-0.3-0.1c0-0.2,0.6-0.1,0.4-0.3c0,0-0.1,0-0.1,0c0-0.1,0-0.1,0-0.1
		c-0.1,0.2-0.5-0.1-0.4,0.1c-0.3,0,0-0.2-0.2-0.2c0.2-0.1,0.5,0,0.6,0c-0.1,0-0.1-0.1-0.1-0.1l0.2,0.1c0,0,0-0.1,0.1-0.1l-0.1,0.1
		c0-0.1-0.4-0.3-0.1-0.4c-0.1,0-0.3,0.1-0.4,0c0.2-0.2-0.1-0.1-0.3-0.2c0.1-0.2,0.4,0,0.3-0.3c0,0,0.1,0,0.2,0
		c-0.1-0.2,0.1-0.3-0.1-0.5c0.1,0.1,0.1,0.2,0.3,0.1c-0.2,0-0.2-0.2-0.3-0.2l0.1,0c-0.1-0.1-0.2,0-0.2,0c0,0,0.1,0,0.1,0.1
		c-0.1,0.1-0.6,0-0.6-0.1c0.1-0.1,0.4-0.1,0.6,0c-0.1-0.2,0.6-0.1,0.4-0.3c0,0-0.5-0.2-0.5-0.4c0.3,0,0.2,0.2,0.4,0.1
		c-0.6-0.3,0.5-0.4,0.1-0.8l-0.3,0c0-0.1,0-0.1,0-0.2l0.2,0.1c0.1-0.1,0-0.2-0.2-0.2c0.3-0.1,0.1-0.2,0.1-0.3c0,0.2,0,0-0.1,0.1
		c-0.1-0.2,0-0.2,0.1-0.3c-0.1,0-0.3-0.1-0.3-0.1c0.2-0.1,0.2-0.3,0.3-0.4l-0.1,0c0.2-0.2-0.2-0.6,0.1-0.8l0,0l0,0
		c0.3,0.1,0.3-0.2,0.4-0.2c-0.1,0-0.2-0.1-0.2-0.1c0.3,0,0.2-0.1,0.3-0.1c-0.1-0.1-0.4,0-0.3-0.2c0-0.1,0.2,0,0.3,0
		c-0.1,0-0.2-0.2-0.3-0.2c-0.1,0,0,0.1,0,0.1c-0.2,0-0.1-0.1-0.3-0.1c0-0.1,0.3,0,0.2-0.1l-0.2,0.1c-0.1,0,0.1-0.1,0.1-0.1
		c-0.1,0-0.3,0-0.4,0c0.2-0.2,0.6,0,0.9,0.1c-0.1-0.2,0.2-0.3,0.2-0.5l-0.3,0c0.1-0.1,0.1-0.1,0.2-0.1l0-0.1C32.1,82,32,82,31.8,82
		c0.1-0.1,0.1-0.3,0.4-0.3l-0.1,0c-0.1-0.2-0.1-0.5-0.2-0.5c0.2-0.2,0-0.4,0.4-0.3c0.1-0.1-0.4-0.3,0.1-0.3c-0.2-0.2-0.1,0-0.4,0
		c-0.2-0.2,0.4-0.2-0.1-0.3c0.2-0.1,0.1,0,0.3,0c-0.5-0.1,0-0.3-0.3-0.4c0.2,0,0.1,0.1,0.3,0c-0.1,0-0.1-0.1-0.1-0.1l0.3,0l-0.7-0.3
		c0.4-0.1,0.5,0.1,0.7-0.1l0,0c-0.3-0.1,0.3-0.1,0.1-0.4c0,0.1-0.1,0-0.2,0l0.1-0.1c0,0,0,0-0.1,0c-0.2-0.1,0.1-0.1,0-0.2
		c-0.1,0.1-0.3,0-0.4-0.1l0.4-0.1l-0.4,0c0-0.2,0.7-0.2,0.2-0.4L32,78.2c-0.1,0-0.4-0.1-0.1-0.2c0.1,0,0.3,0,0.3,0L32.1,78
		c-0.3,0-0.4,0.2-0.5,0.3c0.1,0,0.2-0.1,0.4,0c-0.1,0.1-0.3,0.2-0.4,0.2c0.1,0,0.3,0,0.4,0c0.1,0.1-0.2,0-0.3,0.1
		c0.1,0.1,0.2,0.1,0.3,0.1c-0.1,0.1-0.2,0.2-0.1,0.3c0,0,0.2-0.1,0.4,0c-0.2,0.2-0.5,0.2-0.8,0.4c-0.5,0.2,0.2,0.6-0.2,0.7
		c-0.1,0-0.2-0.2-0.3-0.1c0.2,0,0.1,0.1,0.2,0.1c-0.4,0.1,0,0.2-0.2,0.3c0.1,0,0.2,0.1,0.2,0.1c0.3,0,0.1,0.2,0.6,0
		c-0.5,0.1,0,0.4-0.7,0.4L31,80.8l0.1,0.2l0,0c0,0.1,0,0.1,0.2,0.2c0.1,0,0.1-0.1,0.2-0.1c0.2,0.1-0.3,0.2-0.3,0.3
		c0.2,0,0.1-0.1,0.4,0c0,0.1-0.2,0.1-0.2,0.2l0.1,0c0.2,0.2-0.6,0-0.2,0.2c-0.1,0-0.2,0-0.2,0c0.1,0.1,0.3,0.2,0.5,0.1
		c0,0.1-0.1,0.1-0.3,0.2C31,82,31.1,82,30.9,81.9l-0.2,0.3c0,0,0.1,0,0.1,0c0.6,0.4-0.7,0.6,0,1.1c-0.2-0.1-0.2,0-0.3,0
		c0,0.1,0,0.3,0.1,0.4l0.1,0c-0.2,0.3-0.5,0.4-0.4,0.7c-0.1,0,0.2,0,0.2,0c-0.3,0.1,0.5,0.4,0,0.4l0-0.1c0,0.3-0.4,0.6-0.5,0.8
		c0.3,0.1,0.1-0.2,0.4-0.1c0.1,0.2-0.2,0.4-0.1,0.6c0,0,0.1,0,0.1,0c0.2,0.2-0.3-0.1-0.3,0.1c0.2,0,0.2,0,0.3,0.1l-0.3,0
		c0,0,0.2,0,0.3,0c-0.3,0-0.2,0.3-0.5,0.3c0.1,0,0.4,0,0.5,0c0.1,0.1-0.1,0.2-0.2,0.2h0c0.2,0.1,0.2,0.3,0.2,0.2
		c0.1,0.2-0.2,0-0.4,0.1L30,87l-0.1,0.2l0.2-0.1c0.1,0.1-0.2,0.2-0.2,0.3l-0.2-0.1l-0.1,0.1c0.4,0,0.1,0.2,0.5,0.2
		c0.1,0.3-0.4,0.4-0.4,0.7c0,0,0.1,0,0.1,0c0.1,0.2-0.1,0.2-0.3,0.3c0.1,0,0.2,0,0.3,0c0,0.2-0.2,0.1-0.4,0.3c0.2,0,0.2,0,0.3,0
		c-0.1,0-0.2,0-0.3,0c0.8-0.1,0.3,0.2,0.9,0.2c-0.2,0-0.5,0.3-0.8,0.2l0.1,0c-0.2,0-0.1,0.1-0.2,0.1c0,0,0.1-0.1,0.1,0
		c-0.3,0.3-0.1,0.6-0.3,0.9c0.1,0,0.2-0.1,0.3,0c0.1,0.3-0.3,0.5-0.6,0.8c0.5,0.1,0.1-0.3,0.6-0.3c-0.1,0.3-0.3,0.6-0.6,1
		c0.7,0.2-0.3,0.3,0.2,0.6c-0.2,0-0.3,0.1-0.3,0.2c0.2,0,0.2,0.1,0.3,0.1c-0.2,0.1-0.3,0.4,0.1,0.4c-0.4,0,0,0.2-0.3,0.3
		c0.1,0.1-0.1,0.3,0,0.5c-0.3-0.1-0.1,0.2-0.3,0.2c0,0,0.1,0,0.1,0c0.2,0.1-0.2,0.2-0.1,0.3c0.1,0.1,0.3,0,0.3,0.1
		c-0.2,0-0.5,0.2-0.2,0.3c0,0,0.1,0,0.2-0.1c-0.4,0.4,0,0.9-0.5,1.4l0.3-0.1c0.4,0.3-0.6,0.1-0.5,0.4c0.1,0.6,0.5,1.3,0.1,1.9
		c-0.1,0-0.1,0-0.2-0.1c0,0,0.3,0.1,0.1,0.1l-0.2,0c0.2,0,0.1,0.1,0.1,0.1c-0.1,0-0.1,0,0.2,0.3c-0.1-0.1-0.1,0-0.2,0
		c0,0-0.1,0-0.2-0.1c0,0.1,0.1,0.3,0.1,0.3c-0.1-0.1-0.1-0.2-0.2-0.2l0,0c0-0.1,0-0.1-0.1-0.1c-0.1,0-0.2,0.1-0.3,0.1
		c-0.3,0.1-0.5,0.2-0.7,0l0,0c0,0.1-0.1,0.2-0.2,0.2c0-0.1,0-0.1,0.1-0.2c-0.3-0.2-0.4-0.3-0.7-0.3c0.1,0.2-0.2,0.1-0.2,0.3
		c0-0.1,0.1-0.2,0-0.4c-0.2-0.1-0.5,0.1-0.7,0.1c0-0.2-0.2-0.2-0.1-0.4c-0.3-0.1-0.4-0.2-0.8-0.2l0,0.1c0-0.3-0.3,0.1-0.4-0.1
		c0,0.1,0,0.2,0,0.2l-0.1-0.1c0,0.1,0,0.4-0.1,0.4c-0.1-0.2,0.1-0.1,0.1-0.3l-0.1,0.3c-0.1,0,0-0.4,0.1-0.4c-0.3-0.1-0.7-0.3-1-0.3
		l0,0.2c-0.2-0.1-0.4-0.1-0.5,0c0-0.1,0-0.2,0-0.2c-0.1-0.3-0.1,0.3-0.3,0c0,0.1,0.1,0.1,0.1,0.2l-0.4-0.3c0,0.1-0.4,0.4-0.5,0.2
		c0-0.1,0.1-0.2,0.1-0.2l-0.1-0.1l-0.2,0.3l-0.1-0.3l-0.1,0.2c-0.1-0.1-0.1-0.4-0.2-0.4c-0.4,0.1-0.4,0.2-0.7,0.4
		c0.1-0.5-0.4-0.1-0.4-0.4c-0.4,0.3-0.9,0-1.4,0l0,0c-0.3,0.2-0.1-0.4-0.4-0.3l0,0.1c-0.3,0.2-0.8-0.1-1-0.4c0,0.1,0,0.2-0.1,0.2
		c0-0.1,0.1-0.3,0-0.3c0,0.1,0,0.2-0.1,0.1l-0.1-0.3c-0.4,0.1-0.9,0.2-1.3,0C15,96.2,15,96.3,15,96.4c-0.3-0.1-0.6-0.3-0.8-0.4
		l-0.1,0.3c-0.1,0,0-0.4-0.2-0.2c0,0,0.1,0,0.1,0.2c-0.3,0.2-0.1-0.3-0.4-0.3l0,0.3c-0.2,0.2-0.2-0.2-0.2-0.4
		c-0.2-0.4-0.3,0.6-0.7,0.2c0-0.2,0.1-0.2,0-0.4c-0.3,0-0.3-0.2-0.6-0.1c-0.2,0.5,0.1,0-0.1,0.4l0.2-0.1c-0.2,0.2,0.2,0.1,0.1,0.4
		c-0.1,0.1-0.3-0.2-0.5-0.3c0,0.2,0.2,0.1,0.1,0.3l-0.1-0.1c0,0.1,0,0.1,0.1,0.1c-0.1,0.2-0.1,0-0.2,0c0-0.1,0-0.3,0.1-0.4
		c0,0,0,0,0,0.1c-0.1-0.3-0.5-0.1-0.6-0.4c0,0.1,0,0.1,0,0.1c-0.1,0-0.2-0.3-0.3-0.4c-0.1,0.1,0,0.5-0.2,0.4
		C10.7,95.5,10.8,95.2,10.6,95.2 M15,96.5C15,96.5,14.9,96.5,15,96.5C14.9,96.5,15,96.5,15,96.5L15,96.5 M15.4,96.6
		c-0.1,0.1-0.2,0.1-0.2,0.1c0,0,0-0.1,0-0.2C15.3,96.6,15.3,96.6,15.4,96.6 M14.2,98c0,0,0-0.1,0-0.1L14.2,98
		C14.3,98,14.3,98,14.2,98C14.3,98,14.3,98.1,14.2,98"/>
	<path class="st0" d="M14.2,97.7C14.2,97.7,14.2,97.7,14.2,97.7C14.2,97.7,14.2,97.7,14.2,97.7L14.2,97.7L14.2,97.7z"/>
	<path class="st0" d="M31.6,83.6L31.6,83.6C31.6,83.6,31.6,83.6,31.6,83.6C31.6,83.6,31.6,83.6,31.6,83.6"/>
	<polygon class="st0" points="20.6,97 20.6,97.1 20.6,97 	"/>
	<path class="st0" d="M31,81.8C30.9,81.8,30.9,81.8,31,81.8C30.9,81.8,30.9,81.8,31,81.8"/>
	<path class="st0" d="M31.1,81L31,80.9C31,81,31,81,31.1,81"/>
	<path class="st0" d="M31,80.5c0.1,0,0.1,0,0.1,0l0,0L31,80.5z"/>
	<path class="st0" d="M29.3,89.5C29.3,89.5,29.3,89.5,29.3,89.5C29.2,89.5,29.2,89.5,29.3,89.5"/>
	<path class="st0" d="M30.3,86.8c-0.1,0-0.1,0-0.1,0.1C30.1,86.8,30.1,86.8,30.3,86.8"/>
	<polygon class="st0" points="28.6,92.4 28.6,92.4 28.6,92.4 	"/>
	<path class="st0" d="M30.1,87c0-0.1,0-0.1,0-0.1C30.2,86.9,30.2,87,30.1,87"/>
	<path class="st0" d="M31.5,78L31.5,78C31.6,77.9,31.6,78,31.5,78L31.5,78z"/>
	<path class="st0" d="M31.6,77.9L31.6,77.9C31.6,77.9,31.6,78,31.6,77.9"/>
	<path class="st0" d="M31.7,77.9L31.7,77.9C31.6,77.9,31.6,77.9,31.7,77.9"/>
	<path class="st0" d="M31.5,78.7l-0.1,0C31.4,78.7,31.4,78.7,31.5,78.7"/>
	<path class="st0" d="M31.4,79c0-0.1-0.2-0.2-0.1-0.2l0.1,0C31.2,78.7,31.5,78.9,31.4,79"/>
	<path class="st0" d="M32.4,80.1l0-0.2c0.1,0,0.2,0.1,0.3,0C32.9,80.2,32.4,79.9,32.4,80.1"/>
	<path class="st0" d="M32.4,80.7c0.1-0.1,0.2,0,0.2,0C32.5,80.8,32.5,80.8,32.4,80.7"/>
	<path class="st0" d="M31.6,84.9l0.3,0C31.8,85,31.8,85,31.6,84.9"/>
	<polygon class="st0" points="30.2,85.6 30,85.5 30.3,85.5 	"/>
	<polygon class="st0" points="31.9,86.3 32,86.3 31.9,86.4 	"/>
	<path class="st0" d="M31,93.4l-0.3,0C30.7,93.4,31.1,93.4,31,93.4"/>
	<path class="st0" d="M30.3,96.5c0.2,0,0.2,0.1,0.1,0.2C30.3,96.7,30.2,96.6,30.3,96.5"/>
	<polygon class="st0" points="21,99.2 21.1,99.3 20.9,99.2 	"/>
</g>
</svg>
