<?xml version="1.0" encoding="utf-8"?>
<!-- Generator: Adobe Illustrator 19.0.0, SVG Export Plug-In . SVG Version: 6.00 Build 0)  -->
<svg version="1.1" id="Layer_1" xmlns="http://www.w3.org/2000/svg" xmlns:xlink="http://www.w3.org/1999/xlink" x="0px" y="0px"
	 viewBox="0 0 26.7 134.8" style="enable-background:new 0 0 26.7 134.8;" xml:space="preserve">
<style type="text/css">
	.st0{clip-path:url(#SVGID_2_);fill:#484F57;}
</style>
<g>
	<defs>
		<rect id="SVGID_1_" width="26.7" height="134.8"/>
	</defs>
	<clipPath id="SVGID_2_">
		<use xlink:href="#SVGID_1_"  style="overflow:visible;"/>
	</clipPath>
	<path class="st0" d="M14.4,132c0.1,0.1,0.3,0,0.2-0.2l-0.3-0.1L14.4,132z"/>
	<path class="st0" d="M15,130.7c-0.2-0.2-0.4-0.5-0.8-0.3c0.3,0.2,0.2,0.3,0.6,0.5c0,0.2-0.1,0.3-0.2,0.3c0.1,0.1-0.1,0.3,0.1,0.4
		c0.3-0.3,0.3-0.6,0-0.9C14.9,130.7,15,130.7,15,130.7"/>
	<path class="st0" d="M15.3,112l0,0.1C15.3,112,15.3,112,15.3,112"/>
	<path class="st0" d="M15.3,100.3c0,0.1,0,0.1,0.1,0.1C15.4,100.4,15.4,100.3,15.3,100.3"/>
	<path class="st0" d="M15.7,98.3c0,0,0,0.1,0,0.1C15.7,98.4,15.7,98.4,15.7,98.3"/>
	<path class="st0" d="M15.3,112l0.1-0.3C15.3,111.6,15.3,111.8,15.3,112"/>
	<path class="st0" d="M14.2,128.2c0,0.1,0,0.1,0.1,0.2C14.3,128.3,14.3,128.2,14.2,128.2L14.2,128.2z"/>
	<path class="st0" d="M15.6,117.1L15.6,117.1c0,0.1,0.1,0.1,0.1,0.2L15.6,117.1z"/>
	<path class="st0" d="M15.7,121c0-0.1-0.3-0.1-0.4-0.1c0.1,0,0.2,0.1,0.2,0.2C15.6,121.1,15.7,121,15.7,121"/>
	<path class="st0" d="M15.3,127.3l0,0.1C15.4,127.3,15.3,127.3,15.3,127.3"/>
	<path class="st0" d="M15.7,114.3C15.7,114.3,15.8,114.2,15.7,114.3C15.7,114.2,15.7,114.2,15.7,114.3"/>
	<path class="st0" d="M5.3,4.7C5.4,4.7,5.4,4.7,5.3,4.7C5.4,4.7,5.3,4.7,5.3,4.7"/>
	<path class="st0" d="M6.2,0L6.2,0c0.1,0.1,0.1,0.1,0.2,0.1L6.2,0z"/>
	<path class="st0" d="M16,94.7C16,94.7,16,94.7,16,94.7C16,94.8,16,94.7,16,94.7"/>
	<path class="st0" d="M14.1,61.3c-0.2,0.4-0.4-0.6-0.6,0C13.6,61.2,14,61.8,14.1,61.3"/>
	<path class="st0" d="M14.2,128.1c0-0.1,0-0.1,0-0.2C14.2,128,14.2,128,14.2,128.1"/>
	<path class="st0" d="M13.5,61.3L13.5,61.3L13.5,61.3C13.5,61.3,13.5,61.3,13.5,61.3"/>
	<path class="st0" d="M15.6,86.3c0,0-0.1,0.1-0.1,0.1C15.5,86.4,15.6,86.4,15.6,86.3"/>
	<path class="st0" d="M15.4,92.6l0-0.2C15.4,92.5,15.4,92.5,15.4,92.6"/>
	<path class="st0" d="M15.1,83.1c0-0.1,0.1-0.1,0-0.2c0,0,0,0,0,0C15.2,82.9,15.2,83,15.1,83.1"/>
	<path class="st0" d="M15,79.7C15,79.7,15,79.7,15,79.7c0,0.1,0,0.1,0,0.2L15,79.7z"/>
	<path class="st0" d="M6.5,14.9c0.1-0.1,0.2-0.1,0.2-0.2C6.6,14.8,6.4,14.3,6.5,14.9"/>
	<path class="st0" d="M14.4,128.2c-0.1,0-0.1,0-0.1-0.1l0,0.1C14.3,128.2,14.3,128.2,14.4,128.2"/>
	<path class="st0" d="M12.9,83l0-0.5C12.9,82.6,12.9,82.8,12.9,83"/>
	<path class="st0" d="M9.2,39l0-0.1C9.2,38.9,9.2,38.9,9.2,39"/>
	<path class="st0" d="M12.8,80.9c0.1-0.1,0.1-0.2,0.2-0.3c0,0,0,0-0.1-0.1L12.8,80.9z"/>
	<path class="st0" d="M6.8,14.7L6.8,14.7L6.8,14.7z"/>
	<path class="st0" d="M5.7,11.3c0,0.5,0.4,0.2,0.6,0.3c0.2,0.6-0.2,0.3-0.4,0.5c0.1,0.4,0.5,0.6,0.5,0.9c-0.1,0-0.1,0.1-0.2,0
		c0.3,0.4,0.1,1.2,0.6,1.6c0,0-0.1,0.1-0.1,0.1c0.2-0.1,0.4-0.1,0.5-0.1c0,0.2,0.3,0.4,0,0.5c0-0.1-0.1-0.1-0.2-0.2l0.1,0.2
		c-0.3,0.3-0.2-0.3-0.4-0.3c0.2,0.5,0.5,1,0.4,1.3c-0.3,0.1-0.2-0.8-0.5-0.3l0.1-0.6c-0.5,0.5,0-0.3-0.5,0.1c0,0.7,0.3,0.8,0.2,1.5
		c0.2,0.1,0.3-0.1,0.5,0.1c0.4,1-0.8,0.9-0.2,1.6c0.2,0.2,0.7,0.2,0.5,0.8L7,19.2c0,0.7,0.6,0.3,0.4,1.1c-0.2-0.1-0.2-0.5-0.2-0.4
		c-0.2,0.5,0.3,0.3,0.3,0.7l-0.3,0.1c0.1,0.7,0.5,1.5,0.6,2.4c-0.1,0-0.2-0.2-0.3,0c0.3,1,0.2,2.2,0.1,3.3l0.3,0.4
		c0,0.1-0.1,0.2-0.2,0.1c-0.1,0.4,0.2,0,0.3,0.2c0,0.2-0.1,0.3-0.2,0.2c0.3,0.7,0.8,1.9,0.5,2.7l-0.1-0.1c-0.1,0.6,0.7,0.6,0.5,1.1
		l-0.1-0.1c0,1.2,0.4,2.6,0.1,3.6c0.4,0.1-0.1,1.2,0.5,1.3c-0.2,0.7-0.3,0.5-0.4,1.6c0,0.3,0.4,0.4,0.5,0.7l-0.3,0l0.4,0.4l-0.3,0.3
		l0.1,0.3c0-0.1,0.1-0.3,0.2-0.3c0.2,0.5-0.1,1.2-0.2,1.2l0.4,1.1c-0.1,0-0.2-0.2-0.3-0.3c0.4,0.6-0.3,0.1,0,0.7
		c0.1-0.1,0.2,0,0.3,0c-0.2,0.3-0.1,0.9,0.1,1.4l-0.2-0.1c0,0.8,0.3,1.8,0.4,2.7c0.1-0.3,0.4-0.3,0.5,0L10,45.4
		c0.2,0.2,0.1-0.3,0.4,0c0,0.4-0.3,0.3-0.5,0.1l0.2,0.4c-0.1,0-0.2-0.1-0.3-0.1c0.2,0.2-0.2,0.8,0.1,1l-0.1,0
		c0.1,0.9,0.3,1.4,0.4,2.1c0.3,0,0.3,0.3,0.5,0.5c0,0.6-0.2,1.2-0.1,1.9c0.2,0.5,0.3,0.1,0.4,0.3c-0.2,0.1-0.1,0.7-0.4,0.4
		c0.1,0.8,0.2,1,0.5,2c0.1-0.1,0.1-0.3,0.2-0.2c0.1,0.2-0.1,0.4-0.2,0.4l0,0c0.5,1.1-0.4,2.8,0.2,3.6l0,0l0.4,0.9
		c0,0.4-0.2-0.2-0.3,0.1c0.5,1,0.1,1.6,0.5,2.5c-0.7,0.7,0.3,2.3-0.1,3.3l0.2-0.1c0.2,0.2-0.1,0.3-0.1,0.5c0.1,0,0.1-0.3,0.2-0.1
		c0.4,1.9,0.1,4,0.1,6c0,0.7,0.9,0.4,0.6,1.3L12.4,72c0.5,1.4,0.2,3,0.6,4.4c-0.1-0.1-0.2-0.1-0.2-0.2c-0.2,0.3,0,1.1,0.2,1.1
		c0,0.2-0.2,0.1-0.3,0.2c-0.1,0.3,0.3,0.8,0.1,0.9c0,0-0.1-0.1-0.1-0.1c0.1,0.2,0,0.9,0.3,0.7c-0.1,0.5,0.2,1,0,1.5
		c0.3,0.3-0.1,0.9,0.3,1c-0.5,0-0.3,1-0.1,1.3c-0.1-0.1-0.1,0.3-0.3,0.2c0,0.4,0.1,0.7,0.3,0.7c-0.5,0.7,0.5,1.4-0.2,1.9
		c0.3,1.2,0.5,2.2,0.6,3.3c-0.5,0-0.1-1.2-0.5-1.1c0.2,1,0.6,1.6,0.5,2.5c-0.1,0.3-0.2-0.1-0.3-0.2c0.2,1,0,1.9,0.3,2.8
		c0,0-0.1-0.1-0.1-0.2c0,0.2-0.1,0.4,0.1,0.4l-0.1-0.2c0.3-0.3,0.6,0.7,0.8,0.7c-0.6-0.3-0.1,0.9-0.9,0.4c0,0.1,0.1,0.3,0.3,0.2
		c0,0.2-0.1,0.2-0.3,0.1c0.1,0.6,0.3,0.4,0.3,1c-0.1,0-0.1-0.1-0.3-0.2c0.2,0.3,0.4,0.6,0.3,1c-0.1,0-0.1,0-0.1-0.1
		c0,0.8,0.5,1.4,0.4,2.3c-0.4-0.3-0.1,0.3-0.5,0.4l0.1,0.5l0.2-0.2c0,0.4,0.3,0.8,0.2,1.2l-0.2-0.3l0.1,0.8l0.1-0.5
		c0.2,0.4,0.5-0.1,0.4,0.5c0-0.1,0,0.4-0.2,0.7l0,0c0.1,0.2,0.2,0.4,0.2,0.7c-0.1,0.1-0.4-0.1-0.5,0c0.3,0.2,0.1,1,0.4,1.3
		c-0.1-0.1-0.3-0.1-0.3-0.1l0.3,0.2c-0.1,0.2-0.1,0.2-0.3,0.2c0,0.6,0.5-0.2,0.3,0.5c0-0.1-0.1,0-0.1-0.1c-0.1,0.7,0.2,1.4,0.1,2
		c-0.4,0.2-0.1-0.6-0.4-0.3c0.1,0.9,0.5,1.9,0.4,2.8l0-0.2c0.5,0.1-0.3,0.7,0,1.1c0-0.1-0.3-0.1-0.2-0.1c-0.1,0.6,0.1,1.3,0.3,2.2
		l-0.1-0.1c-0.1,0.4-0.1,1-0.1,1.4c0.1,0.1,0.1,0.3,0.3,0.2c-0.8,1.2,0.4,2.3-0.2,3.4c0-0.1-0.1-0.3-0.1-0.2l0.1,0.9
		c0.2-0.1,0.1-0.1,0.3-0.3c0.1,0.1,0.2,0.4,0.3,0.6c-0.2-0.4-0.4,0-0.5,0.2c0.1,0,0.1,0,0.2,0c-0.4,0.5,0.5,0.1,0.2,0.7l-0.1,0
		c0.1,0.2,0.2,0.5,0.2,0.7c-0.3,0.1-0.1-0.3-0.3-0.3c0,0.4,0.5,0.7,0.3,1.1c-0.1-0.2-0.1-0.4-0.2-0.5c-0.3,0.4-0.2,0.4-0.3,0.7l0,0
		l-0.1,0.6l0.1-0.2c0.7,0.5,0.1,0.9,0.6,1.6c-0.4-0.6-0.3-0.1-0.6-0.1c-0.1,0.2-0.2,0.4-0.3,0.3c0.2,0.3-0.2,0.5,0.2,0.9
		c-0.1,0,0,0.3-0.3,0.3c0.1,0.4,0.2-0.1,0.3-0.1c0.3,0.6-0.4,1.4,0.1,2.2c0.2,0.7,0.5,0.9,0.7,1.5c-0.2,0.2-0.4-0.2-0.4-0.2
		c-0.1,0.4-0.1,0.7,0,1c-0.1-0.1-0.2,0-0.3,0.1c0,0.3,0.4,0.2,0.2,0.6c-0.1-0.1-0.3-0.1-0.4-0.3c0.1,0.3,0.3,0.7,0.4,1
		c-0.2,0.1-0.3-0.2-0.4-0.3c0.1,0.4,0.2,1,0.4,1.1l0.1-0.2c0,0.1-0.2,0.1-0.3,0c-0.2-0.3,0.1-0.5,0.2-0.5l0.1,0.2
		c0.6-0.3-0.1-1-0.1-1.5l0.4,0.2l-0.4-0.5c0.1-0.1,0.3-0.2,0.4,0.1c0.2-0.4-0.2-0.3,0.1-0.6c0,0,0.1,0,0.1,0l-0.1-0.3
		c0.1,0.1,0.3-0.1,0.2,0.2c0.2-0.6-0.3-1,0-1.2l0,0.1c-0.1-0.9-0.3-0.1-0.7-0.7l0.7-0.4l-0.3-0.1c0-0.1,0-0.3,0.2-0.2
		c-0.2-0.3-0.1,0.1-0.3-0.1c0.3-0.4-0.1-1.2,0.3-1.3c-0.2-0.2-0.2,0.4-0.3,0c0.5-0.1-0.1-0.5,0.1-0.9c0.3,0.1,0.1,0.5,0.4,0.1
		c-0.5-0.2,0.1-0.8,0-1.1c-0.4,0-0.2-0.7-0.3-1.3c0.1,0,0.2-1,0.3-1.6l0.1,0c-0.4-0.1-0.3-0.6-0.4-1c0.2,0,0.3,0.1,0.4,0.3l0-0.4
		c-0.1-0.1-0.2-0.2-0.2-0.4l0.3,0.1c0-0.5-0.3-1-0.2-1.6c-0.3,0-0.7,0.5-0.9-0.2c0.1,0,0.4-0.1,0.4,0.1c0-0.1-0.1-0.2-0.1-0.3
		l0.2,0.3c0.1-0.3-0.2-0.1-0.2-0.4c0.2,0,0.1-0.2,0.3-0.1c0,0.1-0.1,0.2,0,0.3c0-0.3,0.1-0.6,0.3-0.7c-0.1,0-0.3,0-0.3-0.2
		c0-0.5,0.2-0.2,0.3-0.5c-0.1-0.1,0-0.4-0.3-0.4c0-0.1,0.1-0.2,0.2-0.2c-0.1-0.2-0.1-1.2-0.4-0.9l0,0.1c0,0,0,0,0,0v0v0
		c-0.3-0.8,0.1-1.7,0-2.5h0.1c-0.1-0.5-0.1-1.1-0.3-1.4c0-0.1,0.2-0.3,0.3-0.3c-0.1-0.4-0.2-0.4,0-0.9c0.2,0.4,0.2-0.1,0.1,0.4
		c0.1-0.5,0.2-0.6,0-1.1c0.3,0.2,0.3-0.4,0.2-0.6l-0.2,0.3c0-0.3,0-0.5,0-0.7l0.3,0.1c0.4-1-0.7-1.8,0-2.5c-0.2-0.3-0.2,0.5-0.4,0.3
		c0-0.5,0.5-0.9,0.5-1.1c0.2-0.6-0.5-0.6-0.4-1.2c-0.1,0.1-0.4,0.2-0.6-0.3c0-0.5,0.5-0.6,0.6-0.3c0,0.1,0,0.2-0.1,0.2
		c0,0.1,0.1,0.3,0.2,0.2l-0.1-0.1c0.1-0.2,0.1-0.8,0.3-0.7c-0.1-0.3-0.2-0.1-0.3,0.1c0.2-0.6,0-0.9,0.1-1.5
		c-0.1,0.1-0.2,0.2-0.2,0.1c0.1-0.9-0.2-0.4-0.3-1c0.2-0.3,0.4,0.1,0.3-0.5c0.1-0.4,0.3-0.1,0.4,0.1c-0.2-0.5,0.1-1,0.2-1.3l0.1,0.3
		c-0.1-0.2-0.1-0.3-0.1-0.5l-0.2,0.2c0-0.2,0-0.3,0.1-0.3c-0.2-0.2-0.4,0.1-0.6-0.2c0.1-0.2-0.1-0.7,0.2-0.8
		c-0.1,0.7,0.3-0.1,0.4,0.5c0-0.1,0-0.3,0-0.4c0,0,0.1,0,0.1,0.1c0.3-0.7-0.4-0.3-0.4-1c0.2,0.1,0.3-0.2,0.3-0.3
		c0,0.3-0.3,0.1-0.4-0.1c0.1-0.5-0.1-0.5-0.1-0.7l-0.1,0.3c-0.2-0.1-0.2-0.3-0.2-0.6c0.1,0,0.1,0.3,0.2,0.2
		c-0.3-0.3,0.3-0.8,0.1-1.3c0.1-0.2,0.3,0,0.4-0.2c-0.2-0.5,0.2-0.6,0-1.2c-0.2,0.2-0.2,0.2-0.4-0.2l0.2,0.9l-0.4-0.6
		c0,0.3,0.2,0.6,0.1,0.8c-0.2-0.3-0.1-0.3-0.3-0.1c0.3-0.4-0.2-0.8,0-1.2h0.6c0.2-0.7-0.3-1.2-0.2-2.1l-0.1,0.3
		c-0.2-0.1,0-0.5-0.1-0.8c0.2,0,0.3-0.2,0.4-0.3c-0.1,0,0-0.6-0.4-0.7l0.2-0.4c0.1-0.7-0.6-0.8-0.5-1.5c0.2,0.2,0.4-0.1,0.5,0.3
		c0-0.2,0-0.4-0.1-0.4c0.1-0.1-0.3-0.6-0.1-0.8c-0.1-0.1-0.3-0.1-0.3-0.4c0,0,0.1,0,0.1,0c-0.1,0-0.1-0.4-0.4-0.2
		c0.6-0.7-0.1-2,0.4-2.6c-0.1-0.5-0.2-1.1-0.2-1.5c0.1,0,0.1,0,0.1,0.1c0.2-0.6-0.6-0.4-0.4-1.1c0.3-0.4,0.2,0.4,0.3,0.1
		c0.6-0.1-0.1-0.8,0.2-1.3l0,0.1c0.2-0.4-0.3-0.9-0.3-1.5c0,0,0.1,0,0.1,0c-0.4-0.4-0.5-1.1-0.6-1.7c0.3,0.2,0.1,0.3,0.4,0.1
		c-0.1-0.3-0.4,0.1-0.5-0.4c0.1-0.2,0.2-0.5,0.5-0.6l0,0.5c0.3-0.3,0-0.6,0-0.9l0.2,0c-0.1-0.7-0.5-0.7-0.5-1.5l-0.1,0.1
		c-0.4-0.4,0.2-0.4-0.1-0.8l0.4-0.2c-0.1-0.3-0.5-1-0.6-1.5c0.3,0.3,0.5,0.9,0.7,1.2c0-0.3-0.1-1-0.3-1.1c0,0.1,0.2,0.2,0.1,0.4
		C14,68,13.8,67.5,13.8,67c0.8,0,0.1-1.5,0.6-1.9c-0.4-1-0.1-2-0.2-3.2c-0.6,0.5,0-0.3-0.7-0.2c-0.1-0.3-0.1-0.4,0-0.4l0.3-0.9
		c0.2-0.2,0.2,0.2,0.3,0.2c0-0.6,0.2-0.3,0.3-0.7c-0.2,0.1-0.3-0.2-0.3-0.5l-0.2,0.5c-0.4-0.8,0.4-0.8,0-1.6l0.2,0.2
		C14,58.2,14,57,13.5,56.7c0.1-0.1,0.2-0.2,0.3,0c0-1-0.8-2.2-0.6-3l0.2,0.1c-0.1-0.2-0.3-0.3-0.2-0.6c0.1,0,0.2,0.1,0.2,0
		C13.2,53,13,52.6,13,52.3l0.2,0.2c0.1-1-0.6-1.5-0.8-2.3c0.4,0,0.5-0.8,0.5-1.2l0.1,0c-0.1-1.2-0.6-1.9-0.9-3
		c0.4-0.7-0.1-2.3,0.1-3.4c-0.1,0.2-0.3,0-0.4-0.2c0.1-0.3-0.4-0.7,0-0.7l0,0.1c0.4-0.2,0.2-0.7,0.2-1.1l-0.5,0
		c0.6-1.1-0.6-2.7,0-3.4c-0.2-0.2-0.2-0.6-0.4-0.8l0.3,0c0-0.7,0-1.1-0.2-1.9l0.2,0.2c0-0.5-0.9-0.5-0.9-1l0.4-0.2
		c-0.1-0.9,0.2-1.8-0.3-2.6c0.1,0,0.2,0,0.2,0.2c0-0.4,0.1-1.6-0.5-1.4c0.4-0.1-0.1-0.9-0.3-1.3l0.3,0c-0.4-0.4-0.5-0.4-0.7-0.9
		c0-0.1,0.2-0.1,0.2,0c0.1-0.4-0.3-0.3-0.2-0.8L9.8,27c0-0.4-0.1-0.4-0.4-0.6c-0.1-0.3,0-0.8,0.2-0.9c-0.2,0-0.4-0.3-0.3-0.5
		c0.1,0,0.2,0,0.2,0.1c0.1-0.8-0.4-1.1-0.2-1.6c0.1,0,0.1-0.1,0.2-0.1c0.1,0.6,0.1,1.1,0.1,1c0.3,0,0.2-0.5,0.6-0.2
		c-0.2-0.4-0.7-1-0.7-1.4c0,0,0,0,0.1-0.1l0,0c0-0.1,0-0.2-0.1-0.3c0-0.2,0-0.2,0-0.4c0.2-0.1,0.1-0.6,0-0.8
		c-0.3,0.1-0.3-0.3-0.5,0.1c0,0,0,0,0.1,0.2c0,0,0,0.1,0,0.1l0,0c0,0.2,0.1,0.4,0.1,0.6c-0.2-0.2-0.3-0.4-0.2-0.6
		c-0.2-0.1-0.4-0.2-0.5-0.3c0.4-0.4,0.5-1,0.7-1.1c-0.2-0.7-0.3-1.7-0.9-2.1c-0.1-0.2,0.1-0.3,0.2-0.3c0.1,0.1,0.1,0.3,0.2,0.3
		c-0.2-0.4-0.2-1.2-0.6-1.3c0.1-0.5,0.4,0.3,0.2-0.5l0.1,0.1c0.4-1.5-1.2-2.2-0.6-3.8c0,0.1-0.1,0.2-0.1,0.2
		c0.1-1.8-0.7-3.6-0.3-5.4c0.1-0.5-0.2-0.5-0.4-0.8l0.3-0.1L7.2,5.9c-0.3-0.7,0.6-1.3,0-2.2L7,3.8c0-0.3-0.2-1,0-1
		c0,0-0.2-0.1-0.1-0.2l0.2,0L6.7,1.7c0-0.6,0.6,0,0.6-0.9C7.2,0.5,6.7-0.1,6.6,0c0,0.1-0.1,0.4-0.2,0.4L6.3,0.1
		c-0.5,0-1-0.2-1.2,0.6l0.3,0.5L5.2,1.4L5.1,1c-0.2,0.3,0,0.4,0.2,0.6C5.2,1.6,5.1,1.7,5.1,1.8l0.5,0.5C5.4,2.4,5.2,2.1,5.1,2.5
		c0.2,0.2,0.4-0.3,0.6,0.1C5.5,2.9,5.3,2.8,5.5,3.1C5.4,3.1,5.3,3.1,5.3,3c0.2,0.3,0.1,0.7,0.4,0.8C5.4,4.1,5.8,4.7,5.4,4.7
		c0.1,0.1,0.4,0.4,0.4,0.7C5.2,5,5.9,6.3,5.3,6.3C5.8,6.6,5.6,7.5,6,8c0,0-0.1-0.1-0.1-0.1c0,0.3-0.1,0.5-0.2,0.7
		c0.4,0,0.5,0.5,0.8,0.8C6.1,9.8,6,9.1,5.6,9.3C5.9,9.3,6,10,6.3,9.8c-0.2,0.3-0.1,0.3-0.4,0.5c0.5,0,0.1,0.3,0.4,0.5
		c-0.2,0.5-0.4,0.2-0.2,0.6C6,11.7,5.7,11.3,5.7,11.3 M7.8,23.1L7.8,23.1c0-0.1,0-0.2,0-0.2C7.8,22.9,7.8,22.9,7.8,23.1 M8,24.1
		c0-0.1,0-0.3,0-0.4c0.1,0,0.2,0,0.2,0.1C8,23.7,8,23.9,8,24.1 M9.7,21.7c0.1,0.2,0,0.2,0,0.2c0-0.1,0-0.2-0.1-0.3l0,0
		C9.6,21.7,9.6,21.7,9.7,21.7"/>
	<path class="st0" d="M9.3,21.5C9.3,21.5,9.2,21.5,9.3,21.5C9.2,21.5,9.2,21.5,9.3,21.5L9.3,21.5L9.3,21.5z"/>
	<path class="st0" d="M15.3,112.1L15.3,112.1C15.3,112.1,15.3,112.1,15.3,112.1C15.3,112.1,15.3,112.1,15.3,112.1"/>
	<polygon class="st0" points="9,37.9 9,37.9 9,37.8 	"/>
	<path class="st0" d="M14.4,117.6C14.4,117.6,14.3,117.7,14.4,117.6C14.3,117.7,14.3,117.7,14.4,117.6"/>
	<path class="st0" d="M14.3,120l-0.1,0.3C14.3,120.2,14.3,120.1,14.3,120"/>
	<path class="st0" d="M14.2,121.8c0,0,0.1,0,0.1,0l0,0L14.2,121.8z"/>
	<path class="st0" d="M13.5,92.7C13.5,92.7,13.5,92.7,13.5,92.7C13.4,92.5,13.4,92.6,13.5,92.7"/>
	<path class="st0" d="M14.3,101.4c-0.1-0.1-0.1-0.2-0.1-0.3C14.1,101.3,14.1,101.4,14.3,101.4"/>
	<polygon class="st0" points="12.9,83.1 12.9,83.1 12.9,83 	"/>
	<path class="st0" d="M14.1,100.7c-0.1,0.2,0,0.3,0,0.4C14.2,101,14.2,100.8,14.1,100.7"/>
	<path class="st0" d="M14.2,129.8L14.2,129.8C14.2,129.9,14.2,129.9,14.2,129.8L14.2,129.8z"/>
	<path class="st0" d="M14.2,129.9L14.2,129.9C14.3,129.9,14.3,129.9,14.2,129.9"/>
	<path class="st0" d="M14.3,130.2l-0.1-0.2C14.3,130.1,14.3,130.1,14.3,130.2"/>
	<path class="st0" d="M14.3,127.4l-0.1,0C14.2,127.3,14.2,127.4,14.3,127.4"/>
	<path class="st0" d="M14.3,126.6c0,0.2-0.2,0.4-0.1,0.7l0.1,0C14,127.2,14.4,126.8,14.3,126.6"/>
	<path class="st0" d="M15.5,123.5l-0.1,0.6c0.1-0.1,0.3-0.3,0.3,0C16,123.4,15.4,124.3,15.5,123.5"/>
	<path class="st0" d="M15.6,121.6c0.1,0.3,0.2,0,0.2,0C15.7,121.4,15.7,121.4,15.6,121.6"/>
	<path class="st0" d="M15.4,107.8l0.3,0C15.7,107.5,15.6,107.8,15.4,107.8"/>
	<polygon class="st0" points="14.1,105.1 13.9,105.4 14.2,105.5 	"/>
	<polygon class="st0" points="15.9,103.6 15.9,103.7 15.8,103.2 	"/>
	<path class="st0" d="M15.3,80.3L15,80.4C15,80.5,15.4,80.6,15.3,80.3"/>
	<path class="st0" d="M14.5,70.2c0.1-0.1,0.2-0.4,0.1-0.6C14.5,69.9,14.4,70.1,14.5,70.2"/>
	<polygon class="st0" points="11.8,40.2 11.9,40.4 11.8,40 	"/>
	<path class="st0" d="M26.7,120.5c0-0.1-0.1-0.2-0.1-0.2L26.7,120.5L26.7,120.5z"/>
	<path class="st0" d="M26.3,120.1c0.1,0.2,0.2,0.4,0.3,0.7c-0.1-0.3-0.1-0.2-0.2-0.5c0,0,0.1,0.1,0.2,0.2c0-0.1,0.1,0,0-0.1
		c-0.2-0.2-0.2-0.2-0.1,0C26.3,120.2,26.3,120.2,26.3,120.1"/>
	<path class="st0" d="M23.7,121.2L23.7,121.2C23.7,121.2,23.7,121.2,23.7,121.2"/>
	<path class="st0" d="M22.2,122.1C22.2,122.1,22.2,122.1,22.2,122.1C22.2,122.1,22.2,122.1,22.2,122.1"/>
	<path class="st0" d="M21.7,122C21.7,122,21.7,122,21.7,122C21.7,122,21.7,122,21.7,122"/>
	<path class="st0" d="M23.7,121.2L23.7,121.2C23.6,121.2,23.6,121.2,23.7,121.2"/>
	<path class="st0" d="M26.4,121C26.4,121,26.3,120.9,26.4,121C26.3,120.9,26.3,120.9,26.4,121L26.4,121z"/>
	<path class="st0" d="M24.1,120.5L24.1,120.5c0,0,0-0.1-0.1-0.1L24.1,120.5z"/>
	<path class="st0" d="M24.6,120.2c0,0,0.1,0.2,0.2,0.3c-0.1-0.1-0.1-0.2-0.1-0.2C24.7,120.3,24.6,120.2,24.6,120.2"/>
	<path class="st0" d="M25.6,120.1L25.6,120.1C25.6,120.1,25.6,120.1,25.6,120.1"/>
	<path class="st0" d="M23.8,120.7C23.7,120.7,23.7,120.7,23.8,120.7L23.8,120.7z"/>
	<path class="st0" d="M16.5,134.3C16.4,134.3,16.4,134.3,16.5,134.3C16.4,134.3,16.5,134.3,16.5,134.3"/>
	<polygon class="st0" points="15,134.8 15,134.8 14.8,134.7 	"/>
	<path class="st0" d="M21.1,122.1L21.1,122.1C21.1,122.1,21.1,122.1,21.1,122.1"/>
	<path class="st0" d="M17.6,125.9c0.2,0.1,0.2,0.3,0.5,0.4C18,126.2,17.8,125.9,17.6,125.9"/>
	<path class="st0" d="M26.3,121C26.3,121,26.3,121,26.3,121C26.3,121,26.3,121,26.3,121"/>
	<path class="st0" d="M18.1,126.3L18.1,126.3L18.1,126.3C18.1,126.3,18.1,126.3,18.1,126.3"/>
	<path class="st0" d="M20.2,123.1C20.3,123.1,20.3,123.1,20.2,123.1C20.3,123.1,20.3,123.1,20.2,123.1"/>
	<path class="st0" d="M21.2,122.7L21.2,122.7C21.2,122.7,21.2,122.7,21.2,122.7"/>
	<path class="st0" d="M20.1,123.7C20.1,123.7,20.1,123.7,20.1,123.7C20.1,123.7,20.1,123.7,20.1,123.7
		C20.1,123.7,20.1,123.7,20.1,123.7"/>
	<path class="st0" d="M19.8,124C19.8,124.1,19.8,124.1,19.8,124L19.8,124L19.8,124z"/>
	<path class="st0" d="M16.6,132.9c-0.1,0-0.2,0-0.2,0C16.5,132.9,16.6,133,16.6,132.9"/>
	<path class="st0" d="M26.3,120.9c0,0.1,0,0.1,0.1,0.1L26.3,120.9C26.3,120.9,26.3,120.9,26.3,120.9"/>
	<path class="st0" d="M21.7,125.3L21.7,125.3C21.6,125.3,21.6,125.3,21.7,125.3"/>
	<path class="st0" d="M17.7,129.9L17.7,129.9C17.8,129.9,17.8,129.9,17.7,129.9"/>
	<path class="st0" d="M21.5,125.5c-0.1-0.1-0.1-0.1-0.2-0.1c0,0,0,0,0,0.1L21.5,125.5z"/>
	<path class="st0" d="M16.3,132.9L16.3,132.9L16.3,132.9z"/>
	<path class="st0" d="M16.9,133.5c0-0.1-0.3-0.1-0.6-0.2c-0.1-0.1,0.3,0,0.5,0c-0.1-0.1-0.4-0.2-0.4-0.2c0.1,0,0.1,0,0.2,0
		c-0.3-0.1,0-0.2-0.3-0.3c0,0,0.1,0,0.1,0c-0.2,0-0.4-0.1-0.5-0.1c0,0-0.2-0.1,0-0.1c0,0,0.1,0,0.2,0.1l-0.1-0.1
		c0.3,0.1,0.1,0.1,0.4,0.1c-0.1-0.1-0.3-0.2-0.2-0.3c0.3,0.1,0.1,0.1,0.4,0.2l-0.1,0c0.5,0.1,0,0,0.5,0.1c0.1-0.1-0.1-0.1,0-0.2
		c-0.2-0.1-0.3-0.1-0.4-0.1c-0.3-0.2,0.9,0.1,0.4-0.1c-0.2-0.1-0.6-0.2-0.4-0.2l0.4,0.1c0.1-0.1-0.5-0.2-0.2-0.2
		c0.1,0.1,0.1,0.1,0.1,0.1c0.3,0-0.2-0.1-0.2-0.2l0.3,0.1c0-0.1-0.2-0.3-0.2-0.4c0.1,0,0.2,0.1,0.3,0.1c-0.1-0.2,0.1-0.3,0.4-0.3
		l-0.3-0.2c0,0,0.1,0,0.2,0.1c0.1,0-0.2-0.1-0.3-0.1c0,0,0.2,0,0.2,0.1c-0.2-0.2-0.4-0.5-0.1-0.4l0.1,0.1c0.1,0-0.5-0.3-0.2-0.3l0,0
		c0.2-0.1,0-0.4,0.5-0.3c-0.4-0.2,0.2-0.1-0.3-0.3c0.3,0,0.4,0.1,0.6,0.1c0,0-0.3-0.2-0.3-0.3l0.3,0.1l-0.3-0.2l0.3,0.1l-0.1-0.1
		c0,0-0.1,0-0.2-0.1c-0.1-0.1,0.3,0,0.4,0l-0.2-0.3c0.1,0.1,0.1,0.1,0.2,0.2c-0.2-0.2,0.3,0.1,0.1-0.1c-0.1,0-0.2-0.1-0.2-0.1
		c0.2,0.1,0.2,0,0.2-0.1l0.2,0.1c0.1-0.1,0-0.3,0.1-0.4c-0.1,0-0.4-0.2-0.4-0.3l0.3,0.2c-0.2-0.1-0.1,0-0.3-0.2
		c0.1,0,0.3,0.2,0.4,0.2l-0.1-0.1c0.1,0,0.1,0.1,0.2,0.2c-0.2-0.1,0.3,0.1,0-0.1l0.1,0c0.1-0.1,0-0.2,0-0.3
		c-0.2-0.2-0.2-0.2-0.3-0.3c0.1,0,0.3,0,0.4-0.1c-0.1-0.1-0.2-0.1-0.3-0.3c0.2,0.1,0.2,0.1,0.4,0.2c0-0.1,0-0.1,0-0.4
		c-0.1,0-0.1-0.1-0.2-0.1c0,0,0.1,0,0.2,0.1l0,0c-0.2-0.4,0.8,0.1,0.5-0.3l0,0l-0.1-0.3c0.1,0,0.1,0.1,0.3,0.2
		c-0.2-0.4,0.2-0.1,0-0.4c0.6,0.4,0.2-0.3,0.6-0.1l-0.1-0.1c-0.1-0.1,0.1,0,0.1,0c-0.1-0.1-0.1-0.1-0.2-0.2c0-0.4,0.6-0.3,0.9-0.4
		c0.1,0-0.6-0.7-0.2-0.5l0.2,0.2c-0.2-0.4,0.3-0.3,0.2-0.7c0,0.1,0.1,0.1,0.1,0.1c0.2,0.1,0.1-0.1,0-0.2c0,0,0.1,0.1,0.2,0.2
		c0.1,0.1-0.1-0.3,0-0.1c0,0,0,0.1,0.1,0.1c-0.1-0.1,0.1-0.1-0.1-0.2c0.1,0,0-0.2,0.2-0.1c-0.2-0.2,0.2,0-0.1-0.3
		c0.3,0.3,0.3,0.2,0.2,0c0.1,0.1,0.1,0.1,0.2,0.2c0,0,0-0.1-0.2-0.3c0.4,0.3-0.1-0.5,0.4,0c0-0.3,0-0.5,0-0.7
		c0.3,0.3-0.1,0.1,0.2,0.5c0-0.2-0.2-0.6,0-0.6c0.1,0,0.1,0.2,0.2,0.2c0-0.2,0.2-0.2,0.2-0.4c0,0,0,0.1,0.1,0.1c0,0,0.1,0-0.1-0.1
		l0,0.1c-0.2-0.2-0.3-0.5-0.4-0.7c0.3,0.5,0.2,0,0.6,0.6c0,0-0.1-0.1-0.2-0.2c0,0,0.1,0.1,0.2,0.2c0-0.1-0.2-0.3-0.1-0.3
		c0.1,0.1,0.1,0.1,0.1,0.2c-0.1-0.2-0.2-0.3-0.1-0.3c0,0,0.1,0.1,0.1,0.1c0.1-0.1-0.2-0.5,0-0.5c0.2,0.4,0.1,0.1,0.4,0.4l0-0.1
		l-0.1-0.1c0.1,0-0.1-0.3,0-0.2l0.1,0.1l0-0.1l-0.1-0.1c-0.1-0.2-0.3-0.4-0.2-0.3c0,0,0.1,0,0.2,0.1l0,0c-0.1-0.1-0.1-0.2,0-0.2
		c0.1,0.1,0.2,0.3,0.3,0.4c-0.2-0.3,0.1-0.2-0.1-0.4c0,0.1,0.2,0.2,0.2,0.3l-0.1-0.2c0.1,0,0.1,0.1,0.2,0.2c0.1,0-0.3-0.4-0.1-0.3
		c0,0,0,0,0,0.1c0.1,0,0.1-0.2,0.2-0.2c0.2,0.3,0,0.1,0.2,0.4c0.1-0.1,0-0.5,0.1-0.5l0,0c-0.3-0.4,0.2,0.2,0.1-0.1
		c0,0,0.2,0.2,0.1,0.2c0.1,0,0.1-0.2,0.1-0.4l0.1,0.1c0.1,0.1,0.2,0,0.2,0c-0.1-0.1,0-0.1-0.2-0.3c0.6,0.5,0-0.5,0.5-0.1
		c0,0,0,0.1,0,0.1l0-0.2c-0.1-0.2-0.1-0.1-0.2-0.2c-0.1-0.1-0.1-0.2-0.1-0.2c0,0.2,0.2,0.3,0.3,0.4c0-0.1-0.1-0.1-0.1-0.2
		c0.3,0.3-0.3-0.4,0-0.2l0.1,0.1c0-0.1-0.1-0.2,0-0.2c0.2,0.2,0,0.1,0.2,0.3c0,0-0.2-0.5,0-0.3c0,0.1,0,0.1,0,0.2
		c0.2,0.2,0.2,0.2,0.2,0.2l0,0l0.2,0.1l-0.1-0.1c-0.3-0.6,0-0.2-0.1-0.6c0.2,0.4,0.1,0.2,0.3,0.5c0.1,0.1,0.1,0.1,0.2,0.2
		c-0.1-0.2,0.2,0.1,0-0.2c0.1,0.1,0,0,0.2,0.2c0-0.1-0.1-0.1-0.2-0.2c-0.1-0.3,0.4,0.2,0.2-0.2c0-0.2-0.2-0.5-0.2-0.7
		c0.1,0.1,0.2,0.3,0.2,0.3c0.1,0.1,0.1,0,0.1-0.1c0,0.1,0.1,0.1,0.2,0.2c0,0-0.2-0.3,0-0.2c0,0.1,0.1,0.3,0.2,0.4
		c0-0.1-0.1-0.3-0.1-0.4c0.1,0.1,0.1,0.2,0.2,0.3c0-0.1,0-0.2-0.1-0.4l-0.1-0.1c0,0,0.1,0.2,0.1,0.2c0.1,0.2-0.1,0-0.2-0.1l0-0.1
		c-0.3-0.5-0.1,0.2-0.2,0.2l-0.2-0.4l0.1,0.3c-0.1-0.1-0.2-0.3-0.2-0.3c-0.2-0.1,0,0.1-0.1,0c0,0,0,0,0-0.1l0,0.1
		c0-0.1-0.2-0.2-0.1-0.2c-0.2-0.2,0,0.3-0.2,0.1l0,0c0,0.2,0.2,0.3,0.3,0.6l-0.5-0.6l0.2,0.3c0,0-0.1,0-0.1-0.1
		c0.1,0.2,0.1,0.1,0.2,0.3c-0.2-0.2-0.1,0.2-0.4-0.2c0.1,0.2,0.1,0.1,0.2,0.3c-0.3-0.4,0,0.1-0.2-0.1c-0.1-0.2,0-0.1-0.2-0.3
		c0.2,0.4-0.1,0-0.1,0.1c0.2,0.3,0,0.2,0,0.3c-0.1-0.1-0.2-0.1-0.4-0.1l0-0.1c0.2,0.3,0.1,0.3,0.1,0.4c-0.1-0.2-0.2-0.3-0.2-0.4l0,0
		c0.1,0.1,0.1,0.2,0.1,0.2l-0.1-0.2c0,0.1,0.1,0.3-0.1,0.2c0.1,0.2,0.5,0.5,0.5,0.7c-0.1-0.1-0.2-0.3-0.2-0.4c0,0,0,0.1,0,0.1
		l-0.1-0.2c-0.1-0.1,0.1,0.2,0.1,0.2c-0.1-0.2-0.1-0.1-0.2-0.2c0,0,0.1,0,0,0c-0.1,0-0.2-0.1-0.3-0.2c0.1,0.1,0.2,0.2,0.1,0.3
		c-0.1,0.1-0.2-0.2-0.3-0.2c0.1,0.1-0.1,0,0.1,0.3c0,0-0.1-0.1-0.2-0.2c0,0.1-0.1,0.1,0.1,0.4l0,0c0,0,0,0,0,0
		c0.1,0.3-0.3,0-0.3,0.2l-0.1-0.1c0,0.1-0.1,0.2,0,0.4c0,0-0.1-0.1-0.2-0.2c0,0.1,0.1,0.2-0.1,0.1c-0.1-0.2-0.1-0.1,0-0.1
		c-0.1,0-0.2-0.1-0.1,0.1c-0.1-0.2-0.2-0.2-0.2-0.1l0.1,0.1c0,0.1,0,0.1-0.1,0.1l-0.2-0.3c-0.4-0.2,0.2,0.7-0.3,0.2
		c0.1,0.2,0.2,0.1,0.3,0.3c-0.1,0-0.4-0.3-0.4-0.3c-0.2-0.1,0.2,0.4,0.1,0.4c0.1,0.1,0.3,0.3,0.3,0.5c-0.1,0-0.4-0.3-0.4-0.4
		c0,0,0,0,0.1,0c0,0,0-0.1-0.1-0.2l0.1,0.1c-0.1-0.1-0.2,0-0.3-0.2c0,0.1,0.1,0.2,0.2,0.2c-0.2-0.1-0.1,0.1-0.3,0.1
		c0.1,0,0.2,0.1,0.1,0.2c-0.2,0,0.1,0.2,0.1,0.3c-0.2-0.1-0.3-0.3-0.2-0.2c-0.1-0.1-0.2-0.2-0.3-0.3c0.1,0.2-0.2,0-0.3,0l0-0.1
		c0,0.1,0,0.1,0,0.1l0.2,0.2c0,0-0.1,0-0.1-0.1c0.1,0.1,0.3,0.3,0.4,0.5c-0.1-0.1,0,0.2-0.2-0.1c0.2,0-0.2-0.2-0.2-0.3
		c0,0,0,0.1-0.1,0c0,0,0-0.1,0-0.1c-0.3-0.1,0.2,0.3,0.1,0.4c-0.1-0.1-0.2-0.2-0.2-0.2c0,0,0.2,0.2,0.3,0.3c-0.1-0.1,0,0.1,0,0.1
		l0.1,0c0.1,0.1,0.1,0.1,0.1,0.2c-0.1-0.1,0-0.1-0.1-0.1c0.2,0.3-0.3-0.2-0.2,0c-0.1-0.1-0.2-0.2-0.3-0.3c0.1,0.2-0.2-0.1-0.2,0.1
		c0.2,0.2,0.1,0.1,0.3,0.3l0-0.2l0.2,0.3c0,0,0-0.2,0-0.2c0.1,0.2,0.1,0.1,0.2,0.3c-0.3-0.2,0.1,0.2-0.2,0.1l-0.4-0.4
		c-0.3-0.1,0.1,0.3-0.1,0.3l0.1,0c0.1,0.2,0,0.1,0,0.2c-0.1-0.1-0.2-0.2-0.3-0.3c0.1,0.1-0.1,0.1,0.2,0.4l-0.2-0.2
		c-0.2,0,0.3,0.5,0.2,0.5c-0.1-0.2-0.3-0.2-0.3-0.4c0,0-0.1,0,0,0.1c-0.1-0.1,0.1,0.3,0,0.1c0,0.1,0.2,0.2,0.2,0.2
		c0,0-0.1-0.1-0.1-0.1c0.1,0.1,0.1,0.1,0.2,0.3c-0.5-0.4-0.2,0.2-0.6-0.1c0,0.1,0,0.2-0.1,0.3c0,0-0.1-0.1,0-0.1
		c-0.2-0.1,0.4,0.4,0.1,0.4c-0.3-0.2-0.1-0.2-0.2-0.2c-0.5-0.4,0,0.2-0.3-0.1l0,0c-0.2-0.1,0.1,0.3,0,0.3c0,0,0,0-0.1-0.1
		c0.2,0.3,0.2,0.4,0.2,0.6c-0.2-0.2-0.1-0.1-0.3-0.3c0,0.1,0.3,0.3,0.3,0.4c-0.1-0.1-0.2-0.1-0.5-0.3l0-0.1
		c-0.3-0.2-0.1,0.1-0.1,0.1l-0.1-0.1c0,0.1,0.3,0.4,0.2,0.5l0.1,0.1c0.2,0.3-0.2-0.1,0,0.1l-0.3-0.2c0,0.1,0.2,0.4,0.2,0.5
		c-0.2-0.2-0.2-0.4-0.3-0.5c0,0-0.1,0.1,0.1,0.3c0,0-0.1-0.1,0-0.1c0.2,0.2,0.3,0.4,0.2,0.5c-0.6-0.5-0.3,0-0.8-0.3
		c0.1,0.3-0.3,0.2-0.4,0.3c0.5,0.3,0,0.1,0.5,0.4c0,0.1,0,0.1,0,0l-0.4-0.1c-0.2-0.1-0.1-0.1-0.2-0.2c-0.1,0-0.2-0.1-0.4-0.2
		c0.2,0.1,0.2,0.2,0.1,0.2l0.3,0.1c0.2,0.3-0.5-0.2-0.3,0.1l-0.1-0.2c0.1,0.1-0.1,0.2,0.2,0.5c-0.1,0-0.2-0.1-0.2-0.2
		c-0.2,0.1,0.2,0.6-0.1,0.5l-0.1-0.1c0,0,0.2,0.2,0.1,0.1c0,0-0.1-0.1-0.1-0.1c0,0,0.2,0.2,0.1,0.2l-0.1-0.1c-0.3,0,0.2,0.4,0.2,0.6
		c-0.4-0.2-0.6-0.2-0.6-0.2l-0.1,0c-0.1,0.1,0.1,0.5,0.2,0.7c-0.5-0.2-0.4,0.2-0.7,0.2c0.1,0,0.3,0.2,0.3,0.2c-0.1,0,0.2,0.2-0.1,0
		l0,0c-0.4-0.2-0.3,0-0.3,0l0.5,0.3c-0.8-0.2,0,0.5-0.6,0.3c0.1,0.1,0.1,0.1,0.2,0.2l-0.3-0.1c-0.1,0.1-0.2,0.1-0.2,0.3l-0.2-0.1
		c0,0.1,0.7,0.4,0.7,0.5l-0.4-0.2c0,0.1-0.4,0.1-0.2,0.4c-0.1,0-0.2-0.1-0.2-0.1c0,0.1-0.4,0.1,0.2,0.3c-0.3-0.1-0.1,0.1,0,0.2
		l-0.3-0.1c0.3,0.2,0.4,0.2,0.5,0.3c0,0-0.2-0.1-0.1-0.1c-0.2,0,0.2,0.1,0.1,0.2l-0.2-0.1c0,0.1,0,0.1,0.2,0.2
		c0.1,0.1-0.1,0.1-0.3,0c0.1,0.1,0.3,0.2,0.2,0.2c-0.1,0-0.1-0.1-0.2-0.1c-0.2,0,0.2,0.3,0,0.2c-0.1,0-0.1,0-0.2,0
		c0-0.1,0.1-0.1,0.1-0.1c-0.2-0.1-0.3,0-0.6-0.2c0.2,0.1,0.5,0.4,0.4,0.4c0,0,0,0-0.1,0l0,0c0,0,0,0,0,0.1c0,0-0.1,0-0.1,0
		c-0.2-0.1-0.1,0-0.2,0.1c0.3,0.1,0.2,0.1,0.4,0.1c0,0,0,0,0,0c0,0,0,0,0,0l0,0c0,0,0-0.1,0-0.1c0.1,0.1,0.2,0.1,0.1,0.1
		c0.2,0.1,0.3,0.2,0.4,0.2c-0.4-0.1-0.6,0-0.9-0.1c0.1,0.2,0,0.3,0.5,0.5c0.1,0-0.2,0-0.2,0c0,0,0-0.1-0.1-0.1
		c0.1,0.1,0,0.2,0.3,0.3c-0.2,0-0.3-0.1-0.3,0l-0.1,0c-0.6,0.1,0.8,0.6,0,0.6c0,0,0.1,0,0.1,0c-0.4,0.2,0.2,0.6-0.4,0.8
		c-0.1,0.1,0.1,0.1,0.3,0.2l-0.3,0l0.3,0.1c0.2,0.1-0.8,0.1-0.3,0.3l0.2,0c0,0,0.1,0.2-0.1,0.1c0,0,0.2,0,0.1,0l-0.2,0l0.3,0.2
		c-0.1,0.1-0.6-0.1-0.7,0.1c0.1,0.1,0.4,0.2,0.5,0.2c0,0,0.1,0,0.3,0l0.1,0.1c0.5,0,0.9,0.1,1.3,0l-0.3-0.1l0.2,0l0,0.1
		c0.2,0,0-0.1-0.1-0.1c0.1,0,0.2,0,0.3,0l-0.4-0.1c0.2,0,0.4,0.1,0.5,0c-0.2-0.1-0.4,0-0.5-0.1c0.2,0,0.4,0,0.2,0c0.1,0,0.2,0,0.2,0
		c-0.1-0.1,0-0.1-0.3-0.2c0.3,0-0.1-0.1,0.4-0.1c-0.1,0-0.3-0.1-0.3-0.1c0.5,0.1,0-0.1,0.6,0c-0.5-0.1-0.2-0.2-0.4-0.3
		c0,0,0.1,0,0.1,0c0,0,0.2,0,0.3,0c-0.4-0.1-0.5-0.2-0.7-0.2c0.4,0,0.4,0.1,0.8,0.2c-0.3-0.1-0.3-0.2-0.6-0.2c0.2,0,0.1,0,0.4,0
		c-0.5-0.1-0.1-0.1-0.4-0.1c0.2,0,0.5,0.1,0.3,0C16.7,133.4,16.9,133.5,16.9,133.5 M16.5,131.7L16.5,131.7
		C16.5,131.8,16.5,131.8,16.5,131.7C16.5,131.8,16.5,131.8,16.5,131.7 M16.5,131.6C16.5,131.6,16.5,131.6,16.5,131.6
		c-0.1,0-0.2,0-0.2,0C16.4,131.6,16.5,131.6,16.5,131.6 M14.6,131.3C14.6,131.2,14.6,131.2,14.6,131.3
		C14.7,131.3,14.7,131.3,14.6,131.3l0.1,0.1C14.7,131.3,14.6,131.3,14.6,131.3"/>
	<path class="st0" d="M14.9,131.4C14.9,131.4,14.9,131.4,14.9,131.4C15,131.4,15,131.4,14.9,131.4L14.9,131.4L14.9,131.4z"/>
	<path class="st0" d="M23.7,121.2L23.7,121.2C23.7,121.2,23.7,121.2,23.7,121.2C23.7,121.2,23.7,121.2,23.7,121.2"/>
	<polygon class="st0" points="17.8,130.1 17.7,130.1 17.8,130.1 	"/>
	<path class="st0" d="M24.9,121.6C24.9,121.6,25,121.6,24.9,121.6C25,121.6,24.9,121.6,24.9,121.6"/>
	<path class="st0" d="M25.2,121.4L25.2,121.4C25.3,121.4,25.3,121.4,25.2,121.4"/>
	<path class="st0" d="M25.5,121.4c0,0,0-0.1-0.1-0.1h0L25.5,121.4z"/>
	<path class="st0" d="M22.4,124.1C22.4,124.1,22.4,124.1,22.4,124.1C22.5,124.2,22.5,124.2,22.4,124.1"/>
	<path class="st0" d="M23,122.8c0,0,0,0.1,0.1,0.1C23.1,123,23.1,123,23,122.8"/>
	<polygon class="st0" points="21.7,125.3 21.7,125.3 21.7,125.3 	"/>
	<path class="st0" d="M23,123C23,123,23,123,23,123C23,123,23,123,23,123"/>
	<path class="st0" d="M26.6,120.9L26.6,120.9C26.6,120.9,26.6,120.9,26.6,120.9L26.6,120.9z"/>
	<path class="st0" d="M26.6,120.8L26.6,120.8C26.5,120.8,26.5,120.8,26.6,120.8"/>
	<path class="st0" d="M26.5,120.7L26.5,120.7C26.6,120.8,26.6,120.8,26.5,120.7"/>
	<path class="st0" d="M26.2,121L26.2,121C26.2,121,26.2,121,26.2,121"/>
	<path class="st0" d="M26.1,121c0,0,0.2,0.2,0.2,0.1l0-0.1C26.3,121.2,26.1,120.9,26.1,121"/>
	<path class="st0" d="M25.1,120.2l0.1,0c-0.1-0.1-0.2-0.2-0.1-0.2C24.8,119.8,25.2,120.2,25.1,120.2"/>
	<path class="st0" d="M24.7,120.2c0-0.1-0.1-0.1-0.1-0.2C24.7,120.2,24.7,120.2,24.7,120.2"/>
	<path class="st0" d="M23.1,121.4l-0.1-0.2C22.9,121.3,23,121.3,23.1,121.4"/>
	<polygon class="st0" points="23.6,122.7 23.7,122.8 23.5,122.6 	"/>
	<polygon class="st0" points="22.3,121.4 22.2,121.4 22.3,121.5 	"/>
	<path class="st0" d="M19.7,123.8l0.2,0.2C19.9,124,19.6,123.7,19.7,123.8"/>
	<path class="st0" d="M18.9,125.1c-0.1-0.1-0.2-0.1-0.1,0C18.8,125.1,18.9,125.2,18.9,125.1"/>
	<polygon class="st0" points="15.8,128.6 15.7,128.5 15.7,128.6 	"/>
	<path class="st0" d="M0.4,124.6c0,0.1-0.1,0.3-0.1,0.2L0.4,124.6L0.4,124.6z"/>
	<path class="st0" d="M0.3,125.2c0.1-0.1,0.2-0.4,0.3-0.7c-0.1,0.3-0.1,0.2-0.2,0.5c0,0,0-0.1,0-0.2c0,0.1,0-0.1-0.1,0.1
		c-0.1,0.3,0,0.3,0.1,0.1C0.4,125.1,0.3,125.2,0.3,125.2"/>
	<path class="st0" d="M2.2,126.4L2.2,126.4C2.2,126.4,2.2,126.4,2.2,126.4"/>
	<path class="st0" d="M3.3,127.1C3.3,127.1,3.3,127.2,3.3,127.1C3.3,127.2,3.3,127.2,3.3,127.1"/>
	<path class="st0" d="M3.4,127.6C3.4,127.5,3.4,127.5,3.4,127.6C3.3,127.6,3.3,127.6,3.4,127.6"/>
	<path class="st0" d="M2.2,126.4l0,0.1C2.2,126.5,2.2,126.5,2.2,126.4"/>
	<path class="st0" d="M0.9,124.6C0.8,124.6,0.8,124.6,0.9,124.6C0.8,124.6,0.8,124.6,0.9,124.6L0.9,124.6z"/>
	<path class="st0" d="M1.5,126.5L1.5,126.5c0,0,0,0.1-0.1,0.1L1.5,126.5z"/>
	<path class="st0" d="M1.1,126.4c0,0,0.1-0.2,0.1-0.4c0,0.1-0.1,0.2-0.1,0.2C1.1,126.2,1.1,126.3,1.1,126.4"/>
	<path class="st0" d="M0.6,125.7L0.6,125.7C0.6,125.7,0.6,125.7,0.6,125.7"/>
	<path class="st0" d="M1.8,126.7C1.8,126.7,1.8,126.7,1.8,126.7L1.8,126.7z"/>
	<path class="st0" d="M13.1,132.9C13.1,132.9,13.1,133,13.1,132.9C13.1,133,13.1,132.9,13.1,132.9"/>
	<polygon class="st0" points="12.1,134 12.1,134 12,134.1 	"/>
	<path class="st0" d="M3.6,128.1L3.6,128.1C3.5,128.1,3.6,128.1,3.6,128.1"/>
	<path class="st0" d="M6.8,129.7c0.1-0.2,0.2-0.2,0.3-0.5C7.1,129.3,6.9,129.5,6.8,129.7"/>
	<path class="st0" d="M0.9,124.6C0.9,124.6,0.9,124.6,0.9,124.6C0.9,124.6,0.9,124.6,0.9,124.6"/>
	<path class="st0" d="M7.2,129.2L7.2,129.2L7.2,129.2C7.2,129.2,7.2,129.2,7.2,129.2"/>
	<path class="st0" d="M4.5,128.3c0,0,0-0.1,0-0.1C4.5,128.2,4.5,128.3,4.5,128.3"/>
	<path class="st0" d="M4,127.6L4,127.6C4,127.7,4,127.6,4,127.6"/>
	<path class="st0" d="M5,128.1C5,128.2,5,128.2,5,128.1C5,128.2,5,128.1,5,128.1C5,128.2,5,128.2,5,128.1"/>
	<path class="st0" d="M5.3,128.3C5.3,128.3,5.3,128.3,5.3,128.3L5.3,128.3L5.3,128.3z"/>
	<path class="st0" d="M12.4,131.9c-0.1,0-0.1,0.1-0.2,0.2C12.3,131.9,12.4,131.9,12.4,131.9"/>
	<path class="st0" d="M0.8,124.7c0-0.1,0-0.1,0-0.1c0,0,0,0,0,0C0.8,124.7,0.8,124.7,0.8,124.7"/>
	<path class="st0" d="M6.1,126.2L6.1,126.2C6.1,126.2,6.1,126.2,6.1,126.2"/>
	<path class="st0" d="M10.3,129.6L10.3,129.6C10.4,129.5,10.4,129.5,10.3,129.6"/>
	<path class="st0" d="M6.3,126.3c0,0.1-0.1,0.1-0.1,0.2c0,0,0,0,0-0.1L6.3,126.3z"/>
	<path class="st0" d="M12.2,132L12.2,132L12.2,132z"/>
	<path class="st0" d="M13,132c0-0.1-0.3,0.2-0.5,0.3c-0.1,0,0.2-0.2,0.4-0.3c-0.1,0-0.4,0.2-0.4,0.1c0.1,0,0.1-0.1,0.1-0.1
		c-0.3,0.1-0.1-0.1-0.4,0c0,0,0.1,0,0.1-0.1c-0.1,0.1-0.3,0.2-0.4,0.3c0,0-0.2,0.1,0-0.1c0,0,0.1,0,0.2-0.1l-0.1,0
		c0.3-0.2,0.1,0,0.3-0.2c-0.1,0-0.4,0.1-0.3,0c0.3-0.2,0.2,0,0.4-0.2L12,132c0.4-0.3,0,0.1,0.4-0.3c0-0.1-0.2,0-0.2-0.1
		c-0.2,0.1-0.2,0.2-0.4,0.3c-0.3,0.1,0.6-0.6,0.2-0.4c-0.2,0.1-0.5,0.4-0.4,0.2l0.3-0.2c0-0.1-0.5,0.3-0.3,0.1
		c0.1-0.1,0.1,0,0.2-0.1c0.2-0.2-0.2,0.1-0.2,0.1l0.3-0.2c-0.1,0-0.4,0-0.5,0c0.1-0.1,0.2-0.1,0.2-0.2c-0.2,0-0.1-0.2-0.1-0.5
		l-0.3,0.2c0,0,0.1-0.1,0.1-0.1c0.1-0.1-0.1,0.1-0.2,0.2c0,0,0.1-0.1,0.2-0.2c-0.2,0.1-0.6,0.2-0.4-0.1l0.1,0c0-0.1-0.5,0.3-0.3,0.1
		l0,0c0-0.2-0.3-0.1-0.1-0.5c-0.3,0.3,0-0.2-0.4,0.2c0.1-0.3,0.2-0.3,0.3-0.6c0,0-0.3,0.2-0.4,0.2l0.2-0.2l-0.3,0.2l0.2-0.3l-0.1,0
		c0,0-0.1,0.1-0.1,0.2c-0.1,0.1,0-0.3,0.1-0.4l-0.3,0.1c0.1-0.1,0.1-0.1,0.2-0.1c-0.3,0.2,0.2-0.2,0-0.1c0,0.1-0.1,0.1-0.2,0.2
		c0.1-0.2,0-0.2-0.1-0.2l0.1-0.2c0-0.1-0.2-0.1-0.3-0.1c0,0.1-0.3,0.4-0.3,0.4l0.2-0.3c-0.1,0.1-0.1,0.1-0.2,0.3
		c0-0.1,0.2-0.3,0.3-0.4L9.7,129c0.1-0.1,0.1-0.1,0.2-0.2c-0.1,0.1,0.1-0.3-0.1-0.1l0.1-0.1c-0.1-0.1-0.2,0-0.3-0.1
		c-0.2,0.2-0.2,0.1-0.3,0.3c0-0.1,0.1-0.3,0-0.4c-0.1,0.1-0.2,0.2-0.3,0.3c0.2-0.2,0.1-0.2,0.2-0.4c-0.1,0-0.1,0-0.4,0.1
		c-0.1,0.1-0.1,0.1-0.1,0.2c0,0,0-0.1,0.1-0.2l0,0c-0.3,0.2,0.2-0.8-0.2-0.4l0,0l-0.3,0.2c0-0.1,0.1-0.1,0.2-0.3
		c-0.4,0.3-0.1-0.2-0.4,0c0.4-0.7-0.3-0.1-0.1-0.6l-0.1,0.2c-0.1,0.1,0-0.1,0-0.1c-0.1,0.1-0.1,0.2-0.1,0.2c-0.3,0-0.3-0.5-0.4-0.8
		c-0.1-0.1-0.5,0.8-0.4,0.3l0.2-0.3c-0.4,0.2-0.3-0.2-0.6,0c0-0.1,0.1-0.1,0.1-0.1c0.1-0.2-0.1-0.1-0.2,0.1c0,0,0.1-0.2,0.1-0.3
		c0-0.1-0.2,0.2-0.1,0c0,0,0-0.1,0.1-0.1c-0.1,0.1-0.1-0.1-0.2,0.2c0-0.1-0.2,0-0.1-0.1c-0.2,0.3,0-0.2-0.2,0.2
		c0.2-0.4,0.1-0.4-0.1-0.2c0.1-0.1,0-0.1,0.1-0.3c0,0-0.1,0-0.2,0.2c0.2-0.5-0.4,0.3-0.1-0.3c-0.2,0.2-0.4,0.2-0.6,0.3
		c0.2-0.4,0.1,0,0.4-0.4c-0.2,0.1-0.4,0.4-0.5,0.3c0-0.1,0.1-0.2,0.1-0.2c-0.2,0.1-0.2-0.1-0.4,0c0,0,0.1-0.1,0.1-0.1
		c0,0,0-0.1-0.1,0.1l0,0c-0.1,0.3-0.3,0.5-0.4,0.7c0.3-0.5,0-0.2,0.3-0.8c0,0-0.1,0.1-0.1,0.2c0,0,0-0.1,0.1-0.3
		c-0.1,0.1-0.2,0.3-0.2,0.2c0-0.1,0.1-0.1,0.1-0.2c-0.1,0.2-0.2,0.3-0.2,0.2c0-0.1,0.1-0.1,0.1-0.1c-0.1,0-0.4,0.4-0.4,0.2
		c0.2-0.4,0-0.1,0.2-0.5l-0.1,0.1L4,125.9c0,0-0.2,0.2-0.2,0.1l0.1-0.1l-0.1,0l0,0.2c-0.1,0.2-0.2,0.4-0.2,0.3c0,0,0,0,0-0.2v0
		c-0.1,0.1-0.1,0.2-0.1,0.1c0-0.1,0.2-0.4,0.2-0.4c-0.1,0.3-0.1,0-0.3,0.3c0-0.1,0.1-0.2,0.1-0.3L3.4,126c0-0.1,0-0.1,0.1-0.3
		c0-0.1-0.2,0.4-0.2,0.2c0,0,0-0.1,0.1-0.1c0-0.1-0.2,0.1-0.2-0.1c0.1-0.4,0.1-0.1,0.2-0.4c-0.1,0-0.4,0.3-0.5,0.2l0,0
		c-0.2,0.5,0-0.3-0.1-0.1c0,0,0.1-0.3,0.1-0.2c0-0.1-0.2,0.1-0.4,0.2l0.1-0.1c0-0.1-0.1-0.1-0.1-0.2c-0.1,0.1-0.1,0.1-0.1,0.3
		c0.2-0.8-0.4,0.3-0.3-0.4c0,0,0.1-0.1,0.1-0.1L2,125.2c-0.1,0.2,0,0.1-0.1,0.3c-0.1,0.1-0.1,0.2-0.2,0.2c0.1-0.1,0.1-0.3,0.2-0.5
		c0,0.1-0.1,0.1-0.1,0.2c0.1-0.4-0.2,0.4-0.1,0.1l0-0.1c0,0-0.1,0.2-0.1,0.1c0.1-0.3,0.1-0.1,0.2-0.3c0,0-0.3,0.4-0.2,0.2
		c0-0.1,0.1-0.1,0.1-0.1c0.1-0.3,0-0.2,0-0.3l0,0l0-0.2l0,0.1c-0.3,0.6-0.1,0.1-0.4,0.5c0.2-0.4,0.1-0.2,0.2-0.5
		c0-0.1,0-0.2,0.1-0.3c-0.1,0.2,0-0.2-0.2,0.1c0-0.1,0,0,0.1-0.2c-0.1,0.1,0,0.2-0.1,0.3c-0.2,0.3,0-0.4-0.3,0
		c-0.1,0.2-0.3,0.5-0.4,0.6c0-0.2,0.1-0.3,0.1-0.3c0-0.1,0-0.1-0.1,0c0-0.1,0.1-0.1,0.1-0.3c0,0-0.1,0.3-0.1,0.2
		c0-0.1,0.1-0.3,0.2-0.4c-0.1,0.1-0.2,0.2-0.2,0.3c0-0.2,0.1-0.2,0.2-0.3c-0.1,0.1-0.2,0.1-0.3,0.4l0,0.1c0,0,0.1-0.2,0.1-0.3
		c0.1-0.2,0,0.1,0,0.2l0,0c-0.2,0.6,0.1,0,0.2,0l-0.2,0.4l0.2-0.3c0,0.1-0.1,0.3-0.1,0.4c0,0.2,0.1-0.1,0,0.1c0,0,0,0.1,0,0.1
		l0.1-0.1c0,0.1-0.1,0.3-0.1,0.2c0,0.2,0.2-0.3,0.1,0l0,0c0.1-0.1,0.1-0.3,0.3-0.6L0.8,126l0.1-0.3c0,0,0,0,0,0.2
		c0.1-0.2,0-0.1,0.1-0.3c0,0.3,0.2-0.1,0,0.4c0.1-0.2,0-0.2,0.1-0.3c-0.2,0.5,0.1-0.1,0,0.2c-0.1,0.2-0.1,0.1-0.1,0.3
		c0.2-0.4,0,0.1,0.1,0.1c0.1-0.3,0.1-0.1,0.2-0.2c0,0.1,0,0.2,0,0.4l0,0.1c0.1-0.3,0.2-0.3,0.2-0.3c-0.1,0.2-0.1,0.3-0.2,0.4l0,0
		c0.1-0.1,0.1-0.2,0.1-0.2l-0.1,0.3c0.1,0,0.2-0.3,0.2-0.1c0.1-0.2,0.2-0.7,0.3-0.8c0,0.1-0.1,0.4-0.2,0.4c0,0,0.1-0.1,0.1,0
		l-0.1,0.2c0,0.1,0.1-0.2,0.1-0.1c-0.1,0.2,0,0.1-0.1,0.3c0,0,0-0.1,0,0c0,0,0,0.2,0,0.3c0-0.1,0.1-0.2,0.1-0.3
		c0.1,0-0.1,0.2-0.1,0.3c0.1-0.1,0,0,0.2-0.3c0,0,0,0.1-0.1,0.2c0.1-0.1,0.1,0,0.2-0.3l0,0l0,0c0.2-0.2,0.1,0.2,0.2,0.1l0,0.1
		c0.1-0.1,0.1,0,0.3-0.2c0,0,0,0.2-0.1,0.3c0.1-0.1,0.1-0.2,0.1,0c-0.1,0.1,0,0.1-0.1,0.1c0,0.1,0,0.2,0.1,0c-0.1,0.2-0.1,0.3,0,0.2
		l0-0.2c0,0,0.1,0,0.1,0l-0.1,0.3c-0.1,0.4,0.5-0.6,0.3,0.1c0.1-0.2,0-0.2,0.1-0.4c0,0.1-0.1,0.5-0.1,0.5c0,0.2,0.3-0.4,0.3-0.3
		c0-0.1,0.2-0.4,0.3-0.5c0,0.1-0.1,0.5-0.2,0.6c0,0,0,0,0-0.1c0,0-0.1,0.1-0.1,0.2l0.1-0.1c0,0.1,0,0.1-0.1,0.3
		c0.1-0.1,0.1-0.2,0.1-0.2c0,0.2,0.1,0,0.1,0.2c0-0.1,0.1-0.2,0.1-0.2c0,0.2,0.1-0.2,0.2-0.2c0,0.2-0.2,0.4-0.1,0.3
		c0,0.1-0.1,0.3-0.2,0.4c0.2-0.2,0,0.2,0.1,0.2l-0.1,0.1c0,0,0.1,0,0.1,0l0.1-0.2c0,0,0,0.1,0,0.1c0.1-0.1,0.2-0.4,0.3-0.5
		c0,0.1,0.1-0.1,0,0.2c0-0.1-0.1,0.3-0.2,0.3c0,0,0,0,0,0c0,0,0,0.1,0,0.1c-0.1,0.3,0.2-0.3,0.3-0.3c-0.1,0.2-0.1,0.3-0.1,0.3
		c0,0,0.1-0.3,0.2-0.4c0,0.1,0.1-0.1,0.1,0l0-0.1c0.1-0.2,0.1-0.1,0.2-0.2c-0.1,0.1-0.1,0.1-0.1,0.1c0.2-0.3-0.1,0.3,0.1,0.2
		c0,0.1-0.1,0.3-0.2,0.4c0.2-0.2-0.1,0.2,0.1,0.1c0.1-0.2,0.1-0.2,0.2-0.4l-0.2,0.1l0.2-0.3c0,0-0.1,0.1-0.1,0.1
		c0.1-0.2,0.1-0.1,0.2-0.3c-0.1,0.3,0.2-0.1,0.1,0.1l-0.3,0.5c-0.1,0.3,0.3-0.2,0.3,0l0-0.1c0.1-0.2,0.1,0,0.1-0.1
		c-0.1,0.2-0.1,0.2-0.2,0.4c0.1-0.1,0.1,0,0.2-0.3l-0.1,0.2c0,0.1,0.3-0.5,0.4-0.4c-0.1,0.2-0.2,0.3-0.3,0.4c0,0,0,0.1,0.1-0.1
		c0,0.1,0.2-0.2,0.1,0c0.1-0.1,0.2-0.3,0.2-0.2c0,0,0,0.1,0,0.1c0-0.1,0.1-0.1,0.2-0.3c-0.2,0.6,0.2,0.1,0,0.6c0.1,0,0.2-0.1,0.2,0
		c0,0,0,0.1,0,0.1c0,0.2,0.3-0.5,0.3-0.3c-0.1,0.3-0.1,0.1-0.2,0.2c-0.3,0.6,0.1,0,0,0.3l0,0c-0.1,0.2,0.2-0.2,0.2-0.1
		c0,0,0,0-0.1,0.1c0.2-0.3,0.3-0.3,0.4-0.4c-0.1,0.2-0.1,0.1-0.2,0.3c0,0,0.2-0.4,0.3-0.4c-0.1,0.1-0.1,0.3-0.2,0.5l-0.1,0
		c-0.2,0.3,0.1,0,0.1,0.1L6,128.9c0.1,0,0.3-0.3,0.4-0.3l0.1-0.1c0.2-0.3-0.1,0.2,0.1,0l-0.2,0.3c0.1-0.1,0.3-0.3,0.4-0.3
		c-0.2,0.2-0.3,0.3-0.5,0.4c0,0,0.1,0,0.2-0.1c0,0-0.1,0.1-0.1,0c0.2-0.2,0.3-0.3,0.4-0.3c-0.4,0.6,0,0.2-0.3,0.8
		c0.2-0.2,0.1,0.2,0.2,0.3c0.3-0.5,0,0,0.4-0.5c0,0,0.1,0,0,0l-0.1,0.4c-0.1,0.2-0.1,0.1-0.2,0.2c0,0.1-0.1,0.2-0.2,0.4
		c0.1-0.2,0.2-0.2,0.2-0.2l0.1-0.3c0.3-0.2-0.2,0.5,0,0.3l-0.1,0.1c0.1-0.1,0.1,0.1,0.5-0.3c0,0.1-0.1,0.2-0.2,0.2
		c0,0.1,0.5-0.3,0.4,0l-0.1,0.1c0,0,0.2-0.2,0.1-0.1c0,0-0.1,0.1-0.1,0.1c0,0,0.2-0.2,0.2-0.1l-0.1,0.1c0,0.2,0.4-0.2,0.5-0.2
		c-0.3,0.3-0.3,0.5-0.3,0.6l0,0c0.1,0.1,0.4-0.1,0.6-0.2c-0.3,0.4,0.1,0.3,0,0.6c0-0.1,0.2-0.3,0.3-0.3c0,0.1,0.3-0.2,0,0.1l0,0
		c-0.2,0.3-0.1,0.3-0.1,0.3l0.4-0.4c-0.4,0.6,0.4,0,0,0.5c0.1-0.1,0.1-0.1,0.2-0.1l-0.2,0.2c0,0.1,0,0.2,0.1,0.2l-0.2,0.1
		c0,0,0.6-0.5,0.7-0.5l-0.3,0.3c0.1,0.1-0.1,0.4,0.2,0.2c0,0-0.1,0.1-0.2,0.1c0,0-0.1,0.3,0.3-0.1c-0.3,0.3,0,0.1,0.2,0L9.5,132
		c0.3-0.2,0.4-0.3,0.5-0.3c0,0-0.2,0.2-0.1,0.1c-0.1,0.1,0.2-0.1,0.2,0l-0.1,0.1c0,0,0.1,0,0.3-0.1c0.1,0,0,0.1-0.2,0.3
		c0.1-0.1,0.3-0.2,0.3-0.1c-0.1,0.1-0.1,0.1-0.1,0.1c-0.1,0.2,0.3-0.1,0.1,0.1c-0.1,0.1-0.1,0.1-0.1,0.1c0-0.1-0.1-0.1,0-0.1
		c-0.2,0.2-0.2,0.2-0.5,0.4c0.2-0.1,0.5-0.3,0.5-0.2c0,0,0,0-0.1,0.1l0,0c0,0,0,0,0.1,0c0,0,0,0.1,0,0.1c-0.2,0.1-0.1,0.1,0,0.1
		c0.2-0.2,0.2-0.1,0.4-0.3c0,0,0,0-0.1,0c0,0,0,0,0,0l0,0c0,0,0,0-0.1,0c0.1-0.1,0.2-0.1,0.1,0c0.2-0.1,0.3-0.2,0.4-0.2
		c-0.3,0.3-0.4,0.4-0.6,0.6c0.2,0,0.2,0.1,0.6-0.2c0.1,0-0.1,0.1-0.2,0.2c-0.1,0-0.1,0-0.1,0c0.1,0,0.1,0.1,0.4-0.1
		c-0.1,0.1-0.3,0.2-0.2,0.2l-0.1,0.1c-0.4,0.5,0.9-0.3,0.4,0.2c0,0,0-0.1,0.1-0.1c-0.2,0.3,0.5,0.2,0.1,0.6c-0.1,0.1,0.1,0,0.3-0.1
		l-0.3,0.2l0.3-0.1c0.3,0-0.6,0.5-0.1,0.3l0.2-0.1c0,0.1,0.2,0.1-0.1,0.1c0,0,0.2-0.1,0.1,0l-0.1,0.1l0.3,0
		c-0.1,0.1-0.6,0.3-0.6,0.3c0.1,0,0.5-0.1,0.6-0.1c0,0,0.1-0.1,0.2-0.1h0.1c0.4-0.2,0.9-0.3,1.1-0.6l-0.3,0.1l0.2-0.1l0,0
		c0.2-0.1,0-0.1-0.1,0c0.1-0.1,0.2-0.1,0.2-0.1l-0.4,0.1c0.2-0.1,0.3-0.1,0.4-0.2c-0.2,0.1-0.4,0.2-0.5,0.2c0.2-0.1,0.3-0.2,0.2-0.1
		c0.1-0.1,0.2-0.1,0.2-0.1c-0.1,0-0.1-0.1-0.3,0c0.2-0.1-0.1-0.1,0.3-0.3c-0.1,0-0.3,0.1-0.4,0.1c0.5-0.2,0-0.1,0.5-0.4
		c-0.4,0.2-0.3,0-0.5,0c0,0,0.1,0,0.1,0c0-0.1,0.1-0.1,0.2-0.2c-0.3,0.2-0.5,0.2-0.7,0.3c0.3-0.2,0.4-0.2,0.7-0.4
		c-0.3,0.2-0.3,0.1-0.5,0.2c0.2-0.2,0.1-0.1,0.3-0.3c-0.4,0.2-0.1,0-0.4,0.1c0.2-0.2,0.4-0.3,0.2-0.2C12.8,132.1,13,132,13,132
		 M11.4,131.3L11.4,131.3C11.4,131.3,11.4,131.3,11.4,131.3C11.4,131.3,11.4,131.3,11.4,131.3 M11.3,131.2
		C11.3,131.2,11.3,131.2,11.3,131.2c0,0.1-0.1,0.2-0.1,0.2C11.2,131.3,11.3,131.2,11.3,131.2 M9.9,132.6
		C9.9,132.6,9.9,132.6,9.9,132.6C10,132.5,10,132.5,9.9,132.6l0.1-0.1C10,132.5,10,132.6,9.9,132.6"/>
	<path class="st0" d="M10.2,132.4C10.3,132.4,10.3,132.4,10.2,132.4C10.3,132.4,10.3,132.3,10.2,132.4L10.2,132.4L10.2,132.4z"/>
	<path class="st0" d="M2.2,126.4L2.2,126.4C2.2,126.4,2.2,126.4,2.2,126.4C2.2,126.4,2.2,126.4,2.2,126.4"/>
	<polygon class="st0" points="10.5,129.6 10.5,129.6 10.5,129.6 	"/>
	<path class="st0" d="M1.9,125.3C1.9,125.2,1.9,125.2,1.9,125.3C1.9,125.2,1.9,125.2,1.9,125.3"/>
	<path class="st0" d="M1.7,125.1l0-0.1C1.7,125.1,1.7,125.1,1.7,125.1"/>
	<path class="st0" d="M1.5,124.9c0,0,0,0.1,0,0.1v0L1.5,124.9z"/>
	<path class="st0" d="M4.9,125.9C4.9,125.9,4.9,125.9,4.9,125.9C4.9,125.9,4.9,125.9,4.9,125.9"/>
	<path class="st0" d="M3.6,126.1c0,0,0.1-0.1,0.1-0.1C3.7,126,3.7,126,3.6,126.1"/>
	<polygon class="st0" points="6,126.2 6,126.2 6.1,126.2 	"/>
	<path class="st0" d="M3.8,126C3.8,126,3.8,126,3.8,126C3.7,126,3.7,126.1,3.8,126"/>
	<path class="st0" d="M0.7,124.5L0.7,124.5C0.7,124.5,0.7,124.5,0.7,124.5L0.7,124.5z"/>
	<path class="st0" d="M0.7,124.5L0.7,124.5C0.6,124.5,0.6,124.5,0.7,124.5"/>
	<path class="st0" d="M0.6,124.6L0.6,124.6C0.6,124.5,0.6,124.5,0.6,124.6"/>
	<path class="st0" d="M0.9,124.7L0.9,124.7C0.9,124.6,0.9,124.6,0.9,124.7"/>
	<path class="st0" d="M1,124.7c0,0,0-0.2,0-0.2L1,124.7C1,124.5,0.9,124.8,1,124.7"/>
	<path class="st0" d="M0.9,126L0.9,126c-0.1,0-0.1,0.1-0.1,0.2C0.8,126.5,0.8,125.9,0.9,126"/>
	<path class="st0" d="M1.1,126.2c-0.1,0-0.1,0.1-0.1,0.2C1.1,126.3,1.1,126.3,1.1,126.2"/>
	<path class="st0" d="M2.5,126.8L2.4,127C2.5,127,2.5,126.9,2.5,126.8"/>
	<polygon class="st0" points="3.3,125.7 3.4,125.5 3.3,125.8 	"/>
	<polygon class="st0" points="2.8,127.4 2.7,127.5 2.8,127.4 	"/>
	<path class="st0" d="M5.1,128.5l0.1-0.3C5.2,128.3,5.1,128.6,5.1,128.5"/>
	<path class="st0" d="M6.3,128.8c-0.1,0.1-0.1,0.2,0,0.1C6.2,128.9,6.3,128.8,6.3,128.8"/>
	<polygon class="st0" points="8.6,131.2 8.5,131.2 8.6,131.2 	"/>
</g>
</svg>
