<?xml version="1.0" encoding="utf-8"?>
<!-- Generator: Adobe Illustrator 19.0.0, SVG Export Plug-In . SVG Version: 6.00 Build 0)  -->
<svg version="1.1" id="Layer_1" xmlns="http://www.w3.org/2000/svg" xmlns:xlink="http://www.w3.org/1999/xlink" x="0px" y="0px"
	 viewBox="0 0 87.3 87.3" style="enable-background:new 0 0 87.3 87.3;" xml:space="preserve">
<style type="text/css">
	.st0{clip-path:url(#SVGID_2_);fill:#2E353F;}
	.st1{clip-path:url(#SVGID_2_);fill:#FFFFFF;}
</style>
<g>
	<defs>
		<rect id="SVGID_1_" y="0" width="87.3" height="87.3"/>
	</defs>
	<clipPath id="SVGID_2_">
		<use xlink:href="#SVGID_1_"  style="overflow:visible;"/>
	</clipPath>
	<path class="st0" d="M43.6,87.3C19.6,87.3,0,67.7,0,43.6S19.6,0,43.6,0c24.1,0,43.6,19.6,43.6,43.6S67.7,87.3,43.6,87.3 M43.6,1
		C20.1,1,1,20.1,1,43.6s19.1,42.6,42.6,42.6s42.6-19.1,42.6-42.6S67.1,1,43.6,1"/>
	<path class="st0" d="M67.9,57.4c-0.3,0-0.5-0.2-0.5-0.5c0-0.3,0.2-0.5,0.5-0.5c2.2-0.2,5.2-0.5,6.9-0.9c6-1.6,6-2.8,6-2.8
		c0-0.2-0.7-0.5-1.5-0.5c-1,0-3.3,0.2-6,0.4c-1.4,0.1-2.8,0.2-4.3,0.3c-0.3,0-0.5-0.2-0.5-0.5c0-0.3,0.2-0.5,0.5-0.5
		c1.4-0.1,2.9-0.2,4.3-0.3c2.7-0.2,5.1-0.4,6.1-0.4c1.1,0,2.3,0.5,2.4,1.4c0.2,1.3-2,2.6-6.8,3.9C73.3,57,70.2,57.3,67.9,57.4
		C67.9,57.4,67.9,57.4,67.9,57.4"/>
	<path class="st0" d="M55.5,52.7C55.5,52.7,55.5,52.7,55.5,52.7c-3-0.5-5-1.1-6.1-1.8c-2.8-1.7-8.2-3-11.1-3.5
		c-0.9-0.1-1.6-0.2-2.1-0.4c-0.2-0.1-0.4-0.3-0.3-0.6c0.1-0.2,0.3-0.4,0.6-0.4c0.1,0,1,0.2,2.4,0.4C45.2,47,60,46,61.8,44.9
		c2.3-1.4,2.2-3.7,2.1-4.4c-0.5-0.1-1.4,0.2-2.5,0.6c-1.8,0.7-4.2,1.6-7.4,1.7c-1.7,0.1-4.2,0-7-0.1c-9.8-0.3-24.6-0.7-27.7,5.1
		c-0.1,0.2-0.4,0.3-0.7,0.2c-0.2-0.1-0.3-0.4-0.2-0.7c3.4-6.3,18-5.9,28.6-5.6c2.8,0.1,5.2,0.1,6.9,0.1c3-0.1,5.4-1,7.1-1.6
		c1.6-0.6,2.8-1,3.6-0.4c0.1,0.1,0.2,0.2,0.2,0.3c0,0,0.9,3.7-2.5,5.7c-1.7,1-11.2,1.8-18.3,1.8c-0.1,0-0.2,0-0.3,0
		C46,48.2,48.4,49,50,50c1,0.6,2.9,1.2,5.7,1.7c0.3,0,0.5,0.3,0.4,0.6C56,52.5,55.8,52.7,55.5,52.7"/>
	<path class="st0" d="M40.2,69.6c-5.3,0-9.7-1-12.8-2.1c-5.1-1.7-8.8-4-10.2-5.6c-0.2-0.2-0.2-0.5,0.1-0.7c0.2-0.2,0.5-0.2,0.7,0.1
		c2.5,2.9,14.2,9.1,28.3,6.9c0.3,0,0.5,0.1,0.6,0.4c0,0.3-0.1,0.5-0.4,0.6C44.2,69.5,42.1,69.6,40.2,69.6"/>
	<path class="st0" d="M1.4,53.1C1.2,53.1,1,53,1,52.8c-0.1-0.3,0.1-0.5,0.3-0.6c6.7-2,19.1-7.1,19.2-7.1c0.3-0.1,0.5,0,0.7,0.3
		c0.1,0.3,0,0.5-0.3,0.7C20.8,46,8.4,51.1,1.6,53.1C1.5,53.1,1.5,53.1,1.4,53.1"/>
	<path class="st0" d="M8.3,68.9c-0.2,0-0.4-0.1-0.5-0.3c-0.1-0.3,0-0.5,0.3-0.7c4.8-2.2,11.7-4.8,11.7-4.8c0.3-0.1,0.5,0,0.6,0.3
		c0.1,0.3,0,0.5-0.3,0.6c-0.1,0-6.9,2.6-11.7,4.8C8.5,68.9,8.4,68.9,8.3,68.9"/>
	<path class="st0" d="M31.9,55.7C31.9,55.7,31.9,55.7,31.9,55.7c-2.5-0.2-7.1-1-9.3-3.2c-0.2-0.2-0.2-0.5,0-0.7
		c0.2-0.2,0.5-0.2,0.7,0c1.4,1.4,4.6,2.5,8.6,2.9c0.3,0,0.5,0.3,0.5,0.5C32.4,55.5,32.2,55.7,31.9,55.7"/>
	<path class="st0" d="M62.2,53.6c-0.3,0-0.5-0.2-0.5-0.5c0-0.3,0.2-0.5,0.5-0.5c0,0,1.1-0.1,2.5-0.2c0.3,0,0.5,0.2,0.5,0.5
		c0,0.3-0.2,0.5-0.5,0.5C63.4,53.5,62.3,53.6,62.2,53.6C62.2,53.6,62.2,53.6,62.2,53.6"/>
	<path class="st1" d="M43.4,59.3h2.3c-0.3-1.1-1-6-0.5-8.9h-1C44.2,50.4,44.2,56.2,43.4,59.3"/>
	<path class="st0" d="M45.7,59.8h-2.3c-0.2,0-0.3-0.1-0.4-0.2c-0.1-0.1-0.1-0.3-0.1-0.4c0.7-3,0.8-8.7,0.8-8.8
		c0-0.3,0.2-0.5,0.5-0.5h1c0.1,0,0.3,0.1,0.4,0.2c0.1,0.1,0.1,0.3,0.1,0.4c-0.5,2.8,0.2,7.6,0.5,8.6c0,0.2,0,0.3-0.1,0.4
		C46,59.7,45.8,59.8,45.7,59.8 M44,58.8h1c-0.2-1-0.4-2.7-0.5-4.4C44.5,55.8,44.3,57.5,44,58.8"/>
	<polygon class="st1" points="53.6,59.3 53.4,59.1 53.1,59.1 52.9,58.9 52.6,58.9 52.4,58.7 52.1,58.6 51.9,58.4 51.6,58.4 
		51.4,58.2 51.2,58.1 51,57.9 50.7,57.9 50.5,57.7 50.2,57.6 50,57.4 49.7,57.3 49.5,57.1 49.2,57.1 49.1,56.8 48.8,56.8 48.6,56.5 
		48.3,56.4 48.2,56.2 47.9,56.1 47.7,55.9 47.5,55.8 47.3,55.5 47,55.4 46.9,55.1 46.6,55 46.5,54.7 46.3,54.6 46.2,54.3 45.9,54.2 
		45.8,53.9 45.6,53.7 45.5,53.4 45.3,53.2 45.3,52.9 45.1,52.7 45,52.4 44.9,52.2 44.9,51.9 44.7,51.7 44.7,51.4 44.6,51.1 
		44.7,50.9 44.6,50.6 44.6,50.3 44.6,50 44.6,49.8 44.6,49.5 44.7,49.2 44.9,49.2 45.2,49.3 45.5,49.2 45.8,49.3 46,49.3 46.3,49.4 
		46.6,49.4 46.8,49.5 47.1,49.6 47.3,49.7 47.6,49.8 47.8,50 48.1,50 48.3,50.3 48.6,50.3 48.8,50.6 49,50.7 49.2,50.9 49.4,51 
		49.6,51.3 49.8,51.4 49.9,51.7 50.2,51.9 50.3,52.1 50.5,52.3 50.6,52.6 50.8,52.7 50.9,53 51.1,53.2 51.2,53.5 51.4,53.7 51.5,54 
		51.6,54.2 51.7,54.5 51.9,54.7 51.9,54.9 52.1,55.2 52.2,55.4 52.3,55.7 52.4,56 52.6,56.2 52.6,56.5 52.7,56.7 52.8,57 52.9,57.2 
		53,57.5 53.1,57.7 53.1,58 53.3,58.3 53.3,58.5 53.5,58.8 53.5,59.1 	"/>
	<path class="st0" d="M53.6,59.8c-0.1,0-0.2,0-0.3-0.1l-0.2-0.1l-0.2,0c-0.1,0-0.2-0.1-0.3-0.1l-0.1-0.1l-0.1,0
		c-0.1,0-0.2-0.1-0.3-0.1l-0.1-0.1l-0.1,0c-0.1,0-0.2-0.1-0.3-0.1l-0.1-0.1l-0.1,0c-0.1,0-0.2-0.1-0.3-0.1l-0.1-0.1l-0.1,0
		c-0.1,0-0.2-0.1-0.3-0.1l-0.1-0.1l-0.1,0c-0.1,0-0.2-0.1-0.3-0.1l-0.1-0.1l-0.1,0c-0.1,0-0.2-0.1-0.2-0.1l-0.1-0.1l-0.1,0
		c-0.1,0-0.2-0.1-0.2-0.1l-0.1-0.1l-0.1,0c-0.1,0-0.2-0.1-0.2-0.2l-0.1-0.1l-0.1,0c-0.1,0-0.2-0.1-0.2-0.2L48.3,57l-0.1,0
		c-0.1,0-0.2-0.1-0.2-0.2l-0.1-0.1l-0.1-0.1c-0.1,0-0.2-0.1-0.2-0.2l-0.1-0.1l-0.1-0.1c-0.1,0-0.2-0.1-0.2-0.2L47,55.9l-0.1-0.1
		c-0.1,0-0.2-0.1-0.2-0.2l-0.1-0.1l-0.1-0.1c-0.1,0-0.2-0.1-0.2-0.2l-0.1-0.1L46,55c-0.1-0.1-0.2-0.1-0.2-0.2l-0.1-0.1l-0.1-0.1
		c-0.1-0.1-0.1-0.1-0.2-0.2l-0.1-0.1l-0.1-0.1c-0.1-0.1-0.1-0.2-0.2-0.2l0-0.1L45,53.6c-0.1-0.1-0.1-0.2-0.1-0.3l0-0.1l-0.1-0.1
		c-0.1-0.1-0.1-0.2-0.1-0.3l0-0.2l-0.1-0.1c-0.1-0.1-0.1-0.2-0.1-0.3l0-0.2l-0.1-0.1c-0.1-0.1-0.1-0.2-0.1-0.3l0-0.2l-0.1-0.1
		c0-0.1-0.1-0.2,0-0.3l0-0.1l-0.1-0.1c0-0.1,0-0.2,0-0.3l0-0.1l0-0.1c0-0.1,0-0.2,0-0.3l0.1-0.1l0-0.1c0-0.1,0-0.2,0-0.3l0.1-0.2
		c0.1-0.1,0.2-0.2,0.3-0.3l0.2-0.1c0.1,0,0.2,0,0.3,0l0.1,0l0.2,0c0.1,0,0.2,0,0.3,0l0.1,0.1l0.2,0c0.1,0,0.2,0,0.3,0.1l0.1,0.1
		l0.2,0c0.1,0,0.2,0,0.3,0.1l0.1,0.1l0.2,0c0.1,0,0.2,0,0.3,0.1l0.1,0.1l0.1,0c0.1,0,0.2,0.1,0.3,0.1l0.1,0.1l0.1,0
		c0.1,0,0.2,0.1,0.3,0.2l0.1,0.1l0.1,0c0.1,0,0.2,0.1,0.2,0.2l0.1,0.1l0.1,0.1c0.1,0,0.2,0.1,0.2,0.2l0.1,0.1l0.1,0.1
		c0.1,0,0.2,0.1,0.2,0.2l0.1,0.1l0.1,0.1c0.1,0.1,0.2,0.1,0.2,0.2l0.1,0.1l0.1,0.1c0.1,0.1,0.2,0.1,0.2,0.2l0.1,0.1l0.1,0.1
		c0.1,0.1,0.1,0.1,0.2,0.2l0,0.1l0.1,0.1c0.1,0.1,0.1,0.1,0.2,0.2l0,0.1l0.1,0.1c0.1,0.1,0.1,0.2,0.1,0.2l0,0.1l0.1,0.1
		c0.1,0.1,0.1,0.2,0.1,0.3l0,0.1l0.1,0.1c0.1,0.1,0.1,0.2,0.1,0.3l0,0.1l0.1,0.1c0.1,0.1,0.1,0.2,0.1,0.3l0,0.1l0.1,0.1
		c0.1,0.1,0.1,0.2,0.1,0.3l0,0.1l0.1,0.1c0.1,0.1,0.1,0.2,0.1,0.3l0,0.1l0.1,0.1C53,56,53,56,53,56.1l0,0.1l0.1,0.1
		c0.1,0.1,0.1,0.2,0.1,0.3l0,0.1l0.1,0.1c0.1,0.1,0.1,0.2,0.1,0.3l0,0.1l0.1,0.1c0.1,0.1,0.1,0.2,0.1,0.3l0,0.1l0.1,0.1
		c0.1,0.1,0.1,0.2,0.1,0.3l0,0.1l0.1,0.1c0.1,0.1,0.1,0.2,0.1,0.3l0,0.2l0.1,0.2c0.1,0.2,0.1,0.5-0.1,0.6
		C53.9,59.8,53.8,59.8,53.6,59.8 M52.4,58.2l0.1,0c0.1,0,0.1,0,0.2,0.1c0-0.1-0.1-0.1-0.1-0.2l0-0.1l-0.1-0.1
		c-0.1-0.1-0.1-0.2-0.1-0.3l0-0.1l-0.1-0.1c-0.1-0.1-0.1-0.2-0.1-0.3l0-0.1l-0.1-0.1c-0.1-0.1-0.1-0.2-0.1-0.3l0-0.1L52,56.3
		c-0.1-0.1-0.1-0.2-0.1-0.3l0-0.1l-0.1-0.1c-0.1-0.1-0.1-0.2-0.1-0.3l0-0.1l-0.1-0.1c-0.1-0.1-0.1-0.2-0.1-0.3l0-0.1l-0.1-0.1
		c-0.1-0.1-0.1-0.2-0.1-0.2l0-0.1l-0.1-0.1C51,54.2,51,54.2,51,54.1l0-0.1l-0.1-0.1c-0.1-0.1-0.1-0.1-0.1-0.2l0-0.1l-0.1-0.1
		c-0.1-0.1-0.1-0.1-0.1-0.2l0-0.1l-0.1-0.1c-0.1-0.1-0.1-0.1-0.2-0.2l0-0.1L50,52.5c-0.1-0.1-0.1-0.1-0.2-0.2l0-0.1l-0.1-0.1
		c-0.1-0.1-0.1-0.1-0.2-0.2l-0.1-0.1l-0.1-0.1c-0.1,0-0.1-0.1-0.2-0.2l-0.1-0.1l-0.1-0.1c-0.1,0-0.1-0.1-0.2-0.2l-0.1-0.1l-0.1,0
		c-0.1,0-0.2-0.1-0.2-0.2l-0.1-0.1l-0.1,0c-0.1,0-0.2-0.1-0.2-0.1l-0.1-0.1l-0.1,0c-0.1,0-0.2-0.1-0.2-0.1l-0.1-0.1l-0.1,0
		c-0.1,0-0.2,0-0.2-0.1l-0.1-0.1l-0.1,0c-0.1,0-0.2,0-0.2-0.1l-0.1-0.1l-0.1,0c-0.1,0-0.2,0-0.3-0.1L46,49.8l-0.1,0
		c-0.1,0-0.2,0-0.3,0l-0.1-0.1l-0.1,0c-0.1,0-0.1,0-0.2,0c0,0.1,0,0.1,0,0.2l0,0.1l0,0.1c0,0.1,0,0.2,0,0.3l0,0.1l0,0.1
		c0,0.1,0,0.2,0,0.3l0,0.1l0.1,0.1c0,0.1,0.1,0.2,0,0.3l0,0.1l0.1,0.1c0,0.1,0.1,0.2,0.1,0.2l0,0.1l0.1,0.1c0.1,0.1,0.1,0.2,0.1,0.2
		l0,0.1l0.1,0.1c0.1,0.1,0.1,0.1,0.1,0.2l0,0.1l0.1,0.1c0.1,0.1,0.1,0.1,0.1,0.2l0,0.1l0.1,0.1c0.1,0.1,0.1,0.1,0.2,0.2l0,0.1
		l0.1,0.1c0.1,0.1,0.1,0.1,0.2,0.2l0.1,0.1l0.1,0.1c0.1,0,0.1,0.1,0.2,0.2l0.1,0.1l0.1,0.1c0.1,0,0.1,0.1,0.2,0.2l0.1,0.1l0.1,0.1
		c0.1,0,0.2,0.1,0.2,0.2l0.1,0.1l0.1,0.1c0.1,0,0.2,0.1,0.2,0.2l0.1,0.1l0.1,0c0.1,0,0.2,0.1,0.2,0.2l0.1,0.1l0.1,0
		c0.1,0,0.2,0.1,0.2,0.2l0.1,0.1l0.1,0c0.1,0,0.2,0.1,0.2,0.1l0.1,0.1l0.1,0c0.1,0,0.2,0.1,0.2,0.1l0.1,0.1l0.1,0
		c0.1,0,0.2,0.1,0.2,0.1l0.1,0.1l0.1,0c0.1,0,0.2,0.1,0.2,0.1l0.1,0.1l0.1,0c0.1,0,0.2,0.1,0.2,0.1l0.1,0.1l0.1,0
		c0.1,0,0.2,0.1,0.2,0.1l0.1,0.1l0.1,0C52.1,58,52.2,58,52.4,58.2L52.4,58.2z"/>
	<polygon class="st1" points="66.5,49.5 66,49.5 65.6,49.8 65.2,49.8 64.8,50 64.4,50 64,50.3 63.5,50.2 63.2,50.5 62.7,50.4 
		62.4,50.7 61.9,50.6 61.5,50.9 61.1,50.9 60.7,51.1 60.2,51 59.9,51.3 59.4,51.2 59,51.5 58.6,51.4 58.2,51.6 57.7,51.5 57.3,51.8 
		56.9,51.7 56.5,51.9 56,51.8 55.6,52 55.2,51.8 54.8,52 54.3,51.9 53.9,52.1 53.5,51.9 53,52.1 52.6,51.9 52.2,52 51.8,51.8 
		51.3,52 50.9,51.8 50.5,51.9 50.1,51.6 49.6,51.7 49.2,51.4 48.8,51.5 48.4,51.2 48,51.2 47.6,50.9 47.2,50.9 46.8,50.6 46.4,50.5 
		46.1,50.1 45.6,50.1 45.4,49.7 44.9,49.6 44.8,49.2 45,48.9 45.4,48.8 45.7,48.4 46.1,48.3 46.4,48 46.9,47.9 47.2,47.6 47.7,47.6 
		48,47.3 48.5,47.3 48.8,47 49.3,47.1 49.7,46.8 50.1,46.9 50.5,46.7 51,46.8 51.4,46.6 51.8,46.8 52.2,46.6 52.7,46.7 53.1,46.6 
		53.5,46.7 53.9,46.6 54.4,46.8 54.8,46.6 55.2,46.9 55.7,46.7 56.1,47 56.5,46.8 56.9,47.1 57.4,47 57.7,47.2 58.2,47.1 58.6,47.4 
		59,47.3 59.4,47.6 59.9,47.5 60.3,47.8 60.7,47.7 61.1,48 61.5,47.9 61.9,48.2 62.4,48.2 62.7,48.5 63.2,48.4 63.6,48.7 64,48.7 
		64.4,48.9 64.8,48.9 65.2,49.2 65.7,49.2 66,49.5 	"/>
	<path class="st0" d="M53,52.6c-0.1,0-0.1,0-0.2,0l-0.2-0.1l-0.3,0.1c-0.1,0-0.3,0-0.4,0l-0.2-0.1l-0.3,0.1c-0.1,0-0.3,0-0.4,0
		l-0.2-0.1l-0.3,0.1c-0.1,0-0.3,0-0.4-0.1L50,52.1l-0.3,0c-0.1,0-0.3,0-0.4-0.1L49.1,52l-0.3,0c-0.1,0-0.3,0-0.4-0.1l-0.2-0.2
		l-0.3,0c-0.1,0-0.3,0-0.4-0.1l-0.2-0.2l-0.3,0c-0.1,0-0.3-0.1-0.4-0.2L46.6,51l-0.3,0c-0.1,0-0.3-0.1-0.3-0.2l-0.2-0.2l-0.3,0
		c-0.1,0-0.3-0.1-0.3-0.2l-0.1-0.2L44.8,50c-0.1,0-0.2-0.1-0.3-0.2l-0.2-0.3c-0.1-0.2-0.1-0.3,0-0.5l0.2-0.3
		c0.1-0.1,0.2-0.2,0.3-0.2l0.3-0.1l0.2-0.2c0.1-0.1,0.2-0.2,0.3-0.2l0.3,0l0.2-0.2c0.1-0.1,0.2-0.2,0.4-0.2l0.3,0l0.2-0.2
		c0.1-0.1,0.2-0.2,0.4-0.2h0l0.3,0l0.2-0.2c0.1-0.1,0.2-0.1,0.4-0.1l0.3,0l0.2-0.2c0.1-0.1,0.2-0.1,0.4-0.1l0.3,0l0.2-0.2
		c0.1-0.1,0.2-0.1,0.4-0.1l0.3,0.1l0.2-0.1c0.1-0.1,0.3-0.1,0.4-0.1l0.3,0.1l0.2-0.1c0.1-0.1,0.3-0.1,0.4,0l0.2,0.1l0.2-0.1
		c0.1-0.1,0.3-0.1,0.4,0l0.2,0.1l0.2-0.1c0.1-0.1,0.3,0,0.4,0l0.2,0.1l0.2-0.1c0.1,0,0.3,0,0.4,0l0.2,0.1l0.3-0.1c0.1,0,0.3,0,0.4,0
		l0.2,0.1l0.3-0.1c0.1,0,0.3,0,0.4,0l0.2,0.1l0.3-0.1c0.1,0,0.3,0,0.4,0.1l0.2,0.1l0.3-0.1c0.1,0,0.3,0,0.4,0.1l0.2,0.1l0.3-0.1
		c0.1,0,0.3,0,0.4,0.1l0.2,0.1l0.3,0c0.1,0,0.3,0,0.4,0.1l0.2,0.2l0.3,0c0.1,0,0.3,0,0.4,0.1l0.2,0.2l0.3,0c0.1,0,0.3,0,0.4,0.1
		l0.2,0.2l0.3,0c0.1,0,0.3,0,0.4,0.1l0.2,0.2l0.3,0c0.1,0,0.3,0,0.4,0.1l0.2,0.2l0.3,0c0.1,0,0.3,0,0.4,0.1l0.2,0.2l0.3,0
		c0.1,0,0.3,0,0.4,0.1l0.2,0.2l0.3,0c0.1,0,0.3,0,0.4,0.1l0.2,0.2l0.3,0c0.1,0,0.3,0,0.4,0.1l0.2,0.2l0.4,0c0.3,0,0.5,0.2,0.5,0.5
		c0,0.3-0.2,0.5-0.5,0.5l-0.4,0l-0.2,0.2c-0.1,0.1-0.2,0.1-0.4,0.1l-0.3,0l-0.2,0.2c-0.1,0.1-0.2,0.1-0.4,0.1l-0.3,0l-0.2,0.2
		c-0.1,0.1-0.2,0.1-0.4,0.1l-0.2,0l-0.2,0.2C63.4,51,63.2,51,63.1,51l-0.3,0l-0.2,0.2c-0.1,0.1-0.2,0.1-0.4,0.1l-0.3,0l-0.2,0.2
		c-0.1,0.1-0.2,0.1-0.4,0.1l-0.3,0L61,51.5c-0.1,0.1-0.2,0.1-0.4,0.1l-0.3,0l-0.2,0.1c-0.1,0.1-0.2,0.1-0.4,0.1l-0.3,0l-0.2,0.1
		C59.2,52,59.1,52,58.9,52l-0.3-0.1l-0.2,0.1c-0.1,0.1-0.2,0.1-0.4,0.1l-0.3-0.1l-0.2,0.1c-0.1,0.1-0.2,0.1-0.4,0.1L57,52.2
		l-0.2,0.1c-0.1,0.1-0.3,0.1-0.4,0l-0.3-0.1l-0.2,0.1c-0.1,0.1-0.3,0.1-0.4,0l-0.3-0.1L55,52.5c-0.1,0.1-0.3,0.1-0.4,0l-0.3-0.1
		l-0.2,0.1c-0.1,0.1-0.3,0.1-0.4,0l-0.2-0.1l-0.2,0.1C53.2,52.6,53.1,52.6,53,52.6 M52.6,51.4c0.1,0,0.1,0,0.2,0l0.2,0.1l0.2-0.1
		c0.1,0,0.2,0,0.4,0l0.2,0.1l0.2-0.1c0.1-0.1,0.2-0.1,0.4,0l0.2,0.1l0.2-0.1c0.1-0.1,0.2-0.1,0.4,0l0.2,0.1l0.2-0.1
		c0.1-0.1,0.2-0.1,0.4,0l0.2,0.1l0.2-0.1c0.1-0.1,0.2-0.1,0.4,0l0.2,0.1l0.2-0.1c0.1-0.1,0.2-0.1,0.4-0.1l0.3,0.1l0.2-0.1
		c0.1-0.1,0.2-0.1,0.4-0.1l0.3,0.1l0.2-0.1c0.1-0.1,0.2-0.1,0.4-0.1l0.3,0l0.2-0.1c0.1-0.1,0.2-0.1,0.4-0.1l0.3,0l0.2-0.1
		c0.1-0.1,0.2-0.1,0.4-0.1l0.3,0l0.2-0.1c0.1-0.1,0.2-0.1,0.4-0.1l0.2,0l0.2-0.2c0.1-0.1,0.2-0.1,0.4-0.1l0.2,0l0.2-0.2
		c0.1-0.1,0.2-0.1,0.4-0.1l0.2,0l0.2-0.2c0.1-0.1,0.2-0.1,0.4-0.1l0.3,0l0.1-0.1l-0.1,0l-0.3,0c-0.1,0-0.3,0-0.4-0.1l-0.2-0.2
		l-0.3,0c-0.1,0-0.3,0-0.4-0.1l-0.2-0.2l-0.3,0c-0.1,0-0.3,0-0.4-0.1l-0.2-0.2l-0.3,0c-0.1,0-0.3,0-0.4-0.1l-0.2-0.2l-0.3,0
		c-0.1,0-0.3,0-0.4-0.1l-0.2-0.2l-0.3,0c-0.1,0-0.3,0-0.4-0.1L59.8,48l-0.3,0c-0.1,0-0.3,0-0.4-0.1l-0.2-0.1l-0.3,0
		c-0.1,0-0.3,0-0.4-0.1l-0.2-0.1l-0.3,0c-0.1,0-0.3,0-0.4-0.1l-0.2-0.1L57,47.6c-0.1,0-0.3,0-0.4-0.1l-0.2-0.1l-0.2,0.1
		c-0.1,0-0.3,0-0.4,0l-0.2-0.1l-0.2,0.1c-0.1,0-0.3,0-0.4,0l-0.2-0.1l-0.2,0.1c-0.1,0-0.3,0-0.4,0l-0.2-0.1l-0.2,0.1
		c-0.1,0-0.2,0-0.4,0l-0.2-0.1l-0.2,0.1c-0.1,0-0.2,0.1-0.4,0l-0.2-0.1L52,47.2c-0.1,0.1-0.2,0.1-0.4,0l-0.2-0.1l-0.2,0.1
		c-0.1,0.1-0.2,0.1-0.4,0l-0.2-0.1l-0.2,0.1c-0.1,0.1-0.2,0.1-0.4,0.1l-0.2-0.1l-0.2,0.1c-0.1,0.1-0.2,0.1-0.4,0.1l-0.2,0l-0.2,0.2
		c-0.1,0.1-0.2,0.1-0.3,0.1l-0.2,0L48,48c-0.1,0.1-0.2,0.1-0.3,0.1h0l-0.2,0l-0.2,0.2c-0.1,0.1-0.2,0.1-0.3,0.2l-0.2,0l-0.2,0.2
		c-0.1,0.1-0.2,0.2-0.3,0.2l-0.2,0L45.8,49c-0.1,0.1-0.1,0.1-0.2,0.2c0.1,0,0.2,0.1,0.2,0.2l0.1,0.2l0.2,0c0.1,0,0.2,0.1,0.3,0.2
		l0.2,0.2l0.2,0c0.1,0,0.2,0.1,0.3,0.2l0.2,0.2l0.2,0c0.1,0,0.2,0.1,0.3,0.1l0.2,0.2l0.2,0c0.1,0,0.2,0,0.3,0.1l0.2,0.2l0.2,0
		c0.1,0,0.2,0,0.3,0.1l0.2,0.1l0.2,0c0.1,0,0.2,0,0.4,0.1l0.2,0.1l0.2-0.1c0.1,0,0.2,0,0.4,0l0.2,0.1l0.2-0.1c0.1,0,0.3,0,0.4,0
		l0.2,0.1l0.2-0.1C52.5,51.4,52.6,51.4,52.6,51.4"/>
	<polygon class="st1" points="68.3,27.6 67.8,28.1 67.7,28.8 67.2,29.2 67.1,29.9 66.6,30.3 66.4,31 66,31.4 65.8,32 65.3,32.5 
		65.2,33.1 64.7,33.6 64.5,34.2 64,34.6 63.8,35.3 63.3,35.7 63.1,36.3 62.6,36.7 62.4,37.4 61.9,37.8 61.7,38.4 61.2,38.8 
		60.9,39.4 60.4,39.8 60.1,40.4 59.6,40.8 59.3,41.4 58.8,41.7 58.5,42.3 57.9,42.7 57.6,43.3 57,43.6 56.7,44.1 56.1,44.4 55.7,45 
		55.1,45.2 54.7,45.8 54.1,46 53.7,46.5 53,46.7 52.6,47.2 51.9,47.3 51.4,47.8 50.8,47.9 50.3,48.3 49.6,48.3 49.1,48.7 48.4,48.7 
		47.8,49 47.2,49 46.6,49.3 45.9,49.2 45.3,49.4 44.7,49.2 44.6,48.7 44.9,48.1 44.9,47.4 45.2,46.8 45.2,46.2 45.6,45.6 45.6,45 
		46,44.5 46.2,43.8 46.6,43.3 46.8,42.7 47.3,42.3 47.4,41.6 48,41.2 48.2,40.6 48.7,40.2 49,39.6 49.6,39.3 49.9,38.7 50.5,38.4 
		50.8,37.8 51.4,37.5 51.7,37 52.4,36.7 52.7,36.2 53.3,35.9 53.7,35.4 54.4,35.2 54.8,34.7 55.4,34.5 55.8,34 56.5,33.8 56.9,33.3 
		57.5,33.1 58,32.6 58.6,32.5 59.1,32 59.8,31.9 60.2,31.4 60.9,31.3 61.4,30.8 62,30.7 62.5,30.2 63.1,30.1 63.6,29.7 64.3,29.6 
		64.8,29.1 65.4,29 65.9,28.6 66.6,28.5 67.1,28.1 67.7,28 	"/>
	<path class="st0" d="M45.3,49.9c0,0-0.1,0-0.1,0l-0.6-0.1c-0.2,0-0.3-0.2-0.4-0.4l-0.1-0.6c0-0.1,0-0.2,0-0.3l0.2-0.5l0-0.5
		c0-0.1,0-0.2,0.1-0.3l0.3-0.5l0-0.5c0-0.1,0-0.2,0.1-0.3l0.3-0.4l0-0.5c0-0.1,0-0.2,0.1-0.3l0.3-0.4l0.1-0.5c0-0.1,0.1-0.2,0.1-0.3
		l0.4-0.4l0.1-0.5c0-0.1,0.1-0.2,0.2-0.3l0.4-0.3l0.2-0.5c0-0.1,0.1-0.2,0.2-0.2l0.4-0.3l0.2-0.5c0-0.1,0.1-0.2,0.2-0.2l0.4-0.3
		l0.2-0.5c0-0.1,0.1-0.2,0.2-0.2l0.4-0.3l0.2-0.5c0-0.1,0.1-0.2,0.2-0.2l0.5-0.2l0.3-0.4c0.1-0.1,0.1-0.2,0.2-0.2l0.5-0.2l0.3-0.4
		c0.1-0.1,0.1-0.2,0.2-0.2l0.5-0.2l0.3-0.4c0.1-0.1,0.1-0.1,0.2-0.2l0.5-0.2l0.3-0.4c0.1-0.1,0.1-0.1,0.2-0.2l0.5-0.2l0.3-0.4
		c0.1-0.1,0.1-0.1,0.2-0.2l0.5-0.2l0.3-0.4c0.1-0.1,0.1-0.1,0.2-0.2l0.5-0.1l0.3-0.4c0.1-0.1,0.2-0.1,0.2-0.2l0.5-0.1l0.4-0.4
		c0.1-0.1,0.2-0.1,0.2-0.1l0.5-0.1l0.4-0.4c0.1-0.1,0.2-0.1,0.3-0.1l0.5-0.1l0.4-0.4c0.1-0.1,0.2-0.1,0.3-0.1l0.5-0.1l0.4-0.4
		c0.1-0.1,0.2-0.1,0.3-0.1l0.5-0.1l0.4-0.4c0.1-0.1,0.2-0.1,0.3-0.1l0.5-0.1l0.4-0.3c0.1-0.1,0.2-0.1,0.3-0.1l0.5-0.1l0.4-0.3
		c0.1-0.1,0.2-0.1,0.3-0.1l0.5-0.1l0.4-0.3c0.1-0.1,0.2-0.1,0.3-0.1l0.5-0.1l0.4-0.3c0.1-0.1,0.2-0.1,0.3-0.1l0.5-0.1l0.5-0.3
		c0.2-0.1,0.5-0.1,0.7,0.1c0.2,0.2,0.2,0.5,0,0.7l-0.4,0.5l-0.1,0.5c0,0.1-0.1,0.2-0.1,0.2l-0.4,0.4L67.6,30c0,0.1-0.1,0.2-0.1,0.2
		L67,30.6l-0.1,0.5c0,0.1-0.1,0.2-0.1,0.2l-0.4,0.3l-0.1,0.5c0,0.1-0.1,0.2-0.1,0.2l-0.4,0.3l-0.1,0.5c0,0.1-0.1,0.2-0.1,0.2
		l-0.4,0.3L65,34.3c0,0.1-0.1,0.2-0.2,0.2l-0.4,0.3l-0.1,0.5c0,0.1-0.1,0.2-0.2,0.2L63.8,36l-0.1,0.5c0,0.1-0.1,0.2-0.2,0.2L63.1,37
		l-0.2,0.5c0,0.1-0.1,0.2-0.2,0.2l-0.4,0.3l-0.2,0.5c0,0.1-0.1,0.2-0.2,0.2l-0.4,0.3l-0.2,0.5c0,0.1-0.1,0.2-0.2,0.2l-0.4,0.3
		l-0.2,0.5c0,0.1-0.1,0.2-0.2,0.2L60,41.1l-0.2,0.5c0,0.1-0.1,0.2-0.2,0.2l-0.4,0.3l-0.2,0.5c0,0.1-0.1,0.2-0.2,0.2L58.3,43L58,43.5
		c0,0.1-0.1,0.2-0.2,0.2l-0.5,0.2l-0.3,0.4c-0.1,0.1-0.1,0.2-0.2,0.2l-0.5,0.2l-0.3,0.4c-0.1,0.1-0.1,0.2-0.2,0.2l-0.5,0.2l-0.3,0.4
		c-0.1,0.1-0.1,0.1-0.2,0.2l-0.5,0.2L54,46.8C54,46.9,53.9,47,53.8,47l-0.5,0.1l-0.4,0.4c-0.1,0.1-0.2,0.1-0.3,0.1l-0.5,0.1
		l-0.4,0.4c-0.1,0.1-0.2,0.1-0.3,0.1L51,48.3l-0.4,0.3c-0.1,0.1-0.2,0.1-0.3,0.1l-0.5,0l-0.4,0.3c-0.1,0.1-0.2,0.1-0.3,0.1l-0.5,0
		l-0.5,0.3c-0.1,0.1-0.2,0.1-0.3,0.1l-0.5,0l-0.5,0.2c-0.1,0-0.2,0.1-0.3,0L46,49.7l-0.5,0.2C45.4,49.9,45.4,49.9,45.3,49.9
		 M45.2,48.8L45.2,48.8l0.6-0.2c0.1,0,0.2,0,0.3,0l0.5,0.1l0.5-0.2c0.1,0,0.2-0.1,0.3,0l0.5,0l0.4-0.3c0.1,0,0.2-0.1,0.3-0.1l0.5,0
		l0.4-0.3c0.1-0.1,0.2-0.1,0.3-0.1l0.5,0l0.4-0.3c0.1-0.1,0.2-0.1,0.2-0.1l0.5-0.1l0.4-0.3c0.1-0.1,0.1-0.1,0.2-0.1l0.5-0.1l0.3-0.4
		c0.1-0.1,0.1-0.1,0.2-0.1l0.5-0.1l0.3-0.4c0.1-0.1,0.1-0.1,0.2-0.2l0.5-0.2l0.3-0.4c0.1-0.1,0.1-0.1,0.2-0.2l0.5-0.2l0.3-0.4
		c0.1-0.1,0.1-0.1,0.2-0.2l0.5-0.2l0.3-0.4c0-0.1,0.1-0.1,0.2-0.2l0.5-0.2l0.2-0.5c0-0.1,0.1-0.2,0.2-0.2l0.4-0.3l0.2-0.5
		c0-0.1,0.1-0.2,0.2-0.2l0.4-0.3l0.2-0.5c0-0.1,0.1-0.2,0.2-0.2l0.4-0.3l0.2-0.5c0-0.1,0.1-0.2,0.2-0.2l0.4-0.3l0.2-0.5
		c0-0.1,0.1-0.2,0.2-0.2l0.4-0.3l0.2-0.5c0-0.1,0.1-0.2,0.2-0.2l0.4-0.3l0.2-0.5c0-0.1,0.1-0.2,0.2-0.2l0.4-0.3l0.1-0.5
		c0-0.1,0.1-0.2,0.2-0.2l0.4-0.3l0.1-0.5c0-0.1,0.1-0.2,0.2-0.2l0.4-0.3l0.1-0.5c0-0.1,0.1-0.2,0.1-0.2l0.4-0.3l0.1-0.5
		c0-0.1,0.1-0.2,0.1-0.2l0.4-0.3l0.1-0.5c0-0.1,0.1-0.2,0.1-0.2l0.4-0.3l0.1-0.5c0-0.1,0.1-0.2,0.1-0.2l0.4-0.3l0.1-0.5
		c0-0.1,0-0.1,0.1-0.2c0,0-0.1,0-0.2,0l-0.5,0.1l-0.4,0.3c-0.1,0.1-0.2,0.1-0.3,0.1L65,29.6l-0.4,0.3c-0.1,0.1-0.2,0.1-0.3,0.1
		l-0.5,0.1l-0.4,0.3c-0.1,0.1-0.2,0.1-0.3,0.1l-0.5,0.1l-0.4,0.3c-0.1,0.1-0.2,0.1-0.3,0.1l-0.5,0.1l-0.4,0.4
		c-0.1,0.1-0.2,0.1-0.2,0.1l-0.5,0.1l-0.4,0.4c-0.1,0.1-0.2,0.1-0.2,0.1l-0.5,0.1L59,32.8c-0.1,0.1-0.2,0.1-0.2,0.1l-0.5,0.1
		l-0.3,0.4c-0.1,0.1-0.1,0.1-0.2,0.1l-0.5,0.1l-0.3,0.4c-0.1,0.1-0.1,0.1-0.2,0.1l-0.5,0.1l-0.3,0.4c-0.1,0.1-0.1,0.1-0.2,0.2
		l-0.5,0.2l-0.3,0.4c-0.1,0.1-0.1,0.1-0.2,0.2L54,35.8l-0.3,0.4c-0.1,0.1-0.1,0.1-0.2,0.2l-0.5,0.2L52.8,37
		c-0.1,0.1-0.1,0.1-0.2,0.2l-0.5,0.2l-0.3,0.4c0,0.1-0.1,0.1-0.2,0.2l-0.5,0.2l-0.3,0.4c0,0.1-0.1,0.1-0.2,0.2l-0.4,0.2L50,39.5
		c0,0.1-0.1,0.2-0.2,0.2L49.4,40l-0.2,0.5c0,0.1-0.1,0.2-0.2,0.2l-0.4,0.3l-0.2,0.5c0,0.1-0.1,0.2-0.2,0.2l-0.4,0.3l-0.1,0.5
		c0,0.1-0.1,0.2-0.1,0.2L47.2,43l-0.1,0.5c0,0.1-0.1,0.2-0.1,0.2l-0.3,0.4l-0.1,0.5c0,0.1-0.1,0.2-0.1,0.2l-0.3,0.4l0,0.5
		c0,0.1,0,0.2-0.1,0.2l-0.3,0.4l0,0.5c0,0.1,0,0.2-0.1,0.3l-0.3,0.4l0,0.5c0,0.1,0,0.2,0,0.3L45.2,48.8L45.2,48.8z"/>
	<polygon class="st1" points="35.7,59.3 35.9,59.2 36.1,59 36.4,59 36.6,58.8 36.9,58.7 37.1,58.6 37.4,58.5 37.6,58.3 37.8,58.3 
		38.1,58.1 38.3,58 38.5,57.8 38.8,57.7 39,57.5 39.3,57.5 39.5,57.3 39.8,57.2 40,57 40.2,56.9 40.4,56.7 40.7,56.6 40.9,56.4 
		41.1,56.3 41.3,56 41.6,55.9 41.7,55.7 42,55.6 42.2,55.3 42.4,55.2 42.6,54.9 42.8,54.8 42.9,54.5 43.2,54.4 43.3,54.1 43.5,53.9 
		43.6,53.7 43.8,53.5 43.9,53.2 44.1,53 44.1,52.7 44.3,52.5 44.3,52.2 44.5,51.9 44.5,51.7 44.6,51.4 44.6,51.1 44.7,50.9 
		44.6,50.6 44.7,50.3 44.6,50 44.7,49.8 44.6,49.5 44.6,49.2 44.3,49.2 44,49.2 43.8,49.3 43.5,49.2 43.2,49.3 42.9,49.3 42.7,49.5 
		42.4,49.5 42.2,49.6 41.9,49.7 41.7,49.8 41.4,49.9 41.2,50.1 40.9,50.2 40.7,50.4 40.5,50.5 40.3,50.7 40,50.9 39.9,51.1 
		39.6,51.2 39.5,51.5 39.3,51.6 39.1,51.9 38.9,52.1 38.8,52.3 38.6,52.5 38.5,52.8 38.3,53 38.2,53.2 38,53.4 37.9,53.7 37.7,53.9 
		37.7,54.2 37.5,54.4 37.4,54.7 37.2,54.9 37.2,55.2 37,55.4 37,55.7 36.8,55.9 36.8,56.2 36.6,56.4 36.6,56.7 36.4,57 36.4,57.2 
		36.2,57.5 36.2,57.8 36,58 36,58.3 35.9,58.5 35.9,58.8 35.7,59 	"/>
	<path class="st0" d="M35.7,59.8c-0.1,0-0.2,0-0.3-0.1c-0.1-0.1-0.2-0.3-0.2-0.4l0-0.2c0-0.1,0-0.2,0.1-0.2l0.1-0.1l0-0.1
		c0-0.1,0-0.2,0.1-0.3l0.1-0.1l0-0.1c0-0.1,0-0.2,0.1-0.3l0.1-0.1l0-0.1c0-0.1,0-0.2,0.1-0.3l0.1-0.1l0-0.1c0-0.1,0-0.2,0.1-0.3
		l0.1-0.1l0-0.1c0-0.1,0-0.2,0.1-0.3l0.1-0.1l0-0.1c0-0.1,0-0.2,0.1-0.3l0.1-0.1l0-0.1c0-0.1,0.1-0.2,0.1-0.3l0.1-0.1l0-0.1
		c0-0.1,0.1-0.2,0.1-0.3l0.1-0.1l0-0.1c0-0.1,0.1-0.2,0.1-0.3l0.1-0.1l0-0.1c0-0.1,0.1-0.2,0.1-0.3l0.1-0.1l0-0.1
		c0-0.1,0.1-0.2,0.1-0.3l0.1-0.1l0-0.1c0-0.1,0.1-0.2,0.2-0.2l0.1-0.1l0-0.1c0-0.1,0.1-0.2,0.2-0.2l0.1-0.1l0.1-0.1
		c0-0.1,0.1-0.2,0.2-0.2l0.1-0.1l0.1-0.1c0-0.1,0.1-0.2,0.2-0.2l0.1-0.1l0.1-0.1c0-0.1,0.1-0.2,0.2-0.2l0.1-0.1l0.1-0.1
		c0.1-0.1,0.1-0.2,0.2-0.2l0.1-0.1l0.1-0.1c0.1-0.1,0.1-0.1,0.2-0.2l0.1-0.1l0.1-0.1c0.1-0.1,0.2-0.1,0.3-0.2l0.1,0l0.1-0.1
		c0.1-0.1,0.2-0.1,0.3-0.1l0.2,0l0.1-0.1c0.1-0.1,0.2-0.1,0.3-0.1l0.2,0l0.1-0.1c0.1-0.1,0.2-0.1,0.3-0.1l0.2,0l0.1-0.1
		c0.1-0.1,0.2-0.1,0.3-0.1l0.2,0l0.1-0.1c0.1,0,0.2-0.1,0.3,0l0.2,0l0.1-0.1c0.1,0,0.2,0,0.3,0l0.2,0l0.2,0c0.2,0,0.3,0,0.4,0.1
		c0.1,0.1,0.2,0.3,0.2,0.4l0,0.2l0.1,0.2c0,0.1,0,0.2,0,0.3l0,0.1l0,0.1c0,0.1,0,0.2,0,0.3l0,0.1l0,0.1c0,0.1,0,0.2,0,0.3l-0.1,0.1
		l0,0.2c0,0.1,0,0.2-0.1,0.3L45,51.8l0,0.2c0,0.1,0,0.2-0.1,0.3l-0.1,0.1l0,0.2c0,0.1,0,0.2-0.1,0.3l-0.1,0.1l0,0.1
		c0,0.1-0.1,0.2-0.1,0.3l-0.1,0.1l0,0.1c0,0.1-0.1,0.2-0.2,0.3L44,53.9l0,0.1c0,0.1-0.1,0.2-0.2,0.2l-0.1,0.1l-0.1,0.1
		c0,0.1-0.1,0.2-0.2,0.2l-0.1,0.1L43.3,55c0,0.1-0.1,0.2-0.2,0.2l-0.1,0.1l-0.1,0.1c0,0.1-0.1,0.2-0.2,0.2l-0.1,0.1l-0.1,0.1
		c-0.1,0.1-0.1,0.2-0.2,0.2l-0.1,0.1L42,56.2c-0.1,0.1-0.1,0.1-0.2,0.2l-0.1,0.1l-0.1,0.1c-0.1,0.1-0.1,0.1-0.2,0.2l-0.1,0.1
		l-0.1,0.1C41,57,40.9,57,40.9,57.1l-0.1,0l-0.1,0.1c-0.1,0.1-0.1,0.1-0.2,0.2l-0.1,0l-0.1,0.1c-0.1,0.1-0.2,0.1-0.2,0.2l-0.1,0
		l-0.1,0.1c-0.1,0.1-0.2,0.1-0.2,0.1l-0.1,0l-0.1,0.1c-0.1,0.1-0.2,0.1-0.3,0.1l-0.1,0l-0.1,0.1c-0.1,0.1-0.2,0.1-0.3,0.1l-0.1,0
		l-0.1,0.1c-0.1,0.1-0.2,0.1-0.3,0.1l-0.1,0l-0.1,0.1c-0.1,0.1-0.2,0.1-0.3,0.1l-0.1,0l-0.1,0.1c-0.1,0.1-0.2,0.1-0.3,0.1l-0.1,0
		l-0.1,0.1c-0.1,0.1-0.2,0.1-0.3,0.1l-0.1,0l-0.1,0.1c-0.1,0.1-0.1,0.1-0.2,0.1l-0.2,0.1C35.7,59.8,35.7,59.8,35.7,59.8 M36.5,58.2
		l0,0.1l0.1,0l0.1-0.1c0.1-0.1,0.2-0.1,0.3-0.1l0.1,0l0.1-0.1c0.1-0.1,0.2-0.1,0.3-0.1l0.1,0l0.1-0.1c0.1-0.1,0.2-0.1,0.2-0.1l0.1,0
		l0.1-0.1c0.1-0.1,0.2-0.1,0.2-0.1l0.1,0l0.1-0.1c0.1-0.1,0.2-0.1,0.2-0.1l0.1,0l0.1-0.1c0.1-0.1,0.1-0.1,0.2-0.1l0.1,0l0.1-0.1
		c0.1-0.1,0.1-0.1,0.2-0.1l0.1,0l0.1-0.1c0.1-0.1,0.1-0.1,0.2-0.2l0.1,0l0.1-0.1c0.1-0.1,0.1-0.1,0.2-0.2l0.1,0l0.1-0.1
		c0.1-0.1,0.1-0.1,0.2-0.2l0.1-0.1l0.1-0.1c0.1-0.1,0.1-0.1,0.2-0.2l0.1-0.1l0.1-0.1c0-0.1,0.1-0.1,0.2-0.2l0.1-0.1l0.1-0.1
		c0-0.1,0.1-0.1,0.2-0.2l0.1-0.1l0.1-0.1c0-0.1,0.1-0.1,0.2-0.2l0.1-0.1l0-0.1c0-0.1,0.1-0.2,0.2-0.2l0.1-0.1l0-0.1
		c0-0.1,0.1-0.2,0.1-0.2l0.1-0.1l0-0.1c0-0.1,0.1-0.2,0.1-0.2l0.1-0.1l0-0.1c0-0.1,0-0.2,0.1-0.2l0.1-0.1l0-0.1c0-0.1,0-0.2,0.1-0.2
		l0.1-0.1l0-0.1c0-0.1,0-0.2,0.1-0.3l0.1-0.1l0-0.1c0-0.1,0-0.2,0-0.3l0.1-0.1l0-0.1c0-0.1,0-0.2,0-0.3l0-0.1l0-0.1
		c0-0.1,0-0.2,0-0.3l0-0.1l0-0.1l-0.1,0l-0.1,0c-0.1,0-0.2,0-0.3,0l-0.1,0l-0.1,0.1c-0.1,0-0.2,0.1-0.3,0l-0.1,0l-0.1,0.1
		c-0.1,0-0.2,0.1-0.3,0.1h-0.1L42.5,50c-0.1,0.1-0.2,0.1-0.2,0.1l-0.1,0L42,50.2c-0.1,0.1-0.1,0.1-0.2,0.1l-0.1,0l-0.1,0.1
		c-0.1,0.1-0.1,0.1-0.2,0.1l-0.1,0l-0.1,0.1c-0.1,0.1-0.1,0.1-0.2,0.2l-0.1,0L40.7,51c-0.1,0.1-0.1,0.1-0.2,0.2l-0.1,0.1l-0.1,0.1
		c0,0.1-0.1,0.1-0.2,0.2L40,51.6l-0.1,0.1c0,0.1-0.1,0.1-0.2,0.2L39.7,52l-0.1,0.1c0,0.1-0.1,0.2-0.2,0.2l-0.1,0.1l0,0.1
		c0,0.1-0.1,0.2-0.2,0.2L39,52.8l0,0.1c0,0.1-0.1,0.2-0.1,0.2l-0.1,0.1l0,0.1c0,0.1-0.1,0.2-0.1,0.2l-0.1,0.1l0,0.1
		c0,0.1-0.1,0.2-0.1,0.2l-0.1,0.1l0,0.1c0,0.1-0.1,0.2-0.1,0.2l-0.1,0.1l0,0.1c0,0.1-0.1,0.2-0.1,0.2l-0.1,0.1l0,0.1
		c0,0.1-0.1,0.2-0.1,0.3l-0.1,0.1l0,0.1c0,0.1,0,0.2-0.1,0.3l-0.1,0.1l0,0.1c0,0.1,0,0.2-0.1,0.3l-0.1,0.1l0,0.1
		c0,0.1,0,0.2-0.1,0.3l-0.1,0.1l0,0.1c0,0.1,0,0.2-0.1,0.3l-0.1,0.1l0,0.1c0,0.1,0,0.2-0.1,0.3L36.5,58.2z"/>
	<polygon class="st1" points="22.9,49.5 23.2,49.7 23.7,49.6 24,49.9 24.5,49.9 24.8,50.2 25.3,50.1 25.7,50.4 26.1,50.3 26.5,50.6 
		26.9,50.5 27.3,50.8 27.8,50.8 28.1,51 28.6,50.9 29,51.2 29.4,51.1 29.8,51.4 30.3,51.3 30.7,51.6 31.1,51.5 31.5,51.7 31.9,51.6 
		32.3,51.8 32.8,51.7 33.2,51.9 33.6,51.8 34.1,52 34.5,51.9 34.9,52.1 35.4,51.9 35.8,52.1 36.2,51.9 36.6,52.1 37.1,51.9 37.5,52 
		37.9,51.8 38.4,51.9 38.8,51.7 39.2,51.8 39.6,51.5 40.1,51.6 40.4,51.3 40.9,51.4 41.2,51.1 41.7,51.1 42,50.7 42.5,50.7 
		42.8,50.4 43.2,50.3 43.5,49.9 44,49.8 44.2,49.4 44.7,49.2 44.2,49 44,48.6 43.5,48.5 43.2,48.2 42.8,48.1 42.5,47.8 42,47.8 
		41.7,47.4 41.2,47.4 40.8,47.2 40.4,47.2 40,46.9 39.6,47 39.2,46.8 38.7,46.9 38.3,46.7 37.9,46.8 37.5,46.6 37,46.7 36.6,46.6 
		36.2,46.7 35.7,46.6 35.3,46.8 34.9,46.6 34.5,46.8 34,46.7 33.6,46.9 33.2,46.8 32.8,47 32.3,46.9 31.9,47.1 31.5,47.1 31.1,47.3 
		30.6,47.2 30.2,47.5 29.8,47.4 29.4,47.7 29,47.6 28.6,47.9 28.1,47.8 27.8,48.1 27.3,48 26.9,48.3 26.5,48.3 26.1,48.6 25.6,48.5 
		25.3,48.8 24.8,48.8 24.5,49.1 24,49 23.6,49.3 23.2,49.3 	"/>
	<path class="st0" d="M35.8,52.6c-0.1,0-0.1,0-0.2,0l-0.2-0.1l-0.2,0.1c-0.1,0-0.3,0-0.4,0l-0.2-0.1l-0.3,0.1c-0.1,0-0.3,0-0.4,0
		l-0.2-0.1l-0.3,0.1c-0.1,0-0.3,0-0.4,0l-0.2-0.1l-0.3,0.1c-0.1,0-0.3,0-0.4-0.1l-0.2-0.1l-0.3,0.1c-0.1,0-0.3,0-0.4-0.1L31,52
		L30.8,52c-0.1,0-0.3,0-0.4-0.1l-0.2-0.1l-0.3,0c-0.1,0-0.3,0-0.4-0.1l-0.2-0.1l-0.3,0c-0.1,0-0.3,0-0.4-0.1l-0.2-0.1l-0.3,0
		c-0.1,0-0.3,0-0.4-0.1l-0.2-0.2l-0.3,0c-0.1,0-0.3,0-0.4-0.1l-0.2-0.2l-0.3,0c-0.1,0-0.3,0-0.4-0.1L26,50.8l-0.3,0
		c-0.1,0-0.3,0-0.4-0.1l-0.2-0.2l-0.3,0c-0.1,0-0.3,0-0.4-0.1l-0.2-0.2l-0.3,0c-0.1,0-0.3,0-0.4-0.1l-0.2-0.2l-0.3,0
		c-0.1,0-0.2,0-0.3-0.1l-0.3-0.2c-0.1-0.1-0.2-0.2-0.2-0.4c0-0.2,0.1-0.3,0.2-0.4l0.3-0.2c0.1-0.1,0.2-0.1,0.3-0.1l0.3,0l0.2-0.2
		c0.1-0.1,0.2-0.1,0.4-0.1l0.3,0l0.2-0.2c0.1-0.1,0.2-0.1,0.4-0.1l0.3,0l0.2-0.2c0.1-0.1,0.2-0.1,0.4-0.1l0.3,0l0.2-0.2
		c0.1-0.1,0.2-0.1,0.4-0.1l0.3,0l0.2-0.2c0.1-0.1,0.2-0.1,0.4-0.1l0.3,0l0.2-0.2c0.1-0.1,0.2-0.1,0.4-0.1l0.3,0l0.2-0.2
		c0.1-0.1,0.2-0.1,0.4-0.1l0.3,0l0.2-0.2c0.1-0.1,0.2-0.1,0.4-0.1l0.3,0l0.2-0.1c0.1-0.1,0.2-0.1,0.4-0.1l0.3,0l0.2-0.1
		c0.1-0.1,0.2-0.1,0.4-0.1l0.3,0.1l0.2-0.1c0.1-0.1,0.3-0.1,0.4-0.1l0.3,0.1l0.2-0.1c0.1-0.1,0.3-0.1,0.4,0l0.3,0.1l0.2-0.1
		c0.1-0.1,0.3-0.1,0.4,0l0.2,0.1l0.2-0.1c0.1-0.1,0.3-0.1,0.4,0l0.2,0.1l0.2-0.1c0.1-0.1,0.3-0.1,0.4,0l0.2,0.1l0.2-0.1
		c0.1,0,0.3,0,0.4,0l0.2,0.1l0.2-0.1c0.1,0,0.3,0,0.4,0l0.2,0.1l0.3-0.1c0.1,0,0.3,0,0.4,0l0.2,0.1l0.3-0.1c0.1,0,0.3,0,0.4,0.1
		l0.2,0.1l0.3,0c0.1,0,0.3,0,0.4,0.1l0.2,0.2l0.3,0c0.1,0,0.3,0,0.4,0.1l0.2,0.2l0.3,0c0.2,0,0.3,0,0.4,0.1l0.2,0.2l0.3,0
		c0.1,0,0.3,0.1,0.4,0.2l0.2,0.2l0.3,0c0.1,0,0.3,0.1,0.3,0.2l0.2,0.2l0.3,0.1c0.1,0,0.3,0.1,0.3,0.2l0.2,0.3l0.3,0.1
		c0.2,0.1,0.3,0.3,0.3,0.5c0,0.2-0.1,0.4-0.3,0.5l-0.3,0.1l-0.2,0.3c-0.1,0.1-0.2,0.2-0.3,0.2l-0.3,0.1l-0.2,0.2
		c-0.1,0.1-0.2,0.2-0.3,0.2l-0.3,0L42.9,51c-0.1,0.1-0.2,0.2-0.4,0.2l-0.3,0l-0.2,0.2c-0.1,0.1-0.2,0.2-0.4,0.1l-0.3,0l-0.2,0.2
		c-0.1,0.1-0.2,0.1-0.4,0.1l-0.3,0L40.4,52c-0.1,0.1-0.2,0.1-0.4,0.1l-0.3,0l-0.2,0.2c-0.1,0.1-0.2,0.1-0.4,0.1l-0.3-0.1l-0.2,0.1
		c-0.1,0.1-0.3,0.1-0.4,0.1L38,52.3l-0.2,0.1c-0.1,0.1-0.3,0.1-0.4,0l-0.3-0.1l-0.2,0.1c-0.1,0.1-0.3,0.1-0.4,0l-0.2-0.1L36,52.5
		C35.9,52.6,35.8,52.6,35.8,52.6 M35.4,51.4c0.1,0,0.1,0,0.2,0l0.2,0.1l0.2-0.1c0.1,0,0.2,0,0.4,0l0.2,0.1l0.2-0.1
		c0.1-0.1,0.2-0.1,0.4,0l0.2,0.1l0.2-0.1c0.1-0.1,0.2-0.1,0.4,0l0.2,0.1l0.2-0.1c0.1-0.1,0.2-0.1,0.4-0.1l0.2,0.1l0.2-0.1
		c0.1-0.1,0.2-0.1,0.4-0.1l0.2,0l0.2-0.2c0.1-0.1,0.2-0.1,0.3-0.1l0.2,0l0.2-0.2c0.1-0.1,0.2-0.1,0.3-0.1l0.2,0l0.2-0.2
		c0.1-0.1,0.2-0.1,0.3-0.1l0.2,0l0.2-0.2c0.1-0.1,0.2-0.2,0.3-0.2l0.2,0l0.1-0.2c0.1-0.1,0.2-0.2,0.3-0.2l0.2-0.1l0.1-0.2l-0.1-0.1
		l-0.2,0c-0.1,0-0.2-0.1-0.3-0.2L43,48.6l-0.2,0c-0.1,0-0.2-0.1-0.3-0.2l-0.2-0.2l-0.2,0c-0.1,0-0.2-0.1-0.3-0.1l-0.2-0.2l-0.2,0
		c-0.1,0-0.2,0-0.3-0.1l-0.2-0.2l-0.2,0c-0.1,0-0.2,0-0.4-0.1l-0.2-0.1l-0.2,0c-0.1,0-0.2,0-0.4-0.1l-0.2-0.1l-0.2,0.1
		c-0.1,0-0.2,0-0.4,0l-0.2-0.1L38,47.3c-0.1,0-0.3,0-0.4,0l-0.2-0.1l-0.2,0.1c-0.1,0-0.3,0-0.4,0l-0.2-0.1l-0.2,0.1
		c-0.1,0-0.2,0.1-0.4,0l-0.2-0.1l-0.2,0.1c-0.1,0.1-0.2,0.1-0.4,0l-0.2-0.1l-0.2,0.1c-0.1,0.1-0.2,0.1-0.4,0l-0.2-0.1l-0.2,0.1
		c-0.1,0.1-0.2,0.1-0.4,0l-0.2-0.1L33,47.4c-0.1,0.1-0.2,0.1-0.4,0.1l-0.2-0.1l-0.2,0.1c-0.1,0.1-0.2,0.1-0.4,0.1l-0.3-0.1l-0.2,0.1
		c-0.1,0.1-0.2,0.1-0.4,0.1l-0.3,0l-0.2,0.1C30.4,48,30.3,48,30.2,48l-0.3,0l-0.2,0.2c-0.1,0.1-0.2,0.1-0.4,0.1l-0.3,0l-0.2,0.2
		c-0.1,0.1-0.2,0.1-0.4,0.1l-0.3,0l-0.2,0.2c-0.1,0.1-0.2,0.1-0.4,0.1l-0.3,0l-0.2,0.2c-0.1,0.1-0.2,0.1-0.4,0.1l-0.3,0L26.4,49
		c-0.1,0.1-0.2,0.1-0.4,0.1l-0.3,0l-0.2,0.2c-0.1,0.1-0.2,0.1-0.4,0.1l-0.3,0l-0.2,0.2c0,0,0,0,0,0c0,0,0,0,0,0l0.2,0.2l0.3,0
		c0.1,0,0.3,0,0.4,0.1l0.2,0.2l0.2,0c0.1,0,0.3,0,0.4,0.1l0.2,0.2l0.2,0c0.1,0,0.3,0,0.4,0.1l0.2,0.2l0.3,0c0.1,0,0.3,0,0.4,0.1
		l0.2,0.1l0.3,0c0.1,0,0.3,0,0.4,0.1l0.2,0.1l0.3,0c0.1,0,0.3,0,0.4,0.1l0.2,0.1l0.3,0c0.1,0,0.3,0,0.4,0.1l0.2,0.1L31,51
		c0.1,0,0.3,0,0.4,0.1l0.2,0.1l0.2-0.1c0.1,0,0.3,0,0.4,0.1l0.2,0.1l0.2-0.1c0.1,0,0.3,0,0.4,0l0.2,0.1l0.2-0.1c0.1,0,0.3,0,0.4,0
		l0.2,0.1l0.2-0.1c0.1,0,0.3,0,0.4,0l0.2,0.1l0.2-0.1C35.2,51.4,35.3,51.4,35.4,51.4"/>
	<polygon class="st1" points="21.1,27.7 21.2,28.2 21.7,28.7 21.9,29.3 22.3,29.8 22.5,30.4 23,30.9 23.1,31.5 23.6,31.9 23.8,32.6 
		24.2,33 24.4,33.7 24.9,34.1 25.1,34.7 25.6,35.2 25.8,35.8 26.3,36.2 26.5,36.8 27,37.3 27.2,37.9 27.7,38.3 27.9,38.9 28.5,39.3 
		28.7,39.9 29.3,40.3 29.5,40.9 30.1,41.3 30.4,41.9 30.9,42.2 31.2,42.8 31.8,43.1 32.1,43.7 32.7,44 33.1,44.6 33.7,44.8 
		34.1,45.4 34.7,45.6 35.1,46.1 35.7,46.3 36.1,46.8 36.8,47 37.2,47.5 37.9,47.6 38.4,48 39.1,48.1 39.6,48.5 40.2,48.5 40.8,48.9 
		41.5,48.9 42,49.2 42.7,49.1 43.3,49.3 44,49.2 44.7,49.4 44.4,48.7 44.5,48 44.2,47.5 44.2,46.8 43.9,46.2 43.9,45.6 43.5,45.1 
		43.4,44.4 42.9,43.9 42.8,43.3 42.3,42.8 42.2,42.2 41.7,41.7 41.4,41.1 40.9,40.7 40.6,40.1 40.1,39.8 39.8,39.2 39.2,38.8 
		38.9,38.3 38.3,38 38,37.4 37.4,37.1 37,36.6 36.4,36.3 36,35.8 35.4,35.6 35,35 34.4,34.8 34,34.3 33.3,34.1 32.9,33.6 32.2,33.4 
		31.8,33 31.2,32.8 30.7,32.3 30.1,32.2 29.6,31.7 28.9,31.6 28.5,31.1 27.8,31 27.3,30.5 26.7,30.4 26.2,30 25.5,29.8 25,29.4 
		24.4,29.3 23.9,28.9 23.2,28.8 22.8,28.3 22.1,28.2 21.6,27.8 	"/>
	<path class="st0" d="M44.7,49.9c0,0-0.1,0-0.1,0L44,49.7l-0.5,0.1c-0.1,0-0.2,0-0.3,0l-0.5-0.2l-0.5,0.1c-0.1,0-0.2,0-0.3-0.1
		l-0.5-0.2l-0.5,0c-0.1,0-0.2,0-0.3-0.1L40.1,49l-0.5,0c-0.1,0-0.2,0-0.3-0.1l-0.4-0.3l-0.5-0.1c-0.1,0-0.2-0.1-0.3-0.1l-0.4-0.3
		L37.2,48c-0.1,0-0.2-0.1-0.3-0.1l-0.4-0.4L36,47.3c-0.1,0-0.2-0.1-0.3-0.2l-0.3-0.4l-0.5-0.2c-0.1,0-0.2-0.1-0.2-0.2L34.4,46
		l-0.5-0.2c-0.1,0-0.2-0.1-0.2-0.2l-0.3-0.4L32.9,45c-0.1,0-0.2-0.1-0.2-0.2l-0.3-0.4l-0.5-0.2c-0.1,0-0.2-0.1-0.2-0.2l-0.3-0.5
		L31,43.2c-0.1,0-0.2-0.1-0.2-0.2l-0.2-0.5l-0.4-0.3c-0.1-0.1-0.2-0.1-0.2-0.2l-0.2-0.5l-0.4-0.3c-0.1-0.1-0.2-0.1-0.2-0.2l-0.2-0.5
		l-0.4-0.3c-0.1-0.1-0.1-0.1-0.2-0.2l-0.2-0.5l-0.4-0.3c-0.1-0.1-0.1-0.1-0.2-0.2l-0.2-0.5l-0.4-0.3c-0.1-0.1-0.1-0.1-0.2-0.2
		l-0.2-0.5l-0.4-0.3C26.1,37.2,26,37.1,26,37l-0.2-0.5l-0.4-0.3c-0.1-0.1-0.1-0.1-0.2-0.2l-0.1-0.5l-0.4-0.3
		c-0.1-0.1-0.1-0.1-0.2-0.2l-0.1-0.5L24.1,34C24,34,24,33.9,23.9,33.8l-0.1-0.5l-0.4-0.3c-0.1-0.1-0.1-0.2-0.1-0.2l-0.1-0.5
		l-0.4-0.3c-0.1-0.1-0.1-0.2-0.1-0.3l-0.1-0.5l-0.4-0.4c-0.1-0.1-0.1-0.2-0.1-0.2L21.9,30l-0.4-0.4c-0.1-0.1-0.1-0.2-0.1-0.2
		l-0.1-0.5l-0.4-0.4c-0.1-0.1-0.1-0.1-0.1-0.2l-0.2-0.5c-0.1-0.2,0-0.4,0.1-0.5c0.1-0.1,0.3-0.2,0.5-0.2l0.5,0.1
		c0.1,0,0.2,0.1,0.2,0.1l0.4,0.3l0.5,0.1c0.1,0,0.2,0.1,0.3,0.1l0.4,0.3l0.5,0.1c0.1,0,0.2,0.1,0.3,0.1l0.4,0.3l0.5,0.1
		c0.1,0,0.2,0.1,0.3,0.1l0.4,0.3l0.5,0.1c0.1,0,0.2,0.1,0.3,0.1l0.4,0.4l0.5,0.1c0.1,0,0.2,0.1,0.3,0.1l0.4,0.4l0.5,0.1
		c0.1,0,0.2,0.1,0.3,0.1l0.4,0.4l0.5,0.1c0.1,0,0.2,0.1,0.3,0.1l0.4,0.4l0.5,0.1c0.1,0,0.2,0.1,0.3,0.1l0.4,0.4l0.5,0.1
		c0.1,0,0.2,0.1,0.2,0.1l0.3,0.4l0.5,0.1c0.1,0,0.2,0.1,0.2,0.2l0.3,0.4l0.5,0.1c0.1,0,0.2,0.1,0.2,0.2l0.3,0.4l0.5,0.2
		c0.1,0,0.2,0.1,0.2,0.2l0.3,0.4l0.5,0.2c0.1,0,0.2,0.1,0.2,0.2l0.3,0.4l0.5,0.2c0.1,0,0.2,0.1,0.2,0.2l0.3,0.4l0.5,0.2
		c0.1,0,0.2,0.1,0.2,0.2l0.3,0.4l0.5,0.2c0.1,0,0.2,0.1,0.2,0.2l0.2,0.5l0.5,0.3c0.1,0.1,0.2,0.1,0.2,0.2l0.2,0.5l0.4,0.3
		c0.1,0.1,0.2,0.1,0.2,0.2l0.2,0.5l0.4,0.3c0.1,0.1,0.1,0.1,0.2,0.2l0.2,0.5l0.4,0.3c0.1,0.1,0.1,0.2,0.2,0.3l0.1,0.5l0.4,0.4
		c0.1,0.1,0.1,0.2,0.1,0.3l0.1,0.5l0.3,0.4c0.1,0.1,0.1,0.2,0.1,0.3l0.1,0.5l0.3,0.4c0.1,0.1,0.1,0.2,0.1,0.3l0,0.5l0.3,0.4
		c0.1,0.1,0.1,0.2,0.1,0.3l0,0.5l0.2,0.5c0,0.1,0.1,0.2,0.1,0.3l-0.1,0.5l0.2,0.6c0.1,0.2,0,0.4-0.1,0.5
		C44.9,49.8,44.8,49.9,44.7,49.9 M42.7,48.6c0.1,0,0.1,0,0.2,0l0.5,0.2l0.5-0.1c0,0,0,0,0.1,0c0,0,0,0,0-0.1l0.1-0.5l-0.2-0.4
		c0-0.1-0.1-0.2-0.1-0.3l0-0.5l-0.3-0.4c0-0.1-0.1-0.2-0.1-0.3l0-0.5l-0.3-0.4C43,45.3,43,45.2,43,45.1l-0.1-0.5l-0.3-0.4
		c-0.1-0.1-0.1-0.1-0.1-0.2l-0.1-0.5L42,43.2c-0.1-0.1-0.1-0.1-0.1-0.2l-0.1-0.5l-0.4-0.3c-0.1-0.1-0.1-0.1-0.2-0.2L41,41.4
		l-0.4-0.3c-0.1-0.1-0.1-0.1-0.2-0.2l-0.2-0.5l-0.4-0.3c-0.1,0-0.1-0.1-0.2-0.2l-0.2-0.5L39,39.3c-0.1,0-0.1-0.1-0.2-0.2l-0.2-0.4
		l-0.5-0.2c-0.1,0-0.2-0.1-0.2-0.2l-0.3-0.4l-0.5-0.2c-0.1,0-0.2-0.1-0.2-0.2L36.7,37l-0.5-0.2c-0.1,0-0.2-0.1-0.2-0.2l-0.3-0.4
		L35.2,36c-0.1,0-0.2-0.1-0.2-0.2l-0.3-0.4l-0.5-0.2c-0.1,0-0.2-0.1-0.2-0.2l-0.3-0.4l-0.5-0.1c-0.1,0-0.2-0.1-0.2-0.2l-0.3-0.4
		l-0.5-0.1c-0.1,0-0.2-0.1-0.2-0.1l-0.3-0.4L31,33.3c-0.1,0-0.2-0.1-0.2-0.1l-0.4-0.4l-0.5-0.1c-0.1,0-0.2-0.1-0.2-0.1l-0.4-0.4
		l-0.5-0.1c-0.1,0-0.2-0.1-0.2-0.1l-0.4-0.4l-0.5-0.1c-0.1,0-0.2-0.1-0.2-0.1L27.1,31l-0.5-0.1c-0.1,0-0.2-0.1-0.3-0.1L26,30.4
		l-0.5-0.1c-0.1,0-0.2-0.1-0.3-0.1l-0.4-0.3l-0.5-0.1c-0.1,0-0.2-0.1-0.3-0.1l-0.4-0.3l-0.5-0.1c-0.1,0-0.2-0.1-0.3-0.1l-0.4-0.3
		l-0.3,0l0.1,0.3l0.4,0.4c0.1,0.1,0.1,0.2,0.1,0.2l0.1,0.5l0.4,0.4c0.1,0.1,0.1,0.2,0.1,0.2l0.1,0.5l0.4,0.3
		c0.1,0.1,0.1,0.2,0.1,0.2l0.1,0.5l0.4,0.3c0.1,0.1,0.1,0.1,0.1,0.2l0.1,0.5l0.4,0.3c0.1,0.1,0.1,0.1,0.1,0.2l0.1,0.5l0.4,0.3
		c0.1,0.1,0.1,0.1,0.2,0.2l0.1,0.5l0.4,0.3c0.1,0.1,0.1,0.1,0.2,0.2l0.2,0.5l0.4,0.3c0.1,0.1,0.1,0.1,0.2,0.2l0.2,0.5l0.4,0.3
		c0.1,0.1,0.1,0.1,0.2,0.2l0.2,0.5l0.4,0.3c0.1,0.1,0.1,0.1,0.2,0.2l0.2,0.5l0.4,0.3c0.1,0.1,0.1,0.1,0.2,0.2l0.2,0.5l0.4,0.3
		c0.1,0.1,0.1,0.1,0.2,0.2l0.2,0.5l0.4,0.3c0.1,0,0.1,0.1,0.2,0.2l0.2,0.5l0.4,0.2c0.1,0,0.1,0.1,0.2,0.2l0.2,0.4l0.5,0.2
		c0.1,0,0.2,0.1,0.2,0.2l0.3,0.4l0.5,0.2c0.1,0,0.2,0.1,0.2,0.2l0.3,0.4l0.5,0.2c0.1,0,0.2,0.1,0.2,0.2l0.3,0.4l0.5,0.2
		c0.1,0,0.2,0.1,0.2,0.1l0.3,0.4l0.5,0.1c0.1,0,0.2,0.1,0.2,0.1l0.4,0.4l0.5,0.1c0.1,0,0.2,0.1,0.2,0.1l0.4,0.3l0.5,0.1
		c0.1,0,0.2,0,0.2,0.1l0.4,0.3l0.5,0c0.1,0,0.2,0,0.3,0.1l0.4,0.3l0.5,0c0.1,0,0.2,0,0.3,0.1l0.4,0.2L42.7,48.6
		C42.7,48.6,42.7,48.6,42.7,48.6"/>
	<polygon class="st1" points="44.7,12.7 44.8,13.6 45.3,14.2 45.3,14.9 45.8,15.5 45.7,16.3 46.2,16.9 46.2,17.7 46.7,18.3 
		46.7,19.1 47.2,19.7 47.1,20.4 47.6,21 47.5,21.8 48,22.4 48,23.2 48.4,23.8 48.3,24.6 48.8,25.2 48.7,26 49.1,26.7 49,27.4 
		49.4,28.1 49.3,28.9 49.7,29.5 49.5,30.3 49.9,31 49.7,31.8 50,32.5 49.8,33.2 50.1,33.9 49.8,34.7 50.1,35.4 49.8,36.1 50.1,36.8 
		49.7,37.6 50,38.3 49.6,39 49.7,39.8 49.3,40.4 49.4,41.2 48.9,41.8 49,42.6 48.5,43.2 48.5,44 47.9,44.5 47.8,45.3 47.2,45.8 
		47.1,46.6 46.4,47 46.2,47.8 45.5,48.1 45.3,48.9 44.7,49.2 44.1,48.9 43.8,48.1 43.1,47.8 42.9,47 42.2,46.6 42.1,45.8 41.5,45.3 
		41.4,44.5 40.9,44 40.8,43.2 40.3,42.6 40.4,41.8 39.9,41.2 40,40.4 39.6,39.8 39.8,39 39.4,38.3 39.6,37.6 39.2,36.9 39.5,36.1 
		39.2,35.4 39.5,34.7 39.2,33.9 39.5,33.2 39.3,32.5 39.7,31.8 39.5,31 39.8,30.3 39.7,29.6 40.1,28.9 39.9,28.1 40.3,27.5 
		40.2,26.7 40.6,26.1 40.5,25.3 41,24.6 40.9,23.9 41.4,23.2 41.3,22.5 41.8,21.8 41.7,21.1 42.2,20.4 42.1,19.7 42.7,19.1 
		42.6,18.3 43.1,17.7 43.1,16.9 43.6,16.3 43.6,15.5 44.1,14.9 44,14.1 44.6,13.6 	"/>
	<path class="st0" d="M44.7,49.7c-0.1,0-0.1,0-0.2,0l-0.6-0.3c-0.1-0.1-0.2-0.2-0.3-0.3l-0.2-0.6l-0.5-0.3c-0.1-0.1-0.2-0.2-0.2-0.3
		l-0.2-0.6L42,47c-0.1-0.1-0.2-0.2-0.2-0.3l-0.1-0.6l-0.5-0.4c-0.1-0.1-0.2-0.2-0.2-0.3l-0.1-0.6l-0.4-0.4c-0.1-0.1-0.2-0.2-0.2-0.4
		l0-0.6L40,42.9c-0.1-0.1-0.1-0.2-0.1-0.4l0-0.6l-0.4-0.5c-0.1-0.1-0.1-0.2-0.1-0.4l0.1-0.6L39.2,40c-0.1-0.1-0.1-0.2-0.1-0.4
		l0.1-0.6l-0.3-0.5c-0.1-0.1-0.1-0.3,0-0.4l0.2-0.6l-0.3-0.5c-0.1-0.1-0.1-0.3,0-0.4l0.2-0.6l-0.2-0.5c-0.1-0.1-0.1-0.3,0-0.4
		l0.2-0.5l-0.2-0.6c0-0.1,0-0.3,0-0.4l0.2-0.5l-0.2-0.6c0-0.1,0-0.3,0-0.4l0.3-0.5L39,31.2c0-0.1,0-0.3,0-0.4l0.3-0.5l-0.1-0.6
		c0-0.1,0-0.3,0.1-0.4l0.3-0.5l-0.1-0.6c0-0.1,0-0.3,0.1-0.4l0.3-0.5l-0.1-0.6c0-0.1,0-0.3,0.1-0.4l0.3-0.5L40,25.4
		c0-0.1,0-0.3,0.1-0.4l0.3-0.5l-0.1-0.6c0-0.1,0-0.3,0.1-0.4l0.4-0.5l-0.1-0.6c0-0.1,0-0.3,0.1-0.4l0.4-0.5l-0.1-0.6
		c0-0.1,0-0.3,0.1-0.4l0.4-0.5l0-0.6c0-0.1,0-0.3,0.1-0.4l0.4-0.4l0-0.6c0-0.1,0-0.3,0.1-0.4l0.4-0.4l0-0.6c0-0.1,0-0.3,0.1-0.4
		l0.4-0.4l0-0.6c0-0.1,0-0.3,0.1-0.4l0.4-0.4l0-0.6c0-0.1,0-0.3,0.1-0.4l0.4-0.5l0.1-0.7c0-0.3,0.2-0.4,0.5-0.4
		c0.3,0,0.5,0.2,0.5,0.4l0.1,0.7l0.4,0.5c0.1,0.1,0.1,0.2,0.1,0.4l0,0.6l0.4,0.4c0.1,0.1,0.1,0.2,0.1,0.4l0,0.6l0.4,0.4
		c0.1,0.1,0.1,0.2,0.1,0.4l0,0.6l0.4,0.4c0.1,0.1,0.1,0.2,0.1,0.4l0,0.6l0.4,0.4c0.1,0.1,0.1,0.2,0.1,0.4l0,0.6l0.4,0.5
		c0.1,0.1,0.1,0.2,0.1,0.4l-0.1,0.6l0.4,0.5c0.1,0.1,0.1,0.2,0.1,0.4l-0.1,0.6l0.4,0.5c0.1,0.1,0.1,0.2,0.1,0.4l-0.1,0.6l0.3,0.5
		c0.1,0.1,0.1,0.2,0.1,0.4l-0.1,0.6l0.3,0.5c0.1,0.1,0.1,0.2,0.1,0.4l-0.1,0.6l0.3,0.5c0.1,0.1,0.1,0.2,0.1,0.4l-0.1,0.6l0.3,0.5
		c0.1,0.1,0.1,0.2,0.1,0.4L50,30.2l0.3,0.5c0.1,0.1,0.1,0.2,0,0.4l-0.2,0.6l0.3,0.5c0.1,0.1,0.1,0.3,0,0.4l-0.2,0.6l0.2,0.5
		c0.1,0.1,0.1,0.3,0,0.4l-0.2,0.6l0.2,0.5c0.1,0.1,0,0.3,0,0.4l-0.2,0.5l0.2,0.6c0,0.1,0,0.3,0,0.4l-0.3,0.5l0.2,0.6
		c0,0.1,0,0.3,0,0.4l-0.3,0.5l0.1,0.6c0,0.1,0,0.3-0.1,0.4l-0.3,0.5l0.1,0.6c0,0.1,0,0.3-0.1,0.4L49.5,42l0,0.6c0,0.1,0,0.3-0.1,0.4
		L49,43.4l0,0.6c0,0.1-0.1,0.3-0.2,0.4l-0.4,0.4l-0.1,0.6c0,0.1-0.1,0.3-0.2,0.3l-0.5,0.4l-0.1,0.6c0,0.1-0.1,0.3-0.2,0.3l-0.5,0.3
		l-0.2,0.6c0,0.1-0.1,0.2-0.2,0.3L46,48.5l-0.2,0.6c0,0.1-0.1,0.2-0.3,0.3l-0.6,0.3C44.8,49.6,44.7,49.7,44.7,49.7 M44.5,48.5
		l0.2,0.1l0.2-0.1l0.2-0.5c0-0.1,0.1-0.2,0.2-0.3l0.5-0.3l0.1-0.6c0-0.1,0.1-0.2,0.2-0.3l0.5-0.3l0.1-0.6c0-0.1,0.1-0.2,0.2-0.3
		l0.4-0.4l0.1-0.6c0-0.1,0.1-0.2,0.2-0.3l0.4-0.4l0-0.6c0-0.1,0-0.2,0.1-0.3l0.4-0.4l0-0.6c0-0.1,0-0.2,0.1-0.3l0.3-0.5l-0.1-0.6
		c0-0.1,0-0.2,0.1-0.3l0.3-0.5l-0.1-0.6c0-0.1,0-0.2,0.1-0.4l0.3-0.5l-0.2-0.6c0-0.1,0-0.2,0-0.4l0.3-0.5l-0.2-0.5
		c0-0.1,0-0.2,0-0.4l0.2-0.5l-0.2-0.5c0-0.1,0-0.2,0-0.4l0.2-0.5l-0.2-0.5c-0.1-0.1-0.1-0.2,0-0.4l0.2-0.6L49.2,32
		c-0.1-0.1-0.1-0.2,0-0.4l0.2-0.6l-0.3-0.5C49,30.4,49,30.3,49,30.2l0.1-0.6l-0.3-0.5c-0.1-0.1-0.1-0.2-0.1-0.4l0.1-0.6l-0.3-0.5
		c-0.1-0.1-0.1-0.2-0.1-0.4l0.1-0.6l-0.3-0.5c-0.1-0.1-0.1-0.2-0.1-0.4l0.1-0.6l-0.3-0.5c-0.1-0.1-0.1-0.2-0.1-0.4l0.1-0.6l-0.4-0.5
		c-0.1-0.1-0.1-0.2-0.1-0.4l0.1-0.6l-0.4-0.5c-0.1-0.1-0.1-0.2-0.1-0.4l0-0.6l-0.4-0.4c-0.1-0.1-0.1-0.2-0.1-0.4l0-0.6l-0.4-0.4
		c-0.1-0.1-0.1-0.2-0.1-0.3l0-0.6L45.8,18c-0.1-0.1-0.1-0.2-0.1-0.4l0-0.6l-0.4-0.4c-0.1-0.1-0.1-0.2-0.1-0.3l0-0.6l-0.4-0.4
		c-0.1-0.1-0.1-0.2-0.1-0.4l0-0.6l-0.1-0.1l-0.1,0.1l0,0.6c0,0.1,0,0.3-0.1,0.4l-0.4,0.4l0,0.6c0,0.1,0,0.3-0.1,0.3l-0.4,0.4l0,0.6
		c0,0.1,0,0.3-0.1,0.3l-0.4,0.4l0,0.6c0,0.1,0,0.3-0.1,0.3l-0.4,0.4l0,0.6c0,0.1,0,0.3-0.1,0.3l-0.4,0.5l0,0.6c0,0.1,0,0.3-0.1,0.4
		l-0.4,0.5l0.1,0.6c0,0.1,0,0.3-0.1,0.4L41.4,24l0.1,0.6c0,0.1,0,0.3-0.1,0.4l-0.3,0.5l0.1,0.6c0,0.1,0,0.3-0.1,0.4l-0.3,0.5
		l0.1,0.6c0,0.1,0,0.3-0.1,0.4l-0.3,0.5l0.1,0.6c0,0.1,0,0.3-0.1,0.4l-0.3,0.5l0.1,0.6c0,0.1,0,0.2-0.1,0.4L40,31.1l0.2,0.6
		c0,0.1,0,0.2,0,0.4l-0.3,0.5l0.2,0.5c0,0.1,0,0.2,0,0.4L39.8,34l0.2,0.5c0,0.1,0,0.2,0,0.4l-0.2,0.5l0.2,0.5c0,0.1,0.1,0.2,0,0.4
		l-0.2,0.5l0.3,0.5c0.1,0.1,0.1,0.2,0,0.4l-0.2,0.6l0.3,0.5c0.1,0.1,0.1,0.2,0.1,0.4l-0.1,0.6l0.3,0.5c0.1,0.1,0.1,0.2,0.1,0.3
		l-0.1,0.6l0.3,0.5c0.1,0.1,0.1,0.2,0.1,0.3l0,0.6l0.4,0.4c0.1,0.1,0.1,0.2,0.1,0.3l0,0.6l0.4,0.4c0.1,0.1,0.1,0.2,0.2,0.3L42,45
		l0.4,0.4c0.1,0.1,0.2,0.2,0.2,0.3l0.1,0.6l0.5,0.3c0.1,0.1,0.2,0.2,0.2,0.3l0.1,0.6l0.5,0.3c0.1,0.1,0.2,0.2,0.2,0.3L44.5,48.5z"/>
	<path class="st0" d="M40.2,66.2c-0.1,0-0.2,0-0.3-0.1c-0.2-0.2-0.2-0.5-0.1-0.7c1.2-1.5,6.9-4.6,9.4-4.2c0.3,0,0.5,0.3,0.4,0.6
		c0,0.3-0.3,0.5-0.6,0.4c-2.1-0.3-7.5,2.6-8.4,3.8C40.5,66.1,40.3,66.2,40.2,66.2"/>
	<path class="st1" d="M57.9,53.1c0.4-2.5,2.1-6.2,3.4-4.9c1.3,1.3,0.8,1.3,1,4.9c0.1,3.7,0.2,6.5-2.6,10c-2.7,3.5-7.3,5-11.6,4.9"/>
	<path class="st0" d="M48.5,68.5c-0.1,0-0.3,0-0.4,0c-0.3,0-0.5-0.2-0.5-0.5c0-0.3,0.2-0.5,0.5-0.5h0c4.6,0.1,8.8-1.6,11.2-4.7
		c2.7-3.5,2.6-6.3,2.5-9.6c0-0.9,0-1.6,0-2.2c0-1.6,0-1.6-0.8-2.4c-0.1-0.1-0.2-0.1-0.3-0.1c-0.8,0.2-1.9,2.6-2.2,4.7
		c0,0.3-0.3,0.4-0.6,0.4c-0.3,0-0.5-0.3-0.4-0.6c0.3-2,1.5-5.1,2.9-5.5c0.5-0.1,0.9,0,1.3,0.3c1.1,1.1,1.1,1.5,1.1,3.1
		c0,0.5,0,1.2,0,2.1c0.1,3.5,0.3,6.5-2.7,10.3C57.5,66.6,53.2,68.5,48.5,68.5"/>
	<path class="st0" d="M52.5,68c-0.2,0-0.4-0.1-0.5-0.4c-0.1-0.3,0.1-0.5,0.4-0.6c0.8-0.2,1.6-0.4,2.5-0.6c4-1,7.8-1.9,9.9-4.7
		c2.8-3.6,3.7-8.1,3.9-11.2l0-0.1c0.2-2.6,0.2-3.7-0.8-4.4c-0.2-0.1-0.2-0.1-0.3-0.1c-0.6,0.2-1.4,2.2-1.9,5.3
		c-0.4,2.8-2.9,6.1-3,6.2c-0.2,0.2-0.5,0.3-0.7,0.1c-0.2-0.2-0.3-0.5-0.1-0.7c0,0,2.4-3.3,2.8-5.8c0.2-1.6,1-5.4,2.5-6.1
		c0.3-0.1,0.8-0.2,1.3,0.2c1.5,1,1.4,2.6,1.2,5.2l0,0.1c-0.2,3.3-1.1,7.9-4.1,11.8c-2.4,3.1-6.5,4.1-10.5,5
		c-0.8,0.2-1.6,0.4-2.4,0.6C52.6,68,52.5,68,52.5,68"/>
	<path class="st1" d="M46.3,68.7c4.7-1.2,9.1-7.3,10-9.2c1.7-3.4,2.1-8.2,0.5-8.2c-1.6,0-3,4.6-4.2,6.2C51.4,59,49,60.3,48.3,64"/>
	<path class="st0" d="M46.3,69.2c-0.2,0-0.4-0.2-0.5-0.4c-0.1-0.3,0.1-0.5,0.4-0.6c4.6-1.2,8.9-7.3,9.7-8.9c1.4-2.9,1.8-6.4,1.2-7.4
		c-0.1-0.2-0.2-0.2-0.2-0.2c-0.8,0-1.8,2.1-2.4,3.5c-0.5,1-0.9,1.9-1.4,2.5c-0.3,0.4-0.7,0.8-1.2,1.3c-1.2,1.2-2.6,2.6-3.1,5.1
		c-0.1,0.3-0.3,0.4-0.6,0.4c-0.3-0.1-0.4-0.3-0.4-0.6c0.6-2.9,2.1-4.4,3.4-5.7c0.4-0.4,0.8-0.8,1.1-1.2c0.4-0.5,0.8-1.4,1.3-2.3
		c1-2,2-4.1,3.3-4.1c0.4,0,0.8,0.2,1.1,0.6c1,1.6,0.2,5.6-1.2,8.3c-1,2-5.4,8.2-10.4,9.5C46.4,69.2,46.3,69.2,46.3,69.2"/>
</g>
</svg>
