<?xml version="1.0" encoding="utf-8"?>
<!-- Generator: Adobe Illustrator 24.0.3, SVG Export Plug-In . SVG Version: 6.00 Build 0)  -->
<svg version="1.1" id="Layer_1" xmlns="http://www.w3.org/2000/svg" xmlns:xlink="http://www.w3.org/1999/xlink" x="0px" y="0px"
	 viewBox="0 0 20 20" style="enable-background:new 0 0 20 20;" xml:space="preserve">
<style type="text/css">
	.st0{fill:#2E353F;}
</style>
<title>Puntero1</title>
<desc>Created with Sketch.</desc>
<path class="st0" d="M10.8,10l9-9c0.2-0.2,0.2-0.5,0-0.7s-0.5-0.2-0.7,0l-9,9L0.9,0.3c-0.2-0.2-0.5-0.2-0.7,0S0,0.8,0.2,1l9.1,9
	l-9.1,9c-0.2,0.2-0.2,0.5,0,0.7c0.1,0.1,0.2,0.1,0.4,0.1c0.1,0,0.3,0,0.4-0.1l9.1-9l9,9c0.2,0.2,0.5,0.2,0.7,0s0.2-0.5,0-0.7
	L10.8,10z"/>
</svg>
