<?xml version="1.0" encoding="utf-8"?>
<!-- Generator: Adobe Illustrator 19.0.0, SVG Export Plug-In . SVG Version: 6.00 Build 0)  -->
<svg version="1.1" id="Layer_1" xmlns="http://www.w3.org/2000/svg" xmlns:xlink="http://www.w3.org/1999/xlink" x="0px" y="0px"
	 viewBox="0 0 87.3 87.3" style="enable-background:new 0 0 87.3 87.3;" xml:space="preserve">
<style type="text/css">
	.st0{clip-path:url(#SVGID_2_);fill:#2E353F;}
</style>
<g>
	<defs>
		<rect id="SVGID_1_" y="0" width="87.3" height="87.3"/>
	</defs>
	<clipPath id="SVGID_2_">
		<use xlink:href="#SVGID_1_"  style="overflow:visible;"/>
	</clipPath>
	<path class="st0" d="M43.6,87.3C19.6,87.3,0,67.7,0,43.6C0,19.6,19.6,0,43.6,0s43.6,19.6,43.6,43.6C87.3,67.7,67.7,87.3,43.6,87.3
		 M43.6,1C20.1,1,1,20.1,1,43.6s19.1,42.6,42.6,42.6s42.6-19.1,42.6-42.6S67.1,1,43.6,1"/>
	<path class="st0" d="M43.4,44c-0.1,0-0.3,0-0.4,0c-0.8-0.1-1.4-0.5-1.9-1.1l-0.3,0c-0.3,0-0.5-0.3-0.4-0.6c0-0.3,0.3-0.5,0.6-0.4
		l0.5,0.1c0,0,0,0,0,0c0.1,0,0.3,0.1,0.3,0.2c0.3,0.5,0.8,0.8,1.4,0.8c1.1,0.2,2.1-0.6,2.3-1.7c0.2-1.1-0.6-2.1-1.7-2.3
		c-0.6-0.1-1.1,0.1-1.5,0.4c-0.1,0.1-0.2,0.1-0.4,0.1c0,0,0,0-0.1,0l-0.5-0.1c-0.3,0-0.5-0.3-0.4-0.6c0-0.3,0.3-0.5,0.6-0.4l0.3,0
		c0.6-0.4,1.4-0.6,2.1-0.5c1.6,0.2,2.8,1.8,2.6,3.4C46.2,42.9,44.9,44,43.4,44"/>
	<path class="st0" d="M62.1,46.7c-0.1,0-0.3,0-0.4,0c-1.1-0.2-1.7-0.7-1.9-1.1l-0.3,0c-0.3,0-0.5-0.3-0.4-0.6c0-0.3,0.3-0.5,0.6-0.4
		l0.5,0.1c0.2,0,0.3,0.1,0.4,0.3c0,0,0.4,0.6,1.4,0.8c0.5,0.1,1.1-0.1,1.5-0.4c0.4-0.3,0.7-0.8,0.8-1.3c0.2-1.1-0.6-2.1-1.7-2.3
		c-0.9-0.1-1.6,0.4-1.6,0.4c-0.1,0.1-0.2,0.1-0.4,0.1l-0.5-0.1c-0.3,0-0.5-0.3-0.4-0.6c0-0.3,0.3-0.5,0.6-0.4l0.3,0
		c0.4-0.2,1.2-0.6,2.1-0.5c1.6,0.2,2.8,1.8,2.6,3.4C64.8,45.6,63.5,46.7,62.1,46.7"/>
	<path class="st0" d="M58.4,53.1C58.4,53.1,58.4,53,58.4,53.1L50.7,52c-0.3,0-0.5-0.3-0.4-0.6c0-0.3,0.3-0.5,0.6-0.4l7.1,1l1-7
		c0-0.3,0.3-0.5,0.6-0.4c0.3,0,0.5,0.3,0.4,0.6l-1.1,7.5c0,0.1-0.1,0.2-0.2,0.3C58.6,53,58.5,53.1,58.4,53.1"/>
	<path class="st0" d="M60,42.1C59.9,42.1,59.9,42.1,60,42.1c-0.3,0-0.5-0.3-0.5-0.6l1-7L54,33.6c0.3,0.6,0.5,1.3,0.4,1.9
		c-0.2,1.6-1.8,2.8-3.4,2.6c-1.6-0.2-2.8-1.8-2.6-3.4c0-0.3,0.3-0.5,0.6-0.4c0.3,0,0.5,0.3,0.4,0.6c-0.1,0.5,0.1,1.1,0.4,1.5
		c0.3,0.4,0.8,0.7,1.3,0.8c0.5,0.1,1.1-0.1,1.5-0.4c0.4-0.3,0.7-0.8,0.8-1.3c0.1-0.6-0.1-1.1-0.4-1.5c-0.1-0.1-0.1-0.2-0.1-0.4
		l0.1-0.5c0-0.3,0.3-0.5,0.6-0.4l7.6,1.1c0.1,0,0.2,0.1,0.3,0.2c0.1,0.1,0.1,0.2,0.1,0.4l-1.1,7.5C60.4,41.9,60.2,42.1,60,42.1"/>
	<path class="st0" d="M49.9,33.6C49.9,33.6,49.9,33.6,49.9,33.6c-0.3,0-0.5-0.3-0.5-0.6l0.1-0.5c0-0.3,0.3-0.5,0.6-0.4
		c0.3,0,0.5,0.3,0.4,0.6l-0.1,0.5C50.4,33.4,50.2,33.6,49.9,33.6"/>
	<path class="st0" d="M41.3,39.5C41.3,39.5,41.3,39.5,41.3,39.5c-0.3,0-0.5-0.3-0.5-0.6l0.1-1c0-0.3,0.3-0.5,0.6-0.4
		c0.3,0,0.5,0.3,0.4,0.6l-0.1,1C41.8,39.3,41.6,39.5,41.3,39.5"/>
	<path class="st0" d="M47.4,51.5C47.4,51.5,47.3,51.5,47.4,51.5l-7.7-1.1c-0.1,0-0.2-0.1-0.3-0.2c-0.1-0.1-0.1-0.2-0.1-0.4l1.1-7.5
		c0-0.3,0.3-0.5,0.6-0.4c0.3,0,0.5,0.3,0.4,0.6l-1,7l7.1,1c0.3,0,0.5,0.3,0.4,0.6C47.8,51.3,47.6,51.5,47.4,51.5"/>
	<path class="st0" d="M48.8,56.6c-0.1,0-0.3,0-0.4,0c-0.8-0.1-1.5-0.5-2-1.2c-0.5-0.6-0.7-1.4-0.6-2.2c0.1-0.7,0.5-1.4,1.1-1.9
		l0-0.3c0-0.3,0.3-0.5,0.6-0.4c0.3,0,0.5,0.3,0.4,0.6l-0.1,0.4c0,0,0,0,0,0.1c0,0.1-0.1,0.3-0.2,0.4c-0.5,0.3-0.8,0.8-0.8,1.4
		c-0.1,0.5,0.1,1.1,0.4,1.5c0.3,0.4,0.8,0.7,1.3,0.8c0.5,0.1,1.1-0.1,1.5-0.4c0.4-0.3,0.7-0.8,0.8-1.3c0.1-0.6-0.1-1.1-0.4-1.5
		c-0.1-0.1-0.1-0.2-0.1-0.4c0,0,0-0.1,0-0.1l0.1-0.4c0-0.3,0.3-0.5,0.6-0.4c0.3,0,0.5,0.3,0.4,0.6l0,0.3c0.4,0.6,0.6,1.4,0.5,2.1
		c-0.1,0.8-0.5,1.5-1.2,2C50,56.3,49.4,56.6,48.8,56.6"/>
	<path class="st0" d="M46,25.6c-0.1,0-0.3,0-0.4,0c-0.7-0.1-1.4-0.5-1.9-1.1l-0.3,0c-0.3,0-0.5-0.3-0.4-0.6c0-0.3,0.3-0.5,0.6-0.4
		l0.5,0.1c0,0,0,0,0,0c0.1,0,0.3,0.1,0.3,0.2c0.3,0.5,0.8,0.8,1.4,0.8c0.5,0.1,1.1-0.1,1.5-0.4c0.4-0.3,0.7-0.8,0.8-1.3
		c0.1-0.5-0.1-1.1-0.4-1.5c-0.3-0.4-0.8-0.7-1.3-0.8c-0.5-0.1-1.1,0.1-1.5,0.4c-0.1,0.1-0.2,0.1-0.4,0.1c0,0,0,0-0.1,0l-0.5-0.1
		c-0.3,0-0.5-0.3-0.4-0.6c0-0.3,0.3-0.5,0.6-0.4l0.3,0c0.6-0.4,1.4-0.6,2.1-0.5c0.8,0.1,1.5,0.5,2,1.2c0.5,0.6,0.7,1.4,0.6,2.2
		c-0.1,0.8-0.5,1.5-1.2,2C47.3,25.4,46.7,25.6,46,25.6"/>
	<path class="st0" d="M64.7,28.3c-0.1,0-0.3,0-0.4,0c-1.1-0.2-1.7-0.7-1.9-1.1l-0.3,0c-0.3,0-0.5-0.3-0.4-0.6c0-0.3,0.3-0.5,0.6-0.4
		l0.5,0.1c0.2,0,0.3,0.1,0.4,0.3c0,0,0.4,0.6,1.4,0.8c0.5,0.1,1.1-0.1,1.5-0.4c0.4-0.3,0.7-0.8,0.8-1.3c0.1-0.5-0.1-1.1-0.4-1.5
		c-0.3-0.4-0.8-0.7-1.3-0.8c-0.9-0.1-1.6,0.4-1.6,0.4c-0.1,0.1-0.2,0.1-0.4,0.1l-0.5-0.1c-0.3,0-0.5-0.3-0.4-0.6
		c0-0.3,0.3-0.5,0.6-0.4l0.3,0c0.3-0.2,1.1-0.6,2.1-0.5c0.8,0.1,1.5,0.5,2,1.2c0.5,0.6,0.7,1.4,0.6,2.2c-0.1,0.8-0.5,1.5-1.2,2
		C66,28.1,65.3,28.3,64.7,28.3"/>
	<path class="st0" d="M61,34.7C61,34.7,61,34.7,61,34.7l-7.7-1.1c-0.3,0-0.5-0.3-0.4-0.6c0-0.3,0.3-0.5,0.6-0.4l7.1,1l1-7
		c0-0.3,0.3-0.5,0.6-0.4c0.3,0,0.5,0.3,0.4,0.6l-1.1,7.5c0,0.1-0.1,0.2-0.2,0.3C61.2,34.6,61.1,34.7,61,34.7"/>
	<path class="st0" d="M62.6,23.8C62.6,23.8,62.5,23.7,62.6,23.8c-0.3,0-0.5-0.3-0.5-0.6l1-7l-6.5-0.9c0.3,0.6,0.5,1.2,0.4,1.9
		c-0.2,1.6-1.8,2.8-3.4,2.6c-0.8-0.1-1.5-0.5-2-1.2c-0.5-0.6-0.7-1.4-0.6-2.2c0.1-0.7,0.4-1.3,0.9-1.7l-6.5-0.9l-1,7
		c0,0.3-0.3,0.5-0.6,0.4c-0.3,0-0.5-0.3-0.4-0.6l1.1-7.5c0-0.1,0.1-0.2,0.2-0.3c0.1-0.1,0.2-0.1,0.4-0.1l7.6,1.1
		c0.3,0,0.5,0.3,0.4,0.5L53,14.8c0,0.1-0.1,0.3-0.2,0.3c-0.5,0.4-0.8,0.8-0.8,1.4c-0.2,1.1,0.6,2.1,1.7,2.3c1.1,0.2,2.1-0.6,2.3-1.7
		c0.1-0.6-0.1-1.1-0.4-1.5c-0.1-0.1-0.1-0.2-0.1-0.4l0.1-0.5c0-0.1,0.1-0.3,0.2-0.3c0.1-0.1,0.2-0.1,0.4-0.1l7.6,1.1
		c0.3,0,0.5,0.3,0.4,0.6l-1.1,7.5C63,23.6,62.8,23.8,62.6,23.8"/>
	<path class="st0" d="M43,27.4C43,27.4,43,27.4,43,27.4c-0.3,0-0.5-0.3-0.5-0.6l0.4-2.9c0-0.3,0.3-0.5,0.6-0.4
		c0.3,0,0.5,0.3,0.4,0.6L43.5,27C43.5,27.2,43.3,27.4,43,27.4"/>
	<path class="st0" d="M50,33.1c0,0-0.1,0-0.1,0l-6.4-1.3c-0.3-0.1-0.4-0.3-0.4-0.6c0.1-0.3,0.3-0.4,0.6-0.4l6.4,1.3
		c0.3,0.1,0.4,0.3,0.4,0.6C50.4,32.9,50.2,33.1,50,33.1"/>
	<path class="st0" d="M28.6,34.2c-0.2,0-0.4-0.1-0.5-0.3c0-0.1-1.1-3,1.1-5.2c1.8-2,7.5-1.9,10.6-1.9c0.4,0,0.8,0,1.1,0
		c5-0.1,5.5,0.4,5.7,0.6c0.1,0.1,0.2,0.3,0.2,0.5c0,0.9-0.4,1.8-1.1,2.5c-0.6,0.6-1.7,1.3-3.5,1.2c-0.3,0-0.5-0.2-0.5-0.5
		c0-0.3,0.2-0.5,0.5-0.5c1.4,0.1,2.3-0.5,2.8-1c0.5-0.4,0.8-1,0.8-1.6c-0.4-0.2-1.8-0.3-4.9-0.3c-0.3,0-0.6,0-1.1,0
		c-2.5,0-8.3,0-9.9,1.6c-1.7,1.8-0.9,4.2-0.8,4.2c0.1,0.3,0,0.5-0.3,0.6C28.7,34.2,28.6,34.2,28.6,34.2"/>
	<path class="st0" d="M24.4,55.8c-0.2,0-0.4-0.1-0.5-0.3c-0.1-0.2-1.7-5.1-1.2-8.1c1-5.4,3.6-7.4,6.6-9.2c3.4-2.1,5.4-3.1,7-3.3
		c1.1-0.1,2.1-0.3,3-0.4c2.8-0.4,3.4-0.5,3.5,0.2c0.3,0.7,0.2,1.5-0.2,2.3c-0.9,1.9-3.9,3.7-8.9,5.4c-0.3,0.1-0.5-0.1-0.6-0.3
		c-0.1-0.3,0.1-0.5,0.3-0.6c5.9-2,7.8-3.8,8.3-4.9c0.2-0.5,0.3-0.9,0.2-1.4c-0.5,0-1.5,0.2-2.5,0.3c-0.9,0.1-2,0.3-3,0.4
		C35.1,36,33.2,37,29.9,39c-3.4,2.1-5.3,4-6.2,8.6c-0.5,2.7,1.1,7.6,1.1,7.6c0.1,0.3-0.1,0.5-0.3,0.6C24.5,55.8,24.5,55.8,24.4,55.8
		 M42,34.8C42,34.8,42,34.9,42,34.8C42,34.9,42,34.8,42,34.8"/>
	<path class="st0" d="M25,43.2c-0.2,0-0.4-0.1-0.5-0.3c0-0.1-1-2.3,0.3-4.9c1.6-3.5,8-7,11.1-8c2.5-0.8,4.8,0,6.6,0.7
		c0.7,0.2,1.4,0.5,1.9,0.6c0.5,0.1,1,0.2,1.5,0.3c1,0.2,1.8,0.3,2.5,0.5c0.3,0.1,0.4,0.3,0.4,0.6c-0.1,0.3-0.3,0.4-0.6,0.4
		c-0.6-0.2-1.5-0.3-2.4-0.5c-0.5-0.1-1-0.2-1.5-0.3c-0.6-0.1-1.3-0.4-2.1-0.6c-1.8-0.6-3.8-1.4-6-0.7c-3.3,1.1-9.1,4.5-10.5,7.5
		c-1,2.3-0.3,4.1-0.2,4.1c0.1,0.3,0,0.5-0.3,0.7C25.1,43.1,25.1,43.2,25,43.2"/>
	<path class="st0" d="M36.1,85.8C36.1,85.8,36,85.8,36.1,85.8c-0.4-0.1-0.5-0.3-0.5-0.6c0-0.1,1.3-7.4,0.2-10.5
		c-0.9-2.3-5.5-7.6-7.8-9.5c-1-0.8-4.7-4.5-4.5-7.8c0.1-1.9,2.1-7.8,4.4-10.7c1.1-1.3,2-2.7,2.7-3.8c1.1-1.7,1.5-2.2,2-2.3
		c0.4-0.1,0.9,0,1.3,0.5c0.8,1,0.7,2.9-0.4,5.9c-0.8,2.2-2.2,4.7-2.6,5.3c0,0.4-0.1,1.6-0.8,3.3c0.5,0.8,2.1,3.2,2.8,6.1
		c0.1,0.3-0.1,0.5-0.4,0.6c-0.3,0.1-0.5-0.1-0.6-0.4c-0.7-3.1-2.7-5.9-2.7-5.9c-0.1-0.1-0.1-0.3-0.1-0.5c0.8-2,0.8-3.3,0.8-3.3
		c0-0.1,0-0.2,0.1-0.3c0,0,1.7-2.8,2.6-5.2c1.3-3.6,0.8-4.7,0.5-4.9c-0.2-0.2-0.3-0.2-0.3-0.2c-0.1,0.1-0.8,1-1.3,1.9
		c-0.8,1.1-1.7,2.5-2.8,3.9c-2.2,2.7-4.1,8.4-4.2,10.2c-0.2,2.6,2.8,5.8,4.1,6.9c2.1,1.7,7.1,7.2,8.1,9.9c1.2,3.3-0.1,10.7-0.2,11
		C36.5,85.6,36.3,85.8,36.1,85.8"/>
	<path class="st0" d="M40.7,44L40.7,44c-0.3,0-0.5-0.2-0.5-0.5c0.1-1.4-1.7-2.6-2.4-3c-0.2-0.1-0.3-0.4-0.2-0.7
		c0.1-0.2,0.4-0.3,0.7-0.2c0.1,0.1,3,1.7,2.9,3.9C41.2,43.8,40.9,44,40.7,44"/>
	<path class="st0" d="M51.5,86.4H51c0-11.4,1.4-16.5,2.6-18.8c1.9-3.6,3.6-9.5,2.5-15.2c-0.1-0.3,0.1-0.5,0.4-0.6
		c0.3-0.1,0.5,0.1,0.6,0.4c1.2,5.9-0.6,12-2.6,15.8c-1.2,2.2-2.5,7.1-2.5,18.3L51.5,86.4z"/>
	<path class="st0" d="M46.1,36.3c-0.2,0-0.5,0-0.7-0.1c-0.9-0.2-2.8-0.6-2.8-0.6c-0.3-0.1-0.4-0.3-0.4-0.6c0.1-0.3,0.3-0.4,0.6-0.4
		c0,0,1.9,0.4,2.8,0.6c1.9,0.3,3.3-0.9,3.5-1.9c0,0-0.1-0.2-0.9-0.4c-0.3-0.1-0.4-0.3-0.4-0.6s0.3-0.4,0.6-0.4
		c0.5,0.1,1.8,0.5,1.6,1.5C49.7,34.9,48.1,36.3,46.1,36.3"/>
</g>
</svg>
