<?xml version="1.0" encoding="utf-8"?>
<!-- Generator: Adobe Illustrator 23.1.1, SVG Export Plug-In . SVG Version: 6.00 Build 0)  -->
<svg version="1.1" id="Layer_1" xmlns="http://www.w3.org/2000/svg" xmlns:xlink="http://www.w3.org/1999/xlink" x="0px" y="0px"
	 viewBox="0 0 92.3 92.3" style="enable-background:new 0 0 92.3 92.3;" xml:space="preserve">
<style type="text/css">
	.st0{fill:none;stroke:#2E353F;stroke-linecap:round;stroke-linejoin:round;stroke-miterlimit:10;}
</style>
<g>
	<ellipse transform="matrix(0.7071 -0.7071 0.7071 0.7071 -19.1114 46.139)" class="st0" cx="46.1" cy="46.1" rx="43.1" ry="43.1"/>
	<path class="st0" d="M55,50.8c2.1,2,3.4,4.9,3.4,8c0,6.2-5,11.1-11.1,11.1c-6.1,0-11.1-5-11.1-11.1c0-6.1,5-11.1,11.1-11.1
		c0.1,0,0.3,0,0.4,0"/>
	<path class="st0" d="M51.6,48.6c0.3,0.1,0.6,0.3,0.9,0.4"/>
	<line class="st0" x1="47.3" y1="70" x2="47.3" y2="80.5"/>
	<line class="st0" x1="41.7" y1="75.2" x2="52.8" y2="75.2"/>
	<path class="st0" d="M60.6,37.2c0,0,2.3,1,2.4,3.6c0.1,2.5-4.7,6.9-6,8.2c-1.8,1.8-3.5,3.4-3.8,3c-0.9-0.9-1.2-2.9,0.6-4.6"/>
	<path class="st0" d="M52.2,35.3c-3.7,7.5-2.3,9.4-1,10c0.2,0.1,1.6-1.9,3.4-4.2c0.8-1.1,1.4-2.8,2.2-6.3c0.8-3.4,1-5.9-1.6-9.6
		c-1.5-2.1-5.7-4.2-5.7-4.2"/>
	<path class="st0" d="M57.2,29.3c0,0,1.8,0.7,2.7,3c1.1,2.9-0.5,8.9-1.9,11.6c-1.4,2.7-4.5,3.4-6,4.4c-2.1,1.4-3.8,2.9-4.3,2.2
		c-0.7-1-0.4-2.9,1.1-4c0.7-0.5,2.1-1.4,2.1-1.4"/>
	<path class="st0" d="M40.5,22c2.5,1.6,5.6,2.1,5.6,2.1c0.8,1.9,1.7,2.7,1.7,2.7s0.7,2.9,1.7,5c2.1,4.5,3.5,3.8,3.8,3.4
		c0.3-0.4-0.6-3.3-1-6.5c-0.3-3.2-2.7-8-3.8-9.3c-1.7-2-6-2.1-7.3-1.9c-2.5,0.3-8.9-0.1-11.1-1.1c-2.8-1.3-6.6-6.9-6.6-6.9"/>
	<path class="st0" d="M50.6,39.1c0,0-2.9,0.5-4.1-0.8c0,0-1.8,3.5-7.2,3c0,0,4.4,1.5,6.4,2.7c1.9,1.2,3.1,2.5,3.1,2.5"/>
	<path class="st0" d="M50.1,49.6c0.4,0.7-0.2,2.4-1.4,2.1c-1.2-0.3-1.5-1.4-3.7-2.4c-2.1-1.1-7.7-3.4-10.9-4.6
		c-6-2.3-9.7-8.5-11.1-12.9c-1.5-4.8-8.5-11.8-10-13.3"/>
	<polyline class="st0" points="58.2,55.1 67.7,51.8 65.2,57.2 	"/>
	<line class="st0" x1="62.4" y1="49.2" x2="67.7" y2="51.8"/>
</g>
</svg>
