<?xml version="1.0" encoding="utf-8"?>
<!-- Generator: Adobe Illustrator 19.0.0, SVG Export Plug-In . SVG Version: 6.00 Build 0)  -->
<svg version="1.1" id="Layer_1" xmlns="http://www.w3.org/2000/svg" xmlns:xlink="http://www.w3.org/1999/xlink" x="0px" y="0px"
	 viewBox="0 0 87.3 87.3" style="enable-background:new 0 0 87.3 87.3;" xml:space="preserve">
<style type="text/css">
	.st0{clip-path:url(#SVGID_2_);fill:none;stroke:#2E353F;stroke-miterlimit:10;}
	.st1{clip-path:url(#SVGID_2_);fill:none;stroke:#2E353F;stroke-linecap:round;stroke-linejoin:round;stroke-miterlimit:10;}
</style>
<g>
	<defs>
		<rect id="SVGID_1_" y="0" width="87.3" height="87.3"/>
	</defs>
	<clipPath id="SVGID_2_">
		<use xlink:href="#SVGID_1_"  style="overflow:visible;"/>
	</clipPath>
	<circle class="st0" cx="43.6" cy="43.6" r="43.1"/>
	<path class="st1" d="M56.4,2.6C49.8,10,30.6,28.2,30.1,31.9c-0.5,4.1,0.3,9.7-1.2,13.2c-1.5,3.6-4.2,7.3-2.4,11.4
		c1.3,2.8,2.9,5.8,4.2,8.2"/>
	<path class="st1" d="M50.9,75.3c-0.8,0.5-4.7,2.3-6.5,1.4c-1.8-0.9-6.7-6.5-8.7-9.3c-1.9-2.8-3.6-4-5-2.7c-0.7,0.6,3.8,7.6,5,8.7
		c1.2,1.1,4.7,0.9,5.9,0.9"/>
	<path class="st1" d="M39.4,72c-2-2.3-5.6-9.6-4.3-9.7c1.3-0.1,1.9-0.3,4.7,3.4c2.8,3.7,9.2,10.1,12.9,9.1c3.6-1.1,5.3-2.8,6-4.2
		c0.2-0.5,0-1.5,0-1.5"/>
	<path class="st1" d="M44.6,70.7c-2.3-2-7-8.6-5.7-8.9c1.3-0.3,2.4-1.2,5.6,2.2c0.8,0.9,3,2.7,3.9,3.6c0.3,0.3,0.7,0.4,1.1,0.5
		c2.3,0.5,8.4,1.9,9.3,0.9c1.5-1.6,0.8-6.3,0.2-6.1"/>
	<path class="st1" d="M56.4,63.5c0.7,0.1,1.3,0.4,1.6,0.8"/>
	<path class="st1" d="M54.5,50.5c-0.3,1.3-0.3,7.3-0.3,7.3c-0.9,0.3-3,2.1-3,2.1s-0.6-0.5-1.7-1.3c-3-2.4-7.3-1.5-7.2-0.3
		c0.1,1.3,4.5,3.7,6.1,5.4c1.6,1.6,3.4,1.9,6.1,0.7c2.7-1.3,4.8-1.3,5.3-3.5c0.9-4.1,2.9-9,1.5-11.4C60,47.2,55.4,30,53.5,30"/>
	<path class="st1" d="M48.3,36.9c-0.4,2.1-0.1,7.8,1.8,10.7c2,2.9,4.1,5.7,4.1,7"/>
	<path class="st1" d="M46.8,39.9c0-1.9,9.6-14.8,24.9-29.1"/>
	<path class="st1" d="M29.6,62.8c0.5,1.5,1,6.1,0.1,8.4c-1,2.4-2.8,6.1-0.8,7c1.9,1,3.3-1.4,4.1-3.5c0.8-2.1,1.1-3.3,1.1-3.3"/>
	<path class="st1" d="M36.1,1.2c5.1,5.3,10.7,11.4,10.7,11.4"/>
	<path class="st1" d="M15.8,10.9c7.2,2.1,18.2,15.2,18.2,15.2"/>
</g>
</svg>
