<?xml version="1.0" encoding="utf-8"?>
<!-- Generator: Adobe Illustrator 19.0.0, SVG Export Plug-In . SVG Version: 6.00 Build 0)  -->
<svg version="1.1" id="Layer_1" xmlns="http://www.w3.org/2000/svg" xmlns:xlink="http://www.w3.org/1999/xlink" x="0px" y="0px"
	 viewBox="0 0 87.3 87.3" style="enable-background:new 0 0 87.3 87.3;" xml:space="preserve">
<style type="text/css">
	.st0{clip-path:url(#SVGID_2_);fill:#2E353F;}
</style>
<g>
	<defs>
		<rect id="SVGID_1_" y="0" width="87.3" height="87.3"/>
	</defs>
	<clipPath id="SVGID_2_">
		<use xlink:href="#SVGID_1_"  style="overflow:visible;"/>
	</clipPath>
	<path class="st0" d="M43.6,87.3C19.6,87.3,0,67.7,0,43.6S19.6,0,43.6,0s43.6,19.6,43.6,43.6S67.7,87.3,43.6,87.3 M43.6,1
		C20.1,1,1,20.1,1,43.6s19.1,42.6,42.6,42.6s42.6-19.1,42.6-42.6S67.1,1,43.6,1"/>
	<path class="st0" d="M8.2,68.7c-0.1,0-0.2,0-0.3-0.1c-0.2-0.1-0.3-0.4-0.2-0.7c2-3.4,3.3-5.9,3.7-7.3C14,53,18.8,43.2,23.2,39.5
		c1.9-1.6,3.7-2.4,5.5-3.3c1.6-0.7,3.3-1.5,5.2-3c2.1-1.6,4.2-3,5.2-2c0.4,0.4,0.6,1.1,0.5,1.9c-0.1,1.4-0.9,3.6-3.1,5.3
		c-0.8,0.6-1.6,1.1-2.5,1.7c-2.4,1.5-4.9,3.1-5.2,5.9c2.2-0.5,9.5-2.6,15.2-7.2c5.4-4.4,7.1-7.1,8.3-9.1c0.3-0.5,0.6-1,1-1.5
		c0.2-0.3,0.4-0.6,0.7-1c1.7-2.5,4.3-6.3,7.5-4.5c0.2,0.1,0.3,0.4,0.2,0.6c-0.1,0.4-3.1,9.1-5.5,13c-2.6,4.1-10.5,9.8-13.5,11
		c-0.3,0.1-0.5,0-0.7-0.3c-0.1-0.3,0-0.5,0.3-0.6c2.8-1.1,10.6-6.7,13-10.6c2.1-3.4,4.7-10.6,5.3-12.4c-2.1-0.8-3.9,1.6-5.8,4.3
		c-0.3,0.4-0.5,0.7-0.7,1c-0.3,0.4-0.6,0.9-0.9,1.4c-1.3,2-3,4.8-8.5,9.3c-6.9,5.6-15.9,7.5-16.3,7.6c-0.1,0-0.3,0-0.4-0.1
		c-0.1-0.1-0.2-0.2-0.2-0.4c0-3.8,3.1-5.7,5.8-7.4c0.9-0.6,1.7-1.1,2.4-1.6c1.9-1.5,2.6-3.4,2.7-4.6c0-0.6-0.1-1-0.2-1.1
		c0,0-0.5-0.5-3.9,2.1c-2,1.5-3.7,2.3-5.4,3.1c-1.8,0.8-3.5,1.6-5.3,3.1c-4.3,3.6-9,13.2-11.4,20.7c-0.5,1.5-1.8,4-3.8,7.5
		C8.5,68.6,8.3,68.7,8.2,68.7"/>
	<path class="st0" d="M49.2,35.2C49.2,35.2,49.2,35.2,49.2,35.2c-5.8-1.1-5.4-4.5-5.3-6.2l0-0.2c0-0.3,0.3-0.5,0.5-0.4
		c0.7,0,6.6,0.5,8.3,1.7c0.2,0.2,0.3,0.5,0.1,0.7c-0.2,0.2-0.5,0.3-0.7,0.1c-1.1-0.8-5.2-1.3-7.3-1.5c-0.2,1.6-0.2,4,4.4,4.9
		c0.3,0.1,0.5,0.3,0.4,0.6C49.7,35.1,49.5,35.2,49.2,35.2"/>
	<path class="st0" d="M47.4,50.2c-0.2,0-0.4-0.1-0.4-0.3c-0.1-0.2,0-0.5,0.2-0.7c1.4-0.7,9.1-7.5,9.9-9.5c1.5-3.8,1.5-5.5,0.1-6.2
		c-0.3-0.1-0.4-0.4-0.3-0.7c0.1-0.3,0.4-0.4,0.7-0.3c2.6,1.1,1.6,4.4,0.5,7.4c-0.9,2.4-9,9.3-10.4,10.1
		C47.6,50.2,47.5,50.2,47.4,50.2"/>
	<path class="st0" d="M21.6,81.2c-0.1,0-0.2,0-0.3-0.1c-0.2-0.1-0.3-0.5-0.2-0.7c5.5-8.7,15.6-13.7,17.5-14.6
		c3.9-1.8,6.3-2.7,8.8-3.6c0.9-0.3,1.9-0.7,2.9-1.1c3.8-1.5,13.1-10.9,14.3-12.2c0.3-0.3,0.3-0.4,0.3-0.4c-0.1,0-0.7-0.1-1.5,0.1
		c-2.9,0.5-6.3,3.7-8.5,5.7c-1.1,1-1.8,1.7-2.3,2c-1.7,0.9-5,0.1-5.4,0c-0.2,0-0.3-0.2-0.4-0.4c0-0.2,0-0.4,0.2-0.5
		c4.6-3.3,12.7-10,12.7-11.6c0-2.3-2.5-3.4-2.5-3.4c-0.3-0.1-0.4-0.4-0.3-0.7c0.1-0.3,0.4-0.4,0.7-0.3c0.1,0.1,3.1,1.4,3.1,4.4
		c0,2.4-9.2,9.5-12.2,11.7c1.2,0.2,2.8,0.3,3.6-0.2c0.4-0.2,1.2-1,2.1-1.8c2.3-2.2,5.8-5.4,9-6c0.5-0.1,2.1-0.3,2.6,0.5
		c0.2,0.4,0.1,0.9-0.5,1.5c-0.1,0.1-10.3,10.8-14.7,12.5c-1.1,0.4-2,0.8-2.9,1.1c-2.5,0.9-4.8,1.8-8.7,3.6
		C37.2,67.6,27.3,72.5,22,81C21.9,81.1,21.8,81.2,21.6,81.2"/>
	<path class="st0" d="M39.7,42.8c-0.3,0-0.5-0.2-0.5-0.5V17.6c0-0.3,0.2-0.5,0.5-0.5h4.2c0.3,0,0.5,0.2,0.5,0.5v21.9
		c0,0.3-0.2,0.5-0.5,0.5c-0.3,0-0.5-0.2-0.5-0.5V18.1h-3.2v24.2C40.2,42.6,40,42.8,39.7,42.8"/>
	<path class="st0" d="M43.9,70.3h-4.2c-0.3,0-0.5-0.2-0.5-0.5v-3.9c0-0.3,0.2-0.5,0.5-0.5s0.5,0.2,0.5,0.5v3.4h3.2v-5
		c0-0.3,0.2-0.5,0.5-0.5c0.3,0,0.5,0.2,0.5,0.5v5.5C44.4,70.1,44.2,70.3,43.9,70.3"/>
	<path class="st0" d="M37.4,18.1c-0.6,0-1.2-0.4-1.4-0.9l-1.4-3.3c-0.1-0.2-0.2-0.3-0.5-0.3c-2.5,0.1-4.6,0.6-6.5,1.5
		c-0.6,0.3-1.3,0.2-1.7-0.3c-0.5-0.5-0.6-1.2-0.2-1.8c1.2-2.2,3.4-4.8,7.6-4.8h11.6c0.6,0,1.2,0.4,1.4,0.9l0.5,1.1
		c0.1,0.2,0.3,0.3,0.5,0.3h0.2c0.2,0,0.4-0.1,0.5-0.3L48.3,9c0.2-0.6,0.8-1,1.4-1h2.7C53.3,8,54,8.7,54,9.5v7c0,0.8-0.7,1.5-1.5,1.5
		h-2.5c-0.6,0-1.2-0.4-1.4-0.9L48,15.7c-0.2-0.4-0.8-0.4-1,0L46.6,17c-0.2,0.6-0.8,1.1-1.4,1.1H40c-1,0-1.9,0.1-2.4,0.1
		C37.5,18.1,37.5,18.1,37.4,18.1 M34.2,12.6c0.6,0,1.1,0.4,1.4,0.9l1.4,3.3c0.1,0.2,0.3,0.3,0.5,0.3C38.1,17.1,39,17,40,17h5.2
		c0.2,0,0.4-0.1,0.5-0.4l0.4-1.2c0.2-0.6,0.8-1.1,1.4-1.1c0.6,0,1.2,0.4,1.4,0.9l0.6,1.3c0.1,0.2,0.3,0.3,0.5,0.3h2.5
		c0.3,0,0.5-0.2,0.5-0.5v-7C53,9.2,52.7,9,52.5,9h-2.7c-0.2,0-0.4,0.1-0.5,0.3l-0.5,1.2c-0.2,0.6-0.8,1-1.4,1h-0.2
		c-0.6,0-1.2-0.4-1.4-0.9l-0.5-1.1c-0.1-0.2-0.3-0.3-0.5-0.3H33.3c-3.7,0-5.7,2.3-6.7,4.2c-0.2,0.3,0,0.5,0.1,0.6
		c0.1,0.1,0.3,0.3,0.6,0.1C29.2,13.2,31.5,12.7,34.2,12.6L34.2,12.6z"/>
</g>
</svg>
