<?xml version="1.0" encoding="utf-8"?>
<!-- Generator: Adobe Illustrator 23.1.1, SVG Export Plug-In . SVG Version: 6.00 Build 0)  -->
<svg version="1.1" id="Layer_1" xmlns="http://www.w3.org/2000/svg" xmlns:xlink="http://www.w3.org/1999/xlink" x="0px" y="0px"
	 viewBox="0 0 96.5 51.1" style="enable-background:new 0 0 96.5 51.1;" xml:space="preserve">
<style type="text/css">
	.st0{fill:#FFFFFF;}
</style>
<g>
	<path class="st0" d="M92.4,44.2c0.1,0,0.2-0.1,0-0.3l-0.4,0.1L92.4,44.2z"/>
	<path class="st0" d="M91.7,42.4c-0.3-0.1-0.8-0.3-0.9,0.1c0.4,0,0.4,0.2,0.9,0.2c0.2,0.2,0.2,0.4,0.1,0.5c0.1,0,0.2,0.4,0.5,0.4
		c0-0.4-0.3-0.8-0.8-1C91.5,42.4,91.6,42.4,91.7,42.4z"/>
	<path class="st0" d="M71.8,24.2l0.1,0.1C71.9,24.3,71.8,24.2,71.8,24.2z"/>
	<path class="st0" d="M56.5,17.1c0.1,0,0.2,0,0.2,0C56.6,17.1,56.5,17,56.5,17.1z"/>
	<path class="st0" d="M53.8,15.9c0.1,0,0.1,0,0.2,0.1C53.9,15.9,53.9,15.9,53.8,15.9z"/>
	<path class="st0" d="M71.8,24.2l-0.3-0.3C71.4,24,71.6,24.1,71.8,24.2z"/>
	<path class="st0" d="M88.7,40.1c0.1,0.1,0.2,0.1,0.2,0.1L88.7,40.1C88.7,40.1,88.7,40.1,88.7,40.1z"/>
	<path class="st0" d="M78.1,28.1l0.1,0.1c0.1,0,0.1,0,0.2,0L78.1,28.1z"/>
	<path class="st0" d="M82.6,31.7c-0.1-0.1-0.3,0.1-0.4,0.1c0.1,0,0.2,0,0.3,0C82.5,31.9,82.5,31.8,82.6,31.7z"/>
	<path class="st0" d="M88.7,38.4l0.1,0.1C88.8,38.4,88.7,38.4,88.7,38.4z"/>
	<path class="st0" d="M74.8,25.7c0,0,0-0.1,0-0.1C74.8,25.6,74.8,25.7,74.8,25.7z"/>
	<path class="st0" d="M21.6,6.5C21.7,6.5,21.7,6.5,21.6,6.5C21.6,6.5,21.6,6.5,21.6,6.5z"/>
	<path class="st0" d="M16.8,2.2L16.8,2.2c0.1,0,0.1-0.1,0.2-0.1L16.8,2.2z"/>
	<path class="st0" d="M48.7,14.4C48.7,14.4,48.7,14.4,48.7,14.4C48.9,14.4,48.8,14.4,48.7,14.4z"/>
	<path class="st0" d="M3.9,28.3c0.5-0.4-0.1,0.9,0.5,0.3C4.3,28.7,4.4,27.8,3.9,28.3z"/>
	<path class="st0" d="M88.6,39.9l-0.2-0.2C88.5,39.9,88.6,39.9,88.6,39.9z"/>
	<path class="st0" d="M4.4,28.6L4.4,28.6L4.4,28.6C4.5,28.6,4.5,28.6,4.4,28.6z"/>
	<path class="st0" d="M36.4,13.6c0,0,0.1,0.1,0.1,0.1C36.6,13.7,36.5,13.6,36.4,13.6z"/>
	<path class="st0" d="M45.5,14.5l-0.2-0.1C45.4,14.5,45.5,14.5,45.5,14.5z"/>
	<path class="st0" d="M31.7,14.2c-0.1,0-0.2,0-0.3,0c0,0,0,0,0.1,0C31.5,14.2,31.6,14.2,31.7,14.2z"/>
	<path class="st0" d="M26.8,14.9C26.9,14.9,26.9,14.9,26.8,14.9c0.1,0,0.2,0,0.3,0L26.8,14.9z"/>
	<path class="st0" d="M30.2,17.5c0-0.1,0.1-0.2,0.1-0.3C30.2,17.4,29.9,16.8,30.2,17.5z"/>
	<path class="st0" d="M88.8,40c-0.1,0-0.1,0-0.2,0L88.8,40C88.8,40,88.8,40,88.8,40z"/>
	<path class="st0" d="M31.7,16.4c-0.3,0-0.5,0-0.8,0C31.2,16.5,31.5,16.5,31.7,16.4z"/>
	<path class="st0" d="M21,45.9c0,0,0.1-0.1,0.1-0.1C21.1,45.8,21,45.9,21,45.9z"/>
	<path class="st0" d="M28.8,16.8c-0.1-0.1-0.3-0.1-0.4-0.1c0,0-0.1,0.1-0.1,0.1C28.4,16.8,28.6,16.8,28.8,16.8z"/>
	<path class="st0" d="M30.4,17.2L30.4,17.2L30.4,17.2z"/>
	<path class="st0" d="M27.5,13.3c0.4,0.6,0.5,0.1,0.7,0.1c0.5,0.7,0,0.5,0,0.8c0.4,0.4,0.8,0.6,1,0.9c0,0.1,0,0.1-0.1,0.1
		c0.3,0.2,0.5,0.5,0.7,0.9c0.2,0.4,0.4,0.8,0.7,1c0,0.1,0,0.1-0.1,0.1c0.1-0.2,0.3-0.3,0.4-0.3c0.1,0.3,0.5,0.5,0.3,0.7
		c-0.1-0.2-0.2-0.2-0.3-0.2l0.2,0.3c-0.2,0.4-0.3-0.4-0.5-0.3c0.4,0.5,0.9,1.2,1,1.7c-0.3,0.2-0.5-1.1-0.6-0.3L30.8,18
		c-0.3,0.7-0.1-0.5-0.5,0.3c0.2,1,0.5,1,0.8,2c0.2,0.2,0.2-0.2,0.5,0c0.7,1.3-0.5,1.3,0.1,2.2c0.3,0.2,0.7,0.3,0.6,1l-0.4-0.2
		c0.1,1,0.7,0.5,0.5,1.5c-0.2-0.2-0.2-0.8-0.2-0.6c-0.2,0.7,0.3,0.4,0.3,1l-0.3,0.1c0.1,0.5,0.2,1,0.3,1.6c0.1,0.6,0.2,1.1,0.2,1.7
		c-0.1-0.1-0.2-0.3-0.3,0c0.1,1.5-0.4,3.1-0.9,4.3c0.1,0.2,0.1,0.4,0.1,0.6c0,0.1-0.2,0.2-0.2,0c-0.3,0.5,0.2,0.1,0.2,0.4
		c-0.1,0.3-0.3,0.3-0.3,0.1c0,0.5-0.1,1.2-0.3,1.8c-0.2,0.7-0.5,1.3-0.9,1.7l0-0.2c-0.5,0.6,0.1,1.1-0.5,1.6l0-0.1
		c-1,1.4-2,3.1-3.2,3.7c0.1,0.5-1.3,1-1.1,1.5c-0.9,0.4-0.8,0.1-2,0.7c-0.3,0.2-0.3,0.6-0.6,0.9l-0.2-0.3c-0.1,0.2-0.3,0.4-0.4,0.5
		l-0.4-0.2l-0.3,0.2c0.2-0.1,0.4,0,0.4,0.1c-0.5,0.4-1.6,0.4-1.6,0.2c-0.4,0.2-0.9,0.4-1.4,0.6c0-0.1,0.2-0.2,0.4-0.4
		c-0.7,0.5-0.2-0.2-0.9,0.1c0.1,0.1,0,0.2,0,0.3c-0.2-0.1-0.5-0.1-0.8,0c-0.3,0-0.7,0-1,0.1l0.1-0.2c-1.1,0-2.3-0.1-3.5-0.4
		c0.4,0.2,0.2,0.6-0.2,0.5l0-0.4c-0.3,0.1,0.3,0.2-0.2,0.3c-0.4-0.2-0.2-0.5,0.1-0.5L12,46c0-0.1,0.1-0.1,0.2-0.2
		c-0.3,0.1-0.8-0.7-1.2-0.5l0-0.1c-1.1-0.5-1.6-0.8-2.5-1.4c-0.2,0.2-0.5-0.1-0.8-0.1c-0.5-0.6-1-1.3-1.5-2c-0.5-0.4-0.3,0-0.6-0.1
		c0.2-0.2-0.4-0.9,0.1-0.6c-0.6-0.9-0.8-1.1-1.4-2.3c0,0.2,0,0.3-0.1,0.3c-0.1-0.2-0.1-0.6,0-0.6l0,0.1c-0.2-0.3-0.3-0.7-0.3-1.2
		c0-0.4,0.1-0.9,0.1-1.3c0.2-0.8,0.4-1.5,0.3-2.2l0,0.1c0-0.4,0-0.9,0.1-1.3c0.2-0.6,0.1,0.4,0.4,0c0.1-1.5,0.9-2,1.2-3.2
		c0.5-0.3,1-0.9,1.3-1.6c0.5-0.7,0.9-1.4,1.5-1.7l-0.2-0.1c0.1-0.3,0.3-0.2,0.5-0.3c-0.1-0.1-0.3,0.1-0.3-0.1
		c1.7-2.1,4.4-3.4,6.9-4.5c0.9-0.4,0.1-1.1,1.5-1.3l-0.2,0.4c0.9-0.6,1.8-1,2.8-1.4c1-0.4,2-0.7,2.9-1.1c-0.1,0.1-0.1,0.2-0.3,0.3
		c0.5,0.1,1.5-0.4,1.5-0.6c0.3-0.1,0.1,0.2,0.3,0.2c0.5,0,1-0.6,1.3-0.4c0,0-0.1,0.1-0.2,0.1c0.2-0.2,1.3-0.3,1-0.5
		c0.8,0,1.4-0.4,2.1-0.3c0.3-0.4,1.3,0,1.4-0.5c0,0.5,1.4,0.2,1.8-0.1c-0.1,0.1,0.4,0.1,0.3,0.3c0.5,0,1-0.2,0.9-0.4
		c1.1,0.4,2-0.6,2.6,0.1c1.6-0.3,3.2-0.4,4.7-0.5c-0.1,0.4-1.6,0-1.6,0.5c0.7-0.1,1.3-0.2,1.8-0.3c0.6-0.1,1.1-0.1,1.8,0
		c0.4,0.1-0.2,0.2-0.3,0.2c0.7,0,1.4,0,2,0.1c0.7,0.1,1.3,0.2,1.9,0.1c0,0-0.2,0.1-0.3,0.1c0.2,0,0.6,0.1,0.6-0.1l-0.2,0
		c-0.4-0.3,1.1-0.5,1.1-0.6c-0.5,0.5,1.2,0.4,0.4,1c0.2,0,0.4-0.1,0.4-0.2c0.2,0.1,0.3,0.2,0,0.3c0.9,0,0.6-0.2,1.4-0.1
		c0,0.1-0.2,0.1-0.3,0.2c0.4-0.1,0.9-0.2,1.5,0c-0.1,0,0,0.1-0.2,0.1c1.1,0.2,2.1,0,3.3,0.4c-0.5,0.3,0.4,0.3,0.3,0.6l0.7,0.1
		l-0.2-0.3c0.6,0.2,1.2,0.1,1.6,0.3l-0.5,0l1.1,0.3L56,18.2c0.6,0,0.1-0.5,0.8-0.1c-0.2,0,0.6,0.2,0.8,0.5l0,0c0.3,0,0.7,0,1.1,0.2
		c0.1,0.2-0.2,0.4-0.2,0.5c0.4-0.2,1.4,0.4,1.8,0.2c-0.1,0-0.2,0.2-0.2,0.3l0.3-0.1c0.2,0.2,0.3,0.2,0.2,0.4c0.8,0.4-0.1-0.5,0.8,0
		c-0.1,0-0.1,0-0.2,0c0.9,0.5,1.9,0.6,2.7,1.1c0.1,0.5-0.8-0.3-0.6,0.2c1.2,0.5,2.7,0.8,3.8,1.4c-0.1,0-0.1-0.1-0.2-0.1
		c0.4-0.4,0.7,0.7,1.4,0.8c-0.2,0-0.3,0.2-0.3,0.1c0.7,0.5,1.7,0.7,2.9,1.3l-0.2,0c0.4,0.4,1.1,0.8,1.6,1.1c0.2,0,0.5,0.2,0.4-0.1
		c0.5,0.8,1.3,1.2,2,1.5c0.7,0.4,1.5,0.7,1.9,1.4c-0.2-0.1-0.4-0.2-0.3-0.1c0.4,0.2,0.8,0.4,1.1,0.7c0.1-0.2-0.1-0.2-0.2-0.5
		c0.2,0,0.6,0.1,0.8,0.3c-0.6-0.2-0.2,0.3-0.1,0.6c0-0.1,0.1-0.1,0.2-0.2c0.3,0.7,0.4-0.3,0.9,0.5L78.9,30c0.3,0.2,0.7,0.2,1,0.5
		c0,0.3-0.4-0.1-0.5,0c0.4,0.3,1.2,0.2,1.3,0.8C80.4,31.3,80.2,31,80,31c0.2,0.6,0.3,0.6,0.6,0.8l0,0l0.6,0.7L81,32.3
		c1-0.1,1.1,0.8,2.1,1c-0.9-0.3-0.3,0.1-0.5,0.3c0.1,0.2,0.3,0.5,0.2,0.5c0.5,0.1,0.4,0.6,1.1,0.8c0,0.1,0.3,0.3,0.1,0.4
		c0.4,0.3,0-0.2,0.1-0.3c0.8,0.4,1.1,1.7,2.3,2.2c0.9,0.6,1.2,0.6,2,1.2c0.1,0.3-0.4,0-0.4,0c0.3,0.5,0.5,0.8,1,1.1
		c-0.1,0-0.1,0.1-0.1,0.3c0.3,0.3,0.4,0,0.7,0.4c-0.1,0-0.4,0-0.6,0c0.4,0.3,0.8,0.5,1.2,0.8c0,0.2-0.4-0.1-0.6-0.1
		c0.4,0.4,1,1,1.3,1l-0.2-0.3c0.1,0.1-0.1,0.2-0.2,0.1c-0.5-0.2-0.4-0.6-0.3-0.7l0.3,0.2c0.2-0.7-1-1-1.4-1.6l0.5-0.1l-0.7-0.3
		c0-0.2,0.1-0.4,0.4-0.2c-0.2-0.5-0.4-0.2-0.5-0.7c0-0.1,0-0.1,0.1,0l-0.4-0.3c0.1,0,0.2-0.3,0.3,0c-0.4-0.8-1.2-0.8-1.2-1.3l0.1,0
		c-1-0.8-0.3,0.1-1.2-0.3l0.1-1L86,35.7c-0.1-0.1-0.2-0.3-0.1-0.3c-0.5-0.2,0,0.2-0.4,0.1c-0.2-0.6-1.3-1.1-1.1-1.5
		c-0.3,0,0.3,0.5-0.3,0.2c0.2-0.5-0.6-0.5-0.9-1c0.3-0.1,0.6,0.4,0.4-0.2c-0.6,0.1-0.8-0.8-1.2-1c-0.3,0.3-0.9-0.6-1.6-1
		c0.1-0.1-1-1.1-1.5-1.7l0.1,0c-0.3,0.2-0.9-0.3-1.4-0.6c0.1-0.2,0.3-0.2,0.6-0.1l-0.4-0.3c-0.2,0-0.3,0-0.6-0.2l0.3-0.1
		c-0.6-0.4-1.3-0.6-2-1.2c-0.2,0.2,0.2,1-0.7,0.6c0.1-0.1,0.2-0.3,0.4-0.3c-0.1,0-0.3-0.1-0.4-0.2l0.4,0c-0.3-0.3-0.3,0-0.5-0.2
		c0.1-0.2-0.1-0.3,0-0.4c0.1,0,0.2,0.2,0.3,0.2c-0.3-0.2-0.6-0.6-0.6-0.8c0,0.1-0.1,0.2-0.4,0.1c-0.6-0.4-0.1-0.3-0.4-0.6
		c-0.2,0-0.5-0.3-0.7-0.1c-0.2-0.1-0.1-0.2-0.2-0.4c-0.4-0.1-1.5-0.9-1.3-0.4l0.1,0.1c0,0,0,0-0.1,0l0,0l0,0c-1.1-0.4-2-1.4-3.1-1.8
		l0-0.1c-0.7-0.2-1.4-0.7-1.9-0.7c-0.2-0.1-0.4-0.4-0.2-0.4c-0.5-0.2-0.6-0.1-1.2-0.6c0.6,0.1-0.1-0.2,0.6,0.1
		c-0.6-0.4-0.7-0.6-1.5-0.7c0.3-0.1-0.3-0.5-0.7-0.6c0.1,0.1,0.3,0.2,0.4,0.4c-0.3-0.1-0.6-0.3-0.9-0.4l0.3-0.2
		c-1.2-0.9-2.6-0.4-3.4-1.4c-0.4,0.1,0.7,0.4,0.3,0.6c-0.6-0.3-1.1-0.9-1.3-1c-0.8-0.5-1,0.2-1.8-0.3c0.1,0.2,0.1,0.5-0.6,0.4
		c-0.6-0.2-0.6-0.7-0.2-0.7c0.2,0,0.2,0.1,0.2,0.1c0.2,0,0.5,0,0.3-0.1L56.9,17c-0.3-0.2-1.2-0.5-0.9-0.6c-0.5,0-0.3,0.1,0.1,0.3
		c-0.8-0.4-1.3-0.4-2.1-0.7c0.1,0.1,0.2,0.3,0.1,0.2c-1.2-0.5-0.6,0.1-1.5-0.1c-0.4-0.3,0.3-0.4-0.6-0.4c-0.5-0.2,0-0.3,0.2-0.4
		c-0.8,0-1.4-0.5-1.9-0.6c0.1,0,0.3,0,0.4,0c-0.3,0-0.5,0-0.7-0.1l0.2,0.3c-0.2-0.1-0.4-0.1-0.4-0.2c-0.3,0.1,0.1,0.4-0.4,0.5
		c-0.3-0.2-1-0.1-1.1-0.4c1,0.3-0.1-0.3,0.8-0.2c-0.2,0-0.4,0-0.6-0.1c0,0,0-0.1,0.1-0.1c-0.9-0.5-0.5,0.3-1.5,0.1
		c0.2-0.2-0.2-0.4-0.4-0.4c0.4,0.1,0.2,0.3-0.2,0.4c-0.6-0.2-0.7,0-1.1,0l0.4,0.1c-0.2,0.2-0.5,0.1-0.9,0.1c0-0.1,0.4,0,0.3-0.1
		c-0.5,0.3-1.1-0.5-1.8-0.3c-0.3-0.1,0-0.3-0.3-0.4c-0.8,0.2-0.8-0.3-1.7-0.2c0.2,0.3,0.3,0.2-0.3,0.4l1.4-0.1l-0.9,0.3
		c0.4,0,0.9-0.1,1.1,0c-0.4,0.2-0.4,0.1-0.2,0.3c-0.5-0.4-1.1,0.1-1.8-0.2l0.1-0.6c-1-0.3-1.8,0.2-3,0.1l0.4,0.1
		c-0.2,0.2-0.8,0-1.2,0.1c0-0.2-0.2-0.3-0.4-0.4c0,0.1-0.9,0-1,0.4l-0.6-0.2c-1-0.1-1.1,0.6-2.1,0.6c0.3-0.2-0.2-0.3,0.5-0.5
		c-0.3,0-0.6,0-0.6,0.1c-0.2-0.1-0.9,0.3-1.2,0.2c-0.1,0.1-0.2,0.3-0.5,0.3c0,0,0-0.1,0-0.1c0,0.1-0.6,0.2-0.2,0.4
		c-1.1-0.5-2.8,0.4-3.8,0.1c-0.7,0.2-1.5,0.4-2.2,0.6c0-0.1,0-0.1,0.1-0.1c-0.9,0-0.4,0.7-1.4,0.7c-0.6-0.2,0.5-0.3,0.1-0.3
		c-0.3-0.6-1.2,0.4-1.9,0.2l0.2-0.1c-0.6,0-1.2,0.6-2,0.9c0,0,0-0.1,0-0.1c-0.4,0.5-1.5,1-2.2,1.4c0.1-0.3,0.3-0.3,0.1-0.5
		c-0.3,0.2,0.3,0.3-0.4,0.7c-0.3,0-0.8,0.1-1-0.1l0.6-0.3c-0.5-0.2-0.8,0.4-1.2,0.5l0-0.2c-1,0.5-0.8,0.9-1.8,1.4l0.2,0
		c-0.4,0.6-0.6,0.1-1,0.6l-0.4-0.2c-0.3,0.3-1.1,1.1-1.6,1.6c0.1-0.2,0.3-0.5,0.5-0.8c0.2-0.3,0.5-0.5,0.7-0.7
		C11.9,20.4,11,21,11,21.3c0.1-0.1,0.2-0.3,0.4-0.4c-0.2,0.6-0.7,1.1-1.4,1.6c-0.2-0.4-0.6,0-1.1,0.4c-0.5,0.4-1.1,0.9-1.5,0.9
		c-0.4,0.6-1,1.1-1.5,1.7c-0.3,0.3-0.5,0.6-0.8,0.9c-0.2,0.3-0.5,0.7-0.7,1.1c0.8-0.2-0.3,0.5,0.3,0.7c-0.2,0.4-0.2,0.5-0.3,0.5
		l-0.9,0.9c-0.3,0.2,0-0.4-0.1-0.4c-0.4,0.8-0.4,0.2-0.8,0.7c0.3,0,0.2,0.4-0.1,0.9l0.5-0.6c-0.2,1.3-0.9,0.8-1,2.2L2,31.8
		c-0.1,0.7-0.7,2.5-0.2,3.2c-0.1,0.1-0.3,0.3-0.3,0c0,0.4-0.1,0.9,0,1.3c0.1,0.4,0.2,0.9,0.3,1.3c0.3,0.8,0.5,1.6,0.6,2.2l-0.2-0.1
		c0.2,0.3,0.5,0.4,0.5,0.8c-0.1,0-0.2-0.1-0.1,0.1c0.1,0.1,0.6,0.6,0.7,1L3,41.4c0.3,0.8,0.7,1.2,1.2,1.6c0.4,0.4,1,0.6,1.4,1.1
		c-0.4,0.3,0.5,1.2,0.9,1.7l-0.1,0c1.4,1.2,2.8,1.5,4.3,2c0.2,0.2,0.5,0.4,0.9,0.6c0.4,0.2,0.8,0.4,1.3,0.5c0.9,0.3,2,0.4,2.8,0.6
		c-0.3-0.1,0.1-0.3,0.4-0.4c0.4,0.1,1.1-0.3,1,0.1l-0.1,0c0.3,0.4,1.1,0.2,1.8,0.1l0-0.5c0.9,0.2,1.9-0.1,2.8-0.6
		c0.5-0.2,0.8-0.5,1.2-0.6c0.4-0.2,0.7-0.2,1-0.2c0.3-0.3,0.7-0.6,1-0.9l0.1,0.2c0.9-0.6,1.4-0.9,2.4-1.8l-0.1,0.3
		c0.6-0.5,0.1-1.3,0.6-1.7l0.5,0.1c0.9-1,2-1.8,2.4-3.1c0,0.1,0.1,0.2,0,0.3c0.2-0.3,0.6-0.7,0.8-1.1c0.2-0.4,0.4-0.8,0-0.8
		c0.2,0.1,0.3-0.2,0.5-0.6c0.1-0.4,0.2-0.9,0.3-1.3l0.2,0.2c-0.1-0.7-0.2-0.7,0-1.5c0.1-0.2,0.3-0.1,0.1,0.1
		c0.4-0.6-0.1-0.6,0.3-1.2l0.1,0.3c0.2-0.6,0.1-0.6,0-1c0-0.4,0.4-1.2,0.6-1.2c-0.1-0.1-0.2-0.5-0.1-0.9c0.1,0,0.1,0.1,0.2,0.2
		c0.2-0.5,0.2-1,0.2-1.3c0-0.4-0.1-0.7,0.1-1.1c0.1,0,0.1-0.1,0.2-0.1c-0.1,0.9-0.2,1.6-0.2,1.5c0.3,0,0.4-0.7,0.7-0.1
		c-0.1-0.6-0.5-1.6-0.3-2.3c0,0,0.1-0.1,0.1-0.1l0,0.1c0-0.2,0-0.3,0-0.4c0-0.2,0.1-0.4,0.1-0.6c0.2-0.1,0.1-0.8,0.1-1.2
		c-0.3,0-0.2-0.4-0.5,0c0-0.1,0,0.1,0,0.3c0,0.1,0,0.1,0,0.2l0,0c0,0.2,0,0.5,0,0.9c-0.1-0.3-0.3-0.6-0.1-1
		c-0.2-0.2-0.4-0.4-0.5-0.5c0.4-0.5,0.5-1.4,0.7-1.6c-0.1-0.5-0.2-1.2-0.4-1.7c-0.2-0.6-0.4-1.1-0.7-1.3c-0.1-0.3,0.1-0.4,0.1-0.5
		c0.1,0.2,0.1,0.4,0.2,0.4c-0.3-0.6-0.5-1.8-0.9-1.8c-0.1-0.8,0.5,0.3,0.1-0.7l0.2,0.1c-0.1-1.1-0.5-1.8-1.1-2.5
		c-0.3-0.4-0.5-0.7-0.8-1.1c-0.2-0.4-0.4-0.9-0.5-1.5c0,0.2,0.1,0.2,0,0.3c-1-2.5-3.1-4.4-4.5-6.6c-0.5-0.6-0.7-0.5-1.1-0.7L25,6.7
		c-0.3-0.1-0.5-0.2-0.8-0.3c-1-0.5-1-1.8-2.4-2.2l0,0.3c-0.4-0.3-1.4-0.8-1.2-0.9c-0.1,0-0.2,0.1-0.4-0.1l0.1-0.1L19.1,3
		c-0.8-0.5,0.4-0.5-0.8-1.1c-0.5-0.2-1.5-0.2-1.4,0c0.2,0.1,0.4,0.3,0.4,0.5l-0.5-0.1c-0.3,0.4-0.7,0.7,0.1,1.4l0.8,0.1L17.9,4
		l-0.6-0.2C17.6,4.1,17.8,4,18.1,4c0,0.1,0.1,0.2,0.2,0.4l0.9,0c0,0.2-0.5,0.2-0.1,0.5c0.4,0-0.1-0.5,0.5-0.4c0.2,0.4,0,0.5,0.5,0.5
		c0,0.1-0.1,0.2-0.3,0.1c0.4,0,0.9,0.5,1.2,0.4c0.2,0.4,1.1,0.7,0.8,1c0.2,0,0.7,0.1,1,0.4c-0.8,0,1,0.8,0.5,1.2
		c0.6,0,1.4,1,2.1,1.4c-0.1,0-0.2,0-0.2-0.1c0.3,0.4,0.3,0.6,0.4,0.9c0.3-0.2,0.9,0.3,1.3,0.4c0,0.7-0.6,0-0.7,0.4
		c0.2-0.2,0.8,0.6,0.9,0.3c0.1,0.5,0.1,0.4,0,0.7c0.4-0.2,0.3,0.3,0.8,0.4c0.1,0.7-0.3,0.4,0.2,0.9C28,13.7,27.5,13.3,27.5,13.3z
		 M32.6,28.6L32.6,28.6c0-0.1,0-0.3,0-0.3C32.6,28.3,32.6,28.4,32.6,28.6z M32.5,30c0-0.2,0-0.4,0.1-0.6c0.1,0,0.2,0,0.2,0.2
		C32.7,29.5,32.6,29.8,32.5,30z M34.6,27c0,0.2,0,0.3-0.1,0.4c0-0.1,0-0.2,0-0.4c0,0,0,0,0,0C34.5,27,34.5,27,34.6,27z"/>
	<path class="st0" d="M34.2,26.6C34.2,26.6,34.2,26.6,34.2,26.6C34.2,26.6,34.1,26.6,34.2,26.6l0,0.1C34.2,26.7,34.2,26.7,34.2,26.6
		z"/>
	<path class="st0" d="M71.9,24.3L71.9,24.3C71.9,24.4,71.9,24.4,71.9,24.3C71.9,24.4,71.9,24.4,71.9,24.3z"/>
	<polygon class="st0" points="22.3,45.1 22.3,45.2 22.4,45.1 	"/>
	<path class="st0" d="M77.9,29.6c0,0,0,0.1,0,0.1C78,29.7,77.9,29.7,77.9,29.6z"/>
	<path class="st0" d="M80.5,31.8l0.3,0.4C80.7,32,80.6,31.9,80.5,31.8z"/>
	<path class="st0" d="M82.4,33.6c0.1,0,0.1,0,0.1-0.1l0,0L82.4,33.6z"/>
	<path class="st0" d="M45.4,16.4c0,0-0.1,0-0.1,0C45.1,16.4,45.3,16.4,45.4,16.4z"/>
	<path class="st0" d="M57.6,18.6c-0.1,0-0.3,0-0.4,0C57.4,18.7,57.5,18.7,57.6,18.6z"/>
	<polygon class="st0" points="31.8,16.4 31.8,16.4 31.7,16.4 	"/>
	<path class="st0" d="M56.6,18.4c0.2,0.1,0.4,0.2,0.5,0.2C57,18.5,56.8,18.4,56.6,18.4z"/>
	<path class="st0" d="M90.2,41.9l0.1,0.1c0,0,0,0,0,0L90.2,41.9z"/>
	<path class="st0" d="M90.3,41.9l0.1,0.1C90.4,42,90.4,41.9,90.3,41.9z"/>
	<path class="st0" d="M90.7,42.2L90.4,42C90.5,42.1,90.6,42.2,90.7,42.2z"/>
	<path class="st0" d="M88,39.2l-0.1,0C87.9,39.2,88,39.2,88,39.2z"/>
	<path class="st0" d="M87.3,38.4c0.2,0.2,0.3,0.6,0.6,0.8l0.1,0C87.7,39.2,87.6,38.5,87.3,38.4z"/>
	<path class="st0" d="M85,34.4l0.6,0.7c0-0.2-0.1-0.4,0.2-0.2C85.3,33.9,85.9,35.2,85,34.4z"/>
	<path class="st0" d="M83.1,32.4c0.4,0.3,0.1-0.1,0.2-0.2C83,32.1,82.9,32.1,83.1,32.4z"/>
	<path class="st0" d="M66.5,21.1l0.2-0.2C66.3,20.8,66.6,21,66.5,21.1z"/>
	<polygon class="st0" points="62.5,20.7 62.8,21 63,20.9 	"/>
	<polygon class="st0" points="61.1,18.2 61.3,18.2 60.7,18.1 	"/>
	<path class="st0" d="M27.7,14.5l0.2,0.3C28.1,14.7,28.1,14.3,27.7,14.5z"/>
	<path class="st0" d="M13.8,19.5c-0.2-0.1-0.6,0-0.8,0.3C13.4,19.6,13.7,19.6,13.8,19.5z"/>
	<polygon class="st0" points="19.6,48.8 19.3,49 19.9,48.8 	"/>
	<path class="st0" d="M75.8,36.6c0,0.1,0,0.3,0.1,0.2L75.8,36.6L75.8,36.6z"/>
	<path class="st0" d="M76.3,37.2c0.1-0.2,0.1-0.4,0.1-0.7c-0.1,0.3-0.1,0.2-0.1,0.6c-0.1,0-0.1-0.1-0.1-0.2c0,0.1-0.1-0.1-0.1,0.1
		c0.1,0.3,0.2,0.3,0.3,0C76.3,37.1,76.3,37.2,76.3,37.2z"/>
	<path class="st0" d="M81,38.8L81,38.8C81,38.7,81,38.7,81,38.8z"/>
	<path class="st0" d="M83.7,40.3C83.7,40.3,83.7,40.4,83.7,40.3C83.7,40.4,83.7,40.4,83.7,40.3z"/>
	<path class="st0" d="M84,40.9C84,40.9,84,40.9,84,40.9C84,40.9,84,40.9,84,40.9z"/>
	<path class="st0" d="M81,38.8l0,0.1C81.1,38.8,81.1,38.8,81,38.8z"/>
	<path class="st0" d="M77,36.4C77,36.4,77,36.5,77,36.4C77,36.5,77,36.5,77,36.4L77,36.4z"/>
	<path class="st0" d="M79.7,38.5L79.7,38.5c0,0-0.1,0.1-0.1,0.1L79.7,38.5z"/>
	<path class="st0" d="M78.7,38.3c0,0,0.1-0.3,0.1-0.4c0,0.1-0.1,0.2-0.1,0.2C78.7,38.2,78.7,38.2,78.7,38.3z"/>
	<path class="st0" d="M77.2,37.6L77.2,37.6L77.2,37.6z"/>
	<path class="st0" d="M80.4,38.8C80.3,38.9,80.3,38.9,80.4,38.8C80.3,38.9,80.3,38.9,80.4,38.8z"/>
	<path class="st0" d="M91.5,28.1C91.6,28.1,91.6,28.1,91.5,28.1C91.6,28.1,91.6,28.1,91.5,28.1z"/>
	<polygon class="st0" points="92.7,26.6 92.8,26.6 92.9,26.6 	"/>
	<path class="st0" d="M84.6,41.7L84.6,41.7C84.6,41.7,84.6,41.7,84.6,41.7z"/>
	<path class="st0" d="M93.9,44.1c-0.3,0-0.2-0.4-0.5-0.4C93.5,43.8,93.7,44.2,93.9,44.1z"/>
	<path class="st0" d="M77,36.4C77,36.4,77.1,36.4,77,36.4C77.1,36.4,77,36.4,77,36.4z"/>
	<path class="st0" d="M93.4,43.7L93.4,43.7L93.4,43.7C93.4,43.7,93.4,43.7,93.4,43.7z"/>
	<path class="st0" d="M86.6,42.8c0,0,0-0.1,0-0.1C86.7,42.7,86.6,42.7,86.6,42.8z"/>
	<path class="st0" d="M85.4,41.6L85.4,41.6C85.4,41.6,85.4,41.6,85.4,41.6z"/>
	<path class="st0" d="M87.6,43C87.6,43,87.6,43,87.6,43C87.6,43,87.6,43,87.6,43C87.6,43,87.6,43,87.6,43z"/>
	<path class="st0" d="M88.4,43.5C88.4,43.4,88.4,43.4,88.4,43.5L88.4,43.5L88.4,43.5z"/>
	<path class="st0" d="M92,30.8c0.1,0,0.2,0,0.2-0.1C92.1,30.7,92,30.6,92,30.8z"/>
	<path class="st0" d="M77,36.6c0-0.1,0-0.1,0-0.1c0,0,0,0,0,0C77,36.5,77,36.5,77,36.6z"/>
	<path class="st0" d="M88.8,41.1l0.1,0.1C88.9,41.2,88.9,41.1,88.8,41.1z"/>
	<path class="st0" d="M92.3,37.2L92.3,37.2C92.2,37.2,92.2,37.2,92.3,37.2z"/>
	<path class="st0" d="M89.3,41.4c0,0.1,0,0.2,0,0.2c0,0,0,0,0.1-0.1L89.3,41.4z"/>
	<path class="st0" d="M92.3,30.7L92.3,30.7L92.3,30.7z"/>
	<path class="st0" d="M91.5,29.8c0,0.1,0.4,0,0.6,0c0.1,0.2-0.3,0.1-0.4,0.2c0.1,0.1,0.5,0.1,0.4,0.2c-0.1,0-0.1,0-0.2,0
		c0.3,0.1,0,0.3,0.4,0.4c0,0-0.1,0-0.1,0c0.2,0,0.4-0.1,0.5-0.1c0,0.1,0.2,0.1,0,0.1c0,0-0.1,0-0.2,0l0.1,0.1
		c-0.3,0.1-0.1-0.1-0.4-0.1c0.1,0.1,0.4,0.2,0.3,0.3c-0.3,0-0.1-0.2-0.4-0.1l0.1-0.2c-0.5,0.2,0-0.1-0.5,0.1
		c-0.1,0.2,0.2,0.2,0.1,0.4c0.2,0,0.3,0,0.5,0c0.4,0.3-0.8,0.3-0.4,0.5c0.2,0,0.7,0,0.4,0.2l-0.4,0c0,0.2,0.6,0.1,0.3,0.3
		c-0.2,0-0.1-0.1-0.2-0.1c-0.3,0.1,0.2,0.1,0.2,0.2l-0.3,0c0.1,0.2,0.3,0.4,0.4,0.6c-0.1,0-0.2,0-0.3,0c0.2,0.3,0,0.6-0.2,0.9
		l0.3,0.1c0,0-0.1,0-0.2,0c-0.1,0.1,0.2,0,0.3,0c0,0.1-0.2,0.1-0.3,0c0.3,0.2,0.5,0.5,0.2,0.7l-0.1,0c-0.1,0.2,0.6,0.2,0.3,0.3
		l-0.1,0c-0.1,0.3,0.1,0.7-0.3,1c0.4,0.1-0.2,0.3,0.4,0.4c-0.3,0.2-0.4,0.1-0.6,0.4c0,0.1,0.4,0.1,0.4,0.2l-0.3,0l0.3,0.1l-0.4,0.1
		l0.1,0.1c0,0,0.1-0.1,0.2-0.1c0.1,0.1-0.2,0.3-0.4,0.3l0.3,0.3c-0.1,0-0.2-0.1-0.2-0.1c0.3,0.2-0.3,0,0,0.2c0.1,0,0.2,0,0.2,0
		c-0.2,0.1-0.2,0.2-0.1,0.4l-0.2,0c-0.1,0.2,0.1,0.5,0.1,0.7c0.1-0.1,0.5,0,0.5,0l-0.3,0c0.2,0.1,0.1-0.1,0.4,0c0,0.1-0.4,0-0.5,0
		l0.1,0.1c-0.1,0-0.1,0-0.3,0c0.2,0.1-0.3,0.2,0,0.3l-0.1,0c0,0.3,0.1,0.4,0.1,0.6c0.3,0,0.2,0.1,0.4,0.2c-0.1,0.1-0.3,0.3-0.3,0.5
		c0.1,0.1,0.2,0.1,0.4,0.1c-0.3,0-0.2,0.2-0.4,0.1c0,0.2,0,0.3,0.2,0.6c0.1,0,0.2,0,0.2,0c0,0.1-0.1,0.1-0.2,0.1l0,0
		c0.3,0.4-0.8,0.6-0.3,0.9l0,0c0.1,0.1,0.2,0.2,0.2,0.2c0,0-0.2-0.1-0.3-0.1c0.2,0.1,0.2,0.1,0.1,0.1c0,0-0.1,0,0,0.1
		c-0.4-0.2-0.3-0.2-0.3-0.1c0,0.1,0.1,0.2-0.1-0.1l0.1,0.2c0.1,0.2-0.1-0.1-0.1-0.1c0.1,0.2,0.1,0.2,0.2,0.3c0,0.2-0.1,0.1-0.2-0.1
		c-0.1-0.1-0.1-0.3-0.1-0.4c0-0.1-0.3,0.9-0.3,0.4c0.1-0.1,0.1-0.2,0.2-0.3c-0.5,0.2-0.6-0.4-1.1-0.3c0.1-0.1,0.1-0.1,0.1-0.1
		c0.1-0.2-0.2-0.2-0.3,0c0,0,0.1-0.2,0.1-0.3c0-0.2-0.3,0.2-0.2-0.1c0,0,0.1-0.1,0.1-0.1c-0.1,0.1-0.2-0.2-0.3,0.1
		c-0.1-0.2-0.3,0-0.3-0.2c-0.2,0.2-0.1-0.3-0.4,0.1c0.3-0.4,0-0.4-0.2-0.3c0.1-0.1,0-0.2,0.1-0.3c-0.1-0.1-0.2,0-0.3,0.2
		c0.1-0.6-0.6,0.1-0.3-0.5c-0.4,0-0.7,0-1-0.1c0.3-0.4,0.3,0.1,0.5-0.3c-0.3,0-0.7,0.2-0.8,0c0-0.1,0.1-0.1,0.2-0.2
		c-0.3,0-0.4-0.3-0.8-0.2c0,0,0.1-0.1,0.1-0.1c0,0-0.1-0.1-0.2,0.1l0.1,0c-0.1,0.3-0.5,0.4-0.6,0.6c0.4-0.5-0.1-0.3,0.4-0.8
		c0,0-0.1,0.1-0.2,0.2c0-0.1,0-0.1,0.1-0.2c-0.2,0-0.3,0.2-0.4,0.1c0.1-0.1,0.1-0.1,0.2-0.2c-0.2,0.1-0.3,0.2-0.4,0.1
		c0,0,0.1-0.1,0.1-0.1c-0.2-0.1-0.6,0.2-0.7-0.1c0.3-0.3,0-0.2,0.2-0.5l-0.2,0l0,0.2c-0.1-0.1-0.3,0.1-0.4,0l0.2-0.1l-0.2,0l0,0.2
		c-0.2,0.1-0.2,0.4-0.3,0.2c0,0-0.1-0.1,0-0.3l0,0c-0.1,0.1-0.2,0.2-0.3,0c0-0.1,0.2-0.4,0.2-0.4c-0.2,0.2-0.3-0.1-0.5,0.2
		c0.1-0.1,0.2-0.2,0.2-0.3L83.5,39c0-0.1,0-0.1,0.1-0.3c-0.1-0.1-0.2,0.4-0.3,0.2c0,0,0,0,0.1-0.1c-0.1-0.2-0.4,0-0.5-0.2
		c0.1-0.4,0.2,0,0.3-0.3c-0.3-0.1-0.7,0.1-0.9,0l0,0.1c-0.3,0.5-0.1-0.3-0.3-0.1c0,0,0.2-0.2,0.1-0.2c-0.1-0.2-0.4,0-0.7,0l0.1-0.1
		c0-0.2-0.2-0.2-0.3-0.3c-0.1,0.1-0.1,0.1-0.2,0.3c0-0.8-0.7,0.1-0.8-0.6c0,0,0.1-0.1,0.1-0.1l-0.3,0c-0.1,0.2,0,0.1,0,0.3
		c-0.1,0.1-0.2,0.2-0.2,0.2c0.2-0.1,0.1-0.4,0.1-0.5c0,0.1-0.1,0.1-0.1,0.2c0-0.4-0.2,0.4-0.3,0.1l0-0.1c-0.1,0-0.2,0.2-0.2,0.1
		c0-0.3,0.1-0.1,0.2-0.3c-0.1,0-0.3,0.4-0.3,0.1c0.1-0.1,0.1,0,0.2-0.1c0-0.3,0-0.3-0.1-0.3l0,0l-0.1-0.2l0,0.1
		c-0.3,0.6-0.3,0.1-0.6,0.5c0.3-0.4,0.1-0.2,0.2-0.5c0-0.1-0.1-0.2,0-0.3c-0.1,0.2-0.1-0.2-0.3,0.1c0-0.1-0.1,0,0-0.3
		c-0.1,0.1,0,0.2,0,0.3c-0.2,0.3-0.3-0.5-0.7,0c-0.2,0.2-0.3,0.5-0.5,0.6c-0.1-0.2,0.1-0.3,0.1-0.3c-0.1-0.2-0.2-0.1-0.3,0
		c0-0.1,0-0.2,0-0.3c-0.1,0-0.1,0.4-0.2,0.2c0-0.1,0-0.3,0.1-0.4c-0.1,0.1-0.2,0.3-0.3,0.4c0-0.2,0.1-0.3,0.1-0.4
		c-0.1,0.1-0.3,0.2-0.3,0.4l0.1,0.1c0,0,0-0.2,0-0.3c0.1-0.2,0.1,0.1,0.1,0.2L76.6,37c0.1,0.6,0.3-0.1,0.4-0.1l-0.1,0.4l0.2-0.3
		c0,0.1,0,0.3,0,0.4c0.1,0.2,0.1-0.1,0.2,0.1c0,0,0,0.1,0,0.1l0.1-0.1c0,0.1,0,0.3-0.1,0.2c0.1,0.3,0.3-0.3,0.3,0l0,0
		c0.2-0.1,0.1-0.3,0.3-0.6l0,0.8l0.1-0.3c0,0,0.1,0,0,0.2c0.1-0.2,0-0.1,0.1-0.3c0.1,0.3,0.3-0.1,0.3,0.4c0.1-0.2-0.1-0.2,0.1-0.3
		c-0.1,0.5,0.2-0.1,0.2,0.2c-0.1,0.3-0.2,0.1-0.1,0.4c0.2-0.4,0.2,0.1,0.3,0.1c0.1-0.3,0.2-0.1,0.4-0.2c0,0.1,0.2,0.3,0.3,0.4l0,0.1
		c0.1-0.3,0.2-0.2,0.4-0.3c-0.1,0.2-0.1,0.3-0.2,0.4l0.1,0c0.1-0.1,0.1-0.2,0.2-0.2l-0.1,0.3c0.1,0,0.3-0.2,0.4,0
		c0.1-0.2,0.1-0.7,0.3-0.8c0,0.1-0.1,0.4-0.2,0.4c0,0,0.1-0.1,0.1,0l-0.1,0.2c0,0.1,0.1-0.2,0.2-0.1c-0.1,0.2,0,0.1-0.1,0.3
		c0,0,0-0.1-0.1,0c0.1,0.1,0.1,0.2,0.1,0.3c0-0.1,0.1-0.2,0.2-0.3c0.1,0,0,0.2,0,0.4c0.1-0.1,0.1,0,0.2-0.2c0,0,0,0.1,0,0.2
		c0.1-0.1,0.3,0.1,0.4-0.2l0,0c0,0,0,0,0,0l0,0l0,0c0.3-0.2,0.3,0.3,0.6,0.3l0,0.1c0.2,0,0.3,0.1,0.5-0.1c0,0,0,0.2-0.1,0.3
		c0.1,0,0.2-0.1,0.2,0.1c-0.2,0.1,0,0.2-0.1,0.1c0.1,0.1,0,0.3,0.3,0.1c-0.2,0.2-0.1,0.3,0,0.3l0-0.2c0.1,0,0.1,0,0.2,0.1L82.4,40
		c0,0.5,0.7-0.4,0.6,0.3c0.2-0.2,0-0.2,0.1-0.4c0.1,0.1,0,0.6,0,0.6c0.1,0.2,0.4-0.3,0.5-0.2c0-0.1,0.2-0.4,0.3-0.4
		c0.1,0.1-0.1,0.5-0.2,0.6c0,0,0,0,0-0.1c-0.1,0-0.1,0-0.1,0.2l0.1-0.1c0,0.1,0.1,0.2,0,0.4c0.1-0.1,0.1-0.1,0.1-0.2
		c0,0.2,0.2,0.1,0.3,0.3c0-0.1,0.1-0.2,0.1-0.2c0.1,0.2,0.2-0.1,0.4-0.1c0,0.2-0.3,0.4,0,0.3c0,0.2-0.1,0.3-0.2,0.3
		c0.2-0.1,0.2,0.3,0.2,0.3l-0.1,0c0.1,0,0.1,0,0.1,0l0.1-0.2c0,0.1,0,0.1,0,0.2c0.1-0.1,0.2-0.4,0.4-0.5c0,0.1,0.2,0,0.1,0.3
		c-0.1-0.2-0.1,0.3-0.3,0.2c0,0,0.1,0,0.1,0.1c0,0,0,0.1-0.1,0.1c0,0.3,0.3-0.3,0.4-0.2c-0.1,0.1-0.1,0.3-0.1,0.3
		c-0.1,0,0.1-0.3,0.3-0.3c0,0.2,0.2,0,0.2,0l0-0.1c0.1-0.1,0.2-0.1,0.3-0.1c-0.1,0.1-0.1,0-0.1,0.1c0.2-0.2,0,0.4,0.2,0.3
		c0,0.1-0.2,0.3-0.2,0.4c0.2-0.1,0,0.3,0.2,0.2c0.1-0.2,0.1-0.2,0.3-0.3l-0.3,0l0.3-0.2c-0.1,0-0.2,0-0.2,0c0.2-0.1,0.1-0.1,0.2-0.3
		c-0.1,0.4,0.3-0.1,0.3,0.2L86,42.3c0,0.3,0.4-0.1,0.6,0.2l0-0.1c0.2-0.2,0.1,0.1,0.3,0c-0.1,0.2-0.1,0.2-0.2,0.4
		c0.1-0.1,0.1,0.1,0.4-0.2L87,42.8c0.1,0.2,0.5-0.4,0.6-0.2c-0.2,0.1-0.2,0.3-0.4,0.4c0.1,0,0.1,0.1,0.2,0c0,0.1,0.3-0.1,0.2,0.1
		c0.1-0.1,0.2-0.2,0.2-0.2c0,0-0.1,0.1-0.1,0.1c0.1-0.1,0.2-0.1,0.2-0.3c-0.2,0.6,0.5,0.2,0.3,0.8c0.2,0,0.3,0.1,0.4,0.1
		c0,0-0.1,0.1-0.1,0.1c0.1,0.2,0.4-0.4,0.4-0.2c-0.1,0.3-0.2,0.1-0.2,0.2c-0.3,0.6,0.2,0,0.2,0.4l0,0c0,0.2,0.3-0.1,0.5,0
		c0,0,0,0,0,0.1c0.3-0.2,0.5-0.2,0.7-0.2c-0.2,0.2-0.1,0.1-0.2,0.3c0.1,0,0.2-0.4,0.3-0.4c0,0.1,0,0.3-0.1,0.6l-0.1-0.1
		c-0.1,0.4,0.2,0.1,0.2,0.2l-0.1,0.1c0.3,0.1,0.4-0.3,0.7-0.2l0-0.1c0.2-0.3,0.1,0.3,0.3,0l0,0.4c0.1,0,0.3-0.3,0.5-0.3
		c0,0.3-0.2,0.4-0.4,0.5c0.1,0.1,0.4,0.1,0.4-0.1c0,0-0.1,0.1-0.1,0.1c0.1-0.3,0.2-0.4,0.4-0.4c0.2,0.8,0.5,0.2,0.9,0.6
		c0.2-0.4,0.7-0.4,0.9-0.9c-0.6-0.2,0-0.1-0.5-0.5c0-0.1,0-0.1,0-0.1c0.1,0,0.3-0.1,0.4-0.1c0.2,0,0.1,0.2,0.2,0.2
		c0.1-0.2,0.3,0,0.5-0.1c-0.2-0.1-0.3-0.2-0.2-0.4c-0.1,0-0.2,0.1-0.3,0.1c-0.3-0.5,0.5-0.2,0.3-0.7l0.2,0.2c0-0.2,0-0.3-0.1-0.4
		c0-0.1-0.1-0.2-0.3-0.3c0.1,0,0.2,0,0.3,0c0.1-0.3-0.5-0.7-0.1-0.9l0.1,0c0-0.1-0.3-0.1-0.1-0.2c0.1,0,0.1,0,0.2,0
		c0,0-0.2-0.2-0.2-0.2l0.2,0.1c0.2-0.3-0.4-0.5-0.5-0.7c0.4,0,0.6-0.2,0.7-0.3l0.1,0c0.1-0.3-0.3-0.6-0.5-0.9
		c0.5-0.2,0.2-0.6,0.5-0.9c-0.1,0-0.3,0-0.4-0.1c0.1-0.1-0.3-0.2,0.1-0.2l0,0c0.4,0,0.3-0.2,0.3-0.3l-0.5,0c0.8-0.3-0.3-0.8,0.4-0.9
		c-0.1-0.1-0.1-0.2-0.3-0.2l0.3,0c0.1-0.2,0.1-0.3,0-0.5l0.2,0.1c0-0.1-0.8-0.2-0.8-0.3l0.4,0c0-0.2,0.4-0.5,0-0.7
		c0.1,0,0.2,0,0.2,0c0-0.1,0.3-0.4-0.3-0.4c0.4,0,0-0.2-0.1-0.4l0.3,0c-0.4-0.1-0.5-0.1-0.6-0.3c0,0,0.2,0,0.2,0
		c0.1-0.1-0.3-0.1-0.1-0.2l0.2,0c0-0.1-0.1-0.1-0.3-0.2c-0.1-0.1,0.1-0.2,0.3-0.3c-0.2,0-0.4-0.1-0.3-0.1c0.1,0,0.2,0,0.2,0
		c0.2-0.2-0.3-0.3-0.1-0.4c0.1,0,0.1,0,0.2,0c0,0.2,0,0.3,0,0.3c0.3,0,0.3-0.1,0.7-0.1c-0.2-0.1-0.6-0.3-0.5-0.4c0,0,0,0,0.1,0l0,0
		c0,0,0-0.1,0-0.1c0,0,0.1-0.1,0.1-0.1c0.2,0,0.1-0.2,0.1-0.2c-0.3,0-0.2-0.1-0.5,0c0,0,0,0,0,0.1c0,0,0,0,0,0l0,0c0,0,0,0.1,0,0.2
		c-0.1,0-0.3-0.1-0.1-0.2c-0.2,0-0.4-0.1-0.5-0.1c0.4-0.1,0.6-0.3,0.8-0.3c-0.2-0.2-0.1-0.5-0.7-0.6c-0.1-0.1,0.1-0.1,0.2-0.1
		c0.1,0,0.1,0.1,0.1,0.1c-0.1-0.1-0.1-0.3-0.4-0.3c0.2-0.2,0.3,0.1,0.3-0.1l0.1,0c0.6-0.4-1-0.5-0.3-1c0,0-0.1,0.1-0.1,0.1
		c0.3-0.5-0.4-1,0-1.5c0.1-0.2-0.1-0.1-0.3-0.2l0.3-0.1l-0.4-0.1C93,28,94,27.7,93.5,27.5l-0.2,0.1c0-0.1-0.2-0.3,0.1-0.3
		c0,0-0.2,0-0.1,0l0.2,0l-0.3-0.2c0.1-0.2,0.6-0.1,0.6-0.3c-0.1-0.1-0.5-0.2-0.6-0.1c0,0-0.1,0.1-0.2,0.1l-0.1-0.1
		c-0.5,0.1-0.9,0.1-1.2,0.3l0.3,0.1l-0.2,0.1l0-0.1c-0.2,0.1,0,0.1,0.1,0.1c-0.1,0-0.2,0.1-0.2,0.1l0.5,0.1c-0.2,0-0.4,0-0.5,0.1
		c0.2,0,0.4-0.1,0.5,0c-0.2,0.1-0.4,0.1-0.2,0.2c-0.1,0-0.2,0-0.3,0c0.2,0.1,0.1,0.2,0.3,0.2c-0.2,0.1,0.1,0.2-0.3,0.3
		c0.1,0,0.4,0.1,0.4,0.1c-0.5,0,0,0.3-0.6,0.3c0.5,0,0.3,0.3,0.5,0.4c0,0-0.1,0-0.1,0c0,0.1-0.2,0.1-0.2,0.2c0.4,0,0.5,0.1,0.7,0.1
		c-0.4,0.2-0.5,0-0.8,0.1c0.3,0,0.3,0.2,0.6,0.1c-0.2,0.1-0.1,0.1-0.4,0.2c0.5,0,0.1,0.1,0.4,0.1c-0.2,0.1-0.5,0.1-0.3,0.2
		C91.7,29.9,91.5,29.8,91.5,29.8z M92.6,32.9L92.6,32.9C92.6,32.9,92.6,32.9,92.6,32.9C92.6,32.9,92.6,32.9,92.6,32.9z M92.6,33.2
		c0,0,0-0.1,0-0.1c0.1,0,0.2,0,0.2,0C92.7,33.1,92.7,33.2,92.6,33.2z M94.5,32.5C94.6,32.6,94.5,32.6,94.5,32.5c-0.1,0-0.1,0-0.1,0
		l0,0C94.4,32.5,94.5,32.5,94.5,32.5z"/>
	<path class="st0" d="M94.2,32.5C94.1,32.5,94.1,32.5,94.2,32.5C94.1,32.5,94.1,32.5,94.2,32.5L94.2,32.5L94.2,32.5z"/>
	<path class="st0" d="M81,38.7L81,38.7C81,38.7,81,38.7,81,38.7C81,38.7,81,38.7,81,38.7z"/>
	<polygon class="st0" points="92.1,36.9 92.2,36.9 92.1,36.9 	"/>
	<path class="st0" d="M79.9,37.3C79.9,37.3,79.9,37.2,79.9,37.3C79.9,37.2,79.9,37.2,79.9,37.3z"/>
	<path class="st0" d="M79.3,37l-0.1-0.1C79.3,37,79.3,37,79.3,37z"/>
	<path class="st0" d="M78.8,36.8c0,0,0,0.1,0,0.1l0,0L78.8,36.8z"/>
	<path class="st0" d="M86.4,39.9C86.4,39.9,86.4,39.9,86.4,39.9C86.5,39.9,86.5,39.9,86.4,39.9z"/>
	<path class="st0" d="M84,39.3c0,0,0.1-0.1,0.1-0.1C84.1,39.1,84.1,39.1,84,39.3z"/>
	<polygon class="st0" points="88.8,41.1 88.8,41.1 88.8,41.1 	"/>
	<path class="st0" d="M84.2,39.2C84.2,39.2,84.2,39.2,84.2,39.2C84.2,39.2,84.2,39.3,84.2,39.2z"/>
	<path class="st0" d="M76.5,36.4L76.5,36.4C76.5,36.4,76.5,36.4,76.5,36.4L76.5,36.4z"/>
	<path class="st0" d="M76.5,36.4L76.5,36.4C76.5,36.5,76.5,36.5,76.5,36.4z"/>
	<path class="st0" d="M76.4,36.5L76.4,36.5C76.4,36.5,76.4,36.5,76.4,36.5z"/>
	<path class="st0" d="M77.2,36.5l0-0.1C77.2,36.5,77.2,36.5,77.2,36.5z"/>
	<path class="st0" d="M77.4,36.5c0,0-0.1-0.2-0.2-0.2l0,0.1C77.3,36.3,77.4,36.7,77.4,36.5z"/>
	<path class="st0" d="M78.1,37.9L78,37.8c0,0.1,0,0.3-0.1,0.3C78.1,38.4,77.9,37.8,78.1,37.9z"/>
	<path class="st0" d="M78.6,38.1c-0.1,0,0,0.2-0.1,0.2C78.6,38.3,78.6,38.2,78.6,38.1z"/>
	<path class="st0" d="M82,39.4l-0.1,0.2C81.9,39.6,81.9,39.5,82,39.4z"/>
	<polygon class="st0" points="83.2,38.5 83.2,38.4 83.1,38.6 	"/>
	<polygon class="st0" points="82.7,40.3 82.7,40.4 82.8,40.3 	"/>
	<path class="st0" d="M88.1,43.6l0.2-0.3C88.2,43.3,88,43.6,88.1,43.6z"/>
	<path class="st0" d="M90.9,44.8c0,0.2,0.1,0.3,0.2,0.2C91,44.9,90.9,44.7,90.9,44.8z"/>
	<polygon class="st0" points="94.6,37.7 94.7,37.8 94.6,37.7 	"/>
</g>
</svg>
