<?xml version="1.0" encoding="utf-8"?>
<!-- Generator: Adobe Illustrator 19.0.0, SVG Export Plug-In . SVG Version: 6.00 Build 0)  -->
<svg version="1.1" id="Layer_1" xmlns="http://www.w3.org/2000/svg" xmlns:xlink="http://www.w3.org/1999/xlink" x="0px" y="0px"
	 viewBox="0 0 87.3 87.3" style="enable-background:new 0 0 87.3 87.3;" xml:space="preserve">
<style type="text/css">
	.st0{clip-path:url(#SVGID_2_);fill:#2E353F;}
</style>
<g>
	<defs>
		<rect id="SVGID_1_" y="0" width="87.3" height="87.3"/>
	</defs>
	<clipPath id="SVGID_2_">
		<use xlink:href="#SVGID_1_"  style="overflow:visible;"/>
	</clipPath>
	<path class="st0" d="M43.6,87.3C19.6,87.3,0,67.7,0,43.6S19.6,0,43.6,0s43.6,19.6,43.6,43.6S67.7,87.3,43.6,87.3 M43.6,1
		C20.1,1,1,20.1,1,43.6s19.1,42.6,42.6,42.6s42.6-19.1,42.6-42.6S67.1,1,43.6,1"/>
	<path class="st0" d="M44.7,68c-6.4,0-11.6-5.2-11.6-11.6s5.2-11.6,11.6-11.6c0.1,0,0.3,0,0.4,0c0.3,0,0.5,0.2,0.5,0.5
		c0,0.3-0.2,0.5-0.5,0.5c-0.1,0-0.2,0-0.4,0c-5.9,0-10.6,4.8-10.6,10.6c0,5.9,4.8,10.6,10.6,10.6s10.6-4.8,10.6-10.6
		c0-2.9-1.1-5.6-3.2-7.6c-0.2-0.2-0.2-0.5,0-0.7c0.2-0.2,0.5-0.2,0.7,0c2.3,2.2,3.5,5.2,3.5,8.4C56.4,62.7,51.2,68,44.7,68"/>
	<path class="st0" d="M49.9,47c-0.1,0-0.2,0-0.2-0.1c-0.3-0.1-0.5-0.3-0.8-0.4c-0.3-0.1-0.4-0.4-0.3-0.7c0.1-0.3,0.4-0.4,0.7-0.3
		c0.3,0.1,0.6,0.3,0.9,0.4c0.2,0.1,0.3,0.4,0.2,0.7C50.3,46.9,50.1,47,49.9,47"/>
	<path class="st0" d="M50.8,50c-0.2,0-0.4-0.1-0.5-0.2c-0.6-0.6-0.9-1.4-0.9-2.3c0-0.8,0.3-1.9,1.5-3c0.2-0.2,0.5-0.2,0.7,0
		c0.2,0.2,0.2,0.5,0,0.7c-0.9,0.9-1.1,1.7-1.1,2.3c0,0.6,0.2,1.1,0.4,1.4c0.4-0.2,1.3-0.9,3.2-2.9c0.2-0.2,0.4-0.4,0.7-0.7
		c1.6-1.6,5.2-5.2,5.2-7.2c-0.1-2.2-2-3.1-2.1-3.1c-0.2-0.1-0.4-0.4-0.2-0.7c0.1-0.2,0.4-0.4,0.7-0.2c0.1,0,2.6,1.2,2.6,4
		c0.1,2.4-3.5,6-5.5,7.9c-0.3,0.3-0.5,0.5-0.7,0.7C51.7,50,51,50,50.8,50L50.8,50z"/>
	<path class="st0" d="M48.7,43.3c-0.1,0-0.2,0-0.3-0.1c-0.6-0.3-1.1-0.9-1.4-1.6c-0.6-1.8,0.1-4.8,2.2-9.1c0.1-0.2,0.4-0.3,0.7-0.2
		c0.2,0.1,0.3,0.4,0.2,0.7c-2.4,4.9-2.5,7.2-2.2,8.3c0.1,0.4,0.4,0.7,0.7,0.9c0.3-0.3,0.8-1,1.3-1.7c0.5-0.7,1.1-1.4,1.7-2.2
		c0.8-1,1.4-2.9,2.1-6.1c0.8-3.5,0.8-5.9-1.5-9.2c-1.4-2-5.4-4-5.5-4.1c-0.2-0.1-0.3-0.4-0.2-0.7c0.1-0.2,0.4-0.3,0.7-0.2
		c0.2,0.1,4.3,2.2,5.8,4.4c2.5,3.6,2.5,6.3,1.7,10c-0.8,3.4-1.4,5.4-2.3,6.5c-0.6,0.8-1.2,1.5-1.6,2.2
		C49.6,42.7,49.2,43.3,48.7,43.3 M48.9,42.3C48.9,42.3,48.9,42.4,48.9,42.3C48.9,42.3,48.9,42.3,48.9,42.3"/>
	<path class="st0" d="M45.5,48.7c-0.1,0-0.1,0-0.2,0c-0.3,0-0.5-0.2-0.6-0.4c-0.8-1.2-0.5-3.4,1.2-4.7c0.7-0.5,2.1-1.4,2.2-1.4
		c0.2-0.1,0.5-0.1,0.7,0.2c0.1,0.2,0.1,0.5-0.2,0.7c0,0-1.4,0.9-2.1,1.4c-1.3,1-1.5,2.6-1,3.3c0.3,0,1.6-0.9,2.5-1.5
		c0.4-0.3,0.7-0.5,1.1-0.8c0.5-0.3,1.1-0.6,1.7-0.9c1.5-0.7,3.3-1.5,4.2-3.3c1.4-2.8,2.9-8.5,1.9-11.2c-0.7-2-2.3-2.7-2.4-2.7
		c-0.3-0.1-0.4-0.4-0.3-0.6c0.1-0.3,0.4-0.4,0.6-0.3c0.1,0,2.1,0.8,3,3.3c1.2,3.2-0.6,9.5-1.9,12c-1.1,2.1-3.1,3-4.6,3.8
		c-0.6,0.3-1.1,0.5-1.6,0.8c-0.4,0.3-0.8,0.5-1.1,0.8C47.1,48.1,46.2,48.7,45.5,48.7"/>
	<path class="st0" d="M50.2,33.4c0,0-0.1,0-0.1,0c-1.1-0.1-2.3-1.4-3.5-4c-0.9-1.9-1.5-4.3-1.7-4.9c-0.3-0.3-0.9-1.1-1.6-2.5
		c-0.8-0.2-3.4-0.7-5.5-2.1c-0.2-0.1-0.3-0.5-0.2-0.7c0.1-0.2,0.5-0.3,0.7-0.2c2.4,1.5,5.4,2,5.4,2c0.2,0,0.3,0.1,0.4,0.3
		c0.7,1.8,1.6,2.5,1.6,2.6c0.1,0.1,0.1,0.2,0.1,0.2c0,0,0.7,2.9,1.7,4.9c1.4,3,2.4,3.4,2.7,3.4c0.1,0,0.2,0,0.2,0
		c0-0.3-0.2-1.2-0.3-2c-0.2-1.2-0.5-2.7-0.7-4.2c-0.3-3.1-2.7-7.8-3.7-9c-1.5-1.7-5.4-1.9-6.9-1.7c-2.4,0.3-9-0.1-11.4-1.1
		c-2.9-1.3-6.7-6.8-6.8-7c-0.2-0.2-0.1-0.5,0.1-0.7c0.2-0.2,0.5-0.1,0.7,0.1c0,0.1,3.8,5.5,6.4,6.7c2,0.9,8.2,1.3,10.8,1.1
		c1.2-0.1,5.8-0.1,7.8,2.1c1.2,1.3,3.6,6.2,4,9.6c0.2,1.5,0.5,3,0.7,4.1c0.4,1.8,0.5,2.4,0.2,2.7C51,33.2,50.7,33.4,50.2,33.4"/>
	<path class="st0" d="M46.2,44.5c-0.1,0-0.3-0.1-0.4-0.2c0,0-1.2-1.3-2.9-2.4c-1.9-1.2-6.3-2.6-6.3-2.6c-0.2-0.1-0.4-0.3-0.3-0.6
		c0.1-0.2,0.3-0.4,0.5-0.4c5,0.4,6.7-2.6,6.7-2.7c0.1-0.1,0.2-0.2,0.4-0.3c0.2,0,0.3,0,0.4,0.2c0.8,0.9,2.9,0.8,3.7,0.7
		c0.3,0,0.5,0.1,0.6,0.4c0,0.3-0.1,0.5-0.4,0.6c-0.1,0-2.6,0.4-4.1-0.6c-0.6,0.8-2,2.2-4.7,2.7c1.4,0.5,3,1.2,4,1.8
		c1.9,1.2,3.1,2.6,3.2,2.6c0.2,0.2,0.2,0.5-0.1,0.7C46.4,44.5,46.3,44.5,46.2,44.5"/>
	<path class="st0" d="M46.5,49.7c-0.1,0-0.3,0-0.4,0c-0.7-0.2-1.1-0.6-1.7-1c-0.5-0.4-1.1-0.9-2.1-1.5c-2.1-1-7.5-3.3-10.8-4.6
		c-6.1-2.4-10-8.6-11.4-13.2c-0.6-2.1-2.9-6.1-9.9-13l0.3-0.4l0.4-0.4c7.2,7.2,9.5,11.3,10.2,13.5c1.4,4.4,5,10.3,10.8,12.6
		c3.3,1.3,8.9,3.6,10.9,4.6c1.1,0.6,1.8,1.1,2.3,1.6c0.5,0.4,0.8,0.7,1.2,0.8c0.1,0,0.4,0.1,0.6-0.3c0.3-0.4,0.3-0.9,0.2-1.1
		c-0.1-0.2-0.1-0.5,0.2-0.7c0.2-0.1,0.5-0.1,0.7,0.2c0.3,0.6,0.2,1.6-0.3,2.2C47.5,49.5,47,49.7,46.5,49.7"/>
	<path class="st0" d="M62.6,55.2c-0.1,0-0.1,0-0.2,0c-0.2-0.1-0.4-0.4-0.2-0.7l2.1-4.3l-8.5,2.9c-0.3,0.1-0.5,0-0.6-0.3
		c-0.1-0.3,0-0.5,0.3-0.6l9.6-3.3c0.2-0.1,0.4,0,0.5,0.1c0.1,0.2,0.2,0.4,0.1,0.6l-2.6,5.4C63,55,62.8,55.2,62.6,55.2"/>
	<path class="st0" d="M65.2,49.8c-0.1,0-0.1,0-0.2,0l-5.3-2.6c-0.2-0.1-0.4-0.4-0.2-0.7c0.1-0.2,0.4-0.4,0.7-0.2l5.3,2.6
		c0.2,0.1,0.4,0.4,0.2,0.7C65.6,49.7,65.4,49.8,65.2,49.8"/>
</g>
</svg>
