<?xml version="1.0" encoding="utf-8"?>
<!-- Generator: Adobe Illustrator 19.0.0, SVG Export Plug-In . SVG Version: 6.00 Build 0)  -->
<svg version="1.1" id="Layer_1" xmlns="http://www.w3.org/2000/svg" xmlns:xlink="http://www.w3.org/1999/xlink" x="0px" y="0px"
	 viewBox="0 0 93.4 47.6" style="enable-background:new 0 0 93.4 47.6;" xml:space="preserve">
<style type="text/css">
	.st0{clip-path:url(#SVGID_2_);fill:#FFFFFF;}
</style>
<g>
	<defs>
		<rect id="SVGID_1_" y="0" width="93.4" height="47.6"/>
	</defs>
	<clipPath id="SVGID_2_">
		<use xlink:href="#SVGID_1_"  style="overflow:visible;"/>
	</clipPath>
	<path class="st0" d="M90.9,42.4c0.1,0,0.2-0.1,0-0.3l-0.4,0.1L90.9,42.4z"/>
	<path class="st0" d="M90.2,40.6c-0.3-0.1-0.8-0.3-0.9,0.1c0.4,0,0.4,0.2,0.9,0.2c0.2,0.2,0.2,0.4,0.1,0.5c0.1,0,0.2,0.4,0.5,0.4
		c0-0.4-0.3-0.8-0.8-1C90,40.6,90.1,40.7,90.2,40.6"/>
	<path class="st0" d="M70.2,22.5l0.1,0.1C70.3,22.5,70.3,22.5,70.2,22.5"/>
	<path class="st0" d="M55,15.3c0.1,0,0.2,0,0.2,0C55.1,15.3,55,15.3,55,15.3"/>
	<path class="st0" d="M52.3,14.2c0.1,0,0.1,0,0.2,0.1C52.4,14.2,52.3,14.2,52.3,14.2"/>
	<path class="st0" d="M70.2,22.5l-0.3-0.3C69.8,22.2,70.1,22.3,70.2,22.5"/>
	<path class="st0" d="M87.2,38.3c0.1,0.1,0.1,0.1,0.2,0.1L87.2,38.3C87.2,38.3,87.2,38.3,87.2,38.3"/>
	<path class="st0" d="M76.6,26.4l0.1,0.1c0.1,0,0.1,0,0.2,0L76.6,26.4z"/>
	<path class="st0" d="M81,30c-0.1-0.1-0.3,0.1-0.4,0.1c0.1,0,0.2,0,0.3,0C81,30.1,81,30.1,81,30"/>
	<path class="st0" d="M87.2,36.6l0.1,0.1C87.3,36.7,87.2,36.7,87.2,36.6"/>
	<path class="st0" d="M73.2,24c0,0,0-0.1,0-0.1C73.2,23.9,73.2,23.9,73.2,24"/>
	<path class="st0" d="M20.1,4.8C20.1,4.8,20.1,4.8,20.1,4.8C20.1,4.8,20.1,4.8,20.1,4.8"/>
	<path class="st0" d="M15.2,0.4L15.2,0.4c0.1,0,0.1-0.1,0.2-0.1L15.2,0.4z"/>
	<path class="st0" d="M47.2,12.7C47.2,12.7,47.2,12.7,47.2,12.7C47.3,12.7,47.3,12.7,47.2,12.7"/>
	<path class="st0" d="M2.4,26.6c0.5-0.4-0.1,1,0.5,0.3C2.8,26.9,2.9,26,2.4,26.6"/>
	<path class="st0" d="M87.1,38.2L86.9,38C87,38.1,87.1,38.2,87.1,38.2"/>
	<path class="st0" d="M2.9,26.9L2.9,26.9L2.9,26.9C2.9,26.9,2.9,26.9,2.9,26.9"/>
	<path class="st0" d="M34.9,11.8c0,0,0.1,0.1,0.1,0.1C35,11.9,35,11.9,34.9,11.8"/>
	<path class="st0" d="M44,12.8l-0.2-0.1C43.9,12.7,43.9,12.8,44,12.8"/>
	<path class="st0" d="M30.2,12.5c-0.1,0-0.2,0-0.3,0c0,0,0,0,0.1,0C30,12.5,30,12.4,30.2,12.5"/>
	<path class="st0" d="M25.3,13.2C25.3,13.2,25.4,13.2,25.3,13.2c0.1,0,0.2,0,0.2,0L25.3,13.2z"/>
	<path class="st0" d="M28.7,15.8c0-0.1,0.1-0.2,0.1-0.3C28.7,15.6,28.3,15,28.7,15.8"/>
	<path class="st0" d="M87.3,38.2c-0.1,0-0.1,0-0.2,0L87.3,38.2C87.3,38.3,87.3,38.3,87.3,38.2"/>
	<path class="st0" d="M30.2,14.7c-0.3,0-0.5,0-0.8,0C29.7,14.7,29.9,14.7,30.2,14.7"/>
	<path class="st0" d="M19.5,44.2c0,0,0.1-0.1,0.1-0.1C19.6,44.1,19.5,44.1,19.5,44.2"/>
	<path class="st0" d="M27.2,15.1C27.1,15,27,15,26.8,15c0,0-0.1,0.1-0.1,0.1C26.9,15.1,27.1,15.1,27.2,15.1"/>
	<path class="st0" d="M28.8,15.5L28.8,15.5L28.8,15.5z"/>
	<path class="st0" d="M26,11.5c0.4,0.6,0.5,0.1,0.7,0.1c0.5,0.7,0,0.5,0,0.8c0.4,0.4,0.8,0.6,1,0.9c0,0.1,0,0.1-0.1,0.1
		c0.3,0.2,0.5,0.5,0.7,0.9c0.2,0.4,0.4,0.8,0.7,1c0,0.1,0,0.1,0,0.1c0.1-0.2,0.3-0.3,0.4-0.3c0.1,0.3,0.5,0.5,0.3,0.7
		c-0.1-0.2-0.2-0.2-0.3-0.2l0.2,0.3c-0.2,0.4-0.3-0.4-0.5-0.3c0.4,0.5,0.9,1.2,1,1.7c-0.3,0.2-0.5-1.1-0.6-0.3l-0.1-0.8
		c-0.3,0.7-0.1-0.5-0.5,0.3c0.2,1,0.5,1,0.8,2c0.2,0.2,0.2-0.2,0.5,0c0.7,1.3-0.5,1.3,0.1,2.2c0.3,0.2,0.7,0.3,0.6,1l-0.4-0.2
		c0.1,1,0.7,0.5,0.5,1.5c-0.2-0.2-0.2-0.8-0.2-0.6c-0.2,0.7,0.3,0.4,0.3,1l-0.3,0.1c0.1,0.5,0.2,1,0.3,1.6c0.1,0.6,0.2,1.1,0.2,1.7
		c-0.1-0.1-0.2-0.3-0.3,0c0.1,1.5-0.4,3.1-0.9,4.3c0.1,0.2,0.1,0.4,0.1,0.6c0,0.1-0.2,0.2-0.2,0c-0.3,0.5,0.2,0.1,0.2,0.4
		c-0.1,0.3-0.3,0.3-0.3,0.1c0,0.5-0.1,1.2-0.3,1.8c-0.2,0.7-0.5,1.3-0.9,1.7l0-0.2c-0.5,0.6,0.1,1.1-0.5,1.6l0-0.1
		c-1,1.4-2,3.1-3.2,3.7c0.1,0.5-1.3,1-1.1,1.5c-0.9,0.4-0.8,0.1-2,0.7c-0.3,0.2-0.3,0.6-0.6,0.9l-0.2-0.3c-0.1,0.2-0.3,0.4-0.4,0.5
		l-0.4-0.2l-0.3,0.2c0.2-0.1,0.4,0,0.4,0.1c-0.5,0.4-1.6,0.4-1.6,0.2c-0.4,0.2-0.9,0.4-1.4,0.6c0-0.1,0.2-0.2,0.4-0.4
		c-0.7,0.5-0.2-0.2-0.9,0.1c0.1,0.1,0,0.2,0,0.3C16.3,45,16,45,15.7,45c-0.3,0-0.7,0-1,0.1l0.1-0.2c-1.1,0-2.3-0.1-3.5-0.4
		c0.4,0.2,0.2,0.6-0.2,0.5l0-0.4c-0.3,0.1,0.3,0.2-0.2,0.3c-0.4-0.2-0.2-0.5,0.1-0.5l-0.6-0.1c0-0.1,0.1-0.1,0.2-0.2
		c-0.3,0.1-0.8-0.7-1.2-0.5l0-0.1C8.4,43,7.8,42.7,7,42.2c-0.2,0.2-0.5-0.1-0.8-0.1c-0.5-0.6-1-1.3-1.5-2c-0.5-0.4-0.3,0-0.6-0.1
		c0.2-0.2-0.4-0.9,0.1-0.6c-0.6-0.9-0.8-1.1-1.4-2.3c0,0.2,0,0.3-0.1,0.3c-0.1-0.2-0.1-0.6,0-0.6l0,0.1c-0.2-0.3-0.3-0.8-0.3-1.2
		c0-0.4,0.1-0.9,0.1-1.3c0.2-0.8,0.4-1.5,0.3-2.2l0,0.1c0-0.4,0-0.9,0.1-1.3c0.2-0.5,0.1,0.4,0.4,0c0.1-1.5,0.9-2,1.2-3.2
		c0.5-0.3,1-0.9,1.3-1.6c0.5-0.7,0.9-1.4,1.5-1.7L7,24.3C7.1,24,7.3,24.1,7.5,24c-0.1-0.1-0.4,0.1-0.3-0.1c1.7-2.1,4.4-3.4,6.9-4.5
		c0.9-0.4,0.1-1.1,1.5-1.3l-0.2,0.4c0.9-0.6,1.8-1,2.8-1.4c1-0.4,2-0.7,2.9-1.1c-0.1,0.1-0.1,0.2-0.3,0.3c0.5,0.1,1.5-0.4,1.5-0.6
		c0.3-0.1,0.1,0.2,0.3,0.2c0.5,0,1-0.6,1.3-0.4c0,0-0.1,0.1-0.2,0.1c0.2-0.2,1.3-0.3,1-0.5c0.8,0,1.4-0.4,2.1-0.3
		c0.3-0.4,1.3,0,1.4-0.5c0,0.5,1.4,0.2,1.8-0.1c-0.1,0.1,0.4,0.1,0.3,0.3c0.6,0,1-0.2,0.9-0.4c1.1,0.4,2-0.6,2.6,0.1
		c1.6-0.3,3.2-0.4,4.7-0.5c-0.1,0.4-1.6,0-1.6,0.5c0.7-0.1,1.3-0.2,1.8-0.3c0.6-0.1,1.1-0.1,1.8,0c0.4,0.1-0.2,0.2-0.3,0.2
		c0.7,0,1.4,0,2,0.1c0.7,0.1,1.3,0.2,1.9,0.1c0,0-0.2,0.1-0.3,0.1c0.2,0,0.6,0.1,0.6-0.1l-0.2,0c-0.4-0.3,1.1-0.5,1.1-0.6
		c-0.5,0.5,1.2,0.4,0.4,1c0.2,0,0.4-0.1,0.4-0.2c0.2,0.1,0.3,0.2,0,0.3c0.9,0,0.6-0.2,1.4-0.1c0,0.1-0.2,0.1-0.3,0.2
		c0.4-0.1,0.9-0.2,1.5,0c-0.1,0.1,0,0.1-0.2,0.1c1.1,0.2,2.1,0,3.3,0.4c-0.5,0.3,0.4,0.3,0.3,0.6l0.7,0.1l-0.2-0.3
		c0.6,0.2,1.2,0.1,1.6,0.3l-0.5,0l1.1,0.3l-0.6-0.3c0.6,0,0.1-0.5,0.8-0.1c-0.2,0,0.6,0.2,0.8,0.5h0c0.3,0,0.7,0,1,0.2
		c0.1,0.2-0.2,0.4-0.2,0.5c0.4-0.2,1.4,0.4,1.8,0.2c-0.1,0-0.2,0.2-0.2,0.3l0.3-0.1c0.2,0.2,0.3,0.2,0.2,0.4c0.8,0.4-0.1-0.5,0.8,0
		c-0.1,0-0.1,0-0.2,0c0.9,0.5,1.9,0.6,2.7,1.1c0.1,0.5-0.8-0.3-0.6,0.2c1.2,0.5,2.7,0.8,3.8,1.4c-0.1,0-0.1-0.1-0.2-0.1
		c0.4-0.4,0.7,0.7,1.4,0.8c-0.2,0-0.3,0.2-0.3,0.1c0.7,0.5,1.7,0.7,2.9,1.3l-0.2,0c0.4,0.4,1.1,0.8,1.6,1.1c0.2,0,0.5,0.2,0.4-0.1
		c0.5,0.8,1.3,1.2,2,1.5c0.7,0.4,1.5,0.7,1.9,1.4c-0.2-0.1-0.4-0.2-0.3-0.1c0.4,0.2,0.8,0.4,1.1,0.7c0.1-0.2-0.1-0.2-0.2-0.5
		c0.2,0,0.6,0.1,0.8,0.3c-0.6-0.2-0.2,0.3-0.1,0.6c0-0.1,0.1-0.1,0.2-0.2c0.3,0.7,0.4-0.3,0.9,0.5l-0.1,0.1c0.3,0.2,0.7,0.2,1,0.5
		c0,0.3-0.4-0.1-0.5,0c0.4,0.3,1.2,0.2,1.3,0.8c-0.2-0.1-0.5-0.3-0.7-0.4c0.2,0.6,0.3,0.6,0.6,0.8l0,0l0.6,0.7l-0.1-0.2
		c1-0.1,1.1,0.8,2.1,1c-0.9-0.3-0.3,0.1-0.5,0.3c0.1,0.2,0.3,0.5,0.2,0.5c0.5,0.1,0.4,0.6,1.1,0.8c0,0.1,0.3,0.3,0.1,0.4
		c0.4,0.3,0-0.2,0.1-0.3c0.8,0.4,1.1,1.7,2.3,2.2c0.9,0.6,1.2,0.6,2,1.2c0.1,0.3-0.4,0-0.4,0c0.3,0.5,0.5,0.8,1,1.1
		c-0.1,0-0.1,0.1-0.1,0.3c0.3,0.3,0.4,0,0.7,0.4c-0.1,0-0.4,0-0.6,0c0.4,0.3,0.8,0.5,1.2,0.8c0,0.2-0.4-0.1-0.6-0.1
		c0.4,0.4,1,1,1.3,1l-0.2-0.3c0.1,0.1-0.1,0.2-0.2,0.1c-0.5-0.2-0.4-0.6-0.3-0.7l0.3,0.2c0.2-0.7-1-1-1.4-1.6l0.5-0.1l-0.8-0.3
		c0-0.2,0.1-0.4,0.4-0.2c-0.2-0.5-0.4-0.2-0.5-0.7c0-0.1,0-0.1,0.1,0l-0.4-0.3c0.1,0,0.2-0.3,0.3,0c-0.4-0.8-1.2-0.8-1.2-1.3l0.1,0
		c-1-0.8-0.3,0.1-1.2-0.3l0.1-1L84.5,34c-0.1-0.1-0.2-0.3-0.1-0.3c-0.5-0.2,0,0.2-0.4,0.1c-0.2-0.6-1.3-1.1-1.1-1.5
		c-0.3,0,0.3,0.5-0.3,0.2c0.2-0.5-0.6-0.5-0.9-1c0.3-0.1,0.6,0.4,0.4-0.2c-0.6,0.1-0.8-0.8-1.2-1c-0.3,0.3-0.9-0.6-1.6-1
		c0.1-0.1-1-1.1-1.5-1.7l0.1,0c-0.3,0.2-0.9-0.3-1.4-0.6c0.1-0.2,0.3-0.2,0.6-0.1l-0.4-0.3c-0.2,0-0.3,0-0.6-0.2l0.3-0.1
		c-0.6-0.4-1.3-0.6-2-1.2c-0.2,0.2,0.2,1-0.7,0.6c0.1-0.1,0.2-0.3,0.4-0.3c-0.1,0-0.3-0.1-0.4-0.2l0.4,0c-0.3-0.3-0.3,0-0.5-0.2
		c0.1-0.2-0.1-0.3,0-0.4c0.1,0,0.2,0.2,0.3,0.2c-0.3-0.2-0.6-0.6-0.6-0.8c0,0.1-0.1,0.2-0.4,0.1c-0.6-0.4-0.1-0.3-0.4-0.6
		c-0.2,0-0.5-0.3-0.7-0.1c-0.2-0.1-0.1-0.2-0.2-0.4c-0.4-0.1-1.5-0.9-1.3-0.4l0.1,0.1c0,0,0,0-0.1,0l0,0l0,0c-1.1-0.4-2-1.4-3.1-1.8
		l0-0.1c-0.7-0.2-1.4-0.7-1.9-0.7c-0.2-0.1-0.4-0.4-0.2-0.4c-0.5-0.2-0.6-0.1-1.2-0.6c0.6,0.1-0.1-0.2,0.6,0.1
		c-0.6-0.4-0.7-0.6-1.5-0.7c0.3-0.1-0.3-0.5-0.7-0.6c0.1,0.1,0.3,0.2,0.4,0.4c-0.3-0.1-0.6-0.3-0.9-0.4l0.3-0.2
		c-1.2-0.9-2.6-0.4-3.4-1.4c-0.4,0.1,0.7,0.4,0.3,0.6c-0.6-0.3-1.1-0.9-1.3-1c-0.8-0.5-1,0.2-1.8-0.3c0.1,0.2,0.1,0.5-0.6,0.4
		c-0.6-0.2-0.6-0.7-0.2-0.7c0.2,0,0.2,0.1,0.2,0.1c0.2,0,0.5,0,0.3-0.1l-0.1,0.1c-0.3-0.2-1.2-0.5-0.9-0.6c-0.5,0-0.3,0.1,0.1,0.3
		c-0.8-0.4-1.3-0.4-2.1-0.7c0.1,0.1,0.2,0.3,0.1,0.2c-1.2-0.5-0.6,0.1-1.5-0.1c-0.4-0.3,0.3-0.4-0.6-0.4c-0.5-0.2,0-0.3,0.2-0.4
		c-0.8,0-1.4-0.5-1.9-0.6c0.1,0,0.3,0,0.4,0c-0.3,0-0.5,0-0.7-0.1l0.2,0.3c-0.2-0.1-0.4-0.1-0.4-0.2c-0.3,0.1,0.1,0.4-0.4,0.5
		c-0.3-0.2-1-0.1-1.1-0.4c1,0.3-0.1-0.3,0.8-0.2c-0.2,0-0.4,0-0.6-0.1c0,0,0-0.1,0.1-0.1c-0.9-0.5-0.5,0.3-1.5,0.1
		c0.2-0.2-0.2-0.4-0.4-0.4c0.4,0.1,0.2,0.3-0.2,0.4c-0.6-0.2-0.7,0-1.1,0l0.4,0.1C44.2,13,43.9,13,43.4,13c0-0.1,0.4,0,0.3-0.1
		c-0.5,0.3-1.1-0.5-1.8-0.3c-0.3-0.1,0-0.3-0.3-0.4c-0.8,0.2-0.8-0.3-1.7-0.2c0.2,0.3,0.3,0.2-0.3,0.4l1.4-0.1L40,12.5
		c0.4,0,0.9-0.1,1.1,0c-0.4,0.2-0.4,0.1-0.2,0.3c-0.5-0.4-1.1,0.1-1.8-0.2l0.1-0.6c-1-0.3-1.8,0.2-3,0.1l0.4,0.1
		c-0.2,0.2-0.8,0-1.2,0.1c0-0.2-0.2-0.3-0.4-0.4c0,0.1-0.9,0-1,0.4l-0.6-0.2c-1-0.1-1.1,0.6-2.1,0.6c0.3-0.2-0.2-0.3,0.5-0.5
		c-0.3,0-0.6,0-0.6,0.1c-0.2-0.1-0.9,0.3-1.2,0.2c-0.1,0.1-0.2,0.3-0.5,0.3c0,0,0-0.1,0-0.1c0,0.1-0.6,0.2-0.2,0.4
		c-1.1-0.5-2.8,0.4-3.8,0.1c-0.7,0.2-1.5,0.4-2.2,0.6c0-0.1,0-0.1,0.1-0.1c-0.9,0-0.4,0.7-1.5,0.7c-0.6-0.2,0.5-0.3,0.1-0.3
		c-0.3-0.6-1.2,0.4-1.9,0.2l0.2-0.1c-0.6,0-1.2,0.6-2,0.9c0,0,0-0.1,0-0.1c-0.4,0.5-1.5,1-2.2,1.4c0.1-0.3,0.3-0.3,0.1-0.5
		c-0.3,0.2,0.3,0.3-0.4,0.7c-0.3,0-0.8,0.1-1-0.1l0.6-0.3c-0.5-0.2-0.8,0.4-1.2,0.5l0-0.2c-1,0.5-0.8,0.9-1.8,1.4l0.2,0
		c-0.4,0.6-0.6,0.1-1,0.6l-0.4-0.2c-0.3,0.3-1.1,1.1-1.6,1.6c0.1-0.2,0.3-0.5,0.5-0.8c0.2-0.3,0.5-0.5,0.7-0.7
		c-0.4,0.2-1.2,0.8-1.2,1.1c0.1-0.1,0.2-0.3,0.4-0.4c-0.2,0.6-0.7,1.1-1.4,1.6c-0.2-0.4-0.6,0-1.1,0.4C6.9,21.5,6.3,22,5.9,22
		c-0.4,0.6-1,1.1-1.5,1.7c-0.3,0.3-0.5,0.6-0.8,0.9c-0.2,0.3-0.5,0.7-0.7,1.1c0.8-0.2-0.3,0.5,0.3,0.7C3,26.8,3,26.9,2.9,26.9
		L2,27.8c-0.3,0.2,0-0.4-0.1-0.4c-0.4,0.8-0.4,0.2-0.8,0.7c0.2,0,0.2,0.4-0.1,0.9l0.5-0.6c-0.2,1.3-0.9,0.8-1,2.2l-0.1-0.5
		c-0.1,0.7-0.7,2.5-0.2,3.2c-0.1,0.1-0.3,0.3-0.3,0c0,0.4-0.1,0.9,0,1.3c0.1,0.4,0.2,0.9,0.3,1.3c0.3,0.8,0.5,1.6,0.6,2.2L0.8,38
		c0.2,0.3,0.5,0.4,0.5,0.8c-0.1,0-0.2-0.1-0.1,0.1c0.1,0.1,0.6,0.6,0.7,1l-0.3-0.2c0.3,0.8,0.7,1.2,1.2,1.6c0.4,0.4,1,0.6,1.4,1.1
		C3.7,42.6,4.5,43.6,5,44l-0.1,0c1.4,1.2,2.8,1.5,4.3,2c0.2,0.2,0.5,0.4,0.9,0.6c0.4,0.2,0.8,0.4,1.3,0.5c0.9,0.3,2,0.4,2.8,0.6
		c-0.3-0.1,0.1-0.3,0.4-0.4c0.4,0.1,1.1-0.3,1,0.1l-0.1,0c0.3,0.4,1.1,0.2,1.8,0.1l0-0.5c0.9,0.2,1.9-0.1,2.8-0.6
		c0.5-0.2,0.8-0.5,1.2-0.6c0.4-0.2,0.7-0.2,1-0.2c0.3-0.3,0.7-0.6,1-0.9l0.1,0.2c0.9-0.6,1.4-0.9,2.4-1.8l-0.1,0.3
		c0.6-0.5,0.1-1.3,0.6-1.7l0.5,0.1c0.9-1,2-1.8,2.4-3.1c0,0.1,0.1,0.2,0,0.3c0.2-0.3,0.6-0.7,0.8-1.1c0.2-0.4,0.4-0.8,0-0.8
		c0.2,0.1,0.3-0.2,0.5-0.6c0.1-0.4,0.2-0.9,0.3-1.3l0.2,0.2c-0.1-0.7-0.2-0.7,0-1.5c0.1-0.2,0.3-0.1,0.1,0.1
		c0.4-0.6-0.1-0.6,0.3-1.2l0.1,0.3c0.2-0.6,0.1-0.6,0-1c0-0.4,0.4-1.2,0.6-1.2C32,30.7,31.9,30.3,32,30c0.1,0,0.1,0.1,0.2,0.2
		c0.2-0.5,0.2-1,0.2-1.3c0-0.4-0.1-0.7,0.1-1.1c0.1,0,0.1-0.1,0.2-0.1c-0.1,0.9-0.2,1.6-0.2,1.5c0.3,0,0.4-0.7,0.7-0.1
		c-0.1-0.6-0.5-1.6-0.3-2.3c0,0,0.1-0.1,0.1-0.1l0,0.1c0-0.2,0-0.3,0-0.4c0-0.2,0.1-0.4,0.1-0.6c0.2-0.1,0.1-0.8,0.1-1.2
		c-0.3,0-0.2-0.4-0.5,0c0-0.1,0,0.1,0,0.3c0,0.1,0,0.1,0,0.2l0,0c0,0.2,0,0.5,0,0.9c-0.1-0.3-0.3-0.6-0.1-1
		c-0.2-0.2-0.4-0.4-0.5-0.5c0.4-0.5,0.5-1.4,0.7-1.6c-0.1-0.5-0.2-1.2-0.4-1.7c-0.2-0.6-0.4-1.1-0.7-1.3c-0.1-0.3,0.1-0.4,0.1-0.5
		c0.1,0.2,0.1,0.4,0.2,0.4c-0.3-0.6-0.5-1.8-0.9-1.8c-0.1-0.8,0.5,0.3,0.1-0.7l0.2,0.1c-0.1-1.1-0.5-1.8-1.1-2.5
		c-0.3-0.4-0.5-0.7-0.8-1.1c-0.2-0.4-0.4-0.9-0.5-1.5c0,0.2,0.1,0.2,0,0.3c-1-2.5-3.1-4.4-4.5-6.6c-0.5-0.6-0.7-0.5-1.1-0.7l0.1-0.3
		c-0.3-0.1-0.5-0.2-0.8-0.3c-1-0.5-1-1.8-2.4-2.2l0,0.3c-0.4-0.3-1.4-0.8-1.2-0.9c-0.1,0-0.2,0.1-0.4-0.1l0.1-0.1l-1.2-0.4
		c-0.8-0.5,0.4-0.5-0.8-1.1c-0.5-0.2-1.5-0.2-1.4,0c0.2,0.1,0.4,0.3,0.4,0.5l-0.4-0.1c-0.3,0.4-0.7,0.7,0.1,1.4L16.3,2l0.1,0.3
		L15.8,2c0.2,0.3,0.5,0.3,0.8,0.3c0,0.1,0.1,0.2,0.2,0.4l0.9,0c0,0.2-0.5,0.2-0.1,0.5c0.4,0-0.1-0.5,0.5-0.4c0.2,0.4,0,0.5,0.5,0.5
		c0,0.1-0.1,0.2-0.3,0.1c0.4,0,0.9,0.5,1.2,0.4c0.2,0.4,1.1,0.7,0.8,1c0.2,0,0.7,0.1,1,0.4c-0.8,0,1,0.8,0.5,1.2
		c0.6,0,1.4,1,2.1,1.4c-0.1,0-0.2,0-0.2-0.1c0.3,0.4,0.3,0.6,0.4,0.9c0.3-0.2,0.9,0.3,1.3,0.4c0,0.7-0.6,0-0.7,0.4
		c0.2-0.2,0.8,0.6,0.9,0.3c0.1,0.5,0.1,0.4,0,0.7c0.4-0.2,0.3,0.3,0.8,0.4c0.1,0.7-0.3,0.4,0.2,0.9C26.4,11.9,26,11.5,26,11.5
		 M31.1,26.9L31.1,26.9c0-0.1,0-0.3,0-0.3C31.1,26.6,31.1,26.7,31.1,26.9 M31,28.3c0-0.2,0-0.4,0.1-0.6c0.1,0,0.2,0,0.2,0.2
		C31.1,27.7,31.1,28.1,31,28.3 M33.1,25.3c0,0.2,0,0.3-0.1,0.4c0-0.1,0-0.2,0-0.4c0,0,0,0,0,0C33,25.2,33,25.3,33.1,25.3"/>
	<path class="st0" d="M32.7,24.9C32.7,24.8,32.7,24.8,32.7,24.9C32.6,24.8,32.6,24.9,32.7,24.9l0,0.1C32.7,25,32.7,24.9,32.7,24.9"
		/>
	<path class="st0" d="M70.4,22.6L70.4,22.6C70.4,22.6,70.4,22.6,70.4,22.6C70.4,22.6,70.4,22.6,70.4,22.6"/>
	<polygon class="st0" points="20.8,43.4 20.8,43.5 20.9,43.4 	"/>
	<path class="st0" d="M76.4,27.9c0,0,0,0.1,0,0.1C76.4,28,76.4,28,76.4,27.9"/>
	<path class="st0" d="M79,30.1l0.3,0.4C79.2,30.3,79.1,30.2,79,30.1"/>
	<path class="st0" d="M80.9,31.9c0.1,0,0.1,0,0.1-0.1l0,0L80.9,31.9z"/>
	<path class="st0" d="M43.9,14.7c0,0-0.1,0-0.1,0C43.6,14.7,43.7,14.7,43.9,14.7"/>
	<path class="st0" d="M56.1,16.8c-0.1,0-0.3,0-0.4,0C55.9,16.9,56,17,56.1,16.8"/>
	<polygon class="st0" points="30.3,14.7 30.3,14.7 30.2,14.7 	"/>
	<path class="st0" d="M55.1,16.6c0.2,0.1,0.4,0.2,0.5,0.2C55.5,16.7,55.3,16.6,55.1,16.6"/>
	<path class="st0" d="M88.7,40.1l0.1,0.1c0,0,0,0,0,0L88.7,40.1z"/>
	<path class="st0" d="M88.8,40.2l0.1,0.1C88.9,40.2,88.8,40.2,88.8,40.2"/>
	<path class="st0" d="M89.2,40.5l-0.2-0.2C89,40.4,89,40.5,89.2,40.5"/>
	<path class="st0" d="M86.5,37.4l-0.1,0C86.4,37.5,86.4,37.5,86.5,37.4"/>
	<path class="st0" d="M85.7,36.7c0.2,0.2,0.3,0.6,0.6,0.8l0.1,0C86.2,37.5,86,36.7,85.7,36.7"/>
	<path class="st0" d="M83.5,32.7l0.6,0.7c0-0.2-0.1-0.4,0.2-0.2C83.7,32.1,84.3,33.5,83.5,32.7"/>
	<path class="st0" d="M81.6,30.7c0.4,0.3,0.1-0.1,0.2-0.1C81.5,30.4,81.4,30.3,81.6,30.7"/>
	<path class="st0" d="M65,19.4l0.2-0.2C64.8,19,65.1,19.3,65,19.4"/>
	<polygon class="st0" points="61,19 61.3,19.3 61.5,19.1 	"/>
	<polygon class="st0" points="59.6,16.4 59.8,16.5 59.2,16.3 	"/>
	<path class="st0" d="M26.1,12.8l0.2,0.3C26.5,13,26.5,12.6,26.1,12.8"/>
	<path class="st0" d="M12.3,17.7c-0.2-0.1-0.6,0-0.8,0.3C11.8,17.9,12.2,17.8,12.3,17.7"/>
	<polygon class="st0" points="18.1,47.1 17.8,47.3 18.4,47.1 	"/>
	<path class="st0" d="M74.3,34.9c0,0.1,0,0.3,0.1,0.2L74.3,34.9L74.3,34.9z"/>
	<path class="st0" d="M74.7,35.5c0.1-0.2,0.1-0.4,0.1-0.7c-0.1,0.3-0.1,0.2-0.1,0.6c-0.1,0-0.1-0.1-0.1-0.2c0,0.1-0.1-0.1-0.1,0.1
		c0.1,0.3,0.2,0.3,0.3,0C74.7,35.3,74.7,35.4,74.7,35.5"/>
	<path class="st0" d="M79.5,37L79.5,37C79.5,37,79.5,37,79.5,37"/>
	<path class="st0" d="M82.2,38.6C82.2,38.6,82.2,38.6,82.2,38.6C82.2,38.6,82.2,38.6,82.2,38.6"/>
	<path class="st0" d="M82.5,39.2C82.5,39.2,82.5,39.2,82.5,39.2C82.5,39.2,82.5,39.2,82.5,39.2"/>
	<path class="st0" d="M79.5,37l0,0.1C79.6,37,79.5,37.1,79.5,37"/>
	<path class="st0" d="M75.5,34.7C75.4,34.7,75.4,34.7,75.5,34.7C75.4,34.7,75.4,34.7,75.5,34.7L75.5,34.7z"/>
	<polygon class="st0" points="78.2,36.8 78.1,36.8 78.1,36.9 	"/>
	<path class="st0" d="M77.2,36.6c0,0,0.1-0.3,0.1-0.4c0,0.1-0.1,0.2-0.1,0.2C77.2,36.4,77.2,36.5,77.2,36.6"/>
	<path class="st0" d="M75.7,35.8L75.7,35.8L75.7,35.8z"/>
	<path class="st0" d="M78.8,37.1C78.8,37.1,78.8,37.2,78.8,37.1C78.8,37.2,78.8,37.1,78.8,37.1"/>
	<path class="st0" d="M90,26.3C90,26.3,90.1,26.3,90,26.3C90,26.3,90,26.3,90,26.3"/>
	<polygon class="st0" points="91.2,24.9 91.2,24.9 91.4,24.9 	"/>
	<path class="st0" d="M83.1,40L83.1,40C83.1,40,83.1,40,83.1,40"/>
	<path class="st0" d="M92.4,42.4c-0.3,0-0.2-0.4-0.5-0.4C92,42,92.2,42.4,92.4,42.4"/>
	<path class="st0" d="M75.5,34.7C75.5,34.7,75.5,34.7,75.5,34.7C75.5,34.7,75.5,34.7,75.5,34.7"/>
	<path class="st0" d="M91.8,42L91.8,42L91.8,42C91.8,42,91.8,42,91.8,42"/>
	<path class="st0" d="M85.1,41.1c0,0,0-0.1,0-0.1C85.1,41,85.1,41,85.1,41.1"/>
	<path class="st0" d="M83.9,39.8L83.9,39.8C83.9,39.8,83.9,39.8,83.9,39.8"/>
	<path class="st0" d="M86.1,41.2C86.1,41.2,86.1,41.3,86.1,41.2C86.1,41.3,86.1,41.2,86.1,41.2C86.1,41.3,86.1,41.3,86.1,41.2"/>
	<path class="st0" d="M86.8,41.7C86.9,41.7,86.9,41.7,86.8,41.7L86.8,41.7L86.8,41.7z"/>
	<path class="st0" d="M90.5,29c0.1,0,0.2,0,0.2-0.1C90.5,29,90.4,28.9,90.5,29"/>
	<path class="st0" d="M75.5,34.8c0-0.1,0-0.1,0-0.1c0,0,0,0,0,0C75.5,34.8,75.5,34.8,75.5,34.8"/>
	<path class="st0" d="M87.3,39.4l0.1,0.1C87.4,39.4,87.3,39.4,87.3,39.4"/>
	<path class="st0" d="M90.7,35.5L90.7,35.5C90.7,35.5,90.7,35.5,90.7,35.5"/>
	<path class="st0" d="M87.8,39.7c0,0.1,0,0.2,0,0.2c0,0,0,0,0.1-0.1L87.8,39.7z"/>
	<path class="st0" d="M90.7,29L90.7,29L90.7,29z"/>
	<path class="st0" d="M90,28.1c0,0.1,0.4,0,0.6,0c0.1,0.2-0.3,0.1-0.4,0.2c0.1,0.1,0.5,0.1,0.4,0.2c-0.1,0-0.1,0-0.2,0
		c0.3,0.1,0,0.3,0.4,0.4c0,0-0.1,0-0.1,0c0.2,0,0.4-0.1,0.5-0.1c0,0.1,0.2,0.1,0,0.1c0,0-0.1,0-0.2,0l0.1,0.1
		C90.8,29.1,91,29,90.8,29c0.1,0.1,0.4,0.2,0.3,0.3c-0.3,0-0.1-0.2-0.4-0.1l0.1-0.2c-0.5,0.2,0-0.1-0.5,0.1
		c-0.1,0.2,0.2,0.2,0.1,0.4c0.2,0,0.3,0,0.5,0c0.4,0.3-0.8,0.3-0.4,0.5c0.2,0,0.7,0,0.4,0.2l-0.4,0c0,0.2,0.6,0.1,0.3,0.3
		c-0.2,0-0.1-0.1-0.2-0.1c-0.3,0.1,0.2,0.1,0.2,0.2l-0.3,0c0.1,0.2,0.3,0.4,0.4,0.6c-0.1,0-0.2,0-0.3,0c0.2,0.3,0,0.6-0.2,0.9
		l0.3,0.1c0,0-0.1,0-0.2,0c-0.1,0.1,0.2,0,0.3,0c0,0.1-0.2,0.1-0.3,0c0.3,0.2,0.5,0.5,0.2,0.7l-0.1,0c-0.1,0.2,0.6,0.2,0.3,0.3
		l-0.1,0c-0.1,0.3,0.1,0.7-0.3,1c0.4,0-0.2,0.3,0.4,0.4c-0.3,0.2-0.4,0.1-0.6,0.4c0,0.1,0.4,0.1,0.4,0.2l-0.3,0l0.3,0.1l-0.4,0.1
		l0.1,0.1c0,0,0.1-0.1,0.2-0.1c0.1,0.1-0.2,0.3-0.4,0.3l0.3,0.3c-0.1,0-0.2-0.1-0.2-0.1c0.3,0.2-0.3,0,0,0.2c0.1,0,0.2,0,0.2,0
		c-0.2,0.1-0.2,0.2-0.1,0.4l-0.2,0c-0.1,0.2,0.1,0.5,0.1,0.7c0.1-0.1,0.5,0,0.5,0l-0.3,0c0.2,0.1,0.1-0.1,0.4,0c0,0.1-0.4,0-0.5,0
		l0.1,0.1c-0.1,0-0.1,0-0.3,0c0.2,0.1-0.3,0.2,0,0.3h-0.1c0,0.3,0.1,0.4,0.1,0.6c0.3,0,0.2,0.1,0.4,0.2c-0.1,0.1-0.3,0.3-0.3,0.5
		c0.1,0.1,0.2,0.1,0.4,0.1c-0.3,0-0.2,0.2-0.4,0.1c0,0.2,0,0.3,0.2,0.6c0.1,0,0.2,0,0.2,0c0,0.1-0.1,0.1-0.2,0.1l0,0
		c0.3,0.4-0.8,0.6-0.3,0.9l0,0c0.1,0.1,0.2,0.2,0.2,0.2c0,0-0.2-0.1-0.3-0.1c0.2,0.1,0.2,0.1,0.1,0.1c0,0-0.1,0,0,0.1
		c-0.4-0.2-0.3-0.2-0.3-0.1c0,0.1,0.1,0.2-0.1-0.1l0.1,0.2c0.1,0.2-0.1-0.1-0.1-0.1c0.1,0.2,0.1,0.2,0.2,0.3c0,0.2-0.1,0.1-0.2-0.1
		c-0.1-0.2-0.1-0.3-0.1-0.4c0-0.1-0.3,0.9-0.3,0.4c0.1-0.1,0.1-0.2,0.2-0.3c-0.5,0.2-0.6-0.4-1.1-0.3c0.1-0.1,0.1-0.1,0.1-0.1
		c0.1-0.2-0.2-0.2-0.4,0c0,0,0.1-0.2,0.1-0.3c0-0.2-0.3,0.2-0.2-0.1c0,0,0.1-0.1,0.1-0.1c-0.1,0.1-0.2-0.2-0.3,0.1
		c-0.1-0.2-0.3,0-0.3-0.2c-0.2,0.2-0.1-0.3-0.4,0.1c0.3-0.4,0-0.4-0.2-0.3c0.1-0.1,0-0.2,0.1-0.3c-0.1-0.1-0.2,0-0.3,0.2
		c0.1-0.6-0.6,0.1-0.3-0.5c-0.4,0-0.7,0-1-0.1c0.3-0.4,0.3,0.1,0.5-0.3c-0.3,0-0.7,0.2-0.8,0c0-0.1,0.1-0.1,0.2-0.2
		c-0.3,0-0.4-0.3-0.8-0.2c0,0,0.1-0.1,0.1-0.1c0,0-0.1-0.1-0.2,0.1l0.1,0c-0.1,0.3-0.5,0.4-0.6,0.6c0.4-0.5-0.1-0.3,0.4-0.8
		c0,0-0.1,0.1-0.2,0.2c0-0.1,0-0.1,0.1-0.2c-0.2,0-0.3,0.2-0.4,0.1c0.1-0.1,0.1-0.1,0.2-0.2c-0.2,0.1-0.3,0.2-0.4,0.1
		c0,0,0.1-0.1,0.1-0.1c-0.2-0.1-0.6,0.2-0.7-0.1c0.3-0.3,0-0.2,0.2-0.5l-0.2,0l0,0.2c-0.1-0.1-0.3,0.1-0.4,0l0.2-0.1l-0.2,0l0,0.2
		c-0.2,0.1-0.2,0.4-0.3,0.2c0,0-0.1-0.1,0-0.3h0c-0.1,0.1-0.2,0.2-0.3,0c0-0.1,0.2-0.4,0.2-0.4c-0.2,0.2-0.3-0.1-0.5,0.2
		c0.1-0.1,0.2-0.2,0.2-0.3L82,37.3c0-0.1,0-0.1,0.1-0.3c-0.1-0.1-0.2,0.4-0.3,0.2c0,0,0,0,0.1-0.1c-0.1-0.2-0.4,0-0.5-0.2
		c0.1-0.4,0.2,0,0.3-0.3c-0.3-0.1-0.7,0.1-0.9,0l0,0.1c-0.3,0.5-0.1-0.3-0.3-0.1c0,0,0.2-0.2,0.1-0.2c-0.1-0.2-0.4,0-0.7,0l0.1-0.1
		c0-0.2-0.2-0.2-0.3-0.3c-0.1,0.1-0.1,0.1-0.2,0.3c0-0.8-0.7,0.1-0.8-0.6c0,0,0.1-0.1,0.1-0.1l-0.3,0c-0.1,0.2,0,0.1,0,0.3
		C78.5,36,78.4,36,78.3,36c0.2-0.1,0.1-0.4,0.1-0.5c0,0.1-0.1,0.1-0.1,0.2c0-0.4-0.2,0.4-0.2,0.1l0-0.1c-0.1,0-0.2,0.2-0.2,0.1
		c0-0.3,0.1-0.1,0.2-0.3c-0.1,0-0.3,0.4-0.3,0.1c0.1-0.1,0.1,0,0.2-0.1c0-0.3,0-0.3-0.1-0.3l0,0l-0.1-0.2l0,0.1
		c-0.3,0.6-0.3,0.1-0.6,0.5c0.3-0.4,0.1-0.2,0.2-0.5c0-0.1-0.1-0.2,0-0.3c-0.1,0.2-0.1-0.2-0.3,0.1c0-0.1-0.1,0,0-0.3
		c-0.1,0.1,0,0.2,0,0.3c-0.2,0.3-0.3-0.5-0.7,0c-0.2,0.2-0.3,0.5-0.5,0.6c-0.1-0.2,0.1-0.3,0.1-0.3c-0.1-0.2-0.2-0.1-0.3,0
		c0-0.1,0-0.2,0-0.3c-0.1,0-0.1,0.4-0.2,0.2c0-0.1,0-0.3,0.1-0.4c-0.1,0.1-0.2,0.3-0.3,0.4c0-0.2,0.1-0.3,0.1-0.4
		c-0.1,0.1-0.3,0.2-0.3,0.4l0.1,0.1c0,0,0-0.2,0-0.3c0.1-0.2,0.1,0.1,0.1,0.2L75,35.3c0.1,0.6,0.3-0.1,0.4-0.1l-0.1,0.4l0.2-0.3
		c0,0.1,0,0.3,0,0.4c0.1,0.2,0.1-0.1,0.2,0.1c0,0,0,0.1,0,0.1l0.1-0.1c0,0.1,0,0.3-0.1,0.2c0.1,0.3,0.3-0.3,0.3,0l0,0
		c0.2-0.1,0.1-0.3,0.3-0.6l0,0.8l0.1-0.3c0,0,0.1,0,0,0.2c0.1-0.2,0-0.1,0.1-0.3c0.1,0.3,0.3-0.1,0.3,0.4c0.1-0.2-0.1-0.2,0.1-0.3
		c-0.1,0.5,0.2-0.1,0.2,0.2c-0.1,0.3-0.2,0.1-0.1,0.4c0.2-0.4,0.2,0.1,0.3,0.1c0.1-0.4,0.2-0.1,0.4-0.2c0,0.1,0.2,0.3,0.3,0.4l0,0.1
		c0.1-0.3,0.2-0.2,0.4-0.3c-0.1,0.2-0.1,0.3-0.2,0.4l0.1,0c0.1-0.1,0.1-0.2,0.2-0.2l-0.1,0.3c0.1,0,0.3-0.2,0.4,0
		c0.1-0.2,0.1-0.7,0.3-0.8c0,0.1-0.1,0.4-0.2,0.4c0,0,0.1-0.1,0.1,0l-0.1,0.2c0,0.1,0.1-0.2,0.2-0.1c-0.1,0.2,0,0.1-0.1,0.3
		c0,0,0-0.1-0.1,0c0.1,0.1,0.1,0.2,0.1,0.3c0-0.1,0.1-0.2,0.2-0.3c0.1,0,0,0.2,0,0.4c0.1-0.1,0.1,0,0.2-0.2c0,0,0,0.1,0,0.2
		c0.1-0.1,0.3,0.1,0.4-0.2l0,0c0,0,0,0,0,0l0,0l0,0c0.3-0.2,0.3,0.3,0.6,0.3l0,0.1c0.2,0,0.3,0.1,0.5-0.1c0,0,0,0.2-0.1,0.3
		c0.1,0,0.2-0.1,0.2,0.1c-0.2,0.1,0,0.2-0.1,0.1c0.1,0.1,0,0.3,0.3,0.1c-0.2,0.2-0.1,0.3,0,0.3l0-0.2c0.1,0,0.1,0,0.2,0.1l-0.2,0.3
		c0,0.5,0.7-0.4,0.6,0.3c0.2-0.2,0-0.2,0.1-0.4c0.1,0.1,0,0.6,0,0.6c0.1,0.2,0.4-0.3,0.5-0.2c0-0.1,0.2-0.4,0.3-0.4
		c0.1,0.1-0.1,0.5-0.2,0.5c0,0,0,0,0-0.1c-0.1,0-0.1,0-0.1,0.2l0.1-0.1c0,0.1,0.1,0.2,0,0.4c0.1-0.1,0.1-0.1,0.1-0.2
		c0,0.2,0.2,0.1,0.3,0.3c0-0.1,0.1-0.2,0.1-0.2c0.1,0.2,0.2-0.1,0.4-0.1c0,0.2-0.3,0.4,0,0.3c0,0.2-0.1,0.3-0.2,0.3
		c0.2-0.1,0.2,0.3,0.2,0.3l-0.1,0c0.1,0,0.1,0,0.1,0l0.1-0.2c0,0.1,0,0.1,0,0.2c0.1-0.1,0.2-0.4,0.4-0.5c0,0.1,0.2,0,0.1,0.3
		c-0.1-0.2-0.2,0.3-0.3,0.2c0,0,0.1,0,0.1,0.1c0,0,0,0.1-0.1,0.1c0,0.3,0.3-0.3,0.4-0.2c-0.1,0.1-0.1,0.3-0.1,0.3
		c-0.1,0,0.1-0.3,0.3-0.3c0,0.2,0.2,0,0.2,0l0-0.1c0.1-0.1,0.2-0.1,0.3-0.1c-0.1,0.1-0.1,0-0.1,0.1c0.2-0.2,0,0.4,0.2,0.3
		c0,0.1-0.2,0.3-0.2,0.4c0.2-0.1,0,0.3,0.2,0.2c0.1-0.2,0.1-0.2,0.3-0.3l-0.3,0l0.3-0.2c-0.1,0-0.2,0-0.2,0c0.2-0.1,0.1-0.1,0.2-0.3
		c-0.1,0.4,0.3-0.1,0.3,0.2l-0.3,0.5c0,0.3,0.4-0.1,0.6,0.2l0-0.1c0.2-0.2,0.1,0.1,0.3,0c-0.1,0.2-0.1,0.2-0.2,0.4
		c0.1-0.1,0.1,0.1,0.4-0.2L85.5,41c0.1,0.2,0.5-0.4,0.6-0.2c-0.2,0.2-0.2,0.3-0.4,0.4c0.1,0,0.1,0.1,0.2,0c0,0.1,0.3-0.1,0.2,0.1
		c0.1-0.1,0.2-0.2,0.2-0.2c0,0-0.1,0.1-0.1,0.1c0.1-0.1,0.2-0.1,0.2-0.3c-0.2,0.6,0.5,0.2,0.3,0.8c0.2,0,0.3,0.1,0.4,0.1
		c0,0-0.1,0.1-0.1,0.1c0,0.2,0.4-0.4,0.4-0.2c-0.1,0.3-0.2,0.1-0.2,0.2c-0.3,0.6,0.2,0,0.2,0.4l0,0c0,0.2,0.3-0.1,0.5,0
		c0,0,0,0,0,0.1c0.3-0.2,0.5-0.2,0.7-0.2c-0.2,0.2-0.1,0.1-0.2,0.3c0.1,0,0.2-0.4,0.3-0.4c0,0.1,0,0.3-0.1,0.6l-0.1-0.1
		c-0.1,0.4,0.2,0.1,0.2,0.2L88.7,43c0.3,0.1,0.4-0.3,0.7-0.2l0-0.1c0.2-0.3,0.1,0.3,0.3,0l0,0.4c0.1,0,0.3-0.3,0.5-0.3
		c0,0.3-0.2,0.4-0.4,0.5c0.1,0.1,0.4,0.1,0.4-0.1c0,0-0.1,0.1-0.1,0c0.1-0.3,0.2-0.4,0.4-0.4c0.2,0.8,0.5,0.2,0.9,0.6
		c0.2-0.4,0.7-0.4,0.9-0.9c-0.6-0.2,0-0.1-0.5-0.5c0-0.1,0-0.1,0-0.1c0.1,0,0.3-0.1,0.4-0.1c0.2,0,0.1,0.2,0.2,0.2
		c0.1-0.2,0.3,0,0.5-0.1c-0.2-0.1-0.3-0.2-0.2-0.4c-0.1,0-0.2,0.1-0.3,0.1c-0.3-0.5,0.5-0.2,0.3-0.7l0.2,0.2c0-0.2,0-0.3-0.1-0.4
		c0-0.1-0.1-0.2-0.3-0.3c0.1,0,0.2,0,0.3,0c0.1-0.3-0.5-0.7-0.1-0.9l0.1,0c0-0.1-0.3-0.1-0.1-0.2c0.1,0,0.1,0,0.2,0
		c0,0-0.2-0.2-0.2-0.2l0.2,0.1c0.2-0.3-0.4-0.5-0.5-0.7c0.4,0,0.6-0.2,0.7-0.3l0.1,0c0.1-0.3-0.3-0.6-0.5-0.9
		c0.5-0.2,0.2-0.6,0.5-0.9c-0.1,0-0.3,0-0.4-0.1c0.1-0.1-0.3-0.2,0.1-0.2l0,0c0.4,0,0.3-0.2,0.3-0.3l-0.5,0c0.8-0.3-0.3-0.8,0.4-0.9
		C93,35.1,93,35,92.9,34.9l0.3,0c0.1-0.2,0.1-0.3,0-0.5l0.2,0.1c0-0.1-0.8-0.2-0.8-0.3l0.4,0c0-0.2,0.4-0.5,0-0.7c0.1,0,0.2,0,0.2,0
		c0-0.1,0.3-0.4-0.3-0.4c0.4,0,0-0.2-0.1-0.4l0.3,0c-0.4-0.1-0.5-0.1-0.6-0.2c0,0,0.2,0,0.2,0c0.1-0.1-0.3-0.1-0.1-0.2l0.2,0
		c0-0.1-0.1-0.1-0.3-0.2c-0.1-0.1,0.1-0.2,0.3-0.3c-0.2,0-0.4-0.1-0.3-0.1c0.1,0,0.2,0,0.2,0c0.2-0.2-0.3-0.3-0.1-0.4
		c0.1,0,0.1,0,0.2,0c0,0.2,0,0.3,0,0.3c0.3,0,0.3-0.1,0.7-0.1c-0.2-0.1-0.6-0.3-0.5-0.4c0,0,0,0,0.1,0l0,0c0,0,0-0.1,0-0.1
		c0,0,0.1-0.1,0.1-0.1c0.2,0,0.1-0.2,0.1-0.2c-0.3,0-0.2-0.1-0.5,0c0,0,0,0,0,0.1c0,0,0,0,0,0l0,0c0,0,0,0.1,0,0.2
		c-0.1,0-0.3-0.1-0.1-0.2c-0.2,0-0.4-0.1-0.5-0.1c0.4-0.1,0.6-0.3,0.8-0.3c-0.2-0.2-0.1-0.5-0.7-0.6c-0.1-0.1,0.1-0.1,0.2-0.1
		c0.1,0,0.1,0.1,0.1,0.1c-0.1-0.1-0.1-0.3-0.4-0.3c0.2-0.2,0.3,0.1,0.3-0.1l0.1,0c0.6-0.4-1-0.5-0.3-1c0,0-0.1,0.1-0.1,0.1
		c0.3-0.5-0.4-1,0-1.5c0.1-0.2-0.1-0.1-0.3-0.2l0.3-0.1l-0.4-0.1c-0.3-0.2,0.7-0.5,0.2-0.6l-0.2,0.1c0-0.1-0.2-0.3,0.1-0.3
		c0,0-0.2,0-0.1-0.1l0.2,0l-0.3-0.2c0.1-0.2,0.6-0.1,0.6-0.3c-0.1-0.1-0.5-0.2-0.6-0.1c0,0-0.1,0.1-0.2,0.1l-0.1-0.1
		C90.8,25,90.3,25,90,25.2l0.3,0.1l-0.2,0.1l0-0.1c-0.2,0.1,0,0.1,0.1,0.1c-0.1,0-0.2,0.1-0.2,0.1l0.5,0.1c-0.2,0-0.4,0-0.5,0.1
		c0.2,0,0.4-0.1,0.5,0c-0.2,0.1-0.4,0.1-0.2,0.2c-0.1,0-0.2,0-0.3,0c0.2,0.1,0.1,0.2,0.3,0.2c-0.2,0.1,0.1,0.2-0.3,0.3
		c0.1,0,0.4,0.1,0.4,0.1c-0.5,0,0,0.3-0.6,0.3c0.5,0,0.3,0.3,0.5,0.4c0,0-0.1,0-0.1,0c0,0.1-0.2,0.1-0.2,0.2c0.4,0,0.5,0.1,0.7,0.1
		c-0.4,0.2-0.5,0-0.8,0.1c0.3,0,0.3,0.2,0.6,0.1c-0.2,0.1-0.1,0.1-0.4,0.2c0.5,0,0.1,0.1,0.4,0.1c-0.2,0.1-0.5,0.1-0.3,0.2
		C90.2,28.2,90,28.1,90,28.1 M91.1,31.2L91.1,31.2C91.1,31.2,91,31.1,91.1,31.2C91,31.1,91.1,31.2,91.1,31.2 M91.1,31.5
		c0,0,0-0.1,0-0.1c0.1,0,0.2,0,0.2,0C91.2,31.4,91.2,31.4,91.1,31.5 M93,30.8C93,30.8,93,30.8,93,30.8c-0.1,0-0.1,0-0.1,0l0,0
		C92.9,30.8,93,30.8,93,30.8"/>
	<path class="st0" d="M92.6,30.7C92.6,30.7,92.6,30.7,92.6,30.7C92.6,30.7,92.6,30.7,92.6,30.7L92.6,30.7L92.6,30.7z"/>
	<path class="st0" d="M79.5,37L79.5,37C79.5,37,79.5,36.9,79.5,37C79.5,36.9,79.5,37,79.5,37"/>
	<polygon class="st0" points="90.6,35.2 90.7,35.2 90.6,35.2 	"/>
	<path class="st0" d="M78.4,35.5C78.4,35.5,78.4,35.5,78.4,35.5C78.4,35.5,78.4,35.5,78.4,35.5"/>
	<path class="st0" d="M77.8,35.3l-0.1-0.1C77.7,35.2,77.8,35.3,77.8,35.3"/>
	<path class="st0" d="M77.3,35c0,0,0,0.1,0,0.1l0,0L77.3,35z"/>
	<path class="st0" d="M84.9,38.2C84.9,38.2,84.9,38.2,84.9,38.2C85,38.2,84.9,38.2,84.9,38.2"/>
	<path class="st0" d="M82.5,37.5c0,0,0.1-0.1,0.1-0.1C82.6,37.4,82.6,37.4,82.5,37.5"/>
	<polygon class="st0" points="87.3,39.4 87.3,39.4 87.3,39.4 	"/>
	<path class="st0" d="M82.7,37.5C82.7,37.4,82.7,37.4,82.7,37.5C82.6,37.5,82.7,37.5,82.7,37.5"/>
	<path class="st0" d="M75,34.7L75,34.7C74.9,34.7,74.9,34.7,75,34.7L75,34.7z"/>
	<path class="st0" d="M74.9,34.7L74.9,34.7C74.9,34.7,74.9,34.7,74.9,34.7"/>
	<path class="st0" d="M74.9,34.8L74.9,34.8C74.9,34.7,74.9,34.7,74.9,34.8"/>
	<path class="st0" d="M75.7,34.8l0-0.1C75.7,34.7,75.7,34.7,75.7,34.8"/>
	<path class="st0" d="M75.9,34.8c0,0-0.1-0.2-0.2-0.2l0,0.1C75.8,34.5,75.9,35,75.9,34.8"/>
	<path class="st0" d="M76.6,36.1L76.5,36c0,0.1,0,0.3-0.1,0.3C76.5,36.7,76.4,36.1,76.6,36.1"/>
	<path class="st0" d="M77.1,36.4c-0.1,0,0,0.2-0.1,0.2C77.1,36.5,77.1,36.5,77.1,36.4"/>
	<path class="st0" d="M80.4,37.6l-0.1,0.2C80.4,37.9,80.4,37.8,80.4,37.6"/>
	<polygon class="st0" points="81.7,36.8 81.7,36.6 81.6,36.8 	"/>
	<polygon class="st0" points="81.2,38.6 81.2,38.6 81.3,38.6 	"/>
	<path class="st0" d="M86.6,41.8l0.2-0.3C86.7,41.6,86.5,41.9,86.6,41.8"/>
	<path class="st0" d="M89.4,43c0,0.2,0.1,0.3,0.2,0.2C89.5,43.1,89.4,43,89.4,43"/>
	<polygon class="st0" points="93.1,36 93.2,36 93.1,35.9 	"/>
</g>
</svg>
