<?xml version="1.0" encoding="utf-8"?>
<!-- Generator: Adobe Illustrator 19.0.0, SVG Export Plug-In . SVG Version: 6.00 Build 0)  -->
<svg version="1.1" id="Layer_1" xmlns="http://www.w3.org/2000/svg" xmlns:xlink="http://www.w3.org/1999/xlink" x="0px" y="0px"
	 viewBox="0 0 87.3 87.3" style="enable-background:new 0 0 87.3 87.3;" xml:space="preserve">
<style type="text/css">
	.st0{clip-path:url(#SVGID_2_);fill:#2E353F;}
	.st1{clip-path:url(#SVGID_2_);fill:#FFFFFF;}
</style>
<g>
	<defs>
		<rect id="SVGID_1_" y="0" width="87.3" height="87.3"/>
	</defs>
	<clipPath id="SVGID_2_">
		<use xlink:href="#SVGID_1_"  style="overflow:visible;"/>
	</clipPath>
	<path class="st0" d="M43.6,87.3C19.6,87.3,0,67.7,0,43.6C0,19.6,19.6,0,43.6,0c24.1,0,43.6,19.6,43.6,43.6
		C87.3,67.7,67.7,87.3,43.6,87.3 M43.6,1C20.1,1,1,20.1,1,43.6s19.1,42.6,42.6,42.6s42.6-19.1,42.6-42.6S67.1,1,43.6,1"/>
	<path class="st0" d="M67.9,57.4c-0.3,0-0.5-0.2-0.5-0.5c0-0.3,0.2-0.5,0.5-0.5c2.2-0.2,5.2-0.5,6.9-0.9c6-1.6,6-2.8,6-2.8
		c0-0.2-0.7-0.5-1.5-0.5c-1,0-3.3,0.2-6.1,0.4c-1.4,0.1-2.8,0.2-4.2,0.3c-0.3,0-0.5-0.2-0.5-0.5c0-0.3,0.2-0.5,0.5-0.5
		c1.4-0.1,2.9-0.2,4.2-0.3c2.7-0.2,5.1-0.4,6.1-0.4c1.1,0,2.3,0.5,2.4,1.4c0.2,1.3-2,2.6-6.8,3.9C73.3,57,70.2,57.3,67.9,57.4
		C67.9,57.4,67.9,57.4,67.9,57.4"/>
	<path class="st0" d="M55.5,52.7C55.5,52.7,55.5,52.7,55.5,52.7c-3-0.5-5-1.1-6.1-1.8c-2.8-1.7-8.2-3-11.1-3.5
		c-0.9-0.1-1.6-0.2-2.1-0.4c-0.2-0.1-0.4-0.3-0.3-0.6c0.1-0.2,0.3-0.4,0.6-0.4c0.1,0,1,0.2,2.4,0.4C45.2,47,60,46,61.8,44.9
		c2.3-1.4,2.2-3.7,2.1-4.4c-0.5-0.1-1.4,0.2-2.5,0.6c-1.8,0.7-4.2,1.6-7.4,1.7c-1.7,0.1-4.2,0-7-0.1c-9.8-0.3-24.6-0.7-27.7,5.1
		c-0.1,0.2-0.4,0.3-0.7,0.2c-0.2-0.1-0.3-0.4-0.2-0.7c3.4-6.3,17.9-5.9,28.6-5.6c2.8,0.1,5.2,0.1,6.9,0.1c3-0.1,5.4-1,7.1-1.6
		c1.6-0.6,2.8-1,3.6-0.4c0.1,0.1,0.2,0.2,0.2,0.3c0,0,0.9,3.7-2.5,5.7c-1.8,1-11.4,1.8-18.6,1.8C46,48.2,48.4,49,50,50
		c1,0.6,2.9,1.2,5.7,1.7c0.3,0,0.5,0.3,0.4,0.6C56,52.5,55.8,52.7,55.5,52.7"/>
	<path class="st0" d="M40.2,69.6c-5.3,0-9.7-1-12.8-2.1c-5.1-1.7-8.8-4.1-10.2-5.6c-0.2-0.2-0.2-0.5,0.1-0.7
		c0.2-0.2,0.5-0.2,0.7,0.1c2.5,2.9,14.2,9.1,28.3,6.9c0.3,0,0.5,0.1,0.6,0.4c0,0.3-0.1,0.5-0.4,0.6C44.2,69.5,42.1,69.6,40.2,69.6"
		/>
	<path class="st0" d="M1.4,53.1C1.2,53.1,1,53,1,52.8c-0.1-0.3,0.1-0.5,0.3-0.6c6.7-2,19.1-7.1,19.2-7.1c0.3-0.1,0.5,0,0.7,0.3
		c0.1,0.3,0,0.5-0.3,0.7C20.8,46,8.4,51.1,1.6,53.1C1.5,53.1,1.5,53.1,1.4,53.1"/>
	<path class="st0" d="M8.3,68.9c-0.2,0-0.4-0.1-0.5-0.3c-0.1-0.3,0-0.5,0.3-0.7c4.8-2.2,11.7-4.7,11.7-4.8c0.3-0.1,0.5,0,0.6,0.3
		c0.1,0.3,0,0.5-0.3,0.6c-0.1,0-6.9,2.6-11.7,4.8C8.5,68.9,8.4,68.9,8.3,68.9"/>
	<path class="st0" d="M33.6,55.8L33.6,55.8c-2.4-0.1-8.3-0.6-11-3.3c-0.2-0.2-0.2-0.5,0-0.7c0.2-0.2,0.5-0.2,0.7,0
		c1.7,1.7,5.5,2.8,10.3,3c0.3,0,0.5,0.2,0.5,0.5C34.1,55.6,33.9,55.8,33.6,55.8"/>
	<path class="st0" d="M62.2,53.6c-0.3,0-0.5-0.2-0.5-0.5c0-0.3,0.2-0.5,0.5-0.5c0,0,1.1-0.1,2.5-0.2c0.3,0,0.5,0.2,0.5,0.5
		c0,0.3-0.2,0.5-0.5,0.5C63.4,53.5,62.3,53.6,62.2,53.6C62.2,53.6,62.2,53.6,62.2,53.6"/>
	<path class="st0" d="M40.2,66.2c-0.1,0-0.2,0-0.3-0.1c-0.2-0.2-0.2-0.5-0.1-0.7c1.2-1.5,6.9-4.6,9.4-4.2c0.3,0,0.5,0.3,0.4,0.6
		s-0.3,0.5-0.6,0.4c-2.1-0.3-7.5,2.6-8.4,3.8C40.5,66.1,40.3,66.2,40.2,66.2"/>
	<path class="st1" d="M57.9,53.1c0.4-2.5,2.1-6.2,3.4-4.9c1.3,1.3,0.8,1.3,1,4.9c0.1,3.7,0.2,6.5-2.6,10s-7.3,5-11.6,4.9"/>
	<path class="st0" d="M48.5,68.5c-0.1,0-0.3,0-0.4,0c-0.3,0-0.5-0.2-0.5-0.5c0-0.3,0.2-0.5,0.5-0.5h0c4.6,0.1,8.8-1.6,11.2-4.7
		c2.7-3.5,2.6-6.3,2.5-9.6c0-0.9,0-1.6,0-2.2c0-1.6,0-1.6-0.8-2.4c-0.1-0.1-0.2-0.1-0.3-0.1c-0.8,0.2-1.9,2.6-2.2,4.7
		c0,0.3-0.3,0.5-0.6,0.4c-0.3,0-0.5-0.3-0.4-0.6c0.3-2,1.5-5.1,2.9-5.5c0.5-0.2,0.9,0,1.3,0.3c1.1,1.1,1.1,1.5,1.1,3.1
		c0,0.5,0,1.2,0,2.1c0.1,3.5,0.3,6.5-2.7,10.3C57.5,66.6,53.2,68.5,48.5,68.5"/>
	<path class="st0" d="M52.5,68c-0.2,0-0.4-0.1-0.5-0.4c-0.1-0.3,0.1-0.5,0.4-0.6c0.8-0.2,1.6-0.4,2.5-0.6c4-1,7.8-1.9,9.9-4.7
		c2.8-3.6,3.7-8.1,3.9-11.2l0-0.1c0.2-2.6,0.2-3.7-0.8-4.4c-0.2-0.1-0.2-0.1-0.3-0.1c-0.6,0.3-1.4,2.2-1.9,5.3
		c-0.4,2.8-2.9,6.1-3,6.2c-0.2,0.2-0.5,0.3-0.7,0.1c-0.2-0.2-0.3-0.5-0.1-0.7c0,0,2.4-3.3,2.8-5.8c0.2-1.6,1-5.4,2.5-6.1
		c0.3-0.1,0.8-0.2,1.3,0.2c1.5,1,1.4,2.6,1.2,5.2l0,0.1c-0.2,3.3-1.1,7.9-4.1,11.8c-2.4,3.1-6.5,4.1-10.5,5
		c-0.8,0.2-1.6,0.4-2.4,0.6C52.6,68,52.5,68,52.5,68"/>
	<path class="st1" d="M46.3,68.7c4.7-1.2,9.1-7.3,10-9.2c1.7-3.4,2.1-8.2,0.5-8.2c-1.6,0-3,4.6-4.2,6.2C51.4,59,49,60.3,48.3,64"/>
	<path class="st0" d="M46.3,69.2c-0.2,0-0.4-0.2-0.5-0.4c-0.1-0.3,0.1-0.5,0.4-0.6c4.6-1.2,8.9-7.3,9.7-8.9c1.4-2.9,1.8-6.4,1.2-7.4
		c-0.1-0.2-0.2-0.2-0.2-0.2c-0.8,0-1.8,2.1-2.4,3.5c-0.5,1-0.9,1.9-1.4,2.5c-0.3,0.4-0.7,0.8-1.2,1.3c-1.2,1.2-2.6,2.6-3.1,5.1
		c-0.1,0.3-0.3,0.4-0.6,0.4c-0.3-0.1-0.4-0.3-0.4-0.6c0.6-2.9,2.1-4.4,3.4-5.7c0.4-0.4,0.8-0.8,1.1-1.2c0.4-0.5,0.8-1.4,1.3-2.3
		c1-2,2-4.1,3.3-4.1c0.4,0,0.8,0.2,1.1,0.6c1,1.6,0.2,5.6-1.2,8.3c-1,2-5.4,8.2-10.4,9.5C46.4,69.2,46.3,69.2,46.3,69.2"/>
	<path class="st1" d="M35.6,43c-3.9-2.6-6.4-9.2-6.3-14.3c0.2-7.6,6.3-13.8,13.9-14c8-0.2,14.6,6.3,14.6,14.3c0,5-2.6,11.6-6.6,14.2
		v0.4c0,1.2-1,2.2-2.2,2.2H37.8c-1.2,0-2.2-1-2.2-2.2L35.6,43z"/>
	<path class="st0" d="M49.2,46.3H37.8c-1.5,0-2.7-1.2-2.7-2.7l0-0.3c-4.1-2.9-6.4-9.7-6.3-14.6c0.2-7.9,6.5-14.3,14.4-14.5
		c4-0.1,7.8,1.4,10.7,4.2c2.9,2.8,4.5,6.6,4.5,10.6c0,4.9-2.4,11.6-6.6,14.4v0.1C51.9,45.1,50.7,46.3,49.2,46.3 M43.6,15.2
		c-0.1,0-0.2,0-0.3,0C36,15.4,30,21.5,29.8,28.7c-0.1,4.6,2.2,11.3,6.1,13.9c0.1,0.1,0.2,0.2,0.2,0.4l0,0.6c0,0.9,0.8,1.7,1.7,1.7
		h11.3c0.9,0,1.7-0.8,1.7-1.7v-0.4c0-0.2,0.1-0.3,0.2-0.4c3.9-2.5,6.3-9.1,6.3-13.8c0-3.7-1.5-7.2-4.2-9.9
		C50.7,16.6,47.3,15.2,43.6,15.2"/>
	<path class="st1" d="M49.7,49.8h-12c-1.1,0-2-0.9-2-2c0-1.1,0.9-2,2-2h12c1.1,0,2,0.9,2,2C51.7,48.9,50.8,49.8,49.7,49.8"/>
	<path class="st0" d="M49.7,50.3h-12c-1.4,0-2.5-1.1-2.5-2.5c0-1.4,1.1-2.5,2.5-2.5h12c1.4,0,2.5,1.1,2.5,2.5
		C52.2,49.2,51.1,50.3,49.7,50.3 M37.7,46.3c-0.8,0-1.5,0.7-1.5,1.5s0.7,1.5,1.5,1.5h12c0.8,0,1.5-0.7,1.5-1.5s-0.7-1.5-1.5-1.5
		H37.7z"/>
	<path class="st1" d="M49.7,53.8h-12c-1.1,0-2-0.9-2-2c0-1.1,0.9-2,2-2h12c1.1,0,2,0.9,2,2C51.7,52.9,50.8,53.8,49.7,53.8"/>
	<path class="st0" d="M49.7,54.3h-12c-1.4,0-2.5-1.1-2.5-2.5c0-1.4,1.1-2.5,2.5-2.5h12c1.4,0,2.5,1.1,2.5,2.5
		C52.2,53.2,51.1,54.3,49.7,54.3 M37.7,50.3c-0.8,0-1.5,0.7-1.5,1.5c0,0.8,0.7,1.5,1.5,1.5h12c0.8,0,1.5-0.7,1.5-1.5
		c0-0.8-0.7-1.5-1.5-1.5H37.7z"/>
	<path class="st1" d="M41.6,53.8v0.7c0,1.1,0.9,2,2,2c1.1,0,2-0.9,2-2v-0.7H41.6z"/>
	<path class="st0" d="M43.6,57c-1.4,0-2.5-1.1-2.5-2.5v-0.7c0-0.3,0.2-0.5,0.5-0.5h4c0.3,0,0.5,0.2,0.5,0.5v0.7
		C46.1,55.9,45,57,43.6,57 M42.1,54.3v0.2c0,0.8,0.7,1.5,1.5,1.5c0.8,0,1.5-0.7,1.5-1.5v-0.2H42.1z"/>
	<path class="st1" d="M63.4,28.7c0,0,2.9,1.4,2.9,5.3c0-3.9,2.9-5.3,2.9-5.3s-2.9-1.2-2.9-5C66.4,27.4,63.4,28.7,63.4,28.7"/>
	<path class="st0" d="M66.4,34.5c-0.3,0-0.5-0.2-0.5-0.5c0-3.6-2.5-4.8-2.6-4.9c-0.2-0.1-0.3-0.3-0.3-0.5c0-0.2,0.1-0.4,0.3-0.5
		c0.1,0,2.6-1.2,2.6-4.5c0-0.3,0.2-0.5,0.5-0.5c0.3,0,0.5,0.2,0.5,0.5c0,3.4,2.6,4.5,2.6,4.5c0.2,0.1,0.3,0.3,0.3,0.4
		c0,0.2-0.1,0.4-0.3,0.5c-0.1,0.1-2.6,1.3-2.6,4.9C66.9,34.3,66.6,34.5,66.4,34.5 M64.4,28.7c0.6,0.5,1.4,1.3,2,2.6
		c0.5-1.3,1.4-2.1,2-2.6c-0.6-0.4-1.4-1.2-2-2.4C65.8,27.5,65,28.3,64.4,28.7"/>
	<path class="st1" d="M70.1,39c0,0,2.9,1.4,2.9,5.3c0-3.9,2.9-5.3,2.9-5.3S73,37.8,73,34C73,37.7,70.1,39,70.1,39"/>
	<path class="st0" d="M73,44.9c-0.3,0-0.5-0.2-0.5-0.5c0-3.6-2.5-4.8-2.6-4.9c-0.2-0.1-0.3-0.3-0.3-0.5c0-0.2,0.1-0.4,0.3-0.5
		c0.1,0,2.6-1.2,2.6-4.5c0-0.3,0.2-0.5,0.5-0.5c0.3,0,0.5,0.2,0.5,0.5c0,3.4,2.6,4.5,2.6,4.5c0.2,0.1,0.3,0.3,0.3,0.4
		c0,0.2-0.1,0.4-0.3,0.5c-0.1,0.1-2.6,1.3-2.6,4.9C73.5,44.6,73.3,44.9,73,44.9 M71,39c0.6,0.5,1.4,1.3,2,2.6c0.5-1.3,1.4-2.1,2-2.6
		c-0.6-0.4-1.4-1.2-2-2.4C72.5,37.8,71.6,38.6,71,39"/>
	<path class="st1" d="M18.9,31.6c0,0,2.9,1.4,2.9,5.3c0-3.9,2.9-5.3,2.9-5.3s-2.9-1.2-2.9-5C21.8,30.3,18.9,31.6,18.9,31.6"/>
	<path class="st0" d="M21.8,37.5c-0.3,0-0.5-0.2-0.5-0.5c0-3.6-2.5-4.8-2.6-4.9c-0.2-0.1-0.3-0.3-0.3-0.5c0-0.2,0.1-0.4,0.3-0.5
		c0.1,0,2.6-1.2,2.6-4.5c0-0.3,0.2-0.5,0.5-0.5c0.3,0,0.5,0.2,0.5,0.5c0,3.4,2.5,4.5,2.6,4.5c0.2,0.1,0.3,0.3,0.3,0.5
		c0,0.2-0.1,0.4-0.3,0.5c-0.1,0.1-2.6,1.3-2.6,4.9C22.3,37.2,22.1,37.5,21.8,37.5 M19.9,31.6c0.6,0.5,1.4,1.3,2,2.6
		c0.5-1.3,1.4-2.1,2-2.6c-0.6-0.4-1.4-1.2-2-2.4C21.3,30.4,20.5,31.2,19.9,31.6"/>
	<path class="st0" d="M45.4,45.9c-0.1,0-0.2,0-0.3-0.1c-0.2-0.1-0.3-0.5-0.2-0.7c1.2-2,4.4-7.4,4.5-9.1c0.1-0.6-0.2-1.2-0.6-1.7
		c-0.5-0.6-1.3-0.9-2.1-0.9c-0.8,0-1.5,0.3-2,0.9c-0.6,0.7-1.8,0.7-2.4,0c-0.5-0.6-1.2-0.9-2-0.9c-0.8,0-1.5,0.3-2.1,0.9
		c-0.4,0.5-0.7,1.1-0.6,1.7c0.2,1.7,3.3,7.2,4.5,9.1c0.1,0.2,0.1,0.5-0.2,0.7c-0.2,0.1-0.5,0.1-0.7-0.2C41,45,37,38.4,36.8,36.1
		c-0.1-0.9,0.2-1.8,0.9-2.5c0.7-0.8,1.7-1.2,2.8-1.2c1,0,2,0.4,2.7,1.2c0.2,0.2,0.6,0.2,0.9,0c0.7-0.8,1.7-1.2,2.7-1.2
		c1.1,0,2.1,0.4,2.8,1.2c0.6,0.7,0.9,1.6,0.9,2.5c-0.2,2.3-4.2,8.8-4.7,9.6C45.7,45.9,45.5,45.9,45.4,45.9"/>
</g>
</svg>
