<?xml version="1.0" encoding="utf-8"?>
<!-- Generator: Adobe Illustrator 19.0.0, SVG Export Plug-In . SVG Version: 6.00 Build 0)  -->
<svg version="1.1" id="Layer_1" xmlns="http://www.w3.org/2000/svg" xmlns:xlink="http://www.w3.org/1999/xlink" x="0px" y="0px"
	 viewBox="0 0 21.4 18.3" style="enable-background:new 0 0 21.4 18.3;" xml:space="preserve">
<style type="text/css">
	.st0{clip-path:url(#SVGID_2_);fill:none;stroke:#2E353F;stroke-linecap:round;stroke-linejoin:round;stroke-miterlimit:10;}
</style>
<g>
	<defs>
		<rect id="SVGID_1_" y="0" width="21.4" height="18.3"/>
	</defs>
	<clipPath id="SVGID_2_">
		<use xlink:href="#SVGID_1_"  style="overflow:visible;"/>
	</clipPath>
	<path class="st0" d="M10.7,3.5c0.5-0.5,1-1,1.5-1.5c2.6-2.6,6.9-1.7,8.3,1.6c0.8,1.9,0.4,4.1-1,5.5c-2.9,2.9-5.8,5.8-8.7,8.7
		c0,0,0,0-0.1,0.1c-0.1-0.1-0.1-0.1-0.2-0.2C7.7,14.9,4.9,12.1,2,9.2C0.6,7.7,0.1,6,0.8,4c0.6-1.9,2-3.1,4-3.5
		c1.6-0.3,3.1,0.2,4.3,1.3C9.7,2.4,10.1,3,10.7,3.5z"/>
</g>
</svg>
