<?xml version="1.0" encoding="UTF-8"?>
<svg width="36px" height="31px" viewBox="0 0 36 31">
    <g id="Page-1" stroke="none" stroke-width="1" fill="none" fill-rule="evenodd" stroke-linecap="round" stroke-linejoin="round">
        <g id="like-icon" transform="translate(1.000000, 1.000000)" stroke="#2E353F" stroke-width="2">
            <path d="M17.2388889,5.63888889 C18.0444444,4.83333333 18.85,4.02777778 19.6555556,3.22222222 C23.8444444,-0.966666667 30.7722222,0.483333333 33.0277778,5.8 C34.3166667,8.86111111 33.6722222,12.4055556 31.4166667,14.6611111 C26.7444444,19.3333333 22.0722222,24.0055556 17.4,28.6777778 C17.4,28.6777778 17.4,28.6777778 17.2388889,28.8388889 C17.0777778,28.6777778 17.0777778,28.6777778 16.9166667,28.5166667 C12.4055556,24.0055556 7.89444444,19.4944444 3.22222222,14.8222222 C0.966666667,12.4055556 0.161111111,9.66666667 1.28888889,6.44444444 C2.25555556,3.38333333 4.51111111,1.45 7.73333333,0.805555556 C10.3111111,0.322222222 12.7277778,1.12777778 14.6611111,2.9 C15.6277778,3.86666667 16.2722222,4.83333333 17.2388889,5.63888889 Z" id="Path"></path>
        </g>
    </g>
</svg>
