<?xml version="1.0" encoding="utf-8"?>
<!-- Generator: Adobe Illustrator 19.0.0, SVG Export Plug-In . SVG Version: 6.00 Build 0)  -->
<svg version="1.1" id="Layer_1" xmlns="http://www.w3.org/2000/svg" xmlns:xlink="http://www.w3.org/1999/xlink" x="0px" y="0px"
	 viewBox="0 0 87.3 87.3" style="enable-background:new 0 0 87.3 87.3;" xml:space="preserve">
<style type="text/css">
	.st0{clip-path:url(#SVGID_2_);fill:#2E353F;}
</style>
<g>
	<defs>
		<rect id="SVGID_1_" y="0" width="87.3" height="87.3"/>
	</defs>
	<clipPath id="SVGID_2_">
		<use xlink:href="#SVGID_1_"  style="overflow:visible;"/>
	</clipPath>
	<path class="st0" d="M43.6,87.3C19.6,87.3,0,67.7,0,43.6S19.6,0,43.6,0c24.1,0,43.6,19.6,43.6,43.6S67.7,87.3,43.6,87.3 M43.6,1
		C20.1,1,1,20.1,1,43.6s19.1,42.6,42.6,42.6s42.6-19.1,42.6-42.6S67.1,1,43.6,1"/>
	<path class="st0" d="M64.9,61.3c-0.5,0-1.1-0.1-1.6-0.4c-2.2-1-12.1-11.3-12.5-11.8c-0.2-0.2-0.2-0.5,0-0.7c0.2-0.2,0.5-0.2,0.7,0
		c2.8,2.9,10.5,10.8,12.2,11.5c1,0.5,2,0.3,2.6-0.3c0.7-0.8,0.6-2.2-0.4-3.7c-2.2-3.5-16.7-16.3-18.2-17.7c-1.4,0-3.2-1.1-4-1.6
		c-0.4,0.5-0.8,1.1-1.2,1.6c-1.8,2.5-3.6,4.8-6.3,5.7c-2.6,0.9-4.4,0.8-5.2-0.2c-0.3-0.4-0.8-1.3,0.1-2.9l0.5-1
		c1.3-2.4,2.7-4.8,5.1-7.1c3.6-3.6,7.5-3.8,11.8-3.8h0c1.8,0,3.3,0.4,4.9,0.9c2.2,0.6,4.5,1.3,8.2,1c3.8-0.3,18.7-9.6,18.8-9.7
		c0.2-0.1,0.5-0.1,0.7,0.2c0.1,0.2,0.1,0.5-0.2,0.7c-0.6,0.4-15.2,9.5-19.3,9.8c-3.8,0.3-6.3-0.4-8.5-1c-1.5-0.4-3-0.8-4.6-0.8h0
		c-4.1,0-7.7,0.3-11.1,3.6c-2.3,2.2-3.6,4.6-4.9,6.9l-0.5,1c-0.4,0.8-0.5,1.4-0.2,1.8c0.4,0.5,1.7,0.7,4.1-0.1
		c2.4-0.8,4-2.9,5.8-5.4c0.5-0.6,1-1.3,1.5-2c0.2-0.2,0.5-0.2,0.7-0.1c0.7,0.5,2.7,1.7,3.9,1.7c0.1,0,0.3,0,0.3,0.1
		c0.7,0.6,16.2,14.2,18.6,18c1.2,1.9,1.3,3.7,0.3,4.9C66.6,61,65.8,61.3,64.9,61.3"/>
	<path class="st0" d="M38.6,32.5C38.6,32.5,38.5,32.5,38.6,32.5c-5.2-0.6-8.4-0.6-11-0.7c-2.3-0.1-3.9-0.1-5.9-0.5
		C17.3,30.5,5.5,24.8,5,24.5c-0.2-0.1-0.4-0.4-0.2-0.7c0.1-0.2,0.4-0.4,0.7-0.2c0.1,0.1,12.3,5.9,16.5,6.7c1.8,0.3,3.5,0.4,5.7,0.4
		c2.6,0.1,5.8,0.1,11,0.7c0.3,0,0.5,0.3,0.4,0.6C39,32.4,38.8,32.5,38.6,32.5"/>
	<path class="st0" d="M59.6,65c-0.5,0-1-0.1-1.4-0.4C56.4,63.2,47,53.9,46.6,53.5c-0.2-0.2-0.2-0.5,0-0.7c0.2-0.2,0.5-0.2,0.7,0
		c0.1,0.1,9.7,9.7,11.5,11c0.6,0.5,1.7,0.2,2.4-0.6c0.4-0.4,1.5-1.9-0.3-4c-0.2-0.2-0.2-0.5,0.1-0.7c0.2-0.2,0.5-0.1,0.7,0.1
		c1.9,2.2,1.4,4.2,0.3,5.3C61.3,64.6,60.4,65,59.6,65"/>
	<path class="st0" d="M54.6,68.3c-0.6,0-1.1-0.1-1.5-0.5c-1.9-1.4-10.4-11-10.7-11.4c-0.2-0.2-0.2-0.5,0-0.7c0.2-0.2,0.5-0.2,0.7,0
		c0.1,0.1,8.8,9.9,10.6,11.2c0.7,0.5,2.1,0.2,2.9-0.6c0.9-1,0.8-2.3-0.3-3.6c-0.2-0.2-0.2-0.5,0.1-0.7c0.2-0.2,0.5-0.2,0.7,0.1
		c2.2,2.6,0.8,4.4,0.3,4.9C56.5,67.9,55.5,68.3,54.6,68.3"/>
	<path class="st0" d="M48.8,69.1c-0.2,0-0.4,0-0.6-0.1c-1.4-0.3-3.8-2.4-4-2.6c-0.2-0.2-0.2-0.5,0-0.7c0.2-0.2,0.5-0.2,0.7,0
		c0.7,0.6,2.6,2.2,3.6,2.4c0.6,0.1,1.2,0,1.8-0.4c0.6-0.4,0.9-1,1-1.6c0-0.3,0.3-0.5,0.5-0.4c0.3,0,0.5,0.3,0.4,0.5
		c-0.1,0.9-0.6,1.8-1.4,2.3C50.1,68.8,49.4,69.1,48.8,69.1"/>
	<path class="st0" d="M65.1,54.5c-0.2,0-0.3-0.1-0.4-0.2c-0.2-0.2-0.1-0.5,0.1-0.7c0.8-0.6,18.9-13.9,21.5-14.9
		c0.3-0.1,0.5,0,0.6,0.3c0.1,0.3,0,0.5-0.3,0.6c-2,0.8-14.8,10-21.3,14.8C65.3,54.5,65.2,54.5,65.1,54.5"/>
	<path class="st0" d="M29.1,58.9c-0.8,0-1.8-0.5-2.5-1.2c-0.9-0.9-1.1-1.8-0.7-2.5v0c1-1.6,3.3-3.2,4.9-3.4c0.9-0.1,1.4,0.2,1.7,0.5
		c0.5,0.5,0.7,1.2,0.6,2c-0.2,1.6-1.4,3.3-3.1,4.4C29.6,58.8,29.4,58.9,29.1,58.9 M26.7,55.7c-0.2,0.2,0.1,0.8,0.6,1.3
		c0.7,0.7,1.7,1.1,2.1,0.8c1.7-1,2.6-2.6,2.7-3.6c0-0.4,0-0.9-0.3-1.2c-0.2-0.2-0.6-0.2-0.8-0.2C29.6,53,27.6,54.4,26.7,55.7"/>
	<path class="st0" d="M32.7,63c-0.8,0-1.7-0.6-2.3-1.2c-0.9-0.9-1.7-2.2-1.1-3.1c1.1-1.7,4-4,5.8-4.2c0.7-0.1,1.2,0.2,1.4,0.4
		c0.4,0.4,0.6,1.2,0.5,2.1c-0.2,1.9-1.6,4.7-3.6,5.9C33.2,62.9,32.9,63,32.7,63 M30.1,59.1c-0.2,0.3,0.2,1.1,1,1.9
		c0.8,0.8,1.5,1.1,1.8,0.9c1.7-1,2.9-3.5,3.1-5.1c0.1-0.6,0-1.1-0.2-1.3c-0.1-0.1-0.4-0.1-0.6-0.1C33.7,55.5,31,57.6,30.1,59.1"/>
	<path class="st0" d="M41.7,68.7c-0.8,0-1.5-0.3-2-0.8c-1-0.9-1.2-2.1-0.6-3c1-1.7,3.5-4.2,5.2-4.4c0.6-0.1,1,0.2,1.2,0.4
		c0.5,0.5,0.7,1.2,0.6,2.1c-0.1,1.5-1,3.8-2.8,5.2C42.7,68.5,42.2,68.7,41.7,68.7 M44.4,61.4c0,0-0.1,0-0.1,0
		c-1.2,0.1-3.4,2.3-4.4,4c-0.4,0.6,0,1.3,0.5,1.7c0.6,0.5,1.5,0.8,2.3,0.2c1.6-1.2,2.4-3.2,2.4-4.5c0-0.6-0.1-1.1-0.3-1.4
		C44.6,61.5,44.6,61.4,44.4,61.4 M39.4,65.2L39.4,65.2L39.4,65.2z"/>
	<path class="st0" d="M37.1,66.1c-0.9,0-1.8-0.5-2.5-1.1c-1.3-1.2-1.6-2.7-0.7-3.8c1.4-1.7,5.9-5.5,7.9-4.1c0.7,0.5,1,1.1,1.1,1.8
		c0.1,2.1-2.3,4.6-4.4,6.6C38.1,66,37.6,66.1,37.1,66.1 M40.7,57.8c-1.5,0-4.6,2.2-6,4c-0.7,0.8-0.1,1.8,0.6,2.5
		c0.8,0.7,2,1.2,2.6,0.6c1-1,4.2-4,4.1-5.8c0-0.4-0.2-0.8-0.6-1.1C41.1,57.8,40.9,57.8,40.7,57.8 M34.2,61.5L34.2,61.5L34.2,61.5z"
		/>
	<path class="st0" d="M26.8,55.3c-0.1,0-0.3-0.1-0.4-0.2c-0.9-1-16.5-7.3-26.1-11C0.1,44-0.1,43.7,0,43.4s0.4-0.4,0.6-0.3
		c4.2,1.6,25.3,9.9,26.5,11.3c0.2,0.2,0.2,0.5,0,0.7C27,55.3,26.9,55.3,26.8,55.3"/>
</g>
</svg>
