<?xml version="1.0" encoding="utf-8"?>
<!-- Generator: Adobe Illustrator 19.0.0, SVG Export Plug-In . SVG Version: 6.00 Build 0)  -->
<svg version="1.1" id="Layer_1" xmlns="http://www.w3.org/2000/svg" xmlns:xlink="http://www.w3.org/1999/xlink" x="0px" y="0px"
	 viewBox="0 0 87.3 87.3" style="enable-background:new 0 0 87.3 87.3;" xml:space="preserve">
<style type="text/css">
	.st0{clip-path:url(#SVGID_2_);fill:none;stroke:#2E353F;stroke-linecap:round;stroke-linejoin:round;stroke-miterlimit:10;}
	.st1{clip-path:url(#SVGID_2_);fill:#FFFFFF;}
</style>
<g>
	<defs>
		<rect id="SVGID_1_" y="0" width="87.3" height="87.3"/>
	</defs>
	<clipPath id="SVGID_2_">
		<use xlink:href="#SVGID_1_"  style="overflow:visible;"/>
	</clipPath>
	<circle class="st0" cx="43.6" cy="43.6" r="43.1"/>
	<path class="st0" d="M18.3,52.4c-4.2-0.3-8.8-0.7-10.3-0.7c-2,0-4.6,1.8,4.4,4.3c1.6,0.4,4.5,0.7,6.9,0.9"/>
	<path class="st0" d="M68.4,47.6c-4.1-7.7-24.1-6.9-32.1-7.3c-5.9-0.3-9.1-3.1-10.4-2.2c0,0-0.8,3.3,2.3,5.1
		c2.4,1.4,19.1,4.4,22.6,3.1c0,0-9.3,1.5-13.3,4c-1.3,0.8-3.8,1.4-5.8,1.7"/>
	<path class="st0" d="M47.1,65.7c-1.1-1.4-6.7-4.4-8.9-4"/>
	<path class="st0" d="M41,68.7c-4.7-1.2-9.1-7.3-10-9.2c-1.7-3.4-2.1-8.2-0.5-8.2c1.6,0,3,4.6,4.2,6.2c1.2,1.5,3.7,2.9,4.4,6.6"/>
	<path class="st0" d="M29.4,53.1C29,50.6,27.3,47,26,48.2c-1.3,1.3-0.8,1.3-1,4.9c-0.1,3.7-0.2,6.5,2.6,10c2.7,3.5,7.3,5,11.6,4.9"
		/>
	<path class="st0" d="M69.7,61.6c-2.6,3-14.4,9.3-28.7,7"/>
	<path class="st0" d="M85.8,52.6c-6.9-2-19.3-7.2-19.3-7.2"/>
	<path class="st0" d="M78.9,68.4c-4.8-2.2-11.7-4.8-11.7-4.8"/>
	<path class="st0" d="M64.3,52.2c-4.1,4.1-18.6,3.9-21.2,1.2"/>
	<path class="st0" d="M22.6,52.9c1.4,0.1,2.5,0.2,2.5,0.2"/>
	<path class="st1" d="M21,46.5c14.2,0,23.9,5,39.9,0.8l15.3-11.8c-19.5,5.1-29.7-3.4-49.9,0L11,47.3c2.5-0.4,4.9-0.7,7.1-0.8"/>
	<path class="st0" d="M21,46.5c14.2,0,23.9,5,39.9,0.8l15.3-11.8c-19.5,5.1-29.7-3.4-49.9,0L11,47.3c2.5-0.4,4.9-0.7,7.1-0.8"/>
	<path class="st1" d="M11,40.2c20.2-3.4,30.4,5.1,49.9,0l15.3-11.8c-19.5,5.1-29.7-3.4-49.9,0L11,40.2z"/>
	<path class="st0" d="M11,40.2c20.2-3.4,30.4,5.1,49.9,0l15.3-11.8c-19.5,5.1-29.7-3.4-49.9,0L11,40.2z"/>
	<path class="st1" d="M11,33c20.2-3.4,30.4,5.1,49.9,0l15.3-11.8c-19.5,5.1-29.7-3.4-49.9,0L11,33z"/>
	<path class="st0" d="M11,33c20.2-3.4,30.4,5.1,49.9,0l15.3-11.8c-19.5,5.1-29.7-3.4-49.9,0L11,33z"/>
	<path class="st0" d="M34.8,67.5c-4.8-1.3-9.9-1.9-12.7-5.5c-2.8-3.5-3.8-7.9-4-11.5c-0.2-2.6-0.3-4,1-4.9c1.5-1,2.6,2.6,3,5.6
		c0.4,2.7,2.9,6,2.9,6"/>
</g>
</svg>
