<?xml version="1.0" encoding="utf-8"?>
<!-- Generator: Adobe Illustrator 19.0.0, SVG Export Plug-In . SVG Version: 6.00 Build 0)  -->
<svg version="1.1" id="Layer_1" xmlns="http://www.w3.org/2000/svg" xmlns:xlink="http://www.w3.org/1999/xlink" x="0px" y="0px"
	 viewBox="0 0 87.3 87.3" style="enable-background:new 0 0 87.3 87.3;" xml:space="preserve">
<style type="text/css">
	.st0{clip-path:url(#SVGID_2_);fill:#2E353F;}
</style>
<g>
	<defs>
		<rect id="SVGID_1_" y="0" width="87.3" height="87.3"/>
	</defs>
	<clipPath id="SVGID_2_">
		<use xlink:href="#SVGID_1_"  style="overflow:visible;"/>
	</clipPath>
	<path class="st0" d="M43.6,87.3C19.6,87.3,0,67.7,0,43.6S19.6,0,43.6,0s43.6,19.6,43.6,43.6S67.7,87.3,43.6,87.3 M43.6,1
		C20.1,1,1,20.1,1,43.6s19.1,42.6,42.6,42.6s42.6-19.1,42.6-42.6S67.1,1,43.6,1"/>
	<path class="st0" d="M15.7,77c-0.1,0-0.1,0-0.2,0c-0.2-0.1-0.4-0.4-0.2-0.7c0.4-0.7,0.6-1.4,0.8-1.9c2.5-7.7,7.3-17.4,11.7-21.1
		c2-1.7,4.3-3,6.5-4.2c2-1.1,4-2.2,5.8-3.6c2.1-1.6,4.2-3,5.2-2c0.4,0.4,0.6,1.1,0.5,1.9c-0.1,1.4-0.9,3.6-3.1,5.3
		c-0.7,0.5-1.5,1.1-2.4,1.7c-2.9,2-6.6,4.4-7,7.5c2.2-0.5,9.5-2.6,15.2-7.2c5.4-4.4,7.1-7.1,8.3-9.1c0.3-0.5,0.6-1,1-1.5
		c0.2-0.3,0.4-0.6,0.7-1c1.7-2.5,4.3-6.3,7.5-4.5c0.2,0.1,0.3,0.4,0.2,0.6c-0.1,0.4-3.1,9.1-5.5,13c-2.6,4.1-10.5,9.8-13.5,11
		c-0.3,0.1-0.5,0-0.7-0.3c-0.1-0.3,0-0.5,0.3-0.7c2.8-1.1,10.6-6.7,13-10.6c2.1-3.4,4.7-10.6,5.3-12.4c-2.1-0.8-3.9,1.6-5.8,4.3
		c-0.3,0.4-0.5,0.7-0.7,1c-0.3,0.4-0.6,0.9-0.9,1.4c-1.3,2-3,4.8-8.5,9.3C42.3,59,33.3,60.9,33,61c-0.1,0-0.3,0-0.4-0.1
		c-0.1-0.1-0.2-0.2-0.2-0.4c0-3.9,4.1-6.7,7.5-9c0.9-0.6,1.7-1.1,2.3-1.6c1.9-1.5,2.6-3.4,2.7-4.6c0-0.6-0.1-1-0.2-1.1
		c0,0-0.5-0.5-3.9,2.1c-1.9,1.5-4,2.6-6,3.7c-2.3,1.3-4.5,2.5-6.3,4.1c-4.3,3.6-9,13.2-11.4,20.7c-0.2,0.5-0.5,1.2-0.8,2
		C16,76.9,15.9,77,15.7,77"/>
	<path class="st0" d="M53.8,49C53.8,49,53.7,49,53.8,49c-4.3-0.8-6.3-3-6-6.4c0-0.3,0.3-0.5,0.5-0.4c0.8,0,7.4,0.5,9,1.7
		c0.2,0.2,0.3,0.5,0.1,0.7c-0.2,0.2-0.5,0.3-0.7,0.1c-1.1-0.8-5.7-1.3-8-1.5c-0.1,2.6,1.7,4.2,5.1,4.9c0.3,0.1,0.5,0.3,0.4,0.6
		C54.2,48.8,54,49,53.8,49"/>
	<path class="st0" d="M52,64c-0.2,0-0.4-0.1-0.4-0.3c-0.1-0.2,0-0.5,0.2-0.7c1.4-0.7,9.1-7.5,9.9-9.5c1.5-3.8,1.5-5.5,0.1-6.2
		c-0.3-0.1-0.4-0.4-0.3-0.7c0.1-0.3,0.4-0.4,0.7-0.3c2.6,1.1,1.6,4.4,0.5,7.4c-0.9,2.4-9,9.3-10.4,10.1C52.1,64,52.1,64,52,64"/>
	<path class="st0" d="M34.3,86.2c-0.1,0-0.3-0.1-0.4-0.2c-0.2-0.2-0.1-0.5,0.1-0.7c4.2-3.3,8.2-5.2,9.3-5.7c3.9-1.8,6.3-2.7,8.8-3.6
		c0.9-0.3,1.9-0.7,2.9-1.1c3.8-1.5,13.1-10.9,14.3-12.2c0.2-0.2,0.2-0.3,0.3-0.4c-0.2-0.1-0.8-0.1-1.5,0c-2.9,0.5-6.3,3.7-8.5,5.7
		c-1.1,1-1.8,1.7-2.3,2c-1.7,0.9-5,0.1-5.4,0c-0.2,0-0.3-0.2-0.4-0.4c0-0.2,0-0.4,0.2-0.5c4.6-3.3,12.7-10,12.7-11.6
		c0-2.3-2.5-3.4-2.5-3.4c-0.3-0.1-0.4-0.4-0.2-0.7c0.1-0.2,0.4-0.4,0.7-0.3c0.1,0.1,3.1,1.4,3.1,4.4c0,2.4-9.2,9.5-12.2,11.7
		c1.2,0.2,2.8,0.3,3.6-0.2c0.4-0.2,1.2-1,2.1-1.8c2.3-2.1,5.8-5.4,9-6c0.5-0.1,2.1-0.3,2.6,0.5c0.2,0.4,0.1,0.9-0.5,1.5
		c-0.1,0.1-10.3,10.8-14.7,12.5c-1.1,0.4-2,0.8-2.9,1.1c-2.5,0.9-4.8,1.8-8.7,3.6c-1.1,0.5-5,2.4-9.1,5.6
		C34.5,86.2,34.4,86.2,34.3,86.2"/>
	<path class="st0" d="M44.7,41.9c-2.8,0-5.6-1.2-7.4-4.2c-2.6-4.4-1.8-8.9-1-13.6c0.8-4.6,1.6-9.3-0.6-14.2c-0.1-0.2,0-0.4,0.1-0.6
		c0.2-0.1,0.4-0.2,0.6,0c0.6,0.4,14.9,9.5,17.9,20c1.7,5.8-1.6,10.1-5.6,11.8C47.5,41.6,46.1,41.9,44.7,41.9 M37.2,11
		c1.5,4.6,0.8,9,0.1,13.3c-0.8,4.6-1.5,8.9,0.9,12.9c2.4,4,6.8,4.4,10.2,2.9c3.6-1.5,6.5-5.4,5-10.6C51,21.2,40.8,13.6,37.2,11"/>
	<path class="st0" d="M46.4,41.8c0,0-0.1,0-0.1,0c-0.3-0.1-0.4-0.3-0.4-0.6c2.4-11.6-6.5-28-10.1-31c-0.2-0.2-0.2-0.5-0.1-0.7
		c0.2-0.2,0.5-0.2,0.7-0.1c4.2,3.6,13,20.2,10.5,32C46.9,41.6,46.7,41.8,46.4,41.8"/>
	<path class="st0" d="M43.5,22.4c-0.1,0-0.1,0-0.2,0l-6-2.5c-0.3-0.1-0.4-0.4-0.3-0.7c0.1-0.3,0.4-0.4,0.7-0.3l5.6,2.3l1.8-4.3
		c0.1-0.3,0.4-0.4,0.7-0.3c0.3,0.1,0.4,0.4,0.3,0.7l-2,4.8C43.9,22.3,43.7,22.4,43.5,22.4"/>
	<path class="st0" d="M45.2,33.8c-4.2,0-9.2-4-9.4-4.2c-0.2-0.2-0.2-0.5-0.1-0.7c0.2-0.2,0.5-0.2,0.7-0.1c0.1,0,6.1,4.9,10.1,3.8
		c2-0.6,4.1-6,4.7-8.1c0.1-0.3,0.4-0.4,0.6-0.3c0.3,0.1,0.4,0.4,0.3,0.6c-0.2,0.8-2.5,7.9-5.4,8.7C46.2,33.7,45.7,33.8,45.2,33.8"/>
	<path class="st0" d="M47.9,54.2c-0.3,0-0.5-0.2-0.5-0.5c-0.1-6.7-0.4-11.1-0.6-12.1c-0.1-0.3,0.1-0.5,0.4-0.6
		c0.3-0.1,0.5,0.1,0.6,0.3c0.4,1.4,0.6,7.5,0.7,12.3C48.4,53.9,48.2,54.2,47.9,54.2L47.9,54.2z"/>
	<path class="st0" d="M46,55.6C46,55.6,45.9,55.6,46,55.6c-0.3,0-0.5-0.3-0.5-0.6c0.6-4-0.3-13.5-0.3-13.6c0-0.3,0.2-0.5,0.5-0.5
		c0.3,0,0.5,0.2,0.5,0.5c0,0.4,0.9,9.7,0.3,13.8C46.5,55.4,46.2,55.6,46,55.6"/>
</g>
</svg>
