<?xml version="1.0" encoding="UTF-8"?>
<svg width="171px" height="55px" viewBox="0 0 171 55" version="1.1" xmlns="http://www.w3.org/2000/svg" xmlns:xlink="http://www.w3.org/1999/xlink">
    <!-- Generator: Sketch 53.2 (72643) - https://sketchapp.com -->
    <title>PepperLogoRosa</title>
    <desc>Created with Sketch.</desc>
    <g id="Page-1" stroke="none" stroke-width="1" fill="none" fill-rule="evenodd">
        <g id="PepperLogoRosa" fill="#E5B593" fill-rule="nonzero">
            <path d="M7.7,32.8 L7.7,33.1 C7.7,33.1 8.9,33.3 9.7,33.5 C10.4,33.7 14.7,34.6 14.7,39.5 C14.7,43.5 11.9,45.1 10.4,45.6 C9.2,46 7.7,46 7.7,46 L7.7,46.4 L9.7,46.4 C9.7,46.4 18.3,46 18.3,39.7 C18.2,33.6 12,32.6 7.7,32.8 L7.7,32.8 Z M6.1,32.8 L0.5,32.8 L0.5,33.2 L2.8,33.4 L2.8,54.4 L0.5,54.6 L0.5,55 L8.3,55 L8.3,54.6 L6.1,54.4 L6.1,32.8 Z M29.4,33 L31.7,33.3 L31.7,54.3 L29.5,54.5 L29.5,55 L35,55 L35,32.7 L29.5,32.7 L29.5,33 L29.4,33 Z M135.5,38.7 L135.9,38.7 L135.7,32.7 L125.2,32.7 L125.2,33 L129.4,33.2 C129.4,33.2 134.9,33.2 135.5,38.7 L135.5,38.7 Z M39.5,43.7 L36.7,43.8 L36.7,44.2 L39.4,44.3 C39.4,44.3 42.4,44.1 42.5,48.1 L42.9,48.1 L42.9,40 L42.4,40 C42.5,40 42.4,43.7 39.5,43.7 L39.5,43.7 Z M66.1,32.8 L60.5,32.8 L60.5,33.2 L62.8,33.4 L62.8,54.4 L60.5,54.6 L60.5,55 L68.3,55 L68.3,54.6 L66.1,54.4 L66.1,32.8 Z M128.1,43.7 L125.3,43.8 L125.3,44.2 L128,44.3 C128,44.3 131,44.1 131.1,48.1 L131.5,48.1 L131.5,40 L131,40 C131.1,40 130.9,43.7 128.1,43.7 L128.1,43.7 Z M46.8,38.7 L47.2,38.7 L47,32.7 L36.6,32.7 L36.6,33 L40.8,33.2 C40.8,33.2 46.2,33.2 46.8,38.7 L46.8,38.7 Z M41.5,54.4 L36.5,54.5 L36.5,54.9 L47.8,54.9 L48,48.9 L47.6,48.9 C47,54.5 41.5,54.4 41.5,54.4 L41.5,54.4 Z M130.1,54.4 L125.1,54.5 L125.1,54.9 L136.4,54.9 L136.6,48.9 L136.2,48.9 C135.6,54.5 130.1,54.4 130.1,54.4 L130.1,54.4 Z M154.6,32.8 L149,32.8 L149,33.2 L151.3,33.4 L151.3,54.4 L149,54.6 L149,55 L156.8,55 L156.8,54.6 L154.6,54.4 C154.6,54.4 154.6,32.8 154.6,32.8 Z M167,39.4 C167,33.6 160.8,32.6 156.4,32.7 L156.4,33 C156.4,33 157.6,33.2 158.4,33.4 C159.1,33.6 163.4,34.5 163.4,39.4 C163.4,43.4 160.6,45 159.1,45.5 C157.9,45.9 156.4,45.9 156.4,45.9 L156.4,46.3 L158.4,46.3 C158.4,46.2 167,45.9 167,39.4 L167,39.4 Z M68,32.8 L68,33.1 C68,33.1 69.2,33.3 70,33.5 C70.7,33.7 75,34.6 75,39.5 C74.9,43.5 72.2,45.1 70.7,45.6 C69.5,46 68,46 68,46 L68,46.4 L70,46.4 C70,46.4 78.6,46 78.6,39.7 C78.5,33.6 72.3,32.6 68,32.8 L68,32.8 Z M166.5,51.5 C165.6,48.2 165,46.7 158.5,46.7 L158.5,46.8 C158.5,46.8 161.8,46.7 162.5,49.2 C163.2,51.4 163.7,55 166.8,55 L170.5,55 L170.5,54.6 C170.5,54.6 167.4,54.8 166.5,51.5 L166.5,51.5 Z M94.8,32.8 L89.2,32.8 L89.2,33.2 L91.5,33.4 L91.5,54.4 L89.2,54.6 L89.2,55 L97,55 L97,54.6 L94.8,54.4 L94.8,32.8 L94.8,32.8 Z M118,33 L120.3,33.3 L120.3,54.3 L118.1,54.5 L118.1,55 L123.6,55 L123.6,32.7 L118.1,32.7 L118,33 L118,33 Z M96.3,32.8 L96.3,33.1 C96.3,33.1 97.5,33.3 98.3,33.5 C99,33.7 103.3,34.6 103.3,39.5 C103.3,43.5 100.5,45.1 99,45.6 C97.8,46 96.3,46 96.3,46 L96.3,46.4 L98.3,46.4 C98.3,46.4 106.9,46 106.9,39.7 C106.8,33.6 100.7,32.6 96.3,32.8 L96.3,32.8 Z" id="Shape"></path>
            <path d="M79.5,0.2 L79.5,0.6 C79.5,0.6 80.9,0.8 81.7,1 C82.5,1.2 87.5,2.3 87.5,8.1 C87.5,12.8 84.2,14.7 82.5,15.3 C81.1,15.7 79.4,15.7 79.4,15.7 L79.4,16.2 L81.7,16.2 C81.7,16.2 91.6,15.8 91.6,8.2 C91.7,1.2 84.5,0.1 79.5,0.2" id="Path"></path>
        </g>
    </g>
</svg>
