<?xml version="1.0" encoding="utf-8"?>
<!-- Generator: Adobe Illustrator 19.0.0, SVG Export Plug-In . SVG Version: 6.00 Build 0)  -->
<svg version="1.1" id="Layer_1" xmlns="http://www.w3.org/2000/svg" xmlns:xlink="http://www.w3.org/1999/xlink" x="0px" y="0px"
	 viewBox="0 0 18.3 18.3" style="enable-background:new 0 0 18.3 18.3;" xml:space="preserve">
<style type="text/css">
	.st0{clip-path:url(#SVGID_2_);fill:none;stroke:#2E353F;stroke-linecap:round;stroke-linejoin:round;stroke-miterlimit:10;}
	.st1{clip-path:url(#SVGID_2_);fill:#2E353F;}
</style>
<g>
	<defs>
		<rect id="SVGID_1_" y="0" width="18.3" height="18.3"/>
	</defs>
	<clipPath id="SVGID_2_">
		<use xlink:href="#SVGID_1_"  style="overflow:visible;"/>
	</clipPath>
	<circle class="st0" cx="9.2" cy="9.2" r="8.7"/>
	<path class="st1" d="M9.6,3.5c0.9,0,1.9,0.3,2.7,1c1.1,0.9,1.6,2,1.5,3.4c-0.1,1-0.3,1.9-0.8,2.8c-0.6,1-1.4,1.5-2.5,1.6
		c-0.4,0.1-0.9,0.1-1.3-0.1C9,12.1,8.7,12,8.6,11.7c0,0,0-0.1-0.1-0.1c0,0-0.1-0.1-0.1-0.1c0,0-0.1,0.1-0.1,0.1
		c-0.2,0.8-0.4,1.6-0.7,2.3c-0.1,0.4-0.3,0.7-0.5,1c0,0.1-0.1,0.1-0.2,0.1c-0.2,0-0.4,0-0.5,0c-0.1,0-0.1,0-0.1-0.1
		c-0.1-0.8,0-1.5,0.2-2.3C6.8,12,7,11.2,7.2,10.4c0.1-0.3,0.1-0.5,0.1-0.8c0.1-0.4,0-0.8-0.1-1.1c-0.1-0.4-0.1-0.7,0-1.1
		c0.2-0.6,0.6-1,1.2-1.1c0.4-0.1,0.7,0.1,0.8,0.4C9.5,7.1,9.5,7.5,9.4,8C9.3,8.4,9.1,8.8,9,9.2C8.9,9.5,8.8,9.7,8.8,10
		c0,0.6,0.3,1.1,1,1.1c0.7,0.1,1.3-0.2,1.7-0.8c0.4-0.5,0.6-1.1,0.6-1.8c0.1-0.6,0.1-1.3-0.1-1.9c-0.1-0.5-0.3-0.9-0.7-1.3
		C10.9,5,10.4,4.7,9.9,4.6c-1.2-0.2-2.2,0.2-3.1,1C6.3,6.2,6,6.8,5.9,7.5c-0.1,0.5,0,1.1,0.2,1.6c0.1,0.2,0.2,0.5,0.3,0.7
		c0.1,0.3-0.1,0.5-0.3,0.7c0,0-0.1,0-0.1,0c-0.8-0.3-1.3-1-1.5-1.9C4.2,6.6,5.2,4.8,7.2,3.9C7.9,3.6,8.6,3.5,9.6,3.5"/>
</g>
</svg>
