<?xml version="1.0" encoding="utf-8"?>
<!-- Generator: Adobe Illustrator 19.0.0, SVG Export Plug-In . SVG Version: 6.00 Build 0)  -->
<svg version="1.1" id="Layer_1" xmlns="http://www.w3.org/2000/svg" xmlns:xlink="http://www.w3.org/1999/xlink" x="0px" y="0px"
	 viewBox="0 0 87.3 87.3" style="enable-background:new 0 0 87.3 87.3;" xml:space="preserve">
<style type="text/css">
	.st0{clip-path:url(#SVGID_2_);fill:#2E353F;}
</style>
<g>
	<defs>
		<rect id="SVGID_1_" y="0" width="87.3" height="87.3"/>
	</defs>
	<clipPath id="SVGID_2_">
		<use xlink:href="#SVGID_1_"  style="overflow:visible;"/>
	</clipPath>
	<path class="st0" d="M43.6,87.3C19.6,87.3,0,67.7,0,43.6C0,19.6,19.6,0,43.6,0c24.1,0,43.6,19.6,43.6,43.6
		C87.3,67.7,67.7,87.3,43.6,87.3 M43.6,1C20.1,1,1,20.1,1,43.6s19.1,42.6,42.6,42.6s42.6-19.1,42.6-42.6S67.1,1,43.6,1"/>
	<path class="st0" d="M63.7,82.3c-0.2,0-0.4-0.1-0.5-0.3c-1.9-5.8-8.4-25.2-12.9-28.9c-1.9-1.6-4.1-2.8-6.3-4.1
		c-2-1.1-4.1-2.3-6-3.7c-3.3-2.5-3.8-2.2-3.9-2.1c-0.1,0.1-0.3,0.5-0.2,1.2c0.1,1.2,0.8,3.1,2.7,4.6c0.6,0.5,1.4,1.1,2.3,1.6
		c3.3,2.3,7.5,5.1,7.5,9c0,0.2-0.1,0.3-0.2,0.4C46.1,60,46,60,45.8,60c-0.4-0.1-9.4-2-16.3-7.6C24,47.9,22.3,45.1,21,43
		c-0.3-0.5-0.6-1-0.9-1.4c-0.2-0.3-0.5-0.6-0.7-1c-1.9-2.8-3.7-5.1-5.8-4.3c0.6,1.8,3.2,9,5.3,12.4c2.4,3.9,10.2,9.5,13,10.6
		c0.3,0.1,0.4,0.4,0.3,0.6c-0.1,0.3-0.4,0.4-0.6,0.3c-3-1.2-10.9-6.9-13.5-11c-2.5-3.9-5.4-12.7-5.5-13c-0.1-0.2,0-0.5,0.2-0.6
		c3.2-1.8,5.8,2,7.5,4.5c0.2,0.4,0.5,0.7,0.7,1c0.3,0.5,0.6,0.9,1,1.5c1.2,2,2.9,4.7,8.3,9.1c5.7,4.6,13,6.7,15.2,7.2
		c-0.4-3.1-4.1-5.5-7-7.5c-0.9-0.6-1.7-1.2-2.4-1.7c-2.1-1.7-3-3.9-3.1-5.3c0-0.8,0.1-1.5,0.5-1.9c1-1,3.1,0.4,5.2,2
		c1.8,1.4,3.9,2.5,5.8,3.6c2.2,1.2,4.6,2.5,6.5,4.2c4.5,3.8,10.7,21.8,13.2,29.4c0.1,0.3-0.1,0.5-0.3,0.6
		C63.8,82.3,63.8,82.3,63.7,82.3"/>
	<path class="st0" d="M25,48c-0.2,0-0.4-0.2-0.5-0.4c0-0.3,0.1-0.5,0.4-0.6c3.4-0.6,5.2-2.3,5.1-4.9c-2.2,0.2-6.9,0.7-8,1.5
		c-0.2,0.2-0.5,0.1-0.7-0.1c-0.2-0.2-0.1-0.5,0.1-0.7c1.6-1.2,8.3-1.7,9-1.7c0.3,0,0.5,0.2,0.5,0.4C31.3,45,29.3,47.2,25,48
		C25.1,48,25,48,25,48"/>
	<path class="st0" d="M26.8,63c-0.1,0-0.2,0-0.2-0.1c-1.4-0.7-9.4-7.6-10.4-10.1c-1.1-3-2.1-6.3,0.5-7.4c0.3-0.1,0.5,0,0.7,0.3
		c0.1,0.3,0,0.5-0.3,0.7c-1.4,0.6-1.4,2.3,0.1,6.2c0.8,2.1,8.5,8.8,9.9,9.5c0.2,0.1,0.3,0.4,0.2,0.7C27.1,62.9,27,63,26.8,63"/>
	<path class="st0" d="M45.6,87.2c-0.2,0-0.3-0.1-0.4-0.2c-3.3-4.5-7.6-6.4-9.7-7.3l-0.5-0.2c-3.9-1.8-6.2-2.7-8.7-3.6
		c-0.9-0.3-1.9-0.7-2.9-1.1C19.1,73.2,8.8,62.5,8.7,62.4c-0.5-0.6-0.7-1.1-0.5-1.5c0.5-0.8,2.1-0.6,2.6-0.5c3.2,0.6,6.7,3.8,9,6
		c0.9,0.9,1.7,1.6,2.1,1.8c0.8,0.4,2.4,0.3,3.6,0.2c-3-2.2-12.2-9.4-12.2-11.7c0-3,3-4.3,3.1-4.4c0.3-0.1,0.5,0,0.7,0.3
		c0.1,0.3,0,0.5-0.3,0.7c0,0-2.5,1.2-2.5,3.4c0,1.6,8.1,8.3,12.7,11.6c0.2,0.1,0.2,0.3,0.2,0.5c0,0.2-0.2,0.3-0.4,0.4
		c-0.4,0.1-3.8,0.9-5.4,0c-0.5-0.3-1.3-1-2.3-2c-2.2-2.1-5.6-5.2-8.5-5.7c-0.7-0.1-1.3-0.1-1.5,0c0,0,0.1,0.2,0.3,0.4
		c1.3,1.4,10.5,10.8,14.3,12.2c1.1,0.4,2,0.8,2.9,1.1c2.5,0.9,4.8,1.8,8.8,3.6l0.4,0.2c2.1,1,6.6,2.9,10,7.6
		c0.2,0.2,0.1,0.5-0.1,0.7C45.8,87.2,45.7,87.2,45.6,87.2"/>
	<path class="st0" d="M31.6,85.6L31.6,85.6c-0.3,0-0.5-0.2-0.5-0.5c0-0.9,0-3.5,0-7.6c0-0.3,0.2-0.5,0.5-0.5c0.3,0,0.5,0.2,0.5,0.5
		c0,4.2,0.1,6.8,0,7.7C32.1,85.3,31.9,85.6,31.6,85.6"/>
	<path class="st0" d="M33.6,85.9c-0.2,0-0.5-0.2-0.5-0.4c-0.1-0.9-0.2-3.3-0.3-7.4c0-0.3,0.2-0.5,0.5-0.5h0c0.3,0,0.5,0.2,0.5,0.5
		c0.1,4,0.2,6.4,0.3,7.2C34.1,85.6,33.9,85.9,33.6,85.9C33.6,85.9,33.6,85.9,33.6,85.9"/>
	<path class="st0" d="M33.1,54.7L33.1,54.7c-0.3,0-0.5-0.2-0.5-0.5c0-15.3,0-39,0-40.6l-0.3-0.9l-0.3,1c0,1.4,0,25.3-0.1,39.5
		c0,0.3-0.2,0.5-0.5,0.5h0c-0.3,0-0.5-0.2-0.5-0.5C31,38.6,31,13.8,31,13.6c0,0,0-0.1,0-0.1l0.7-2.6c0.1-0.2,0.2-0.4,0.5-0.4
		c0.2,0,0.4,0.1,0.5,0.3l0.9,2.5c0,0.1,0,0.1,0,0.2c0,0,0,24.9,0,40.7C33.6,54.5,33.4,54.7,33.1,54.7"/>
	<path class="st0" d="M44.6,40.5c-7.2,0-10.9-1.9-11.6-2.4h-1.6c-0.3,0-0.5-0.2-0.5-0.5s0.2-0.5,0.5-0.5h1.7c0.1,0,0.2,0,0.3,0.1
		c0,0,4.4,2.8,14,2.2c3.5-0.2,6.8-0.7,9.7-1c4.9-0.6,9.2-1.2,12.9-0.5V16.6c-3.6-0.7-7.8-0.1-12.8,0.5c-2.9,0.4-6.2,0.8-9.8,1
		c-9.1,0.6-13.6-1.8-14.4-2.3h-1.6c-0.3,0-0.5-0.2-0.5-0.5c0-0.3,0.2-0.5,0.5-0.5h1.7c0.1,0,0.2,0,0.3,0.1c0,0,4.4,2.8,14,2.2
		c3.5-0.2,6.8-0.7,9.7-1c5.2-0.7,9.7-1.3,13.5-0.4c0.2,0,0.4,0.3,0.4,0.5v22.3c0,0.2-0.1,0.3-0.2,0.4C70.6,39,70.5,39,70.3,39
		c-3.7-0.8-8.1-0.2-13.2,0.4c-2.9,0.4-6.2,0.8-9.8,1C46.4,40.5,45.5,40.5,44.6,40.5"/>
	<path class="st0" d="M44.6,31.2c-7.2,0-10.9-1.9-11.6-2.4l0.1-1c0.1,0,0.2,0,0.3,0.1c0,0,4.3,2.7,13.5,2.2V17.6
		c0-0.3,0.2-0.5,0.5-0.5c0.3,0,0.5,0.2,0.5,0.5v12.9c0,0.3-0.2,0.5-0.5,0.5C46.4,31.1,45.5,31.2,44.6,31.2"/>
	<path class="st0" d="M47.4,21.1c-0.3,0-0.5-0.2-0.5-0.5c0-0.3,0.2-0.5,0.5-0.5c3.5-0.2,6.8-0.7,9.7-1c5.2-0.7,9.7-1.3,13.5-0.4
		c0.3,0.1,0.4,0.3,0.4,0.6c-0.1,0.3-0.3,0.4-0.6,0.4c-3.7-0.8-8.1-0.2-13.1,0.4C54.3,20.4,51,20.9,47.4,21.1
		C47.4,21.1,47.4,21.1,47.4,21.1"/>
	<path class="st0" d="M47.4,24.4c-0.3,0-0.5-0.2-0.5-0.5c0-0.3,0.2-0.5,0.5-0.5c3.5-0.2,6.8-0.7,9.7-1c5.2-0.7,9.7-1.3,13.5-0.4
		c0.3,0.1,0.4,0.3,0.4,0.6c-0.1,0.3-0.3,0.4-0.6,0.4c-3.7-0.8-8.1-0.2-13.1,0.4C54.3,23.7,51,24.1,47.4,24.4
		C47.4,24.4,47.4,24.4,47.4,24.4"/>
	<path class="st0" d="M47.4,27.7c-0.3,0-0.5-0.2-0.5-0.5c0-0.3,0.2-0.5,0.5-0.5c3.5-0.2,6.8-0.7,9.7-1c5.2-0.7,9.7-1.3,13.5-0.4
		c0.3,0.1,0.4,0.3,0.4,0.6c-0.1,0.3-0.3,0.4-0.6,0.4c-3.7-0.8-8.1-0.2-13.1,0.4C54.3,27,51,27.4,47.4,27.7
		C47.4,27.7,47.4,27.7,47.4,27.7"/>
	<path class="st0" d="M47.4,31.1c-0.3,0-0.5-0.2-0.5-0.5c0-0.3,0.2-0.5,0.5-0.5c3.5-0.2,6.8-0.7,9.7-1c5.2-0.7,9.7-1.3,13.5-0.4
		c0.3,0.1,0.4,0.3,0.4,0.6c-0.1,0.3-0.3,0.4-0.6,0.4c-3.7-0.8-8.1-0.2-13.1,0.4C54.3,30.4,51,30.9,47.4,31.1
		C47.4,31.1,47.4,31.1,47.4,31.1"/>
	<path class="st0" d="M44.6,34.4c-7.2,0-10.9-1.9-11.6-2.4l0.1-1c0.1,0,0.2,0,0.3,0.1c0,0,4.4,2.8,14,2.2c3.5-0.2,6.8-0.7,9.7-1
		c5.2-0.7,9.7-1.3,13.5-0.4c0.3,0.1,0.4,0.3,0.4,0.6c-0.1,0.3-0.3,0.4-0.6,0.4c-3.7-0.8-8.1-0.2-13.2,0.4c-2.9,0.4-6.2,0.8-9.8,1
		C46.4,34.3,45.5,34.4,44.6,34.4"/>
	<path class="st0" d="M44.6,37.6c-7.2,0-10.9-1.9-11.6-2.4l0.1-1c0.1,0,0.2,0,0.3,0.1c0,0,4.4,2.8,14,2.2c3.5-0.2,6.8-0.7,9.7-1
		c5.2-0.7,9.7-1.3,13.5-0.4c0.3,0.1,0.4,0.3,0.4,0.6c-0.1,0.3-0.3,0.4-0.6,0.4c-3.7-0.8-8.1-0.2-13.1,0.4c-2.9,0.4-6.2,0.8-9.8,1
		C46.4,37.5,45.5,37.6,44.6,37.6"/>
	<path class="st0" d="M33.1,15.3v12.9c0,0,3,1.6,6.3,2c3.7,0.4,8,0.3,8,0.3V17.6c0,0-3.7,0.3-8-0.3C35.9,16.8,33.1,15.3,33.1,15.3"
		/>
</g>
</svg>
