<?xml version="1.0" encoding="utf-8"?>
<!-- Generator: Adobe Illustrator 19.0.0, SVG Export Plug-In . SVG Version: 6.00 Build 0)  -->
<svg version="1.1" id="Layer_1" xmlns="http://www.w3.org/2000/svg" xmlns:xlink="http://www.w3.org/1999/xlink" x="0px" y="0px"
	 viewBox="0 0 87.3 87.3" style="enable-background:new 0 0 87.3 87.3;" xml:space="preserve">
<style type="text/css">
	.st0{clip-path:url(#SVGID_2_);fill:#2E353F;}
</style>
<g>
	<defs>
		<rect id="SVGID_1_" y="0" width="87.3" height="87.3"/>
	</defs>
	<clipPath id="SVGID_2_">
		<use xlink:href="#SVGID_1_"  style="overflow:visible;"/>
	</clipPath>
	<path class="st0" d="M43.6,87.3C19.6,87.3,0,67.7,0,43.6S19.6,0,43.6,0s43.6,19.6,43.6,43.6S67.7,87.3,43.6,87.3 M43.6,1
		C20.1,1,1,20.1,1,43.6s19.1,42.6,42.6,42.6s42.6-19.1,42.6-42.6S67.1,1,43.6,1"/>
	<path class="st0" d="M25.6,41.9c-0.2,0-0.4-0.1-0.5-0.3c0-0.1-1-2.8,1-5c1.8-1.9,7.2-1.9,10.2-1.9c0.4,0,0.8,0,1,0
		c4.8-0.1,5.3,0.4,5.5,0.6c0.1,0.1,0.2,0.3,0.2,0.5c0,0.8-0.4,1.7-1.1,2.4c-0.6,0.6-1.7,1.2-3.4,1.2c-0.3,0-0.5-0.2-0.5-0.5
		c0-0.3,0.2-0.5,0.5-0.5c1.4,0,2.2-0.5,2.7-0.9c0.4-0.4,0.7-1,0.8-1.5c-0.4-0.1-1.7-0.3-4.7-0.3c-0.3,0-0.6,0-1,0
		c-2.4,0-8,0-9.4,1.5c-1.6,1.7-0.8,4-0.8,4c0.1,0.3,0,0.5-0.3,0.6C25.7,41.9,25.6,41.9,25.6,41.9"/>
	<path class="st0" d="M21.6,62.6c-0.2,0-0.4-0.1-0.5-0.3c-0.1-0.2-1.6-4.9-1.1-7.8c0.8-4.7,2.9-6.7,6.3-8.9c3.2-2,5.1-3,6.7-3.2
		c1-0.1,2-0.3,2.9-0.4c2.7-0.4,3.3-0.5,3.4,0.2c0.2,0.7,0.2,1.5-0.2,2.2c-0.9,1.9-3.7,3.6-8.6,5.2c-0.3,0.1-0.5-0.1-0.6-0.3
		c-0.1-0.3,0.1-0.5,0.3-0.6c5.6-1.9,7.4-3.6,8-4.7c0.2-0.4,0.3-0.8,0.2-1.3c-0.4,0-1.5,0.2-2.4,0.3c-0.9,0.1-1.9,0.3-2.9,0.4
		c-1.4,0.2-3.2,1.2-6.3,3.1c-3.3,2-5.1,3.8-5.9,8.2c-0.5,2.6,1.1,7.2,1.1,7.3c0.1,0.3-0.1,0.5-0.3,0.6
		C21.7,62.6,21.7,62.6,21.6,62.6 M38.4,42.5C38.4,42.5,38.4,42.5,38.4,42.5C38.5,42.5,38.4,42.5,38.4,42.5"/>
	<path class="st0" d="M22.2,50.5c-0.2,0-0.4-0.1-0.5-0.3c0-0.1-0.9-2.2,0.2-4.7c1.6-3.4,7.6-6.7,10.6-7.7c2.4-0.8,4.6,0,6.4,0.7
		c0.7,0.2,1.3,0.5,1.8,0.6c0.5,0.1,1,0.2,1.5,0.2c2.2,0.4,3.3,0.6,3.8,1.2c0.2,0.2,0.2,0.5,0.2,0.7c-0.3,1.5-2.2,3-4.5,2.6
		c-0.9-0.1-2.6-0.6-2.7-0.6c-0.3-0.1-0.4-0.3-0.4-0.6c0.1-0.3,0.3-0.4,0.6-0.4c0,0,1.8,0.4,2.6,0.6c1.8,0.3,3.1-0.9,3.3-1.8
		c-0.2-0.3-1.9-0.6-3.1-0.8c-0.5-0.1-1-0.2-1.5-0.3c-0.6-0.1-1.3-0.3-2-0.6c-1.7-0.6-3.7-1.3-5.7-0.7c-3.2,1-8.7,4.3-10,7.1
		c-1,2.2-0.2,3.9-0.2,3.9c0.1,0.3,0,0.5-0.3,0.7C22.3,50.5,22.2,50.5,22.2,50.5"/>
	<path class="st0" d="M33.4,86C33.4,86,33.4,86,33.4,86c-0.3,0-0.5-0.2-0.5-0.5c0.1-2.2,0-3.8-0.4-4.8c-0.8-2.2-5.3-7.3-7.5-9.1
		c-1-0.8-4.5-4.3-4.3-7.5c0.1-1.9,2-7.5,4.3-10.3c1-1.3,1.9-2.6,2.6-3.7c1.1-1.6,1.4-2.1,1.9-2.2c0.3-0.1,0.9,0,1.2,0.5
		c0.8,0.9,0.7,2.8-0.4,5.7c-0.8,2.1-2.1,4.5-2.5,5.1c0,0.4-0.1,1.5-0.7,3.2c0.5,0.7,2,3.1,2.6,5.8c0.1,0.3-0.1,0.5-0.4,0.6
		c-0.3,0.1-0.5-0.1-0.6-0.4c-0.7-3-2.6-5.6-2.6-5.7c-0.1-0.1-0.1-0.3-0.1-0.5c0.8-1.9,0.8-3.1,0.8-3.1c0-0.1,0-0.2,0.1-0.3
		c0,0,1.6-2.7,2.5-5c1.2-3.4,0.7-4.4,0.5-4.7C29.8,49,29.7,49,29.7,49c-0.1,0.1-0.7,1-1.2,1.8c-0.7,1.1-1.6,2.4-2.7,3.7
		c-2.1,2.6-3.9,8-4,9.7c-0.1,2.5,2.7,5.6,4,6.6c2,1.6,6.8,6.9,7.8,9.5c0.4,1.1,0.6,2.9,0.5,5.2C33.9,85.8,33.7,86,33.4,86"/>
	<path class="st0" d="M36.4,49.7c-0.2,0-0.3-0.1-0.4-0.2c-0.7-0.9-1.6-1.6-1.6-1.6c-0.2-0.2-0.3-0.5-0.1-0.7
		c0.2-0.2,0.5-0.3,0.7-0.1c0,0,1.1,0.8,1.8,1.8c0.2,0.2,0.1,0.5-0.1,0.7C36.6,49.7,36.5,49.7,36.4,49.7"/>
	<path class="st0" d="M47.6,87.1L47.6,87.1c-0.3,0-0.5-0.2-0.5-0.5c0.1-4,0.7-9.4,2.5-12.8c2-3.8,3.6-9.9,2.2-15.5
		c-0.1-0.3,0.1-0.5,0.4-0.6c0.3-0.1,0.5,0.1,0.6,0.4c1.5,5.9-0.2,12.2-2.3,16.2c-1.3,2.5-2.2,6.8-2.4,12.3
		C48.1,86.9,47.8,87.1,47.6,87.1"/>
	<path class="st0" d="M51,55.4c-0.2,0-0.4-0.1-0.5-0.3c-0.4-0.9-0.8-1.8-1.2-2.8c-0.1-0.3,0-0.5,0.3-0.7c0.3-0.1,0.5,0,0.7,0.3
		c0.4,1,0.8,2,1.2,2.8c0.1,0.3,0,0.5-0.3,0.7C51.1,55.4,51.1,55.4,51,55.4"/>
	<path class="st0" d="M47.6,47.2c-0.2,0-0.4-0.1-0.5-0.3c-0.4-1.2-0.8-2.1-1-2.8c-0.1-0.3,0.1-0.5,0.3-0.6c0.3-0.1,0.5,0.1,0.6,0.3
		c0.2,0.6,0.6,1.6,1,2.7c0.1,0.3,0,0.5-0.3,0.6C47.7,47.2,47.7,47.2,47.6,47.2"/>
	<path class="st0" d="M40.3,59c-0.3,0-0.6,0-0.9-0.1c-1.3-0.2-2.5-1-3.3-2.1c-0.8-1.1-1.1-2.5-0.8-3.8l1.2-6.9
		c0-0.3,0.3-0.5,0.6-0.4c0.3,0,0.5,0.3,0.4,0.6l-1.2,6.9c-0.2,1.1,0.1,2.2,0.7,3.1c0.6,0.9,1.6,1.5,2.7,1.7c1.1,0.2,2.2-0.1,3.1-0.7
		s1.5-1.6,1.7-2.7l5.5-31.5c0.4-2.2-1.1-4.4-3.3-4.8c-1.1-0.2-2.2,0.1-3.1,0.7c-0.9,0.6-1.5,1.6-1.7,2.7l-2.4,13.6
		c0,0.3-0.3,0.5-0.6,0.4c-0.3,0-0.5-0.3-0.4-0.6l2.4-13.6c0.2-1.3,1-2.5,2.1-3.3c1.1-0.8,2.5-1.1,3.8-0.8c2.8,0.5,4.6,3.1,4.1,5.9
		l-5.5,31.5c-0.2,1.3-1,2.5-2.1,3.3C42.3,58.7,41.3,59,40.3,59"/>
	<path class="st0" d="M44.4,26.7c-0.2,0-0.3,0-0.4,0l-0.6-0.1c-0.3,0-0.5-0.3-0.4-0.6l0-0.1c0-0.1,0.1-0.2,0.2-0.3
		c0.1-0.1,0.2-0.1,0.4-0.1c0.1,0,0.4,0.1,0.6,0c0.3,0,1-0.3,1.1-1.2c0.1-0.7-0.2-1.2-0.9-1.5c-0.2-0.1-0.5-0.2-0.5-0.2
		c-0.2-0.1-0.4-0.3-0.3-0.6c0-0.3,0.3-0.5,0.6-0.5c0.8,0.1,2.1,0.4,2.8,1.3c0.4,0.5,0.5,1.1,0.4,1.8C47.1,26.3,45.5,26.7,44.4,26.7
		 M46.4,23.8c0,0.2,0,0.4,0,0.7c0,0.2-0.1,0.4-0.2,0.6c0.1-0.2,0.2-0.4,0.2-0.6C46.4,24.2,46.4,24,46.4,23.8"/>
	<path class="st0" d="M66.3,30.2c0,0-0.1,0-0.1,0L62,29.5c-0.4-0.1-0.7-0.5-0.6-0.9l0.1-0.8c0.1-0.4,0.3-0.7,0.7-0.8
		c0.4-0.2,0.5-0.5,0.5-0.6c0-0.1,0-0.2-0.2-0.5c-0.6-0.6-2.2-1-3.4-0.8c-1.6,0.3-2.8,0.8-3.8,1.3c-1.2,0.6-2.2,1.1-3.6,0.9l-2-0.4
		c-0.3,0-0.5-0.3-0.4-0.6c0-0.3,0.3-0.5,0.6-0.4l2,0.4c1,0.2,1.9-0.2,3-0.8c1-0.5,2.3-1.2,4.1-1.4c1.5-0.2,3.4,0.2,4.3,1.1
		c0.5,0.5,0.6,1,0.5,1.4c-0.1,0.7-0.5,1.2-1.2,1.4l-0.1,0.6l3.8,0.7c0.3-2.1,0-5-4.6-5.8c-5.3-0.9-11.5-2-11.5-2l0.2-1
		c0,0,6.2,1.1,11.4,2c4.2,0.7,6,3.1,5.4,7.1c0,0.2-0.1,0.4-0.3,0.5C66.6,30.1,66.4,30.2,66.3,30.2 M66.1,29.4
		C66.1,29.4,66.1,29.4,66.1,29.4C66.1,29.4,66.1,29.4,66.1,29.4"/>
	<path class="st0" d="M66.7,29.2C66.6,29.2,66.6,29.2,66.7,29.2l-4.8-0.8c-0.3,0-0.5-0.3-0.4-0.6c0-0.3,0.3-0.5,0.6-0.4l4.7,0.8
		c0.3,0,0.5,0.3,0.4,0.6C67.1,29,66.9,29.2,66.7,29.2"/>
	<path class="st0" d="M44.6,56.3c-0.2,0-0.3-0.1-0.4-0.2c-0.2-0.2-0.1-0.5,0.1-0.7l21.8-15.5c-1.5-0.8-4.7-2.2-7.5-0.2l-12.4,8.7
		c-0.2,0.2-0.5,0.1-0.7-0.1c-0.2-0.2-0.1-0.5,0.1-0.7l12.4-8.7c3.5-2.5,7.6-0.4,8.8,0.3c0.2,0.1,0.4,0.4,0.4,0.7
		c0,0.3-0.1,0.5-0.3,0.7L44.9,56.2C44.8,56.3,44.7,56.3,44.6,56.3"/>
	<path class="st0" d="M45.7,50.2c-0.2,0-0.3-0.1-0.4-0.2c-0.2-0.2-0.1-0.5,0.1-0.7l16.4-11.6c0.2-0.2,0.5-0.1,0.7,0.1
		c0.2,0.2,0.1,0.5-0.1,0.7L45.9,50.1C45.9,50.2,45.8,50.2,45.7,50.2"/>
	<path class="st0" d="M63,59.2C63,59.2,63,59.2,63,59.2c-0.4-0.1-0.5-0.3-0.5-0.6l0-0.3c0-0.2-0.1-0.3-0.2-0.4l-0.6-0.3l-0.1,0.8
		c0,0.3-0.3,0.5-0.6,0.4c-0.3,0-0.5-0.3-0.4-0.6l0.2-1.4c0-0.2,0.1-0.3,0.3-0.4c0.1-0.1,0.3-0.1,0.4,0l1.2,0.5
		c0.6,0.3,0.9,0.9,0.8,1.5l0,0.3C63.5,59,63.3,59.2,63,59.2"/>
	<path class="st0" d="M61,58.8C60.9,58.8,60.9,58.8,61,58.8L44.9,56c-0.3,0-0.5-0.3-0.4-0.6c0-0.3,0.3-0.5,0.6-0.4l15.5,2.7l0.1-0.4
		l-14.1-2.5c-0.3,0-0.5-0.3-0.4-0.6c0-0.3,0.3-0.5,0.6-0.4l14.6,2.6c0.1,0,0.2,0.1,0.3,0.2c0.1,0.1,0.1,0.2,0.1,0.4l-0.2,1.4
		C61.4,58.7,61.2,58.8,61,58.8"/>
	<path class="st0" d="M60.9,60.3c-0.1,0-0.3-0.1-0.4-0.2c-0.1-0.1-0.1-0.3-0.1-0.4l0.2-1.4c0-0.3,0.3-0.5,0.6-0.4
		c0.3,0,0.5,0.3,0.4,0.6l-0.1,0.8l0.6,0c0.2,0,0.3-0.1,0.4-0.3l0-0.3c0-0.3,0.3-0.5,0.6-0.4c0.3,0,0.5,0.3,0.4,0.6l0,0.3
		c-0.1,0.6-0.6,1.1-1.3,1.1L60.9,60.3C60.9,60.3,60.9,60.3,60.9,60.3"/>
	<path class="st0" d="M60.7,60.2C60.7,60.2,60.7,60.2,60.7,60.2l-17-3c-0.3,0-0.5-0.3-0.4-0.6c0-0.3,0.3-0.5,0.6-0.4l16.4,2.9
		l0.1-0.4L44.9,56c-0.3,0-0.5-0.3-0.4-0.6c0-0.3,0.3-0.5,0.6-0.4l16,2.8c0.1,0,0.2,0.1,0.3,0.2c0.1,0.1,0.1,0.2,0.1,0.4l-0.2,1.4
		C61.2,60.1,61,60.2,60.7,60.2"/>
</g>
</svg>
