<?xml version="1.0" encoding="utf-8"?>
<!-- Generator: Adobe Illustrator 19.0.0, SVG Export Plug-In . SVG Version: 6.00 Build 0)  -->
<svg version="1.1" id="Layer_1" xmlns="http://www.w3.org/2000/svg" xmlns:xlink="http://www.w3.org/1999/xlink" x="0px" y="0px"
	 viewBox="0 0 87.3 87.3" style="enable-background:new 0 0 87.3 87.3;" xml:space="preserve">
<style type="text/css">
	.st0{clip-path:url(#SVGID_2_);fill:#2E353F;}
</style>
<g>
	<defs>
		<rect id="SVGID_1_" y="0" width="87.3" height="87.3"/>
	</defs>
	<clipPath id="SVGID_2_">
		<use xlink:href="#SVGID_1_"  style="overflow:visible;"/>
	</clipPath>
	<path class="st0" d="M43.6,87.3C19.6,87.3,0,67.7,0,43.6C0,19.6,19.6,0,43.6,0s43.6,19.6,43.6,43.6C87.3,67.7,67.7,87.3,43.6,87.3
		 M43.6,1C20.1,1,1,20.1,1,43.6s19.1,42.6,42.6,42.6s42.6-19.1,42.6-42.6S67.1,1,43.6,1"/>
	<path class="st0" d="M43,87.3C42.9,87.3,42.9,87.3,43,87.3c-0.4-0.1-0.5-0.3-0.5-0.6l1-4.9c0.1-0.3,0.3-0.4,0.6-0.4
		c0.3,0.1,0.4,0.3,0.4,0.6l-1,4.9C43.4,87.1,43.2,87.3,43,87.3"/>
	<path class="st0" d="M40.9,32.3c-0.1,0-0.2,0-0.3-0.1c-0.2-0.1-0.3-0.4-0.2-0.7c0.3-0.5,1.1-1.3,2.1-2.2c1.6-1.4,3.7-3.3,4.7-5.3
		c1-1.9,1.3-3.9,1-4.2c0,0-0.4,0-1.2,0.6c-1.5,1.1-6.2,5.5-6.2,5.6c-0.2,0.2-0.5,0.2-0.7,0c-0.2-0.2-0.2-0.5,0-0.7
		c0.2-0.2,4.8-4.5,6.3-5.6c0.4-0.3,1.6-1.2,2.4-0.5c1.1,0.9,0.1,3.8-0.8,5.4c-1.1,2.1-3.3,4.1-4.9,5.5c-0.9,0.8-1.7,1.5-1.9,1.9
		C41.2,32.2,41.1,32.3,40.9,32.3"/>
	<path class="st0" d="M32.8,45.4c-0.3,0-0.5-0.2-0.5-0.4c-0.1-0.8-0.4-2.6-0.7-4.3c-0.3-2-0.7-3.9-0.7-4.5c-0.1-3.8,1.4-5.2,3-6.6
		c0.2-0.2,0.5-0.4,0.7-0.7c0.2-0.2,0.5-0.2,0.7,0c0.2,0.2,0.2,0.5,0,0.7c-0.3,0.2-0.5,0.5-0.8,0.7c-1.6,1.4-2.8,2.5-2.7,5.8
		c0,0.5,0.3,2.5,0.7,4.4c0.3,1.7,0.6,3.5,0.7,4.4C33.4,45.2,33.2,45.4,32.8,45.4C32.9,45.4,32.8,45.4,32.8,45.4"/>
	<path class="st0" d="M27.7,84.1c0,0-0.1,0-0.1,0c-0.3-0.1-0.4-0.4-0.3-0.6c0,0,0.4-1.5,0.9-3.2c0.1-0.3,0.4-0.4,0.6-0.3
		c0.3,0.1,0.4,0.3,0.3,0.6c-0.5,1.8-0.9,3.3-0.9,3.3C28.1,83.9,27.9,84.1,27.7,84.1"/>
	<path class="st0" d="M41.8,35.1c-0.2,0-0.4-0.1-0.5-0.3c-0.1-0.3,0-0.5,0.3-0.6c0.6-0.2,1.5-0.2,2.6-0.3c2.2-0.1,4.8-0.2,5-1.7
		c0.1-0.5-0.1-0.7-0.2-0.8c-0.6-0.7-2.3-0.7-3.9-0.7c-0.9,0-1.8,0-2.6-0.2c-0.3,0-0.5-0.3-0.4-0.6c0-0.3,0.3-0.5,0.6-0.4
		c0.7,0.1,1.5,0.1,2.4,0.1c1.9,0,3.8,0.1,4.6,1.1c0.4,0.4,0.5,1,0.4,1.6c-0.3,2.3-3.6,2.5-6,2.6c-0.9,0-1.8,0.1-2.3,0.2
		C41.9,35.1,41.8,35.1,41.8,35.1"/>
	<path class="st0" d="M47.3,41C47.3,41,47.3,41,47.3,41c-2.5-0.1-4.2-2.1-4.3-2.2c-0.2-0.2-0.1-0.5,0.1-0.7c0.2-0.2,0.5-0.1,0.7,0.1
		c0,0,1.5,1.8,3.5,1.8c0,0,0,0,0,0c0.7,0,1.8-0.6,1.9-1c0.1-0.2-0.3-0.5-0.5-0.6c-0.6-0.3-1.2-0.8-1.8-1.3c-1-0.7-2.1-1.6-3.4-2.3
		c-0.2-0.1-0.3-0.4-0.2-0.7c0.1-0.2,0.4-0.3,0.7-0.2c1.4,0.7,2.6,1.6,3.6,2.4c0.7,0.5,1.2,0.9,1.7,1.2c1.1,0.6,1.1,1.3,1,1.7
		C49.9,40.3,48.3,41,47.3,41"/>
	<path class="st0" d="M40.8,77.1c-4.5,0-9.9-1-12-2c-0.2-0.1-0.3-0.4-0.2-0.7c0.1-0.1,5.2-10.8,4.9-14.5c-0.6-3.2-2-8.2-3.1-12.2
		c-0.9-3.4-1.7-6.1-1.8-6.9c-0.3-2.6,1-3.9,2.5-5.1c0.2-0.2,0.5-0.1,0.7,0.1c0.2,0.2,0.1,0.5-0.1,0.7c-1.6,1.2-2.4,2.2-2.1,4.2
		c0.1,0.8,0.9,3.6,1.7,6.8c1.1,4,2.5,9,3.1,12.3c0.4,3.6-3.7,12.5-4.7,14.6c3.4,1.4,13.3,2.6,16.4,0.8c0.2-1.9,1.2-13.4,2.7-16.1
		c1.7-2.9,3.4-5.5,4.8-7.5c1.3-1.9,2.4-3.5,2.8-4.5c0.4-1.1,0.8-2.8,1.1-4.5c0.3-1.5,0.6-2.9,0.9-3.8c0.7-1.6,1.1-3.8,0.8-4.5
		c0-0.1-0.1-0.1-0.1-0.1c-2-0.5-3.6,2.6-5.2,5.7c-1.5,2.9-3.1,5.9-5.2,6.5c-0.3,0.1-0.7,0-1.2-0.3c-1.3-0.8-3.6-3.2-3.8-4.4
		c-0.6-3.3-3.4-8.6-3.4-8.6c0-0.1-0.1-0.2-0.1-0.3c0.1-0.5,0-2-0.1-3.4c-0.2-2.6-0.3-4.4-0.1-5.1c0.2-0.9,0.2-2.1,0.3-4
		c0-0.7,0-1.4,0.1-2.2c0.1-1.6-0.2-2.8-0.6-3.5c-0.2-0.3-0.6-0.5-1-0.5c-0.3,0-0.7,0.3-0.8,0.7c-0.2,0.6-0.3,1.4-0.5,2.3
		c-0.2,0.9-0.4,2-0.6,3.1c-0.8,3.1-2.4,17.6-0.4,22.8c0.1,0.3,0,0.5-0.3,0.6c-0.3,0.1-0.5,0-0.6-0.3c-2.1-5.6-0.3-20.5,0.4-23.4
		c0.3-1.1,0.5-2.1,0.6-3c0.2-0.9,0.3-1.7,0.5-2.4c0.2-0.8,0.8-1.4,1.7-1.5c0.8-0.1,1.6,0.2,2,0.9c0.6,1,0.8,2.3,0.8,4.1
		c0,0.8,0,1.6-0.1,2.2c-0.1,2-0.1,3.2-0.3,4.2c-0.2,0.6,0,3,0.1,4.8c0.1,1.5,0.2,2.8,0.1,3.4c0.4,0.9,2.9,5.6,3.4,8.8
		c0.2,1,3.1,3.9,3.8,4c1.7-0.5,3.1-3.3,4.5-6c1.8-3.4,3.6-6.9,6.3-6.2c0.2,0.1,0.5,0.2,0.7,0.6c0.6,1.3-0.4,4.3-0.8,5.3
		c-0.3,0.7-0.6,2.1-0.8,3.6c-0.3,1.7-0.6,3.4-1.1,4.6c-0.5,1.2-1.5,2.7-2.9,4.7c-1.4,2-3.1,4.5-4.7,7.4c-1.5,2.7-2.6,15.8-2.6,16
		c0,0.1-0.1,0.3-0.2,0.4C45.7,76.7,43.4,77.1,40.8,77.1"/>
	<path class="st0" d="M38.8,82.8c-2.8,0-6.5-0.9-9-1.6c-0.3-0.1-0.4-0.4-0.3-0.6c0.1-0.3,0.4-0.4,0.6-0.3c2.5,0.7,6,1.6,8.7,1.6
		c3.6,0,6.6-0.8,7.6-1.1l-0.2-4.5l-0.9,0.3c-0.3,0.1-0.5,0-0.6-0.3c-0.1-0.3,0-0.5,0.3-0.6l1.5-0.6c0.1-0.1,0.3,0,0.5,0
		c0.1,0.1,0.2,0.2,0.2,0.4l0.2,5.5c0,0.2-0.1,0.4-0.3,0.5C46.9,81.6,43.4,82.8,38.8,82.8"/>
	<path class="st0" d="M29.9,81.2c0,0-0.1,0-0.1,0c-1.5-0.4-2.6-0.8-2.6-0.8c-0.3-0.1-0.4-0.4-0.3-0.6l1.7-5.3c0-0.1,0.1-0.2,0.3-0.3
		c0.1-0.1,0.3-0.1,0.4,0l0.8,0.4c0.2,0.1,0.4,0.4,0.2,0.7c-0.1,0.2-0.4,0.4-0.7,0.2l-0.3-0.1L28,79.6c0.4,0.1,1.2,0.4,2.1,0.7
		c0.3,0.1,0.4,0.4,0.3,0.6C30.4,81.1,30.2,81.2,29.9,81.2"/>
</g>
</svg>
