<?xml version="1.0" encoding="utf-8"?>
<!-- Generator: Adobe Illustrator 19.0.0, SVG Export Plug-In . SVG Version: 6.00 Build 0)  -->
<svg version="1.1" id="Layer_1" xmlns="http://www.w3.org/2000/svg" xmlns:xlink="http://www.w3.org/1999/xlink" x="0px" y="0px"
	 viewBox="0 0 87.3 87.3" style="enable-background:new 0 0 87.3 87.3;" xml:space="preserve">
<style type="text/css">
	.st0{clip-path:url(#SVGID_2_);fill:none;stroke:#2E353F;stroke-miterlimit:10;}
	.st1{clip-path:url(#SVGID_2_);fill:none;stroke:#2E353F;stroke-linecap:round;stroke-linejoin:round;stroke-miterlimit:10;}
</style>
<g>
	<defs>
		<rect id="SVGID_1_" y="0" width="87.3" height="87.3"/>
	</defs>
	<clipPath id="SVGID_2_">
		<use xlink:href="#SVGID_1_"  style="overflow:visible;"/>
	</clipPath>
	<circle class="st0" cx="43.6" cy="43.6" r="43.1"/>
	<path class="st1" d="M15.7,76.5c0.4-0.7,0.6-1.4,0.8-1.9c2.5-7.6,7.3-17.2,11.6-20.9c3.6-3.1,8.3-4.8,12.3-7.8
		c1.4-1.1,3.8-2.8,4.6-2.1c0.9,0.9,0.5,4.1-2.5,6.5c-3,2.4-9.6,5.6-9.6,10.3c0,0,9.2-1.9,16.1-7.5s7.8-8.5,9.4-10.6
		c1.6-2.2,4.3-7.2,7.5-5.3c0,0-3,9-5.5,12.9S50,59.6,47.1,60.8"/>
	<path class="st1" d="M53.8,48.5c-5.5-1-5.6-4.3-5.5-5.9c0,0,7.2,0.5,8.8,1.6"/>
	<path class="st1" d="M61.9,46.9c1.9,0.8,1.6,3.1,0.2,6.8c-0.8,2.2-8.7,9-10.1,9.8"/>
	<path class="st1" d="M62.1,53.7c0,0,2.8,1.2,2.8,3.9c0,2.2-10.4,10.2-12.9,12c0,0,3.5,0.8,5.1,0c1.5-0.8,6.6-7,11-7.8
		c1-0.2,2.9-0.2,1.7,1.2c-1.3,1.4-10.6,10.9-14.5,12.4c-3.9,1.5-6.3,2.2-11.7,4.7c-1.8,0.8-5.5,2.8-9.2,5.7"/>
	<path class="st1" d="M36.1,9.7c4.5,10.2-3.4,19.4,1.6,27.7c5,8.4,19.1,2.4,16.1-8C50.8,19,36.1,9.7,36.1,9.7z"/>
	<path class="st1" d="M36.1,9.7C40,13,48.9,29.5,46.4,41.3"/>
	<polyline class="st1" points="37.5,19.4 43.5,21.9 45.4,17.1 	"/>
	<path class="st1" d="M36.1,29.1c0,0,6.3,5.1,10.5,3.9c2.8-0.8,5.1-8.4,5.1-8.4"/>
	<path class="st1" d="M47.9,53.7c-0.1-3.6-0.2-10.7-0.7-12.2"/>
	<path class="st1" d="M45.7,41.4c0,0,0.9,9.6,0.3,13.7"/>
</g>
</svg>
