<?xml version="1.0" encoding="utf-8"?>
<!-- Generator: Adobe Illustrator 19.0.0, SVG Export Plug-In . SVG Version: 6.00 Build 0)  -->
<svg version="1.1" id="Layer_1" xmlns="http://www.w3.org/2000/svg" xmlns:xlink="http://www.w3.org/1999/xlink" x="0px" y="0px"
	 viewBox="0 0 69.2 55.2" style="enable-background:new 0 0 69.2 55.2;" xml:space="preserve">
<style type="text/css">
	.st0{fill:#2E353F;}
	.st1{fill:none;stroke:#FFFFFF;stroke-width:0.964;stroke-miterlimit:10;}
	.st2{fill:none;stroke:#FFFFFF;stroke-width:0.9516;stroke-miterlimit:10;}
	.st3{fill:#FFFFFF;}
</style>
<rect x="11.9" y="15.2" class="st0" width="45.7" height="28.4"/>
<g>
	<g>
		<rect x="11.9" y="15.2" class="st1" width="45.7" height="28.4"/>
		<polyline class="st2" points="57.6,15.2 34.8,34.8 11.9,15.2 		"/>
	</g>
	<path class="st3" d="M37.8,23.6c-0.1-1-0.8-1.7-1.6-1.7c-0.6,0-1.1,0.3-1.4,0.8c-0.3-0.5-0.8-0.8-1.4-0.8c-0.9,0-1.5,0.7-1.6,1.7
		c0,0,0,0.3,0.1,0.6c0.1,0.5,0.4,1,0.8,1.4l2.1,1.9l2.1-1.9c0.4-0.4,0.7-0.9,0.8-1.4C37.8,23.8,37.8,23.6,37.8,23.6z"/>
</g>
</svg>
