<?xml version="1.0" encoding="utf-8"?>
<!-- Generator: Adobe Illustrator 19.0.0, SVG Export Plug-In . SVG Version: 6.00 Build 0)  -->
<svg version="1.1" id="Layer_1" xmlns="http://www.w3.org/2000/svg" xmlns:xlink="http://www.w3.org/1999/xlink" x="0px" y="0px"
	 viewBox="0 0 69.2 55.2" style="enable-background:new 0 0 69.2 55.2;" xml:space="preserve">
<style type="text/css">
	.st0{fill:#FFFFFF;}
	.st1{fill:none;stroke:#2E353F;stroke-width:0.964;stroke-miterlimit:10;}
	.st2{fill:none;stroke:#2E353F;stroke-width:0.9516;stroke-miterlimit:10;}
	.st3{fill:#2E353F;}
</style>
<g>
	<rect x="11.8" y="13.4" class="st0" width="45.7" height="28.4"/>
	<g>
		<g>
			<rect x="11.8" y="13.4" class="st1" width="45.7" height="28.4"/>
			<polyline class="st2" points="57.5,13.4 34.6,33 11.8,13.4 			"/>
		</g>
		<path class="st3" d="M37.6,21.8c-0.1-1-0.8-1.7-1.6-1.7c-0.6,0-1.1,0.3-1.4,0.8c-0.3-0.5-0.8-0.8-1.4-0.8c-0.9,0-1.5,0.7-1.6,1.7
			c0,0,0,0.3,0.1,0.6c0.1,0.5,0.4,1,0.8,1.4l2.1,1.9l2.1-1.9c0.4-0.4,0.7-0.9,0.8-1.4C37.7,22,37.6,21.8,37.6,21.8z"/>
	</g>
</g>
</svg>
