<?xml version="1.0" encoding="UTF-8"?>
<svg width="20px" height="100px" viewBox="0 0 20 100" version="1.1" xmlns="http://www.w3.org/2000/svg" xmlns:xlink="http://www.w3.org/1999/xlink">
    <!-- Generator: Sketch 51.3 (57544) - http://www.bohemiancoding.com/sketch -->
    <title>pagination-arrow</title>
    <desc>Created with Sketch.</desc>
    <defs></defs>
    <g id="Page-1" stroke="none" stroke-width="1" fill="none" fill-rule="evenodd">
        <g id="pagination-arrow" fill="#484F57" fill-rule="nonzero">
            <path d="M10.5109489,97.080292 C10.5839416,97.1532847 10.729927,97.080292 10.6569343,96.9343066 L10.4379562,96.8613139 L10.5109489,97.080292 Z" id="Shape"></path>
            <path d="M10.9489051,96.1313869 C10.8029197,95.9854015 10.6569343,95.7664234 10.3649635,95.9124088 C10.5839416,96.0583942 10.5109489,96.1313869 10.8029197,96.2773723 C10.8029197,96.4233577 10.729927,96.4963504 10.6569343,96.4963504 C10.729927,96.5693431 10.5839416,96.7153285 10.729927,96.7883212 C10.9489051,96.5693431 10.9489051,96.350365 10.729927,96.1313869 C10.8759124,96.1313869 10.9489051,96.1313869 10.9489051,96.1313869" id="Shape"></path>
            <path d="M11.1678832,82.4817518 L11.1678832,82.5547445 C11.1678832,82.4817518 11.1678832,82.4817518 11.1678832,82.4817518" id="Shape"></path>
            <path d="M11.1678832,73.9416058 C11.1678832,74.0145985 11.1678832,74.0145985 11.2408759,74.0145985 C11.2408759,74.0145985 11.2408759,73.9416058 11.1678832,73.9416058" id="Shape"></path>
            <path d="M11.459854,72.4817518 C11.459854,72.4817518 11.459854,72.5547445 11.459854,72.5547445 C11.459854,72.5547445 11.459854,72.5547445 11.459854,72.4817518" id="Shape"></path>
            <path d="M11.1678832,82.4817518 L11.2408759,82.2627737 C11.1678832,82.189781 11.1678832,82.3357664 11.1678832,82.4817518" id="Shape"></path>
            <path d="M10.3649635,94.3065693 C10.3649635,94.379562 10.3649635,94.379562 10.4379562,94.4525547 C10.4379562,94.379562 10.4379562,94.3065693 10.3649635,94.3065693 Z" id="Shape"></path>
            <path d="M11.3868613,86.2043796 C11.3868613,86.2773723 11.459854,86.2773723 11.459854,86.350365 L11.3868613,86.2043796 Z" id="Shape"></path>
            <path d="M11.459854,89.0510949 C11.459854,88.9781022 11.2408759,88.9781022 11.1678832,88.9781022 C11.2408759,88.9781022 11.3138686,89.0510949 11.3138686,89.1240876 C11.3868613,89.1240876 11.459854,89.0510949 11.459854,89.0510949" id="Shape"></path>
            <path d="M11.1678832,93.649635 L11.1678832,93.7226277 C11.2408759,93.649635 11.1678832,93.649635 11.1678832,93.649635" id="Shape"></path>
            <path d="M11.459854,84.1605839 C11.459854,84.1605839 11.5328467,84.0875912 11.459854,84.1605839 C11.459854,84.0875912 11.459854,84.0875912 11.459854,84.1605839" id="Shape"></path>
            <path d="M3.86861314,4.16058394 C3.94160584,4.16058394 3.94160584,4.16058394 3.86861314,4.16058394 C3.94160584,4.16058394 3.86861314,4.16058394 3.86861314,4.16058394" id="Shape"></path>
            <path d="M4.52554745,0.729927007 C4.59854015,0.802919708 4.59854015,0.802919708 4.67153285,0.802919708 L4.52554745,0.729927007 Z" id="Shape"></path>
            <path d="M11.6788321,69.8540146 C11.6788321,69.8540146 11.6788321,69.8540146 11.6788321,69.8540146 C11.6788321,69.9270073 11.6788321,69.8540146 11.6788321,69.8540146" id="Shape"></path>
            <path d="M10.2919708,45.4744526 C10.1459854,45.7664234 10,45.0364964 9.8540146,45.4744526 C9.9270073,45.4014599 10.2189781,45.8394161 10.2919708,45.4744526" id="Shape"></path>
            <path d="M10.3649635,94.2335766 C10.3649635,94.1605839 10.3649635,94.1605839 10.3649635,94.0875912 C10.3649635,94.1605839 10.3649635,94.1605839 10.3649635,94.2335766" id="Shape"></path>
            <path d="M11.3868613,63.7226277 C11.3868613,63.7226277 11.3138686,63.7956204 11.3138686,63.7956204 C11.3138686,63.7956204 11.3868613,63.7956204 11.3868613,63.7226277" id="Shape"></path>
            <path d="M11.2408759,68.3211679 L11.2408759,68.1751825 C11.2408759,68.2481752 11.2408759,68.2481752 11.2408759,68.3211679" id="Shape"></path>
            <path d="M11.0218978,61.3868613 C11.0218978,61.3138686 11.0948905,61.3138686 11.0218978,61.2408759 C11.0218978,61.2408759 11.0218978,61.2408759 11.0218978,61.2408759 C11.0948905,61.2408759 11.0948905,61.3138686 11.0218978,61.3868613" id="Shape"></path>
            <path d="M10.9489051,58.9051095 C10.9489051,58.9051095 10.9489051,58.9051095 10.9489051,58.9051095 C10.9489051,58.9781022 10.9489051,58.9781022 10.9489051,59.0510949 L10.9489051,58.9051095 Z" id="Shape"></path>
            <path d="M4.74452555,11.6058394 C4.81751825,11.5328467 4.89051095,11.5328467 4.89051095,11.459854 C4.81751825,11.5328467 4.67153285,11.1678832 4.74452555,11.6058394" id="Shape"></path>
            <path d="M10.5109489,94.3065693 C10.4379562,94.3065693 10.4379562,94.3065693 10.4379562,94.2335766 L10.4379562,94.3065693 C10.4379562,94.3065693 10.4379562,94.3065693 10.5109489,94.3065693" id="Shape"></path>
            <path d="M9.41605839,61.3138686 L9.41605839,60.9489051 C9.41605839,61.0218978 9.41605839,61.1678832 9.41605839,61.3138686" id="Shape"></path>
            <path d="M6.71532847,29.1970803 L6.71532847,29.1240876 C6.71532847,29.1240876 6.71532847,29.1240876 6.71532847,29.1970803" id="Shape"></path>
            <path d="M9.34306569,59.7810219 C9.41605839,59.7080292 9.41605839,59.6350365 9.48905109,59.5620438 C9.48905109,59.5620438 9.48905109,59.5620438 9.41605839,59.4890511 L9.34306569,59.7810219 Z" id="Shape"></path>
            <path d="M4.16058394,8.97810219 C4.16058394,9.34306569 4.45255474,9.12408759 4.59854015,9.19708029 C4.74452555,9.6350365 4.45255474,9.41605839 4.30656934,9.5620438 C4.37956204,9.8540146 4.67153285,10 4.67153285,10.2189781 C4.59854015,10.2189781 4.59854015,10.2919708 4.52554745,10.2189781 C4.74452555,10.5109489 4.59854015,11.0948905 4.96350365,11.3868613 C4.96350365,11.3868613 4.89051095,11.459854 4.89051095,11.459854 C5.03649635,11.3868613 5.18248175,11.3868613 5.25547445,11.3868613 C5.25547445,11.5328467 5.47445255,11.6788321 5.25547445,11.7518248 C5.25547445,11.6788321 5.18248175,11.6788321 5.10948905,11.6058394 L5.18248175,11.7518248 C4.96350365,11.9708029 5.03649635,11.5328467 4.89051095,11.5328467 C5.03649635,11.8978102 5.25547445,12.2627737 5.18248175,12.4817518 C4.96350365,12.5547445 5.03649635,11.8978102 4.81751825,12.2627737 L4.89051095,11.8248175 C4.52554745,12.189781 4.89051095,11.6058394 4.52554745,11.8978102 C4.52554745,12.4087591 4.74452555,12.4817518 4.67153285,12.9927007 C4.81751825,13.0656934 4.89051095,12.919708 5.03649635,13.0656934 C5.32846715,13.7956204 4.45255474,13.7226277 4.89051095,14.2335766 C5.03649635,14.379562 5.40145985,14.379562 5.25547445,14.8175182 L5.10948905,14.7445255 C5.10948905,15.2554745 5.54744526,14.9635036 5.40145985,15.5474453 C5.25547445,15.4744526 5.25547445,15.1824818 5.25547445,15.2554745 C5.10948905,15.620438 5.47445255,15.4744526 5.47445255,15.7664234 L5.25547445,15.8394161 C5.32846715,16.350365 5.62043796,16.9343066 5.69343066,17.5912409 C5.62043796,17.5912409 5.54744526,17.4452555 5.47445255,17.5912409 C5.69343066,18.3211679 5.62043796,19.1970803 5.54744526,20 L5.76642336,20.2919708 C5.76642336,20.3649635 5.69343066,20.4379562 5.62043796,20.3649635 C5.54744526,20.6569343 5.76642336,20.3649635 5.83941606,20.5109489 C5.83941606,20.6569343 5.76642336,20.729927 5.69343066,20.6569343 C5.91240876,21.1678832 6.27737226,22.0437956 6.05839416,22.6277372 L5.98540146,22.5547445 C5.91240876,22.9927007 6.49635036,22.9927007 6.35036496,23.3576642 L6.27737226,23.2846715 C6.27737226,24.1605839 6.56934307,25.1824818 6.35036496,25.9124088 C6.64233577,25.9854015 6.27737226,26.7883212 6.71532847,26.8613139 C6.56934307,27.3722628 6.49635036,27.2262774 6.42335766,28.0291971 C6.42335766,28.2481752 6.71532847,28.3211679 6.78832117,28.540146 L6.56934307,28.540146 L6.86131387,28.8321168 L6.64233577,29.0510949 L6.71532847,29.270073 C6.71532847,29.1970803 6.78832117,29.0510949 6.86131387,29.0510949 C7.00729927,29.4160584 6.78832117,29.9270073 6.71532847,29.9270073 L7.00729927,30.729927 C6.93430657,30.729927 6.86131387,30.5839416 6.78832117,30.5109489 C7.08029197,30.9489051 6.56934307,30.5839416 6.78832117,31.0218978 C6.86131387,30.9489051 6.93430657,31.0218978 7.00729927,31.0218978 C6.86131387,31.2408759 6.93430657,31.6788321 7.08029197,32.0437956 L6.93430657,31.9708029 C6.93430657,32.5547445 7.15328467,33.2846715 7.22627737,33.9416058 C7.29927007,33.7226277 7.51824818,33.7226277 7.59124088,33.9416058 L7.29927007,33.8686131 C7.44525547,34.0145985 7.37226277,33.649635 7.59124088,33.8686131 C7.59124088,34.1605839 7.37226277,34.0875912 7.22627737,33.9416058 L7.37226277,34.2335766 C7.29927007,34.2335766 7.22627737,34.1605839 7.15328467,34.1605839 C7.29927007,34.3065693 7.00729927,34.7445255 7.22627737,34.8905109 L7.15328467,34.8905109 C7.22627737,35.5474453 7.37226277,35.9124088 7.44525547,36.4233577 C7.66423358,36.4233577 7.66423358,36.6423358 7.81021898,36.7883212 C7.81021898,37.2262774 7.66423358,37.6642336 7.73722628,38.1751825 C7.88321168,38.540146 7.95620438,38.2481752 8.02919708,38.3941606 C7.88321168,38.4671533 7.95620438,38.9051095 7.73722628,38.6861314 C7.81021898,39.270073 7.88321168,39.4160584 8.10218978,40.1459854 C8.17518248,40.0729927 8.17518248,39.9270073 8.24817518,40 C8.32116788,40.1459854 8.17518248,40.2919708 8.10218978,40.2919708 C8.46715328,41.0948905 7.81021898,42.3357664 8.24817518,42.919708 L8.54014599,43.5766423 C8.54014599,43.8686131 8.39416058,43.4306569 8.32116788,43.649635 C8.68613139,44.379562 8.39416058,44.8175182 8.68613139,45.4744526 C8.17518248,45.9854015 8.90510949,47.1532847 8.61313869,47.8832117 L8.75912409,47.810219 C8.90510949,47.9562044 8.68613139,48.0291971 8.68613139,48.1751825 C8.75912409,48.1751825 8.75912409,47.9562044 8.83211679,48.1021898 C9.12408759,49.4890511 8.90510949,51.0218978 8.90510949,52.4817518 C8.90510949,52.9927007 9.5620438,52.7737226 9.34306569,53.4306569 L9.05109489,53.2846715 C9.41605839,54.3065693 9.19708029,55.4744526 9.48905109,56.4963504 C9.41605839,56.4233577 9.34306569,56.4233577 9.34306569,56.350365 C9.19708029,56.5693431 9.34306569,57.1532847 9.48905109,57.1532847 C9.48905109,57.2992701 9.34306569,57.2262774 9.27007299,57.2992701 C9.19708029,57.5182482 9.48905109,57.8832117 9.34306569,57.9562044 C9.34306569,57.9562044 9.27007299,57.8832117 9.27007299,57.8832117 C9.34306569,58.0291971 9.27007299,58.540146 9.48905109,58.3941606 C9.41605839,58.7591241 9.6350365,59.1240876 9.48905109,59.4890511 C9.7080292,59.7080292 9.41605839,60.1459854 9.7080292,60.2189781 C9.34306569,60.2189781 9.48905109,60.9489051 9.6350365,61.1678832 C9.5620438,61.0948905 9.5620438,61.3868613 9.41605839,61.3138686 C9.41605839,61.6058394 9.48905109,61.8248175 9.6350365,61.8248175 C9.27007299,62.3357664 10,62.8467153 9.48905109,63.2116788 C9.7080292,64.0875912 9.8540146,64.8175182 9.9270073,65.620438 C9.5620438,65.620438 9.8540146,64.7445255 9.5620438,64.8175182 C9.7080292,65.5474453 10,65.9854015 9.9270073,66.6423358 C9.8540146,66.8613139 9.7810219,66.5693431 9.7080292,66.4963504 C9.8540146,67.2262774 9.7080292,67.8832117 9.9270073,68.540146 C9.9270073,68.540146 9.8540146,68.4671533 9.8540146,68.3941606 C9.8540146,68.540146 9.7810219,68.6861314 9.9270073,68.6861314 L9.8540146,68.540146 C10.0729927,68.3211679 10.2919708,69.0510949 10.4379562,69.0510949 C10,68.8321168 10.3649635,69.7080292 9.7810219,69.3430657 C9.7810219,69.4160584 9.8540146,69.5620438 10,69.4890511 C10,69.6350365 9.9270073,69.6350365 9.7810219,69.5620438 C9.8540146,70 10,69.8540146 10,70.2919708 C9.9270073,70.2919708 9.9270073,70.2189781 9.7810219,70.1459854 C9.9270073,70.3649635 10.0729927,70.5839416 10,70.8759124 C9.9270073,70.8759124 9.9270073,70.8759124 9.9270073,70.8029197 C9.9270073,71.3868613 10.2919708,71.8248175 10.2189781,72.4817518 C9.9270073,72.2627737 10.1459854,72.7007299 9.8540146,72.7737226 L9.9270073,73.1386861 L10.0729927,72.9927007 C10.0729927,73.2846715 10.2919708,73.5766423 10.2189781,73.8686131 L10.0729927,73.649635 L10.1459854,74.2335766 L10.2189781,73.8686131 C10.3649635,74.1605839 10.5839416,73.7956204 10.5109489,74.2335766 C10.5109489,74.1605839 10.5109489,74.5255474 10.3649635,74.7445255 C10.4379562,74.8905109 10.5109489,75.0364964 10.5109489,75.2554745 C10.4379562,75.3284672 10.2189781,75.1824818 10.1459854,75.2554745 C10.3649635,75.4014599 10.2189781,75.9854015 10.4379562,76.2043796 C10.3649635,76.1313869 10.2189781,76.1313869 10.2189781,76.1313869 L10.4379562,76.2773723 C10.3649635,76.4233577 10.3649635,76.4233577 10.2189781,76.4233577 C10.2189781,76.8613139 10.5839416,76.2773723 10.4379562,76.7883212 C10.4379562,76.7153285 10.3649635,76.7883212 10.3649635,76.7153285 C10.2919708,77.2262774 10.5109489,77.7372263 10.4379562,78.1751825 C10.1459854,78.3211679 10.3649635,77.7372263 10.1459854,77.9562044 C10.2189781,78.6131387 10.5109489,79.3430657 10.4379562,80 L10.4379562,79.8540146 C10.8029197,79.9270073 10.2189781,80.3649635 10.4379562,80.6569343 C10.4379562,80.5839416 10.2189781,80.5839416 10.2919708,80.5839416 C10.2189781,81.0218978 10.3649635,81.5328467 10.5109489,82.189781 L10.4379562,82.1167883 C10.3649635,82.4087591 10.3649635,82.8467153 10.3649635,83.1386861 C10.4379562,83.2116788 10.4379562,83.3576642 10.5839416,83.2846715 C10,84.1605839 10.8759124,84.9635036 10.4379562,85.7664234 C10.4379562,85.6934307 10.3649635,85.5474453 10.3649635,85.620438 L10.4379562,86.2773723 C10.5839416,86.2043796 10.5109489,86.2043796 10.6569343,86.0583942 C10.729927,86.1313869 10.8029197,86.350365 10.8759124,86.4963504 C10.729927,86.2043796 10.5839416,86.4963504 10.5109489,86.6423358 C10.5839416,86.6423358 10.5839416,86.6423358 10.6569343,86.6423358 C10.3649635,87.0072993 11.0218978,86.7153285 10.8029197,87.1532847 L10.729927,87.1532847 C10.8029197,87.2992701 10.8759124,87.5182482 10.8759124,87.6642336 C10.6569343,87.7372263 10.8029197,87.4452555 10.6569343,87.4452555 C10.6569343,87.7372263 11.0218978,87.9562044 10.8759124,88.2481752 C10.8029197,88.1021898 10.8029197,87.9562044 10.729927,87.8832117 C10.5109489,88.1751825 10.5839416,88.1751825 10.5109489,88.3941606 L10.4379562,88.8321168 L10.5109489,88.6861314 C11.0218978,89.0510949 10.5839416,89.3430657 10.9489051,89.8540146 C10.6569343,89.4160584 10.729927,89.7810219 10.5109489,89.7810219 C10.4379562,89.9270073 10.3649635,90.0729927 10.2919708,90 C10.4379562,90.2189781 10.1459854,90.3649635 10.4379562,90.6569343 C10.3649635,90.6569343 10.4379562,90.8759124 10.2189781,90.8759124 C10.2919708,91.1678832 10.3649635,90.8029197 10.4379562,90.8029197 C10.6569343,91.2408759 10.1459854,91.8248175 10.5109489,92.4087591 C10.6569343,92.919708 10.8759124,93.0656934 11.0218978,93.5036496 C10.8759124,93.649635 10.729927,93.3576642 10.729927,93.3576642 C10.6569343,93.649635 10.6569343,93.8686131 10.729927,94.0875912 C10.6569343,94.0145985 10.5839416,94.0875912 10.5109489,94.1605839 C10.5109489,94.379562 10.8029197,94.3065693 10.6569343,94.5985401 C10.5839416,94.5255474 10.4379562,94.5255474 10.3649635,94.379562 C10.4379562,94.5985401 10.5839416,94.8905109 10.6569343,95.1094891 C10.5109489,95.1824818 10.4379562,94.9635036 10.3649635,94.8905109 C10.4379562,95.1824818 10.5109489,95.620438 10.6569343,95.6934307 L10.729927,95.5474453 C10.729927,95.620438 10.5839416,95.620438 10.5109489,95.5474453 C10.3649635,95.3284672 10.5839416,95.1824818 10.6569343,95.1824818 L10.729927,95.3284672 C11.1678832,95.1094891 10.6569343,94.5985401 10.6569343,94.2335766 L10.9489051,94.379562 L10.6569343,94.0145985 C10.729927,93.9416058 10.8759124,93.8686131 10.9489051,94.0875912 C11.0948905,93.7956204 10.8029197,93.8686131 11.0218978,93.649635 C11.0218978,93.649635 11.0948905,93.649635 11.0948905,93.649635 L11.0218978,93.4306569 C11.0948905,93.5036496 11.2408759,93.3576642 11.1678832,93.5766423 C11.3138686,93.1386861 10.9489051,92.8467153 11.1678832,92.7007299 L11.1678832,92.7737226 C11.0948905,92.1167883 10.9489051,92.7007299 10.6569343,92.2627737 L11.1678832,91.9708029 L10.9489051,91.8978102 C10.9489051,91.8248175 10.9489051,91.6788321 11.0948905,91.7518248 C10.9489051,91.5328467 11.0218978,91.8248175 10.8759124,91.6788321 C11.0948905,91.3868613 10.8029197,90.8029197 11.0948905,90.729927 C10.9489051,90.5839416 10.9489051,91.0218978 10.8759124,90.729927 C11.2408759,90.6569343 10.8029197,90.3649635 10.9489051,90.0729927 C11.1678832,90.1459854 11.0218978,90.4379562 11.2408759,90.1459854 C10.8759124,90 11.3138686,89.5620438 11.2408759,89.3430657 C10.9489051,89.3430657 11.0948905,88.8321168 11.0218978,88.3941606 C11.0948905,88.3941606 11.1678832,87.6642336 11.2408759,87.2262774 L11.3138686,87.2262774 C11.0218978,87.1532847 11.0948905,86.7883212 11.0218978,86.4963504 C11.1678832,86.4963504 11.2408759,86.5693431 11.3138686,86.7153285 L11.3138686,86.4233577 C11.2408759,86.350365 11.1678832,86.2773723 11.1678832,86.1313869 L11.3868613,86.2043796 C11.3868613,85.8394161 11.1678832,85.4744526 11.2408759,85.0364964 C11.0218978,85.0364964 10.729927,85.4014599 10.5839416,84.8905109 C10.6569343,84.8905109 10.8759124,84.8175182 10.8759124,84.9635036 C10.8759124,84.8905109 10.8029197,84.8175182 10.8029197,84.7445255 L10.9489051,84.9635036 C11.0218978,84.7445255 10.8029197,84.8905109 10.8029197,84.6715328 C10.9489051,84.6715328 10.8759124,84.5255474 11.0218978,84.5985401 C11.0218978,84.6715328 10.9489051,84.7445255 11.0218978,84.8175182 C11.0218978,84.5985401 11.0948905,84.379562 11.2408759,84.3065693 C11.1678832,84.3065693 11.0218978,84.3065693 11.0218978,84.1605839 C11.0218978,83.7956204 11.1678832,84.0145985 11.2408759,83.7956204 C11.1678832,83.7226277 11.2408759,83.5036496 11.0218978,83.5036496 C11.0218978,83.4306569 11.0948905,83.3576642 11.1678832,83.3576642 C11.0948905,83.2116788 11.0948905,82.4817518 10.8759124,82.7007299 L10.8759124,82.7737226 C10.8759124,82.7737226 10.8759124,82.7737226 10.8759124,82.7737226 C10.6569343,82.189781 10.9489051,81.5328467 10.8759124,80.9489051 L10.9489051,80.9489051 C10.8759124,80.5839416 10.8759124,80.1459854 10.729927,79.9270073 C10.729927,79.8540146 10.8759124,79.7080292 10.9489051,79.7080292 C10.8759124,79.4160584 10.8029197,79.4160584 10.9489051,79.0510949 C11.0948905,79.3430657 11.0948905,78.9781022 11.0218978,79.3430657 C11.0948905,78.9781022 11.1678832,78.9051095 11.0218978,78.540146 C11.2408759,78.6861314 11.2408759,78.2481752 11.1678832,78.1021898 L11.0218978,78.3211679 C11.0218978,78.1021898 11.0218978,77.9562044 11.0218978,77.810219 L11.2408759,77.8832117 C11.5328467,77.1532847 10.729927,76.5693431 11.2408759,76.0583942 C11.0948905,75.8394161 11.0948905,76.4233577 10.9489051,76.2773723 C10.9489051,75.9124088 11.3138686,75.620438 11.3138686,75.4744526 C11.459854,75.0364964 10.9489051,75.0364964 11.0218978,74.5985401 C10.9489051,74.6715328 10.729927,74.7445255 10.5839416,74.379562 C10.5839416,74.0145985 10.9489051,73.9416058 11.0218978,74.1605839 C11.0218978,74.2335766 11.0218978,74.3065693 10.9489051,74.3065693 C10.9489051,74.379562 11.0218978,74.5255474 11.0948905,74.4525547 L11.0218978,74.379562 C11.0948905,74.2335766 11.0948905,73.7956204 11.2408759,73.8686131 C11.1678832,73.649635 11.0948905,73.7956204 11.0218978,73.9416058 C11.1678832,73.5036496 11.0218978,73.2846715 11.0948905,72.8467153 C11.0218978,72.919708 10.9489051,72.9927007 10.9489051,72.919708 C11.0218978,72.2627737 10.8029197,72.6277372 10.729927,72.189781 C10.8759124,71.9708029 11.0218978,72.2627737 10.9489051,71.8248175 C11.0218978,71.5328467 11.1678832,71.7518248 11.2408759,71.8978102 C11.0948905,71.5328467 11.3138686,71.1678832 11.3868613,70.9489051 L11.459854,71.1678832 C11.3868613,71.0218978 11.3868613,70.9489051 11.3868613,70.8029197 L11.2408759,70.9489051 C11.2408759,70.8029197 11.2408759,70.729927 11.3138686,70.729927 C11.1678832,70.5839416 11.0218978,70.8029197 10.8759124,70.5839416 C10.9489051,70.4379562 10.8029197,70.0729927 11.0218978,70 C10.9489051,70.5109489 11.2408759,69.9270073 11.3138686,70.3649635 C11.3138686,70.2919708 11.3138686,70.1459854 11.3138686,70.0729927 C11.3138686,70.0729927 11.3868613,70.0729927 11.3868613,70.1459854 C11.6058394,69.6350365 11.0948905,69.9270073 11.0948905,69.4160584 C11.2408759,69.4890511 11.3138686,69.270073 11.3138686,69.1970803 C11.3138686,69.4160584 11.0948905,69.270073 11.0218978,69.1240876 C11.0948905,68.7591241 10.9489051,68.7591241 10.9489051,68.6131387 L10.8759124,68.8321168 C10.729927,68.7591241 10.729927,68.6131387 10.729927,68.3941606 C10.8029197,68.3941606 10.8029197,68.6131387 10.8759124,68.540146 C10.6569343,68.3211679 11.0948905,67.9562044 10.9489051,67.5912409 C11.0218978,67.4452555 11.1678832,67.5912409 11.2408759,67.4452555 C11.0948905,67.080292 11.3868613,67.0072993 11.2408759,66.5693431 C11.0948905,66.7153285 11.0948905,66.7153285 10.9489051,66.4233577 L11.0948905,67.080292 L10.8029197,66.6423358 C10.8029197,66.8613139 10.9489051,67.080292 10.8759124,67.2262774 C10.729927,67.0072993 10.8029197,67.0072993 10.6569343,67.1532847 C10.8759124,66.8613139 10.5109489,66.5693431 10.6569343,66.2773723 L11.0948905,66.2773723 C11.2408759,65.7664234 10.8759124,65.4014599 10.9489051,64.7445255 L10.8759124,64.9635036 C10.729927,64.8905109 10.8759124,64.5985401 10.8029197,64.379562 C10.9489051,64.379562 11.0218978,64.2335766 11.0948905,64.1605839 C11.0218978,64.1605839 11.0948905,63.7226277 10.8029197,63.649635 L10.9489051,63.3576642 C11.0218978,62.8467153 10.5109489,62.7737226 10.5839416,62.2627737 C10.729927,62.4087591 10.8759124,62.189781 10.9489051,62.4817518 C10.9489051,62.3357664 10.9489051,62.189781 10.8759124,62.189781 C10.9489051,62.1167883 10.6569343,61.7518248 10.8029197,61.6058394 C10.729927,61.5328467 10.5839416,61.5328467 10.5839416,61.3138686 C10.5839416,61.3138686 10.6569343,61.3138686 10.6569343,61.3138686 C10.5839416,61.3138686 10.5839416,61.0218978 10.3649635,61.1678832 C10.8029197,60.6569343 10.2919708,59.7080292 10.6569343,59.270073 C10.5839416,58.9051095 10.5109489,58.4671533 10.5109489,58.1751825 C10.5839416,58.1751825 10.5839416,58.1751825 10.5839416,58.2481752 C10.729927,57.810219 10.1459854,57.9562044 10.2919708,57.4452555 C10.5109489,57.1532847 10.4379562,57.7372263 10.5109489,57.5182482 C10.9489051,57.4452555 10.4379562,56.9343066 10.6569343,56.5693431 L10.6569343,56.6423358 C10.8029197,56.350365 10.4379562,55.9854015 10.4379562,55.5474453 C10.4379562,55.5474453 10.5109489,55.5474453 10.5109489,55.5474453 C10.2189781,55.2554745 10.1459854,54.7445255 10.0729927,54.3065693 C10.2919708,54.4525547 10.1459854,54.5255474 10.3649635,54.379562 C10.2919708,54.1605839 10.0729927,54.4525547 10,54.0875912 C10.0729927,53.9416058 10.1459854,53.7226277 10.3649635,53.649635 L10.3649635,54.0145985 C10.5839416,53.7956204 10.3649635,53.5766423 10.3649635,53.3576642 L10.5109489,53.3576642 C10.4379562,52.8467153 10.1459854,52.8467153 10.1459854,52.2627737 L10.0729927,52.3357664 C9.7810219,52.0437956 10.2189781,52.0437956 10,51.7518248 L10.2919708,51.6058394 C10.2189781,51.3868613 9.9270073,50.8759124 9.8540146,50.5109489 C10.0729927,50.729927 10.2189781,51.1678832 10.3649635,51.3868613 C10.3649635,51.1678832 10.2919708,50.6569343 10.1459854,50.5839416 C10.1459854,50.6569343 10.2919708,50.729927 10.2189781,50.8759124 C10.2189781,50.3649635 10.0729927,50 10.0729927,49.6350365 C10.6569343,49.6350365 10.1459854,48.540146 10.5109489,48.2481752 C10.2189781,47.5182482 10.4379562,46.7883212 10.3649635,45.9124088 C9.9270073,46.2773723 10.3649635,45.6934307 9.8540146,45.7664234 C9.7810219,45.5474453 9.7810219,45.4744526 9.8540146,45.4744526 L10.0729927,44.8175182 C10.2189781,44.6715328 10.2189781,44.9635036 10.2919708,44.9635036 C10.2919708,44.5255474 10.4379562,44.7445255 10.5109489,44.4525547 C10.3649635,44.5255474 10.2919708,44.3065693 10.2919708,44.0875912 L10.1459854,44.4525547 C9.8540146,43.8686131 10.4379562,43.8686131 10.1459854,43.2846715 L10.2919708,43.4306569 C10.2189781,43.2116788 10.2189781,42.3357664 9.8540146,42.1167883 C9.9270073,42.0437956 10,41.9708029 10.0729927,42.1167883 C10.0729927,41.3868613 9.48905109,40.5109489 9.6350365,39.9270073 L9.7810219,40 C9.7080292,39.8540146 9.5620438,39.7810219 9.6350365,39.5620438 C9.7080292,39.5620438 9.7810219,39.6350365 9.7810219,39.5620438 C9.6350365,39.4160584 9.48905109,39.1240876 9.48905109,38.9051095 L9.6350365,39.0510949 C9.7080292,38.3211679 9.19708029,37.9562044 9.05109489,37.3722628 C9.34306569,37.3722628 9.41605839,36.7883212 9.41605839,36.4963504 L9.48905109,36.4963504 C9.41605839,35.620438 9.05109489,35.1094891 8.83211679,34.3065693 C9.12408759,33.7956204 8.75912409,32.6277372 8.90510949,31.8248175 C8.83211679,31.9708029 8.68613139,31.8248175 8.61313869,31.6788321 C8.68613139,31.459854 8.32116788,31.1678832 8.61313869,31.1678832 L8.61313869,31.2408759 C8.90510949,31.0948905 8.75912409,30.729927 8.75912409,30.4379562 L8.39416058,30.4379562 C8.83211679,29.6350365 7.95620438,28.4671533 8.39416058,27.9562044 C8.24817518,27.810219 8.24817518,27.5182482 8.10218978,27.3722628 L8.32116788,27.3722628 C8.32116788,26.8613139 8.32116788,26.5693431 8.17518248,25.9854015 L8.32116788,26.1313869 C8.32116788,25.7664234 7.66423358,25.7664234 7.66423358,25.4014599 L7.95620438,25.2554745 C7.88321168,24.5985401 8.10218978,23.9416058 7.73722628,23.3576642 C7.81021898,23.3576642 7.88321168,23.3576642 7.88321168,23.5036496 C7.88321168,23.2116788 7.95620438,22.3357664 7.51824818,22.4817518 C7.81021898,22.4087591 7.44525547,21.8248175 7.29927007,21.5328467 L7.51824818,21.5328467 C7.22627737,21.2408759 7.15328467,21.2408759 7.00729927,20.8759124 C7.00729927,20.8029197 7.15328467,20.8029197 7.15328467,20.8759124 C7.22627737,20.5839416 6.93430657,20.6569343 7.00729927,20.2919708 L7.15328467,20.4379562 C7.15328467,20.1459854 7.08029197,20.1459854 6.86131387,20 C6.78832117,19.7810219 6.86131387,19.4160584 7.00729927,19.3430657 C6.86131387,19.3430657 6.71532847,19.1240876 6.78832117,18.9781022 C6.86131387,18.9781022 6.93430657,18.9781022 6.93430657,19.0510949 C7.00729927,18.4671533 6.64233577,18.2481752 6.78832117,17.8832117 C6.86131387,17.8832117 6.86131387,17.810219 6.93430657,17.810219 C7.00729927,18.2481752 7.00729927,18.6131387 7.00729927,18.540146 C7.22627737,18.540146 7.15328467,18.1751825 7.44525547,18.3941606 C7.29927007,18.1021898 6.93430657,17.6642336 6.93430657,17.3722628 C6.93430657,17.3722628 6.93430657,17.3722628 7.00729927,17.2992701 C7.00729927,17.2262774 7.00729927,17.1532847 6.93430657,17.080292 C6.93430657,16.9343066 6.93430657,16.9343066 6.93430657,16.7883212 C7.08029197,16.7153285 7.00729927,16.350365 6.93430657,16.2043796 C6.71532847,16.2773723 6.71532847,15.9854015 6.56934307,16.2773723 C6.56934307,16.2773723 6.56934307,16.2773723 6.64233577,16.4233577 C6.64233577,16.4233577 6.64233577,16.4963504 6.64233577,16.4963504 C6.64233577,16.6423358 6.71532847,16.7883212 6.71532847,16.9343066 C6.56934307,16.7883212 6.49635036,16.6423358 6.56934307,16.4963504 C6.42335766,16.4233577 6.27737226,16.350365 6.20437956,16.2773723 C6.49635036,15.9854015 6.56934307,15.5474453 6.71532847,15.4744526 C6.56934307,14.9635036 6.49635036,14.2335766 6.05839416,13.9416058 C5.98540146,13.7956204 6.13138686,13.7226277 6.20437956,13.7226277 C6.27737226,13.7956204 6.27737226,13.9416058 6.35036496,13.9416058 C6.20437956,13.649635 6.20437956,13.0656934 5.91240876,12.9927007 C5.98540146,12.6277372 6.20437956,13.2116788 6.05839416,12.6277372 L6.13138686,12.7007299 C6.42335766,11.6058394 5.25547445,11.0948905 5.69343066,9.9270073 C5.69343066,10 5.62043796,10.0729927 5.62043796,10.0729927 C5.69343066,8.75912409 5.10948905,7.44525547 5.40145985,6.13138686 C5.47445255,5.76642336 5.25547445,5.76642336 5.10948905,5.54744526 L5.32846715,5.47445255 L5.25547445,5.03649635 C5.03649635,4.52554745 5.69343066,4.08759124 5.25547445,3.43065693 L5.10948905,3.50364964 C5.10948905,3.28467153 4.96350365,2.77372263 5.10948905,2.77372263 C5.10948905,2.77372263 4.96350365,2.70072993 5.03649635,2.62773723 L5.18248175,2.62773723 L4.89051095,1.97080292 C4.89051095,1.53284672 5.32846715,1.97080292 5.32846715,1.31386861 C5.25547445,1.09489051 4.89051095,0.656934307 4.81751825,0.729927007 C4.81751825,0.802919708 4.74452555,1.02189781 4.67153285,1.02189781 L4.59854015,0.802919708 C4.23357664,0.802919708 3.86861314,0.656934307 3.72262774,1.24087591 L3.94160584,1.60583942 L3.79562044,1.75182482 L3.72262774,1.45985401 C3.57664234,1.67883212 3.72262774,1.75182482 3.86861314,1.89781022 C3.79562044,1.89781022 3.72262774,1.97080292 3.72262774,2.04379562 L4.08759124,2.40875912 C3.94160584,2.48175182 3.79562044,2.26277372 3.72262774,2.55474453 C3.86861314,2.70072993 4.01459854,2.33576642 4.16058394,2.62773723 C4.01459854,2.84671533 3.86861314,2.77372263 4.01459854,2.99270073 C3.94160584,2.99270073 3.86861314,2.99270073 3.86861314,2.91970803 C4.01459854,3.13868613 3.94160584,3.43065693 4.16058394,3.50364964 C3.94160584,3.72262774 4.23357664,4.16058394 3.94160584,4.16058394 C4.01459854,4.23357664 4.23357664,4.45255474 4.23357664,4.67153285 C3.79562044,4.37956204 4.30656934,5.32846715 3.86861314,5.32846715 C4.23357664,5.54744526 4.08759124,6.20437956 4.37956204,6.56934307 C4.37956204,6.56934307 4.30656934,6.49635036 4.30656934,6.49635036 C4.30656934,6.71532847 4.23357664,6.86131387 4.16058394,7.00729927 C4.45255474,7.00729927 4.52554745,7.37226277 4.74452555,7.59124088 C4.45255474,7.88321168 4.37956204,7.37226277 4.08759124,7.51824818 C4.30656934,7.51824818 4.37956204,8.02919708 4.59854015,7.88321168 C4.45255474,8.10218978 4.52554745,8.10218978 4.30656934,8.24817518 C4.67153285,8.24817518 4.37956204,8.46715328 4.59854015,8.61313869 C4.45255474,8.97810219 4.30656934,8.75912409 4.45255474,9.05109489 C4.37956204,9.27007299 4.16058394,8.97810219 4.16058394,8.97810219 M5.69343066,17.5912409 C5.69343066,17.5182482 5.69343066,17.4452555 5.69343066,17.4452555 C5.69343066,17.4452555 5.69343066,17.4452555 5.69343066,17.5912409 M5.83941606,18.3211679 C5.83941606,18.2481752 5.83941606,18.1021898 5.83941606,18.0291971 C5.91240876,18.0291971 5.98540146,18.0291971 5.98540146,18.1021898 C5.83941606,18.0291971 5.83941606,18.1751825 5.83941606,18.3211679 M7.08029197,16.5693431 C7.15328467,16.7153285 7.08029197,16.7153285 7.08029197,16.7153285 C7.08029197,16.6423358 7.08029197,16.5693431 7.00729927,16.4963504 C7.00729927,16.5693431 7.00729927,16.5693431 7.08029197,16.5693431" id="Shape"></path>
            <path d="M6.78832117,16.4233577 C6.78832117,16.4233577 6.71532847,16.4233577 6.78832117,16.4233577 C6.71532847,16.4233577 6.71532847,16.4233577 6.78832117,16.4233577 Z" id="Shape"></path>
            <polygon id="Shape" points="6.56934307 28.3941606 6.56934307 28.3941606 6.56934307 28.3211679"></polygon>
            <path d="M10.5109489,86.5693431 C10.5109489,86.5693431 10.4379562,86.6423358 10.5109489,86.5693431 C10.4379562,86.6423358 10.4379562,86.6423358 10.5109489,86.5693431" id="Shape"></path>
            <path d="M10.4379562,88.3211679 L10.3649635,88.540146 C10.4379562,88.4671533 10.4379562,88.3941606 10.4379562,88.3211679" id="Shape"></path>
            <path d="M10.3649635,89.6350365 C10.3649635,89.6350365 10.4379562,89.6350365 10.4379562,89.6350365 L10.3649635,89.6350365 Z" id="Shape"></path>
            <path d="M9.8540146,68.3941606 C9.8540146,68.3941606 9.8540146,68.3941606 9.8540146,68.3941606 C9.7810219,68.2481752 9.7810219,68.3211679 9.8540146,68.3941606" id="Shape"></path>
            <path d="M10.4379562,74.7445255 C10.3649635,74.6715328 10.3649635,74.5985401 10.3649635,74.5255474 C10.2919708,74.6715328 10.2919708,74.7445255 10.4379562,74.7445255" id="Shape"></path>
            <polygon id="Shape" points="9.41605839 61.3868613 9.41605839 61.3868613 9.41605839 61.3138686"></polygon>
            <path d="M10.2919708,74.2335766 C10.2189781,74.379562 10.2919708,74.4525547 10.2919708,74.5255474 C10.3649635,74.4525547 10.3649635,74.3065693 10.2919708,74.2335766" id="Shape"></path>
            <path d="M10.3649635,95.4744526 C10.3649635,95.5474453 10.3649635,95.5474453 10.3649635,95.4744526 Z" id="Shape"></path>
            <path d="M10.3649635,95.5474453 C10.4379562,95.5474453 10.4379562,95.5474453 10.3649635,95.5474453" id="Shape"></path>
            <path d="M10.4379562,95.7664234 L10.3649635,95.620438 C10.4379562,95.6934307 10.4379562,95.6934307 10.4379562,95.7664234" id="Shape"></path>
            <path d="M10.4379562,93.7226277 L10.3649635,93.7226277 C10.3649635,93.649635 10.3649635,93.7226277 10.4379562,93.7226277" id="Shape"></path>
            <path d="M10.4379562,93.1386861 C10.4379562,93.2846715 10.2919708,93.4306569 10.3649635,93.649635 L10.4379562,93.649635 C10.2189781,93.5766423 10.5109489,93.2846715 10.4379562,93.1386861" id="Shape"></path>
            <path d="M11.3138686,90.8759124 L11.2408759,91.3138686 C11.3138686,91.2408759 11.459854,91.0948905 11.459854,91.3138686 C11.6788321,90.8029197 11.2408759,91.459854 11.3138686,90.8759124" id="Shape"></path>
            <path d="M11.3868613,89.4890511 C11.459854,89.7080292 11.5328467,89.4890511 11.5328467,89.4890511 C11.459854,89.3430657 11.459854,89.3430657 11.3868613,89.4890511" id="Shape"></path>
            <path d="M11.2408759,79.4160584 L11.459854,79.4160584 C11.459854,79.1970803 11.3868613,79.4160584 11.2408759,79.4160584" id="Shape"></path>
            <polygon id="Shape" points="10.2919708 77.4452555 10.1459854 77.6642336 10.3649635 77.7372263"></polygon>
            <polygon id="Shape" points="11.6058394 76.350365 11.6058394 76.4233577 11.5328467 76.0583942"></polygon>
            <path d="M11.1678832,59.3430657 L10.9489051,59.4160584 C10.9489051,59.4890511 11.2408759,59.5620438 11.1678832,59.3430657" id="Shape"></path>
            <path d="M10.5839416,51.9708029 C10.6569343,51.8978102 10.729927,51.6788321 10.6569343,51.5328467 C10.5839416,51.7518248 10.5109489,51.8978102 10.5839416,51.9708029" id="Shape"></path>
            <polygon id="Shape" points="8.61313869 30.0729927 8.68613139 30.2189781 8.61313869 29.9270073"></polygon>
            <path d="M19.4890511,88.6861314 C19.4890511,88.6131387 19.4160584,88.540146 19.4160584,88.540146 L19.4890511,88.6861314 Z" id="Shape"></path>
            <path d="M19.1970803,88.3941606 C19.270073,88.540146 19.3430657,88.6861314 19.4160584,88.9051095 C19.3430657,88.6861314 19.3430657,88.7591241 19.270073,88.540146 C19.270073,88.540146 19.3430657,88.6131387 19.4160584,88.6861314 C19.4160584,88.6131387 19.4890511,88.6861314 19.4160584,88.6131387 C19.270073,88.4671533 19.270073,88.4671533 19.3430657,88.6131387 C19.1970803,88.4671533 19.1970803,88.4671533 19.1970803,88.3941606" id="Shape"></path>
            <path d="M17.2992701,89.1970803 C17.2262774,89.1970803 17.2262774,89.1970803 17.2992701,89.1970803" id="Shape"></path>
            <path d="M19.270073,89.0510949 C19.270073,89.0510949 19.1970803,88.9781022 19.270073,89.0510949 C19.1970803,88.9781022 19.1970803,88.9781022 19.270073,89.0510949 Z" id="Shape"></path>
            <path d="M17.5912409,88.6861314 C17.5912409,88.6861314 17.5912409,88.6131387 17.5182482,88.6131387 L17.5912409,88.6861314 Z" id="Shape"></path>
            <path d="M17.9562044,88.4671533 C17.9562044,88.4671533 18.0291971,88.6131387 18.1021898,88.6861314 C18.0291971,88.6131387 18.0291971,88.540146 18.0291971,88.540146 C18.0291971,88.540146 17.9562044,88.4671533 17.9562044,88.4671533" id="Shape"></path>
            <path d="M17.3722628,88.8321168 C17.2992701,88.8321168 17.2992701,88.8321168 17.3722628,88.8321168 Z" id="Shape"></path>
            <path d="M12.0437956,98.7591241 C11.9708029,98.7591241 11.9708029,98.7591241 12.0437956,98.7591241 C11.9708029,98.7591241 12.0437956,98.7591241 12.0437956,98.7591241" id="Shape"></path>
            <polygon id="Shape" points="10.9489051 99.1240876 10.9489051 99.1240876 10.8029197 99.0510949"></polygon>
            <path d="M12.8467153,92.6277372 C12.9927007,92.7007299 12.9927007,92.8467153 13.2116788,92.919708 C13.1386861,92.8467153 12.9927007,92.6277372 12.8467153,92.6277372" id="Shape"></path>
            <path d="M14.7445255,90.5839416 C14.8175182,90.5839416 14.8175182,90.5839416 14.7445255,90.5839416 C14.8175182,90.5839416 14.8175182,90.5839416 14.7445255,90.5839416" id="Shape"></path>
            <path d="M14.4525547,91.2408759 C14.4525547,91.3138686 14.4525547,91.3138686 14.4525547,91.2408759 Z" id="Shape"></path>
            <path d="M12.1167883,97.7372263 C12.0437956,97.7372263 11.9708029,97.7372263 11.9708029,97.7372263 C12.0437956,97.7372263 12.1167883,97.810219 12.1167883,97.7372263" id="Shape"></path>
            <path d="M19.1970803,88.9781022 C19.1970803,89.0510949 19.1970803,89.0510949 19.270073,89.0510949 L19.1970803,88.9781022 C19.1970803,88.9781022 19.1970803,88.9781022 19.1970803,88.9781022" id="Shape"></path>
            <path d="M15.8394161,92.189781 C15.7664234,92.189781 15.7664234,92.189781 15.8394161,92.189781" id="Shape"></path>
            <path d="M12.919708,95.5474453 C12.9927007,95.5474453 12.9927007,95.5474453 12.919708,95.5474453" id="Shape"></path>
            <path d="M15.6934307,92.3357664 C15.620438,92.2627737 15.620438,92.2627737 15.5474453,92.2627737 C15.5474453,92.2627737 15.5474453,92.2627737 15.5474453,92.3357664 L15.6934307,92.3357664 Z" id="Shape"></path>
            <path d="M12.3357664,98.1751825 C12.3357664,98.1021898 12.1167883,98.1021898 11.8978102,98.0291971 C11.8248175,97.9562044 12.1167883,98.0291971 12.2627737,98.0291971 C12.189781,97.9562044 11.9708029,97.8832117 11.9708029,97.8832117 C12.0437956,97.8832117 12.0437956,97.8832117 12.1167883,97.8832117 C11.8978102,97.810219 12.1167883,97.7372263 11.8978102,97.6642336 C11.8978102,97.6642336 11.9708029,97.6642336 11.9708029,97.6642336 C11.8248175,97.6642336 11.6788321,97.5912409 11.6058394,97.5912409 C11.6058394,97.5912409 11.459854,97.5182482 11.6058394,97.5182482 C11.6058394,97.5182482 11.6788321,97.5182482 11.7518248,97.5912409 L11.6788321,97.5182482 C11.8978102,97.5912409 11.7518248,97.5912409 11.9708029,97.5912409 C11.8978102,97.5182482 11.7518248,97.4452555 11.8248175,97.3722628 C12.0437956,97.4452555 11.8978102,97.4452555 12.1167883,97.5182482 L12.0437956,97.5182482 C12.4087591,97.5912409 12.0437956,97.5182482 12.4087591,97.5912409 C12.4817518,97.5182482 12.3357664,97.5182482 12.4087591,97.4452555 C12.2627737,97.3722628 12.189781,97.3722628 12.1167883,97.3722628 C11.8978102,97.2262774 12.7737226,97.4452555 12.4087591,97.2992701 C12.2627737,97.2262774 11.9708029,97.1532847 12.1167883,97.1532847 L12.4087591,97.2262774 C12.4817518,97.1532847 12.0437956,97.080292 12.2627737,97.080292 C12.3357664,97.1532847 12.3357664,97.1532847 12.3357664,97.1532847 C12.5547445,97.1532847 12.189781,97.080292 12.189781,97.0072993 L12.4087591,97.080292 C12.4087591,97.0072993 12.2627737,96.8613139 12.2627737,96.7883212 C12.3357664,96.7883212 12.4087591,96.8613139 12.4817518,96.8613139 C12.4087591,96.7153285 12.5547445,96.6423358 12.7737226,96.6423358 L12.5547445,96.4963504 C12.5547445,96.4963504 12.6277372,96.4963504 12.7007299,96.5693431 C12.7737226,96.5693431 12.5547445,96.4963504 12.4817518,96.4963504 C12.4817518,96.4963504 12.6277372,96.4963504 12.6277372,96.5693431 C12.4817518,96.4233577 12.3357664,96.2043796 12.5547445,96.2773723 L12.6277372,96.350365 C12.7007299,96.350365 12.2627737,96.1313869 12.4817518,96.1313869 C12.6277372,96.0583942 12.4817518,95.8394161 12.8467153,95.9124088 C12.5547445,95.7664234 12.9927007,95.8394161 12.6277372,95.6934307 C12.8467153,95.6934307 12.919708,95.7664234 13.0656934,95.7664234 C13.0656934,95.7664234 12.8467153,95.620438 12.8467153,95.5474453 L13.0656934,95.620438 L12.8467153,95.4744526 L13.0656934,95.5474453 L12.9927007,95.4744526 C12.9927007,95.4744526 12.919708,95.4744526 12.8467153,95.4014599 C12.7737226,95.3284672 13.0656934,95.4014599 13.1386861,95.4014599 L12.9927007,95.1824818 C13.0656934,95.2554745 13.0656934,95.2554745 13.1386861,95.3284672 C12.9927007,95.1824818 13.3576642,95.4014599 13.2116788,95.2554745 C13.1386861,95.2554745 13.0656934,95.1824818 13.0656934,95.1824818 C13.2116788,95.2554745 13.2116788,95.1824818 13.2116788,95.1094891 L13.3576642,95.1824818 C13.4306569,95.1094891 13.3576642,94.9635036 13.4306569,94.8905109 C13.3576642,94.8905109 13.1386861,94.7445255 13.1386861,94.6715328 L13.3576642,94.8175182 C13.2116788,94.7445255 13.2846715,94.8175182 13.1386861,94.6715328 C13.2116788,94.6715328 13.3576642,94.8175182 13.4306569,94.8175182 L13.3576642,94.7445255 C13.4306569,94.7445255 13.4306569,94.8175182 13.5036496,94.8905109 C13.3576642,94.8175182 13.7226277,94.9635036 13.5036496,94.8175182 L13.5766423,94.8175182 C13.649635,94.7445255 13.5766423,94.6715328 13.5766423,94.5985401 C13.4306569,94.4525547 13.4306569,94.4525547 13.3576642,94.379562 C13.4306569,94.379562 13.5766423,94.379562 13.649635,94.3065693 C13.5766423,94.2335766 13.5036496,94.2335766 13.4306569,94.0875912 C13.5766423,94.1605839 13.5766423,94.1605839 13.7226277,94.2335766 C13.7226277,94.1605839 13.7226277,94.1605839 13.7226277,93.9416058 C13.649635,93.9416058 13.649635,93.8686131 13.5766423,93.8686131 C13.5766423,93.8686131 13.649635,93.8686131 13.7226277,93.9416058 C13.5766423,93.649635 14.3065693,94.0145985 14.0875912,93.7226277 L14.0145985,93.5036496 C14.0875912,93.5036496 14.0875912,93.5766423 14.2335766,93.649635 C14.0875912,93.3576642 14.379562,93.5766423 14.2335766,93.3576642 C14.6715328,93.649635 14.379562,93.1386861 14.6715328,93.2846715 L14.5985401,93.2116788 C14.5255474,93.1386861 14.6715328,93.2116788 14.6715328,93.2116788 C14.5985401,93.1386861 14.5985401,93.1386861 14.5255474,93.0656934 C14.5255474,92.7737226 14.9635036,92.8467153 15.1824818,92.7737226 C15.2554745,92.7737226 14.7445255,92.2627737 15.0364964,92.4087591 L15.1824818,92.5547445 C15.0364964,92.2627737 15.4014599,92.3357664 15.3284672,92.0437956 C15.3284672,92.1167883 15.4014599,92.1167883 15.4014599,92.1167883 C15.5474453,92.189781 15.4744526,92.0437956 15.4014599,91.9708029 C15.4014599,91.9708029 15.4744526,92.0437956 15.5474453,92.1167883 C15.620438,92.189781 15.4744526,91.8978102 15.5474453,92.0437956 C15.5474453,92.0437956 15.5474453,92.1167883 15.620438,92.1167883 C15.5474453,92.0437956 15.6934307,92.0437956 15.5474453,91.9708029 C15.620438,91.9708029 15.5474453,91.8248175 15.6934307,91.8978102 C15.5474453,91.7518248 15.8394161,91.8978102 15.620438,91.6788321 C15.8394161,91.8978102 15.8394161,91.8248175 15.7664234,91.6788321 C15.8394161,91.7518248 15.8394161,91.7518248 15.9124088,91.8248175 C15.9124088,91.8248175 15.9124088,91.7518248 15.7664234,91.6058394 C16.0583942,91.8248175 15.6934307,91.2408759 16.0583942,91.6058394 C16.0583942,91.3868613 16.0583942,91.2408759 16.0583942,91.0948905 C16.2773723,91.3138686 15.9854015,91.1678832 16.2043796,91.459854 C16.2043796,91.3138686 16.0583942,91.0218978 16.2043796,91.0218978 C16.2773723,91.0218978 16.2773723,91.1678832 16.350365,91.1678832 C16.350365,91.0218978 16.4963504,91.0218978 16.4963504,90.8759124 C16.4963504,90.8759124 16.4963504,90.9489051 16.5693431,90.9489051 C16.5693431,90.9489051 16.6423358,90.9489051 16.4963504,90.8759124 L16.4963504,90.9489051 C16.350365,90.8029197 16.2773723,90.5839416 16.2043796,90.4379562 C16.4233577,90.8029197 16.350365,90.4379562 16.6423358,90.8759124 C16.6423358,90.8759124 16.5693431,90.8029197 16.4963504,90.729927 C16.4963504,90.729927 16.5693431,90.8029197 16.6423358,90.8759124 C16.6423358,90.8029197 16.4963504,90.6569343 16.5693431,90.6569343 C16.6423358,90.729927 16.6423358,90.729927 16.6423358,90.8029197 C16.5693431,90.6569343 16.4963504,90.5839416 16.5693431,90.5839416 C16.5693431,90.5839416 16.6423358,90.6569343 16.6423358,90.6569343 C16.7153285,90.5839416 16.4963504,90.2919708 16.6423358,90.2919708 C16.7883212,90.5839416 16.7153285,90.3649635 16.9343066,90.5839416 L16.9343066,90.5109489 L16.8613139,90.4379562 C16.9343066,90.4379562 16.7883212,90.2189781 16.8613139,90.2919708 L16.9343066,90.3649635 L16.9343066,90.2919708 L16.8613139,90.2189781 C16.7883212,90.0729927 16.6423358,89.9270073 16.7153285,90 C16.7153285,90 16.7883212,90 16.8613139,90.0729927 C16.7883212,90 16.7883212,89.9270073 16.8613139,89.9270073 C16.9343066,90 17.0072993,90.1459854 17.080292,90.2189781 C16.9343066,90 17.1532847,90.0729927 17.0072993,89.9270073 C17.0072993,90 17.1532847,90.0729927 17.1532847,90.1459854 L17.080292,90 C17.1532847,90 17.1532847,90.0729927 17.2262774,90.1459854 C17.2992701,90.1459854 17.0072993,89.8540146 17.1532847,89.9270073 C17.1532847,89.9270073 17.1532847,89.9270073 17.1532847,90 C17.2262774,90 17.2262774,89.8540146 17.2992701,89.8540146 C17.4452555,90.0729927 17.2992701,89.9270073 17.4452555,90.1459854 C17.5182482,90.0729927 17.4452555,89.7810219 17.5182482,89.7810219 C17.2992701,89.4890511 17.6642336,89.9270073 17.5912409,89.7080292 C17.5912409,89.7080292 17.7372263,89.8540146 17.6642336,89.8540146 C17.7372263,89.8540146 17.7372263,89.7080292 17.7372263,89.5620438 L17.810219,89.6350365 C17.8832117,89.7080292 17.9562044,89.6350365 17.9562044,89.6350365 C17.8832117,89.5620438 17.9562044,89.5620438 17.810219,89.4160584 C18.2481752,89.7810219 17.810219,89.0510949 18.1751825,89.3430657 C18.1751825,89.3430657 18.1751825,89.4160584 18.1751825,89.4160584 L18.1751825,89.270073 C18.1021898,89.1240876 18.1021898,89.1970803 18.0291971,89.1240876 C17.9562044,89.0510949 17.9562044,88.9781022 17.9562044,88.9781022 C17.9562044,89.1240876 18.1021898,89.1970803 18.1751825,89.270073 C18.1751825,89.1970803 18.1021898,89.1970803 18.1021898,89.1240876 C18.3211679,89.3430657 17.8832117,88.8321168 18.1021898,88.9781022 L18.1751825,89.0510949 C18.1751825,88.9781022 18.1021898,88.9051095 18.1751825,88.9051095 C18.3211679,89.0510949 18.1751825,88.9781022 18.3211679,89.1240876 C18.3211679,89.1240876 18.1751825,88.7591241 18.3211679,88.9051095 C18.3211679,88.9781022 18.3211679,88.9781022 18.3211679,89.0510949 C18.4671533,89.1970803 18.4671533,89.1970803 18.4671533,89.1970803 L18.6131387,89.270073 L18.540146,89.1970803 C18.3211679,88.7591241 18.540146,89.0510949 18.4671533,88.7591241 C18.6131387,89.0510949 18.540146,88.9051095 18.6861314,89.1240876 C18.7591241,89.1970803 18.7591241,89.1970803 18.8321168,89.270073 C18.7591241,89.1240876 18.9781022,89.3430657 18.8321168,89.1240876 C18.9051095,89.1970803 18.8321168,89.1240876 18.9781022,89.270073 C18.9781022,89.1970803 18.9051095,89.1970803 18.8321168,89.1240876 C18.7591241,88.9051095 19.1240876,89.270073 18.9781022,88.9781022 C18.9781022,88.8321168 18.8321168,88.6131387 18.8321168,88.4671533 C18.9051095,88.540146 18.9781022,88.6861314 18.9781022,88.6861314 C19.0510949,88.7591241 19.0510949,88.6861314 19.0510949,88.6131387 C19.0510949,88.6861314 19.1240876,88.6861314 19.1970803,88.7591241 C19.1970803,88.7591241 19.0510949,88.540146 19.1970803,88.6131387 C19.1970803,88.6861314 19.270073,88.8321168 19.3430657,88.9051095 C19.3430657,88.8321168 19.270073,88.6861314 19.270073,88.6131387 C19.3430657,88.6861314 19.3430657,88.7591241 19.4160584,88.8321168 C19.4160584,88.7591241 19.4160584,88.6861314 19.3430657,88.540146 L19.270073,88.4671533 C19.270073,88.4671533 19.3430657,88.6131387 19.3430657,88.6131387 C19.4160584,88.7591241 19.270073,88.6131387 19.1970803,88.540146 L19.1970803,88.4671533 C18.9781022,88.1021898 19.1240876,88.6131387 19.0510949,88.6131387 L18.9051095,88.3211679 L18.9781022,88.540146 C18.9051095,88.4671533 18.8321168,88.3211679 18.8321168,88.3211679 C18.6861314,88.2481752 18.8321168,88.3941606 18.7591241,88.3211679 C18.7591241,88.3211679 18.7591241,88.3211679 18.7591241,88.2481752 L18.7591241,88.3211679 C18.7591241,88.2481752 18.6131387,88.1751825 18.6861314,88.1751825 C18.540146,88.0291971 18.6861314,88.3941606 18.540146,88.2481752 C18.540146,88.3941606 18.6861314,88.4671533 18.7591241,88.6861314 L18.3941606,88.2481752 L18.540146,88.4671533 C18.540146,88.4671533 18.4671533,88.4671533 18.4671533,88.3941606 C18.540146,88.540146 18.540146,88.4671533 18.6131387,88.6131387 C18.4671533,88.4671533 18.540146,88.7591241 18.3211679,88.4671533 C18.3941606,88.6131387 18.3941606,88.540146 18.4671533,88.6861314 C18.2481752,88.3941606 18.4671533,88.7591241 18.3211679,88.6131387 C18.2481752,88.4671533 18.3211679,88.540146 18.1751825,88.3941606 C18.3211679,88.6861314 18.1021898,88.3941606 18.1021898,88.4671533 C18.2481752,88.6861314 18.1021898,88.6131387 18.1021898,88.6861314 C18.0291971,88.6131387 17.9562044,88.6131387 17.810219,88.6131387 L17.810219,88.540146 C17.9562044,88.7591241 17.8832117,88.7591241 17.8832117,88.8321168 C17.810219,88.6861314 17.7372263,88.6131387 17.7372263,88.540146 C17.810219,88.6131387 17.810219,88.6861314 17.810219,88.6861314 L17.7372263,88.540146 C17.7372263,88.6131387 17.810219,88.7591241 17.6642336,88.6861314 C17.7372263,88.8321168 18.0291971,89.0510949 18.0291971,89.1970803 C17.9562044,89.1240876 17.8832117,88.9781022 17.8832117,88.9051095 C17.8832117,88.9051095 17.8832117,88.9781022 17.8832117,88.9781022 L17.810219,88.8321168 C17.7372263,88.7591241 17.8832117,88.9781022 17.8832117,88.9781022 C17.810219,88.8321168 17.810219,88.9051095 17.7372263,88.8321168 C17.7372263,88.8321168 17.810219,88.8321168 17.7372263,88.8321168 C17.6642336,88.8321168 17.5912409,88.7591241 17.5182482,88.6861314 C17.5912409,88.7591241 17.6642336,88.8321168 17.5912409,88.9051095 C17.5182482,88.9781022 17.4452555,88.7591241 17.3722628,88.7591241 C17.4452555,88.8321168 17.2992701,88.7591241 17.4452555,88.9781022 C17.4452555,88.9781022 17.3722628,88.9051095 17.2992701,88.8321168 C17.2992701,88.9051095 17.2262774,88.9051095 17.3722628,89.1240876 C17.3722628,89.1240876 17.3722628,89.1240876 17.3722628,89.1240876 C17.4452555,89.3430657 17.1532847,89.1240876 17.1532847,89.270073 L17.080292,89.1970803 C17.080292,89.270073 17.0072993,89.3430657 17.080292,89.4890511 C17.080292,89.4890511 17.0072993,89.4160584 16.9343066,89.3430657 C16.9343066,89.4160584 17.0072993,89.4890511 16.8613139,89.4160584 C16.7883212,89.270073 16.7883212,89.3430657 16.8613139,89.3430657 C16.7883212,89.3430657 16.7153285,89.270073 16.7883212,89.4160584 C16.7153285,89.270073 16.6423358,89.270073 16.6423358,89.3430657 L16.7153285,89.4160584 C16.7153285,89.4890511 16.7153285,89.4890511 16.6423358,89.4890511 L16.4963504,89.270073 C16.2043796,89.1240876 16.6423358,89.7810219 16.2773723,89.4160584 C16.350365,89.5620438 16.4233577,89.4890511 16.4963504,89.6350365 C16.4233577,89.6350365 16.2043796,89.4160584 16.2043796,89.4160584 C16.0583942,89.3430657 16.350365,89.7080292 16.2773723,89.7080292 C16.350365,89.7810219 16.4963504,89.9270073 16.4963504,90.0729927 C16.4233577,90.0729927 16.2043796,89.8540146 16.2043796,89.7810219 C16.2043796,89.7810219 16.2043796,89.7810219 16.2773723,89.7810219 C16.2773723,89.7810219 16.2773723,89.7080292 16.2043796,89.6350365 L16.2773723,89.7080292 C16.2043796,89.6350365 16.1313869,89.7080292 16.0583942,89.5620438 C16.0583942,89.6350365 16.1313869,89.7080292 16.2043796,89.7080292 C16.0583942,89.6350365 16.1313869,89.7810219 15.9854015,89.7810219 C16.0583942,89.7810219 16.1313869,89.8540146 16.0583942,89.9270073 C15.9124088,89.9270073 16.1313869,90.0729927 16.1313869,90.1459854 C15.9854015,90.0729927 15.9124088,89.9270073 15.9854015,90 C15.9124088,89.9270073 15.8394161,89.8540146 15.7664234,89.7810219 C15.8394161,89.9270073 15.620438,89.7810219 15.5474453,89.7810219 L15.5474453,89.7080292 C15.5474453,89.7810219 15.5474453,89.7810219 15.5474453,89.7810219 L15.6934307,89.9270073 C15.6934307,89.9270073 15.620438,89.9270073 15.620438,89.8540146 C15.6934307,89.9270073 15.8394161,90.0729927 15.9124088,90.2189781 C15.8394161,90.1459854 15.9124088,90.3649635 15.7664234,90.1459854 C15.9124088,90.1459854 15.620438,90 15.620438,89.9270073 C15.620438,89.9270073 15.620438,90 15.5474453,89.9270073 C15.5474453,89.9270073 15.5474453,89.8540146 15.5474453,89.8540146 C15.3284672,89.7810219 15.6934307,90.0729927 15.620438,90.1459854 C15.5474453,90.0729927 15.4744526,90 15.4744526,90 C15.4744526,90 15.620438,90.1459854 15.6934307,90.2189781 C15.620438,90.1459854 15.6934307,90.2919708 15.6934307,90.2919708 L15.7664234,90.2919708 C15.8394161,90.3649635 15.8394161,90.3649635 15.8394161,90.4379562 C15.7664234,90.3649635 15.8394161,90.3649635 15.7664234,90.3649635 C15.9124088,90.5839416 15.5474453,90.2189781 15.620438,90.3649635 C15.5474453,90.2919708 15.4744526,90.2189781 15.4014599,90.1459854 C15.4744526,90.2919708 15.2554745,90.0729927 15.2554745,90.2189781 C15.4014599,90.3649635 15.3284672,90.2919708 15.4744526,90.4379562 L15.4744526,90.2919708 L15.620438,90.5109489 C15.620438,90.5109489 15.620438,90.3649635 15.620438,90.3649635 C15.6934307,90.5109489 15.6934307,90.4379562 15.7664234,90.5839416 C15.5474453,90.4379562 15.8394161,90.729927 15.620438,90.6569343 L15.3284672,90.3649635 C15.1094891,90.2919708 15.4014599,90.5839416 15.2554745,90.5839416 L15.3284672,90.5839416 C15.4014599,90.729927 15.3284672,90.6569343 15.3284672,90.729927 C15.2554745,90.6569343 15.1824818,90.5839416 15.1094891,90.5109489 C15.1824818,90.5839416 15.0364964,90.5839416 15.2554745,90.8029197 L15.1094891,90.6569343 C14.9635036,90.6569343 15.3284672,91.0218978 15.2554745,91.0218978 C15.1824818,90.8759124 15.0364964,90.8759124 15.0364964,90.729927 C15.0364964,90.729927 14.9635036,90.729927 15.0364964,90.8029197 C14.9635036,90.729927 15.1094891,91.0218978 15.0364964,90.8759124 C15.0364964,90.9489051 15.1824818,91.0218978 15.1824818,91.0218978 C15.1824818,91.0218978 15.1094891,90.9489051 15.1094891,90.9489051 C15.1824818,91.0218978 15.1824818,91.0218978 15.2554745,91.1678832 C14.8905109,90.8759124 15.1094891,91.3138686 14.8175182,91.0948905 C14.8175182,91.1678832 14.8175182,91.2408759 14.7445255,91.3138686 C14.7445255,91.3138686 14.6715328,91.2408759 14.7445255,91.2408759 C14.5985401,91.1678832 15.0364964,91.5328467 14.8175182,91.5328467 C14.5985401,91.3868613 14.7445255,91.3868613 14.6715328,91.3868613 C14.3065693,91.0948905 14.6715328,91.5328467 14.4525547,91.3138686 C14.3065693,91.2408759 14.5255474,91.5328467 14.4525547,91.5328467 C14.4525547,91.5328467 14.4525547,91.5328467 14.379562,91.459854 C14.5255474,91.6788321 14.5255474,91.7518248 14.5255474,91.8978102 C14.379562,91.7518248 14.4525547,91.8248175 14.3065693,91.6788321 C14.3065693,91.7518248 14.5255474,91.8978102 14.5255474,91.9708029 C14.4525547,91.8978102 14.379562,91.8978102 14.1605839,91.7518248 L14.1605839,91.6788321 C13.9416058,91.5328467 14.0875912,91.7518248 14.0875912,91.7518248 L14.0145985,91.6788321 C14.0145985,91.7518248 14.2335766,91.9708029 14.1605839,92.0437956 L14.2335766,92.1167883 C14.379562,92.3357664 14.0875912,92.0437956 14.2335766,92.189781 L14.0145985,92.0437956 C14.0145985,92.1167883 14.1605839,92.3357664 14.1605839,92.4087591 C14.0145985,92.2627737 14.0145985,92.1167883 13.9416058,92.0437956 C13.9416058,92.0437956 13.8686131,92.1167883 14.0145985,92.2627737 C14.0145985,92.2627737 13.9416058,92.189781 14.0145985,92.189781 C14.1605839,92.3357664 14.2335766,92.4817518 14.1605839,92.5547445 C13.7226277,92.189781 13.9416058,92.5547445 13.5766423,92.3357664 C13.649635,92.5547445 13.3576642,92.4817518 13.2846715,92.5547445 C13.649635,92.7737226 13.2846715,92.6277372 13.649635,92.8467153 C13.649635,92.919708 13.649635,92.919708 13.649635,92.8467153 L13.3576642,92.7737226 C13.2116788,92.7007299 13.2846715,92.7007299 13.2116788,92.6277372 C13.1386861,92.6277372 13.0656934,92.5547445 12.919708,92.4817518 C13.0656934,92.5547445 13.0656934,92.6277372 12.9927007,92.6277372 L13.2116788,92.7007299 C13.3576642,92.919708 12.8467153,92.5547445 12.9927007,92.7737226 L12.919708,92.6277372 C12.9927007,92.7007299 12.8467153,92.7737226 13.0656934,92.9927007 C12.9927007,92.9927007 12.919708,92.919708 12.919708,92.8467153 C12.7737226,92.919708 13.0656934,93.2846715 12.8467153,93.2116788 L12.7737226,93.1386861 C12.7737226,93.1386861 12.919708,93.2846715 12.8467153,93.2116788 C12.8467153,93.2116788 12.7737226,93.1386861 12.7737226,93.1386861 C12.7737226,93.1386861 12.919708,93.2846715 12.8467153,93.2846715 L12.7737226,93.2116788 C12.5547445,93.2116788 12.919708,93.5036496 12.919708,93.649635 C12.6277372,93.5036496 12.4817518,93.5036496 12.4817518,93.5036496 L12.4087591,93.5036496 C12.3357664,93.5766423 12.4817518,93.8686131 12.5547445,94.0145985 C12.189781,93.8686131 12.2627737,94.1605839 12.0437956,94.1605839 C12.1167883,94.1605839 12.2627737,94.3065693 12.2627737,94.3065693 C12.189781,94.3065693 12.4087591,94.4525547 12.189781,94.3065693 C11.8978102,94.1605839 11.9708029,94.3065693 11.9708029,94.3065693 L12.3357664,94.5255474 C11.7518248,94.379562 12.3357664,94.8905109 11.8978102,94.7445255 C11.9708029,94.8175182 11.9708029,94.8175182 12.0437956,94.8905109 L11.8248175,94.8175182 C11.7518248,94.8905109 11.6788321,94.8905109 11.6788321,95.0364964 L11.5328467,94.9635036 C11.5328467,95.0364964 12.0437956,95.2554745 12.0437956,95.3284672 L11.7518248,95.1824818 C11.7518248,95.2554745 11.459854,95.2554745 11.6058394,95.4744526 C11.5328467,95.4744526 11.459854,95.4014599 11.459854,95.4014599 C11.459854,95.4744526 11.1678832,95.4744526 11.6058394,95.620438 C11.3868613,95.5474453 11.5328467,95.6934307 11.6058394,95.7664234 L11.3868613,95.6934307 C11.6058394,95.8394161 11.6788321,95.8394161 11.7518248,95.9124088 C11.7518248,95.9124088 11.6058394,95.8394161 11.6788321,95.8394161 C11.5328467,95.8394161 11.8248175,95.9124088 11.7518248,95.9854015 L11.6058394,95.9124088 C11.6058394,95.9854015 11.6058394,95.9854015 11.7518248,96.0583942 C11.8248175,96.1313869 11.6788321,96.1313869 11.5328467,96.0583942 C11.6058394,96.1313869 11.7518248,96.2043796 11.6788321,96.2043796 C11.6058394,96.2043796 11.6058394,96.1313869 11.5328467,96.1313869 C11.3868613,96.1313869 11.6788321,96.350365 11.5328467,96.2773723 C11.459854,96.2773723 11.459854,96.2773723 11.3868613,96.2773723 C11.3868613,96.2043796 11.459854,96.2043796 11.459854,96.2043796 C11.3138686,96.1313869 11.2408759,96.2043796 11.0218978,96.0583942 C11.1678832,96.1313869 11.3868613,96.350365 11.3138686,96.350365 C11.3138686,96.350365 11.3138686,96.350365 11.2408759,96.350365 C11.2408759,96.350365 11.2408759,96.350365 11.2408759,96.4233577 C11.2408759,96.4233577 11.1678832,96.4233577 11.1678832,96.4233577 C11.0218978,96.350365 11.0948905,96.4233577 11.0218978,96.4963504 C11.2408759,96.5693431 11.1678832,96.5693431 11.3138686,96.5693431 C11.3138686,96.5693431 11.3138686,96.5693431 11.3138686,96.5693431 C11.3138686,96.5693431 11.3138686,96.5693431 11.3138686,96.5693431 C11.3138686,96.5693431 11.3138686,96.4963504 11.3138686,96.4963504 C11.3868613,96.5693431 11.459854,96.5693431 11.3868613,96.5693431 C11.5328467,96.6423358 11.6058394,96.7153285 11.6788321,96.7153285 C11.3868613,96.6423358 11.2408759,96.7153285 11.0218978,96.6423358 C11.0948905,96.7883212 11.0218978,96.8613139 11.3868613,97.0072993 C11.459854,97.0072993 11.2408759,97.0072993 11.2408759,97.0072993 C11.2408759,97.0072993 11.2408759,96.9343066 11.1678832,96.9343066 C11.2408759,97.0072993 11.1678832,97.080292 11.3868613,97.1532847 C11.2408759,97.1532847 11.1678832,97.080292 11.1678832,97.1532847 L11.0948905,97.1532847 C10.6569343,97.2262774 11.6788321,97.5912409 11.0948905,97.5912409 C11.0948905,97.5912409 11.1678832,97.5912409 11.1678832,97.5912409 C10.8759124,97.7372263 11.3138686,98.0291971 10.8759124,98.1751825 C10.8029197,98.2481752 10.9489051,98.2481752 11.0948905,98.3211679 L10.8759124,98.3211679 L11.0948905,98.3941606 C11.2408759,98.4671533 10.5109489,98.4671533 10.8759124,98.6131387 L11.0218978,98.6131387 C11.0218978,98.6131387 11.0948905,98.7591241 10.9489051,98.6861314 C10.9489051,98.6861314 11.0948905,98.6861314 11.0218978,98.6861314 L10.8759124,98.6861314 L11.0948905,98.8321168 C11.0218978,98.9051095 10.6569343,98.7591241 10.5839416,98.9051095 C10.6569343,98.9781022 10.8759124,99.0510949 10.9489051,99.0510949 C10.9489051,99.0510949 11.0218978,99.0510949 11.1678832,99.0510949 L11.2408759,99.1240876 C11.6058394,99.1240876 11.8978102,99.1970803 12.189781,99.1240876 L11.9708029,99.0510949 L12.1167883,99.0510949 L12.1167883,99.1240876 C12.2627737,99.1240876 12.1167883,99.0510949 12.0437956,99.0510949 C12.1167883,99.0510949 12.189781,99.0510949 12.2627737,99.0510949 L11.9708029,98.9781022 C12.1167883,98.9781022 12.2627737,99.0510949 12.3357664,98.9781022 C12.189781,98.9051095 12.0437956,98.9781022 11.9708029,98.9051095 C12.1167883,98.9051095 12.2627737,98.9051095 12.1167883,98.9051095 C12.189781,98.9051095 12.2627737,98.9051095 12.2627737,98.9051095 C12.189781,98.8321168 12.2627737,98.8321168 12.0437956,98.7591241 C12.2627737,98.7591241 11.9708029,98.6861314 12.3357664,98.6861314 C12.2627737,98.6861314 12.1167883,98.6131387 12.1167883,98.6131387 C12.4817518,98.6861314 12.1167883,98.540146 12.5547445,98.6131387 C12.189781,98.540146 12.4087591,98.4671533 12.2627737,98.3941606 C12.2627737,98.3941606 12.3357664,98.3941606 12.3357664,98.3941606 C12.3357664,98.3941606 12.4817518,98.3941606 12.5547445,98.3941606 C12.2627737,98.3211679 12.189781,98.2481752 12.0437956,98.2481752 C12.3357664,98.2481752 12.3357664,98.3211679 12.6277372,98.3941606 C12.4087591,98.3211679 12.4087591,98.2481752 12.189781,98.2481752 C12.3357664,98.2481752 12.2627737,98.2481752 12.4817518,98.2481752 C12.1167883,98.1751825 12.4087591,98.1751825 12.189781,98.1751825 C12.3357664,98.1751825 12.5547445,98.2481752 12.4087591,98.1751825 C12.189781,98.1021898 12.3357664,98.1751825 12.3357664,98.1751825 M12.0437956,96.8613139 C12.0437956,96.9343066 12.0437956,96.9343066 12.0437956,96.8613139 C12.0437956,96.9343066 12.0437956,96.9343066 12.0437956,96.8613139 M12.0437956,96.7883212 C12.0437956,96.7883212 12.0437956,96.7883212 12.0437956,96.7883212 C11.9708029,96.7883212 11.8978102,96.7883212 11.8978102,96.7883212 C11.9708029,96.7883212 12.0437956,96.7883212 12.0437956,96.7883212 M10.6569343,96.5693431 C10.6569343,96.4963504 10.6569343,96.4963504 10.6569343,96.5693431 C10.729927,96.5693431 10.729927,96.5693431 10.6569343,96.5693431 L10.729927,96.6423358 C10.729927,96.5693431 10.6569343,96.5693431 10.6569343,96.5693431" id="Shape"></path>
            <path d="M10.8759124,96.6423358 C10.8759124,96.6423358 10.8759124,96.6423358 10.8759124,96.6423358 C10.9489051,96.6423358 10.9489051,96.6423358 10.8759124,96.6423358 Z" id="Shape"></path>
            <polygon id="Shape" points="12.9927007 95.6934307 12.919708 95.6934307"></polygon>
            <path d="M18.1751825,89.4890511 C18.1751825,89.4890511 18.2481752,89.4890511 18.1751825,89.4890511 C18.2481752,89.4890511 18.1751825,89.4890511 18.1751825,89.4890511" id="Shape"></path>
            <path d="M18.3941606,89.3430657 C18.4671533,89.3430657 18.4671533,89.3430657 18.3941606,89.3430657" id="Shape"></path>
            <path d="M18.6131387,89.3430657 C18.6131387,89.3430657 18.6131387,89.270073 18.540146,89.270073 L18.6131387,89.3430657 Z" id="Shape"></path>
            <path d="M16.350365,91.3138686 C16.350365,91.3138686 16.350365,91.3138686 16.350365,91.3138686 C16.4233577,91.3868613 16.4233577,91.3868613 16.350365,91.3138686" id="Shape"></path>
            <path d="M16.7883212,90.3649635 C16.7883212,90.3649635 16.7883212,90.4379562 16.8613139,90.4379562 C16.8613139,90.5109489 16.8613139,90.5109489 16.7883212,90.3649635" id="Shape"></path>
            <path d="M19.4160584,88.9051095 C19.3430657,88.9051095 19.3430657,88.9051095 19.4160584,88.9051095" id="Shape"></path>
            <path d="M19.3430657,88.8321168 C19.4160584,88.9051095 19.4160584,88.9051095 19.3430657,88.8321168" id="Shape"></path>
            <path d="M19.0510949,89.0510949 C19.0510949,89.0510949 19.1970803,89.1970803 19.1970803,89.1240876 L19.1970803,89.0510949 C19.1970803,89.1970803 19.0510949,88.9781022 19.0510949,89.0510949" id="Shape"></path>
            <path d="M18.3211679,88.4671533 L18.3941606,88.4671533 C18.3211679,88.3941606 18.2481752,88.3211679 18.3211679,88.3211679 C18.1021898,88.1751825 18.3941606,88.4671533 18.3211679,88.4671533" id="Shape"></path>
            <path d="M18.0291971,88.4671533 C18.0291971,88.3941606 17.9562044,88.3941606 17.9562044,88.3211679 C18.0291971,88.4671533 18.0291971,88.4671533 18.0291971,88.4671533" id="Shape"></path>
            <path d="M16.8613139,89.3430657 L16.7883212,89.1970803 C16.7153285,89.270073 16.7883212,89.270073 16.8613139,89.3430657" id="Shape"></path>
            <polygon id="Shape" points="17.2262774 90.2919708 17.2992701 90.3649635 17.1532847 90.2189781"></polygon>
            <polygon id="Shape" points="16.2773723 89.3430657 16.2043796 89.3430657 16.2773723 89.4160584"></polygon>
            <path d="M14.379562,91.0948905 L14.5255474,91.2408759 C14.5255474,91.2408759 14.3065693,91.0218978 14.379562,91.0948905" id="Shape"></path>
            <path d="M13.7956204,92.0437956 C13.7226277,91.9708029 13.649635,91.9708029 13.7226277,92.0437956 C13.7226277,92.0437956 13.7956204,92.1167883 13.7956204,92.0437956" id="Shape"></path>
            <polygon id="Shape" points="11.5328467 94.5985401 11.459854 94.5255474 11.459854 94.5985401"></polygon>
            <path d="M0.291970803,91.6788321 C0.291970803,91.7518248 0.218978102,91.8978102 0.218978102,91.8248175 L0.291970803,91.6788321 Z" id="Shape"></path>
            <path d="M0.218978102,92.1167883 C0.291970803,92.0437956 0.364963504,91.8248175 0.437956204,91.6058394 C0.364963504,91.8248175 0.364963504,91.7518248 0.291970803,91.9708029 C0.291970803,91.9708029 0.291970803,91.8978102 0.291970803,91.8248175 C0.291970803,91.8978102 0.291970803,91.7518248 0.218978102,91.8978102 C0.145985401,92.1167883 0.218978102,92.1167883 0.291970803,91.9708029 C0.291970803,92.0437956 0.218978102,92.1167883 0.218978102,92.1167883" id="Shape"></path>
            <path d="M2.40875912,93.5036496 C2.40875912,93.5036496 2.40875912,93.5766423 2.40875912,93.5036496 C2.40875912,93.5766423 2.40875912,93.5766423 2.40875912,93.5036496" id="Shape"></path>
            <path d="M2.48175182,93.8686131 C2.48175182,93.7956204 2.48175182,93.7956204 2.48175182,93.8686131 C2.40875912,93.8686131 2.40875912,93.8686131 2.48175182,93.8686131" id="Shape"></path>
            <path d="M1.60583942,92.9927007 L1.60583942,93.0656934 C1.60583942,93.0656934 1.60583942,93.0656934 1.60583942,92.9927007" id="Shape"></path>
            <path d="M0.656934307,91.6788321 C0.583941606,91.6788321 0.583941606,91.6788321 0.656934307,91.6788321 C0.583941606,91.6788321 0.583941606,91.6788321 0.656934307,91.6788321 Z" id="Shape"></path>
            <path d="M1.09489051,93.0656934 C1.09489051,93.0656934 1.09489051,93.1386861 1.02189781,93.1386861 L1.09489051,93.0656934 Z" id="Shape"></path>
            <path d="M0.802919708,92.9927007 C0.802919708,92.9927007 0.875912409,92.8467153 0.875912409,92.7007299 C0.875912409,92.7737226 0.802919708,92.8467153 0.802919708,92.8467153 C0.802919708,92.8467153 0.802919708,92.919708 0.802919708,92.9927007" id="Shape"></path>
            <path d="M9.5620438,97.7372263 C9.5620438,97.7372263 9.5620438,97.810219 9.5620438,97.7372263 C9.5620438,97.810219 9.5620438,97.7372263 9.5620438,97.7372263" id="Shape"></path>
            <polygon id="Shape" points="8.83211679 98.540146 8.83211679 98.540146 8.75912409 98.6131387"></polygon>
            <path d="M2.62773723,94.2335766 C2.55474453,94.2335766 2.62773723,94.2335766 2.62773723,94.2335766" id="Shape"></path>
            <path d="M4.96350365,95.4014599 C5.03649635,95.2554745 5.10948905,95.2554745 5.18248175,95.0364964 C5.18248175,95.1094891 5.03649635,95.2554745 4.96350365,95.4014599" id="Shape"></path>
            <path d="M3.28467153,94.379562 C3.28467153,94.379562 3.28467153,94.3065693 3.28467153,94.3065693 C3.28467153,94.3065693 3.28467153,94.379562 3.28467153,94.379562" id="Shape"></path>
            <path d="M2.91970803,93.8686131 C2.91970803,93.9416058 2.91970803,93.8686131 2.91970803,93.8686131" id="Shape"></path>
            <path d="M3.64963504,94.2335766 C3.64963504,94.3065693 3.64963504,94.3065693 3.64963504,94.2335766 C3.64963504,94.3065693 3.64963504,94.2335766 3.64963504,94.2335766 C3.64963504,94.3065693 3.64963504,94.3065693 3.64963504,94.2335766" id="Shape"></path>
            <path d="M9.05109489,97.0072993 C8.97810219,97.0072993 8.97810219,97.080292 8.90510949,97.1532847 C8.97810219,97.0072993 9.05109489,97.0072993 9.05109489,97.0072993" id="Shape"></path>
            <path d="M0.583941606,91.7518248 C0.583941606,91.6788321 0.583941606,91.6788321 0.583941606,91.6788321 C0.583941606,91.6788321 0.583941606,91.6788321 0.583941606,91.6788321 C0.583941606,91.7518248 0.583941606,91.7518248 0.583941606,91.7518248" id="Shape"></path>
            <path d="M7.51824818,95.3284672 C7.59124088,95.2554745 7.59124088,95.2554745 7.51824818,95.3284672" id="Shape"></path>
            <path d="M4.59854015,92.919708 C4.59854015,92.9927007 4.52554745,92.9927007 4.52554745,93.0656934 C4.52554745,93.0656934 4.52554745,93.0656934 4.52554745,92.9927007 L4.59854015,92.919708 Z" id="Shape"></path>
            <path d="M9.48905109,97.080292 C9.48905109,97.0072993 9.27007299,97.2262774 9.12408759,97.2992701 C9.05109489,97.2992701 9.27007299,97.1532847 9.41605839,97.080292 C9.34306569,97.080292 9.12408759,97.2262774 9.12408759,97.1532847 C9.19708029,97.1532847 9.19708029,97.080292 9.19708029,97.080292 C8.97810219,97.1532847 9.12408759,97.0072993 8.90510949,97.080292 C8.90510949,97.080292 8.97810219,97.080292 8.97810219,97.0072993 C8.90510949,97.080292 8.75912409,97.1532847 8.68613139,97.2262774 C8.68613139,97.2262774 8.54014599,97.2992701 8.68613139,97.1532847 C8.68613139,97.1532847 8.75912409,97.1532847 8.83211679,97.080292 L8.75912409,97.080292 C8.97810219,96.9343066 8.83211679,97.080292 8.97810219,96.9343066 C8.90510949,96.9343066 8.68613139,97.0072993 8.75912409,96.9343066 C8.97810219,96.7883212 8.90510949,96.9343066 9.05109489,96.7883212 L8.75912409,97.080292 C9.05109489,96.8613139 8.75912409,97.1532847 9.05109489,96.8613139 C9.05109489,96.7883212 8.90510949,96.8613139 8.90510949,96.7883212 C8.75912409,96.8613139 8.75912409,96.9343066 8.61313869,97.0072993 C8.39416058,97.080292 9.05109489,96.5693431 8.75912409,96.7153285 C8.61313869,96.7883212 8.39416058,97.0072993 8.46715328,96.8613139 L8.68613139,96.7153285 C8.68613139,96.6423358 8.32116788,96.9343066 8.46715328,96.7883212 C8.54014599,96.7153285 8.54014599,96.7883212 8.61313869,96.7153285 C8.75912409,96.5693431 8.46715328,96.7883212 8.46715328,96.7883212 L8.68613139,96.6423358 C8.61313869,96.6423358 8.39416058,96.6423358 8.32116788,96.6423358 C8.39416058,96.5693431 8.46715328,96.5693431 8.46715328,96.4963504 C8.32116788,96.4963504 8.39416058,96.350365 8.39416058,96.1313869 L8.17518248,96.2773723 C8.17518248,96.2773723 8.24817518,96.2043796 8.24817518,96.2043796 C8.32116788,96.1313869 8.17518248,96.2773723 8.10218978,96.350365 C8.10218978,96.350365 8.17518248,96.2773723 8.24817518,96.2043796 C8.10218978,96.2773723 7.81021898,96.350365 7.95620438,96.1313869 L8.02919708,96.1313869 C8.02919708,96.0583942 7.66423358,96.350365 7.81021898,96.2043796 C7.81021898,96.0583942 7.59124088,96.1313869 7.73722628,95.8394161 C7.51824818,96.0583942 7.73722628,95.6934307 7.44525547,95.9854015 C7.51824818,95.7664234 7.59124088,95.7664234 7.66423358,95.5474453 C7.66423358,95.5474453 7.44525547,95.6934307 7.37226277,95.6934307 L7.51824818,95.5474453 L7.29927007,95.6934307 L7.44525547,95.4744526 L7.37226277,95.4744526 C7.37226277,95.4744526 7.29927007,95.5474453 7.29927007,95.620438 C7.22627737,95.6934307 7.29927007,95.4014599 7.37226277,95.3284672 L7.15328467,95.4014599 C7.22627737,95.3284672 7.22627737,95.3284672 7.29927007,95.3284672 C7.08029197,95.4744526 7.44525547,95.1824818 7.29927007,95.2554745 C7.29927007,95.3284672 7.22627737,95.3284672 7.15328467,95.4014599 C7.22627737,95.2554745 7.15328467,95.2554745 7.08029197,95.2554745 L7.15328467,95.1094891 C7.15328467,95.0364964 7.00729927,95.0364964 6.93430657,95.0364964 C6.93430657,95.1094891 6.71532847,95.3284672 6.71532847,95.3284672 L6.86131387,95.1094891 C6.78832117,95.1824818 6.78832117,95.1824818 6.71532847,95.3284672 C6.71532847,95.2554745 6.86131387,95.1094891 6.93430657,95.0364964 L7.08029197,94.8905109 C7.15328467,94.8175182 7.15328467,94.8175182 7.22627737,94.7445255 C7.15328467,94.8175182 7.29927007,94.5255474 7.15328467,94.6715328 L7.22627737,94.5985401 C7.15328467,94.5255474 7.08029197,94.5985401 7.00729927,94.5255474 C6.86131387,94.6715328 6.86131387,94.5985401 6.78832117,94.7445255 C6.78832117,94.6715328 6.86131387,94.5255474 6.78832117,94.4525547 C6.71532847,94.5255474 6.64233577,94.5985401 6.56934307,94.6715328 C6.71532847,94.5255474 6.64233577,94.5255474 6.71532847,94.379562 C6.64233577,94.379562 6.64233577,94.379562 6.42335766,94.4525547 C6.35036496,94.5255474 6.35036496,94.5255474 6.35036496,94.5985401 C6.35036496,94.5985401 6.35036496,94.5255474 6.42335766,94.4525547 C6.20437956,94.5985401 6.56934307,93.8686131 6.27737226,94.1605839 L6.05839416,94.3065693 C6.05839416,94.2335766 6.13138686,94.2335766 6.20437956,94.0875912 C5.91240876,94.3065693 6.13138686,93.9416058 5.91240876,94.0875912 C6.20437956,93.5766423 5.69343066,94.0145985 5.83941606,93.649635 L5.76642336,93.7956204 C5.69343066,93.8686131 5.76642336,93.7226277 5.76642336,93.7226277 C5.69343066,93.7956204 5.69343066,93.8686131 5.69343066,93.8686131 C5.47445255,93.8686131 5.47445255,93.5036496 5.40145985,93.2846715 C5.32846715,93.2116788 5.03649635,93.8686131 5.10948905,93.5036496 L5.25547445,93.2846715 C4.96350365,93.4306569 5.03649635,93.1386861 4.81751825,93.2846715 C4.81751825,93.2116788 4.89051095,93.2116788 4.89051095,93.2116788 C4.96350365,93.0656934 4.81751825,93.1386861 4.74452555,93.2846715 C4.74452555,93.2846715 4.81751825,93.1386861 4.81751825,93.0656934 C4.81751825,92.9927007 4.67153285,93.2116788 4.74452555,93.0656934 C4.74452555,93.0656934 4.74452555,92.9927007 4.81751825,92.9927007 C4.74452555,93.0656934 4.74452555,92.919708 4.67153285,93.1386861 C4.67153285,93.0656934 4.52554745,93.1386861 4.59854015,93.0656934 C4.45255474,93.2846715 4.59854015,92.919708 4.45255474,93.2116788 C4.59854015,92.919708 4.52554745,92.919708 4.37956204,93.0656934 C4.45255474,92.9927007 4.37956204,92.9927007 4.45255474,92.8467153 C4.45255474,92.8467153 4.37956204,92.8467153 4.30656934,92.9927007 C4.45255474,92.6277372 4.01459854,93.2116788 4.23357664,92.7737226 C4.08759124,92.919708 3.94160584,92.919708 3.79562044,92.9927007 C3.94160584,92.7007299 3.86861314,92.9927007 4.08759124,92.7007299 C3.94160584,92.7737226 3.79562044,92.9927007 3.72262774,92.919708 C3.72262774,92.8467153 3.79562044,92.7737226 3.79562044,92.7737226 C3.64963504,92.8467153 3.64963504,92.7007299 3.50364964,92.7737226 C3.50364964,92.7737226 3.57664234,92.7007299 3.57664234,92.7007299 C3.57664234,92.7007299 3.57664234,92.6277372 3.50364964,92.7737226 C3.43065693,92.9927007 3.28467153,93.1386861 3.21167883,93.2846715 C3.43065693,92.919708 3.21167883,93.1386861 3.43065693,92.7007299 C3.43065693,92.7007299 3.35766423,92.7737226 3.35766423,92.8467153 C3.35766423,92.8467153 3.35766423,92.7737226 3.43065693,92.6277372 C3.35766423,92.7007299 3.28467153,92.8467153 3.28467153,92.7737226 C3.28467153,92.7007299 3.35766423,92.7007299 3.35766423,92.6277372 C3.28467153,92.7737226 3.21167883,92.8467153 3.21167883,92.7737226 C3.21167883,92.7007299 3.28467153,92.7007299 3.28467153,92.7007299 C3.21167883,92.7007299 2.99270073,92.9927007 2.99270073,92.8467153 C3.13868613,92.5547445 2.99270073,92.7737226 3.13868613,92.4817518 L3.06569343,92.5547445 L2.91970803,92.6277372 C2.91970803,92.6277372 2.77372263,92.7737226 2.77372263,92.7007299 L2.84671533,92.6277372 L2.77372263,92.6277372 L2.77372263,92.7737226 C2.70072993,92.919708 2.62773723,93.0656934 2.62773723,92.9927007 C2.62773723,92.9927007 2.62773723,92.9927007 2.62773723,92.8467153 C2.55474453,92.919708 2.55474453,92.9927007 2.55474453,92.919708 C2.55474453,92.8467153 2.70072993,92.6277372 2.70072993,92.6277372 C2.62773723,92.8467153 2.62773723,92.6277372 2.48175182,92.8467153 C2.48175182,92.7737226 2.55474453,92.7007299 2.55474453,92.6277372 L2.48175182,92.7007299 C2.48175182,92.6277372 2.48175182,92.6277372 2.55474453,92.4817518 C2.55474453,92.4087591 2.40875912,92.7737226 2.40875912,92.6277372 C2.40875912,92.6277372 2.40875912,92.5547445 2.48175182,92.5547445 C2.48175182,92.4817518 2.33576642,92.6277372 2.33576642,92.4817518 C2.40875912,92.189781 2.40875912,92.4087591 2.48175182,92.189781 C2.40875912,92.189781 2.18978102,92.4087591 2.11678832,92.3357664 C1.97080292,92.7007299 2.11678832,92.1167883 2.04379562,92.2627737 C2.04379562,92.2627737 2.11678832,92.0437956 2.11678832,92.1167883 C2.11678832,92.0437956 1.97080292,92.189781 1.82481752,92.2627737 L1.89781022,92.189781 C1.89781022,92.1167883 1.82481752,92.1167883 1.82481752,92.0437956 C1.75182482,92.1167883 1.75182482,92.1167883 1.75182482,92.2627737 C1.89781022,91.6788321 1.45985401,92.4817518 1.53284672,91.9708029 C1.53284672,91.9708029 1.60583942,91.8978102 1.60583942,91.8978102 L1.45985401,92.1167883 C1.38686131,92.2627737 1.45985401,92.189781 1.38686131,92.3357664 C1.31386861,92.4087591 1.31386861,92.4817518 1.24087591,92.4817518 C1.31386861,92.4087591 1.31386861,92.2627737 1.38686131,92.1167883 C1.38686131,92.189781 1.31386861,92.189781 1.31386861,92.2627737 C1.38686131,91.9708029 1.16788321,92.5547445 1.24087591,92.3357664 L1.24087591,92.2627737 C1.24087591,92.2627737 1.16788321,92.4087591 1.16788321,92.3357664 C1.24087591,92.1167883 1.24087591,92.2627737 1.31386861,92.1167883 C1.31386861,92.1167883 1.09489051,92.4087591 1.16788321,92.2627737 C1.16788321,92.189781 1.24087591,92.189781 1.24087591,92.189781 C1.31386861,91.9708029 1.24087591,92.0437956 1.24087591,91.9708029 L1.24087591,91.8248175 L1.24087591,91.8978102 C1.02189781,92.3357664 1.16788321,91.9708029 0.948905109,92.2627737 C1.09489051,91.9708029 1.02189781,92.1167883 1.09489051,91.8978102 C1.09489051,91.8248175 1.09489051,91.7518248 1.16788321,91.6788321 C1.09489051,91.8248175 1.16788321,91.5328467 1.02189781,91.7518248 C1.02189781,91.6788321 1.02189781,91.7518248 1.09489051,91.6058394 C1.02189781,91.6788321 1.09489051,91.7518248 1.02189781,91.8248175 C0.875912409,92.0437956 1.02189781,91.5328467 0.802919708,91.8248175 C0.729927007,91.9708029 0.583941606,92.189781 0.510948905,92.2627737 C0.510948905,92.1167883 0.583941606,92.0437956 0.583941606,92.0437956 C0.583941606,91.9708029 0.583941606,91.9708029 0.510948905,92.0437956 C0.510948905,91.9708029 0.583941606,91.9708029 0.583941606,91.8248175 C0.583941606,91.8248175 0.510948905,92.0437956 0.510948905,91.9708029 C0.510948905,91.8978102 0.583941606,91.7518248 0.656934307,91.6788321 C0.583941606,91.7518248 0.510948905,91.8248175 0.510948905,91.8978102 C0.510948905,91.7518248 0.583941606,91.7518248 0.656934307,91.6788321 C0.583941606,91.7518248 0.510948905,91.7518248 0.437956204,91.9708029 L0.437956204,92.0437956 C0.437956204,92.0437956 0.510948905,91.8978102 0.510948905,91.8248175 C0.583941606,91.6788321 0.510948905,91.8978102 0.510948905,91.9708029 C0.364963504,92.4087591 0.583941606,91.9708029 0.656934307,91.9708029 L0.510948905,92.2627737 L0.656934307,92.0437956 C0.656934307,92.1167883 0.583941606,92.2627737 0.583941606,92.3357664 C0.583941606,92.4817518 0.656934307,92.2627737 0.583941606,92.4087591 C0.583941606,92.4087591 0.583941606,92.4817518 0.583941606,92.4817518 L0.656934307,92.4087591 C0.656934307,92.4817518 0.583941606,92.6277372 0.583941606,92.5547445 C0.583941606,92.7007299 0.729927007,92.3357664 0.656934307,92.5547445 C0.729927007,92.4817518 0.729927007,92.3357664 0.875912409,92.1167883 L0.583941606,92.7007299 L0.656934307,92.4817518 C0.656934307,92.4817518 0.656934307,92.4817518 0.656934307,92.6277372 C0.729927007,92.4817518 0.656934307,92.5547445 0.729927007,92.4087591 C0.729927007,92.6277372 0.875912409,92.3357664 0.729927007,92.7007299 C0.802919708,92.5547445 0.729927007,92.5547445 0.802919708,92.4817518 C0.656934307,92.8467153 0.875912409,92.4087591 0.802919708,92.6277372 C0.729927007,92.7737226 0.729927007,92.7007299 0.729927007,92.8467153 C0.875912409,92.5547445 0.729927007,92.919708 0.802919708,92.919708 C0.875912409,92.7007299 0.875912409,92.8467153 0.948905109,92.7737226 C0.948905109,92.8467153 0.948905109,92.919708 0.948905109,93.0656934 L0.948905109,93.1386861 C1.02189781,92.919708 1.09489051,92.919708 1.09489051,92.919708 C1.02189781,93.0656934 1.02189781,93.1386861 0.948905109,93.2116788 C1.02189781,93.1386861 1.02189781,93.0656934 1.02189781,93.0656934 L0.948905109,93.2846715 C1.02189781,93.2846715 1.09489051,93.0656934 1.09489051,93.2116788 C1.16788321,93.0656934 1.24087591,92.7007299 1.31386861,92.6277372 C1.31386861,92.7007299 1.24087591,92.919708 1.16788321,92.919708 C1.16788321,92.919708 1.24087591,92.8467153 1.24087591,92.919708 L1.16788321,93.0656934 C1.16788321,93.1386861 1.24087591,92.919708 1.24087591,92.9927007 C1.16788321,93.1386861 1.24087591,93.0656934 1.16788321,93.2116788 C1.16788321,93.2116788 1.16788321,93.1386861 1.16788321,93.2116788 C1.16788321,93.2116788 1.16788321,93.3576642 1.16788321,93.4306569 C1.16788321,93.3576642 1.24087591,93.2846715 1.24087591,93.2116788 C1.31386861,93.2116788 1.16788321,93.3576642 1.16788321,93.4306569 C1.24087591,93.3576642 1.16788321,93.4306569 1.31386861,93.2116788 C1.31386861,93.2116788 1.31386861,93.2846715 1.24087591,93.3576642 C1.31386861,93.2846715 1.31386861,93.3576642 1.38686131,93.1386861 C1.53284672,92.9927007 1.45985401,93.2846715 1.53284672,93.2116788 L1.53284672,93.2846715 C1.60583942,93.2116788 1.60583942,93.2846715 1.75182482,93.1386861 C1.75182482,93.1386861 1.75182482,93.2846715 1.67883212,93.3576642 C1.75182482,93.2846715 1.75182482,93.2116788 1.75182482,93.3576642 C1.67883212,93.4306569 1.75182482,93.4306569 1.67883212,93.4306569 C1.67883212,93.5036496 1.67883212,93.5766423 1.75182482,93.4306569 C1.67883212,93.5766423 1.67883212,93.649635 1.75182482,93.5766423 L1.75182482,93.4306569 C1.75182482,93.4306569 1.82481752,93.4306569 1.82481752,93.4306569 L1.75182482,93.649635 C1.67883212,93.9416058 2.11678832,93.2116788 1.97080292,93.7226277 C2.04379562,93.5766423 1.97080292,93.5766423 2.04379562,93.4306569 C2.04379562,93.5036496 1.97080292,93.7956204 1.97080292,93.7956204 C1.97080292,93.9416058 2.18978102,93.5036496 2.18978102,93.5766423 C2.18978102,93.5036496 2.33576642,93.2846715 2.40875912,93.2116788 C2.40875912,93.2846715 2.33576642,93.5766423 2.26277372,93.649635 C2.26277372,93.649635 2.26277372,93.649635 2.26277372,93.5766423 C2.26277372,93.5766423 2.18978102,93.649635 2.18978102,93.7226277 L2.26277372,93.649635 C2.26277372,93.7226277 2.26277372,93.7226277 2.18978102,93.8686131 C2.26277372,93.7956204 2.26277372,93.7226277 2.26277372,93.7226277 C2.26277372,93.8686131 2.33576642,93.7226277 2.33576642,93.8686131 C2.33576642,93.7956204 2.40875912,93.7226277 2.40875912,93.7226277 C2.40875912,93.8686131 2.48175182,93.5766423 2.55474453,93.5766423 C2.55474453,93.7226277 2.40875912,93.8686131 2.48175182,93.7956204 C2.48175182,93.8686131 2.40875912,94.0145985 2.33576642,94.0875912 C2.48175182,93.9416058 2.33576642,94.2335766 2.40875912,94.2335766 L2.33576642,94.3065693 C2.33576642,94.3065693 2.40875912,94.3065693 2.40875912,94.3065693 L2.48175182,94.1605839 C2.48175182,94.1605839 2.48175182,94.2335766 2.48175182,94.2335766 C2.55474453,94.1605839 2.62773723,93.9416058 2.70072993,93.8686131 C2.70072993,93.9416058 2.77372263,93.7956204 2.70072993,94.0145985 C2.70072993,93.9416058 2.62773723,94.2335766 2.55474453,94.2335766 C2.55474453,94.2335766 2.55474453,94.2335766 2.55474453,94.2335766 C2.55474453,94.2335766 2.55474453,94.3065693 2.55474453,94.3065693 C2.48175182,94.5255474 2.70072993,94.0875912 2.77372263,94.0875912 C2.70072993,94.2335766 2.70072993,94.3065693 2.70072993,94.3065693 C2.70072993,94.3065693 2.77372263,94.0875912 2.84671533,94.0145985 C2.84671533,94.0875912 2.91970803,93.9416058 2.91970803,94.0145985 L2.91970803,93.9416058 C2.99270073,93.7956204 2.99270073,93.8686131 3.06569343,93.7956204 C2.99270073,93.8686131 2.99270073,93.8686131 2.99270073,93.8686131 C3.13868613,93.649635 2.91970803,94.0875912 3.06569343,94.0145985 C3.06569343,94.0875912 2.99270073,94.2335766 2.91970803,94.3065693 C3.06569343,94.1605839 2.84671533,94.4525547 2.99270073,94.379562 C3.06569343,94.2335766 3.06569343,94.2335766 3.13868613,94.0875912 L2.99270073,94.1605839 L3.13868613,93.9416058 C3.13868613,93.9416058 3.06569343,94.0145985 3.06569343,94.0145985 C3.13868613,93.8686131 3.13868613,93.9416058 3.21167883,93.7956204 C3.13868613,94.0145985 3.35766423,93.7226277 3.28467153,93.8686131 L3.06569343,94.2335766 C2.99270073,94.4525547 3.28467153,94.0875912 3.28467153,94.2335766 L3.28467153,94.1605839 C3.35766423,94.0145985 3.35766423,94.1605839 3.35766423,94.0875912 C3.28467153,94.2335766 3.28467153,94.2335766 3.21167883,94.379562 C3.28467153,94.3065693 3.28467153,94.379562 3.35766423,94.1605839 L3.28467153,94.3065693 C3.28467153,94.379562 3.50364964,93.9416058 3.57664234,94.0145985 C3.50364964,94.1605839 3.43065693,94.2335766 3.35766423,94.3065693 C3.35766423,94.3065693 3.35766423,94.379562 3.43065693,94.2335766 C3.43065693,94.3065693 3.57664234,94.0875912 3.50364964,94.2335766 C3.57664234,94.1605839 3.64963504,94.0145985 3.64963504,94.0875912 C3.64963504,94.0875912 3.64963504,94.1605839 3.64963504,94.1605839 C3.64963504,94.0875912 3.72262774,94.0875912 3.79562044,93.9416058 C3.64963504,94.379562 3.94160584,94.0145985 3.79562044,94.379562 C3.86861314,94.379562 3.94160584,94.3065693 3.94160584,94.379562 C3.94160584,94.379562 3.94160584,94.4525547 3.94160584,94.4525547 C3.94160584,94.5985401 4.16058394,94.0875912 4.16058394,94.2335766 C4.08759124,94.4525547 4.08759124,94.3065693 4.01459854,94.379562 C3.79562044,94.8175182 4.08759124,94.379562 4.01459854,94.5985401 C3.94160584,94.7445255 4.16058394,94.4525547 4.16058394,94.5255474 C4.16058394,94.5255474 4.16058394,94.5255474 4.08759124,94.5985401 C4.23357664,94.379562 4.30656934,94.379562 4.37956204,94.3065693 C4.30656934,94.4525547 4.30656934,94.379562 4.23357664,94.5255474 C4.23357664,94.5255474 4.37956204,94.2335766 4.45255474,94.2335766 C4.37956204,94.3065693 4.37956204,94.4525547 4.30656934,94.5985401 L4.23357664,94.5985401 C4.08759124,94.8175182 4.30656934,94.5985401 4.30656934,94.6715328 L4.37956204,94.8175182 C4.45255474,94.8175182 4.59854015,94.5985401 4.67153285,94.5985401 L4.74452555,94.5255474 C4.89051095,94.3065693 4.67153285,94.6715328 4.81751825,94.5255474 L4.67153285,94.7445255 C4.74452555,94.6715328 4.89051095,94.5255474 4.96350365,94.5255474 C4.81751825,94.6715328 4.74452555,94.7445255 4.59854015,94.8175182 C4.59854015,94.8175182 4.67153285,94.8175182 4.74452555,94.7445255 C4.74452555,94.7445255 4.67153285,94.8175182 4.67153285,94.7445255 C4.81751825,94.5985401 4.89051095,94.5255474 4.96350365,94.5255474 C4.67153285,94.9635036 4.96350365,94.6715328 4.74452555,95.1094891 C4.89051095,94.9635036 4.81751825,95.2554745 4.89051095,95.3284672 C5.10948905,94.9635036 4.89051095,95.3284672 5.18248175,94.9635036 C5.18248175,94.9635036 5.25547445,94.9635036 5.18248175,94.9635036 L5.10948905,95.2554745 C5.03649635,95.4014599 5.03649635,95.3284672 4.96350365,95.4014599 C4.96350365,95.4744526 4.89051095,95.5474453 4.81751825,95.6934307 C4.89051095,95.5474453 4.96350365,95.5474453 4.96350365,95.5474453 L5.03649635,95.3284672 C5.25547445,95.1824818 4.89051095,95.6934307 5.03649635,95.5474453 L4.96350365,95.620438 C5.03649635,95.5474453 5.03649635,95.6934307 5.32846715,95.4014599 C5.32846715,95.4744526 5.25547445,95.5474453 5.18248175,95.5474453 C5.18248175,95.620438 5.54744526,95.3284672 5.47445255,95.5474453 L5.40145985,95.620438 C5.40145985,95.620438 5.54744526,95.4744526 5.47445255,95.5474453 C5.47445255,95.5474453 5.40145985,95.620438 5.40145985,95.620438 C5.40145985,95.620438 5.54744526,95.4744526 5.54744526,95.5474453 L5.47445255,95.620438 C5.47445255,95.7664234 5.76642336,95.4744526 5.83941606,95.4744526 C5.62043796,95.6934307 5.62043796,95.8394161 5.62043796,95.9124088 C5.69343066,95.9854015 5.91240876,95.8394161 6.05839416,95.7664234 C5.83941606,96.0583942 6.13138686,95.9854015 6.05839416,96.2043796 C6.05839416,96.1313869 6.20437956,95.9854015 6.27737226,95.9854015 C6.27737226,96.0583942 6.49635036,95.8394161 6.27737226,96.0583942 C6.13138686,96.2773723 6.20437956,96.2773723 6.20437956,96.2773723 L6.49635036,95.9854015 C6.20437956,96.4233577 6.78832117,95.9854015 6.49635036,96.350365 C6.56934307,96.2773723 6.56934307,96.2773723 6.64233577,96.2773723 L6.49635036,96.4233577 C6.49635036,96.4963504 6.49635036,96.5693431 6.56934307,96.5693431 L6.42335766,96.6423358 C6.42335766,96.6423358 6.86131387,96.2773723 6.93430657,96.2773723 L6.71532847,96.4963504 C6.78832117,96.5693431 6.64233577,96.7883212 6.86131387,96.6423358 C6.86131387,96.6423358 6.78832117,96.7153285 6.71532847,96.7153285 C6.71532847,96.7153285 6.64233577,96.9343066 6.93430657,96.6423358 C6.71532847,96.8613139 6.93430657,96.7153285 7.08029197,96.6423358 L6.93430657,97.080292 C7.15328467,96.9343066 7.22627737,96.8613139 7.29927007,96.8613139 C7.29927007,96.8613139 7.15328467,97.0072993 7.22627737,96.9343066 C7.15328467,97.0072993 7.37226277,96.8613139 7.37226277,96.9343066 L7.29927007,97.0072993 C7.29927007,97.0072993 7.37226277,97.0072993 7.51824818,96.9343066 C7.59124088,96.9343066 7.51824818,97.0072993 7.37226277,97.1532847 C7.44525547,97.080292 7.59124088,97.0072993 7.59124088,97.080292 C7.51824818,97.1532847 7.51824818,97.1532847 7.51824818,97.1532847 C7.44525547,97.2992701 7.73722628,97.080292 7.59124088,97.2262774 C7.51824818,97.2992701 7.51824818,97.2992701 7.51824818,97.2992701 C7.51824818,97.2262774 7.44525547,97.2262774 7.51824818,97.2262774 C7.37226277,97.3722628 7.37226277,97.3722628 7.15328467,97.5182482 C7.29927007,97.4452555 7.51824818,97.2992701 7.51824818,97.3722628 C7.51824818,97.3722628 7.51824818,97.3722628 7.44525547,97.4452555 C7.44525547,97.4452555 7.44525547,97.4452555 7.51824818,97.4452555 C7.51824818,97.4452555 7.51824818,97.5182482 7.51824818,97.5182482 C7.37226277,97.5912409 7.44525547,97.5912409 7.51824818,97.5912409 C7.66423358,97.4452555 7.66423358,97.5182482 7.81021898,97.3722628 C7.81021898,97.3722628 7.81021898,97.3722628 7.73722628,97.3722628 C7.73722628,97.3722628 7.73722628,97.3722628 7.73722628,97.3722628 C7.73722628,97.3722628 7.73722628,97.3722628 7.66423358,97.3722628 C7.73722628,97.2992701 7.81021898,97.2992701 7.73722628,97.3722628 C7.88321168,97.2992701 7.95620438,97.2262774 8.02919708,97.2262774 C7.81021898,97.4452555 7.73722628,97.5182482 7.59124088,97.6642336 C7.73722628,97.6642336 7.73722628,97.7372263 8.02919708,97.5182482 C8.10218978,97.5182482 7.95620438,97.5912409 7.88321168,97.6642336 C7.81021898,97.6642336 7.81021898,97.6642336 7.81021898,97.6642336 C7.88321168,97.6642336 7.88321168,97.7372263 8.10218978,97.5912409 C8.02919708,97.6642336 7.88321168,97.7372263 7.95620438,97.7372263 L7.88321168,97.810219 C7.59124088,98.1751825 8.54014599,97.5912409 8.17518248,97.9562044 C8.17518248,97.9562044 8.17518248,97.8832117 8.24817518,97.8832117 C8.10218978,98.1021898 8.61313869,98.0291971 8.32116788,98.3211679 C8.24817518,98.3941606 8.39416058,98.3211679 8.54014599,98.2481752 L8.32116788,98.3941606 L8.54014599,98.3211679 C8.75912409,98.3211679 8.10218978,98.6861314 8.46715328,98.540146 L8.61313869,98.4671533 C8.61313869,98.540146 8.75912409,98.540146 8.54014599,98.540146 C8.54014599,98.540146 8.68613139,98.4671533 8.61313869,98.540146 L8.54014599,98.6131387 L8.75912409,98.6131387 C8.68613139,98.6861314 8.32116788,98.8321168 8.32116788,98.8321168 C8.39416058,98.8321168 8.68613139,98.7591241 8.75912409,98.7591241 C8.75912409,98.7591241 8.83211679,98.6861314 8.90510949,98.6861314 L8.97810219,98.6861314 C9.27007299,98.540146 9.6350365,98.4671533 9.7810219,98.2481752 L9.5620438,98.3211679 L9.7080292,98.2481752 C9.8540146,98.1751825 9.7080292,98.1751825 9.6350365,98.2481752 C9.7080292,98.1751825 9.7810219,98.1751825 9.7810219,98.1751825 L9.48905109,98.2481752 C9.6350365,98.1751825 9.7080292,98.1751825 9.7810219,98.1021898 C9.6350365,98.1751825 9.48905109,98.2481752 9.41605839,98.2481752 C9.5620438,98.1751825 9.6350365,98.1021898 9.5620438,98.1751825 C9.6350365,98.1021898 9.7080292,98.1021898 9.7080292,98.1021898 C9.6350365,98.1021898 9.6350365,98.0291971 9.48905109,98.1021898 C9.6350365,98.0291971 9.41605839,98.0291971 9.7080292,97.8832117 C9.6350365,97.8832117 9.48905109,97.9562044 9.41605839,97.9562044 C9.7810219,97.810219 9.41605839,97.8832117 9.7810219,97.6642336 C9.48905109,97.810219 9.5620438,97.6642336 9.41605839,97.6642336 C9.41605839,97.6642336 9.48905109,97.6642336 9.48905109,97.6642336 C9.48905109,97.5912409 9.5620438,97.5912409 9.6350365,97.5182482 C9.41605839,97.6642336 9.27007299,97.6642336 9.12408759,97.7372263 C9.34306569,97.5912409 9.41605839,97.5912409 9.6350365,97.4452555 C9.41605839,97.5912409 9.41605839,97.5182482 9.27007299,97.5912409 C9.41605839,97.4452555 9.34306569,97.5182482 9.48905109,97.3722628 C9.19708029,97.5182482 9.41605839,97.3722628 9.19708029,97.4452555 C9.34306569,97.2992701 9.48905109,97.2262774 9.34306569,97.2992701 C9.34306569,97.1532847 9.48905109,97.080292 9.48905109,97.080292 M8.24817518,96.4963504 C8.24817518,96.4963504 8.24817518,96.4963504 8.24817518,96.4963504 C8.24817518,96.5693431 8.17518248,96.6423358 8.17518248,96.6423358 C8.17518248,96.5693431 8.24817518,96.4963504 8.24817518,96.4963504 M7.22627737,97.5182482 C7.22627737,97.5182482 7.22627737,97.5182482 7.22627737,97.5182482 C7.29927007,97.4452555 7.29927007,97.4452555 7.22627737,97.5182482 L7.29927007,97.4452555 C7.29927007,97.4452555 7.29927007,97.5182482 7.22627737,97.5182482" id="Shape"></path>
            <path d="M7.44525547,97.3722628 C7.51824818,97.3722628 7.51824818,97.3722628 7.44525547,97.3722628 C7.51824818,97.3722628 7.51824818,97.2992701 7.44525547,97.3722628 Z" id="Shape"></path>
            <path d="M1.38686131,92.189781 C1.38686131,92.1167883 1.38686131,92.1167883 1.38686131,92.189781 C1.38686131,92.1167883 1.38686131,92.1167883 1.38686131,92.189781" id="Shape"></path>
            <path d="M1.24087591,92.0437956 L1.24087591,91.9708029 C1.24087591,92.0437956 1.24087591,92.0437956 1.24087591,92.0437956" id="Shape"></path>
            <path d="M1.09489051,91.8978102 C1.09489051,91.8978102 1.09489051,91.9708029 1.09489051,91.9708029 L1.09489051,91.8978102 Z" id="Shape"></path>
            <path d="M2.62773723,92.7737226 C2.62773723,92.7737226 2.70072993,92.7007299 2.70072993,92.7007299 C2.70072993,92.7007299 2.70072993,92.7007299 2.62773723,92.7737226" id="Shape"></path>
            <polygon id="Shape" points="4.37956204 92.8467153 4.37956204 92.8467153 4.45255474 92.8467153"></polygon>
            <path d="M2.77372263,92.7007299 C2.77372263,92.7007299 2.77372263,92.7007299 2.77372263,92.7007299 C2.70072993,92.7007299 2.70072993,92.7737226 2.77372263,92.7007299" id="Shape"></path>
            <path d="M0.510948905,91.6058394 C0.437956204,91.6058394 0.437956204,91.6058394 0.510948905,91.6058394" id="Shape"></path>
            <path d="M0.437956204,91.6788321 C0.437956204,91.6058394 0.437956204,91.6058394 0.437956204,91.6788321" id="Shape"></path>
            <path d="M0.656934307,91.7518248 C0.656934307,91.6788321 0.656934307,91.6788321 0.656934307,91.7518248" id="Shape"></path>
            <path d="M0.729927007,91.7518248 C0.729927007,91.7518248 0.729927007,91.6058394 0.729927007,91.6058394 L0.729927007,91.7518248 C0.729927007,91.6058394 0.656934307,91.8248175 0.729927007,91.7518248" id="Shape"></path>
            <path d="M0.656934307,92.7007299 C0.583941606,92.7007299 0.583941606,92.7737226 0.583941606,92.8467153 C0.583941606,93.0656934 0.583941606,92.6277372 0.656934307,92.7007299" id="Shape"></path>
            <path d="M0.802919708,92.8467153 C0.729927007,92.8467153 0.729927007,92.919708 0.729927007,92.9927007 C0.802919708,92.919708 0.802919708,92.919708 0.802919708,92.8467153" id="Shape"></path>
            <path d="M1.82481752,93.2846715 L1.75182482,93.4306569 C1.82481752,93.4306569 1.82481752,93.3576642 1.82481752,93.2846715" id="Shape"></path>
            <polygon id="Shape" points="2.40875912 92.4817518 2.48175182 92.3357664 2.40875912 92.5547445"></polygon>
            <polygon id="Shape" points="2.04379562 93.7226277 1.97080292 93.7956204"></polygon>
            <path d="M3.72262774,94.5255474 L3.79562044,94.3065693 C3.79562044,94.379562 3.72262774,94.5985401 3.72262774,94.5255474" id="Shape"></path>
            <path d="M4.59854015,94.7445255 C4.52554745,94.8175182 4.52554745,94.8905109 4.59854015,94.8175182 C4.52554745,94.8175182 4.59854015,94.7445255 4.59854015,94.7445255" id="Shape"></path>
            <polygon id="Shape" points="6.27737226 96.4963504 6.20437956 96.4963504"></polygon>
        </g>
    </g>
</svg>
