<?xml version="1.0" encoding="UTF-8"?>
<svg width="18px" height="18px" viewBox="0 0 18 18">
    <g id="Page-1" stroke="none" stroke-width="1" fill="none" fill-rule="evenodd">
        <g id="Lupa" fill="#C7C8C7" fill-rule="nonzero">
            <path d="M18,16.6975609 L13.2639344,12 C14.2819672,10.7268292 14.9163935,9.1463415 14.9163935,7.40487805 C14.9163935,3.32195122 11.5672131,-7.10542736e-15 7.45081967,-7.10542736e-15 C3.33442623,-7.10542736e-15 0,3.32195122 0,7.40487805 C0,11.4878049 3.34918033,14.8097561 7.46557377,14.8097561 C9.2213115,14.8097561 10.8147541,14.1804878 12.0983606,13.1707317 L16.8344262,17.8682926 L18,16.6975609 Z M7.46557377,13.1560976 C4.26393443,13.1560976 1.66721312,10.5658537 1.66721312,7.40487805 C1.66721312,4.24390244 4.27868852,1.65365854 7.46557377,1.65365854 C10.652459,1.65365854 13.2639344,4.24390244 13.2639344,7.40487805 C13.2639344,10.5658537 10.6672131,13.1560976 7.46557377,13.1560976 Z" id="Shape"></path>
        </g>
    </g>
</svg>
