<?xml version="1.0" encoding="UTF-8"?>
<svg width="18px" height="18px" viewBox="0 0 18 18" version="1.1" xmlns="http://www.w3.org/2000/svg" xmlns:xlink="http://www.w3.org/1999/xlink">
    <!-- Generator: Sketch 51.3 (57544) - http://www.bohemiancoding.com/sketch -->
    <title>Shape</title>
    <desc>Created with Sketch.</desc>
    <defs></defs>
    <g id="Page-1" stroke="none" stroke-width="1" fill="none" fill-rule="evenodd">
        <g id="search" fill="#E5B593" fill-rule="nonzero">
            <path d="M18,16.6975609 L13.2639344,12 C14.2819672,10.7268292 14.9163935,9.1463415 14.9163935,7.40487805 C14.9163935,3.32195122 11.5672131,-7.10542736e-15 7.45081967,-7.10542736e-15 C3.33442623,-7.10542736e-15 0,3.32195122 0,7.40487805 C0,11.4878049 3.34918033,14.8097561 7.46557377,14.8097561 C9.2213115,14.8097561 10.8147541,14.1804878 12.0983606,13.1707317 L16.8344262,17.8682926 L18,16.6975609 Z M7.33360657,13 C4.20483462,13 1.66721312,10.4449078 1.66721312,7.32682925 C1.66721312,4.20875069 4.21925291,1.65365854 7.33360657,1.65365854 C10.4479602,1.65365854 13,4.20875069 13,7.32682925 C13,10.4449078 10.4623785,13 7.33360657,13 Z" id="Shape"></path>
        </g>
    </g>
</svg>
