<?xml version="1.0" encoding="utf-8"?>
<!-- Generator: Adobe Illustrator 19.0.0, SVG Export Plug-In . SVG Version: 6.00 Build 0)  -->
<svg version="1.1" id="Layer_1" xmlns="http://www.w3.org/2000/svg" xmlns:xlink="http://www.w3.org/1999/xlink" x="0px" y="0px"
	 viewBox="0 0 32 32" style="enable-background:new 0 0 32 32;" xml:space="preserve">
<style type="text/css">
	.st0{clip-path:url(#SVGID_2_);fill:#FFFFFF;}
</style>
<g>
	<defs>
		<rect id="SVGID_1_" y="0" width="32" height="32"/>
	</defs>
	<clipPath id="SVGID_2_">
		<use xlink:href="#SVGID_1_"  style="overflow:visible;"/>
	</clipPath>
	<path class="st0" d="M32,29.9l-8.4-8.4c1.8-2.3,2.9-5.1,2.9-8.2C26.5,5.9,20.6,0,13.3,0S0,5.9,0,13.3s5.9,13.3,13.3,13.3
		c3.1,0,6-1.1,8.2-2.9l8.4,8.4L32,29.9z M13.3,23.6C7.6,23.6,2.9,19,2.9,13.3S7.6,2.9,13.3,2.9c5.7,0,10.3,4.6,10.3,10.3
		S19,23.6,13.3,23.6"/>
</g>
</svg>
