<?xml version="1.0" encoding="utf-8"?>
<!-- Generator: Adobe Illustrator 19.0.0, SVG Export Plug-In . SVG Version: 6.00 Build 0)  -->
<svg version="1.1" id="Layer_1" xmlns="http://www.w3.org/2000/svg" xmlns:xlink="http://www.w3.org/1999/xlink" x="0px" y="0px"
	 viewBox="0 0 122.6 121.6" style="enable-background:new 0 0 122.6 121.6;" xml:space="preserve">
<style type="text/css">
	.st0{clip-path:url(#SVGID_2_);fill:#484F57;}
</style>
<g>
	<defs>
		
			<rect id="SVGID_1_" x="41.6" y="0" transform="matrix(-0.7071 0.7071 -0.7071 -0.7071 147.6101 60.4869)" width="39.4" height="121.6"/>
	</defs>
	<clipPath id="SVGID_2_">
		<use xlink:href="#SVGID_1_"  style="overflow:visible;"/>
	</clipPath>
	<path class="st0" d="M95,101.8c0.1,0,0.3,0,0.2-0.2l-0.4-0.1L95,101.8z"/>
	<path class="st0" d="M95.3,100.4c-0.2-0.2-0.6-0.4-0.8-0.1c0.4,0.1,0.2,0.2,0.7,0.4c0.1,0.2,0,0.4-0.1,0.4c0.1,0,0,0.3,0.2,0.4
		c0.2-0.3,0.1-0.6-0.2-0.9C95.1,100.3,95.2,100.4,95.3,100.4"/>
	<path class="st0" d="M89.8,82.2l0,0.1C89.8,82.3,89.8,82.2,89.8,82.2"/>
	<path class="st0" d="M85.7,71.1c0,0.1,0.1,0.1,0.1,0.1C85.7,71.2,85.7,71.1,85.7,71.1"/>
	<path class="st0" d="M85.2,69.1c0,0,0,0.1,0,0.1C85.3,69.2,85.3,69.1,85.2,69.1"/>
	<path class="st0" d="M89.8,82.2l0-0.3C89.7,81.9,89.8,82,89.8,82.2"/>
	<path class="st0" d="M93.8,98.1c0,0.1,0.1,0.1,0.1,0.1C93.9,98.2,93.9,98.1,93.8,98.1L93.8,98.1z"/>
	<path class="st0" d="M91.9,87L91.9,87c0.1,0.1,0.1,0.1,0.2,0.1L91.9,87z"/>
	<path class="st0" d="M93.2,90.7c0-0.1-0.3,0-0.4,0c0.1,0,0.2,0.1,0.2,0.1C93.1,90.8,93.1,90.8,93.2,90.7"/>
	<path class="st0" d="M94.7,96.9L94.7,96.9C94.7,97,94.7,96.9,94.7,96.9"/>
	<path class="st0" d="M90.9,84.3C91,84.2,91,84.2,90.9,84.3C91,84.2,91,84.2,90.9,84.3"/>
	<path class="st0" d="M9.7,32C9.7,32,9.7,32,9.7,32C9.7,32,9.7,32,9.7,32"/>
	<path class="st0" d="M4.9,31.8L4.9,31.8c0.1-0.1,0-0.1,0-0.2L4.9,31.8z"/>
	<path class="st0" d="M84.1,65.6L84.1,65.6C84.1,65.7,84.1,65.6,84.1,65.6"/>
	<path class="st0" d="M65.2,37.3c0.1,0.4-0.7-0.2-0.4,0.4C64.8,37.6,65.4,37.8,65.2,37.3"/>
	<path class="st0" d="M93.8,98c0-0.1,0-0.1,0-0.2C93.8,97.9,93.8,97.9,93.8,98"/>
	<path class="st0" d="M64.7,37.8L64.7,37.8L64.7,37.8C64.7,37.8,64.7,37.8,64.7,37.8"/>
	<path class="st0" d="M80.3,58c0,0-0.1,0.1-0.1,0.1C80.2,58.1,80.2,58,80.3,58"/>
	<path class="st0" d="M82.7,63.9l0-0.2C82.6,63.8,82.7,63.8,82.7,63.9"/>
	<path class="st0" d="M78.4,55.2c0-0.1,0-0.1-0.1-0.2c0,0,0,0,0,0C78.3,55.1,78.4,55.1,78.4,55.2"/>
	<path class="st0" d="M76.7,52.2C76.7,52.2,76.7,52.3,76.7,52.2c0,0.1,0,0.1,0.1,0.2L76.7,52.2z"/>
	<path class="st0" d="M19.8,29.9c-0.1-0.1-0.1-0.1-0.2-0.2C19.7,29.9,19.2,30,19.8,29.9"/>
	<path class="st0" d="M94,98c-0.1,0-0.1,0-0.1-0.1L94,98C93.9,98.1,94,98.1,94,98"/>
	<path class="st0" d="M76.4,56.1l-0.2-0.5C76.2,55.8,76.3,56,76.4,56.1"/>
	<path class="st0" d="M43.7,29.5l-0.1,0C43.7,29.6,43.7,29.6,43.7,29.5"/>
	<path class="st0" d="M75.4,54.3c0-0.1,0-0.2,0-0.4c0,0-0.1,0-0.1,0L75.4,54.3z"/>
	<path class="st0" d="M19.6,29.7L19.6,29.7L19.6,29.7z"/>
	<path class="st0" d="M16.2,30.9c0.5-0.1,0.2-0.4,0.2-0.6c0.6-0.2,0.3,0.2,0.6,0.4c0.4-0.2,0.6-0.5,0.9-0.6c0,0.1,0.1,0.1,0,0.2
		c0.3-0.4,1.2-0.2,1.6-0.7c0,0,0.1,0.1,0.1,0.1c-0.1-0.2-0.1-0.4-0.2-0.5c0.2,0,0.4-0.3,0.5-0.1c-0.1,0-0.1,0.1-0.2,0.2l0.2-0.1
		c0.3,0.3-0.3,0.2-0.3,0.4c0.4-0.2,0.9-0.6,1.3-0.5c0.1,0.3-0.8,0.3-0.3,0.5l-0.6,0c0.5,0.5-0.3,0,0.1,0.5c0.7,0,0.8-0.3,1.5-0.3
		c0.1-0.2-0.1-0.3,0-0.5c1-0.5,0.9,0.7,1.6,0.2c0.2-0.2,0.2-0.7,0.8-0.5l-0.1,0.4c0.7,0,0.3-0.6,1.1-0.4c-0.1,0.2-0.5,0.2-0.4,0.2
		c0.5,0.2,0.3-0.3,0.7-0.3l0.1,0.3c0.7-0.2,1.5-0.4,2.4-0.6c0,0.1-0.2,0.2,0,0.3c1-0.2,2.2-0.1,3.2,0l0.4-0.3c0.1,0,0.2,0.1,0.1,0.2
		c0.4,0.1,0-0.2,0.2-0.3c0.2,0,0.3,0.2,0.2,0.3c0.7-0.3,2-0.5,2.7-0.2l-0.1,0.1c0.6,0.1,0.7-0.6,1.2-0.3l-0.1,0
		c1.2,0.2,2.6,0,3.5,0.5c0.2-0.4,1.2,0.3,1.3-0.3c0.7,0.4,0.5,0.5,1.4,0.8c0.3,0.1,0.4-0.3,0.8-0.3l0,0.3l0.5-0.3l0.2,0.4l0.3,0
		c-0.1,0-0.2-0.2-0.2-0.3c0.5-0.1,1.1,0.4,1.1,0.6l1.2,0C45.6,30,45.4,30,45.2,30c0.7-0.2,0,0.3,0.6,0.2C45.8,30.1,46,30.1,46,30
		c0.2,0.2,0.8,0.4,1.3,0.4l-0.1,0.2c0.8,0.2,1.7,0.4,2.6,0.7c-0.3-0.2-0.1-0.5,0.2-0.5l0,0.3c0.2-0.1-0.2-0.2,0.2-0.3
		c0.3,0.1,0.1,0.4-0.1,0.5l0.4,0c0,0.1-0.1,0.1-0.2,0.2c0.2-0.1,0.6,0.5,0.9,0.3l0,0.1c0.9,0.3,1.3,0.4,2,0.7
		c0.1-0.3,0.4-0.1,0.7-0.2c0.5,0.3,0.9,0.8,1.6,1c0.5,0.1,0.2-0.1,0.5-0.2c-0.1,0.2,0.5,0.6,0.1,0.5c0.7,0.4,0.9,0.5,1.9,0.8
		c0-0.1-0.1-0.2,0-0.3c0.2,0.1,0.3,0.3,0.2,0.4l-0.1,0c1.3,0.2,1.8,2.1,2.8,2.2l-0.1,0l0.9,0.3c0.3,0.3-0.3,0-0.2,0.3
		c1.1,0.2,1.2,1.1,2,1.4c0,1,1.8,1.5,2.1,2.5l0.1-0.2c0.3,0,0.1,0.3,0.2,0.4c0.1-0.1-0.1-0.3,0.1-0.3c0.7,0.6,1.4,1.4,2,2.2
		c0.3,0.4,0.6,0.8,0.8,1.3c0.3,0.4,0.5,0.9,0.8,1.3c0.4,0.6,1-0.2,1.2,0.7l-0.4,0c1.3,0.9,1.7,2.4,2.8,3.4c-0.1,0-0.2,0-0.3-0.1
		c0,0.4,0.6,1,0.8,0.9c0.1,0.2-0.1,0.1-0.1,0.3c0,0.3,0.7,0.5,0.5,0.8c0,0-0.1,0-0.2-0.1c0.2,0.1,0.5,0.8,0.6,0.5
		c0.2,0.5,0.7,0.8,0.7,1.3c0.4,0.1,0.3,0.9,0.7,0.8c-0.4,0.2,0.1,1,0.5,1.2c-0.2,0,0,0.3-0.2,0.3c0.2,0.3,0.4,0.6,0.6,0.4
		c-0.1,0.9,1.1,1.1,0.6,1.8c0.7,0.9,1.4,1.8,1.9,2.7c-0.4,0.2-0.5-1-1-0.8c0.6,0.8,1.2,1.2,1.5,2.1c0.1,0.3-0.2,0-0.3-0.1
		c0.6,0.8,0.8,1.8,1.4,2.5c0,0-0.1-0.1-0.2-0.1c0.1,0.2,0.1,0.4,0.3,0.3l-0.1-0.1c0.2-0.4,0.9,0.4,1,0.3c-0.7,0,0.2,0.9-0.6,0.7
		c0.1,0.1,0.2,0.2,0.3,0.1c0,0.2,0,0.3-0.2,0.2c0.4,0.5,0.5,0.2,0.7,0.8c-0.1,0-0.2-0.1-0.3-0.1c0.3,0.2,0.6,0.4,0.7,0.8
		c-0.1,0-0.1,0.1-0.2-0.1c0.4,0.7,1,1.1,1.2,2c-0.5-0.1,0,0.3-0.3,0.5l0.3,0.4l0.1-0.3c0.2,0.4,0.6,0.6,0.6,1l-0.3-0.2l0.4,0.7
		l0-0.5c0.3,0.3,0.4-0.2,0.5,0.3c-0.1-0.1,0.2,0.4,0,0.7l0,0c0.2,0.2,0.4,0.3,0.4,0.6c-0.1,0.1-0.4,0.1-0.5,0.2
		c0.4,0.1,0.5,0.9,0.9,1c-0.1-0.1-0.3,0-0.3,0.1l0.3,0.1c0,0.2,0,0.3-0.2,0.3c0.2,0.6,0.4-0.4,0.4,0.4c0,0-0.1,0-0.1-0.1
		c0.2,0.7,0.7,1.2,0.8,1.9c-0.3,0.3-0.3-0.5-0.5-0.2c0.4,0.9,1.1,1.7,1.4,2.5l0-0.2c0.5-0.1,0,0.7,0.4,1.1c-0.1-0.1-0.3,0-0.3,0
		c0.1,0.6,0.6,1.2,1.1,2l-0.2-0.1c0,0.4,0.3,0.9,0.4,1.3c0.2,0.1,0.2,0.3,0.4,0.1c-0.3,1.4,1.2,2.1,0.9,3.3c0-0.1-0.2-0.3-0.2-0.2
		l0.4,0.8c0.2-0.1,0.1-0.2,0.2-0.4c0.2,0.1,0.4,0.3,0.4,0.5c-0.3-0.3-0.3,0.1-0.4,0.3c0.1-0.1,0.2,0,0.2-0.1
		c-0.2,0.6,0.5-0.1,0.4,0.6l-0.1,0c0.1,0.2,0.4,0.4,0.4,0.6c-0.2,0.2-0.2-0.2-0.4-0.2c0.1,0.3,0.7,0.5,0.6,0.9
		c-0.1-0.1-0.2-0.3-0.3-0.5c-0.2,0.5-0.1,0.5,0,0.7l0,0l0.1,0.6l0-0.2c0.8,0.2,0.4,0.9,1.1,1.3c-0.6-0.4-0.3,0-0.6,0
		c0,0.2,0,0.4-0.1,0.4c0.3,0.2,0,0.5,0.4,0.8c-0.1,0,0.1,0.3-0.2,0.3c0.2,0.3,0.1-0.1,0.3-0.1c0.5,0.5,0.1,1.5,0.7,2.1
		c0.4,0.7,0.8,0.7,1.1,1.3c-0.1,0.3-0.4-0.1-0.4-0.1c0,0.4,0.1,0.7,0.3,1c-0.1,0-0.1,0-0.2,0.2c0.1,0.3,0.4,0.1,0.4,0.5
		c-0.1,0-0.3-0.1-0.5-0.2c0.2,0.3,0.4,0.6,0.6,0.9c-0.1,0.1-0.3-0.1-0.4-0.2c0.2,0.4,0.4,0.9,0.7,1l0-0.3c0.1,0.1-0.2,0.1-0.3,0
		c-0.3-0.3,0-0.5,0-0.5l0.1,0.2c0.5-0.4-0.4-0.9-0.5-1.4l0.5,0.1l-0.5-0.4c0.1-0.1,0.3-0.3,0.4-0.1c0.1-0.4-0.2-0.3-0.1-0.6
		c0,0,0,0,0.1,0l-0.2-0.3c0.1,0,0.3-0.1,0.3,0.1c0-0.7-0.6-0.9-0.4-1.2l0,0c-0.4-0.8-0.3,0-0.9-0.5l0.6-0.6l-0.3,0
		c0-0.1-0.1-0.3,0.1-0.3c-0.3-0.3-0.1,0.1-0.4,0c0.1-0.5-0.5-1.1-0.1-1.3c-0.3-0.1,0,0.4-0.3,0.1c0.5-0.3-0.3-0.5-0.1-0.9
		c0.3,0,0.3,0.4,0.4,0c-0.5-0.1-0.1-0.8-0.3-1.1c-0.3,0.1-0.4-0.6-0.7-1.1c0.1,0-0.2-1.1-0.2-1.6l0.1,0c-0.4,0-0.5-0.5-0.7-0.8
		c0.2-0.1,0.3,0,0.5,0.1l-0.1-0.3c-0.1,0-0.2-0.1-0.4-0.3l0.3,0c-0.2-0.5-0.6-0.8-0.7-1.5c-0.3,0.1-0.5,0.7-0.9,0.1
		c0.1-0.1,0.3-0.2,0.4,0c0,0-0.2-0.2-0.2-0.3l0.3,0.2c0-0.3-0.2-0.1-0.3-0.3c0.2-0.1,0.1-0.2,0.2-0.2c0,0,0,0.2,0.1,0.3
		c-0.1-0.3-0.1-0.6,0.1-0.7c-0.1,0.1-0.3,0.1-0.3-0.1c-0.2-0.5,0.2-0.2,0.2-0.5c-0.2-0.1-0.1-0.4-0.4-0.3c0-0.1,0.1-0.2,0.1-0.3
		c-0.2-0.2-0.4-1.1-0.6-0.7l0,0.1c0,0,0,0,0,0l0,0l0,0c-0.6-0.7-0.4-1.7-0.8-2.4l0.1,0c-0.3-0.4-0.5-1-0.8-1.2
		c-0.1-0.1,0-0.4,0.2-0.4c-0.2-0.3-0.3-0.3-0.4-0.9c0.3,0.3,0.1-0.2,0.3,0.3c-0.1-0.5,0-0.6-0.4-1c0.3,0.1,0.2-0.5,0-0.6l0,0.4
		c-0.1-0.2-0.2-0.5-0.3-0.7l0.4,0c0-1.1-1.3-1.4-1-2.4c-0.3-0.2,0.1,0.6-0.3,0.4c-0.1-0.4,0.1-1.1,0.1-1.2c-0.1-0.7-0.7-0.4-0.8-1
		c-0.1,0.1-0.3,0.3-0.6-0.1c-0.1-0.4,0.2-0.7,0.4-0.5c0.1,0.1,0,0.2,0,0.2c0.1,0.1,0.2,0.3,0.3,0.1l-0.1,0c0-0.3-0.2-0.8,0-0.8
		c-0.2-0.3-0.2-0.1-0.2,0.2c-0.1-0.6-0.4-0.8-0.5-1.5c0,0.1-0.1,0.3-0.2,0.2c-0.2-0.9-0.4-0.3-0.6-0.8c0-0.4,0.4-0.1,0.1-0.6
		c0-0.4,0.3-0.2,0.4-0.1c-0.4-0.4-0.3-1-0.4-1.3l0.2,0.2c-0.1-0.1-0.2-0.3-0.2-0.4l-0.1,0.2c0-0.2-0.1-0.3,0-0.3
		c-0.2-0.1-0.3,0.3-0.6,0c0-0.3-0.4-0.6-0.1-0.8c0.2,0.7,0.3-0.2,0.6,0.3c-0.1-0.1-0.1-0.2-0.2-0.4c0,0,0.1,0,0.1,0
		c0-0.7-0.5-0.1-0.7-0.8c0.2,0,0.2-0.3,0.2-0.4c0.1,0.3-0.2,0.2-0.4,0.1c-0.1-0.5-0.3-0.4-0.4-0.6l0.1,0.3c-0.2,0-0.3-0.2-0.5-0.5
		c0.1-0.1,0.2,0.2,0.2,0.1c-0.4-0.2,0-0.9-0.4-1.2c0-0.3,0.3-0.2,0.3-0.4c-0.4-0.4,0-0.6-0.5-1.1c-0.1,0.3-0.1,0.3-0.5,0l0.6,0.8
		l-0.6-0.4c0.1,0.3,0.4,0.5,0.4,0.7c-0.3-0.2-0.2-0.2-0.4,0c0.2-0.5-0.5-0.6-0.5-1.1l0.5-0.2c-0.1-0.7-0.8-1-1.1-1.8l0,0.3
		c-0.3,0-0.3-0.5-0.5-0.7c0.2-0.1,0.2-0.3,0.2-0.4c-0.1,0.1-0.3-0.6-0.7-0.5l0.1-0.5c-0.2-0.7-0.9-0.5-1.1-1.1
		c0.3,0.1,0.3-0.3,0.6,0.1c-0.1-0.2-0.2-0.4-0.3-0.3c0-0.2-0.5-0.4-0.5-0.7c-0.1,0-0.3,0-0.4-0.2c0,0,0.1,0,0.1,0
		c-0.1,0-0.3-0.3-0.4,0c0.2-0.9-1-1.7-0.8-2.5c-0.3-0.4-0.7-0.9-0.9-1.3c0.1,0,0.1,0,0.1,0c-0.2-0.6-0.7,0-0.9-0.8
		c0.1-0.5,0.3,0.2,0.3,0c0.5-0.4-0.5-0.7-0.5-1.3L75,49c0-0.4-0.7-0.6-1-1.1c0,0,0.1,0,0.1-0.1c-0.5-0.2-1-0.8-1.5-1.2
		c0.3,0,0.3,0.1,0.4-0.1c-0.2-0.2-0.3,0.3-0.7-0.1c0-0.2-0.1-0.6,0.1-0.8l0.3,0.4c0.1-0.4-0.4-0.5-0.5-0.7l0.1-0.1
		c-0.5-0.6-0.8-0.3-1.3-1l0,0.1c-0.6-0.1-0.1-0.4-0.6-0.6l0.2-0.4c-0.3-0.2-0.9-0.6-1.3-0.9c0.4,0,1,0.4,1.3,0.6
		c-0.2-0.2-0.7-0.7-0.9-0.7c0.1,0.1,0.3,0.1,0.3,0.2c-0.5-0.1-0.9-0.3-1.3-0.7c0.6-0.4-0.9-1.2-0.7-1.9c-0.9-0.6-1.4-1.5-2.3-2.3
		c-0.1,0.7-0.3-0.2-0.6,0.3c-0.2-0.2-0.3-0.2-0.3-0.3l-0.4-0.8c0-0.3,0.3,0.1,0.4,0c-0.4-0.4,0-0.4-0.2-0.8
		c-0.1,0.2-0.4,0.1-0.6-0.2l0.2,0.5c-0.8-0.3-0.3-0.9-1.2-1.1l0.3,0c-0.4-0.2-1.3-1-2-0.8c0-0.1,0-0.3,0.2-0.2
		c-0.4-0.3-1-0.6-1.5-0.8c-0.5-0.2-1-0.4-1.3-0.7l0.1-0.1c-0.2-0.1-0.4,0.1-0.6-0.2c0,0,0.1-0.1,0.1-0.1c-0.1,0-0.6,0-0.8-0.2l0.3,0
		c-0.8-0.7-1.6-0.4-2.4-0.7c0.2-0.4-0.5-0.9-0.8-1.1l0-0.1c-1.1-0.5-2-0.5-3.1-0.7c-0.5-0.7-2.2-1-3.2-1.5c0.1,0.1-0.1,0.3-0.3,0.3
		c-0.2-0.1-0.8,0.1-0.6-0.2l0.1,0c-0.1-0.4-0.6-0.4-1.1-0.6L46.2,28c-0.4-0.5-1.2-0.6-1.8-0.7c-0.7,0-1.3,0-1.5-0.4
		c-0.3,0.1-0.6,0-0.9,0.1l0.1-0.3c-0.7-0.2-1.1-0.3-2-0.3l0.2-0.2c-0.5-0.1-0.7,0.8-1.2,0.7l-0.1-0.4c-0.9-0.1-1.8-0.5-2.7-0.1
		c0-0.1,0-0.2,0.2-0.2C36,26.3,34.8,26,35,26.6c0-0.4-0.9,0-1.4,0.1l0.1-0.3c-0.4,0.4-0.4,0.5-1,0.6c-0.1,0-0.1-0.2,0.1-0.2
		c-0.4-0.1-0.3,0.3-0.9,0.1l0.2-0.2c-0.5,0-0.4,0.1-0.7,0.3c-0.3,0.1-0.9-0.1-0.9-0.3c-0.1,0.2-0.3,0.4-0.6,0.3
		c0-0.1,0.1-0.2,0.1-0.2c-0.8-0.1-1.1,0.4-1.6,0.2c0-0.1-0.1-0.1-0.1-0.2c0.6,0,1.1-0.1,1,0c0-0.3-0.5-0.3-0.1-0.6
		c-0.4,0.2-1,0.7-1.5,0.6c0,0-0.1,0-0.1-0.1l0,0c-0.1,0-0.2,0-0.3,0.1c-0.2,0-0.3-0.1-0.4-0.1c-0.1-0.2-0.6-0.1-0.8-0.1
		c0,0.3-0.3,0.3,0,0.5c0,0,0,0,0.2-0.1c0,0,0.1,0,0.1,0l0,0c0.2,0,0.4,0,0.6-0.1c-0.2,0.2-0.4,0.3-0.7,0.2c-0.1,0.2-0.2,0.4-0.3,0.5
		c-0.4-0.4-1-0.5-1.1-0.7c-0.7,0.2-1.7,0.3-2.1,0.9c-0.2,0.1-0.3-0.1-0.3-0.2c0.1-0.1,0.3-0.1,0.3-0.2c-0.4,0.2-1.2,0.2-1.3,0.6
		c-0.6-0.1,0.2-0.4-0.5-0.2l0.1-0.1c-1.5-0.4-2.2,1.3-3.8,0.8c0.1,0,0.2,0,0.2,0.1c-1.9-0.1-3.6,1-5.5,0.8c-0.5,0-0.5,0.2-0.8,0.5
		l-0.2-0.3l-0.4,0.4c-0.7,0.4-1.4-0.4-2.2,0.3l0.2,0.2c-0.3,0-1,0.4-1,0.1c0,0-0.1,0.2-0.2,0.2l0-0.2l-0.8,0.5c-0.7,0-0.1-0.6-1-0.4
		c-0.3,0.1-0.9,0.7-0.7,0.8c0.1,0,0.4,0,0.4,0.2L5,31.7c0.1,0.5-0.1,1,0.8,1.1l0.5-0.4l0.2,0.2L6,32.8c0.3,0.1,0.4-0.1,0.6-0.2
		c0.1,0.1,0.2,0.2,0.3,0.2l0.4-0.6c0.1,0.2-0.1,0.4,0.2,0.4c0.2-0.3-0.3-0.3,0-0.6c0.3,0.1,0.3,0.3,0.5,0.1c0.1,0.1,0,0.2-0.1,0.3
		c0.2-0.2,0.7-0.2,0.8-0.5c0.3,0.2,0.9-0.3,1,0.2c0.1-0.1,0.4-0.5,0.6-0.5c-0.3,0.6,0.9-0.2,0.9,0.4c0.2-0.5,1.2-0.5,1.7-0.8
		c0,0-0.1,0.1-0.1,0.1c0.3,0,0.5,0.1,0.7,0.1c0-0.4,0.5-0.6,0.7-0.9c0.5,0.3-0.2,0.5,0,0.8c-0.1-0.3,0.6-0.5,0.5-0.7
		c0.4,0.2,0.3,0.1,0.5,0.3c0-0.5,0.3-0.1,0.5-0.5c0.5,0.1,0.2,0.4,0.7,0.2C16.6,30.7,16.2,30.9,16.2,30.9 M27.9,28.5L27.9,28.5
		c-0.1,0-0.2,0-0.2,0C27.7,28.6,27.8,28.5,27.9,28.5 M28.9,28.5c-0.1,0-0.3,0-0.4,0c0-0.1,0-0.2,0.1-0.2
		C28.5,28.3,28.8,28.4,28.9,28.5 M26.6,26.7c0.2-0.1,0.2,0,0.2,0.1c-0.1,0-0.2,0-0.3,0.1l0,0C26.6,26.7,26.6,26.7,26.6,26.7"/>
	<path class="st0" d="M26.4,27C26.3,27.1,26.3,27.1,26.4,27C26.3,27.1,26.4,27.1,26.4,27L26.4,27L26.4,27z"/>
	<path class="st0" d="M89.8,82.3L89.8,82.3C89.8,82.3,89.8,82.3,89.8,82.3C89.8,82.3,89.8,82.3,89.8,82.3"/>
	<polygon class="st0" points="42.6,29.5 42.6,29.5 42.5,29.5 	"/>
	<path class="st0" d="M90.8,87.9C90.8,87.9,90.8,87.9,90.8,87.9C90.8,88,90.8,87.9,90.8,87.9"/>
	<path class="st0" d="M91.5,90.2l0,0.4C91.6,90.4,91.6,90.3,91.5,90.2"/>
	<path class="st0" d="M92,92c0.1,0,0.1,0,0.1,0l0,0L92,92z"/>
	<path class="st0" d="M81,64.8C81,64.7,81,64.7,81,64.8C80.8,64.6,80.9,64.7,81,64.8"/>
	<path class="st0" d="M85.1,72.5c-0.1-0.1-0.2-0.1-0.2-0.2C84.9,72.5,84.9,72.6,85.1,72.5"/>
	<polygon class="st0" points="76.4,56.2 76.4,56.2 76.4,56.1 	"/>
	<path class="st0" d="M84.7,71.9c0,0.2,0.1,0.3,0.2,0.4C84.8,72.2,84.8,72,84.7,71.9"/>
	<path class="st0" d="M94.3,99.7L94.3,99.7C94.3,99.7,94.3,99.7,94.3,99.7L94.3,99.7z"/>
	<path class="st0" d="M94.3,99.8L94.3,99.8C94.4,99.8,94.3,99.8,94.3,99.8"/>
	<path class="st0" d="M94.5,100l-0.1-0.2C94.4,99.9,94.4,100,94.5,100"/>
	<path class="st0" d="M93.7,97.3l-0.1,0C93.6,97.3,93.7,97.3,93.7,97.3"/>
	<path class="st0" d="M93.5,96.6c0,0.2-0.1,0.5,0.1,0.7l0.1,0C93.4,97.2,93.7,96.7,93.5,96.6"/>
	<path class="st0" d="M93.7,93.2l0.1,0.6c0.1-0.1,0.2-0.3,0.3-0.1C94.2,93,93.9,94,93.7,93.2"/>
	<path class="st0" d="M93.3,91.3c0.2,0.3,0.1-0.1,0.2-0.1C93.3,91.1,93.3,91.1,93.3,91.3"/>
	<path class="st0" d="M88.5,78.1l0.3-0.1C88.6,77.9,88.6,78.1,88.5,78.1"/>
	<polygon class="st0" points="86.3,76.1 86.2,76.4 86.5,76.5 	"/>
	<polygon class="st0" points="87.4,74 87.5,74.1 87.2,73.7 	"/>
	<path class="st0" d="M77.3,52.6L77,52.8C77.2,53,77.5,52.8,77.3,52.6"/>
	<path class="st0" d="M71.2,44.3c0.1-0.2,0-0.5-0.3-0.5C71.1,44,71.1,44.2,71.2,44.3"/>
	<polygon class="st0" points="45.7,27.5 46,27.5 45.6,27.5 	"/>
	<path class="st0" d="M75.7,92.6c-0.1,0.1-0.1,0.2-0.1,0.2l0.2-0.3L75.7,92.6z"/>
	<path class="st0" d="M75.8,93.3c0.2-0.1,0.4-0.3,0.5-0.6c-0.2,0.2-0.2,0.1-0.5,0.4c-0.1,0-0.1-0.2,0-0.3c-0.1,0.1-0.1-0.1-0.2,0
		c0,0.3,0.1,0.3,0.3,0.2C75.9,93.2,75.9,93.3,75.8,93.3"/>
	<path class="st0" d="M81.3,97.7L81.3,97.7C81.3,97.7,81.3,97.7,81.3,97.7"/>
	<path class="st0" d="M84.7,100.6C84.6,100.5,84.6,100.6,84.7,100.6C84.6,100.6,84.6,100.6,84.7,100.6"/>
	<path class="st0" d="M85,101.3C85,101.3,85,101.3,85,101.3C85,101.3,85,101.3,85,101.3"/>
	<path class="st0" d="M81.3,97.7l0,0.2C81.4,97.8,81.4,97.8,81.3,97.7"/>
	<path class="st0" d="M77.1,93.2c0,0-0.1,0-0.1,0C77,93.2,77,93.2,77.1,93.2L77.1,93.2z"/>
	<path class="st0" d="M79.6,96.8L79.6,96.8c-0.1,0-0.1,0-0.1,0.1L79.6,96.8z"/>
	<path class="st0" d="M78.4,96c0,0,0.2-0.2,0.3-0.3c-0.1,0.1-0.1,0.1-0.2,0.1C78.5,95.9,78.4,95.9,78.4,96"/>
	<path class="st0" d="M76.8,94.3L76.8,94.3C76.7,94.3,76.7,94.3,76.8,94.3"/>
	<path class="st0" d="M80.4,97.5C80.4,97.5,80.4,97.6,80.4,97.5C80.4,97.5,80.4,97.5,80.4,97.5"/>
	<path class="st0" d="M108,91C108,91,108,91,108,91C108,91,108,91,108,91"/>
	<polygon class="st0" points="110.2,90.7 110.2,90.8 110.3,90.9 	"/>
	<path class="st0" d="M85.8,102.4L85.8,102.4C85.8,102.4,85.8,102.4,85.8,102.4"/>
	<path class="st0" d="M96.6,110.3c-0.2-0.3,0.3-0.3,0-0.6C96.6,109.8,96.3,110.1,96.6,110.3"/>
	<path class="st0" d="M77.1,93.2C77.1,93.2,77.1,93.2,77.1,93.2C77.1,93.2,77.1,93.2,77.1,93.2"/>
	<path class="st0" d="M96.6,109.7L96.6,109.7L96.6,109.7C96.5,109.7,96.6,109.7,96.6,109.7"/>
	<path class="st0" d="M88.4,104.3c0,0,0-0.1,0.1-0.1C88.4,104.2,88.4,104.2,88.4,104.3"/>
	<path class="st0" d="M86.8,102.5L86.8,102.5C86.8,102.5,86.8,102.5,86.8,102.5"/>
	<path class="st0" d="M89.5,104.8C89.6,104.8,89.5,104.9,89.5,104.8C89.6,104.8,89.6,104.8,89.5,104.8
		C89.6,104.8,89.5,104.8,89.5,104.8"/>
	<path class="st0" d="M90.5,105.6C90.5,105.6,90.5,105.5,90.5,105.6L90.5,105.6L90.5,105.6z"/>
	<path class="st0" d="M105.6,94.1c0.1,0,0.2,0.1,0.2,0.1C105.6,94.1,105.7,93.9,105.6,94.1"/>
	<path class="st0" d="M77,93.3C77,93.2,77.1,93.2,77,93.3L77,93.3C77,93.2,77,93.3,77,93.3"/>
	<path class="st0" d="M91,103.1l0.1,0.2C91.1,103.2,91.1,103.2,91,103.1"/>
	<path class="st0" d="M100.5,101.8L100.5,101.8C100.4,101.7,100.4,101.7,100.5,101.8"/>
	<path class="st0" d="M91.6,103.6c0,0.1,0,0.2,0,0.2c0,0,0,0,0.1,0L91.6,103.6z"/>
	<path class="st0" d="M105.8,94.2L105.8,94.2L105.8,94.2z"/>
	<path class="st0" d="M106.1,92.8c-0.1,0.2,0.2,0.3,0.4,0.5c-0.1,0.2-0.3-0.1-0.5-0.1c0,0.2,0.2,0.5,0.1,0.6c-0.1,0-0.1,0-0.1-0.1
		c0.1,0.3-0.3,0.4-0.1,0.7c0,0-0.1,0-0.1,0c0.2,0.1,0.3,0.2,0.4,0.3c0,0.1,0.1,0.3-0.1,0.1c0,0,0-0.1-0.1-0.2l0,0.1
		c-0.3-0.1,0-0.2-0.2-0.3c0,0.2,0.1,0.5-0.1,0.6c-0.3-0.2,0.1-0.3-0.3-0.4l0.2-0.1c-0.5-0.2,0.1-0.1-0.4-0.3c-0.2,0.2,0,0.4-0.3,0.5
		c0.1,0.2,0.2,0.1,0.4,0.3c0,0.5-0.9-0.2-0.7,0.3c0.1,0.2,0.5,0.5,0.2,0.5l-0.3-0.3c-0.2,0.2,0.4,0.4,0,0.5c-0.1-0.1,0-0.2,0-0.2
		c-0.4,0,0.1,0.2,0,0.3l-0.3-0.2c-0.1,0.3-0.1,0.7-0.2,1c-0.1-0.1-0.1-0.2-0.3-0.2c-0.1,0.4-0.5,0.7-0.9,0.9l0.2,0.3
		c0,0-0.1,0-0.2-0.1c-0.2,0.1,0.1,0.1,0.2,0.2c0,0.1-0.2,0-0.2-0.1c0.1,0.4,0,0.9-0.4,1l0-0.1c-0.2,0.1,0.4,0.5,0,0.6l0-0.1
		c-0.4,0.3-0.4,0.9-1,1c0.3,0.3-0.4,0.3,0.1,0.6c-0.4,0.1-0.4-0.1-0.8,0.2c-0.1,0.1,0.2,0.3,0.2,0.5l-0.3-0.2l0.2,0.3l-0.4-0.1
		l0,0.1c0,0,0.2,0,0.2,0c0,0.2-0.4,0.3-0.6,0.2l0,0.5c-0.1-0.1-0.1-0.2-0.1-0.2c0.1,0.4-0.3-0.1-0.2,0.2c0.1,0,0.1,0.1,0.2,0.1
		c-0.2,0-0.3,0.2-0.4,0.4l-0.2-0.1c-0.2,0.2-0.3,0.6-0.5,0.9c0.2-0.1,0.4,0.2,0.4,0.3l-0.3-0.1c0.1,0.2,0.2,0,0.3,0.2
		c-0.1,0.1-0.4-0.1-0.4-0.2l0,0.2c-0.1,0-0.1-0.1-0.2-0.2c0.1,0.2-0.4,0.1-0.2,0.3l-0.1,0c-0.2,0.3-0.2,0.5-0.3,0.7
		c0.2,0.2,0.1,0.2,0.3,0.4c-0.2,0.1-0.5,0.2-0.6,0.4c0,0.2,0.2,0.2,0.3,0.3c-0.2-0.1-0.3,0.1-0.4-0.1c-0.1,0.3-0.2,0.4-0.2,0.8
		c0.1,0,0.2,0,0.2,0.1c0,0.1-0.2,0.1-0.3,0l0,0c0,0.3-0.3,0.4-0.5,0.5c-0.1,0-0.3,0.1-0.3,0.1c0,0,0,0,0.1,0.2l0,0
		c0,0.1,0.1,0.2,0.1,0.3c-0.1,0-0.1-0.2-0.2-0.3c0.1,0.2,0,0.3,0,0.3c0,0-0.1-0.1-0.1,0.1c-0.1-0.5-0.1-0.5-0.1-0.4
		c0,0-0.1,0.1,0-0.1l-0.1,0.1c-0.1,0.1,0-0.1,0-0.2c-0.1,0.1,0,0.2-0.1,0.2c-0.7-0.2-1-1.1-1.5-1.7c-0.2-0.2-0.7,0.6-0.7,0.1
		l0.3-0.2c-0.7,0-0.9-0.7-1.5-0.8c0.1,0,0.1-0.1,0.2-0.1c0.1-0.3-0.3-0.3-0.4-0.1c-0.1-0.1,0.1-0.1,0.1-0.3c0-0.2-0.4,0.1-0.3-0.2
		c0,0,0.1,0,0.1,0c-0.1,0-0.3-0.2-0.4,0c-0.1-0.2-0.4-0.2-0.4-0.4c-0.3,0.2-0.2-0.3-0.5,0c0.3-0.3,0-0.5-0.3-0.4
		c0.1-0.1,0-0.2,0.2-0.3c-0.1-0.1-0.3-0.1-0.4,0.1c0.1-0.6-0.7,0-0.4-0.6c-0.5-0.1-0.9-0.2-1.3-0.4c0.3-0.3,0.4,0.2,0.7-0.1
		c-0.4-0.1-0.8,0.1-1-0.3c0-0.1,0.2-0.1,0.2-0.2c-0.4-0.1-0.5-0.5-0.9-0.5c0,0,0.1,0,0.1,0c-0.1,0-0.1-0.1-0.2,0l0.1,0
		c-0.1,0.3-0.6,0.3-0.7,0.4c0.5-0.4-0.2-0.3,0.4-0.8c-0.1,0-0.2,0-0.2,0.2c0-0.1,0-0.1,0.2-0.2c-0.3-0.1-0.3,0.2-0.5,0
		c0.1-0.1,0.1-0.1,0.2-0.2c-0.2,0.1-0.4,0.2-0.5,0c0,0,0.1-0.1,0.1-0.1c-0.3-0.2-0.7,0.1-0.9-0.3c0.3-0.3,0-0.2,0.2-0.5l-0.2,0
		l-0.1,0.2c-0.1-0.1-0.4,0-0.4-0.2l0.2,0l-0.3-0.1l0,0.2c-0.2,0-0.3,0.4-0.4,0.2c0.1,0-0.1-0.1,0-0.3l0,0c-0.1,0-0.3,0.1-0.3-0.1
		c0.1-0.1,0.3-0.3,0.3-0.4c-0.3,0.2-0.3-0.2-0.6,0c0.1,0,0.2-0.2,0.2-0.2L84.4,99c0-0.1,0-0.1,0.1-0.3c-0.1-0.2-0.2,0.4-0.3,0.1
		c0,0,0,0,0.1,0c-0.1-0.2-0.5-0.2-0.6-0.4c0.2-0.3,0.2,0.1,0.4-0.2c-0.3-0.2-0.9-0.1-1.1-0.4l0,0.1c-0.4,0.4,0-0.4-0.3-0.3
		c0.1,0,0.2-0.2,0.2-0.2c-0.1-0.2-0.5-0.2-0.8-0.3l0.1-0.1c0-0.2-0.2-0.3-0.3-0.4c-0.1,0.1-0.2,0-0.3,0.2c0.1-0.9-0.9-0.2-0.9-0.9
		c0,0,0.2,0,0.1-0.1l-0.4-0.1c-0.1,0.2,0,0.1-0.1,0.3c-0.1,0.1-0.3,0.1-0.3,0.1c0.2,0,0.2-0.3,0.2-0.4c0,0.1-0.1,0.1-0.1,0.2
		c0.1-0.4-0.3,0.4-0.3,0l0.1-0.1c-0.1,0-0.3,0.1-0.3,0c0.1-0.2,0.2,0,0.3-0.2c-0.1-0.1-0.5,0.3-0.5,0c0.1,0,0.2,0,0.3,0
		c0.1-0.3,0-0.3,0-0.4l0,0l-0.1-0.3l0,0.1c-0.5,0.5-0.4-0.1-0.8,0.1c0.4-0.2,0.2-0.2,0.4-0.4c0-0.1,0-0.2,0-0.3
		c-0.2,0.1,0-0.3-0.4-0.1c0-0.1-0.1-0.1,0.1-0.3c-0.2,0-0.1,0.2-0.1,0.3c-0.4,0.2-0.2-0.6-0.7-0.4c-0.3,0-0.6,0.3-0.9,0.3
		c0-0.2,0.3-0.3,0.3-0.3c0-0.2-0.1-0.2-0.3-0.2c0.1-0.1,0.1-0.1,0.1-0.2c-0.1,0-0.2,0.3-0.3,0.1c0.1-0.1,0.2-0.2,0.3-0.3
		c-0.2,0-0.4,0.1-0.5,0.1c0.1-0.2,0.2-0.2,0.3-0.2c-0.2,0-0.4-0.1-0.6,0.1l0,0.1c-0.1,0,0.1-0.2,0.2-0.2c0.2-0.1,0.1,0.2,0.1,0.3
		l-0.1,0c-0.2,0.5,0.4,0.1,0.5,0.2l-0.3,0.3l0.3-0.2c0,0.1-0.1,0.3-0.2,0.3c0,0.2,0.2-0.1,0.2,0.2c0,0,0,0.1,0,0.1l0.2,0
		c-0.1,0.1-0.1,0.3-0.2,0.2c0.1,0.3,0.5-0.1,0.4,0.3l0,0c0.3,0.1,0.2-0.2,0.6-0.4L77.4,95l0.2-0.2c0,0,0.1,0.1,0,0.2
		c0.2-0.1,0.1-0.1,0.2-0.2c0,0.3,0.4,0.1,0.2,0.6c0.2-0.2,0-0.2,0.2-0.3c-0.3,0.5,0.2,0,0.2,0.3c-0.2,0.2-0.2,0-0.2,0.3
		c0.3-0.3,0.2,0.2,0.3,0.2c0.2-0.3,0.3,0,0.5,0c-0.1,0.1,0.2,0.4,0.3,0.6l0,0c0.2-0.3,0.4-0.1,0.5-0.1c-0.1,0.2-0.2,0.2-0.3,0.3
		l0.1,0.1c0.1-0.1,0.2-0.1,0.3-0.1l-0.2,0.2c0.2,0.1,0.5,0,0.6,0.2c0.2-0.2,0.3-0.7,0.6-0.7c-0.1,0.1-0.2,0.3-0.3,0.3
		c0,0,0.1,0,0.1,0l-0.2,0.1c0,0.1,0.2-0.1,0.2-0.1c-0.1,0.2,0,0.2-0.1,0.3c0,0,0-0.1-0.1-0.1c0.1,0.1,0.1,0.2,0,0.4
		c0.1-0.1,0.2-0.2,0.2-0.2c0.2,0.1-0.1,0.2-0.1,0.4c0.1-0.1,0.1,0.1,0.3-0.1c0,0,0,0.1-0.1,0.2c0.2,0,0.4,0.2,0.5-0.1l0,0l0,0
		c0.4-0.1,0.4,0.5,0.7,0.6L82,98.3c0.2,0,0.4,0.2,0.6,0.1c0,0,0,0.2-0.1,0.3c0.2,0,0.2-0.1,0.3,0.2c-0.2,0.1-0.1,0.1-0.2,0
		c0.1,0.2,0,0.3,0.3,0.2c-0.2,0.2-0.1,0.3,0,0.3l0-0.2c0.1,0,0.2,0.1,0.2,0.2l-0.2,0.2c0,0.5,0.9-0.1,0.7,0.6
		c0.2-0.1-0.1-0.3,0.2-0.4c0.1,0.1-0.1,0.6,0,0.7c0.1,0.3,0.5-0.2,0.6,0c0-0.1,0.2-0.4,0.4-0.4c0.1,0.1-0.1,0.5-0.3,0.5
		c0,0,0-0.1,0-0.1c-0.1,0-0.2,0-0.2,0.1l0.1-0.1c0,0.1,0.2,0.3,0,0.4c0.2,0,0.2-0.1,0.1-0.2c0.1,0.3,0.3,0.2,0.4,0.4
		c0-0.1,0.1-0.2,0.1-0.2c0.2,0.3,0.3-0.1,0.5,0c0,0.2-0.3,0.3,0,0.3c0,0.2-0.2,0.3-0.3,0.3c0.3,0,0.2,0.4,0.3,0.5l-0.1,0
		c0.1,0,0.1,0,0.2,0.1l0.1-0.2c0,0.1,0.1,0.1,0,0.2c0.1-0.1,0.2-0.3,0.4-0.4c0,0.1,0.3,0.1,0.1,0.3c-0.1-0.2-0.2,0.3-0.4,0.2
		c0.1,0,0.1,0,0.1,0.1c0,0,0,0-0.1,0c0,0.4,0.3-0.2,0.5,0c-0.1,0.1-0.2,0.3-0.1,0.3c-0.1-0.1,0.1-0.3,0.3-0.3c0,0.2,0.2,0,0.3,0.1
		l0-0.1c0.1-0.1,0.2,0,0.3,0c-0.1,0.1-0.1,0-0.1,0.1c0.3-0.2,0,0.4,0.3,0.4c0,0.1-0.2,0.3-0.2,0.4c0.3,0,0,0.3,0.3,0.3
		c0.1-0.2,0.1-0.2,0.3-0.3l-0.4-0.1l0.4-0.1c-0.1-0.1-0.3,0-0.3-0.1c0.2-0.1,0.2,0,0.2-0.2c-0.1,0.4,0.4,0,0.3,0.3l-0.4,0.5
		c0,0.4,0.5,0.1,0.7,0.4l0-0.1c0.2-0.2,0.2,0.1,0.3,0.1c-0.1,0.1-0.1,0.2-0.2,0.4c0.1-0.1,0.2,0.2,0.5-0.1l-0.1,0.3
		c0.1,0.3,0.6-0.2,0.7,0c-0.2,0.1-0.2,0.3-0.4,0.3c0.1,0.1,0.1,0.1,0.2,0c0,0.1,0.4-0.1,0.3,0.1c0.1,0,0.2-0.2,0.3-0.1
		c0,0-0.1,0.1-0.1,0.1c0.1-0.1,0.2,0,0.3-0.2c-0.2,0.6,0.6,0.4,0.4,1c0.2,0.1,0.4,0.2,0.5,0.3c0,0-0.1,0.1-0.1,0
		c0.1,0.3,0.5-0.3,0.5,0c-0.1,0.3-0.2,0-0.2,0.2c-0.4,0.5,0.3,0.1,0.2,0.5l-0.1,0c0,0.3,0.4,0,0.6,0.2c0,0,0,0-0.1,0.1
		c0.3-0.2,0.6-0.1,0.8,0c-0.2,0.2-0.2,0-0.3,0.3c0.1,0,0.2-0.3,0.4-0.3c0,0.1,0,0.3-0.2,0.6l-0.1-0.1c-0.2,0.3,0.2,0.1,0.2,0.2
		l-0.1,0.1c0.3,0.1,0.5-0.2,0.7,0l0.1-0.1c0.4-0.2,0,0.3,0.3,0.1l-0.2,0.3c0.1,0,0.5-0.1,0.7,0c-0.3,0.2-0.5,0.1-0.8,0.2
		c0.1,0.1,0.3,0.2,0.5,0.1c-0.1,0-0.2,0-0.2,0c0.3-0.2,0.5-0.2,0.7,0c-0.5,0.6,0.3,0.5,0.1,1.1c0.5,0,0.9,0.8,1.6,1
		c-0.2-0.7,0.2,0,0.2-0.6c0.1,0,0.2,0,0.2,0.1c0.1,0.2,0.3,0.3,0.5,0.3c0.1,0.1-0.1,0.2-0.1,0.3c0.3-0.1,0.2,0.2,0.5,0.3
		c-0.1-0.2,0-0.3,0.2-0.4c-0.1,0-0.2-0.1-0.3-0.1c0.3-0.5,0.6,0.3,0.8-0.4l0,0.3c0.1-0.1,0.3-0.3,0.4-0.6c0.1-0.2,0.3-0.5,0.1-0.7
		c0.1,0,0.2,0.1,0.2,0.2c0.3-0.3,0.1-1,0.5-1.1l0.1,0.1c0-0.1-0.2-0.3,0-0.3c0,0,0.1,0.1,0.1,0.1c0-0.1-0.1-0.3,0-0.3l0.1,0.2
		c0.4-0.2,0-0.7,0.1-1c0.4,0.2,0.7,0.1,0.8,0l0,0c0.3-0.3,0.1-0.8,0.2-1.3c0.5,0,0.6-0.6,1.1-0.8c-0.1,0-0.3-0.2-0.3-0.3
		c0.1,0-0.1-0.4,0.2-0.2l0,0c0.4,0.1,0.4-0.1,0.5-0.2l-0.4-0.3c0.9,0.1,0.3-1,1-0.8c-0.1-0.2,0-0.3-0.1-0.4l0.2,0.2
		c0.2-0.2,0.3-0.3,0.4-0.6l0.1,0.2c0.1-0.1-0.6-0.6-0.5-0.8l0.4,0.2c0.2-0.3,0.7-0.3,0.5-0.8c0,0,0.1,0.1,0.1,0.2
		c0.1-0.1,0.6-0.3,0-0.6c0.3,0.2,0.2-0.3,0.2-0.5l0.2,0.2c-0.2-0.3-0.3-0.4-0.3-0.6c0.1,0,0.2,0.1,0.1,0.1c0.2-0.1-0.2-0.3,0.1-0.3
		l0.1,0.2c0.1-0.1,0-0.2-0.1-0.4c0-0.1,0.2-0.2,0.5-0.1c-0.1-0.1-0.2-0.3-0.1-0.3c0.1,0,0.1,0.1,0.1,0.1c0.3-0.1,0-0.5,0.3-0.5
		c0.1,0,0.1,0.1,0.2,0.1c-0.1,0.2-0.2,0.3-0.3,0.3c0.2,0.1,0.4,0,0.6,0.3c-0.1-0.2-0.3-0.7-0.1-0.7c0,0,0.1,0,0.1,0l0,0
		c0,0,0-0.1,0-0.1c0.1,0,0.1,0,0.1-0.1c0.2,0.1,0.2-0.1,0.3-0.2c-0.2-0.2-0.1-0.2-0.4-0.3c0,0,0,0,0,0.1c0,0,0,0,0,0l0,0
		c0,0.1-0.1,0.1-0.1,0.2c-0.1-0.1-0.1-0.3,0-0.3c-0.1-0.1-0.2-0.3-0.3-0.4c0.4,0.1,0.7,0.1,0.9,0.2c0-0.3,0.3-0.6,0-1
		c0-0.1,0.2,0,0.3,0c0,0.1,0,0.1,0,0.2c0-0.2,0.2-0.4-0.1-0.6c0.2-0.1,0.2,0.3,0.3,0l0.1,0.1c0.8-0.1-0.2-1.3,0.7-1.3
		c-0.1,0-0.1,0-0.1,0c0.7-0.3,0.6-1.3,1.4-1.4c0.2-0.1,0-0.2,0-0.4l0.3,0.2l-0.1-0.4c0-0.4,0.9,0.2,0.7-0.4l-0.2-0.1
		c0.1-0.1,0.2-0.4,0.3-0.2c0,0-0.1-0.2,0-0.1l0.1,0.1l0-0.4c0.2-0.1,0.4,0.5,0.7,0.3c0-0.1-0.1-0.6-0.2-0.6c0,0-0.2,0-0.3-0.1l0-0.1
		c-0.3-0.4-0.5-0.8-1-0.8l0,0.4l-0.2-0.1l0.1-0.1c-0.2-0.1-0.1,0.1-0.1,0.2c-0.1-0.1-0.2-0.1-0.2-0.1l0.2,0.5
		c-0.1-0.1-0.2-0.3-0.4-0.3c0.1,0.2,0.4,0.2,0.3,0.4c-0.2-0.1-0.3-0.2-0.3,0c-0.1-0.1-0.1-0.1-0.1-0.2c0,0.2-0.2,0.2,0,0.5
		c-0.3-0.1-0.2,0.3-0.5,0c0.1,0.1,0.1,0.4,0.1,0.5c-0.3-0.5-0.3,0.2-0.7-0.2c0.3,0.4-0.2,0.5-0.1,0.8c0,0-0.1-0.1,0-0.1
		c-0.1,0.1-0.2,0-0.4,0c0.3,0.3,0.2,0.5,0.3,0.7c-0.4-0.1-0.3-0.4-0.6-0.6c0.2,0.2,0.1,0.4,0.3,0.5c-0.3-0.1-0.2,0-0.4-0.1
		c0.4,0.3,0,0.1,0.2,0.4c-0.3,0-0.4-0.3-0.4,0C106.1,93,106.1,92.8,106.1,92.8 M104.1,96.9L104.1,96.9
		C104.1,96.9,104.1,96.9,104.1,96.9C104.1,96.9,104.1,96.9,104.1,96.9 M103.9,97.3c0,0,0.1-0.1,0.1-0.1c0.1,0,0.2,0.1,0.1,0.1
		C104.1,97.2,104,97.3,103.9,97.3 M105.9,97.7c0,0.1-0.1,0.1-0.1,0C105.8,97.7,105.8,97.7,105.9,97.7l-0.1-0.1
		C105.9,97.6,105.9,97.7,105.9,97.7"/>
	<path class="st0" d="M105.7,97.4C105.7,97.4,105.7,97.4,105.7,97.4C105.7,97.4,105.6,97.4,105.7,97.4L105.7,97.4L105.7,97.4z"/>
	<path class="st0" d="M81.3,97.7L81.3,97.7C81.3,97.7,81.3,97.7,81.3,97.7C81.3,97.7,81.3,97.7,81.3,97.7"/>
	<polygon class="st0" points="100.6,101.3 100.6,101.4 100.6,101.3 	"/>
	<path class="st0" d="M80.2,95.7C80.2,95.6,80.2,95.6,80.2,95.7C80.2,95.6,80.2,95.6,80.2,95.7"/>
	<path class="st0" d="M79.5,95.1l0-0.2C79.5,95,79.5,95.1,79.5,95.1"/>
	<path class="st0" d="M79,94.6C79,94.6,79,94.6,79,94.6L79,94.6L79,94.6z"/>
	<path class="st0" d="M88,101C88,101,88,101,88,101C88.1,101,88,101,88,101"/>
	<path class="st0" d="M85,99.5c0.1,0,0.1,0,0.2,0C85.1,99.4,85.1,99.4,85,99.5"/>
	<polygon class="st0" points="91,103.1 91,103.1 91,103.1 	"/>
	<path class="st0" d="M85.3,99.5c0-0.1-0.1-0.1-0.1-0.1C85.2,99.5,85.2,99.5,85.3,99.5"/>
	<path class="st0" d="M76.6,92.8L76.6,92.8C76.5,92.8,76.5,92.8,76.6,92.8L76.6,92.8z"/>
	<path class="st0" d="M76.5,92.8L76.5,92.8C76.5,92.8,76.5,92.8,76.5,92.8"/>
	<path class="st0" d="M76.4,92.9l0.1,0C76.4,92.8,76.4,92.8,76.4,92.9"/>
	<path class="st0" d="M77.3,93.4L77.3,93.4C77.3,93.3,77.3,93.4,77.3,93.4"/>
	<path class="st0" d="M77.5,93.5c0-0.1,0-0.3-0.1-0.3l-0.1,0.1C77.5,93.2,77.4,93.7,77.5,93.5"/>
	<path class="st0" d="M77.8,95.2L77.7,95c0,0.1-0.1,0.3-0.2,0.2C77.6,95.7,77.6,95,77.8,95.2"/>
	<path class="st0" d="M78.3,95.8c-0.1,0-0.1,0.1-0.1,0.2C78.3,95.9,78.3,95.9,78.3,95.8"/>
	<path class="st0" d="M82.5,98.8L82.3,99C82.4,99.1,82.4,98.9,82.5,98.8"/>
	<polygon class="st0" points="84.1,98.4 84.1,98.2 83.9,98.4 	"/>
	<polygon class="st0" points="83.4,100.2 83.3,100.2 83.5,100.2 	"/>
	<path class="st0" d="M90.2,105.6l0.2-0.3C90.3,105.4,90,105.6,90.2,105.6"/>
	<path class="st0" d="M93.3,107.8c-0.1,0.1,0,0.3,0.1,0.2C93.4,107.9,93.4,107.8,93.3,107.8"/>
	<polygon class="st0" points="102.2,103.5 102.2,103.7 102.2,103.5 	"/>
</g>
</svg>
