<?xml version="1.0" encoding="UTF-8"?>
<svg width="20px" height="50px" viewBox="0 0 20 50" version="1.1" xmlns="http://www.w3.org/2000/svg" xmlns:xlink="http://www.w3.org/1999/xlink">
    <!-- Generator: Sketch 51.3 (57544) - http://www.bohemiancoding.com/sketch -->
    <title>Arrow8</title>
    <desc>Created with Sketch.</desc>
    <defs></defs>
    <g id="Page-1" stroke="none" stroke-width="1" fill="none" fill-rule="evenodd">
        <g id="Arrow8" fill="#484F57" fill-rule="nonzero">
            <path d="M12.7737624,46.5356436 C12.7737624,46.5856436 12.6737624,46.5856436 12.6237624,46.5356436 L12.7237624,46.4356436 L12.7737624,46.5356436 Z" id="Shape"></path>
            <path d="M12.1782178,46.2405941 C12.1782178,46.1405941 12.2282178,45.9905941 12.4282178,45.9405941 C12.3282178,46.0905941 12.4282178,46.0905941 12.3282178,46.2405941 C12.3782178,46.3405941 12.4782178,46.3405941 12.5282178,46.2905941 C12.5282178,46.3405941 12.6282178,46.3905941 12.5782178,46.4405941 C12.4282178,46.3905941 12.3282178,46.2905941 12.3282178,46.1405941 C12.2282178,46.1405941 12.2282178,46.1905941 12.1782178,46.2405941" id="Shape"></path>
            <path d="M7.72277228,39.3564356 C7.77277228,39.4064356 7.77277228,39.3564356 7.72277228,39.3564356" id="Shape"></path>
            <path d="M5.34690594,34.950495 C5.34690594,35.000495 5.34690594,35.000495 5.34690594,35.000495 C5.29690594,35.000495 5.29690594,34.950495 5.34690594,34.950495" id="Shape"></path>
            <path d="M7.72376238,39.3574257 L7.62376238,39.2574257 C7.67376238,39.2574257 7.72376238,39.3074257 7.72376238,39.3574257" id="Shape"></path>
            <path d="M11.9309131,45.1485149 C11.9309131,45.1985149 11.9309131,45.1985149 11.9309131,45.2485149 C11.9309131,45.1985149 11.8809131,45.1485149 11.9309131,45.1485149 Z" id="Shape"></path>
            <path d="M8.71287129,41.3366337 C8.71287129,41.3866337 8.71287129,41.3866337 8.71287129,41.4366337 L8.71287129,41.3366337 Z" id="Shape"></path>
            <path d="M9.55445545,42.8232673 C9.55445545,42.7732673 9.65445545,42.7232673 9.70445545,42.6732673 C9.65445545,42.7232673 9.65445545,42.7232673 9.65445545,42.7732673 C9.60445545,42.8232673 9.60445545,42.8232673 9.55445545,42.8232673" id="Shape"></path>
            <path d="M8.06980198,40.2970297 C8.06980198,40.2970297 8.01980198,40.2970297 8.01980198,40.2970297 C8.01980198,40.2970297 8.06980198,40.2970297 8.06980198,40.2970297" id="Shape"></path>
            <path d="M18.2178218,1.63366337 C18.2178218,1.63366337 18.2178218,1.63366337 18.2178218,1.63366337 C18.2178218,1.63366337 18.2678218,1.63366337 18.2178218,1.63366337" id="Shape"></path>
            <path d="M19.8029703,0.198514851 C19.7529703,0.198514851 19.7529703,0.148514851 19.7029703,0.148514851 L19.8029703,0.198514851 Z" id="Shape"></path>
            <path d="M3.96039604,32.8712871 C3.96039604,32.9212871 3.96039604,32.9212871 3.96039604,32.8712871" id="Shape"></path>
            <path d="M0.693069307,19.2582611 C0.793069307,19.4082611 0.893069307,19.0082611 0.993069307,19.2582611 C0.943069307,19.2082611 0.743069307,19.4582611 0.693069307,19.2582611" id="Shape"></path>
            <path d="M11.8816832,45.099505 C11.8816832,45.099505 11.8816832,45.049505 11.8316832,45.049505 C11.8316832,45.049505 11.8816832,45.099505 11.8816832,45.099505" id="Shape"></path>
            <path d="M0.99009901,19.2079208 C0.99009901,19.2579208 0.99009901,19.2579208 0.99009901,19.2079208" id="Shape"></path>
            <path d="M2.62376238,29.6039604 C2.67376238,29.6039604 2.67376238,29.6039604 2.67376238,29.6039604 C2.67376238,29.6039604 2.67376238,29.6039604 2.62376238,29.6039604" id="Shape"></path>
            <path d="M3.81237624,31.9806931 L3.76237624,31.9306931 C3.81237624,31.9306931 3.81237624,31.9806931 3.81237624,31.9806931" id="Shape"></path>
            <path d="M2.32722772,28.2683168 C2.32722772,28.2183168 2.27722772,28.2183168 2.27722772,28.1683168 C2.27722772,28.1683168 2.27722772,28.1683168 2.27722772,28.1683168 C2.27722772,28.1683168 2.27722772,28.2183168 2.32722772,28.2683168" id="Shape"></path>
            <path d="M1.83168317,26.8811881 C1.83168317,26.8811881 1.88168317,26.8811881 1.83168317,26.8811881 C1.88168317,26.9311881 1.88168317,26.9311881 1.88168317,26.9311881 L1.83168317,26.8811881 Z" id="Shape"></path>
            <path d="M13.960396,3.96138614 C13.960396,3.91138614 13.960396,3.86138614 13.960396,3.86138614 C14.010396,3.91138614 14.210396,3.81138614 13.960396,3.96138614" id="Shape"></path>
            <path d="M11.8316832,45.1490099 C11.8816832,45.1490099 11.8816832,45.0990099 11.8816832,45.0990099 L11.8316832,45.1490099 C11.8816832,45.1490099 11.8816832,45.1490099 11.8316832,45.1490099" id="Shape"></path>
            <path d="M3.31782178,27.9227723 L3.21782178,27.7227723 C3.26782178,27.7727723 3.31782178,27.8727723 3.31782178,27.9227723" id="Shape"></path>
            <path d="M5.44554455,10.7925743 L5.49554455,10.7425743 C5.49554455,10.7425743 5.49554455,10.7925743 5.44554455,10.7925743" id="Shape"></path>
            <path d="M3.02128713,27.0806931 C2.97128713,27.0306931 2.92128713,27.0306931 2.87128713,26.9806931 C2.87128713,26.9806931 2.87128713,26.9806931 2.92128713,26.9306931 L3.02128713,27.0806931 Z" id="Shape"></path>
            <path d="M15.5940594,3.21782178 C15.5940594,3.21782178 15.3465347,3.26732673 15.3960396,3.16831683 C15.6435644,3.11881188 15.4455446,3.11881188 15.5445545,2.92079208 C15.7425743,2.97029703 15.7425743,2.77227723 15.8910891,2.92079208 C15.8910891,2.77227723 15.8910891,2.82178218 15.9405941,2.67326733 C15.9405941,2.77227723 16.2376238,2.62376238 16.3366337,2.72277228 C16.3366337,2.57425743 16.039604,2.67326733 16.0891089,2.47524752 C16.2871287,2.47524752 16.5346535,2.42574257 16.6336634,2.52475248 C16.6831683,2.42574257 16.6831683,2.37623762 16.8316832,2.27722772 C16.8316832,2.27722772 16.7821782,2.27722772 16.7326733,2.27722772 C17.029703,2.22772277 17.3267327,1.93069307 17.6237624,2.02970297 C17.4257426,1.88118812 18.1188119,1.73267327 17.8217822,1.63366337 C17.9207921,1.58415842 18.1683168,1.58415842 18.2178218,1.58415842 C18.0693069,1.43564356 18.4653465,1.43564356 18.5148515,1.28712871 C18.6633663,1.33663366 18.8118812,1.23762376 18.960396,1.18811881 C18.9108911,1.18811881 18.8613861,1.18811881 18.8118812,1.13861386 C19.009901,1.13861386 18.9108911,1.08910891 18.960396,0.940594059 C19.1584158,0.891089109 19.009901,1.08910891 19.1584158,1.08910891 C19.3069307,0.99009901 19.1089109,0.99009901 19.1089109,0.891089109 L19.4554455,0.99009901 C19.5049505,0.940594059 19.5049505,0.891089109 19.5049505,0.841584158 C19.6039604,0.841584158 19.7524752,0.891089109 19.8019802,0.742574257 L19.6039604,0.841584158 L19.6039604,0.742574257 L19.9009901,0.742574257 C20.1485149,0.445544554 19.950495,0.346534653 19.8019802,0.198019802 L19.6534653,0.247524752 C19.6039604,0.198019802 19.7029703,0.099009901 19.7524752,0.099009901 C19.8019802,0.0495049505 19.4059406,0.0495049505 19.2574257,0.099009901 C18.8613861,0.297029703 19.3069307,0.346534653 19.0594059,0.495049505 L18.6138614,0.594059406 L18.6633663,0.643564356 C18.6138614,0.693069307 18.5643564,0.643564356 18.5148515,0.643564356 C18.6138614,0.693069307 18.2673267,0.792079208 18.1188119,0.891089109 L18.1188119,0.792079208 C17.5742574,0.841584158 17.6237624,1.28712871 17.2277228,1.38613861 L16.9306931,1.38613861 L16.9306931,1.48514851 C16.7326733,1.48514851 16.6831683,1.43564356 16.4851485,1.58415842 C15.8910891,2.17821782 14.9009901,2.37623762 14.2574257,2.92079208 C14.2574257,2.87128713 14.2574257,2.87128713 14.3069307,2.82178218 C13.9108911,3.46534653 13.0693069,3.16831683 12.6732673,3.71287129 L12.7227723,3.71287129 C12.4257426,3.86138614 12.7722772,3.71287129 12.6237624,3.91089109 C12.4752475,3.81188119 12.1782178,4.05940594 11.980198,4.10891089 C12.029703,4.10891089 12.0792079,4.05940594 12.1287129,4.05940594 C12.1287129,4.10891089 12.1782178,4.20792079 12.0792079,4.20792079 C11.7326733,4.15841584 11.3366337,4.40594059 11.039604,4.55445545 C11.0891089,4.65346535 10.8910891,4.9009901 10.8910891,5.0990099 C10.8415842,5.0990099 10.7425743,5.04950495 10.6435644,5.04950495 C10.5940594,5.14851485 10.4950495,5.1980198 10.3465347,5.1980198 C10.4455446,5.14851485 10.4950495,5.0990099 10.5940594,5.04950495 C10.5940594,5.04950495 10.6435644,5.04950495 10.6435644,5.04950495 C10.6930693,5 10.7425743,5 10.7425743,5 C10.7920792,4.85148515 10.6930693,4.95049505 10.5940594,4.85148515 C10.4950495,4.9009901 10.2970297,5.04950495 10.3465347,5.0990099 C10.2970297,5.14851485 10.2475248,5.1980198 10.2475248,5.24752475 C10.1980198,5.24752475 10.1485149,5.2970297 10.0990099,5.2970297 L10.1485149,5.2970297 C10.1485149,5.2970297 10.1485149,5.34653465 10.1485149,5.34653465 C10,5.4950495 9.6039604,5.54455446 9.40594059,5.59405941 C9.65346535,5.59405941 9.5049505,5.74257426 9.6039604,5.84158416 C9.6039604,5.84158416 9.75247525,5.69306931 10,5.54455446 C10,5.54455446 10,5.59405941 10,5.64356436 C9.9009901,5.89108911 9.6039604,5.79207921 9.35643564,6.08910891 C9.40594059,6.08910891 9.45544554,6.08910891 9.45544554,6.13861386 C9.35643564,6.23762376 9.20792079,6.23762376 9.15841584,6.18811881 C9.20792079,6.28712871 9.05940594,6.48514851 8.91089109,6.53465347 C8.76237624,6.53465347 8.71287129,6.48514851 8.56435644,6.63366337 L8.71287129,6.63366337 C8.56435644,6.83168317 8.46534653,6.68316832 8.36633663,6.83168317 C8.41584158,6.78217822 8.46534653,6.83168317 8.41584158,6.88118812 C8.16831683,7.02970297 8.16831683,6.98019802 7.87128713,6.98019802 L8.01980198,7.02970297 C7.77227723,7.12871287 7.37623762,7.27722772 7.47524752,7.37623762 C7.32673267,7.17821782 7.02970297,7.62376238 6.88118812,7.72277228 C6.93069307,7.67326733 6.98019802,7.72277228 7.02970297,7.72277228 C6.58415842,7.87128713 6.43564356,8.26732673 6.13861386,8.51485149 L6.23762376,8.66336634 C6.08910891,8.81188119 5.69306931,8.61386139 5.54455446,8.81188119 L5.69306931,8.81188119 C5.3960396,9.10891089 5.2970297,9.20792079 5.0990099,9.5049505 L5.1980198,9.55445545 C5.04950495,9.6039604 4.95049505,9.7029703 4.85148515,9.75247525 C4.9009901,9.95049505 4.7029703,10.0990099 4.45544554,10.2970297 C4.25742574,10.4950495 4.00990099,10.7425743 4.05940594,11.039604 L3.81188119,10.9405941 C3.71287129,11.0891089 3.51485149,11.2376238 3.61386139,11.3861386 L3.61386139,11.3366337 C3.81188119,11.3861386 3.51485149,11.4851485 3.46534653,11.5841584 C3.41584158,11.6336634 3.21782178,11.6831683 3.21782178,11.5841584 C3.06930693,12.029703 2.57425743,12.6237624 2.62376238,12.9207921 C2.27722772,13.2673267 1.98019802,13.5643564 1.78217822,14.009901 L1.83168317,14.009901 C1.78217822,14.1584158 1.73267327,14.5049505 1.93069307,14.5544554 C1.73267327,14.8514851 1.38613861,15 1.33663366,15.4455446 L1.43564356,15.3960396 C1.43564356,15.4950495 1.28712871,15.6435644 1.23762376,15.6930693 C1.23762376,15.7425743 1.28712871,15.6930693 1.28712871,15.6930693 C1.33663366,15.7920792 1.18811881,15.8415842 1.13861386,15.8910891 L1.23762376,15.8910891 C1.23762376,16.0891089 1.13861386,16.2871287 1.03960396,16.4851485 C0.940594059,16.6831683 0.841584158,16.9306931 0.792079208,17.1287129 C0.841584158,17.029703 0.891089109,17.1287129 0.940594059,17.1287129 C0.643564356,17.2772277 0.643564356,17.7722772 0.544554455,17.9207921 L0.643564356,17.8217822 C0.445544554,18.1683168 0.792079208,18.1683168 0.643564356,18.4653465 L0.544554455,18.2673267 C0.594059406,18.4158416 0.495049505,18.5148515 0.396039604,18.4653465 C0.445544554,18.6633663 0.594059406,18.5148515 0.594059406,18.7623762 C0.643564356,18.7623762 0.643564356,18.5643564 0.742574257,18.6633663 L0.99009901,19.2079208 C0.99009901,19.2079208 0.99009901,19.2574257 0.99009901,19.3564356 C0.693069307,19.3069307 0.940594059,19.6534653 0.693069307,19.4554455 C0.643564356,19.950495 0.792079208,20.3465347 0.693069307,20.7920792 C0.99009901,20.9405941 0.742574257,21.6336634 1.08910891,21.5841584 C1.08910891,21.8316832 1.03960396,22.029703 0.891089109,22.1782178 C0.841584158,22.1287129 0.891089109,22.0792079 0.940594059,22.029703 C0.841584158,22.0792079 0.841584158,22.3762376 0.891089109,22.5247525 C0.940594059,22.3762376 0.99009901,22.1287129 1.13861386,21.980198 C1.08910891,22.1782178 0.99009901,22.5247525 0.99009901,22.6237624 L1.18811881,22.6732673 C1.08910891,22.8712871 1.38613861,22.8217822 1.18811881,23.019802 L1.13861386,22.970297 C1.18811881,23.3168317 0.99009901,23.3168317 1.03960396,23.6138614 L1.08910891,23.6138614 C1.13861386,23.7128713 0.99009901,23.9108911 1.18811881,23.960396 L1.18811881,23.7623762 C1.33663366,23.7623762 1.38613861,23.9108911 1.48514851,23.960396 C1.48514851,24.1584158 1.28712871,24.0594059 1.28712871,24.1584158 C1.43564356,24.2079208 1.33663366,24.1584158 1.48514851,24.0594059 C1.48514851,24.3069307 1.48514851,24.6039604 1.38613861,24.8019802 C1.38613861,24.8019802 1.43564356,24.8019802 1.43564356,24.8019802 C1.53465347,25.049505 1.33663366,25.2970297 1.48514851,25.4455446 L1.48514851,25.3960396 C1.68316832,25.5445545 1.43564356,25.9405941 1.78217822,25.8910891 C1.88118812,25.990099 1.68316832,25.6930693 1.88118812,25.7920792 C2.07920792,26.039604 1.68316832,26.039604 1.83168317,26.2871287 C1.83168317,26.2376238 1.83168317,26.2376238 1.88118812,26.2376238 C1.93069307,26.4356436 1.98019802,26.6831683 1.98019802,26.8811881 C2.32673267,27.0792079 2.17821782,27.6237624 2.57425743,27.8712871 C2.42574257,27.8217822 2.47524752,27.970297 2.42574257,27.970297 C2.42574257,27.970297 2.42574257,27.970297 2.47524752,27.970297 C2.52475248,28.0693069 2.42574257,28.1188119 2.37623762,28.1683168 C2.47524752,28.2178218 2.37623762,28.4653465 2.47524752,28.5148515 C2.42574257,28.5148515 2.47524752,28.6138614 2.47524752,28.7128713 C2.47524752,28.5148515 2.57425743,28.6138614 2.67326733,28.5148515 C2.82178218,28.7623762 2.52475248,28.9108911 2.67326733,29.1584158 L2.87128713,29.2574257 C2.67326733,29.3564356 2.87128713,29.5544554 2.82178218,29.6039604 C2.92079208,29.6534653 2.97029703,29.7029703 3.06930693,29.6534653 C3.06930693,29.8019802 3.21782178,29.9009901 3.11881188,30 L3.01980198,29.9009901 C3.21782178,30.2475248 3.06930693,30.4950495 3.26732673,30.7425743 L3.56435644,30.6435644 C3.76237624,30.7920792 3.56435644,30.990099 3.76237624,31.1386139 C3.66336634,31.0891089 3.66336634,31.0891089 3.61386139,31.2376238 C3.46534653,31.1386139 3.46534653,30.990099 3.41584158,30.8910891 L3.36633663,31.1881188 L3.26732673,30.7920792 C3.21782178,30.990099 3.26732673,30.9405941 3.11881188,30.9405941 C3.11881188,31.1881188 3.36633663,31.1386139 3.31683168,31.3861386 C3.36633663,31.4356436 3.46534653,31.3366337 3.56435644,31.4356436 C3.56435644,31.6336634 3.91089109,31.7326733 3.81188119,31.9306931 C3.86138614,31.980198 3.76237624,31.8316832 3.86138614,31.8316832 C3.91089109,31.980198 3.96039604,32.029703 3.86138614,32.1287129 L3.76237624,32.029703 C3.81188119,32.1287129 3.71287129,32.1782178 3.86138614,32.3267327 C3.86138614,32.4257426 3.71287129,32.5247525 3.66336634,32.4257426 C3.66336634,32.4752475 3.76237624,32.5742574 3.86138614,32.4752475 C4.00990099,32.7227723 3.61386139,32.6732673 3.86138614,32.9207921 C3.86138614,32.9207921 3.86138614,32.8712871 3.91089109,32.8712871 C3.96039604,32.9207921 4.00990099,32.970297 4.00990099,33.019802 C3.91089109,32.7722772 4.25742574,33.019802 4.10891089,32.7722772 C4.25742574,32.7722772 4.25742574,32.970297 4.30693069,33.019802 C4.25742574,33.1683168 4.10891089,33.1188119 4.05940594,33.1683168 C4.10891089,33.1683168 4.10891089,33.2178218 4.15841584,33.2673267 L4.00990099,33.2178218 C4.05940594,33.2673267 4.05940594,33.3168317 4.05940594,33.4158416 L4.05940594,33.2673267 C4.15841584,33.3663366 4.40594059,33.5148515 4.40594059,33.7623762 C4.40594059,33.7128713 4.45544554,33.5643564 4.6039604,33.6633663 C4.65346535,33.9108911 4.65346535,33.7128713 4.8019802,33.8118812 C4.95049505,34.1089109 4.7029703,33.960396 4.95049505,34.3069307 C4.95049505,34.3564356 4.9009901,34.3069307 4.85148515,34.3069307 C5,34.5049505 4.95049505,34.6534653 5.14851485,34.8514851 C5.04950495,34.7524752 5,34.7029703 5,34.8514851 C5.04950495,34.7524752 5.14851485,35 5.24752475,35.0990099 L5.1980198,35.1485149 C5.2970297,35.1980198 5.2970297,35.0990099 5.24752475,35.049505 C5.24752475,35.049505 5.1980198,35.049505 5.1980198,35 C5.1980198,34.8514851 5.3960396,34.8514851 5.4950495,35 C5.54455446,35.1980198 5.3960396,35.2475248 5.2970297,35.1980198 C5.4950495,35.4455446 5.14851485,35.4950495 5.34653465,35.7425743 C5.3960396,35.7920792 5.69306931,35.8910891 5.79207921,36.0891089 C5.69306931,36.2376238 5.59405941,35.8910891 5.54455446,36.039604 C5.99009901,36.2376238 5.64356436,36.6831683 6.03960396,37.029703 L6.18811881,36.9306931 C6.23762376,37.029703 6.28712871,37.0792079 6.33663366,37.1782178 L6.18811881,37.0792079 C6.18811881,37.1782178 6.33663366,37.3762376 6.43564356,37.2772277 C6.43564356,37.5247525 6.53465347,37.5247525 6.63366337,37.7227723 C6.53465347,37.5247525 6.63366337,37.7227723 6.63366337,37.5742574 C6.83168317,37.7722772 6.78217822,37.7722772 6.83168317,37.9207921 C6.88118812,37.8712871 6.98019802,37.9207921 7.02970297,37.970297 C6.98019802,38.1188119 7.12871287,38.3663366 7.17821782,38.5643564 L7.22772277,38.5643564 C7.32673267,38.9108911 7.72277228,39.1584158 7.77227723,39.5049505 C7.77227723,39.5049505 7.77227723,39.5049505 7.77227723,39.5049505 C7.57425743,39.4554455 7.82178218,39.8019802 7.82178218,39.9009901 C7.87128713,39.9009901 7.92079208,39.9009901 7.97029703,39.950495 C7.82178218,40 7.97029703,40.0990099 7.92079208,40.1485149 C8.01980198,40.2475248 8.06930693,40.0990099 8.16831683,40.2475248 C8.21782178,40.2970297 8.11881188,40.3465347 8.06930693,40.3465347 C8.16831683,40.3465347 8.26732673,40.4455446 8.36633663,40.5445545 C8.36633663,40.4950495 8.31683168,40.4455446 8.31683168,40.4455446 C8.36633663,40.3960396 8.41584158,40.4950495 8.46534653,40.4455446 C8.51485149,40.5445545 8.36633663,40.5445545 8.46534653,40.5940594 L8.51485149,40.4455446 C8.56435644,40.4950495 8.56435644,40.5445545 8.56435644,40.5940594 C8.56435644,40.5445545 8.66336634,40.4950495 8.71287129,40.4950495 C8.76237624,40.7920792 8.46534653,40.6435644 8.36633663,40.6930693 C8.56435644,40.8910891 8.56435644,41.1386139 8.66336634,41.3366337 L8.76237624,41.2376238 C8.81188119,41.3366337 8.81188119,41.3861386 8.76237624,41.4356436 L8.86138614,41.5841584 C8.86138614,41.4851485 8.86138614,41.4356436 8.96039604,41.3861386 C9.00990099,41.5346535 9.15841584,41.7326733 9.00990099,41.8316832 C9.15841584,41.980198 9.45544554,42.3762376 9.5049505,42.3267327 C9.55445545,42.5742574 9.8019802,42.7722772 9.65346535,42.8712871 C9.7029703,43.019802 10.049505,43.1188119 9.9009901,43.2673267 C10.0990099,43.3663366 9.95049505,43.2673267 10.049505,43.1683168 C10.2475248,43.2673267 10.049505,43.5148515 10.3465347,43.4653465 C10.3960396,43.6633663 10.2970297,43.4653465 10.1980198,43.5643564 C10.4455446,43.5148515 10.4455446,43.8613861 10.6435644,43.960396 C10.5940594,44.0594059 10.5445545,43.9108911 10.5445545,44.0594059 C10.5940594,44.009901 10.6435644,44.1089109 10.6435644,44.1089109 L10.5445545,44.2079208 L10.990099,44.2079208 C10.990099,44.5049505 10.7425743,44.2574257 10.8910891,44.6039604 C11.0891089,44.6534653 10.9405941,44.8514851 11.1881188,45.049505 C11.0891089,45 11.2376238,45 11.2376238,44.950495 L11.2871287,45.0990099 C11.2871287,45.0990099 11.2871287,45.0990099 11.3366337,45.0990099 C11.4851485,45.1485149 11.3366337,45.1980198 11.5346535,45.2970297 C11.4851485,45.1980198 11.6336634,45.1980198 11.6831683,45.1980198 L11.6336634,45.4455446 L11.7821782,45.2970297 C11.9306931,45.4455446 11.7821782,45.8415842 12.1287129,45.8415842 L12.0792079,45.7425743 C12.1287129,45.7425743 12.2772277,45.7425743 12.2772277,45.8910891 C12.2772277,45.9405941 12.1782178,45.990099 12.1782178,45.9405941 L12.2772277,45.990099 C12.3762376,45.8910891 12.2277228,45.6435644 12.1782178,45.4950495 C12.1782178,45.5445545 12.1782178,45.6930693 12.0792079,45.6930693 C12.029703,45.5445545 12.029703,45.3960396 11.980198,45.2475248 C11.980198,45.2970297 11.9306931,45.3960396 11.8811881,45.4455446 C11.7326733,45.3465347 11.8811881,45.2970297 11.8316832,45.1980198 C11.7821782,45.1980198 11.7326733,45.1485149 11.6831683,45.1980198 C11.6336634,45.049505 11.5841584,44.950495 11.4356436,44.8514851 C11.4356436,44.8514851 11.4356436,45.049505 11.3366337,45 C11.2376238,44.7029703 11.3366337,44.6039604 11.2871287,44.3069307 C11.2871287,43.9108911 10.7920792,43.7623762 10.7920792,43.4653465 C10.8415842,43.4158416 10.990099,43.5643564 10.9405941,43.4158416 C10.8415842,43.4653465 10.8415842,43.3663366 10.7920792,43.3663366 C10.8415842,43.1683168 10.5940594,43.1683168 10.6435644,43.019802 C10.6435644,43.0693069 10.5445545,42.970297 10.4455446,42.9207921 C10.3465347,42.970297 10.2970297,42.7722772 10.2475248,43.0693069 C10.2970297,42.7722772 9.95049505,42.6732673 10.1485149,42.3762376 L10.1980198,42.4257426 L10,42.2277228 C9.85148515,42.0792079 9.9009901,42.0792079 9.65346535,41.980198 C9.65346535,42.029703 9.7029703,42.1287129 9.7029703,42.2277228 C9.5049505,42.1287129 9.65346535,41.9306931 9.55445545,41.7821782 C9.45544554,41.8316832 9.6039604,41.9306931 9.45544554,41.9306931 C9.40594059,41.8316832 9.40594059,41.7326733 9.35643564,41.6336634 L9.30693069,41.6831683 C9.05940594,41.4851485 9.5049505,41.4851485 9.20792079,41.3861386 C9.25742574,41.3861386 9.25742574,41.3366337 9.30693069,41.3366337 C9.20792079,41.2871287 9.00990099,41.1881188 9.05940594,41.3366337 C9.00990099,41.2376238 9.00990099,41.1386139 9.05940594,41.0891089 C9.15841584,41.1386139 9.15841584,41.1881188 9.25742574,41.1386139 L9.10891089,40.7920792 C9.10891089,40.7425743 9.05940594,40.8415842 9.10891089,40.8910891 C8.61386139,40.5940594 8.86138614,40 8.26732673,39.6534653 C8.36633663,39.6534653 8.31683168,39.6039604 8.36633663,39.5049505 C8.26732673,39.3564356 8.16831683,39.1584158 8.01980198,39.009901 L7.97029703,39.0594059 C7.87128713,38.6633663 7.82178218,38.4158416 7.62376238,38.1683168 C7.62376238,38.1683168 7.52475248,38.2178218 7.52475248,38.2673267 C7.52475248,38.0693069 7.07920792,37.970297 7.27722772,37.8217822 L7.32673267,37.8712871 C7.12871287,37.5247525 7.07920792,37.0792079 6.93069307,36.7326733 C6.73267327,36.6831683 7.02970297,36.9306931 6.83168317,36.9306931 C6.63366337,36.6831683 6.63366337,36.4356436 6.43564356,36.1386139 C6.43564356,36.1881188 6.43564356,36.1881188 6.43564356,36.1881188 C6.18811881,35.9405941 6.58415842,36.1881188 6.43564356,35.9405941 C6.38613861,35.990099 6.33663366,35.990099 6.28712871,35.8910891 L6.38613861,35.7920792 C6.38613861,35.7920792 6.28712871,35.8415842 6.23762376,35.8415842 C6.33663366,35.6930693 6.08910891,35.4455446 6.18811881,35.2970297 C6.13861386,35.2970297 6.03960396,35.3960396 5.99009901,35.3960396 C5.89108911,35.2970297 5.89108911,35.1980198 5.89108911,35.0990099 C5.74257426,35.049505 5.64356436,34.8514851 5.64356436,34.9009901 C5.4950495,34.7029703 5.69306931,34.8514851 5.69306931,34.6534653 L5.84158416,34.8019802 L5.74257426,34.5049505 L5.74257426,34.6534653 C5.59405941,34.5544554 5.69306931,34.3564356 5.59405941,34.2079208 L5.69306931,34.2574257 L5.64356436,34.0594059 C5.44554455,34.1089109 5.4950495,33.8118812 5.34653465,34.009901 C5.0990099,33.7128713 5.1980198,33.4158416 5.04950495,33.0693069 C5.0990099,33.1188119 5.04950495,33.1188119 5,33.1188119 C4.85148515,32.970297 4.9009901,32.8217822 4.95049505,32.6732673 C4.9009901,32.7227723 4.9009901,32.7722772 4.85148515,32.7722772 C4.75247525,32.5742574 4.9009901,32.6237624 4.85148515,32.3267327 C4.8019802,32.4257426 4.75247525,32.4257426 4.7029703,32.3267327 C4.75247525,32.3267327 4.8019802,32.2277228 4.8019802,32.1782178 C4.55445545,32.4752475 4.55445545,31.9306931 4.30693069,32.1287129 C4.35643564,32.0792079 4.35643564,31.6831683 4.55445545,31.7326733 L4.55445545,31.7821782 C4.65346535,31.7821782 4.55445545,31.6831683 4.55445545,31.6336634 C4.55445545,31.6831683 4.55445545,31.7326733 4.55445545,31.7326733 C4.5049505,31.3366337 4.25742574,31.039604 4.15841584,30.5940594 C4.15841584,30.6435644 4.15841584,30.7920792 4.05940594,30.7425743 C3.86138614,30.3960396 3.91089109,30.0990099 3.86138614,29.7029703 C3.61386139,29.7524752 4.00990099,30.1485149 3.81188119,30.1980198 C3.66336634,29.7524752 3.61386139,29.3069307 3.51485149,28.8613861 C3.11881188,28.8118812 3.46534653,28.3663366 3.11881188,28.1683168 C3.21782178,28.1683168 3.21782178,28.019802 3.16831683,27.8712871 C3.11881188,27.970297 3.01980198,27.7722772 2.97029703,27.8217822 C3.01980198,27.6732673 2.92079208,27.2772277 2.72277228,27.3267327 C2.92079208,27.2277228 2.62376238,27.029703 2.72277228,26.8811881 C2.57425743,26.7326733 2.67326733,26.4851485 2.52475248,26.2871287 C2.67326733,26.3366337 2.52475248,26.039604 2.57425743,25.990099 C2.57425743,25.990099 2.57425743,26.039604 2.52475248,26.039604 C2.37623762,25.990099 2.57425743,25.7920792 2.42574257,25.6435644 C2.57425743,25.7425743 2.52475248,25.8415842 2.47524752,25.7425743 C2.57425743,25.7425743 2.57425743,25.3960396 2.42574257,25.2970297 C2.42574257,25.3465347 2.37623762,25.3465347 2.37623762,25.3960396 C2.42574257,24.8019802 2.02970297,24.2079208 2.17821782,23.5643564 L2.02970297,23.7128713 C1.78217822,23.3663366 2.27722772,23.4158416 2.17821782,23.1683168 C2.12871287,22.970297 2.07920792,22.7722772 2.02970297,22.5742574 C1.98019802,22.3762376 1.93069307,22.1782178 1.88118812,21.980198 C1.83168317,21.5841584 1.78217822,21.1386139 1.78217822,20.7425743 C1.83168317,20.6930693 1.83168317,20.7920792 1.93069307,20.7920792 C1.93069307,20.7425743 1.78217822,20.6930693 1.83168317,20.5940594 L1.93069307,20.5940594 C1.68316832,20.2475248 2.17821782,19.5544554 1.78217822,19.2574257 C1.98019802,18.9108911 1.68316832,18.6633663 1.98019802,18.2673267 C1.93069307,18.1188119 1.78217822,18.4158416 1.83168317,18.2178218 L2.02970297,17.8712871 C2.37623762,17.5247525 1.88118812,16.8316832 2.27722772,16.4356436 C2.22772277,16.4356436 2.17821782,16.3366337 2.22772277,16.2376238 C2.27722772,16.2376238 2.27722772,16.2871287 2.32673267,16.3366337 C2.57425743,15.9405941 2.57425743,15.8415842 2.72277228,15.5445545 C2.57425743,15.6435644 2.67326733,15.3960396 2.57425743,15.3465347 C2.67326733,15.2970297 2.67326733,15.4455446 2.82178218,15.2475248 C2.97029703,15 2.97029703,14.7029703 3.01980198,14.5049505 C3.16831683,14.4554455 3.16831683,14.3069307 3.31683168,14.3564356 C3.46534653,14.0594059 3.56435644,13.9108911 3.76237624,13.5643564 L3.71287129,13.5148515 C3.91089109,13.4653465 3.81188119,13.1683168 3.96039604,13.1683168 C3.91089109,13.1683168 3.86138614,13.1683168 3.81188119,13.1683168 L3.96039604,13.019802 C3.86138614,13.0693069 3.71287129,13.0693069 3.76237624,12.9207921 C3.96039604,12.8217822 3.81188119,12.970297 3.96039604,12.970297 L3.86138614,12.8712871 C3.81188119,12.8217822 4.00990099,12.8712871 3.96039604,13.019802 C4.15841584,12.6732673 4.40594059,12.3762376 4.6039604,12.0792079 L4.5049505,12.0792079 C4.65346535,11.9306931 4.8019802,11.7326733 4.8019802,11.5841584 C4.85148515,11.5841584 4.9009901,11.5841584 4.9009901,11.6336634 C5.14851485,11.4851485 4.75247525,11.5346535 5.04950495,11.3861386 C5.04950495,11.3861386 4.95049505,11.4356436 4.9009901,11.4356436 L5.2970297,11.0891089 C5.24752475,11.039604 5.24752475,10.7425743 5.4950495,10.5940594 C5.54455446,10.5940594 5.54455446,10.6930693 5.4950495,10.7425743 L5.59405941,10.6435644 L5.4950495,10.4950495 L5.74257426,10.4455446 L5.64356436,10.3465347 C5.74257426,10.2475248 5.94059406,10.2970297 6.03960396,10.1980198 C6.23762376,9.85148515 6.13861386,9.85148515 6.23762376,9.55445545 C6.48514851,9.65346535 6.58415842,9.15841584 6.78217822,9.25742574 C6.93069307,8.86138614 7.47524752,8.51485149 7.82178218,8.06930693 L7.77227723,8.06930693 C7.82178218,7.82178218 8.11881188,8.01980198 8.31683168,7.82178218 L8.21782178,7.82178218 C8.36633663,7.52475248 8.91089109,7.22772277 9.25742574,7.12871287 C9.15841584,7.12871287 9.15841584,7.07920792 9.20792079,7.02970297 C9.30693069,7.02970297 9.30693069,7.22772277 9.40594059,7.07920792 C9.35643564,7.07920792 9.35643564,7.02970297 9.35643564,6.98019802 L9.6039604,6.98019802 C9.9009901,6.63366337 10.2970297,6.23762376 10.7425743,6.03960396 C10.7920792,5.94059406 10.6930693,5.94059406 10.6435644,5.94059406 C10.990099,5.74257426 11.3366337,5.59405941 11.6831683,5.3960396 L11.5841584,5.24752475 C11.7326733,5.14851485 11.8316832,5.34653465 11.9306931,5.14851485 C11.980198,5.0990099 11.7821782,5.1980198 11.6831683,5.1980198 C11.8811881,4.95049505 11.980198,5.1980198 12.2277228,5 L12.0792079,4.95049505 C12.2277228,4.75247525 12.3762376,4.85148515 12.5247525,4.9009901 C12.970297,4.85148515 12.5247525,4.5049505 13.019802,4.35643564 C13.1188119,4.35643564 13.0693069,4.45544554 13.2178218,4.5049505 C13.4653465,4.30693069 13.5643564,4.35643564 13.8613861,4.15841584 C13.8613861,3.86138614 13.7128713,4.25742574 13.7128713,3.96039604 L13.5148515,4.15841584 C13.6138614,3.96039604 13.3168317,4.25742574 13.2673267,4.10891089 C13.3663366,3.96039604 13.6633663,3.91089109 13.9108911,3.81188119 C13.8118812,3.71287129 13.6633663,3.91089109 13.6633663,3.76237624 L13.8118812,3.76237624 C13.7623762,3.76237624 13.7128713,3.71287129 13.6633663,3.76237624 C13.6138614,3.66336634 13.7623762,3.71287129 13.8613861,3.61386139 C13.9108911,3.66336634 13.960396,3.71287129 13.960396,3.81188119 C13.960396,3.81188119 13.960396,3.76237624 13.960396,3.76237624 C14.2574257,3.76237624 14.5049505,3.51485149 14.7524752,3.51485149 C14.7029703,3.51485149 14.7029703,3.46534653 14.7029703,3.46534653 C14.8019802,3.41584158 15.049505,3.41584158 15.1980198,3.36633663 C15.2475248,3.26732673 15,3.21782178 15.2475248,3.11881188 C15.3960396,3.11881188 15.3960396,3.31683168 15.5940594,3.21782178 M10.6435644,5.89108911 C10.6930693,5.84158416 10.7425743,5.84158416 10.7425743,5.84158416 C10.6930693,5.84158416 10.6930693,5.89108911 10.6435644,5.89108911 M10.2475248,6.18811881 C10.2970297,6.13861386 10.3465347,6.03960396 10.2970297,6.03960396 C10.3465347,5.99009901 10.3960396,6.03960396 10.3960396,6.08910891 C10.3465347,6.08910891 10.2970297,6.13861386 10.2475248,6.18811881 M10.4455446,5 C10.4455446,5 10.4950495,5 10.4950495,5.04950495 C10.4455446,5.0990099 10.3960396,5.0990099 10.3960396,5.0990099 C10.3465347,5.04950495 10.3465347,5 10.4455446,5" id="Shape"></path>
            <path d="M10.6435644,5 C10.6935644,5 10.6935644,5 10.6435644,5 C10.6935644,5 10.6935644,5.05 10.6435644,5 Z" id="Shape"></path>
            <path d="M7.77227723,39.4059406 C7.77227723,39.4059406 7.82227723,39.4059406 7.77227723,39.4059406 C7.82227723,39.4059406 7.82227723,39.4059406 7.77227723,39.4059406" id="Shape"></path>
            <polygon id="Shape" points="5.84207921 10.4460396 5.79207921 10.4460396 5.84207921 10.3960396"></polygon>
            <path d="M9.40594059,41.2871287 C9.40594059,41.2871287 9.40594059,41.3371287 9.40594059,41.2871287 C9.45594059,41.3371287 9.40594059,41.3371287 9.40594059,41.2871287" id="Shape"></path>
            <path d="M9.95049505,42.1782178 L10.050495,42.2782178 C10.000495,42.2282178 9.95049505,42.2282178 9.95049505,42.1782178" id="Shape"></path>
            <path d="M10.3960396,42.8217822 C10.3960396,42.8717822 10.3960396,42.8717822 10.3960396,42.8217822 Z" id="Shape"></path>
            <path d="M4.75284653,31.7827499 C4.70284653,31.7327499 4.70284653,31.7327499 4.75284653,31.7827499 C4.70284653,31.6827499 4.75284653,31.7327499 4.75284653,31.7827499" id="Shape"></path>
            <path d="M6.03960396,35.199505 C6.03960396,35.149505 6.03960396,35.099505 6.03960396,35.049505 C6.03960396,35.099505 6.08960396,35.149505 6.03960396,35.199505" id="Shape"></path>
            <polygon id="Shape" points="3.36683168 27.9707921 3.36683168 27.9707921 3.31683168 27.9207921"></polygon>
            <path d="M5.94059406,34.9009901 C5.99059406,34.9509901 5.99059406,35.0009901 6.04059406,35.0509901 C5.99059406,35.0009901 5.94059406,34.9509901 5.94059406,34.9009901" id="Shape"></path>
            <path d="M12.3267327,45.6930693 C12.3267327,45.7430693 12.3267327,45.7430693 12.3267327,45.6930693 Z" id="Shape"></path>
            <path d="M12.3267327,45.7425743 C12.3267327,45.7925743 12.3267327,45.7425743 12.3267327,45.7425743" id="Shape"></path>
            <path d="M12.3764576,45.8920792 L12.3764576,45.7920792 C12.3264576,45.8420792 12.3764576,45.8420792 12.3764576,45.8920792" id="Shape"></path>
            <path d="M11.6831683,44.8514851 C11.7331683,44.8514851 11.6831683,44.8514851 11.6831683,44.8514851" id="Shape"></path>
            <path d="M11.5347189,44.6039604 C11.5847189,44.6539604 11.7347189,44.7039604 11.7847189,44.8039604 L11.7347189,44.8039604 C11.7347189,44.7539604 11.4847189,44.7039604 11.5347189,44.6039604" id="Shape"></path>
            <path d="M10.2479025,43.7128713 L10.4479025,43.9128713 C10.3979025,43.9128713 10.2979025,43.8628713 10.3479025,43.9628713 C9.99790248,43.7628713 10.4479025,44.0128713 10.2479025,43.7128713" id="Shape"></path>
            <path d="M9.75346535,43.0203417 C9.80346535,43.1703417 9.70346535,43.0703417 9.65346535,43.0703417 C9.65346535,42.9703417 9.65346535,42.9203417 9.75346535,43.0203417" id="Shape"></path>
            <path d="M6.78330324,37.8219059 L6.68330324,37.8719059 C6.63330324,37.7719059 6.73330324,37.8219059 6.78330324,37.8219059" id="Shape"></path>
            <polygon id="Shape" points="6.88118812 36.5841584 6.98118812 36.6341584 6.88118812 36.7341584"></polygon>
            <polygon id="Shape" points="5.74306931 36.2886139 5.74306931 36.3386139 5.69306931 36.1386139"></polygon>
            <path d="M1.78217822,27.1782178 L1.93217822,27.1782178 C1.93217822,27.2282178 1.78217822,27.2782178 1.78217822,27.1782178" id="Shape"></path>
            <path d="M0.991283319,23.0222772 C0.891283319,22.9722772 0.841283319,22.8722772 0.891283319,22.7722772 C0.941283319,22.8722772 0.991283319,22.9722772 0.991283319,23.0222772" id="Shape"></path>
            <polygon id="Shape" points="4.06039604 10.7930693 3.96039604 10.8430693 4.11039604 10.6930693"></polygon>
            <path d="M16.3371287,38.2673267 C16.3871287,38.2673267 16.4871287,38.3173267 16.4371287,38.3173267 L16.2871287,38.3173267 L16.3371287,38.2673267 Z" id="Shape"></path>
            <path d="M16.5386139,38.5658416 C16.4386139,38.5658416 16.2886139,38.6158416 16.1386139,38.5158416 C16.2886139,38.5158416 16.2386139,38.5158416 16.4386139,38.5158416 C16.4886139,38.5158416 16.3886139,38.4658416 16.3386139,38.4658416 C16.3886139,38.4658416 16.3386139,38.4158416 16.4386139,38.4158416 C16.5386139,38.4658416 16.5386139,38.5158416 16.4386139,38.5658416 C16.4886139,38.5158416 16.5386139,38.5158416 16.5386139,38.5658416" id="Shape"></path>
            <path d="M16.1884901,41.3861386 C16.1384901,41.3861386 16.1384901,41.3861386 16.1884901,41.3861386" id="Shape"></path>
            <path d="M15.990099,43.1683168 C15.990099,43.1683168 15.990099,43.1683168 15.990099,43.1683168 C16.040099,43.1683168 15.990099,43.1683168 15.990099,43.1683168" id="Shape"></path>
            <path d="M16.1882426,41.3861386 L16.2382426,41.4361386 C16.1382426,41.4361386 16.1882426,41.4361386 16.1882426,41.3861386" id="Shape"></path>
            <path d="M16.039604,38.8613861 C16.039604,38.8613861 16.089604,38.8613861 16.089604,38.8613861 C16.089604,38.8613861 16.089604,38.8613861 16.039604,38.8613861 Z" id="Shape"></path>
            <path d="M16.4356436,40.6435644 C16.4356436,40.6435644 16.4856436,40.6435644 16.4856436,40.6435644 L16.4356436,40.6435644 Z" id="Shape"></path>
            <path d="M16.5861386,40.049505 C16.5861386,40.049505 16.4361386,40.049505 16.3861386,40.049505 C16.4361386,40.049505 16.4861386,40.049505 16.4861386,40.049505 C16.5361386,40.049505 16.5361386,40.049505 16.5861386,40.049505" id="Shape"></path>
            <path d="M16.5841584,39.1091309 C16.5841584,39.0591309 16.5841584,39.1091309 16.5841584,39.1091309" id="Shape"></path>
            <path d="M16.3861386,41.0891089 C16.3861386,41.0891089 16.4361386,41.0891089 16.3861386,41.0891089 C16.4361386,41.0891089 16.3861386,41.0891089 16.3861386,41.0891089" id="Shape"></path>
            <polygon id="Shape" points="3.61386139 47.7722772 3.61386139 47.7722772 3.61386139 47.8222772"></polygon>
            <path d="M15.249505,49.4574257 C15.199505,49.3074257 15.049505,49.4574257 15.049505,49.2574257 C15.049505,49.3574257 15.249505,49.3074257 15.249505,49.4574257" id="Shape"></path>
            <path d="M16.0894802,38.8613861 C16.0394802,38.8613861 16.0394802,38.9113861 16.0894802,38.8613861 C16.0394802,38.8613861 16.0394802,38.8613861 16.0894802,38.8613861" id="Shape"></path>
            <path d="M15.0498762,49.3071507 C14.9998762,49.2571507 14.9998762,49.3071507 15.0498762,49.3071507" id="Shape"></path>
            <path d="M15.9905941,45.3465347 C15.9905941,45.3465347 15.9405941,45.3465347 15.9405941,45.3465347 C15.9405941,45.3465347 15.9905941,45.3465347 15.9905941,45.3465347" id="Shape"></path>
            <path d="M15.9405941,44.3564356 C15.9405941,44.4064356 15.9405941,44.4064356 15.9405941,44.3564356" id="Shape"></path>
            <path d="M15.7425743,45.8415842 C15.7425743,45.8415842 15.7925743,45.8415842 15.7425743,45.8415842 C15.7425743,45.8415842 15.7425743,45.8415842 15.7425743,45.8415842 C15.7425743,45.8415842 15.7925743,45.8415842 15.7425743,45.8415842" id="Shape"></path>
            <path d="M6.43626238,47.3762376 C6.43626238,47.4262376 6.38626238,47.4262376 6.38626238,47.4762376 C6.38626238,47.4262376 6.33626238,47.3762376 6.43626238,47.3762376" id="Shape"></path>
            <path d="M16.1391089,38.8613861 C16.0891089,38.8613861 16.0891089,38.8613861 16.0891089,38.8613861 C16.0891089,38.8613861 16.1391089,38.8613861 16.1391089,38.8613861" id="Shape"></path>
            <path d="M14.6534653,45.7425743 L14.6534653,45.8425743 C14.6534653,45.8425743 14.6534653,45.7925743 14.6534653,45.7425743" id="Shape"></path>
            <path d="M14.6039604,46.0891089 C14.6539604,46.0891089 14.6539604,46.1391089 14.7039604,46.1391089 C14.7039604,46.1391089 14.7039604,46.1391089 14.6539604,46.1391089 L14.6039604,46.0891089 Z" id="Shape"></path>
            <path d="M5.74257426,47.1287129 C5.74257426,47.1287129 5.84158416,47.2277228 5.74257426,47.2772277 C5.64356436,47.2277228 5.69306931,47.3267327 5.59405941,47.3762376 C5.54455446,47.2277228 5.4950495,47.4257426 5.4950495,47.2277228 C5.44554455,47.3762376 5.44554455,47.3267327 5.3960396,47.3762376 C5.44554455,47.2772277 5.2970297,47.2772277 5.2970297,47.1287129 C5.24752475,47.2772277 5.3960396,47.3267327 5.2970297,47.4752475 C5.24752475,47.3762376 5.14851485,47.3267327 5.14851485,47.1782178 C5.0990099,47.2277228 5.0990099,47.2772277 5,47.2772277 C5,47.2772277 5,47.2772277 5.04950495,47.3267327 C4.95049505,47.2277228 4.75247525,47.3267327 4.7029703,47.1287129 C4.7029703,47.3762376 4.45544554,47.1287129 4.55445545,47.3762376 C4.5049505,47.3762376 4.45544554,47.2772277 4.40594059,47.2277228 C4.40594059,47.4257426 4.30693069,47.2772277 4.20792079,47.3762376 C4.15841584,47.2772277 4.10891089,47.3267327 4.05940594,47.2277228 C4.05940594,47.2277228 4.10891089,47.2772277 4.10891089,47.3267327 C4.05940594,47.2772277 4.05940594,47.3267327 4.00990099,47.4257426 C3.91089109,47.3762376 4.00990099,47.2772277 3.96039604,47.1782178 C3.91089109,47.2277228 3.96039604,47.2772277 3.96039604,47.3762376 L3.86138614,47.1782178 C3.86138614,47.1782178 3.81188119,47.2277228 3.81188119,47.2772277 C3.76237624,47.2277228 3.71287129,47.1287129 3.71287129,47.2277228 L3.81188119,47.2277228 L3.76237624,47.3267327 L3.66336634,47.2277228 C3.51485149,47.3762376 3.56435644,47.5742574 3.61386139,47.7722772 L3.66336634,47.8217822 C3.66336634,47.8712871 3.61386139,47.9207921 3.61386139,47.9207921 C3.61386139,47.970297 3.71287129,48.1188119 3.76237624,48.1683168 C3.91089109,48.1683168 3.76237624,47.9207921 3.91089109,47.8712871 L4.05940594,47.970297 L4.05940594,47.9207921 C4.05940594,47.8712871 4.10891089,47.970297 4.10891089,47.970297 C4.10891089,47.8712871 4.20792079,47.9207921 4.30693069,47.9207921 L4.30693069,48.019802 C4.45544554,48.2178218 4.6039604,47.8217822 4.7029703,47.9207921 L4.75247525,48.019802 L4.8019802,47.9207921 C4.85148515,47.970297 4.85148515,48.0693069 4.95049505,48.019802 C5.2970297,47.8217822 5.59405941,48.1188119 5.94059406,48.019802 C5.94059406,48.019802 5.94059406,48.0693069 5.89108911,48.0693069 C6.23762376,47.7722772 6.28712871,48.4158416 6.58415842,48.2178218 L6.58415842,48.1683168 C6.73267327,48.2178218 6.58415842,48.1188119 6.68316832,48.0693069 C6.68316832,48.2178218 6.83168317,48.2178218 6.88118812,48.2673267 C6.88118812,48.2178218 6.83168317,48.2178218 6.83168317,48.2178218 C6.83168317,48.1683168 6.88118812,48.1188119 6.93069307,48.1188119 C6.98019802,48.3663366 7.17821782,48.3663366 7.27722772,48.4158416 C7.32673267,48.3168317 7.42574257,48.2673267 7.52475248,48.1188119 C7.52475248,48.1683168 7.52475248,48.2178218 7.52475248,48.3168317 C7.57425743,48.2673267 7.62376238,48.3168317 7.62376238,48.3663366 C7.57425743,48.3663366 7.52475248,48.3663366 7.52475248,48.3663366 C7.52475248,48.3663366 7.52475248,48.3663366 7.52475248,48.3663366 C7.47524752,48.3663366 7.47524752,48.3663366 7.47524752,48.3663366 C7.42574257,48.4653465 7.47524752,48.4653465 7.42574257,48.5643564 C7.47524752,48.5643564 7.52475248,48.6138614 7.57425743,48.5148515 C7.62376238,48.5148515 7.62376238,48.5148515 7.67326733,48.5148515 C7.67326733,48.5148515 7.72277228,48.5643564 7.72277228,48.5643564 C7.72277228,48.5643564 7.72277228,48.5643564 7.72277228,48.5148515 C7.82178218,48.4653465 7.92079208,48.6633663 7.97029703,48.7623762 C7.92079208,48.6138614 8.01980198,48.6138614 8.06930693,48.5148515 C8.06930693,48.5148515 7.97029703,48.5148515 7.87128713,48.5148515 C7.87128713,48.5148515 7.87128713,48.4653465 7.92079208,48.4653465 C8.01980198,48.3663366 8.06930693,48.5643564 8.21782178,48.5148515 C8.21782178,48.5148515 8.21782178,48.4653465 8.21782178,48.4158416 C8.26732673,48.4158416 8.31683168,48.4653465 8.31683168,48.5643564 C8.36633663,48.4653465 8.46534653,48.4158416 8.51485149,48.4653465 C8.51485149,48.5643564 8.51485149,48.6138614 8.61386139,48.6138614 L8.61386139,48.5148515 C8.71287129,48.4653465 8.66336634,48.6138614 8.76237624,48.5643564 C8.71287129,48.5643564 8.76237624,48.5148515 8.76237624,48.5148515 C8.86138614,48.5643564 8.86138614,48.6138614 8.86138614,48.7623762 L8.86138614,48.6633663 C8.91089109,48.7623762 9.05940594,48.9108911 9.10891089,48.7623762 C9.00990099,49.009901 9.25742574,48.9108911 9.35643564,48.9108911 C9.35643564,48.9108911 9.35643564,48.8613861 9.35643564,48.8118812 C9.45544554,49.009901 9.65346535,48.8613861 9.8019802,48.9108911 L9.85148515,48.7623762 C9.95049505,48.7623762 9.85148515,49.1089109 9.95049505,49.1089109 L9.95049505,49.009901 C10.0990099,49.0594059 10.1485149,49.0594059 10.2970297,49.0594059 L10.3465347,48.960396 C10.3960396,49.009901 10.4455446,49.009901 10.4455446,49.1089109 C10.6435644,48.8613861 10.8415842,49.3069307 11.0891089,49.0594059 L11.039604,49.2574257 C11.0891089,49.2574257 11.1881188,49.3069307 11.2871287,49.1584158 C11.3366337,49.009901 11.3366337,49.1584158 11.4356436,49.1584158 C11.4851485,49.1584158 11.4851485,49.3069307 11.4356436,49.3069307 C11.6831683,49.2574257 11.9306931,49.4059406 12.0792079,49.2574257 C12.2772277,49.3564356 12.3762376,49.5544554 12.5742574,49.5544554 L12.5742574,49.5049505 C12.6732673,49.5049505 12.8217822,49.4554455 12.8712871,49.3069307 C13.019802,49.3564356 13.0693069,49.6534653 13.2673267,49.6039604 L13.2673267,49.5544554 C13.3168317,49.5049505 13.3663366,49.6039604 13.3663366,49.6534653 C13.3663366,49.6534653 13.3663366,49.6039604 13.3663366,49.6039604 C13.4158416,49.5544554 13.4158416,49.6534653 13.4653465,49.6534653 L13.4653465,49.5049505 C13.6633663,49.4059406 13.8118812,49.7029703 14.009901,49.7029703 C13.960396,49.7029703 14.009901,49.6039604 14.009901,49.6039604 C14.009901,49.7029703 14.1584158,49.7524752 14.3069307,49.8019802 C14.4554455,49.8514851 14.5544554,49.8514851 14.6534653,49.8514851 L14.5544554,49.7524752 C14.9009901,49.9009901 14.7029703,49.5544554 15,49.6534653 C15,49.7029703 14.950495,49.7524752 14.950495,49.8019802 C15.049505,49.7524752 15.1485149,49.7524752 15.1485149,49.8514851 C15.1980198,49.7524752 15.049505,49.7029703 15.1980198,49.6534653 C15.1485149,49.6039604 15.049505,49.6534653 15.049505,49.6039604 C15.0990099,49.5544554 15.0990099,49.4554455 15.0990099,49.3564356 C15.0990099,49.3564356 15.0990099,49.3069307 15.1485149,49.3069307 C15.3465347,49.5049505 15.2475248,49.2079208 15.3960396,49.4554455 C15.5940594,49.2079208 15.4455446,48.8613861 15.5940594,48.7128713 C15.2970297,48.6138614 15.6435644,48.4158416 15.2475248,48.3663366 C15.2475248,48.2673267 15.3465347,48.2178218 15.4950495,48.1683168 C15.5445545,48.1683168 15.4950495,48.2178218 15.4455446,48.2178218 C15.5445545,48.2178218 15.5940594,48.1188119 15.5940594,48.0693069 C15.4950495,48.1188119 15.3960396,48.2178218 15.2475248,48.2178218 C15.2970297,48.1188119 15.4455446,48.0693069 15.4950495,48.019802 L15.2970297,47.970297 C15.4455446,47.9207921 15.1485149,47.9207921 15.3465347,47.8712871 L15.3960396,47.8712871 C15.3960396,47.7722772 15.5940594,47.7722772 15.6435644,47.6732673 L15.5445545,47.6732673 C15.4950495,47.6237624 15.6930693,47.5742574 15.5445545,47.5247525 L15.5445545,47.5742574 C15.3960396,47.5742574 15.3465347,47.4752475 15.2970297,47.4752475 C15.3465347,47.3762376 15.5445545,47.4752475 15.5445545,47.4257426 C15.3960396,47.3762376 15.4950495,47.4257426 15.3465347,47.4257426 C15.3960396,47.3267327 15.4950495,47.2277228 15.6435644,47.1782178 C15.6435644,47.1782178 15.5940594,47.1782178 15.5940594,47.1782178 C15.5940594,47.0792079 15.8415842,47.029703 15.7425743,46.980198 C15.5445545,46.8811881 15.9405941,46.7821782 15.6435644,46.7821782 C15.5940594,46.7326733 15.6435644,46.8811881 15.4950495,46.7821782 C15.3960396,46.6831683 15.7920792,46.7326733 15.6930693,46.6336634 C15.6930693,46.6336634 15.6930693,46.6336634 15.6435644,46.6336634 C15.6435644,46.5841584 15.6930693,46.4851485 15.7425743,46.3861386 C15.4950495,46.2871287 15.8415842,46.0891089 15.5445545,45.990099 C15.6435644,46.039604 15.6930693,45.990099 15.7425743,45.990099 C15.7425743,45.990099 15.6930693,45.990099 15.6930693,45.990099 C15.6930693,45.9405941 15.7920792,45.9405941 15.8415842,45.9405941 C15.7425743,45.8910891 15.9405941,45.8415842 15.8910891,45.7920792 C15.9405941,45.7920792 15.9405941,45.7425743 15.9405941,45.7425743 C15.8415842,45.7920792 15.7920792,45.7425743 15.6930693,45.7920792 C15.6930693,45.6930693 15.990099,45.6930693 15.9405941,45.5940594 L15.8415842,45.5445545 C16.039604,45.5445545 15.990099,45.4455446 16.039604,45.4455446 C15.990099,45.4455446 15.9405941,45.3960396 15.8415842,45.3960396 C15.8910891,45.3465347 15.7920792,45.2970297 15.9405941,45.2970297 L15.990099,45.3465347 C15.9405941,45.1980198 16.2376238,45.1485149 16.0891089,45.049505 L15.7920792,45.049505 C15.6930693,44.950495 15.990099,44.950495 15.7920792,44.8514851 C15.8910891,44.9009901 15.8415842,44.9009901 15.9405941,44.8514851 C15.9405941,44.9009901 15.8910891,44.9009901 15.8910891,44.950495 L16.0891089,44.8514851 L15.990099,45 C16.0891089,44.950495 16.0891089,44.950495 16.1881188,45 C16.2871287,44.9009901 16.039604,44.9009901 16.1881188,44.8019802 C16.1386139,44.7524752 16.039604,44.8019802 15.990099,44.7524752 C16.0891089,44.7029703 15.7920792,44.6039604 15.9405941,44.5544554 C15.8910891,44.5544554 15.9405941,44.6039604 15.8415842,44.5544554 C15.8910891,44.5049505 15.8910891,44.4554455 15.9405941,44.4554455 L15.990099,44.5049505 C15.990099,44.4554455 16.0891089,44.4554455 16.039604,44.4059406 C16.0891089,44.3564356 16.2376238,44.3564356 16.2376238,44.4059406 C16.2376238,44.4059406 16.1881188,44.3564356 16.0891089,44.3564356 C16.0891089,44.2574257 16.3861386,44.3069307 16.2871287,44.2079208 C16.2871287,44.2079208 16.2376238,44.2079208 16.2376238,44.2079208 C16.2376238,44.1584158 16.2376238,44.1584158 16.2376238,44.1584158 C16.1881188,44.2574257 15.990099,44.1089109 16.039604,44.2079208 C15.8910891,44.2079208 16.039604,44.1089109 15.9405941,44.1089109 C16.039604,44.0594059 16.1881188,44.1089109 16.2376238,44.1089109 C16.1881188,44.1089109 16.1881188,44.0594059 16.1881188,44.0594059 L16.2871287,44.1089109 C16.2871287,44.1089109 16.2871287,44.0594059 16.3366337,44.0594059 L16.2871287,44.1089109 C16.2871287,44.0594059 16.0891089,43.960396 16.2376238,43.9108911 C16.1881188,43.9108911 16.0891089,43.960396 16.039604,43.9108911 C16.1386139,43.8118812 15.990099,43.8613861 15.8910891,43.8118812 C15.9405941,43.7128713 16.0891089,43.8118812 16.039604,43.6633663 C16.039604,43.6633663 16.0891089,43.6633663 16.1386139,43.6633663 C16.0891089,43.5643564 16.1881188,43.5148515 16.0891089,43.4158416 C16.1386139,43.4653465 16.1386139,43.5148515 16.2376238,43.4653465 C16.1386139,43.4653465 16.1386139,43.3663366 16.0891089,43.3663366 L16.1386139,43.3663366 C16.0891089,43.3168317 16.039604,43.3663366 16.039604,43.3663366 C16.039604,43.3663366 16.0891089,43.3663366 16.0891089,43.4158416 C16.039604,43.4653465 15.7920792,43.4158416 15.7920792,43.3663366 C15.8415842,43.3168317 15.990099,43.3168317 16.0891089,43.3663366 C16.039604,43.2673267 16.3861386,43.3168317 16.2871287,43.2178218 C16.2871287,43.2178218 16.039604,43.1188119 16.039604,43.019802 C16.1881188,43.019802 16.1386139,43.1188119 16.2376238,43.0693069 C15.9405941,42.9207921 16.4851485,42.8712871 16.2871287,42.6732673 L16.1386139,42.6732673 C16.1386139,42.6237624 16.1386139,42.6237624 16.1386139,42.5742574 L16.2376238,42.6237624 C16.2871287,42.5742574 16.2376238,42.5247525 16.1386139,42.5247525 C16.2871287,42.4752475 16.1881188,42.4257426 16.1881188,42.3762376 C16.1881188,42.4752475 16.1881188,42.3762376 16.1386139,42.4257426 C16.0891089,42.3267327 16.1386139,42.3267327 16.1881188,42.2772277 C16.1386139,42.2772277 16.039604,42.2277228 16.039604,42.2277228 C16.1386139,42.1782178 16.1386139,42.0792079 16.1881188,42.029703 L16.1386139,42.029703 C16.2376238,41.9306931 16.039604,41.7326733 16.1881188,41.6336634 C16.3366337,41.6831683 16.3366337,41.5346535 16.3861386,41.5346535 C16.3366337,41.5346535 16.2871287,41.4851485 16.2871287,41.4851485 C16.4356436,41.4851485 16.3861386,41.4356436 16.4356436,41.4356436 C16.3861386,41.3861386 16.2376238,41.4356436 16.2871287,41.3366337 C16.2871287,41.2871287 16.3861386,41.3366337 16.4356436,41.3366337 C16.3861386,41.3366337 16.3366337,41.2376238 16.2871287,41.2376238 C16.2376238,41.2376238 16.2871287,41.2871287 16.2871287,41.2871287 C16.1881188,41.2871287 16.2376238,41.2376238 16.1386139,41.2376238 C16.1386139,41.1881188 16.2871287,41.2376238 16.2376238,41.1881188 L16.1386139,41.2376238 C16.0891089,41.2376238 16.1881188,41.1881188 16.1881188,41.1881188 C16.1386139,41.1881188 16.039604,41.1881188 15.990099,41.1881188 C16.0891089,41.0891089 16.2871287,41.1881188 16.4356436,41.2376238 C16.3861386,41.1386139 16.5346535,41.0891089 16.5346535,40.990099 L16.3861386,40.990099 C16.4356436,40.9405941 16.4356436,40.9405941 16.4851485,40.9405941 L16.4851485,40.8910891 C16.3861386,40.5940594 16.3366337,40.5940594 16.2376238,40.5940594 C16.2871287,40.5445545 16.2871287,40.4455446 16.4356436,40.4455446 L16.3861386,40.4455446 C16.3366337,40.3465347 16.3366337,40.1980198 16.2871287,40.1980198 C16.3861386,40.0990099 16.2871287,40 16.4851485,40.049505 C16.5346535,40 16.2871287,39.9009901 16.5346535,39.9009901 C16.4356436,39.8019802 16.4851485,39.9009901 16.3366337,39.9009901 C16.2376238,39.8019802 16.5346535,39.8019802 16.2871287,39.7524752 C16.3861386,39.7029703 16.3366337,39.7524752 16.4356436,39.7524752 C16.1881188,39.7029703 16.4356436,39.6039604 16.2871287,39.5544554 C16.3861386,39.5544554 16.3366337,39.6039604 16.4356436,39.5544554 C16.3861386,39.5544554 16.3861386,39.5049505 16.3861386,39.5049505 L16.5346535,39.5049505 L16.1881188,39.3564356 C16.3861386,39.3069307 16.4356436,39.4059406 16.5346535,39.3069307 C16.3861386,39.2574257 16.6831683,39.2574257 16.5841584,39.1089109 C16.5841584,39.1584158 16.5346535,39.1089109 16.4851485,39.1089109 L16.5346535,39.0594059 C16.5346535,39.0594059 16.5346535,39.0594059 16.4851485,39.0594059 C16.3861386,39.009901 16.5346535,39.009901 16.4851485,38.960396 C16.4356436,39.009901 16.3366337,38.960396 16.2871287,38.9108911 L16.4851485,38.8613861 L16.2871287,38.8613861 C16.2871287,38.7623762 16.6336634,38.7623762 16.3861386,38.6633663 L16.3366337,38.7128713 C16.2871287,38.7128713 16.1386139,38.6633663 16.2871287,38.6138614 C16.3366337,38.6138614 16.4356436,38.6138614 16.4356436,38.6138614 L16.3861386,38.6138614 C16.2376238,38.6138614 16.1881188,38.7128713 16.1386139,38.7623762 C16.1881188,38.7623762 16.2376238,38.7128713 16.3366337,38.7623762 C16.2871287,38.8118812 16.1881188,38.8613861 16.1386139,38.8613861 C16.1881188,38.8613861 16.2871287,38.8613861 16.3366337,38.8613861 C16.3861386,38.9108911 16.2376238,38.8613861 16.1881188,38.9108911 C16.2376238,38.960396 16.2871287,38.960396 16.3366337,38.960396 C16.2871287,39.009901 16.2376238,39.0594059 16.2871287,39.1089109 C16.2871287,39.1089109 16.3861386,39.0594059 16.4851485,39.1089109 C16.3861386,39.2079208 16.2376238,39.2079208 16.0891089,39.3069307 C15.8415842,39.4059406 16.1881188,39.6039604 15.990099,39.6534653 C15.9405941,39.6534653 15.8910891,39.5544554 15.8415842,39.6039604 C15.9405941,39.6039604 15.8910891,39.6534653 15.9405941,39.6534653 C15.7425743,39.7029703 15.9405941,39.7524752 15.8415842,39.8019802 C15.8910891,39.8019802 15.9405941,39.8514851 15.9405941,39.8514851 C16.0891089,39.8514851 15.990099,39.950495 16.2376238,39.8514851 C15.990099,39.9009901 16.2376238,40.049505 15.8910891,40.049505 L15.8415842,40 L15.8910891,40.0990099 C15.8910891,40.1485149 15.8910891,40.1485149 15.990099,40.1980198 C16.039604,40.1980198 16.039604,40.1485149 16.0891089,40.1485149 C16.1881188,40.1980198 15.9405941,40.2475248 15.9405941,40.2970297 C16.039604,40.2970297 15.990099,40.2475248 16.1386139,40.2970297 C16.1386139,40.3465347 16.039604,40.3465347 16.039604,40.3960396 L16.0891089,40.3960396 C16.1881188,40.4950495 15.7920792,40.3960396 15.990099,40.4950495 C15.9405941,40.4950495 15.8910891,40.4950495 15.8910891,40.4950495 C15.9405941,40.5445545 16.039604,40.5940594 16.1386139,40.5445545 C16.1386139,40.5940594 16.0891089,40.5940594 15.990099,40.6435644 C15.8415842,40.5940594 15.8910891,40.5940594 15.7920792,40.5445545 L15.6930693,40.6930693 C15.6930693,40.6930693 15.7425743,40.6930693 15.7425743,40.6930693 C16.039604,40.8910891 15.3960396,40.990099 15.7425743,41.2376238 C15.6435644,41.1881188 15.6435644,41.2376238 15.5940594,41.2376238 C15.5940594,41.2871287 15.5940594,41.3861386 15.6435644,41.4356436 L15.6930693,41.4356436 C15.5940594,41.5841584 15.4455446,41.6336634 15.4950495,41.7821782 C15.4455446,41.7821782 15.5940594,41.7821782 15.5940594,41.7821782 C15.4455446,41.8316832 15.8415842,41.980198 15.5940594,41.980198 L15.5940594,41.9306931 C15.5940594,42.0792079 15.3960396,42.2277228 15.3465347,42.3267327 C15.4950495,42.3762376 15.3960396,42.2277228 15.5445545,42.2772277 C15.5940594,42.3762376 15.4455446,42.4752475 15.4950495,42.5742574 C15.4950495,42.5742574 15.5445545,42.5742574 15.5445545,42.5742574 C15.6435644,42.6732673 15.3960396,42.5247525 15.3960396,42.6237624 C15.4950495,42.6237624 15.4950495,42.6237624 15.5445545,42.6732673 L15.3960396,42.6732673 C15.3960396,42.6732673 15.4950495,42.6732673 15.5445545,42.6732673 C15.3960396,42.6732673 15.4455446,42.8217822 15.2970297,42.8217822 C15.3465347,42.8217822 15.4950495,42.8217822 15.5445545,42.8217822 C15.5940594,42.8712871 15.4950495,42.9207921 15.4455446,42.9207921 C15.5445545,42.970297 15.5445545,43.0693069 15.5445545,43.019802 C15.5940594,43.1188119 15.4455446,43.019802 15.3465347,43.0693069 L15.2970297,43.1683168 L15.3960396,43.1188119 C15.4455446,43.1683168 15.2970297,43.2178218 15.2970297,43.2673267 L15.1980198,43.2178218 L15.1485149,43.2673267 C15.3465347,43.2673267 15.1980198,43.3663366 15.3960396,43.3663366 C15.4455446,43.5148515 15.1980198,43.5643564 15.1980198,43.7128713 C15.1980198,43.7128713 15.2475248,43.7128713 15.2475248,43.7128713 C15.2970297,43.8118812 15.1980198,43.8118812 15.0990099,43.8613861 C15.1485149,43.8613861 15.1980198,43.8613861 15.2475248,43.8613861 C15.2475248,43.960396 15.1485149,43.9108911 15.049505,44.009901 C15.1485149,44.009901 15.1485149,44.009901 15.1980198,44.009901 C15.1485149,44.009901 15.0990099,44.009901 15.049505,44.009901 C15.4455446,43.960396 15.1980198,44.1089109 15.4950495,44.1089109 C15.3960396,44.1089109 15.2475248,44.2574257 15.0990099,44.2079208 L15.1485149,44.2079208 C15.049505,44.2079208 15.0990099,44.2574257 15.049505,44.2574257 C15.049505,44.2574257 15.0990099,44.2079208 15.0990099,44.2574257 C14.950495,44.4059406 15.049505,44.5544554 14.950495,44.7029703 C15,44.7029703 15.049505,44.6534653 15.0990099,44.7029703 C15.1485149,44.8514851 14.950495,44.950495 14.8019802,45.0990099 C15.049505,45.1485149 14.8514851,44.950495 15.0990099,44.950495 C15.049505,45.0990099 14.950495,45.2475248 14.8019802,45.4455446 C15.1485149,45.5445545 14.6534653,45.5940594 14.9009901,45.7425743 C14.8019802,45.7425743 14.7524752,45.7920792 14.7524752,45.8415842 C14.8514851,45.8415842 14.8514851,45.8910891 14.9009901,45.8910891 C14.8019802,45.9405941 14.7524752,46.0891089 14.950495,46.0891089 C14.7524752,46.0891089 14.950495,46.1881188 14.8019802,46.2376238 C14.8514851,46.2871287 14.7524752,46.3861386 14.8019802,46.4851485 C14.6534653,46.4356436 14.7524752,46.5841584 14.6534653,46.5841584 C14.6534653,46.5841584 14.7029703,46.5841584 14.7029703,46.5841584 C14.8019802,46.6336634 14.6039604,46.6831683 14.6534653,46.7326733 C14.7029703,46.7821782 14.8019802,46.7326733 14.8019802,46.7821782 C14.7029703,46.7821782 14.5544554,46.8811881 14.7029703,46.9306931 C14.7029703,46.9306931 14.7524752,46.9306931 14.8019802,46.8811881 C14.6039604,47.0792079 14.8019802,47.3267327 14.5544554,47.5742574 L14.7029703,47.5247525 C14.9009901,47.6732673 14.4059406,47.5742574 14.4554455,47.7227723 C14.5049505,48.019802 14.7029703,48.3663366 14.5049505,48.6633663 C14.4554455,48.6633663 14.4554455,48.6633663 14.4059406,48.6138614 C14.4059406,48.6138614 14.5544554,48.6633663 14.4554455,48.6633663 L14.3564356,48.6633663 C14.4554455,48.6633663 14.4059406,48.7128713 14.4059406,48.7128713 C14.3564356,48.7128713 14.3564356,48.7128713 14.5049505,48.8613861 C14.4554455,48.8118812 14.4554455,48.8613861 14.4059406,48.8613861 C14.4059406,48.8613861 14.3564356,48.8613861 14.3069307,48.8118812 C14.3069307,48.8613861 14.3564356,48.960396 14.3564356,48.960396 C14.3069307,48.9108911 14.3069307,48.8613861 14.2574257,48.8613861 C14.2574257,48.8118812 14.2574257,48.8118812 14.2079208,48.8118812 C14.1584158,48.8118812 14.1089109,48.8613861 14.0594059,48.8613861 C13.9108911,48.9108911 13.8118812,48.960396 13.7128713,48.8613861 C13.7128713,48.9108911 13.6633663,48.960396 13.6138614,48.960396 C13.6138614,48.9108911 13.6138614,48.9108911 13.6633663,48.8613861 C13.5148515,48.7623762 13.4653465,48.7128713 13.3168317,48.7128713 C13.3663366,48.8118812 13.2178218,48.7623762 13.2178218,48.8613861 C13.2178218,48.8118812 13.2673267,48.7623762 13.2178218,48.6633663 C13.1188119,48.6138614 12.970297,48.7128713 12.8712871,48.7128713 C12.8712871,48.6138614 12.7722772,48.6138614 12.8217822,48.5148515 C12.6732673,48.4653465 12.6237624,48.4158416 12.4257426,48.4158416 L12.4257426,48.4653465 C12.4257426,48.3168317 12.2772277,48.5148515 12.2277228,48.4158416 C12.2277228,48.4653465 12.2277228,48.5148515 12.2277228,48.5148515 L12.1782178,48.4653465 C12.1782178,48.5148515 12.1782178,48.6633663 12.1287129,48.6633663 C12.0792079,48.5643564 12.1782178,48.6138614 12.1782178,48.5148515 L12.1287129,48.6633663 C12.0792079,48.6633663 12.1287129,48.4653465 12.1782178,48.4653465 C12.029703,48.4158416 11.8316832,48.3168317 11.6831683,48.3168317 L11.6831683,48.4158416 C11.5841584,48.3663366 11.4851485,48.3663366 11.4356436,48.4158416 C11.4356436,48.3663366 11.4356436,48.3168317 11.4356436,48.3168317 C11.3861386,48.1683168 11.3861386,48.4653465 11.2871287,48.3168317 C11.2871287,48.3663366 11.3366337,48.3663366 11.3366337,48.4158416 L11.1386139,48.2673267 C11.1386139,48.3168317 10.9405941,48.4653465 10.8910891,48.3663366 C10.8910891,48.3168317 10.9405941,48.2673267 10.9405941,48.2673267 L10.8910891,48.2178218 L10.7920792,48.3663366 L10.7425743,48.2178218 L10.6930693,48.3168317 C10.6435644,48.2673267 10.6435644,48.1188119 10.5940594,48.1188119 C10.3960396,48.1683168 10.3960396,48.2178218 10.2475248,48.3168317 C10.2970297,48.0693069 10.049505,48.2673267 10.049505,48.1188119 C9.85148515,48.2673267 9.6039604,48.1188119 9.35643564,48.1188119 C9.20792079,48.2178218 9.30693069,47.9207921 9.15841584,47.970297 L9.15841584,48.019802 C9.00990099,48.1188119 8.76237624,47.970297 8.66336634,47.8217822 C8.66336634,47.8712871 8.66336634,47.9207921 8.61386139,47.9207921 C8.61386139,47.8712871 8.66336634,47.7722772 8.61386139,47.7722772 C8.61386139,47.8217822 8.61386139,47.8712871 8.56435644,47.8217822 L8.51485149,47.6732673 C8.31683168,47.7227723 8.06930693,47.7722772 7.87128713,47.6732673 C7.92079208,47.6237624 7.92079208,47.6732673 7.92079208,47.7227723 C7.77227723,47.6732673 7.62376238,47.5742574 7.52475248,47.5247525 L7.47524752,47.6732673 C7.42574257,47.6732673 7.47524752,47.4752475 7.37623762,47.5742574 C7.37623762,47.5742574 7.42574257,47.5742574 7.42574257,47.6732673 C7.27722772,47.7722772 7.37623762,47.5247525 7.22772277,47.5247525 L7.22772277,47.6732673 C7.12871287,47.7722772 7.12871287,47.5742574 7.12871287,47.4752475 C7.02970297,47.2772277 6.98019802,47.7722772 6.78217822,47.5742574 C6.78217822,47.4752475 6.83168317,47.4752475 6.78217822,47.3762376 C6.63366337,47.3762376 6.63366337,47.2772277 6.48514851,47.3267327 C6.38613861,47.5742574 6.53465347,47.3267327 6.43564356,47.5247525 L6.53465347,47.4752475 C6.43564356,47.5742574 6.63366337,47.5247525 6.58415842,47.6732673 C6.53465347,47.7227723 6.43564356,47.5742574 6.33663366,47.5247525 C6.33663366,47.6237624 6.43564356,47.5742574 6.38613861,47.6732673 L6.33663366,47.6237624 C6.33663366,47.6732673 6.33663366,47.6732673 6.38613861,47.6732673 C6.33663366,47.7722772 6.33663366,47.6732673 6.28712871,47.6732673 C6.28712871,47.6237624 6.28712871,47.5247525 6.33663366,47.4752475 C6.33663366,47.4752475 6.33663366,47.4752475 6.33663366,47.5247525 C6.28712871,47.3762376 6.08910891,47.4752475 6.03960396,47.3267327 C6.03960396,47.3762376 6.03960396,47.3762376 6.03960396,47.3762376 C5.99009901,47.3762376 5.94059406,47.2277228 5.89108911,47.1782178 C5.84158416,47.2277228 5.89108911,47.4257426 5.79207921,47.3762376 C5.79207921,47.2772277 5.84158416,47.1287129 5.74257426,47.1287129 M7.92079208,47.7722772 C7.92079208,47.7722772 7.87128713,47.7722772 7.92079208,47.7722772 C7.87128713,47.7722772 7.92079208,47.7722772 7.92079208,47.7722772 M8.11881188,47.8217822 C8.06930693,47.8712871 8.01980198,47.8712871 8.01980198,47.8712871 C8.01980198,47.8712871 8.01980198,47.8217822 8.01980198,47.7722772 C8.06930693,47.8217822 8.06930693,47.8217822 8.11881188,47.8217822 M7.52475248,48.5148515 C7.52475248,48.5148515 7.52475248,48.4653465 7.52475248,48.4653465 L7.52475248,48.5148515 C7.57425743,48.5148515 7.57425743,48.5148515 7.52475248,48.5148515 C7.57425743,48.5148515 7.57425743,48.5643564 7.52475248,48.5148515" id="Shape"></path>
            <polygon id="Shape" points="10.6930693 48.019802 10.6930693 48.069802"></polygon>
            <path d="M15.8419554,40.4950495 C15.7919554,40.4950495 15.7919554,40.4950495 15.8419554,40.4950495 C15.7919554,40.4950495 15.7919554,40.4950495 15.8419554,40.4950495" id="Shape"></path>
            <path d="M15.8915842,40.099505 L15.8415842,40.049505 C15.8415842,40.099505 15.8415842,40.099505 15.8915842,40.099505" id="Shape"></path>
            <path d="M15.8415842,39.8514851 C15.8915842,39.8514851 15.8915842,39.8514851 15.8915842,39.8514851 L15.8415842,39.8514851 Z" id="Shape"></path>
            <path d="M15.0003713,44.3069307 C15.0003713,44.3069307 15.0003713,44.3069307 15.0003713,44.3069307 C14.9503713,44.3069307 14.9503713,44.3069307 15.0003713,44.3069307" id="Shape"></path>
            <path d="M15.4958697,42.970297 C15.4458697,42.970297 15.4458697,42.970297 15.4458697,43.020297 C15.3958697,42.970297 15.3958697,42.970297 15.4958697,42.970297" id="Shape"></path>
            <path d="M15.3960396,43.069802 C15.3960396,43.019802 15.3960396,43.019802 15.3960396,43.019802 C15.4460396,43.019802 15.4460396,43.069802 15.3960396,43.069802" id="Shape"></path>
            <path d="M16.0891089,38.6140814 C16.1391089,38.5640814 16.1391089,38.6140814 16.0891089,38.6140814 Z" id="Shape"></path>
            <path d="M16.1386139,38.5643564 C16.1386139,38.5643564 16.1386139,38.6143564 16.1386139,38.5643564" id="Shape"></path>
            <path d="M16.1884901,38.5643564 C16.1384901,38.5643564 16.1384901,38.5643564 16.1884901,38.5643564" id="Shape"></path>
            <path d="M16.089604,38.960396 L16.039604,38.960396 C16.039604,38.960396 16.039604,38.960396 16.089604,38.960396" id="Shape"></path>
            <path d="M16.0402376,39.1100359 C16.0402376,39.0600359 15.9402376,39.0100359 15.9902376,39.0100359 L16.0402376,39.0100359 C15.9402376,38.9600359 16.0902376,39.0600359 16.0402376,39.1100359" id="Shape"></path>
            <path d="M16.5346535,39.6544554 L16.5346535,39.5544554 C16.5846535,39.5544554 16.6346535,39.6044554 16.6846535,39.5544554 C16.7846535,39.7044554 16.5346535,39.5544554 16.5346535,39.6544554" id="Shape"></path>
            <path d="M16.5346535,39.9507151 C16.5846535,39.9007151 16.6346535,39.9507151 16.6346535,39.9507151 C16.5846535,40.0007151 16.5846535,40.0007151 16.5346535,39.9507151" id="Shape"></path>
            <path d="M16.1386139,42.029703 L16.2886139,42.029703 C16.2386139,42.079703 16.2386139,42.079703 16.1386139,42.029703" id="Shape"></path>
            <polygon id="Shape" points="15.4465347 42.3767327 15.3465347 42.3267327 15.4965347 42.3267327"></polygon>
            <polygon id="Shape" points="16.2871287 42.7227723 16.3371287 42.7227723 16.2871287 42.7727723"></polygon>
            <path d="M15.8430693,46.2376238 L15.6930693,46.2376238 C15.6930693,46.2376238 15.8930693,46.2376238 15.8430693,46.2376238" id="Shape"></path>
            <path d="M15.4952546,47.7722772 C15.5952546,47.7722772 15.5952546,47.8222772 15.5452546,47.8722772 C15.4952546,47.8722772 15.4452546,47.8222772 15.4952546,47.7722772" id="Shape"></path>
            <polygon id="Shape" points="10.8915842 49.1089109 10.9415842 49.1589109 10.8415842 49.1089109"></polygon>
        </g>
    </g>
</svg>
