<?xml version="1.0" encoding="UTF-8"?>
<svg width="32px" height="97px" viewBox="0 0 32 97" version="1.1" xmlns="http://www.w3.org/2000/svg" xmlns:xlink="http://www.w3.org/1999/xlink">
    <!-- Generator: Sketch 51.3 (57544) - http://www.bohemiancoding.com/sketch -->
    <title>Arrow4</title>
    <desc>Created with Sketch.</desc>
    <defs></defs>
    <g id="Page-1" stroke="none" stroke-width="1" fill="none" fill-rule="evenodd">
        <g id="Arrow4" fill="#484F57" fill-rule="nonzero">
            <g id="Group">
                <path d="M12.4727273,90.8818182 C12.5227273,90.9818182 12.7227273,91.0818182 12.7727273,90.8818182 L12.5227273,90.5818182 L12.4727273,90.8818182 Z" id="Shape"></path>
                <path d="M13.3818182,90.1454545 C13.3818182,89.9272727 13.2727273,89.6363636 13.0181818,89.6 C13.1636364,89.8909091 13.0181818,89.8545455 13.2,90.1818182 C13.1636364,90.3272727 12.9818182,90.3636364 12.9090909,90.2909091 C12.9454545,90.3636364 12.7272727,90.4727273 12.8363636,90.6181818 C13.1272727,90.5454545 13.2363636,90.3272727 13.2363636,90.0363636 C13.3454545,90.0363636 13.3818182,90.1090909 13.3818182,90.1454545 Z" id="Shape"></path>
                <path d="M20.5727273,76.8363636 L20.4727273,76.9363636 C20.5227273,76.9363636 20.5727273,76.8863636 20.5727273,76.8363636 Z" id="Shape"></path>
                <path d="M24.4424242,68.2909091 C24.3924242,68.3909091 24.4424242,68.4409091 24.4424242,68.4409091 C24.4424242,68.3909091 24.4924242,68.2909091 24.4424242,68.2909091 Z" id="Shape"></path>
                <path d="M25.3227273,66.9454545 C25.2727273,66.9954545 25.2727273,66.9954545 25.2727273,67.0454545 C25.2727273,66.9954545 25.3227273,66.9454545 25.3227273,66.9454545 Z" id="Shape"></path>
                <path d="M20.5454545,76.9072203 L20.7954545,76.6572203 C20.6954545,76.6072203 20.6454545,76.7572203 20.5454545,76.9072203 Z" id="Shape"></path>
                <path d="M13.8545455,88.0363636 C13.8545455,88.0863636 13.8545455,88.1863636 13.8545455,88.2363636 C13.8545455,88.1863636 13.9045455,88.1363636 13.8545455,88.0363636 C13.9045455,88.0863636 13.9045455,88.0363636 13.8545455,88.0363636 Z" id="Shape"></path>
                <path d="M19.0318182,80.6909091 L18.9818182,80.7909091 C18.9818182,80.8409091 19.0318182,80.8909091 19.0818182,80.9409091 L19.0318182,80.6909091 Z" id="Shape"></path>
                <path d="M17.7181818,83.6590909 C17.7681818,83.5590909 17.5181818,83.4090909 17.4181818,83.3090909 C17.5181818,83.4090909 17.5181818,83.5090909 17.5181818,83.6090909 C17.5681818,83.6090909 17.6181818,83.6590909 17.7181818,83.6590909 Z" id="Shape"></path>
                <path d="M14.9818182,87.8545455 L14.9818182,88.0045455 C14.9818182,87.9545455 14.9818182,87.9045455 14.9818182,87.8545455 Z" id="Shape"></path>
                <path d="M20,78.6545455 C20.05,78.6545455 20.1,78.6545455 20.1,78.6545455 C20.1,78.6545455 20.05,78.6545455 20,78.6545455 Z" id="Shape"></path>
                <path d="M3.71515152,3.64242424 C3.71515152,3.64242424 3.71515152,3.59242424 3.71515152,3.64242424 C3.71515152,3.59242424 3.66515152,3.64242424 3.71515152,3.64242424 Z" id="Shape"></path>
                <path d="M1.16363636,0.840909091 L1.21363636,0.840909091 C1.26363636,0.790909091 1.26363636,0.740909091 1.31363636,0.690909091 L1.16363636,0.840909091 Z" id="Shape"></path>
                <path d="M26.6181818,64.2909091 C26.6181818,64.2909091 26.6181818,64.2909091 26.6181818,64.2909091 C26.6181818,64.4409091 26.6181818,64.3909091 26.6181818,64.2909091 Z" id="Shape"></path>
                <path d="M31.9545455,37.8394234 C31.7622378,38.2894234 31.6468531,37.1894234 31.4545455,37.8394234 C31.5314685,37.7394234 31.8391608,38.3894234 31.9545455,37.8394234 Z" id="Shape"></path>
                <path d="M13.9272727,88.0409091 C13.9772727,87.9909091 13.9772727,87.9409091 14.0272727,87.8909091 C13.9772727,87.9409091 13.9272727,87.9909091 13.9272727,88.0409091 Z" id="Shape"></path>
                <path d="M31.4681818,37.7818182 L31.4181818,37.8318182 C31.4681818,37.8318182 31.4681818,37.7818182 31.4681818,37.7818182 Z" id="Shape"></path>
                <path d="M28.8409091,57.8545455 C28.7909091,57.8545455 28.7409091,57.8545455 28.6909091,57.9045455 C28.6909091,57.9045455 28.7409091,57.9045455 28.8409091,57.8545455 Z" id="Shape"></path>
                <path d="M26.8363636,62.55 L26.9363636,62.4 C26.8863636,62.5 26.8363636,62.55 26.8363636,62.55 Z" id="Shape"></path>
                <path d="M29.2727273,55.3409091 C29.3227273,55.2409091 29.3727273,55.2409091 29.3727273,55.0909091 C29.3727273,55.0909091 29.3227273,55.0909091 29.3227273,55.1409091 C29.3727273,55.1909091 29.3727273,55.2409091 29.2727273,55.3409091 Z" id="Shape"></path>
                <path d="M30.0636364,52.6545455 C30.0136364,52.6545455 30.0136364,52.7045455 29.9636364,52.7045455 C29.9636364,52.7545455 29.9636364,52.8045455 29.9636364,52.8045455 L30.0636364,52.6545455 Z" id="Shape"></path>
                <path d="M10.6152563,8.19090909 C10.6152563,8.09090909 10.6152563,7.99090909 10.6152563,7.89090909 C10.5652563,8.04090909 10.0652563,7.79090909 10.6152563,8.19090909 Z" id="Shape"></path>
                <path d="M13.9909091,88.15 C13.9409091,88.1 13.8909091,88.05 13.9409091,88 C13.9409091,88.05 13.8909091,88.1 13.8909091,88.1 C13.9409091,88.1 13.9909091,88.15 13.9909091,88.15 Z" id="Shape"></path>
                <path d="M27.6363636,54.7545455 L27.8363636,54.2545455 C27.7863636,54.3909091 27.6863636,54.5727273 27.6363636,54.7545455 Z" id="Shape"></path>
                <path d="M24.2454545,21.3727273 L24.1454545,21.2727273 C24.1954545,21.3727273 24.2454545,21.3727273 24.2454545,21.3727273 Z" id="Shape"></path>
                <path d="M28.1090909,53.1136364 C28.2590909,53.0636364 28.3590909,52.9636364 28.4090909,52.8636364 C28.4090909,52.8136364 28.3590909,52.8136364 28.3590909,52.7636364 L28.1090909,53.1136364 Z" id="Shape"></path>
                <path d="M7.96363636,6.65454545 C8.29090909,6.90909091 8.29090909,6.50909091 8.43636364,6.43636364 C8.87272727,6.65454545 8.50909091,6.72727273 8.54545455,6.94545455 C8.83636364,7.05454545 9.2,6.98181818 9.34545455,7.09090909 C9.34545455,7.12727273 9.34545455,7.16363636 9.27272727,7.2 C9.67272727,7.2 10.0727273,7.74545455 10.5454545,7.70909091 C10.5454545,7.74545455 10.5454545,7.78181818 10.5454545,7.78181818 C10.5818182,7.63636364 10.6545455,7.49090909 10.7272727,7.41818182 C10.8727273,7.52727273 11.1272727,7.45454545 11.0545455,7.67272727 C10.9818182,7.6 10.9090909,7.67272727 10.8363636,7.67272727 L11.0545455,7.70909091 C11.0181818,8.03636364 10.8,7.63636364 10.6545455,7.78181818 C11.0181818,7.92727273 11.4909091,8 11.6727273,8.21818182 C11.5636364,8.47272727 11.0909091,7.89090909 11.2363636,8.32727273 L10.9454545,8 C10.9818182,8.54545455 10.7636364,7.81818182 10.7272727,8.36363636 C11.1636364,8.76363636 11.3454545,8.61818182 11.7454545,9.05454545 C11.9272727,9.01818182 11.8545455,8.83636364 12.0363636,8.8 C12.8727273,9.09090909 12.1454545,9.74545455 12.8363636,9.81818182 C13.0545455,9.78181818 13.3454545,9.52727273 13.5636364,9.96363636 L13.2727273,10.1090909 C13.7090909,10.4727273 13.7818182,9.96363636 14.1454545,10.5090909 C14,10.5454545 13.7454545,10.3272727 13.7818182,10.4 C13.9272727,10.8363636 14.1090909,10.4363636 14.3272727,10.6181818 L14.2181818,10.8727273 C14.7272727,11.2 15.3454545,11.4909091 15.8909091,11.8909091 C15.8181818,11.9272727 15.6727273,11.9272727 15.7454545,12.0727273 C16.4727273,12.5090909 17.0545455,13.2727273 17.5272727,13.9272727 L17.8909091,13.9636364 C17.9272727,14 17.9272727,14.1454545 17.8181818,14.1090909 C18,14.4 17.9272727,14 18.1090909,14.0363636 C18.2545455,14.1454545 18.1818182,14.2909091 18.0727273,14.2545455 C18.6181818,14.4727273 19.4909091,15.0545455 19.7090909,15.6363636 L19.5636364,15.6 C19.8181818,16 20.2545455,15.6363636 20.4,16.1090909 L20.3272727,16.0727273 C20.6181818,16.4727273 20.9818182,16.8363636 21.3090909,17.2 C21.6363636,17.5636364 21.8909091,17.9636364 22,18.3272727 C22.3636364,18.2181818 22.5090909,19.1636364 22.9090909,18.9454545 C23.0545455,19.5272727 22.9090909,19.4545455 23.2727273,20.1818182 C23.3818182,20.3636364 23.6727273,20.2545455 23.8909091,20.4363636 L23.7090909,20.5818182 L24.1090909,20.7272727 L23.9636364,21.0545455 L24.1454545,21.2 C24.1090909,21.1272727 24.1090909,20.9818182 24.1818182,20.9454545 C24.5090909,21.2 24.5454545,21.8181818 24.4727273,21.8909091 L25.1272727,22.5454545 C25.0181818,22.5818182 24.9090909,22.4727273 24.8,22.4 C25.2727273,22.6545455 24.6181818,22.6181818 25.0545455,22.8363636 C25.0545455,22.7636364 25.2,22.8 25.2363636,22.7636364 C25.2363636,23.0181818 25.4545455,23.4545455 25.7090909,23.7454545 L25.5272727,23.7818182 C25.8545455,24.3636364 26.2545455,24.9454545 26.6181818,25.6 C26.5818182,25.3454545 26.8363636,25.2363636 26.9818182,25.4181818 L26.8,25.6 C27.0181818,25.6727273 26.8,25.3454545 27.0909091,25.5272727 C27.2,25.7818182 26.9090909,25.8181818 26.7636364,25.7090909 L26.9818182,25.9636364 C26.9090909,26 26.8363636,25.9636364 26.7636364,26 C26.9818182,26.0727273 26.7636364,26.6181818 27.1272727,26.6909091 L27.0545455,26.7272727 C27.3818182,27.3818182 27.5636364,27.6727273 27.7818182,28.2181818 C28,28.1454545 28.0363636,28.4 28.2545455,28.4727273 C28.3272727,28.9090909 28.3272727,29.4545455 28.5454545,29.9272727 C28.7636364,30.2545455 28.7636364,29.9636364 28.9454545,30.1090909 C28.7636364,30.1818182 28.9454545,30.6909091 28.7272727,30.4727273 C28.9454545,31.0909091 29.0181818,31.2363636 29.3454545,32 C29.4181818,31.8909091 29.4181818,31.7818182 29.4909091,31.8181818 C29.5636364,31.9636364 29.4909091,32.1818182 29.3818182,32.1818182 L29.3454545,32.1454545 C29.6,32.5454545 29.6,33.0909091 29.5272727,33.6363636 C29.4909091,34.1454545 29.4909091,34.6545455 29.7090909,34.9818182 L29.6727273,34.9454545 L30,35.6727273 C30,36.0363636 29.8181818,35.4909091 29.7454545,35.7454545 C30.2181818,36.5090909 29.8181818,37.0181818 30.1090909,37.6727273 C29.8545455,37.9636364 29.8545455,38.4 29.9272727,38.8727273 C30,39.3454545 30.0727273,39.8545455 29.8545455,40.2181818 L30,40.1818182 C30.1454545,40.3636364 29.9272727,40.4 29.8909091,40.5454545 C30,40.5454545 30.0363636,40.3636364 30.1090909,40.4727273 C30.1454545,40.8727273 30.1454545,41.2363636 30.1454545,41.6363636 C30.1090909,42.0363636 30.0363636,42.4363636 30,42.8363636 C29.9272727,43.2363636 29.8545455,43.6363636 29.7454545,44.0363636 C29.6727273,44.4363636 29.5636364,44.8363636 29.4909091,45.2 C29.3818182,45.7818182 30.1818182,45.6 29.7454545,46.2909091 L29.5272727,46.0363636 C29.7090909,47.2363636 29.1272727,48.3636364 29.1636364,49.5636364 C29.1272727,49.4909091 29.0545455,49.4545455 29.0545455,49.3454545 C28.8363636,49.5272727 28.8363636,50.2181818 28.9818182,50.2545455 C28.9090909,50.4363636 28.8363636,50.2545455 28.7272727,50.3636364 C28.5454545,50.5818182 28.8,51.0181818 28.6181818,51.0909091 C28.5818182,51.0909091 28.5818182,51.0181818 28.5818182,50.9454545 C28.6181818,51.1272727 28.3636364,51.6727273 28.6181818,51.5636364 C28.4,51.9636364 28.5090909,52.4 28.2909091,52.6909091 C28.4727273,52.9818182 27.9636364,53.3818182 28.2909091,53.5272727 C27.9636364,53.3818182 27.7818182,54.1818182 27.8909091,54.4727273 C27.8181818,54.3636364 27.7090909,54.6545455 27.6,54.5090909 C27.5272727,54.8 27.4909091,55.0909091 27.7090909,55.0909091 C27.1272727,55.5272727 27.6727273,56.2909091 27.0545455,56.4363636 C26.9454545,57.3818182 26.8,58.2545455 26.6181818,59.0545455 C26.2909091,58.9090909 26.9090909,58.1818182 26.5090909,58.0727273 C26.4,58.8727273 26.5090909,59.4181818 26.1818182,60.1090909 C26.0727273,60.2909091 26.0727273,59.9636364 26.0363636,59.8545455 C25.8909091,60.6545455 25.4909091,61.3090909 25.4181818,62.0363636 C25.3818182,62.0363636 25.3818182,61.9272727 25.3818182,61.8545455 C25.3454545,62 25.2,62.1454545 25.3818182,62.1818182 L25.3818182,62.0363636 C25.6727273,61.9272727 25.6363636,62.7272727 25.7454545,62.8 C25.3818182,62.4 25.3818182,63.4181818 24.9818182,62.8363636 C24.9818182,62.9454545 25.0181818,63.0545455 25.1272727,63.0909091 C25.0545455,63.2 24.9818182,63.2363636 24.9090909,63.0545455 C24.8,63.5636364 25.0545455,63.4545455 24.8727273,63.8545455 C24.8,63.8181818 24.8,63.7454545 24.7272727,63.6363636 C24.8,63.8909091 24.8363636,64.1818182 24.6545455,64.5090909 C24.6181818,64.4727273 24.5454545,64.4727273 24.5818182,64.4 C24.3636364,65.0181818 24.5454545,65.6 24.1454545,66.2181818 C23.8909091,65.8909091 23.9636364,66.4 23.6727273,66.3272727 L23.6,66.7272727 L23.7818182,66.6545455 C23.6363636,66.9818182 23.7454545,67.3454545 23.5272727,67.5636364 L23.4909091,67.2727273 L23.3090909,67.8909091 L23.5636364,67.6 C23.5636364,67.9636364 23.9272727,67.7090909 23.6727273,68.1090909 C23.6727273,68 23.5272727,68.4363636 23.3090909,68.5090909 C23.3454545,68.6909091 23.3454545,68.9090909 23.2,69.0909091 C23.0909091,69.1272727 22.9090909,68.9090909 22.8363636,68.9454545 C23.0181818,69.2 22.5818182,69.7090909 22.7636364,70 C22.7272727,69.9272727 22.5818182,69.8545455 22.5454545,69.8545455 L22.6909091,70.0727273 C22.5818182,70.1818182 22.5454545,70.2181818 22.4363636,70.1454545 C22.2181818,70.5818182 22.8363636,70.1454545 22.4727273,70.6181818 C22.4727273,70.5818182 22.4363636,70.5818182 22.4363636,70.4727273 C22.1454545,70.9454545 22.1454545,71.5272727 21.8181818,71.9636364 C21.4909091,72 21.9272727,71.5272727 21.6363636,71.5636364 C21.3818182,72.2545455 21.3454545,73.1272727 20.9818182,73.7818182 L21.0545455,73.6727273 C21.3818182,73.9272727 20.6545455,74.0727273 20.6909091,74.5090909 C20.6909091,74.4 20.5090909,74.2909091 20.5454545,74.3636364 C20.2909091,74.8 20.2181818,75.3454545 20.0363636,76.0727273 L19.9636364,75.9272727 C19.7454545,76.1454545 19.6,76.6181818 19.4181818,76.8727273 C19.4909091,77.0181818 19.3818182,77.1636364 19.5636364,77.1272727 C18.6181818,77.7454545 19.0545455,78.9454545 18.2545455,79.5272727 C18.2909091,79.4181818 18.2909091,79.2727273 18.2545455,79.3454545 L18.0363636,80.0727273 C18.2181818,80.1090909 18.1818182,80.0363636 18.3636364,79.9636364 C18.4363636,80.1090909 18.4,80.3272727 18.3272727,80.4727273 C18.3636364,80.1090909 18.0727273,80.3636364 17.8909091,80.4363636 C17.9636364,80.4363636 18,80.5090909 18.0363636,80.5090909 C17.5636364,80.7272727 18.3272727,80.7272727 17.9272727,81.0909091 L17.8545455,81.0181818 C17.8181818,81.2 17.8545455,81.4181818 17.7454545,81.6 C17.5272727,81.6 17.7454545,81.3818182 17.6,81.2727273 C17.4909091,81.5636364 17.7090909,81.9636364 17.3818182,82.1454545 C17.3818182,82 17.4545455,81.8545455 17.4545455,81.7090909 C17.0909091,81.8545455 17.1272727,81.9272727 17.0181818,82.1090909 L16.6909091,82.5090909 L16.8,82.4363636 C17.1272727,83.0181818 16.5454545,83.1636364 16.6545455,83.7818182 C16.5818182,83.2 16.5090909,83.6363636 16.3272727,83.4909091 C16.2181818,83.5636364 16.0363636,83.7090909 16.0363636,83.6363636 C16.1090909,83.9272727 15.7090909,83.9272727 15.8181818,84.3636364 C15.7454545,84.3272727 15.7090909,84.5818182 15.5636364,84.4363636 C15.4909091,84.7272727 15.7090909,84.4363636 15.7818182,84.5090909 C15.8181818,85.0545455 14.9818182,85.3454545 14.9818182,86.1454545 C14.8363636,86.7272727 15.0181818,86.9454545 14.8727273,87.4909091 C14.6909091,87.6 14.6909091,87.2363636 14.6909091,87.2363636 C14.4363636,87.4545455 14.3636364,87.6727273 14.2909091,87.9272727 C14.2545455,87.8545455 14.1818182,87.8545455 14.0727273,87.8909091 C13.9636364,88.1090909 14.2545455,88.1454545 14,88.3636364 C13.9636364,88.2909091 13.8545455,88.1454545 13.8181818,88 C13.7454545,88.2545455 13.7454545,88.5818182 13.6727273,88.8363636 C13.5272727,88.8363636 13.5636364,88.5818182 13.5272727,88.4727273 C13.4181818,88.7636364 13.2363636,89.2363636 13.3818182,89.4181818 L13.5272727,89.2727273 C13.4909091,89.3818182 13.3454545,89.2363636 13.3454545,89.1272727 C13.3454545,88.8 13.6,88.8363636 13.6727273,88.8363636 L13.6363636,89.0181818 C14.1454545,89.0545455 13.9636364,88.2909091 14.1818182,87.9636364 L14.4,88.2545455 L14.3636364,87.7818182 C14.4727273,87.7454545 14.6545455,87.7818182 14.6181818,87.9636364 C14.9090909,87.7818182 14.6545455,87.6727273 14.9090909,87.5636364 C14.9454545,87.5636364 14.9454545,87.5636364 14.9454545,87.6 L14.9818182,87.3090909 C15.0181818,87.3818182 15.2,87.3818182 15.0909091,87.4909091 C15.4909091,87.1272727 15.2363636,86.6545455 15.5636364,86.6181818 L15.5636364,86.6545455 C15.7818182,86 15.3818182,86.4727273 15.3818182,85.8909091 L16.0727273,85.8545455 L15.8909091,85.6727273 C15.9272727,85.6 16,85.4909091 16.0727273,85.5636364 C16.0363636,85.2363636 15.9636364,85.5636364 15.8909091,85.3454545 C16.2545455,85.1272727 16.2181818,84.4727273 16.6181818,84.5454545 C16.5090909,84.3636364 16.3272727,84.7636364 16.4,84.4 C16.8363636,84.5090909 16.5454545,84 16.8363636,83.7818182 C16.9818182,83.9636364 16.7636364,84.1818182 17.0545455,84 C16.8,83.6727273 17.4181818,83.4909091 17.4545455,83.2363636 C17.2,83.0909091 17.6,82.6545455 17.7090909,82.2181818 C17.7818182,82.2909091 18.2181818,81.5272727 18.5090909,81.2 L18.5454545,81.2363636 C18.3272727,81.0545455 18.5454545,80.6909091 18.6181818,80.3636364 C18.7636364,80.4363636 18.8,80.5454545 18.8,80.7272727 L18.9090909,80.4727273 C18.8363636,80.3636364 18.8363636,80.2545455 18.9090909,80.0727273 L19.0909091,80.2181818 C19.2363636,79.8545455 19.2,79.4181818 19.5272727,79.0181818 C19.3454545,78.9090909 18.8363636,79.1272727 18.9454545,78.6181818 C19.0545455,78.6545455 19.2363636,78.7272727 19.2,78.8363636 C19.2,78.8 19.2,78.6545455 19.2727273,78.5818182 L19.3454545,78.8363636 C19.5272727,78.6545455 19.2727273,78.6545455 19.3454545,78.5090909 C19.4909091,78.5818182 19.4909091,78.4363636 19.6,78.5090909 C19.6,78.5454545 19.4909091,78.6181818 19.4909091,78.7272727 C19.6,78.5454545 19.7818182,78.3636364 19.9272727,78.3272727 C19.8545455,78.2909091 19.7454545,78.2545455 19.7818182,78.1090909 C19.9272727,77.7454545 20,78.0727273 20.1818182,77.8909091 C20.1090909,77.7454545 20.3272727,77.5636364 20.1090909,77.4909091 C20.1454545,77.3818182 20.2545455,77.4181818 20.3272727,77.4181818 C20.3272727,77.2 20.6909091,76.5454545 20.3636364,76.6545455 L20.3272727,76.6909091 C20.3272727,76.6909091 20.3272727,76.6545455 20.3272727,76.6545455 C20.4,75.9636364 21.0181818,75.4545455 21.2,74.8363636 L21.2727273,74.8727273 C21.3454545,74.4727273 21.5636364,74.0727273 21.5272727,73.7454545 C21.5636364,73.6363636 21.7818182,73.5636364 21.8181818,73.6363636 C21.8909091,73.3454545 21.8181818,73.2727273 22.1090909,72.9454545 C22.1090909,73.2727273 22.2545455,72.9090909 22.0727273,73.2727273 C22.2909091,72.9454545 22.4363636,72.9090909 22.4,72.4363636 C22.5090909,72.6545455 22.7636364,72.2545455 22.7636364,72.0727273 L22.5090909,72.2545455 C22.5818182,72.0363636 22.6545455,71.8909091 22.7272727,71.7454545 L22.9454545,71.9272727 C23.5636364,71.3090909 22.9818182,70.4 23.7454545,70.0363636 C23.6727273,69.7818182 23.4545455,70.4 23.3454545,70.1090909 C23.5272727,69.7818182 24.0363636,69.6 24.0727273,69.4909091 C24.4,69.0909091 23.8909091,68.9090909 24.1818182,68.4727273 C24.0727273,68.5090909 23.8181818,68.4727273 23.8909091,68.0727273 C24.0727273,67.7454545 24.4363636,67.8181818 24.4,68.0363636 C24.3636364,68.1090909 24.3272727,68.1454545 24.2909091,68.1454545 C24.2909091,68.2545455 24.2545455,68.4363636 24.4,68.3272727 L24.3272727,68.2545455 C24.4727273,68.1090909 24.6545455,67.6363636 24.7636364,67.8181818 C24.8,67.5272727 24.6545455,67.6363636 24.5454545,67.8181818 C24.8363636,67.4181818 24.8363636,67.1272727 25.0909091,66.7272727 C25.0181818,66.7636364 24.8727273,66.8 24.9090909,66.7272727 C25.2727273,66.1090909 24.8727273,66.3636364 25.0181818,65.9272727 C25.2363636,65.7454545 25.3090909,66.1454545 25.3818182,65.6363636 C25.6,65.3818182 25.6363636,65.6727273 25.6727273,65.8181818 C25.6727273,65.3454545 26.0727273,65.0909091 26.2181818,64.8727273 L26.2181818,65.1272727 C26.2181818,64.9818182 26.2545455,64.8727273 26.3272727,64.7636364 L26.1090909,64.8363636 C26.1818182,64.7272727 26.2181818,64.6181818 26.2909091,64.6545455 C26.2181818,64.4727273 25.9636364,64.6545455 25.8909091,64.3272727 C26.0363636,64.1818182 26,63.7818182 26.2545455,63.8181818 C25.9636364,64.3272727 26.5090909,63.8545455 26.3636364,64.3272727 C26.3636364,64.2181818 26.4,64.1090909 26.4727273,64 C26.5090909,64 26.5090909,64.0363636 26.5090909,64.0727273 C26.9090909,63.6363636 26.3272727,63.7454545 26.5454545,63.2 C26.6545455,63.3090909 26.8363636,63.1636364 26.8363636,63.0909091 C26.7636364,63.3090909 26.5818182,63.1272727 26.5454545,62.8727273 C26.7636364,62.5818182 26.6181818,62.4727273 26.6909091,62.2909091 L26.5818182,62.4727273 C26.4727273,62.3636364 26.5454545,62.1818182 26.6181818,61.9272727 C26.7272727,61.9272727 26.6181818,62.1818182 26.6909091,62.1090909 C26.5454545,61.7454545 27.1636364,61.6 27.1272727,61.1636364 C27.2727273,61.0181818 27.3818182,61.2363636 27.4909091,61.0909091 C27.4545455,60.6181818 27.8181818,60.6909091 27.8545455,60.2181818 C27.6363636,60.2909091 27.6727273,60.3272727 27.6,59.9636364 L27.4545455,60.7272727 L27.3454545,60.1818182 C27.2727273,60.4 27.3090909,60.6909091 27.2363636,60.8 C27.1636364,60.5454545 27.2,60.5818182 27.0181818,60.6181818 C27.3818182,60.4363636 27.0545455,59.9636364 27.3818182,59.7090909 L27.8181818,59.8909091 C28.1818182,59.4545455 27.9272727,58.9090909 28.2545455,58.2545455 L28.1090909,58.4363636 C27.9636364,58.2909091 28.2181818,58 28.2181818,57.7818182 C28.3636364,57.8545455 28.4727273,57.7454545 28.5818182,57.6727273 C28.4727273,57.6363636 28.7636364,57.2 28.4727273,57.0181818 L28.7636364,56.7636364 C29.0181818,56.2545455 28.5454545,56 28.7636364,55.4909091 C28.8727273,55.7090909 29.0545455,55.4909091 29.0545455,55.8909091 C29.1272727,55.7090909 29.2,55.5636364 29.0909091,55.5272727 C29.2,55.4545455 29.0181818,54.9818182 29.2363636,54.8727273 C29.2,54.7636364 29.0545455,54.6909091 29.1272727,54.5090909 C29.1636364,54.5090909 29.2,54.5454545 29.2,54.5454545 C29.1272727,54.5090909 29.2,54.2181818 28.9818182,54.3272727 C29.6,53.9272727 29.4181818,52.8 29.9272727,52.4363636 C29.9636364,52.0363636 30.0363636,51.5636364 30.1090909,51.2 C30.1454545,51.2363636 30.1818182,51.2363636 30.1454545,51.2727273 C30.4,50.8363636 29.7818182,50.8727273 30.0727273,50.3636364 C30.4,50.1454545 30.1454545,50.6909091 30.2545455,50.5454545 C30.7636364,50.5818182 30.3636364,49.8545455 30.7272727,49.5272727 L30.7272727,49.6363636 C30.9454545,49.3818182 30.6909091,48.8727273 30.8,48.4363636 C30.8,48.4363636 30.8363636,48.4727273 30.8727273,48.4363636 C30.6545455,48.0727273 30.7272727,47.4545455 30.6909091,46.9818182 C30.8727273,47.1636364 30.7636364,47.2 30.9818182,47.1636364 C30.9818182,46.9454545 30.6545455,47.1636364 30.6545455,46.7636364 C30.8,46.6545455 30.9090909,46.3636364 31.1272727,46.3636364 L31.0909091,46.7636364 C31.3818182,46.6181818 31.1636364,46.2545455 31.2363636,46.0727273 L31.3454545,46.1090909 C31.3818182,45.4909091 31.0909091,45.4545455 31.1636364,44.8363636 L31.0545455,44.9090909 C30.7636364,44.5454545 31.2727273,44.6181818 31.0545455,44.2545455 L31.3818182,44.1818182 C31.3454545,43.9272727 31.1636364,43.3454545 31.1272727,42.9454545 C31.3454545,43.2 31.4545455,43.7090909 31.5272727,44 C31.5636364,43.7818182 31.5636364,43.2 31.4181818,43.0909091 C31.4545455,43.2 31.5272727,43.3090909 31.4545455,43.3818182 C31.2363636,43.0909091 31.1272727,42.6909091 31.1636364,42.2545455 C31.4545455,42.3272727 31.5272727,42 31.5636364,41.6727273 C31.6,41.3090909 31.6,40.9090909 31.8181818,40.7636364 C31.6,39.9272727 31.8909091,39.1272727 31.8181818,38.1818182 C31.3454545,38.5454545 31.7818182,37.8909091 31.3090909,38 C31.2727273,37.7818182 31.2727273,37.7090909 31.2727273,37.6727273 L31.4909091,36.9818182 C31.6,36.8 31.6,37.2 31.7090909,37.1636364 C31.7090909,36.6545455 31.8909091,36.9454545 32,36.6181818 C31.8181818,36.6909091 31.7454545,36.4727273 31.7818182,36.1818182 L31.6,36.5818182 C31.2727273,35.9272727 31.9272727,35.9636364 31.6,35.2727273 L31.7818182,35.4545455 C31.6363636,35.1272727 31.6,34.1454545 31.1636364,33.8909091 C31.2,33.8181818 31.3090909,33.7090909 31.3818182,33.8545455 C31.3454545,33.4181818 31.1636364,32.9818182 30.9818182,32.5818182 C30.8,32.1818182 30.6545455,31.7818182 30.6909091,31.4181818 L30.8363636,31.4545455 C30.7636364,31.3090909 30.5454545,31.2363636 30.6181818,31.0181818 C30.6545455,31.0181818 30.7636364,31.0545455 30.7272727,30.9818182 C30.6545455,30.9090909 30.4,30.6181818 30.4,30.4 L30.5818182,30.5454545 C30.5454545,30.1090909 30.3636364,29.8545455 30.1818182,29.6 C30,29.3454545 29.7454545,29.1272727 29.6,28.8 C29.9272727,28.6909091 29.8181818,28.0363636 29.7454545,27.7090909 L29.7818182,27.7090909 C29.4545455,26.8 28.9090909,26.2909091 28.4,25.5636364 C28.5090909,24.9090909 27.7090909,23.8181818 27.4545455,22.9454545 C27.4545455,23.0909091 27.2,23.0545455 27.0909091,22.9454545 C27.0545455,22.7272727 26.5818182,22.5818182 26.8727273,22.4363636 L26.9090909,22.5090909 C27.0909091,22.2181818 26.8,21.8909091 26.6545455,21.6 L26.2545455,21.7818182 C26.2909091,21.2727273 25.9272727,20.8 25.5636364,20.4 C25.2,20 24.8727273,19.6727273 24.9454545,19.3090909 C24.7272727,19.2 24.5818182,18.9818182 24.3636364,18.8727273 L24.5454545,18.7636364 C24.2181818,18.2545455 24.0727273,18.0363636 23.6,17.4909091 L23.8181818,17.4909091 C23.5636364,17.1636364 22.9818182,17.4909091 22.7272727,17.2363636 L22.9090909,16.9454545 C22.6909091,16.6909091 22.5090909,16.3636364 22.2909091,16.0727273 C22.0727273,15.7818182 21.8545455,15.5272727 21.4909091,15.3818182 C21.5272727,15.3454545 21.6363636,15.3090909 21.7090909,15.3818182 C21.6,15.2727273 21.4181818,14.9818182 21.2363636,14.8 C21.0545455,14.6181818 20.8727273,14.5090909 20.7272727,14.6909091 C20.9454545,14.4727273 20.2545455,14.1454545 19.8909091,13.9636364 L20.0727273,13.8545455 C19.6363636,13.8181818 19.6,13.8545455 19.2,13.6363636 C19.1272727,13.5272727 19.2727273,13.4545455 19.3090909,13.6 C19.1272727,13.2727273 18.9818182,13.5636364 18.7272727,13.2 L18.9454545,13.2 C18.6909091,12.9454545 18.6545455,13.0181818 18.4,12.9818182 C18.1818182,12.8727273 17.9272727,12.4727273 18.0363636,12.2909091 C17.9272727,12.3636364 17.6727273,12.3272727 17.5272727,12.1454545 C17.5636364,12.0727273 17.6363636,12.0727273 17.6727273,12.1090909 C17.3090909,11.6 16.8363636,11.7090909 16.6545455,11.2727273 C16.6909091,11.2 16.6909091,11.1636364 16.6909091,11.1272727 C17.0545455,11.4545455 17.3090909,11.7090909 17.2727273,11.7090909 C17.4181818,11.5636364 17.1272727,11.2727273 17.5636364,11.2727273 C17.2363636,11.1636364 16.6181818,11.0545455 16.3636364,10.7636364 C16.3636364,10.7272727 16.3636364,10.7272727 16.3636364,10.6909091 L16.4,10.6909091 C16.3636364,10.6181818 16.2909091,10.5818182 16.1818182,10.5454545 C16.1090909,10.4363636 16.0727273,10.3636364 15.9636364,10.2909091 C16.0363636,10.1454545 15.6727273,9.92727273 15.5272727,9.81818182 C15.3818182,10 15.2363636,9.81818182 15.2727273,10.1090909 C15.2727273,10.0727273 15.3090909,10.1090909 15.4181818,10.1818182 C15.4545455,10.1818182 15.4909091,10.2181818 15.4909091,10.2181818 C15.4909091,10.2181818 15.4909091,10.2181818 15.4545455,10.2181818 C15.5636364,10.2909091 15.6727273,10.4 15.8181818,10.5090909 C15.6363636,10.5090909 15.4545455,10.4727273 15.3454545,10.2181818 C15.1636364,10.2545455 15.0181818,10.2909091 14.9090909,10.3272727 C14.9090909,9.92727273 14.6181818,9.45454545 14.6909091,9.27272727 C14.1454545,9.01818182 13.5636364,8.47272727 12.9818182,8.58181818 C12.8,8.50909091 12.9090909,8.36363636 12.9090909,8.29090909 C13.0181818,8.32727273 13.0909091,8.4 13.1636364,8.36363636 C12.8363636,8.25454545 12.3636364,7.78181818 12.1090909,7.96363636 C11.8545455,7.6 12.4727273,7.89090909 11.9636364,7.56363636 L12.0727273,7.52727273 C11.7454545,6.98181818 11.2727273,6.87272727 10.7636364,6.72727273 C10.2909091,6.58181818 9.78181818,6.43636364 9.45454545,5.81818182 C9.49090909,5.89090909 9.52727273,5.92727273 9.52727273,6 C8.50909091,4.94545455 6.94545455,4.54545455 5.96363636,3.41818182 C5.67272727,3.12727273 5.52727273,3.27272727 5.23636364,3.23636364 L5.30909091,2.98181818 L4.8,2.98181818 C4.18181818,2.83636364 4.21818182,1.92727273 3.38181818,1.85454545 L3.38181818,2.03636364 C3.16363636,1.85454545 2.61818182,1.67272727 2.72727273,1.52727273 C2.69090909,1.52727273 2.54545455,1.63636364 2.50909091,1.49090909 L2.58181818,1.38181818 L1.89090909,1.23636364 C1.49090909,0.909090909 2.21818182,0.836363636 1.6,0.436363636 C1.34545455,0.327272727 0.727272727,0.327272727 0.763636364,0.472727273 C0.872727273,0.545454545 0.981818182,0.690909091 0.909090909,0.8 L0.654545455,0.727272727 C0.436363636,1.01818182 0.0727272727,1.23636364 0.472727273,1.78181818 L0.945454545,1.81818182 L0.981818182,2.03636364 L0.654545455,1.85454545 C0.763636364,2.10909091 0.945454545,2.03636364 1.12727273,2.03636364 C1.09090909,2.14545455 1.12727273,2.21818182 1.16363636,2.29090909 L1.70909091,2.21818182 C1.67272727,2.36363636 1.38181818,2.36363636 1.6,2.58181818 C1.85454545,2.54545455 1.6,2.21818182 1.92727273,2.29090909 C2.03636364,2.54545455 1.89090909,2.61818182 2.18181818,2.61818182 C2.14545455,2.72727273 2.07272727,2.72727273 1.96363636,2.72727273 C2.21818182,2.72727273 2.47272727,2.98181818 2.69090909,2.87272727 C2.76363636,3.16363636 3.34545455,3.2 3.12727273,3.49090909 C3.23636364,3.45454545 3.6,3.45454545 3.78181818,3.56363636 C3.23636364,3.70909091 4.4,3.96363636 4.07272727,4.32727273 C4.50909091,4.14545455 4.98181818,4.72727273 5.49090909,4.8 C5.45454545,4.8 5.38181818,4.83636364 5.34545455,4.8 C5.56363636,4.98181818 5.56363636,5.09090909 5.67272727,5.27272727 C5.85454545,5.01818182 6.25454545,5.2 6.54545455,5.16363636 C6.65454545,5.6 6.18181818,5.34545455 6.10909091,5.67272727 C6.21818182,5.45454545 6.72727273,5.78181818 6.76363636,5.52727273 C6.87272727,5.81818182 6.90909091,5.70909091 6.87272727,6 C7.12727273,5.70909091 7.09090909,6.07272727 7.41818182,6 C7.6,6.36363636 7.30909091,6.36363636 7.67272727,6.47272727 C8.32727273,6.76363636 7.96363636,6.65454545 7.96363636,6.65454545 Z M15.9272727,11.8909091 C15.9272727,11.8909091 15.9272727,11.8909091 15.9272727,11.8909091 C15.8545455,11.8545455 15.8181818,11.8181818 15.7818182,11.7818182 C15.7818182,11.7818182 15.8545455,11.8181818 15.9272727,11.8909091 Z M16.5454545,12.4 C16.4727273,12.3272727 16.4,12.2545455 16.2909091,12.1454545 C16.3272727,12.0727273 16.4,12.0363636 16.4363636,12.0727273 C16.3636364,12.1090909 16.4727273,12.2909091 16.5454545,12.4 Z M16.2545455,10.1090909 C16.3636364,10.1818182 16.3636364,10.2181818 16.3636364,10.2909091 C16.3272727,10.2545455 16.2545455,10.2181818 16.1818182,10.1818182 C16.1818182,10.1818182 16.1454545,10.1818182 16.1454545,10.1818182 C16.1818182,10.1454545 16.2181818,10.1090909 16.2545455,10.1090909 Z" id="Shape"></path>
                <path d="M15.9045455,10.1954545 C15.9045455,10.1954545 15.8545455,10.1954545 15.8545455,10.1454545 C15.8545455,10.1954545 15.8545455,10.2454545 15.9045455,10.2454545 C15.9545455,10.2454545 16.0045455,10.2454545 16.0045455,10.1954545 C15.9545455,10.2454545 15.9045455,10.2454545 15.9045455,10.1954545 Z" id="Shape"></path>
                <polygon id="Shape" points="23.65 20.7545455 23.7 20.7045455 23.6 20.6545455"></polygon>
                <path d="M17.9181818,80.6181818 C17.8681818,80.6181818 17.8681818,80.6181818 17.8181818,80.6681818 C17.8681818,80.6681818 17.8681818,80.6681818 17.9181818,80.6181818 Z" id="Shape"></path>
                <path d="M17.0863636,82.3272727 L16.8363636,82.6272727 C16.9363636,82.4772727 17.0363636,82.4272727 17.0863636,82.3272727 Z" id="Shape"></path>
                <path d="M16.2545455,83.6 C16.3045455,83.65 16.3045455,83.65 16.3545455,83.7 L16.2545455,83.6 Z" id="Shape"></path>
                <path d="M25.3818182,62.1626535 C25.3818182,62.1126535 25.3818182,62.1126535 25.3818182,62.0626535 C25.4318182,61.8626535 25.3818182,62.0126535 25.3818182,62.1626535 Z" id="Shape"></path>
                <path d="M23.3349099,68.8590909 C23.3349099,68.7590909 23.3349099,68.6090909 23.3349099,68.5090909 C23.2349099,68.6590909 23.1849099,68.7590909 23.3349099,68.8590909 Z" id="Shape"></path>
                <path d="M27.6,54.7045455 C27.65,54.7045455 27.6,54.7045455 27.6,54.7045455 C27.6,54.7045455 27.6,54.6545455 27.6,54.6545455 L27.6,54.7045455 Z" id="Shape"></path>
                <path d="M23.4954545,68.2181818 C23.3954545,68.3681818 23.3454545,68.4681818 23.3454545,68.6181818 C23.3954545,68.5181818 23.4454545,68.3681818 23.4954545,68.2181818 Z" id="Shape"></path>
                <path d="M13.2136364,89.1636364 L13.1636364,89.2636364 C13.1636364,89.2636364 13.2136364,89.2636364 13.2136364,89.3136364 L13.2136364,89.1636364 Z" id="Shape"></path>
                <path d="M13.2,89.2363636 L13.2,89.3363636 C13.2,89.3363636 13.2,89.2863636 13.2,89.2363636 Z" id="Shape"></path>
                <path d="M13.1692847,89.5590909 L13.2192847,89.3090909 C13.1692847,89.4090909 13.1192847,89.5090909 13.1692847,89.5590909 Z" id="Shape"></path>
                <path d="M14.2818182,87.5545455 L14.1818182,87.4545455 C14.1818182,87.5045455 14.2318182,87.5045455 14.2818182,87.5545455 Z" id="Shape"></path>
                <path d="M14.6425056,86.9818182 C14.5430954,87.0972028 14.1951597,87.2125874 14.1454545,87.4433566 L14.1951597,87.4818182 C14.0957494,87.3664336 14.6922107,87.1741259 14.6425056,86.9818182 Z" id="Shape"></path>
                <path d="M16.596195,85.2727273 L16.2181818,85.6727273 C16.3599368,85.6363636 16.5489434,85.6 16.4544401,85.7818182 C17.1632148,85.3454545 16.1709302,85.8181818 16.596195,85.2727273 Z" id="Shape"></path>
                <path d="M17.3518323,83.9570046 C17.2518323,84.3070046 17.5018323,84.0070046 17.5518323,84.0570046 C17.5518323,83.8570046 17.5518323,83.7570046 17.3518323,83.9570046 Z" id="Shape"></path>
                <path d="M22.0727273,73.8181818 L22.3227273,73.9681818 C22.3727273,73.7181818 22.2227273,73.9181818 22.0727273,73.8181818 Z" id="Shape"></path>
                <polygon id="Shape" points="22.0318182 71.4545455 21.7818182 71.6545455 21.9318182 71.8545455"></polygon>
                <polygon id="Shape" points="23.7818182 70.9681818 23.7818182 71.1181818 23.8818182 70.6181818"></polygon>
                <path d="M30.2045455,53.1636364 L29.8545455,53.1636364 C29.8545455,53.3636364 30.2045455,53.5136364 30.2045455,53.1636364 Z" id="Shape"></path>
                <path d="M31.4181818,45.1545455 C31.6181818,45.0712121 31.7181818,44.8212121 31.5681818,44.6545455 C31.5681818,44.8628788 31.4181818,45.0295455 31.4181818,45.1545455 Z" id="Shape"></path>
                <polygon id="Shape" points="26.5363636 21.4 26.7363636 21.55 26.4363636 21.2"></polygon>
            </g>
            <g id="Group" transform="translate(6.181818, 74.545455)">
                <path d="M0.652152615,0.218181818 C0.552152615,0.218181818 0.352152615,0.268181818 0.402152615,0.368181818 L0.752152615,0.318181818 L0.652152615,0.218181818 Z" id="Shape"></path>
                <path d="M0.218181818,0.839146568 C0.363636364,0.889146568 0.581818182,0.889146568 0.836363636,0.789146568 C0.581818182,0.789146568 0.654545455,0.739146568 0.363636364,0.739146568 C0.327272727,0.689146568 0.436363636,0.589146568 0.509090909,0.539146568 C0.436363636,0.539146568 0.545454545,0.389146568 0.363636364,0.439146568 C0.181818182,0.589146568 0.218181818,0.739146568 0.4,0.839146568 C0.363636364,0.789146568 0.290909091,0.789146568 0.218181818,0.839146568 Z" id="Shape"></path>
                <path d="M0.836363636,6.30454545 L0.886363636,6.25454545 C0.886363636,6.25454545 0.836363636,6.25454545 0.836363636,6.30454545 Z" id="Shape"></path>
                <path d="M1.15454545,9.75909091 C1.15454545,9.70909091 1.10454545,9.70909091 1.05454545,9.70909091 C1.10454545,9.70909091 1.10454545,9.75909091 1.15454545,9.75909091 Z" id="Shape"></path>
                <path d="M0.915151515,10.3772727 C0.915151515,10.3772727 0.915151515,10.3272727 0.915151515,10.3272727 C0.915151515,10.3272727 0.865151515,10.3272727 0.915151515,10.3772727 Z" id="Shape"></path>
                <path d="M0.863636364,6.29090909 L0.763636364,6.44090909 C0.913636364,6.39090909 0.863636364,6.34090909 0.863636364,6.29090909 Z" id="Shape"></path>
                <path d="M1.04545455,1.32272727 C1.04545455,1.32272727 0.995454545,1.27272727 0.945454545,1.27272727 C0.945454545,1.27272727 0.995454545,1.32272727 0.995454545,1.32272727 C1.04545455,1.32272727 1.04545455,1.32272727 1.04545455,1.32272727 Z" id="Shape"></path>
                <path d="M0.440909091,4.81363636 C0.390909091,4.76363636 0.340909091,4.76363636 0.290909091,4.76363636 L0.440909091,4.81363636 Z" id="Shape"></path>
                <path d="M0.181818182,3.68636364 C0.181818182,3.73636364 0.481818182,3.68636364 0.631818182,3.68636364 C0.481818182,3.68636364 0.431818182,3.68636364 0.431818182,3.63636364 C0.331818182,3.63636364 0.281818182,3.63636364 0.181818182,3.68636364 Z" id="Shape"></path>
                <path d="M0.231818182,1.79545455 L0.181818182,1.74545455 C0.181818182,1.74545455 0.181818182,1.79545455 0.231818182,1.79545455 Z" id="Shape"></path>
                <path d="M0.536363636,5.63636364 C0.486363636,5.63636364 0.436363636,5.63636364 0.436363636,5.68636364 C0.436363636,5.68636364 0.486363636,5.63636364 0.536363636,5.63636364 Z" id="Shape"></path>
                <path d="M19.6363636,17.4545455 C19.6363636,17.4545455 19.6363636,17.5045455 19.6363636,17.5045455 C19.6363636,17.5045455 19.6363636,17.4545455 19.6363636,17.4545455 Z" id="Shape"></path>
                <path d="M21.0318182,18.5818182 C20.9818182,18.6318182 20.9818182,18.7318182 20.9818182,18.7818182 L21.0318182,18.5818182 Z" id="Shape"></path>
                <path d="M0.733333333,11.4606061 C0.733333333,11.4606061 0.733333333,11.4606061 0.733333333,11.4606061 C0.683333333,11.4106061 0.733333333,11.4606061 0.733333333,11.4606061 Z" id="Shape"></path>
                <path d="M2.36469205,22.05 C2.41469205,21.65 2.81469205,22.05 2.81469205,21.6 C2.76469205,21.7 2.31469205,21.65 2.36469205,22.05 Z" id="Shape"></path>
                <path d="M1.01818182,1.34545455 C1.01818182,1.34545455 1.01818182,1.39545455 1.01818182,1.39545455 C1.01818182,1.39545455 1.01818182,1.39545455 1.01818182,1.34545455 Z" id="Shape"></path>
                <path d="M1.09090909,13.9409091 C1.14090909,13.9409091 1.19090909,13.8909091 1.24090909,13.8909091 C1.19090909,13.8909091 1.19090909,13.8909091 1.09090909,13.9409091 Z" id="Shape"></path>
                <path d="M1.25,12.0363636 L1.2,12.0863636 C1.25,12.0863636 1.25,12.0363636 1.25,12.0363636 Z" id="Shape"></path>
                <path d="M1.4969697,14.8727273 C1.4969697,14.9227273 1.4469697,14.9227273 1.4969697,14.9727273 C1.4969697,14.9727273 1.5469697,14.9727273 1.5469697,14.9727273 C1.4969697,14.9227273 1.4969697,14.8727273 1.4969697,14.8727273 Z" id="Shape"></path>
                <path d="M1.6,15.8818182 C1.6,15.8818182 1.65,15.8818182 1.65,15.8318182 L1.65,15.7818182 L1.6,15.8818182 Z" id="Shape"></path>
                <path d="M16.4727273,17.89959 C16.5227273,17.99959 16.5727273,18.04959 16.5727273,18.14959 C16.5227273,17.94959 16.7227273,17.79959 16.4727273,17.89959 Z" id="Shape"></path>
                <path d="M0.909090909,1.35909091 C1.00909091,1.35909091 1.00909091,1.35909091 1.05909091,1.35909091 C1.05909091,1.35909091 1.05909091,1.30909091 1.00909091,1.30909091 C0.959090909,1.35909091 0.909090909,1.35909091 0.909090909,1.35909091 Z" id="Shape"></path>
                <path d="M3.27272727,14.7272727 L3.27272727,14.9272727 C3.27272727,14.8772727 3.27272727,14.8272727 3.27272727,14.7272727 Z" id="Shape"></path>
                <path d="M9.34545455,19.3193182 C9.34545455,19.2693182 9.34545455,19.2693182 9.34545455,19.3193182 Z" id="Shape"></path>
                <path d="M3.36363636,15.3818182 C3.26363636,15.4318182 3.21363636,15.4818182 3.16363636,15.5318182 C3.21363636,15.5318182 3.21363636,15.5318182 3.26363636,15.5318182 L3.36363636,15.3818182 Z" id="Shape"></path>
                <path d="M17.5636364,17.4181818 C17.4181818,17.4181818 17.5272727,17.7090909 17.5272727,17.8909091 C17.3454545,18 17.4181818,17.6727273 17.3454545,17.5272727 C17.2363636,17.6 17.2,17.8909091 17.0909091,17.8909091 C17.0909091,17.8545455 17.0545455,17.8181818 17.0545455,17.7818182 C16.9454545,18.0363636 16.6909091,17.8545455 16.5818182,18.1454545 C16.5818182,18.1090909 16.5454545,18.1090909 16.5454545,18.0727273 C16.5818182,18.2181818 16.6181818,18.3636364 16.6181818,18.4727273 C16.5454545,18.4727273 16.5090909,18.6909091 16.4727273,18.4727273 C16.5090909,18.4727273 16.5090909,18.4 16.5090909,18.3272727 L16.4363636,18.4363636 C16.3272727,18.1818182 16.5090909,18.3272727 16.5090909,18.1090909 C16.3636364,18.2181818 16.2545455,18.4727273 16.1454545,18.4 C16.0727273,18.1454545 16.4,18.2545455 16.2181818,18.0727273 L16.4,18.1454545 C16.2181818,17.7454545 16.5090909,18.1454545 16.3272727,17.7090909 C16.1090909,17.6727273 16.1090909,17.8909091 15.8545455,17.8545455 C15.8181818,18 15.8909091,18.0727273 15.8909091,18.2181818 C15.6363636,18.5454545 15.5272727,17.6 15.3818182,17.9636364 C15.3454545,18.1454545 15.3818182,18.5090909 15.2,18.3272727 L15.2,18 C14.9818182,18 15.1636364,18.4363636 14.9090909,18.2909091 C14.9454545,18.1818182 15.0545455,18.1454545 15.0181818,18.1454545 C14.8363636,17.9272727 14.9454545,18.3272727 14.8363636,18.3636364 L14.7636364,18.1090909 C14.5454545,18.1818182 14.3272727,18.4363636 14.1090909,18.5090909 C14.1090909,18.4363636 14.1454545,18.3272727 14.0727273,18.2545455 C13.7818182,18.4363636 13.4181818,18.3636364 13.0545455,18.2545455 L12.9818182,18.5090909 C12.9454545,18.5090909 12.9090909,18.4 12.9454545,18.3636364 C12.8,18.2909091 12.9818182,18.5090909 12.9454545,18.6181818 C12.8727273,18.6545455 12.8363636,18.5090909 12.8727273,18.4363636 C12.6909091,18.6909091 12.3636364,18.9818182 12.1090909,18.7636364 L12.1454545,18.6909091 C11.9636364,18.6181818 12.0363636,19.2 11.8545455,19.0181818 L11.8909091,18.9818182 C11.4909091,18.9454545 11.1636364,19.2727273 10.8,18.9818182 C10.8363636,19.3090909 10.4,18.9090909 10.4727273,19.3818182 C10.2181818,19.2 10.2545455,19.0909091 9.92727273,19.0181818 C9.85454545,19.0181818 9.89090909,19.3454545 9.78181818,19.3818182 L9.70909091,19.1272727 L9.63636364,19.4181818 L9.49090909,19.1636364 L9.41818182,19.2363636 C9.45454545,19.2363636 9.52727273,19.3090909 9.52727273,19.3818182 C9.41818182,19.5272727 9.16363636,19.3090909 9.12727273,19.1636364 L8.83636364,19.4545455 C8.83636364,19.3454545 8.87272727,19.3090909 8.90909091,19.2363636 C8.8,19.5272727 8.83636364,18.9818182 8.69090909,19.2363636 C8.72727273,19.2727273 8.72727273,19.3818182 8.72727273,19.4181818 C8.61818182,19.3090909 8.43636364,19.3454545 8.29090909,19.4181818 L8.29090909,19.2363636 C8.03636364,19.2363636 7.78181818,19.4181818 7.52727273,19.4909091 C7.63636364,19.5272727 7.67272727,19.8181818 7.6,19.8909091 L7.52727273,19.6363636 C7.52727273,19.8181818 7.63636364,19.7090909 7.56363636,19.9272727 C7.45454545,19.9272727 7.41818182,19.6727273 7.45454545,19.5636364 L7.34545455,19.6727273 C7.30909091,19.6 7.34545455,19.5636364 7.30909091,19.4545455 C7.30909091,19.6363636 7.01818182,19.2363636 7.01818182,19.5272727 L6.98181818,19.4545455 C6.69090909,19.5272727 6.61818182,19.6363636 6.36363636,19.7090909 C6.4,19.9272727 6.32727273,19.8909091 6.29090909,20.0727273 C6.10909091,20.0363636 5.89090909,19.8909091 5.70909091,19.9636364 C5.6,20.1090909 5.70909091,20.1454545 5.67272727,20.2909091 C5.63636364,20.1090909 5.41818182,20.1454545 5.49090909,20 C5.27272727,20.0727273 5.2,20.1090909 4.94545455,20.3272727 C4.98181818,20.4 5.05454545,20.4363636 5.01818182,20.5090909 C4.98181818,20.5454545 4.87272727,20.4363636 4.87272727,20.3636364 L4.87272727,20.3272727 C4.72727273,20.5090909 4.50909091,20.4 4.32727273,20.2909091 C4.21818182,20.2545455 4.10909091,20.1818182 4.07272727,20.1818182 C4.03636364,20.1818182 4.03636364,20.1818182 4.03636364,20.2909091 L4.03636364,20.2545455 C4.03636364,20.2545455 4,20.3272727 4,20.3636364 C3.96363636,20.4363636 3.92727273,20.4727273 3.92727273,20.4727273 C3.89090909,20.4363636 4,20.3272727 4,20.1818182 C3.92727273,20.3636364 3.85454545,20.3636364 3.85454545,20.3272727 C3.81818182,20.2909091 3.85454545,20.2545455 3.74545455,20.3272727 C3.96363636,20.0363636 3.96363636,20.0363636 3.92727273,20.0363636 C3.89090909,20.0363636 3.81818182,20 4,19.9636364 L3.85454545,20 C3.78181818,20 3.81818182,19.9636364 3.85454545,19.9636364 C3.89090909,19.9272727 3.96363636,19.9272727 3.96363636,19.8909091 C3.85454545,19.9272727 3.85454545,19.9636364 3.78181818,19.9636364 C3.52727273,19.4545455 3.81818182,18.7636364 3.89090909,18.1818182 C3.89090909,17.9636364 3.16363636,18.1454545 3.45454545,17.8181818 L3.70909091,17.8545455 C3.34545455,17.4545455 3.63636364,16.9454545 3.30909091,16.5454545 C3.38181818,16.5818182 3.45454545,16.5454545 3.45454545,16.6181818 C3.63636364,16.5090909 3.41818182,16.2909091 3.27272727,16.2909091 C3.27272727,16.2181818 3.41818182,16.2545455 3.49090909,16.2181818 C3.6,16.1090909 3.23636364,16 3.41818182,15.9636364 C3.45454545,15.9636364 3.49090909,16 3.49090909,16 C3.38181818,15.9636364 3.49090909,15.7090909 3.27272727,15.7818182 C3.34545455,15.6 3.16363636,15.4909091 3.27272727,15.3454545 C3.01818182,15.2727273 3.38181818,15.0545455 3.01818182,15.0545455 C3.38181818,15.0181818 3.27272727,14.7272727 3.09090909,14.6545455 C3.2,14.6909091 3.2,14.5454545 3.34545455,14.5818182 C3.34545455,14.4727273 3.23636364,14.3636364 3.05454545,14.4 C3.45454545,14.1454545 2.65454545,14 3.2,13.8181818 C2.98181818,13.4909091 2.8,13.1636364 2.69090909,12.8727273 C3.05454545,12.8363636 2.76363636,13.2 3.12727273,13.1636364 C2.94545455,12.8727273 2.61818182,12.7272727 2.69090909,12.4363636 C2.72727273,12.3636364 2.83636364,12.4727273 2.90909091,12.4727273 C2.72727273,12.1818182 2.87272727,11.8909091 2.65454545,11.6363636 C2.69090909,11.6363636 2.72727273,11.6727273 2.76363636,11.6727273 C2.76363636,11.6363636 2.8,11.5636364 2.65454545,11.5636364 L2.69090909,11.6 C2.47272727,11.7090909 2.18181818,11.4545455 2.03636364,11.4545455 C2.50909091,11.4909091 2.14545455,11.2 2.72727273,11.2727273 C2.69090909,11.2363636 2.61818182,11.2 2.50909091,11.2363636 C2.54545455,11.2 2.58181818,11.1636364 2.72727273,11.2 C2.61818182,11.0181818 2.43636364,11.0909091 2.43636364,10.9454545 C2.50909091,10.9454545 2.54545455,10.9818182 2.65454545,10.9818182 C2.50909091,10.9090909 2.32727273,10.8363636 2.4,10.6909091 C2.43636364,10.6909091 2.50909091,10.6545455 2.50909091,10.7272727 C2.47272727,10.4727273 2.07272727,10.3636364 2.18181818,10.0727273 C2.54545455,10.1090909 2.29090909,9.96363636 2.58181818,9.92727273 L2.47272727,9.78181818 L2.32727273,9.85454545 C2.32727273,9.74545455 2.10909091,9.63636364 2.18181818,9.52727273 L2.32727273,9.6 L2.25454545,9.38181818 L2.14545455,9.52727273 C1.96363636,9.41818182 1.78181818,9.6 1.85454545,9.41818182 C1.89090909,9.45454545 1.85454545,9.30909091 2,9.2 C1.89090909,9.16363636 1.78181818,9.09090909 1.85454545,8.98181818 C1.96363636,8.94545455 2.18181818,8.98181818 2.25454545,8.94545455 C2,8.90909091 2.14545455,8.65454545 1.89090909,8.61818182 C1.96363636,8.65454545 2.10909091,8.61818182 2.14545455,8.61818182 L1.92727273,8.58181818 C2,8.50909091 2,8.50909091 2.14545455,8.50909091 C2.14545455,8.32727273 1.78181818,8.61818182 1.92727273,8.36363636 C1.92727273,8.36363636 1.96363636,8.36363636 2,8.4 C2.07272727,8.18181818 1.81818182,8 1.89090909,7.81818182 C2.18181818,7.70909091 2,7.96363636 2.21818182,7.89090909 C2.14545455,7.63636364 1.78181818,7.34545455 1.81818182,7.09090909 L1.78181818,7.12727273 C1.34545455,7.12727273 1.96363636,6.90909091 1.74545455,6.8 C1.78181818,6.83636364 2,6.8 1.92727273,6.8 C1.96363636,6.61818182 1.78181818,6.43636364 1.6,6.18181818 L1.70909091,6.21818182 C1.78181818,6.10909091 1.70909091,5.92727273 1.74545455,5.81818182 C1.63636364,5.78181818 1.63636364,5.74545455 1.49090909,5.78181818 C2.03636364,5.34545455 1.05454545,5.12727273 1.52727273,4.76363636 C1.52727273,4.8 1.63636364,4.83636364 1.63636364,4.8 L1.49090909,4.54545455 C1.30909091,4.58181818 1.38181818,4.58181818 1.27272727,4.69090909 C1.16363636,4.69090909 1.05454545,4.61818182 1.05454545,4.54545455 C1.2,4.65454545 1.34545455,4.50909091 1.45454545,4.43636364 C1.41818182,4.43636364 1.34545455,4.43636364 1.27272727,4.47272727 C1.56363636,4.29090909 0.909090909,4.50909091 1.09090909,4.29090909 L1.2,4.29090909 C1.12727273,4.21818182 1.01818182,4.18181818 1.01818182,4.10909091 C1.23636364,4.03636364 1.12727273,4.18181818 1.30909091,4.14545455 C1.27272727,4.03636364 0.872727273,4 1.05454545,3.85454545 C1.12727273,3.89090909 1.12727273,3.96363636 1.2,4 C1.41818182,3.85454545 1.34545455,3.85454545 1.38181818,3.74545455 L1.45454545,3.52727273 L1.38181818,3.6 C0.8,3.56363636 1.23636364,3.34545455 0.836363636,3.2 C1.2,3.30909091 1.05454545,3.2 1.27272727,3.16363636 C1.34545455,3.09090909 1.38181818,3.01818182 1.45454545,3.01818182 C1.23636364,2.98181818 1.56363636,2.83636364 1.27272727,2.76363636 C1.34545455,2.72727273 1.27272727,2.65454545 1.45454545,2.65454545 C1.38181818,2.54545455 1.34545455,2.69090909 1.23636364,2.72727273 C0.945454545,2.61818182 1.49090909,2.25454545 1.05454545,2.07272727 C0.872727273,1.89090909 0.581818182,1.89090909 0.436363636,1.74545455 C0.545454545,1.63636364 0.727272727,1.74545455 0.727272727,1.74545455 C0.8,1.6 0.763636364,1.52727273 0.654545455,1.45454545 C0.727272727,1.45454545 0.763636364,1.41818182 0.836363636,1.38181818 C0.8,1.30909091 0.545454545,1.38181818 0.618181818,1.27272727 C0.690909091,1.27272727 0.836363636,1.27272727 0.945454545,1.27272727 C0.836363636,1.2 0.690909091,1.12727273 0.581818182,1.05454545 C0.690909091,0.981818182 0.8,1.05454545 0.872727273,1.09090909 C0.8,0.981818182 0.690909091,0.836363636 0.472727273,0.836363636 L0.4,0.909090909 C0.363636364,0.872727273 0.581818182,0.836363636 0.618181818,0.872727273 C0.8,0.945454545 0.581818182,1.01818182 0.509090909,1.05454545 L0.436363636,0.981818182 C3.44021686e-14,1.16363636 0.581818182,1.23636364 0.581818182,1.41818182 L0.254545455,1.41818182 L0.545454545,1.49090909 C0.472727273,1.52727273 0.290909091,1.6 0.218181818,1.52727273 C0.0727272727,1.67272727 0.363636364,1.6 0.181818182,1.70909091 C0.145454545,1.70909091 0.145454545,1.70909091 0.109090909,1.70909091 L0.218181818,1.78181818 C0.145454545,1.78181818 4.47376511e-14,1.85454545 0.0363636364,1.78181818 C-0.109090909,2 0.327272727,2.03636364 0.109090909,2.14545455 L0.0727272727,2.14545455 C0.218181818,2.36363636 0.327272727,2.10909091 0.618181818,2.25454545 L0.0727272727,2.50909091 L0.327272727,2.47272727 C0.327272727,2.50909091 0.327272727,2.54545455 0.218181818,2.58181818 C0.4,2.65454545 0.327272727,2.54545455 0.472727273,2.58181818 C0.290909091,2.76363636 0.654545455,2.90909091 0.254545455,3.01818182 C0.436363636,3.01818182 0.363636364,2.87272727 0.509090909,2.98181818 C0.109090909,3.09090909 0.618181818,3.12727273 0.436363636,3.27272727 C0.218181818,3.27272727 0.327272727,3.16363636 0.145454545,3.30909091 C0.509090909,3.30909091 0.109090909,3.52727273 0.181818182,3.63636364 C0.472727273,3.6 0.327272727,3.81818182 0.472727273,3.96363636 C0.363636364,3.96363636 0.363636364,4.29090909 0.290909091,4.47272727 L0.254545455,4.47272727 C0.545454545,4.43636364 0.509090909,4.61818182 0.581818182,4.72727273 C0.4,4.76363636 0.327272727,4.72727273 0.254545455,4.69090909 L0.290909091,4.8 C0.4,4.8 0.436363636,4.83636364 0.472727273,4.90909091 L0.254545455,4.90909091 C0.290909091,5.05454545 0.545454545,5.16363636 0.436363636,5.34545455 C0.654545455,5.30909091 0.981818182,5.12727273 1.12727273,5.27272727 C1.01818182,5.30909091 0.836363636,5.34545455 0.8,5.27272727 C0.8,5.27272727 0.909090909,5.30909091 0.872727273,5.34545455 L0.690909091,5.30909091 C0.618181818,5.41818182 0.836363636,5.34545455 0.836363636,5.38181818 C0.690909091,5.41818182 0.727272727,5.45454545 0.618181818,5.45454545 C0.618181818,5.45454545 0.690909091,5.38181818 0.618181818,5.38181818 C0.618181818,5.45454545 0.509090909,5.56363636 0.4,5.6 C0.472727273,5.56363636 0.618181818,5.56363636 0.654545455,5.63636364 C0.690909091,5.78181818 0.472727273,5.70909091 0.4,5.81818182 C0.509090909,5.85454545 0.4,5.92727273 0.654545455,5.92727273 C0.654545455,5.96363636 0.545454545,6 0.509090909,6 C0.618181818,6.07272727 0.581818182,6.32727273 0.836363636,6.21818182 L0.836363636,6.18181818 C0.836363636,6.18181818 0.836363636,6.18181818 0.836363636,6.18181818 C1.09090909,6.4 0.763636364,6.69090909 0.909090909,6.90909091 L0.836363636,6.90909091 C0.945454545,7.05454545 0.945454545,7.23636364 1.12727273,7.30909091 C1.12727273,7.34545455 0.981818182,7.41818182 0.909090909,7.41818182 C0.981818182,7.52727273 1.05454545,7.52727273 0.945454545,7.70909091 C0.8,7.6 0.836363636,7.74545455 0.836363636,7.6 C0.8,7.74545455 0.654545455,7.78181818 0.909090909,7.92727273 C0.690909091,7.89090909 0.654545455,8.07272727 0.727272727,8.10909091 L0.872727273,8 C0.909090909,8.07272727 0.909090909,8.14545455 0.909090909,8.21818182 L0.654545455,8.21818182 C0.363636364,8.54545455 1.27272727,8.69090909 0.763636364,8.94545455 C0.945454545,9.01818182 0.872727273,8.76363636 1.09090909,8.8 C1.05454545,8.94545455 0.727272727,9.12727273 0.727272727,9.16363636 C0.618181818,9.34545455 1.12727273,9.30909091 1.05454545,9.49090909 C1.12727273,9.45454545 1.38181818,9.41818182 1.49090909,9.52727273 C1.45454545,9.67272727 1.12727273,9.74545455 1.01818182,9.67272727 C1.01818182,9.63636364 1.01818182,9.63636364 1.05454545,9.63636364 C1.01818182,9.6 0.981818182,9.52727273 0.872727273,9.6 L0.981818182,9.6 C0.909090909,9.67272727 0.909090909,9.85454545 0.763636364,9.81818182 C0.872727273,9.92727273 0.909090909,9.85454545 0.945454545,9.78181818 C0.836363636,9.96363636 0.981818182,10.0363636 0.909090909,10.2545455 C0.945454545,10.2181818 1.05454545,10.1818182 1.05454545,10.2181818 C0.981818182,10.4727273 1.23636364,10.3272727 1.30909091,10.4727273 C1.16363636,10.5818182 0.981818182,10.4727273 1.09090909,10.6545455 C1.01818182,10.7636364 0.836363636,10.6909091 0.763636364,10.6545455 C0.945454545,10.8 0.690909091,10.9818182 0.654545455,11.0545455 L0.581818182,10.9818182 C0.618181818,11.0181818 0.618181818,11.0545455 0.654545455,11.1272727 L0.836363636,11.0545455 C0.8,11.0909091 0.8,11.1636364 0.727272727,11.1636364 C0.872727273,11.2 1.01818182,11.0909091 1.2,11.1636364 C1.12727273,11.2363636 1.30909091,11.3454545 1.09090909,11.4181818 C1.16363636,11.2 0.836363636,11.4545455 0.8,11.3090909 C0.836363636,11.3454545 0.836363636,11.3818182 0.8,11.4181818 C0.763636364,11.4181818 0.763636364,11.4181818 0.727272727,11.4181818 C0.509090909,11.6363636 1.01818182,11.4909091 1.01818182,11.6727273 C0.872727273,11.6727273 0.763636364,11.7454545 0.8,11.7818182 C0.8,11.7090909 1.01818182,11.7090909 1.12727273,11.7818182 C1.01818182,11.9272727 1.23636364,11.9272727 1.2,12 L1.23636364,11.9272727 C1.38181818,11.9272727 1.38181818,12 1.41818182,12.1090909 C1.30909091,12.1454545 1.34545455,12.0363636 1.27272727,12.0727273 C1.52727273,12.1454545 1.05454545,12.3272727 1.23636364,12.4727273 C1.16363636,12.5454545 0.981818182,12.5090909 0.909090909,12.5818182 C1.09090909,12.7272727 0.727272727,12.7636364 0.909090909,12.9454545 C1.09090909,12.8727273 1.05454545,12.8727273 1.23636364,12.9818182 L1.09090909,12.7272727 L1.38181818,12.8727273 C1.38181818,12.8 1.23636364,12.6909091 1.27272727,12.6545455 C1.41818182,12.7272727 1.38181818,12.7272727 1.52727273,12.6545455 C1.27272727,12.8 1.70909091,12.8727273 1.52727273,13.0181818 L1.05454545,13.0545455 C0.872727273,13.2727273 1.34545455,13.3818182 1.23636364,13.6727273 L1.30909091,13.5636364 C1.49090909,13.5636364 1.34545455,13.7090909 1.41818182,13.7818182 C1.27272727,13.7818182 1.2,13.8545455 1.12727273,13.8909091 C1.23636364,13.8909091 1.12727273,14.0727273 1.45454545,14.0727273 L1.27272727,14.2181818 C1.2,14.4363636 1.74545455,14.4 1.70909091,14.6181818 C1.52727273,14.5818182 1.41818182,14.6909091 1.30909091,14.5454545 C1.30909091,14.6181818 1.27272727,14.6909091 1.38181818,14.6545455 C1.27272727,14.6909091 1.6,14.8363636 1.45454545,14.9090909 C1.52727273,14.9454545 1.67272727,14.9090909 1.67272727,15.0181818 C1.63636364,15.0181818 1.6,15.0181818 1.6,15.0181818 C1.67272727,15.0181818 1.70909091,15.1272727 1.89090909,15.0545455 C1.41818182,15.3090909 1.96363636,15.6363636 1.56363636,15.8545455 C1.63636364,16 1.70909091,16.1818182 1.70909091,16.2909091 C1.67272727,16.2909091 1.63636364,16.2909091 1.63636364,16.2545455 C1.49090909,16.4363636 2.10909091,16.3272727 1.96363636,16.5454545 C1.70909091,16.6909091 1.81818182,16.4363636 1.70909091,16.5090909 C1.2,16.5818182 1.81818182,16.7636364 1.52727273,16.9090909 L1.49090909,16.8727273 C1.30909091,16.9818182 1.70909091,17.1272727 1.70909091,17.3090909 C1.70909091,17.3090909 1.67272727,17.3090909 1.63636364,17.3090909 C1.92727273,17.4181818 2.03636364,17.6363636 2.10909091,17.7818182 C1.89090909,17.7454545 2,17.7090909 1.78181818,17.7818182 C1.81818182,17.8545455 2.10909091,17.7090909 2.18181818,17.8545455 C2.07272727,17.9272727 2,18.0363636 1.78181818,18.0727273 L1.74545455,17.9272727 C1.45454545,18.0363636 1.78181818,18.1090909 1.74545455,18.1818182 L1.63636364,18.1818182 C1.70909091,18.4 2,18.3636364 2,18.6181818 L2.07272727,18.5818182 C2.4,18.6909091 1.92727273,18.7272727 2.14545455,18.8 L1.85454545,18.8727273 C1.92727273,18.9454545 2.18181818,19.1272727 2.25454545,19.2727273 C2,19.2 1.89090909,19.0545455 1.70909091,18.9454545 C1.70909091,19.0181818 1.78181818,19.2363636 1.92727273,19.2727273 C1.89090909,19.2363636 1.81818182,19.2 1.85454545,19.1636364 C2.10909091,19.2363636 2.25454545,19.3454545 2.25454545,19.5272727 C1.63636364,19.5636364 2.14545455,20 1.70909091,20.1818182 C1.85454545,20.2909091 1.85454545,20.5454545 1.85454545,20.8 C1.85454545,20.9454545 1.85454545,21.0545455 1.89090909,21.2 C1.89090909,21.3454545 1.96363636,21.4545455 2.03636364,21.5636364 C2.32727273,21.0909091 2.10909091,21.7090909 2.47272727,21.3090909 C2.54545455,21.3818182 2.54545455,21.4181818 2.54545455,21.4545455 C2.54545455,21.4545455 2.54545455,21.4909091 2.54545455,21.5272727 C2.54545455,21.5636364 2.54545455,21.6363636 2.54545455,21.6727273 C2.54545455,21.7454545 2.58181818,21.7818182 2.58181818,21.8181818 C2.58181818,21.8545455 2.61818182,21.8909091 2.61818182,21.8909091 C2.61818182,22.0363636 2.47272727,21.9272727 2.4,22.0363636 C2.61818182,22.1818182 2.4,22.2545455 2.50909091,22.4363636 C2.54545455,22.2545455 2.72727273,22.2545455 2.83636364,22.3636364 C2.83636364,22.3636364 2.72727273,22.1090909 2.72727273,22.1090909 C2.94545455,22.0363636 2.98181818,22.1454545 3.05454545,22.2545455 C3.09090909,22.3636364 3.16363636,22.4727273 3.41818182,22.3272727 C3.41818182,22.3272727 3.38181818,22.3636364 3.34545455,22.4 C3.30909091,22.4363636 3.27272727,22.4727273 3.27272727,22.4727273 C3.34545455,22.4363636 3.41818182,22.4363636 3.52727273,22.4363636 C3.63636364,22.4363636 3.74545455,22.4 3.85454545,22.3636364 C4.07272727,22.2909091 4.29090909,22.2181818 4.29090909,22 C4.32727273,22.0363636 4.36363636,22.1818182 4.32727273,22.2181818 C4.65454545,22.2181818 4.94545455,21.6727273 5.23636364,21.8909091 L5.23636364,22 C5.27272727,21.9636364 5.30909091,21.7454545 5.38181818,21.8545455 C5.38181818,21.8909091 5.38181818,21.9636364 5.41818182,21.9636364 C5.45454545,21.9272727 5.52727273,21.7454545 5.6,21.7818182 L5.56363636,21.9272727 C5.89090909,22 5.96363636,21.5272727 6.18181818,21.3818182 C6.25454545,21.7090909 6.50909091,21.7818182 6.65454545,21.8181818 L6.65454545,21.8545455 C7.01818182,21.8181818 7.16363636,21.4545455 7.45454545,21.2363636 C7.74545455,21.5636364 8.14545455,21.2363636 8.50909091,21.3818182 C8.43636364,21.3454545 8.47272727,21.1272727 8.50909091,21.0545455 C8.58181818,21.0909091 8.65454545,20.7636364 8.72727273,21.0909091 L8.69090909,21.0909091 C8.8,21.3818182 8.94545455,21.2727273 9.05454545,21.2363636 L8.98181818,20.8363636 C9.41818182,21.3454545 9.74545455,20.4363636 10.0363636,20.9454545 C10.0727273,20.8363636 10.1818182,20.8 10.2181818,20.6909091 L10.2545455,20.9090909 C10.4727273,20.9090909 10.5818182,20.9090909 10.8363636,20.8 L10.8363636,20.9818182 C10.9818182,20.9818182 10.8727273,20.2909091 11.0181818,20.2545455 L11.1272727,20.5818182 C11.3818182,20.5090909 11.7090909,20.7636364 11.8909091,20.4 C11.8909091,20.4363636 11.9272727,20.5454545 11.8545455,20.5818182 C11.9636364,20.5818182 12.3636364,20.6909091 12.2181818,20.2545455 C12.2909091,20.5454545 12.4727273,20.2181818 12.5818182,20.0727273 L12.6181818,20.2909091 C12.6909091,20 12.6545455,19.9272727 12.8,19.8181818 C12.8363636,19.8545455 12.8727273,20 12.8,19.9272727 C12.9454545,20 12.8727273,19.7090909 13.0181818,19.7818182 L12.9818182,19.9272727 C13.1272727,19.9272727 13.0909091,19.8545455 13.1272727,19.6727273 C13.2,19.5636364 13.3818182,19.6727273 13.4545455,19.8545455 C13.4545455,19.7454545 13.4909091,19.5636364 13.5636364,19.6 C13.6,19.6727273 13.5636364,19.7090909 13.5636364,19.7454545 C13.8181818,19.8545455 13.8545455,19.4181818 14.0363636,19.6 C14.0363636,19.6727273 14.0727273,19.7090909 14.0727273,19.7090909 C13.8909091,19.7454545 13.7454545,19.7454545 13.7818182,19.7454545 C13.8181818,19.9636364 13.9636364,19.9636364 13.8909091,20.2545455 C13.9636364,20.0727273 14.1090909,19.7090909 14.2545455,19.7818182 C14.2545455,19.8181818 14.2909091,19.8181818 14.2909091,19.8545455 L14.2909091,19.8909091 C14.3272727,19.8909091 14.3636364,19.8909091 14.3636364,19.8545455 C14.4,19.8909091 14.4363636,19.8909091 14.4727273,19.8909091 C14.5090909,20.0363636 14.6545455,19.9636364 14.7272727,19.9636364 C14.6909091,19.7454545 14.7636364,19.7818182 14.6545455,19.6 C14.6545455,19.6 14.6545455,19.6363636 14.6181818,19.6363636 C14.6181818,19.6363636 14.5818182,19.6363636 14.5818182,19.6727273 L14.5818182,19.6363636 C14.5454545,19.6363636 14.4727273,19.6727273 14.4,19.6727273 C14.4363636,19.5636364 14.4727273,19.4545455 14.5818182,19.5636364 C14.5818182,19.4181818 14.6181818,19.2727273 14.6181818,19.2 C14.7636364,19.4909091 14.9818182,19.6363636 15.0545455,19.8181818 C15.2363636,19.6727273 15.5272727,19.6363636 15.6,19.2 C15.6363636,19.1272727 15.6727273,19.3090909 15.7090909,19.3818182 C15.6727273,19.4181818 15.6363636,19.4181818 15.6363636,19.4909091 C15.7454545,19.3818182 16,19.3818182 15.9636364,19.0909091 C16.1454545,19.2 15.9272727,19.3818182 16.1090909,19.3090909 L16.1090909,19.4181818 C16.5818182,19.8181818 16.6909091,18.5818182 17.2,19.1272727 C17.1636364,19.0909091 17.1636364,19.0909091 17.1272727,19.0181818 C17.6727273,19.2 18.1818182,18.6545455 18.7272727,19.0181818 C18.8727273,19.0909091 18.8727273,18.9090909 18.9454545,18.7636364 L18.9818182,19.0181818 L19.1272727,18.7272727 C19.3454545,18.5090909 19.5272727,19.3090909 19.7818182,18.9090909 L19.7454545,18.7636364 C19.8545455,18.8 20.0727273,18.6545455 20.0363636,18.8363636 C20.0363636,18.8 20.0727273,18.6545455 20.1090909,18.7636364 L20.1090909,18.8727273 L20.3636364,18.6545455 C20.5454545,18.7636364 20.3272727,19.1636364 20.5818182,19.2 C20.6909091,19.1636364 20.8727273,18.8363636 20.8363636,18.7636364 C20.8,18.7636364 20.7272727,18.6909091 20.7272727,18.5454545 L20.8363636,18.4727273 C20.8727273,18.1090909 20.9818182,17.7454545 20.7272727,17.4545455 L20.5454545,17.6727273 L20.5090909,17.4909091 L20.6545455,17.4909091 C20.5818182,17.3090909 20.5090909,17.4545455 20.4727273,17.5636364 C20.4727273,17.4545455 20.4363636,17.3818182 20.4,17.3454545 L20.2181818,17.7090909 C20.1818182,17.5636364 20.2909091,17.4181818 20.1818182,17.3454545 C20.1090909,17.5272727 20.2545455,17.6727273 20.1090909,17.7818182 C20.0363636,17.6 20.0363636,17.4909091 19.9636364,17.6363636 C19.9636364,17.5272727 19.9636364,17.4909091 20,17.4545455 C19.9272727,17.5636364 19.7818182,17.4909091 19.7454545,17.7090909 C19.6727273,17.4909091 19.4545455,17.7818182 19.4545455,17.4181818 C19.4181818,17.4909091 19.3090909,17.7090909 19.2363636,17.7090909 C19.3454545,17.2727273 18.9454545,17.7090909 18.9454545,17.2363636 C18.8727273,17.6363636 18.5818182,17.4181818 18.4,17.6363636 C18.4,17.6 18.4363636,17.5272727 18.4363636,17.5636364 C18.3272727,17.5272727 18.2909091,17.4181818 18.2181818,17.3818182 C18.2181818,17.7090909 18.0727273,17.7818182 18,17.9636364 C17.8545455,17.6727273 18.0363636,17.6 17.9636364,17.3090909 C18,17.5636364 17.7818182,17.5636364 17.8181818,17.7818182 C17.7090909,17.6 17.7090909,17.7090909 17.6363636,17.4545455 C17.6727273,17.8545455 17.5636364,17.5272727 17.4909091,17.7818182 C17.3454545,17.6 17.4181818,17.4181818 17.2727273,17.5636364 C17.4545455,17.5636364 17.5636364,17.4181818 17.5636364,17.4181818 Z M14.0727273,18.6181818 C14.0727273,18.6181818 14.0727273,18.6181818 14.0727273,18.6181818 C14.1090909,18.6181818 14.1090909,18.5818182 14.1454545,18.5818182 C14.1454545,18.6181818 14.1090909,18.6181818 14.0727273,18.6181818 Z M13.7818182,18.6909091 C13.8181818,18.6909091 13.8545455,18.6909091 13.9272727,18.6909091 C13.9636364,18.7636364 13.9636364,18.8363636 13.9272727,18.8363636 C13.9272727,18.7636364 13.8545455,18.7272727 13.7818182,18.6909091 Z M14.6909091,20.0727273 C14.6545455,20.1090909 14.6181818,20.0727273 14.6181818,20.0363636 C14.6545455,20.0363636 14.6545455,20 14.6909091,20 C14.6909091,20 14.6909091,19.9636364 14.6909091,19.9636364 C14.6909091,20.0363636 14.6909091,20.0727273 14.6909091,20.0727273 Z" id="Shape"></path>
                <path d="M14.7409091,19.8090909 C14.7409091,19.8090909 14.7409091,19.8090909 14.7409091,19.8090909 C14.7409091,19.7590909 14.7409091,19.7590909 14.6909091,19.7090909 C14.6909091,19.7590909 14.6909091,19.8090909 14.7409091,19.8090909 Z" id="Shape"></path>
                <path d="M0.872727273,6.21818182 C0.872727273,6.21818182 0.922727273,6.21818182 0.872727273,6.21818182 C0.922727273,6.21818182 0.872727273,6.21818182 0.872727273,6.21818182 Z" id="Shape"></path>
                <polygon id="Shape" points="9.63636364 19.1272727 9.63636364 19.1772727 9.68636364 19.1272727"></polygon>
                <path d="M1.38181818,4.48636364 C1.43181818,4.48636364 1.43181818,4.48636364 1.43181818,4.43636364 C1.43181818,4.48636364 1.43181818,4.48636364 1.38181818,4.48636364 Z" id="Shape"></path>
                <path d="M1.30909091,3.82272727 L1.40909091,3.67272727 C1.35909091,3.72272727 1.35909091,3.77272727 1.30909091,3.82272727 Z" id="Shape"></path>
                <path d="M1.38636364,3.2 C1.33636364,3.2 1.28636364,3.2 1.23636364,3.2 L1.38636364,3.2 Z" id="Shape"></path>
                <path d="M2.72727273,11.8545455 C2.72727273,11.8545455 2.72727273,11.8545455 2.72727273,11.8545455 C2.82727273,11.9545455 2.77727273,11.9045455 2.72727273,11.8545455 Z" id="Shape"></path>
                <path d="M1.92727273,9.35080416 C1.97727273,9.40080416 2.02727273,9.40080416 2.07727273,9.45080416 C2.12727273,9.35080416 2.12727273,9.30080416 1.92727273,9.35080416 Z" id="Shape"></path>
                <path d="M2.08295455,9.56818182 C2.13295455,9.51818182 2.13295455,9.46818182 2.08295455,9.41818182 C2.03295455,9.46818182 2.03295455,9.51818182 2.08295455,9.56818182 Z" id="Shape"></path>
                <path d="M0.955681818,0.846590909 C0.905681818,0.796590909 0.905681818,0.796590909 0.955681818,0.846590909 Z" id="Shape"></path>
                <path d="M0.919318182,0.8 C0.869318182,0.8 0.869318182,0.8 0.919318182,0.8 Z" id="Shape"></path>
                <path d="M0.8,0.727272727 L0.9,0.777272727 C0.9,0.777272727 0.9,0.727272727 0.8,0.727272727 Z" id="Shape"></path>
                <path d="M1.01818182,1.56363636 L1.11818182,1.56363636 C1.06818182,1.56363636 1.06818182,1.56363636 1.01818182,1.56363636 Z" id="Shape"></path>
                <path d="M1.10822896,1.86363636 C1.10822896,1.76363636 1.30822896,1.61363636 1.20822896,1.56363636 L1.10822896,1.56363636 C1.25822896,1.56363636 0.908228956,1.86363636 1.10822896,1.86363636 Z" id="Shape"></path>
                <path d="M0.385069242,2.94090909 L0.435069242,2.69090909 C0.335069242,2.74090909 0.185069242,2.84090909 0.135069242,2.74090909 C-0.164930758,3.14090909 0.335069242,2.64090909 0.385069242,2.94090909 Z" id="Shape"></path>
                <path d="M0.322727273,3.46392045 C0.222727273,3.36392045 0.172727273,3.51392045 0.0727272727,3.51392045 C0.222727273,3.56392045 0.222727273,3.61392045 0.322727273,3.46392045 Z" id="Shape"></path>
                <path d="M0.954545455,7.52727273 L0.654545455,7.52727273 C0.704545455,7.62727273 0.804545455,7.52727273 0.954545455,7.52727273 Z" id="Shape"></path>
                <polygon id="Shape" points="2.02727273 8.22272727 2.22727273 8.12272727 1.92727273 8.07272727"></polygon>
                <polygon id="Shape" points="0.631818182 8.8 0.581818182 8.8 0.731818182 8.95"></polygon>
                <path d="M1.38617677,15.7375932 L1.73617677,15.6875932 C1.68617677,15.5875932 1.28617677,15.6375932 1.38617677,15.7375932 Z" id="Shape"></path>
                <path d="M1.9747821,18.6545455 C1.8247821,18.7045455 1.7247821,18.8545455 1.8747821,18.9045455 C1.9247821,18.8045455 2.0247821,18.7045455 1.9747821,18.6545455 Z" id="Shape"></path>
                <polygon id="Shape" points="9.32272727 21.2727273 9.27272727 21.3727273 9.37272727 21.2727273"></polygon>
            </g>
        </g>
    </g>
</svg>
