<?xml version="1.0" encoding="UTF-8"?>
<svg width="230px" height="194px" viewBox="0 0 230 194" version="1.1" xmlns="http://www.w3.org/2000/svg" xmlns:xlink="http://www.w3.org/1999/xlink">
    <!-- Generator: Sketch 51.3 (57544) - http://www.bohemiancoding.com/sketch -->
    <title>Arrow5 (1)</title>
    <desc>Created with Sketch.</desc>
    <defs></defs>
    <g id="Page-1" stroke="none" stroke-width="1" fill="none" fill-rule="evenodd">
        <g id="Arrow5-(1)" fill="#484F57" fill-rule="nonzero">
            <path d="M4.55208333,193.361317 C4.55208333,193.600823 4.71180556,193.520988 4.87152778,193.041975 L4.79166667,192.562963 L4.55208333,193.361317 Z" id="Shape"></path>
            <path d="M6.22916667,190.247737 C6.30902778,189.609053 6.30902778,188.890535 5.98958333,189.130041 C5.98958333,189.768724 5.90972222,189.928395 5.90972222,190.646914 C5.75,191.125926 5.51041667,191.445267 5.43055556,191.365432 C5.43055556,191.525103 5.11111111,192.083951 5.19097222,192.403292 C5.59027778,191.844444 5.90972222,191.046091 6.06944444,190.088066 C6.14930556,189.928395 6.14930556,190.167901 6.22916667,190.247737" id="Shape"></path>
            <path d="M39.6909722,153.523457 L39.3715278,153.683128 C39.4513889,153.683128 39.6111111,153.603292 39.6909722,153.523457" id="Shape"></path>
            <path d="M68.7604167,142.186831 C68.5208333,142.266667 68.4409722,142.266667 68.4409722,142.346502 C68.6805556,142.266667 68.8402778,142.186831 68.7604167,142.186831" id="Shape"></path>
            <path d="M74.03125,141.228807 C73.9513889,141.228807 73.7916667,141.228807 73.7118056,141.308642 C73.8715278,141.308642 73.9513889,141.228807 74.03125,141.228807" id="Shape"></path>
            <path d="M39.6909722,153.523457 C39.9305556,153.363786 40.1701389,153.283951 40.4895833,153.204115 C40.4895833,153.12428 40.0104167,153.363786 39.6909722,153.523457" id="Shape"></path>
            <path d="M8.46527778,183.541564 C8.38541667,183.701235 8.30555556,183.860905 8.30555556,184.020576 C8.38541667,183.860905 8.46527778,183.701235 8.46527778,183.541564 C8.46527778,183.541564 8.46527778,183.541564 8.46527778,183.541564" id="Shape"></path>
            <path d="M28.4305556,161.506996 L28.2708333,161.666667 C28.2708333,161.746502 28.1909722,161.826337 28.1909722,161.906173 L28.4305556,161.506996 Z" id="Shape"></path>
            <path d="M20.6840278,168.692181 C20.84375,168.53251 20.7638889,168.293004 20.7638889,168.213169 C20.7638889,168.37284 20.6840278,168.53251 20.5243056,168.692181 C20.5243056,168.692181 20.6041667,168.692181 20.6840278,168.692181" id="Shape"></path>
            <path d="M10.3819444,181.865021 L10.3020833,182.104527 C10.3020833,182.024691 10.3819444,181.944856 10.3819444,181.865021" id="Shape"></path>
            <path d="M34.5798611,157.036214 C34.5798611,157.036214 34.6597222,157.036214 34.7395833,157.036214 C34.6597222,157.036214 34.6597222,157.036214 34.5798611,157.036214" id="Shape"></path>
            <path d="M212.75,9.97942387 C212.829861,9.97942387 212.829861,9.97942387 212.75,9.97942387 C212.75,9.89958848 212.75,9.89958848 212.75,9.97942387" id="Shape"></path>
            <path d="M204.444444,1.11769547 L204.604167,1.19753086 C204.604167,1.19753086 204.684028,1.11769547 204.684028,1.11769547 L204.444444,1.11769547 Z" id="Shape"></path>
            <path d="M83.6944444,139.711934 C83.6944444,139.711934 83.6944444,139.711934 83.6944444,139.711934 C83.4548611,139.79177 83.5347222,139.79177 83.6944444,139.711934" id="Shape"></path>
            <path d="M173.378472,130.051852 C172.340278,130.051852 174.975694,129.493004 173.378472,129.57284 C173.618056,129.57284 172.100694,130.131687 173.378472,130.051852" id="Shape"></path>
            <path d="M8.625,183.302058 C8.70486111,183.142387 8.78472222,183.062551 8.86458333,182.902881 C8.70486111,183.062551 8.70486111,183.222222 8.625,183.302058" id="Shape"></path>
            <path d="M173.458333,129.57284 L173.298611,129.57284 C173.298611,129.57284 173.378472,129.57284 173.458333,129.57284" id="Shape"></path>
            <path d="M106.135417,136.997531 C106.055556,136.997531 105.975694,136.917695 105.895833,136.917695 C105.895833,136.917695 105.975694,136.997531 106.135417,136.997531" id="Shape"></path>
            <path d="M89.3645833,138.434568 L89.7638889,138.434568 C89.6041667,138.434568 89.4444444,138.434568 89.3645833,138.434568" id="Shape"></path>
            <path d="M114.840278,136.039506 C115.079861,136.039506 115.159722,136.039506 115.479167,136.039506 C115.479167,136.039506 115.399306,136.039506 115.399306,136.039506 C115.239583,136.039506 115.079861,136.039506 114.840278,136.039506" id="Shape"></path>
            <path d="M123.944444,135.480658 C123.864583,135.480658 123.864583,135.480658 123.784722,135.480658 C123.704861,135.480658 123.625,135.480658 123.465278,135.480658 L123.944444,135.480658 Z" id="Shape"></path>
            <path d="M224.090278,34.4888889 C224.090278,34.2493827 224.170139,34.1695473 224.170139,34.0098765 C224.090278,34.2493827 223.690972,32.9720165 224.090278,34.4888889" id="Shape"></path>
            <path d="M8.54513889,183.541564 C8.54513889,183.461728 8.54513889,183.381893 8.625,183.222222 C8.54513889,183.302058 8.54513889,183.381893 8.46527778,183.461728 C8.54513889,183.621399 8.54513889,183.621399 8.54513889,183.541564" id="Shape"></path>
            <path d="M115.079861,134.283128 L116.517361,134.203292 C116.118056,134.203292 115.559028,134.203292 115.079861,134.283128" id="Shape"></path>
            <path d="M223.53125,98.437037 L223.611111,98.1176955 C223.611111,98.2773663 223.611111,98.3572016 223.53125,98.437037" id="Shape"></path>
            <path d="M120.829861,133.883951 C121.069444,133.963786 121.388889,133.963786 121.628472,133.963786 C121.708333,133.963786 121.788194,133.963786 121.788194,133.883951 L120.829861,133.883951 Z" id="Shape"></path>
            <path d="M220.975694,25.1481481 C221.454861,26.4255144 221.454861,25.6271605 221.694444,25.8666667 C222.333333,27.3835391 221.694444,26.6650206 221.774306,27.2238683 C222.173611,28.181893 222.652778,28.8205761 222.892361,29.5390947 C222.892361,29.61893 222.892361,29.7786008 222.8125,29.61893 C223.371528,30.5769547 223.690972,32.6526749 224.25,33.8502058 C224.25,33.9300412 224.25,34.0098765 224.25,34.0098765 C224.329861,33.7703704 224.489583,33.690535 224.569444,33.690535 C224.729167,34.2493827 225.048611,34.7283951 224.888889,35.0477366 C224.809028,34.6485597 224.729167,34.6485597 224.649306,34.4888889 L224.888889,35.127572 C224.729167,35.7662551 224.649306,34.2493827 224.409722,34.3292181 C224.809028,35.526749 225.288194,36.8839506 225.368056,37.9218107 C225.128472,38.1613169 224.809028,35.7662551 224.888889,37.0436214 L224.649306,35.6065844 C224.489583,36.8041152 224.489583,34.7283951 224.25,35.8460905 C224.569444,37.7621399 224.809028,37.9218107 225.128472,39.9176955 C225.368056,40.3168724 225.288194,39.7580247 225.527778,40.1572016 C226.246528,42.8716049 225.208333,42.3925926 225.847222,44.3884774 C226.086806,44.8674897 226.486111,45.0271605 226.486111,46.5440329 L226.086806,46.0650206 C226.246528,47.98107 226.645833,47.1028807 226.645833,49.0987654 C226.486111,48.7794239 226.40625,47.6617284 226.40625,47.9012346 C226.326389,49.1786008 226.645833,48.7794239 226.805556,49.7374486 L226.565972,49.9769547 C226.805556,51.9728395 227.204861,54.2082305 227.364583,56.4436214 C227.284722,56.363786 227.204861,55.9646091 227.125,56.4436214 C227.444444,59.2378601 227.444444,62.5111111 227.364583,65.2255144 L227.604167,66.2633745 C227.604167,66.5028807 227.524306,66.7423868 227.444444,66.4230453 C227.364583,67.4609053 227.604167,66.5028807 227.684028,66.981893 C227.684028,67.6205761 227.604167,67.7802469 227.524306,67.38107 C227.763889,69.217284 228.083333,72.7300412 227.84375,74.7259259 L227.763889,74.326749 C227.684028,75.8436214 228.243056,76.0831276 228.003472,77.5201646 L228.003472,77.2806584 C227.84375,80.6337449 227.763889,84.3061728 227.045139,86.78107 C227.204861,87.0205761 227.045139,87.81893 226.885417,88.617284 C226.725694,89.4156379 226.565972,90.1341564 226.805556,90.2938272 C226.486111,91.1720165 226.326389,91.491358 226.166667,91.890535 C226.006944,92.2897119 225.767361,92.7687243 225.368056,94.0460905 C225.128472,94.6847737 225.288194,95.163786 225.048611,95.9621399 L224.809028,95.8823045 C224.729167,96.2814815 224.649306,96.6806584 224.649306,97.0798354 L224.170139,97.5588477 C224.090278,97.7983539 224.010417,98.1176955 223.930556,98.3572016 C224.090278,98.0378601 224.329861,97.7983539 224.329861,97.8781893 C223.930556,99.0757202 222.8125,100.592593 222.652778,100.512757 C222.413194,100.99177 222.253472,101.390947 222.013889,101.869959 L221.295139,103.147325 C221.215278,103.06749 221.534722,102.588477 221.694444,102.269136 C220.975694,103.706173 221.375,102.348971 220.65625,103.706173 C220.815972,103.546502 220.736111,103.865844 220.736111,103.945679 C220.177083,104.424691 219.138889,105.781893 218.340278,106.739918 L218.340278,106.420576 C216.822917,108.017284 215.145833,109.853498 213.149306,111.450206 C213.868056,110.971193 213.947917,111.290535 213.388889,111.769547 L212.989583,111.769547 C212.670139,112.168724 213.628472,111.37037 212.989583,112.088889 C212.190972,112.647737 212.270833,112.24856 212.670139,111.849383 L211.791667,112.647737 C211.711806,112.647737 211.871528,112.40823 211.871528,112.328395 C211.631944,112.727572 210.114583,113.28642 209.715278,113.925103 L209.635417,113.925103 C207.559028,115.36214 206.600694,116.000823 204.84375,117.038683 C204.923611,117.278189 204.204861,117.597531 203.725694,118.076543 C202.368056,118.715226 200.770833,119.353909 199.09375,120.072428 C197.975694,120.711111 198.854167,120.39177 198.375,120.790947 C198.215278,120.631276 196.538194,121.42963 197.336806,120.870782 C195.340278,121.828807 194.78125,121.988477 192.225694,123.186008 C192.545139,123.186008 192.864583,123.026337 192.704861,123.186008 C192.225694,123.425514 191.586806,123.50535 191.666667,123.425514 L191.746528,123.345679 C190.309028,123.984362 188.552083,124.463374 186.875,124.942387 C185.197917,125.341564 183.600694,125.740741 182.402778,126.299588 L182.5625,126.219753 L180.086806,127.097942 C178.888889,127.417284 180.725694,126.778601 179.847222,126.858436 C178.569444,127.417284 177.451389,127.65679 176.413194,127.896296 C175.375,128.135802 174.416667,128.295473 173.298611,128.69465 C172.340278,128.614815 170.822917,128.934156 169.225694,129.253498 C167.628472,129.57284 165.871528,129.972016 164.673611,129.972016 L164.833333,130.051852 C164.274306,130.291358 164.114583,130.051852 163.635417,130.131687 C163.715278,130.211523 164.354167,130.131687 163.954861,130.291358 C158.763889,131.329218 153.173611,131.64856 147.743056,132.047737 C145.746528,132.207407 146.704861,132.925926 144.149306,132.766255 L144.868056,132.446914 C140.954861,133.165432 136.722222,133.085597 132.809028,133.644444 C133.048611,133.564609 133.048611,133.484774 133.447917,133.484774 C132.569444,133.325103 130.413194,133.644444 130.413194,133.804115 C129.774306,133.804115 130.253472,133.644444 129.854167,133.644444 C129.055556,133.564609 127.777778,134.043621 127.298611,133.883951 C127.21875,133.883951 127.538194,133.804115 127.697917,133.804115 C127.138889,133.963786 125.142361,133.963786 125.701389,134.123457 C124.263889,134.123457 122.90625,134.362963 121.708333,134.362963 C120.989583,134.682305 119.152778,134.362963 118.993056,134.76214 C119.072917,134.362963 116.357639,134.602469 115.479167,134.841975 C115.798611,134.682305 114.680556,134.76214 115,134.602469 C113.961806,134.682305 113.003472,134.841975 113.163194,135.001646 C111.166667,134.682305 109.25,135.640329 108.131944,135.161317 C105.017361,135.560494 102.0625,135.959671 99.2673611,136.358848 C99.3472222,135.959671 102.381944,136.039506 102.222222,135.640329 C99.5069444,136.039506 97.9895833,136.518519 95.3541667,136.678189 C94.6354167,136.678189 95.7534722,136.518519 95.9930556,136.358848 C94.6354167,136.598354 93.3576389,136.758025 92.0798611,136.83786 C90.8020833,136.997531 89.6041667,137.157202 88.40625,137.396708 C88.40625,137.396708 88.6458333,137.316872 88.8854167,137.237037 C88.40625,137.316872 87.7673611,137.316872 87.8472222,137.476543 L88.3263889,137.396708 C89.125,137.556379 86.5694444,138.115226 86.4895833,138.274897 C87.2083333,137.716049 84.09375,138.514403 85.2916667,137.716049 C84.9722222,137.795885 84.5729167,137.955556 84.7326389,138.035391 C84.2534722,138.035391 84.09375,138.035391 84.5729167,137.87572 C82.8958333,138.195062 83.5347222,138.274897 82.0173611,138.514403 C82.0173611,138.434568 82.3368056,138.354733 82.4166667,138.195062 C81.6979167,138.514403 80.8993056,138.753909 79.6215278,138.91358 C79.7013889,138.833745 79.5416667,138.833745 79.9409722,138.753909 C77.7048611,139.153086 76.2673611,139.871605 73.8715278,140.190947 C74.5104167,139.711934 73.0729167,140.270782 72.8333333,140.031276 L71.5555556,140.430453 L72.1145833,140.430453 C70.9965278,140.669959 70.0381944,141.069136 69.0798611,141.308642 C69.3194444,141.228807 69.6388889,141.069136 69.8784722,140.9893 L67.8020833,141.548148 L69,141.388477 C67.8819444,141.86749 69.2395833,141.707819 67.7222222,142.02716 C68.0416667,141.947325 66.6041667,142.346502 65.9652778,142.266667 C65.40625,142.506173 64.9270833,142.745679 64.0486111,142.90535 C63.8090278,142.90535 64.1284722,142.506173 63.96875,142.506173 C63.4895833,142.90535 61.4131944,143.304527 60.7743056,143.783539 C61.0138889,143.623868 60.9340278,143.464198 60.8541667,143.464198 L60.4548611,143.783539 C59.8958333,143.863374 59.8159722,143.863374 59.8958333,143.703704 C58.3784722,144.182716 60.5347222,143.863374 58.6180556,144.342387 C58.7777778,144.262551 58.6979167,144.262551 58.9375,144.182716 C57.9791667,144.422222 57.1805556,144.741564 56.3020833,145.060905 C55.5034722,145.380247 54.625,145.779424 53.8263889,146.01893 C53.2673611,145.939095 55.2638889,145.380247 54.625,145.380247 C52.2291667,146.258436 49.9131944,147.695473 47.5972222,148.653498 L47.9965278,148.493827 C47.8368056,149.052675 46.2395833,149.13251 45.2013889,149.851029 C45.4409722,149.691358 45.4409722,149.451852 45.4409722,149.531687 C43.84375,150.17037 42.40625,151.20823 40.25,152.565432 L40.4895833,152.325926 C39.53125,152.725103 38.2534722,153.603292 37.2951389,154.082305 C37.0555556,154.321811 36.5763889,154.641152 36.9756944,154.561317 C33.8611111,155.758848 31.9444444,158.31358 29.3090278,159.670782 C29.6284722,159.431276 29.9479167,159.111934 29.7083333,159.271605 C29.0694444,159.830453 28.4305556,160.309465 27.7916667,160.868313 C28.03125,160.868313 28.1111111,160.708642 28.5902778,160.548971 C28.4305556,160.788477 27.9513889,161.347325 27.4722222,161.746502 C28.2708333,160.948148 27.3125,161.506996 26.8333333,161.746502 C26.9131944,161.746502 26.8333333,161.906173 26.9131944,161.906173 C25.7152778,162.465021 26.9930556,162.30535 25.4756944,163.34321 L25.4756944,163.183539 C24.9965278,163.662551 24.5972222,164.141564 24.1180556,164.620576 C23.71875,164.700412 24.5972222,164.061728 24.5173611,163.902058 C23.7986111,164.620576 23.3194444,165.578601 22.5208333,166.057613 C22.7604167,165.738272 23.2395833,165.259259 23.4791667,164.939918 C22.6006944,165.41893 22.5208333,165.578601 21.9618056,166.057613 L22.0416667,165.977778 C21.5625,166.376955 21.1631944,166.696296 20.7638889,167.095473 L21.0833333,166.855967 C20.6041667,168.133333 19.40625,168.772016 18.5277778,170.288889 C19.40625,168.851852 18.5277778,169.969547 18.4479167,169.730041 C18.0486111,169.969547 17.6493056,170.44856 17.7291667,170.288889 C17.3298611,171.007407 16.7708333,171.246914 16.2118056,172.284774 C16.1319444,172.284774 15.6527778,172.923457 15.6527778,172.683951 C15.0138889,173.56214 15.8923611,172.604115 15.9722222,172.683951 C15.5729167,173.402469 14.9340278,174.120988 14.2951389,174.919342 C13.65625,175.717695 12.8576389,176.595885 12.3784722,177.633745 C11.4201389,179.390123 11.4201389,179.869136 10.6215278,181.465844 C10.2222222,181.944856 10.6215278,180.906996 10.6215278,180.906996 C9.98263889,181.70535 9.66319444,182.423868 9.34375,183.302058 C9.34375,183.062551 9.26388889,183.222222 9.02430556,183.461728 C8.70486111,184.180247 9.02430556,184.020576 8.46527778,184.898765 C8.46527778,184.739095 8.46527778,184.419753 8.54513889,184.100412 C8.14583333,184.898765 7.98611111,185.776955 7.66666667,186.655144 C7.42708333,186.814815 7.66666667,186.016461 7.74652778,185.697119 C7.34722222,186.655144 6.78819444,188.251852 6.86805556,188.651029 L7.1875,188.092181 C7.02777778,188.411523 6.94791667,188.172016 7.02777778,187.93251 C7.26736111,187.054321 7.58680556,186.734979 7.74652778,186.734979 L7.1875,187.213992 C7.90625,186.814815 8.14583333,184.739095 8.86458333,183.621399 L8.86458333,184.260082 L9.26388889,182.902881 C9.50347222,182.663374 9.74305556,182.583539 9.50347222,183.222222 C10.0625,182.423868 9.82291667,182.423868 10.3020833,181.785185 C10.3819444,181.70535 10.3819444,181.785185 10.3020833,181.865021 C10.4618056,181.545679 10.5416667,181.306173 10.7013889,180.986831 C10.7013889,181.146502 10.9409722,180.986831 10.6215278,181.465844 C11.6597222,180.108642 11.8194444,179.070782 12.3784722,178.671605 L12.2986111,178.831276 C13.4166667,176.835391 12.21875,178.511934 12.9375,176.915226 L14.1354167,176.276543 L14.0555556,175.957202 C14.2152778,175.797531 14.5347222,175.398354 14.5347222,175.558025 C14.9340278,174.759671 14.375,175.63786 14.5347222,175.079012 C14.9340278,174.679835 15.4131944,174.041152 15.8125,173.482305 C16.2118056,172.923457 16.6111111,172.52428 16.8506944,172.52428 C17.0104167,172.125103 16.0520833,173.242798 16.6909722,172.284774 C17.25,172.284774 17.5694444,171.167078 18.3680556,170.44856 C18.2881944,170.847737 17.5694444,171.48642 18.4479167,170.847737 C18.6076389,170.129218 19.8854167,169.4107 20.4444444,168.692181 C20.2847222,168.452675 21.6423611,167.175309 22.6805556,166.137449 C22.6805556,166.217284 23.2395833,165.738272 23.8784722,165.179424 C24.5173611,164.620576 25.3159722,163.902058 25.9548611,163.502881 L25.9548611,163.582716 C25.9548611,163.183539 27.0729167,162.30535 27.8715278,161.586831 C27.9513889,161.746502 27.8715278,161.906173 27.4722222,162.30535 L28.1909722,161.666667 C28.3506944,161.42716 28.5104167,161.187654 28.9895833,160.788477 L28.9097222,161.107819 C29.9479167,160.309465 30.8263889,159.35144 32.2638889,158.473251 C32.2638889,158.233745 30.8263889,158.792593 32.1840278,157.674897 C32.2638889,157.754733 32.5034722,157.834568 32.1041667,158.153909 C32.1840278,158.074074 32.5034722,157.754733 32.7430556,157.674897 L32.2638889,158.233745 C32.9027778,157.834568 32.5034722,157.914403 32.9826389,157.595062 C33.0625,157.754733 33.3819444,157.435391 33.3819444,157.595062 C33.2222222,157.674897 32.9027778,157.834568 32.7430556,157.994239 C33.3020833,157.595062 34.1006944,157.27572 34.3402778,157.195885 C34.2604167,157.195885 34.2604167,157.036214 34.6597222,156.716872 C35.6979167,155.998354 35.1388889,156.637037 35.7777778,156.23786 C35.9375,155.998354 36.7361111,155.679012 36.65625,155.439506 C36.9756944,155.279835 37.1354167,155.279835 37.2951389,155.279835 C37.7743056,154.880658 39.9305556,153.603292 39.2118056,153.842798 L39.0520833,153.922634 C39.0520833,153.922634 39.1319444,153.842798 39.1319444,153.842798 C40.0104167,153.12428 41.0486111,152.645267 42.0868056,152.166255 C43.125,151.687243 44.1631944,151.128395 45.1215278,150.649383 L45.1215278,150.729218 C46.2395833,150.090535 47.6770833,149.372016 48.4756944,148.893004 C48.7951389,148.733333 49.3541667,148.653498 49.2743056,148.813169 C50.1527778,148.334156 50.2326389,148.254321 51.5902778,147.775309 C50.7118056,148.334156 51.9895833,147.775309 50.7118056,148.254321 C51.9097222,147.775309 52.2291667,147.775309 53.4270833,147.136626 C53.0277778,147.455967 54.4652778,147.05679 54.9444444,146.737449 L54.0659722,146.897119 C54.7048611,146.657613 55.2638889,146.418107 55.8229167,146.258436 L55.5833333,146.657613 C56.8611111,146.338272 57.9791667,145.859259 58.9375,145.380247 C59.9756944,144.901235 60.9340278,144.502058 61.9722222,144.502058 C62.6111111,144.102881 60.5347222,144.821399 61.09375,144.422222 C62.2916667,144.102881 63.5694444,144.102881 63.96875,144.023045 C65.5659722,143.703704 65.3263889,143.224691 67.0833333,142.90535 C66.84375,142.90535 66.6041667,142.665844 67.8020833,142.266667 C69,142.02716 69.3194444,142.266667 68.6006944,142.506173 C68.28125,142.586008 68.2013889,142.586008 68.2013889,142.586008 C67.8020833,142.745679 67.3229167,142.90535 67.8020833,142.90535 L67.9618056,142.745679 C68.6006944,142.665844 70.1979167,142.266667 69.8784722,142.506173 C70.7569444,142.186831 70.1979167,142.266667 69.5590278,142.346502 C71.0763889,142.106996 71.9548611,141.787654 73.5520833,141.548148 C73.3125,141.548148 73.0729167,141.468313 73.3125,141.468313 C75.6284722,141.069136 74.2708333,141.069136 75.8680556,140.669959 C76.8263889,140.669959 75.6284722,141.069136 77.1458333,140.669959 C78.1041667,140.590123 77.3854167,140.909465 77.0659722,140.9893 C78.5034722,140.510288 79.78125,140.590123 80.5798611,140.510288 L79.8611111,140.749794 C80.3402778,140.590123 80.6597222,140.590123 81.0590278,140.510288 L80.5798611,140.430453 C81.0590278,140.350617 81.3784722,140.350617 81.3784722,140.430453 C81.8576389,140.190947 80.9791667,140.190947 81.8576389,139.871605 C82.4965278,139.871605 83.6944444,139.472428 83.9340278,139.711934 C82.0173611,139.95144 84.1736111,139.95144 82.5763889,140.190947 C82.8958333,140.111111 83.2152778,140.031276 83.6944444,140.031276 C83.7743056,140.031276 83.6145833,140.111111 83.5347222,140.111111 C85.3715278,140.031276 84.3333333,139.711934 86.1701389,139.392593 C85.9305556,139.552263 86.6493056,139.632099 86.96875,139.552263 C86.25,139.632099 86.5694444,139.392593 87.2881944,139.153086 C88.4861111,139.073251 88.5659722,138.91358 89.2048611,138.833745 L88.4861111,138.91358 C88.7256944,138.753909 89.2847222,138.674074 90.1631944,138.514403 C90.2430556,138.594239 89.4444444,138.674074 89.6840278,138.674074 C90.5625,138.274897 91.8402778,138.674074 93.1180556,138.354733 C93.7569444,138.354733 93.1979167,138.594239 93.7569444,138.594239 C95.1944444,138.274897 95.3541667,138.594239 96.8715278,138.274897 C96.3923611,138.115226 96.3125,138.195062 97.4305556,137.87572 C96.6319444,138.035391 95.7534722,138.115226 94.9548611,138.274897 L96.5520833,137.795885 C95.7534722,137.87572 94.9548611,138.115226 94.4756944,138.115226 C95.1944444,137.87572 95.1944444,137.955556 94.7951389,137.795885 C95.8333333,137.955556 96.8715278,137.396708 98.0694444,137.476543 L98.0694444,137.955556 C99.90625,137.955556 101.263889,137.396708 103.659722,137.316872 L102.861111,137.316872 C103.180556,137.077366 104.298611,137.157202 105.097222,136.997531 C105.017361,137.157202 105.496528,137.157202 105.815972,137.237037 C105.736111,137.157202 107.572917,137.077366 107.732639,136.758025 L108.770833,136.917695 C110.6875,136.83786 110.927083,136.279012 112.763889,136.199177 C112.204861,136.438683 113.083333,136.438683 111.885417,136.678189 C112.524306,136.598354 113.083333,136.598354 113.083333,136.518519 C113.482639,136.598354 114.760417,136.199177 115.319444,136.279012 C115.559028,136.199177 115.638889,136.039506 116.357639,135.959671 C116.4375,135.959671 116.357639,136.039506 116.357639,136.039506 C116.357639,135.959671 117.395833,135.879835 116.836806,135.720165 C118.753472,136.119342 122.107639,135.320988 123.784722,135.640329 C125.142361,135.480658 126.739583,135.320988 127.9375,135.241152 C127.857639,135.320988 127.9375,135.320988 127.697917,135.320988 C129.375,135.400823 128.736111,134.841975 130.572917,134.841975 C131.53125,135.001646 129.534722,135.081481 130.173611,135.081481 C130.493056,135.560494 132.489583,134.841975 133.767361,135.081481 L133.447917,135.161317 C134.40625,135.241152 135.84375,134.76214 137.440972,134.682305 C137.440972,134.682305 137.361111,134.76214 137.440972,134.76214 C138.479167,134.442798 140.555556,134.123457 142.072917,133.963786 C141.59375,134.203292 141.354167,134.123457 141.673611,134.283128 C142.392361,134.203292 141.434028,133.963786 142.791667,133.804115 C143.270833,133.883951 144.229167,133.883951 144.388889,134.123457 L143.111111,134.283128 C143.829861,134.522634 144.788194,134.123457 145.506944,134.123457 L145.427083,134.283128 C147.423611,134.043621 147.423611,133.72428 149.579861,133.564609 L149.340278,133.484774 C150.458333,133.085597 150.298611,133.564609 151.496528,133.165432 L151.895833,133.404938 C152.694444,133.245267 154.53125,132.766255 155.888889,132.526749 C155.170139,132.846091 153.572917,133.165432 152.534722,133.404938 C153.333333,133.325103 155.090278,133.085597 155.489583,132.846091 C155.170139,132.925926 154.770833,133.005761 154.53125,133.005761 C155.409722,132.68642 156.6875,132.367078 158.125,132.127572 C157.965278,132.766255 162.118056,131.728395 163.236111,131.967901 C164.59375,131.64856 165.871528,131.409053 167.309028,131.249383 C168.666667,131.009877 170.184028,130.850206 171.701389,130.530864 C170.503472,130.291358 172.579861,130.291358 172.340278,129.892181 C173.059028,129.73251 173.298611,129.652675 173.378472,129.652675 C174.097222,129.57284 174.895833,129.493004 175.614583,129.413169 C176.173611,129.413169 174.975694,129.652675 175.055556,129.812346 C176.652778,129.493004 175.774306,129.892181 176.8125,129.73251 C176.572917,129.652675 177.291667,129.333333 178.25,129.173663 L176.972222,129.253498 C179.128472,128.455144 178.96875,129.173663 181.125,128.375309 L180.486111,128.69465 C181.045139,128.534979 182.083333,128.215638 183.121528,127.896296 C184.159722,127.576955 185.118056,127.177778 185.597222,126.778601 C185.836806,126.778601 186.076389,126.778601 185.597222,127.018107 C186.236111,126.858436 186.954861,126.61893 187.673611,126.299588 C188.392361,125.980247 189.03125,125.740741 189.75,125.421399 C191.107639,124.862551 192.385417,124.303704 193.423611,124.064198 L193.263889,124.223868 C193.743056,123.984362 194.0625,123.665021 194.701389,123.585185 C194.701389,123.665021 194.541667,123.744856 194.78125,123.665021 C195.020833,123.50535 195.979167,122.946502 196.618056,122.786831 C196.458333,122.866667 196.298611,123.026337 196.138889,123.106173 C197.416667,122.62716 198.375,122.148148 199.173611,121.5893 C200.052083,121.110288 200.850694,120.55144 201.809028,119.992593 C201.96875,120.311934 203.965278,119.433745 204.923611,118.954733 L204.923611,119.034568 C207.71875,117.517695 209.475694,116.080658 211.791667,114.244444 C213.548611,113.525926 216.822917,110.572016 218.979167,108.496296 C218.659722,108.815638 218.819444,108.25679 219.138889,107.857613 C219.697917,107.378601 220.177083,106.260905 220.416667,106.580247 L220.256944,106.739918 C220.576389,106.660082 220.895833,106.260905 221.295139,105.861728 C221.614583,105.382716 222.013889,104.903704 222.333333,104.424691 L222.09375,104.025514 C223.131944,102.987654 224.170139,101.311111 224.888889,99.7144033 C225.288194,98.9160494 225.527778,98.1176955 225.847222,97.4790123 C226.166667,96.8403292 226.40625,96.2814815 226.645833,95.9621399 C226.725694,95.6427984 226.805556,95.2436214 226.965278,94.8444444 C227.045139,94.4452675 227.125,94.0460905 227.204861,93.726749 L227.444444,93.8065844 C228.083333,91.9703704 228.322917,91.0123457 228.722222,88.617284 C228.722222,88.7769547 228.802083,88.9366255 228.802083,89.0962963 C229.041667,87.7390947 228.482639,87.2600823 228.642361,86.0625514 L229.041667,85.7432099 C229.361111,83.4279835 229.760417,81.0329218 229.520833,78.7176955 C229.600694,78.7975309 229.680556,78.7975309 229.680556,79.1967078 C229.760417,78.0790123 230,74.8855967 229.520833,75.2847737 C229.840278,75.2847737 229.520833,72.8897119 229.361111,71.6123457 L229.600694,71.7720165 C229.28125,70.7341564 229.201389,70.654321 229.121528,69.217284 C229.121528,68.8979424 229.28125,68.8979424 229.28125,69.3769547 C229.361111,68.1794239 229.041667,68.4987654 229.121528,67.0617284 L229.28125,67.6205761 C229.28125,66.4230453 229.201389,66.5028807 229.041667,65.8641975 C228.961806,65.145679 229.041667,63.5489712 229.201389,63.3893004 C229.041667,63.2296296 228.881944,62.5909465 228.881944,61.872428 C228.961806,61.7925926 229.041667,62.0320988 229.041667,62.1917695 C229.121528,60.1958848 228.642361,59.2378601 228.802083,57.800823 C228.881944,57.800823 228.881944,57.6411523 228.881944,57.5613169 C228.961806,59.1580247 229.041667,60.4353909 228.961806,60.3555556 C229.201389,60.3555556 229.121528,59.0781893 229.440972,60.036214 C229.201389,58.9983539 228.802083,57.2419753 228.802083,55.9646091 C228.802083,55.8847737 228.802083,55.8049383 228.881944,55.8049383 L228.881944,55.9646091 C228.881944,55.6452675 228.881944,55.4057613 228.802083,55.1662551 C228.802083,54.7670782 228.802083,54.527572 228.802083,54.1283951 C228.961806,53.9687243 228.802083,52.6115226 228.722222,51.9728395 C228.482639,52.0526749 228.482639,51.1744856 228.322917,51.9728395 C228.322917,51.8930041 228.322917,52.0526749 228.402778,52.5316872 C228.402778,52.6115226 228.402778,52.7711934 228.482639,52.7711934 C228.482639,52.7711934 228.482639,52.7711934 228.482639,52.691358 C228.5625,53.090535 228.5625,53.6493827 228.642361,54.2880658 C228.482639,53.8090535 228.322917,53.2502058 228.402778,52.5316872 C228.243056,52.2123457 228.083333,51.8930041 228.003472,51.6534979 C228.243056,50.7753086 228.243056,49.01893 228.402778,48.7794239 C228.083333,46.8633745 227.763889,44.1489712 227.204861,42.9514403 C227.045139,42.3925926 227.204861,42.3127572 227.284722,42.073251 C227.364583,42.3925926 227.444444,42.7917695 227.524306,42.9514403 C227.284722,41.8337449 226.965278,39.6781893 226.645833,39.4386831 C226.565972,38.0016461 227.045139,40.1572016 226.645833,38.2411523 L226.805556,38.4806584 C226.565972,34.5687243 224.809028,32.5728395 224.170139,28.3415638 C224.25,28.6609053 224.25,28.8205761 224.25,28.8205761 C223.131944,24.0304527 220.736111,19.4798354 218.659722,15.1687243 C218.020833,13.9711934 217.78125,13.891358 217.222222,13.3325103 L217.222222,12.9333333 L216.184028,11.8954733 C214.826389,10.3786008 214.586806,8.70205761 212.510417,7.0255144 L212.590278,7.34485597 C212.03125,6.62633745 210.513889,5.34897119 210.753472,5.34897119 C210.673611,5.2691358 210.434028,5.2691358 210.194444,4.94979424 L210.274306,4.86995885 L208.4375,3.5127572 C207.079861,2.39506173 208.996528,3.27325103 206.920139,1.67654321 C206.121528,1.19753086 204.444444,0.399176955 204.763889,0.718518519 C205.083333,0.958024691 205.5625,1.35720165 205.482639,1.43703704 L204.763889,1.03786008 C204.444444,1.27736626 203.725694,1.19753086 205.243056,2.6345679 C205.722222,2.87407407 206.121528,3.03374486 206.520833,3.27325103 L206.760417,3.67242798 C206.440972,3.43292181 206.121528,3.19341564 205.802083,2.95390947 C206.28125,3.5127572 206.680556,3.67242798 207.159722,3.83209877 C207.159722,3.99176955 207.319444,4.15144033 207.479167,4.3909465 L208.756944,5.02962963 C208.756944,5.2691358 208.118056,4.86995885 208.756944,5.50864198 C209.395833,5.82798354 208.517361,4.86995885 209.395833,5.50864198 C209.795139,6.1473251 209.555556,6.06748971 210.194444,6.54650206 C210.194444,6.70617284 210.034722,6.62633745 209.795139,6.38683128 C210.114583,6.62633745 210.434028,6.94567901 210.753472,7.18518519 C211.072917,7.50452675 211.392361,7.74403292 211.552083,7.82386831 C211.871528,8.46255144 213.229167,9.58024691 212.909722,9.81975309 C213.149306,9.89958848 213.947917,10.618107 214.347222,11.1769547 C213.788194,10.8576132 214.1875,11.3366255 214.586806,11.8954733 C214.986111,12.454321 215.465278,13.1728395 215.225694,13.1728395 C216.024306,13.6518519 217.142361,15.8074074 218.020833,17.0847737 C217.940972,17.0049383 217.78125,16.9251029 217.78125,16.7654321 C218.180556,17.563786 218.180556,17.8032922 218.420139,18.3621399 C218.739583,18.3621399 219.458333,19.5596708 219.9375,20.1185185 C220.097222,21.236214 219.298611,19.6395062 219.21875,20.1185185 C219.458333,19.9588477 220.256944,21.7152263 220.256944,21.3160494 C220.416667,22.1942387 220.416667,22.0345679 220.416667,22.5135802 C220.815972,22.5135802 220.815972,23.2320988 221.295139,23.7909465 C221.534722,24.9884774 221.055556,24.1901235 221.614583,25.3876543 C221.534722,26.2658436 220.975694,25.1481481 220.975694,25.1481481 M227.364583,56.363786 C227.364583,56.1242798 227.284722,55.8847737 227.284722,55.7251029 C227.364583,55.8049383 227.364583,56.0444444 227.364583,56.363786 M227.524306,59.0781893 C227.524306,58.7588477 227.524306,58.3596708 227.444444,57.8806584 C227.524306,57.800823 227.604167,57.8806584 227.604167,58.1201646 C227.604167,58.0403292 227.604167,58.6790123 227.524306,59.0781893 M228.722222,53.2502058 C228.802083,53.6493827 228.722222,53.8090535 228.722222,53.8888889 C228.722222,53.6493827 228.642361,53.4098765 228.642361,53.1703704 C228.642361,53.1703704 228.642361,53.1703704 228.642361,53.090535 C228.642361,53.090535 228.722222,53.1703704 228.722222,53.2502058" id="Shape"></path>
            <path d="M228.402778,52.4518519 C228.402778,52.3720165 228.402778,52.3720165 228.402778,52.2921811 C228.402778,52.3720165 228.402778,52.4518519 228.402778,52.5316872 C228.402778,52.6115226 228.482639,52.6115226 228.482639,52.691358 C228.402778,52.6115226 228.402778,52.5316872 228.402778,52.4518519" id="Shape"></path>
            <path d="M39.3715278,153.683128 C39.3715278,153.683128 39.2916667,153.683128 39.3715278,153.683128 C39.2916667,153.683128 39.2916667,153.683128 39.3715278,153.683128" id="Shape"></path>
            <polygon id="Shape" points="224.569444 95.7226337 224.649306 95.7226337 224.729167 95.4831276"></polygon>
            <path d="M26.6736111,161.666667 C26.6736111,161.666667 26.59375,161.666667 26.5138889,161.746502 C26.5138889,161.746502 26.59375,161.666667 26.6736111,161.666667" id="Shape"></path>
            <path d="M21.8819444,165.897942 L21.1631944,166.45679 C21.4826389,166.297119 21.6423611,166.057613 21.8819444,165.897942" id="Shape"></path>
            <path d="M18.2881944,169.490535 C18.2881944,169.57037 18.2881944,169.57037 18.2881944,169.650206 L18.2881944,169.490535 Z" id="Shape"></path>
            <path d="M88.8055556,136.997531 C88.8854167,136.997531 88.9652778,136.997531 88.9652778,136.997531 C89.4444444,136.83786 89.125,136.917695 88.8055556,136.997531" id="Shape"></path>
            <path d="M65.8055556,142.02716 C66.0451389,141.947325 66.2847222,141.787654 66.5243056,141.707819 C66.125,141.86749 65.8055556,141.947325 65.8055556,142.02716" id="Shape"></path>
            <path d="M114.920139,134.283128 C115,134.283128 115,134.283128 115.079861,134.283128 L114.920139,134.283128 Z" id="Shape"></path>
            <path d="M67.6423611,141.468313 C67.2430556,141.548148 66.9236111,141.627984 66.6041667,141.707819 C66.84375,141.707819 67.2430556,141.627984 67.6423611,141.468313" id="Shape"></path>
            <path d="M6.54861111,187.533333 L6.46875,187.77284 C6.46875,187.77284 6.46875,187.77284 6.46875,187.852675 L6.54861111,187.533333 Z" id="Shape"></path>
            <path d="M6.46875,187.852675 L6.38888889,188.092181 C6.46875,187.93251 6.46875,187.852675 6.46875,187.852675" id="Shape"></path>
            <path d="M6.22916667,188.571193 L6.38888889,188.012346 C6.30902778,188.251852 6.22916667,188.491358 6.22916667,188.571193" id="Shape"></path>
            <path d="M9.58333333,181.625514 L9.58333333,181.545679 C9.50347222,181.625514 9.50347222,181.625514 9.58333333,181.625514" id="Shape"></path>
            <path d="M10.5416667,179.869136 C10.3020833,180.268313 9.74305556,180.82716 9.50347222,181.465844 L9.50347222,181.545679 C9.50347222,181.386008 9.74305556,181.066667 9.98263889,180.747325 C10.2222222,180.427984 10.4618056,180.108642 10.5416667,179.869136" id="Shape"></path>
            <path d="M16.1319444,173.641975 C15.7326389,174.041152 15.4131944,174.520165 15.09375,174.919342 C15.3333333,174.759671 15.6527778,174.520165 15.2534722,175.158848 C16.6111111,173.56214 14.7743056,175.318519 16.1319444,173.641975" id="Shape"></path>
            <path d="M19.5659722,169.809877 C19.0069444,170.44856 19.6458333,169.889712 19.6458333,169.969547 C19.9652778,169.490535 20.0451389,169.330864 19.5659722,169.809877" id="Shape"></path>
            <path d="M49.7534722,148.573663 L49.7534722,148.813169 C50.3923611,148.493827 49.7534722,148.733333 49.7534722,148.573663" id="Shape"></path>
            <polygon id="Shape" points="56.0625 144.901235 55.34375 145.060905 55.1041667 145.380247"></polygon>
            <polygon id="Shape" points="60.5347222 144.98107 60.2152778 145.060905 61.3333333 144.661728"></polygon>
            <path d="M122.267361,135.720165 L122.027778,135.480658 C121.628472,135.560494 121.548611,135.879835 122.267361,135.720165" id="Shape"></path>
            <path d="M149.340278,133.404938 C149.659722,133.484774 150.378472,133.484774 150.857639,133.325103 C150.298611,133.404938 149.659722,133.325103 149.340278,133.404938" id="Shape"></path>
            <polygon id="Shape" points="223.211806 103.06749 222.972222 103.546502 223.451389 102.668313"></polygon>
            <path d="M0.878472222,175.877366 C0.798611111,175.877366 0.638888889,175.957202 0.71875,175.957202 L0.878472222,175.877366 Z" id="Shape"></path>
            <path d="M0.479166667,176.276543 C0.638888889,176.276543 0.798611111,176.196708 1.03819444,176.116872 C0.798611111,176.196708 0.878472222,176.116872 0.559027778,176.196708 C0.559027778,176.196708 0.638888889,176.116872 0.71875,176.116872 C0.638888889,176.116872 0.798611111,176.037037 0.638888889,176.116872 C0.479166667,176.196708 0.479166667,176.276543 0.638888889,176.276543 C0.559027778,176.196708 0.479166667,176.196708 0.479166667,176.276543" id="Shape"></path>
            <path d="M1.03819444,180.507819 C1.03819444,180.507819 1.03819444,180.507819 1.03819444,180.507819 C1.03819444,180.507819 0.958333333,180.507819 1.03819444,180.507819" id="Shape"></path>
            <path d="M0.878472222,178.671605 C0.878472222,178.75144 0.878472222,178.75144 0.878472222,178.671605" id="Shape"></path>
            <path d="M1.19791667,176.356379 C1.19791667,176.356379 1.11805556,176.356379 1.19791667,176.356379 C1.11805556,176.356379 1.11805556,176.356379 1.19791667,176.356379 Z" id="Shape"></path>
            <path d="M0.479166667,178.112757 C0.479166667,178.112757 0.399305556,178.112757 0.399305556,178.112757 L0.479166667,178.112757 Z" id="Shape"></path>
            <path d="M0.239583333,177.633745 C0.239583333,177.633745 0.479166667,177.553909 0.559027778,177.553909 C0.479166667,177.553909 0.399305556,177.553909 0.399305556,177.553909 C0.399305556,177.633745 0.319444444,177.633745 0.239583333,177.633745" id="Shape"></path>
            <path d="M0.399305556,176.755556 C0.319444444,176.755556 0.319444444,176.755556 0.399305556,176.755556" id="Shape"></path>
            <path d="M0.559027778,178.511934 C0.479166667,178.511934 0.479166667,178.511934 0.559027778,178.511934 Z" id="Shape"></path>
            <polygon id="Shape" points="4.55208333 192.96214 4.47222222 192.96214 4.39236111 192.96214"></polygon>
            <path d="M2.15625,185.218107 C2.31597222,185.138272 2.39583333,185.218107 2.63541667,185.138272 C2.55555556,185.138272 2.23611111,185.138272 2.15625,185.218107" id="Shape"></path>
            <path d="M2.63541667,185.138272 C2.63541667,185.058436 2.63541667,185.058436 2.63541667,185.138272" id="Shape"></path>
            <path d="M1.27777778,182.104527 C1.27777778,182.104527 1.35763889,182.104527 1.35763889,182.104527 C1.35763889,182.024691 1.35763889,182.024691 1.27777778,182.104527" id="Shape"></path>
            <path d="M1.75694444,182.423868 C1.67708333,182.423868 1.67708333,182.423868 1.75694444,182.423868 C1.75694444,182.423868 1.75694444,182.423868 1.75694444,182.423868 C1.67708333,182.423868 1.67708333,182.423868 1.75694444,182.423868" id="Shape"></path>
            <path d="M5.19097222,190.88642 C5.11111111,190.88642 5.03125,190.88642 5.03125,190.966255 C5.19097222,190.88642 5.27083333,190.966255 5.19097222,190.88642" id="Shape"></path>
            <path d="M1.03819444,176.356379 C1.11805556,176.356379 1.11805556,176.356379 1.11805556,176.356379 L1.03819444,176.356379 C1.11805556,176.356379 1.11805556,176.356379 1.03819444,176.356379" id="Shape"></path>
            <path d="M3.51388889,182.184362 C3.43402778,182.184362 3.43402778,182.264198 3.35416667,182.264198 C3.35416667,182.264198 3.35416667,182.264198 3.43402778,182.264198 L3.51388889,182.184362 Z" id="Shape"></path>
            <path d="M5.59027778,191.285597 C5.59027778,191.205761 5.27083333,191.285597 5.11111111,191.285597 C5.03125,191.205761 5.35069444,191.205761 5.43055556,191.125926 C5.35069444,191.125926 5.11111111,191.125926 5.11111111,191.046091 C5.19097222,191.046091 5.19097222,191.046091 5.27083333,191.046091 C5.03125,191.046091 5.27083333,190.88642 4.95138889,190.88642 C4.95138889,190.88642 5.03125,190.88642 5.03125,190.88642 C4.87152778,190.88642 4.71180556,190.966255 4.63194444,190.966255 C4.63194444,190.966255 4.47222222,190.966255 4.63194444,190.88642 C4.63194444,190.88642 4.71180556,190.88642 4.79166667,190.88642 L4.71180556,190.88642 C4.95138889,190.806584 4.79166667,190.88642 5.03125,190.88642 C4.95138889,190.806584 4.71180556,190.806584 4.79166667,190.726749 C5.03125,190.646914 4.87152778,190.806584 5.11111111,190.726749 L5.03125,190.806584 C5.43055556,190.646914 5.03125,190.88642 5.43055556,190.726749 C5.51041667,190.646914 5.27083333,190.646914 5.35069444,190.567078 C5.19097222,190.567078 5.11111111,190.646914 4.95138889,190.646914 C4.63194444,190.567078 5.59027778,190.407407 5.27083333,190.407407 C5.11111111,190.407407 4.71180556,190.487243 4.95138889,190.327572 L5.27083333,190.327572 C5.27083333,190.247737 4.79166667,190.327572 5.03125,190.247737 C5.19097222,190.247737 5.11111111,190.327572 5.19097222,190.247737 C5.43055556,190.167901 5.03125,190.247737 5.03125,190.167901 L5.27083333,190.088066 C5.03125,190.00823 4.79166667,189.928395 4.79166667,189.84856 C4.87152778,189.84856 4.95138889,189.84856 5.03125,189.768724 C4.87152778,189.688889 5.03125,189.449383 5.11111111,189.289712 L4.87152778,189.289712 C4.87152778,189.289712 4.95138889,189.209877 5.03125,189.289712 C5.11111111,189.209877 4.87152778,189.289712 4.79166667,189.289712 C4.79166667,189.289712 4.95138889,189.209877 4.95138889,189.209877 C4.71180556,189.130041 4.47222222,189.050206 4.71180556,188.890535 L4.79166667,188.890535 C4.87152778,188.8107 4.3125,188.890535 4.47222222,188.8107 L4.55208333,188.8107 C4.63194444,188.651029 4.39236111,188.491358 4.71180556,188.331687 C4.39236111,188.411523 4.79166667,188.172016 4.39236111,188.251852 C4.63194444,188.092181 4.71180556,188.092181 4.79166667,187.93251 C4.79166667,187.93251 4.47222222,187.93251 4.47222222,187.93251 L4.71180556,187.852675 L4.47222222,187.852675 L4.79166667,187.77284 L4.71180556,187.77284 C4.71180556,187.77284 4.63194444,187.852675 4.55208333,187.852675 C4.39236111,187.77284 4.71180556,187.693004 4.79166667,187.613169 L4.55208333,187.533333 C4.63194444,187.533333 4.71180556,187.533333 4.79166667,187.533333 C4.55208333,187.533333 5.03125,187.453498 4.79166667,187.453498 C4.71180556,187.453498 4.63194444,187.453498 4.63194444,187.453498 C4.79166667,187.373663 4.79166667,187.293827 4.71180556,187.293827 L4.87152778,187.293827 C4.87152778,187.213992 4.71180556,187.054321 4.71180556,186.974486 C4.63194444,187.054321 4.39236111,187.054321 4.3125,187.054321 L4.55208333,186.974486 C4.39236111,186.974486 4.47222222,187.054321 4.23263889,187.054321 C4.23263889,186.974486 4.55208333,186.974486 4.63194444,186.974486 L4.55208333,186.974486 C4.63194444,186.974486 4.63194444,186.974486 4.79166667,186.974486 C4.63194444,186.974486 5.03125,186.814815 4.71180556,186.814815 L4.79166667,186.814815 C4.79166667,186.655144 4.63194444,186.655144 4.63194444,186.575309 C4.39236111,186.655144 4.47222222,186.575309 4.23263889,186.575309 C4.3125,186.495473 4.47222222,186.335802 4.39236111,186.255967 C4.23263889,186.255967 4.23263889,186.255967 4.07291667,186.255967 C4.23263889,186.176132 4.23263889,186.096296 4.39236111,186.096296 C4.3125,186.016461 4.3125,185.936626 4.15277778,185.85679 C4.07291667,185.85679 4.07291667,185.936626 3.99305556,185.936626 C3.99305556,185.936626 4.07291667,185.85679 4.15277778,185.85679 C3.83333333,185.776955 4.63194444,185.377778 4.23263889,185.377778 L3.99305556,185.297942 C3.99305556,185.218107 4.15277778,185.297942 4.23263889,185.218107 C3.83333333,185.138272 4.23263889,184.978601 3.99305556,184.898765 C4.55208333,184.659259 3.91319444,184.579424 4.23263889,184.419753 L3.99305556,184.339918 C3.83333333,184.339918 4.07291667,184.260082 4.07291667,184.260082 C3.99305556,184.260082 3.99305556,184.339918 3.91319444,184.339918 C3.67361111,184.100412 3.99305556,183.78107 4.07291667,183.461728 C4.07291667,183.381893 3.35416667,183.621399 3.67361111,183.381893 L3.91319444,183.381893 C3.59375,183.302058 3.83333333,182.982716 3.51388889,182.902881 C3.59375,182.902881 3.67361111,182.902881 3.67361111,182.902881 C3.83333333,182.823045 3.67361111,182.74321 3.51388889,182.823045 C3.51388889,182.823045 3.67361111,182.74321 3.75347222,182.74321 C3.83333333,182.663374 3.51388889,182.74321 3.67361111,182.663374 C3.67361111,182.663374 3.75347222,182.663374 3.75347222,182.663374 C3.67361111,182.663374 3.75347222,182.503704 3.51388889,182.583539 C3.59375,182.503704 3.35416667,182.503704 3.51388889,182.423868 C3.27430556,182.423868 3.59375,182.264198 3.27430556,182.344033 C3.59375,182.264198 3.51388889,182.104527 3.35416667,182.184362 C3.43402778,182.184362 3.43402778,182.104527 3.59375,182.104527 C3.59375,182.024691 3.51388889,182.024691 3.35416667,182.104527 C3.75347222,181.865021 2.95486111,182.024691 3.51388889,181.785185 C3.27430556,181.70535 3.11458333,181.625514 3.03472222,181.465844 C3.35416667,181.386008 3.11458333,181.625514 3.43402778,181.465844 C3.27430556,181.386008 2.95486111,181.386008 2.95486111,181.226337 C2.95486111,181.146502 3.11458333,181.226337 3.19444444,181.226337 C3.03472222,181.146502 3.11458333,180.986831 2.95486111,180.906996 C2.95486111,180.906996 3.03472222,180.906996 3.03472222,180.906996 C3.03472222,180.906996 3.03472222,180.82716 2.875,180.906996 L2.95486111,180.906996 C2.71527778,180.986831 2.47569444,180.986831 2.31597222,180.986831 C2.79513889,180.906996 2.39583333,180.82716 2.95486111,180.747325 C2.95486111,180.747325 2.875,180.747325 2.71527778,180.747325 C2.71527778,180.747325 2.79513889,180.66749 2.95486111,180.66749 C2.875,180.587654 2.71527778,180.66749 2.63541667,180.587654 C2.71527778,180.587654 2.71527778,180.587654 2.875,180.587654 C2.71527778,180.587654 2.55555556,180.587654 2.63541667,180.507819 C2.71527778,180.507819 2.71527778,180.507819 2.71527778,180.507819 C2.63541667,180.427984 2.23611111,180.427984 2.39583333,180.268313 C2.71527778,180.188477 2.47569444,180.188477 2.79513889,180.108642 L2.71527778,180.108642 L2.55555556,180.188477 C2.55555556,180.108642 2.31597222,180.188477 2.39583333,180.108642 L2.55555556,180.108642 L2.47569444,180.028807 L2.39583333,180.108642 C2.23611111,180.108642 1.99652778,180.188477 2.07638889,180.108642 C2.07638889,180.108642 2.07638889,180.028807 2.23611111,179.948971 C2.15625,179.948971 1.99652778,179.948971 2.07638889,179.869136 C2.15625,179.869136 2.39583333,179.7893 2.47569444,179.7893 C2.23611111,179.869136 2.39583333,179.709465 2.07638889,179.709465 C2.15625,179.709465 2.31597222,179.62963 2.31597222,179.62963 L2.07638889,179.62963 C2.15625,179.549794 2.15625,179.549794 2.31597222,179.549794 C2.31597222,179.469959 1.99652778,179.709465 2.07638889,179.549794 C2.07638889,179.549794 2.15625,179.549794 2.15625,179.549794 C2.23611111,179.469959 1.99652778,179.390123 2.07638889,179.310288 C2.31597222,179.230453 2.15625,179.390123 2.39583333,179.230453 C2.31597222,179.150617 1.99652778,179.070782 1.99652778,178.990947 C1.59722222,179.070782 2.15625,178.831276 1.99652778,178.831276 C1.99652778,178.831276 2.23611111,178.75144 2.15625,178.75144 C2.15625,178.671605 1.99652778,178.59177 1.83680556,178.511934 L1.91666667,178.511934 C1.99652778,178.432099 1.91666667,178.352263 1.99652778,178.272428 C1.91666667,178.272428 1.91666667,178.272428 1.75694444,178.352263 C2.31597222,178.032922 1.35763889,178.192593 1.75694444,177.873251 C1.75694444,177.873251 1.83680556,177.873251 1.83680556,177.873251 L1.67708333,177.793416 C1.51736111,177.873251 1.59722222,177.873251 1.4375,177.953086 C1.35763889,177.953086 1.27777778,177.953086 1.19791667,177.953086 C1.35763889,177.953086 1.51736111,177.873251 1.59722222,177.793416 C1.51736111,177.793416 1.51736111,177.793416 1.4375,177.873251 C1.75694444,177.71358 1.11805556,177.953086 1.27777778,177.793416 L1.35763889,177.793416 C1.27777778,177.793416 1.19791667,177.793416 1.19791667,177.71358 C1.35763889,177.633745 1.27777778,177.71358 1.4375,177.633745 C1.4375,177.553909 1.03819444,177.71358 1.19791667,177.553909 C1.27777778,177.553909 1.27777778,177.553909 1.35763889,177.553909 C1.59722222,177.394239 1.51736111,177.474074 1.51736111,177.394239 L1.59722222,177.314403 L1.51736111,177.394239 C0.958333333,177.553909 1.35763889,177.314403 1.03819444,177.314403 C1.35763889,177.314403 1.19791667,177.234568 1.4375,177.154733 C1.51736111,177.074897 1.51736111,177.074897 1.59722222,177.074897 C1.4375,177.074897 1.75694444,176.995062 1.4375,176.995062 C1.51736111,176.995062 1.4375,176.915226 1.59722222,176.915226 C1.51736111,176.915226 1.4375,176.995062 1.35763889,176.995062 C1.11805556,176.995062 1.59722222,176.67572 1.19791667,176.755556 C1.03819444,176.67572 0.798611111,176.755556 0.638888889,176.755556 C0.71875,176.67572 0.878472222,176.67572 0.878472222,176.67572 C0.958333333,176.595885 0.958333333,176.595885 0.798611111,176.516049 C0.878472222,176.516049 0.878472222,176.436214 0.958333333,176.436214 C0.958333333,176.436214 0.71875,176.516049 0.798611111,176.436214 C0.878472222,176.436214 1.03819444,176.356379 1.11805556,176.356379 C1.03819444,176.356379 0.878472222,176.356379 0.798611111,176.356379 C0.958333333,176.276543 1.03819444,176.276543 1.11805556,176.276543 C1.03819444,176.276543 0.958333333,176.196708 0.71875,176.276543 L0.638888889,176.356379 C0.638888889,176.356379 0.798611111,176.276543 0.878472222,176.276543 C1.03819444,176.276543 0.798611111,176.356379 0.71875,176.356379 L0.638888889,176.356379 C0.239583333,176.516049 0.798611111,176.436214 0.798611111,176.516049 L0.479166667,176.595885 L0.798611111,176.595885 C0.71875,176.67572 0.559027778,176.67572 0.479166667,176.67572 C0.319444444,176.755556 0.638888889,176.67572 0.479166667,176.755556 C0.479166667,176.755556 0.399305556,176.755556 0.399305556,176.755556 L0.479166667,176.755556 C0.399305556,176.755556 0.239583333,176.835391 0.319444444,176.835391 C0.159722222,176.995062 0.559027778,176.915226 0.399305556,176.995062 C0.559027778,177.074897 0.638888889,176.915226 0.958333333,176.915226 L0.399305556,177.154733 L0.638888889,177.074897 C0.638888889,177.074897 0.638888889,177.154733 0.559027778,177.154733 C0.71875,177.154733 0.638888889,177.074897 0.798611111,177.074897 C0.638888889,177.234568 0.958333333,177.154733 0.559027778,177.314403 C0.71875,177.234568 0.638888889,177.234568 0.798611111,177.234568 C0.399305556,177.394239 0.878472222,177.314403 0.71875,177.394239 C0.479166667,177.474074 0.638888889,177.394239 0.399305556,177.474074 C0.71875,177.394239 0.319444444,177.633745 0.399305556,177.633745 C0.638888889,177.553909 0.559027778,177.71358 0.638888889,177.71358 C0.559027778,177.71358 0.559027778,177.873251 0.479166667,177.953086 L0.399305556,177.953086 C0.71875,177.873251 0.638888889,177.953086 0.71875,177.953086 C0.559027778,178.032922 0.479166667,178.032922 0.399305556,178.032922 L0.399305556,178.112757 C0.479166667,178.112757 0.559027778,178.112757 0.559027778,178.112757 L0.319444444,178.192593 C0.319444444,178.272428 0.638888889,178.192593 0.479166667,178.352263 C0.638888889,178.272428 1.03819444,178.112757 1.11805556,178.112757 C1.03819444,178.112757 0.798611111,178.192593 0.798611111,178.192593 C0.798611111,178.192593 0.878472222,178.192593 0.878472222,178.192593 L0.71875,178.192593 C0.638888889,178.272428 0.878472222,178.192593 0.878472222,178.192593 C0.71875,178.272428 0.798611111,178.272428 0.638888889,178.272428 C0.638888889,178.272428 0.71875,178.192593 0.638888889,178.272428 C0.638888889,178.352263 0.559027778,178.352263 0.399305556,178.432099 C0.479166667,178.432099 0.638888889,178.352263 0.638888889,178.352263 C0.638888889,178.432099 0.479166667,178.432099 0.399305556,178.511934 C0.479166667,178.511934 0.399305556,178.59177 0.638888889,178.511934 C0.638888889,178.511934 0.559027778,178.59177 0.479166667,178.59177 C0.559027778,178.59177 0.559027778,178.75144 0.798611111,178.59177 C0.798611111,178.59177 0.798611111,178.59177 0.798611111,178.59177 C1.03819444,178.59177 0.71875,178.831276 0.878472222,178.911111 L0.798611111,178.911111 C0.878472222,178.911111 0.878472222,178.990947 1.03819444,178.990947 C1.03819444,178.990947 0.878472222,179.070782 0.798611111,179.070782 C0.878472222,179.070782 0.958333333,179.070782 0.878472222,179.150617 C0.71875,179.150617 0.798611111,179.230453 0.798611111,179.150617 C0.71875,179.230453 0.638888889,179.310288 0.878472222,179.310288 C0.71875,179.390123 0.638888889,179.469959 0.71875,179.469959 L0.878472222,179.390123 C0.878472222,179.390123 0.878472222,179.469959 0.878472222,179.469959 L0.71875,179.62963 C0.479166667,179.869136 1.27777778,179.709465 0.798611111,179.948971 C0.958333333,179.948971 0.878472222,179.869136 1.11805556,179.7893 C1.11805556,179.869136 0.71875,180.028807 0.798611111,180.028807 C0.71875,180.188477 1.19791667,179.948971 1.11805556,180.108642 C1.19791667,180.108642 1.4375,179.948971 1.51736111,180.028807 C1.51736111,180.108642 1.19791667,180.188477 1.03819444,180.188477 C1.03819444,180.188477 1.03819444,180.188477 1.11805556,180.188477 C1.11805556,180.188477 1.03819444,180.188477 0.958333333,180.188477 L1.03819444,180.188477 C0.958333333,180.268313 0.958333333,180.348148 0.798611111,180.348148 C0.878472222,180.348148 0.958333333,180.348148 0.958333333,180.268313 C0.878472222,180.348148 0.958333333,180.348148 0.958333333,180.507819 C1.03819444,180.507819 1.11805556,180.427984 1.11805556,180.427984 C1.03819444,180.587654 1.27777778,180.427984 1.35763889,180.507819 C1.19791667,180.587654 1.03819444,180.587654 1.19791667,180.66749 C1.11805556,180.747325 0.958333333,180.747325 0.878472222,180.747325 C1.03819444,180.747325 0.798611111,180.906996 0.798611111,180.986831 L0.71875,180.986831 C0.798611111,180.986831 0.798611111,180.986831 0.798611111,181.066667 L0.958333333,180.986831 C0.958333333,180.986831 0.958333333,181.066667 0.878472222,181.066667 C1.03819444,181.066667 1.19791667,180.986831 1.35763889,180.986831 C1.27777778,181.066667 1.51736111,181.066667 1.27777778,181.146502 C1.35763889,181.066667 1.03819444,181.226337 0.958333333,181.146502 C0.958333333,181.146502 0.958333333,181.146502 0.958333333,181.226337 C0.958333333,181.226337 0.878472222,181.226337 0.878472222,181.226337 C0.71875,181.386008 1.19791667,181.146502 1.19791667,181.306173 C1.03819444,181.306173 0.958333333,181.386008 0.958333333,181.386008 C0.958333333,181.386008 1.19791667,181.306173 1.27777778,181.306173 C1.19791667,181.386008 1.35763889,181.306173 1.35763889,181.386008 L1.35763889,181.306173 C1.51736111,181.306173 1.51736111,181.306173 1.51736111,181.306173 C1.4375,181.306173 1.4375,181.306173 1.35763889,181.306173 C1.59722222,181.306173 1.11805556,181.465844 1.35763889,181.465844 C1.27777778,181.545679 1.11805556,181.545679 1.03819444,181.625514 C1.19791667,181.625514 0.878472222,181.785185 1.03819444,181.785185 C1.19791667,181.70535 1.19791667,181.70535 1.35763889,181.70535 L1.19791667,181.625514 L1.51736111,181.625514 C1.51736111,181.625514 1.35763889,181.545679 1.4375,181.545679 C1.59722222,181.545679 1.51736111,181.545679 1.67708333,181.465844 C1.4375,181.625514 1.83680556,181.545679 1.67708333,181.625514 L1.19791667,181.785185 C1.03819444,181.944856 1.4375,181.865021 1.35763889,182.024691 L1.4375,181.944856 C1.59722222,181.944856 1.51736111,182.024691 1.59722222,182.024691 C1.4375,182.024691 1.35763889,182.104527 1.27777778,182.104527 C1.35763889,182.104527 1.27777778,182.184362 1.59722222,182.104527 L1.4375,182.184362 C1.35763889,182.264198 1.91666667,182.184362 1.83680556,182.264198 C1.67708333,182.264198 1.59722222,182.344033 1.4375,182.344033 C1.4375,182.344033 1.4375,182.423868 1.51736111,182.344033 C1.4375,182.423868 1.75694444,182.344033 1.59722222,182.423868 C1.67708333,182.423868 1.83680556,182.344033 1.83680556,182.423868 C1.83680556,182.423868 1.75694444,182.423868 1.75694444,182.423868 C1.83680556,182.423868 1.83680556,182.423868 1.99652778,182.344033 C1.51736111,182.583539 2.07638889,182.583539 1.67708333,182.74321 C1.75694444,182.823045 1.83680556,182.823045 1.83680556,182.902881 C1.75694444,182.902881 1.75694444,182.902881 1.75694444,182.902881 C1.59722222,182.982716 2.23611111,182.823045 2.07638889,182.982716 C1.83680556,183.062551 1.91666667,182.982716 1.83680556,183.062551 C1.35763889,183.222222 1.91666667,183.142387 1.67708333,183.302058 C1.51736111,183.381893 1.91666667,183.381893 1.91666667,183.461728 C1.91666667,183.461728 1.83680556,183.461728 1.83680556,183.461728 C2.07638889,183.461728 2.23611111,183.541564 2.31597222,183.541564 C2.07638889,183.541564 2.23611111,183.541564 1.99652778,183.621399 C1.99652778,183.621399 2.31597222,183.541564 2.39583333,183.541564 C2.31597222,183.621399 2.23611111,183.701235 1.99652778,183.701235 L1.99652778,183.621399 C1.75694444,183.701235 1.99652778,183.701235 1.99652778,183.78107 L1.83680556,183.78107 C1.91666667,183.860905 2.23611111,183.78107 2.23611111,183.860905 L2.31597222,183.860905 C2.63541667,183.860905 2.15625,183.940741 2.39583333,183.940741 L2.07638889,184.020576 C2.15625,184.020576 2.39583333,184.100412 2.47569444,184.100412 C2.23611111,184.100412 2.07638889,184.100412 1.99652778,184.100412 C1.99652778,184.100412 2.07638889,184.180247 2.23611111,184.180247 C2.23611111,184.180247 2.15625,184.180247 2.15625,184.180247 C2.39583333,184.180247 2.55555556,184.180247 2.55555556,184.260082 C1.99652778,184.419753 2.47569444,184.499588 1.99652778,184.659259 C2.23611111,184.739095 1.99652778,184.898765 1.99652778,185.058436 C2.47569444,184.898765 1.99652778,185.138272 2.47569444,184.978601 C2.47569444,184.978601 2.47569444,185.058436 2.47569444,185.058436 L2.39583333,185.297942 C2.23611111,185.377778 2.31597222,185.297942 2.15625,185.297942 C2.15625,185.377778 1.99652778,185.377778 1.83680556,185.457613 C1.99652778,185.377778 2.07638889,185.457613 1.99652778,185.457613 L2.23611111,185.377778 C2.47569444,185.457613 1.83680556,185.537449 2.15625,185.617284 L1.99652778,185.617284 C2.07638889,185.617284 2.07638889,185.776955 2.39583333,185.776955 C2.31597222,185.776955 2.23611111,185.85679 2.15625,185.85679 C2.15625,186.016461 2.63541667,186.016461 2.39583333,186.176132 L2.31597222,186.176132 C2.31597222,186.176132 2.55555556,186.176132 2.39583333,186.255967 C2.31597222,186.255967 2.31597222,186.255967 2.23611111,186.255967 C2.31597222,186.255967 2.47569444,186.255967 2.39583333,186.335802 L2.23611111,186.335802 C2.07638889,186.495473 2.63541667,186.495473 2.71527778,186.575309 C2.39583333,186.655144 2.31597222,186.734979 2.23611111,186.814815 L2.15625,186.814815 C2.15625,186.974486 2.47569444,186.974486 2.63541667,187.134156 C2.31597222,187.293827 2.55555556,187.453498 2.39583333,187.613169 C2.47569444,187.613169 2.63541667,187.533333 2.71527778,187.613169 C2.63541667,187.693004 2.95486111,187.693004 2.63541667,187.693004 C2.31597222,187.77284 2.39583333,187.852675 2.39583333,187.852675 L2.79513889,187.77284 C2.23611111,188.012346 3.11458333,188.092181 2.55555556,188.251852 C2.63541667,188.251852 2.63541667,188.331687 2.79513889,188.331687 L2.79513889,188.411523 C2.79513889,188.491358 2.71527778,188.571193 2.79513889,188.651029 L2.63541667,188.651029 C2.63541667,188.730864 3.27430556,188.571193 3.35416667,188.651029 L3.03472222,188.730864 C3.03472222,188.8107 2.79513889,188.97037 3.11458333,189.050206 C3.03472222,189.050206 2.95486111,189.050206 2.95486111,189.050206 C2.95486111,189.130041 2.79513889,189.289712 3.19444444,189.209877 C2.875,189.289712 3.19444444,189.289712 3.35416667,189.369547 L3.11458333,189.369547 C3.43402778,189.369547 3.51388889,189.369547 3.59375,189.449383 C3.59375,189.449383 3.43402778,189.529218 3.43402778,189.449383 C3.35416667,189.529218 3.67361111,189.449383 3.51388889,189.529218 L3.35416667,189.529218 C3.35416667,189.609053 3.43402778,189.609053 3.59375,189.609053 C3.67361111,189.609053 3.59375,189.688889 3.35416667,189.768724 C3.51388889,189.768724 3.67361111,189.768724 3.59375,189.768724 C3.51388889,189.768724 3.43402778,189.768724 3.43402778,189.768724 C3.27430556,189.928395 3.67361111,189.84856 3.51388889,190.00823 C3.43402778,190.00823 3.43402778,190.00823 3.35416667,190.00823 C3.35416667,189.928395 3.35416667,189.84856 3.35416667,189.84856 C3.19444444,189.928395 3.19444444,190.00823 2.875,190.00823 C3.03472222,190.00823 3.35416667,190.088066 3.27430556,190.167901 C3.27430556,190.167901 3.27430556,190.167901 3.19444444,190.167901 C3.19444444,190.167901 3.19444444,190.167901 3.19444444,190.167901 C3.19444444,190.167901 3.11458333,190.247737 3.11458333,190.247737 C2.95486111,190.247737 3.03472222,190.327572 3.03472222,190.327572 C3.27430556,190.247737 3.19444444,190.327572 3.43402778,190.247737 C3.43402778,190.247737 3.43402778,190.247737 3.35416667,190.247737 C3.35416667,190.247737 3.35416667,190.247737 3.35416667,190.247737 C3.35416667,190.247737 3.35416667,190.167901 3.35416667,190.167901 C3.43402778,190.167901 3.59375,190.167901 3.43402778,190.247737 C3.59375,190.247737 3.75347222,190.247737 3.83333333,190.247737 C3.51388889,190.327572 3.35416667,190.487243 3.19444444,190.487243 C3.35416667,190.567078 3.35416667,190.726749 3.75347222,190.646914 C3.83333333,190.646914 3.67361111,190.726749 3.59375,190.726749 C3.51388889,190.726749 3.51388889,190.726749 3.51388889,190.726749 C3.59375,190.726749 3.59375,190.88642 3.91319444,190.806584 C3.75347222,190.88642 3.67361111,190.806584 3.67361111,190.88642 L3.59375,190.88642 C3.19444444,191.125926 4.39236111,191.046091 3.83333333,191.365432 C3.83333333,191.365432 3.91319444,191.365432 3.91319444,191.285597 C3.67361111,191.525103 4.23263889,191.684774 3.83333333,192.004115 C3.75347222,192.083951 3.91319444,192.083951 4.07291667,192.083951 L3.83333333,192.163786 L4.15277778,192.163786 C4.39236111,192.243621 3.59375,192.403292 3.99305556,192.483128 L4.15277778,192.483128 C4.15277778,192.562963 4.23263889,192.642798 4.07291667,192.642798 C4.07291667,192.642798 4.23263889,192.642798 4.15277778,192.642798 L3.99305556,192.642798 L4.23263889,192.722634 C4.15277778,192.802469 3.75347222,192.802469 3.75347222,192.882305 C3.83333333,192.882305 4.15277778,192.96214 4.23263889,192.96214 C4.23263889,192.96214 4.3125,192.882305 4.39236111,192.882305 L4.47222222,192.882305 C4.87152778,192.802469 5.19097222,192.802469 5.43055556,192.642798 L5.19097222,192.562963 L5.35069444,192.483128 L5.35069444,192.562963 C5.51041667,192.483128 5.35069444,192.483128 5.27083333,192.483128 C5.35069444,192.483128 5.43055556,192.483128 5.43055556,192.403292 L5.03125,192.403292 C5.19097222,192.403292 5.35069444,192.403292 5.43055556,192.323457 C5.27083333,192.323457 5.11111111,192.403292 5.03125,192.323457 C5.19097222,192.243621 5.35069444,192.243621 5.19097222,192.243621 C5.27083333,192.243621 5.35069444,192.243621 5.35069444,192.243621 C5.27083333,192.243621 5.27083333,192.163786 5.11111111,192.163786 C5.35069444,192.083951 5.03125,192.083951 5.35069444,192.004115 C5.27083333,192.004115 5.03125,192.004115 5.03125,191.92428 C5.43055556,191.92428 5.03125,191.764609 5.51041667,191.764609 C5.11111111,191.764609 5.35069444,191.604938 5.11111111,191.604938 C5.11111111,191.604938 5.19097222,191.604938 5.19097222,191.604938 C5.19097222,191.525103 5.35069444,191.525103 5.43055556,191.525103 C5.11111111,191.604938 5.03125,191.525103 4.87152778,191.525103 C5.19097222,191.445267 5.27083333,191.525103 5.51041667,191.445267 C5.27083333,191.525103 5.27083333,191.365432 5.03125,191.445267 C5.19097222,191.365432 5.11111111,191.365432 5.35069444,191.365432 C4.95138889,191.445267 5.27083333,191.365432 5.03125,191.365432 C5.19097222,191.285597 5.43055556,191.285597 5.27083333,191.205761 C5.43055556,191.285597 5.59027778,191.285597 5.59027778,191.285597 M4.63194444,189.768724 C4.63194444,189.768724 4.63194444,189.768724 4.63194444,189.768724 C4.55208333,189.84856 4.47222222,189.84856 4.47222222,189.84856 C4.55208333,189.768724 4.63194444,189.768724 4.63194444,189.768724 M3.19444444,190.247737 C3.11458333,190.247737 3.19444444,190.247737 3.19444444,190.247737 C3.27430556,190.247737 3.27430556,190.247737 3.27430556,190.247737 C3.27430556,190.247737 3.19444444,190.247737 3.19444444,190.247737" id="Shape"></path>
            <path d="M3.51388889,190.247737 C3.51388889,190.247737 3.51388889,190.247737 3.51388889,190.247737 C3.51388889,190.247737 3.51388889,190.247737 3.51388889,190.247737 C3.43402778,190.247737 3.51388889,190.247737 3.51388889,190.247737" id="Shape"></path>
            <path d="M0.878472222,178.671605 C0.958333333,178.671605 0.958333333,178.671605 0.878472222,178.671605 C0.958333333,178.671605 0.958333333,178.671605 0.878472222,178.671605" id="Shape"></path>
            <path d="M1.35763889,177.154733 C1.35763889,177.154733 1.27777778,177.154733 1.27777778,177.154733 L1.35763889,177.154733 Z" id="Shape"></path>
            <path d="M2.79513889,180.747325 C2.79513889,180.747325 2.79513889,180.747325 2.79513889,180.747325 C2.875,180.747325 2.875,180.747325 2.79513889,180.747325" id="Shape"></path>
            <path d="M1.99652778,179.7893 C2.07638889,179.7893 2.07638889,179.7893 2.07638889,179.7893 C2.07638889,179.7893 2.07638889,179.7893 1.99652778,179.7893" id="Shape"></path>
            <path d="M2.07638889,179.869136 C2.15625,179.869136 2.15625,179.7893 2.07638889,179.869136 C2.07638889,179.869136 2.07638889,179.869136 2.07638889,179.869136" id="Shape"></path>
            <path d="M1.11805556,176.116872 C1.03819444,176.116872 1.11805556,176.116872 1.11805556,176.116872" id="Shape"></path>
            <path d="M1.11805556,176.436214 C1.19791667,176.436214 1.19791667,176.436214 1.11805556,176.436214" id="Shape"></path>
            <path d="M1.19791667,176.516049 C1.19791667,176.516049 1.35763889,176.436214 1.27777778,176.356379 L1.19791667,176.356379 C1.35763889,176.436214 1.03819444,176.595885 1.19791667,176.516049" id="Shape"></path>
            <path d="M0.399305556,177.234568 L0.399305556,177.154733 C0.319444444,177.234568 0.239583333,177.234568 0.239583333,177.234568 C2.77555756e-17,177.394239 0.399305556,177.154733 0.399305556,177.234568" id="Shape"></path>
            <path d="M0.319444444,177.553909 C0.239583333,177.553909 0.239583333,177.633745 0.159722222,177.633745 C0.239583333,177.633745 0.319444444,177.633745 0.319444444,177.553909" id="Shape"></path>
            <path d="M0.958333333,179.230453 L0.798611111,179.310288 C0.798611111,179.310288 0.798611111,179.310288 0.958333333,179.230453" id="Shape"></path>
            <polygon id="Shape" points="1.99652778 179.310288 2.15625 179.230453 1.99652778 179.230453"></polygon>
            <polygon id="Shape" points="0.71875 179.948971 0.638888889 179.869136 0.798611111 179.948971"></polygon>
            <path d="M1.59722222,182.823045 L1.83680556,182.74321 C1.83680556,182.74321 1.51736111,182.74321 1.59722222,182.823045" id="Shape"></path>
            <path d="M2.23611111,184.020576 C2.15625,184.100412 2.07638889,184.100412 2.15625,184.100412 C2.15625,184.020576 2.23611111,184.020576 2.23611111,184.020576" id="Shape"></path>
            <polygon id="Shape" points="2.71527778 187.93251 2.63541667 187.93251"></polygon>
            <path d="M23.71875,188.651029 C23.71875,188.571193 23.6388889,188.411523 23.6388889,188.491358 L23.71875,188.730864 L23.71875,188.651029 Z" id="Shape"></path>
            <path d="M23.3194444,188.331687 C23.3194444,188.491358 23.3993056,188.651029 23.5590278,188.890535 C23.4791667,188.651029 23.5590278,188.730864 23.3993056,188.411523 C23.3993056,188.411523 23.4791667,188.491358 23.4791667,188.571193 C23.4791667,188.491358 23.5590278,188.571193 23.4791667,188.411523 C23.3194444,188.251852 23.3194444,188.251852 23.3194444,188.411523 C23.3194444,188.411523 23.3194444,188.331687 23.3194444,188.331687" id="Shape"></path>
            <path d="M20.6041667,188.97037 C20.6041667,189.050206 20.6041667,188.97037 20.6041667,188.97037" id="Shape"></path>
            <path d="M18.9270833,189.449383 C19.0069444,189.449383 19.0069444,189.449383 18.9270833,189.449383 C18.9270833,189.369547 18.9270833,189.449383 18.9270833,189.449383" id="Shape"></path>
            <path d="M18.6076389,189.289712 C18.6076389,189.289712 18.6076389,189.289712 18.6076389,189.289712 C18.6076389,189.289712 18.6076389,189.209877 18.6076389,189.289712" id="Shape"></path>
            <path d="M20.6041667,188.97037 C20.5243056,189.050206 20.6041667,188.97037 20.6041667,188.97037" id="Shape"></path>
            <path d="M23.2395833,189.050206 C23.2395833,189.050206 23.2395833,188.97037 23.2395833,189.050206 C23.2395833,188.97037 23.2395833,188.97037 23.2395833,189.050206 Z" id="Shape"></path>
            <path d="M21.2430556,188.491358 C21.2430556,188.491358 21.2430556,188.411523 21.2430556,188.411523 L21.2430556,188.491358 Z" id="Shape"></path>
            <path d="M21.7222222,188.251852 C21.7222222,188.251852 21.8020833,188.491358 21.8020833,188.571193 C21.8020833,188.491358 21.8020833,188.411523 21.8020833,188.411523 C21.8020833,188.411523 21.7222222,188.331687 21.7222222,188.251852" id="Shape"></path>
            <path d="M20.84375,188.651029 C20.84375,188.571193 20.7638889,188.571193 20.84375,188.651029 Z" id="Shape"></path>
            <polygon id="Shape" points="4.55208333 192.083951 4.55208333 192.083951 4.55208333 192.004115"></polygon>
            <path d="M13.4166667,190.487243 C13.4965278,190.646914 13.4166667,190.726749 13.4965278,190.966255 C13.4965278,190.88642 13.4965278,190.646914 13.4166667,190.487243" id="Shape"></path>
            <path d="M16.9305556,189.609053 C16.9305556,189.609053 16.9305556,189.688889 16.9305556,189.688889 C16.9305556,189.688889 16.9305556,189.688889 16.9305556,189.609053" id="Shape"></path>
            <path d="M17.8888889,189.688889 C17.8090278,189.688889 17.8090278,189.688889 17.8888889,189.688889" id="Shape"></path>
            <path d="M16.53125,190.088066 C16.53125,190.00823 16.53125,190.00823 16.53125,190.088066 C16.53125,190.088066 16.53125,190.088066 16.53125,190.088066 C16.53125,190.00823 16.53125,190.00823 16.53125,190.088066" id="Shape"></path>
            <path d="M16.0520833,190.167901 C16.0520833,190.167901 16.0520833,190.247737 16.0520833,190.167901 Z" id="Shape"></path>
            <path d="M6.78819444,193.121811 C6.78819444,193.041975 6.78819444,192.96214 6.78819444,192.882305 C6.70833333,193.041975 6.62847222,193.121811 6.78819444,193.121811" id="Shape"></path>
            <path d="M23.1597222,188.890535 C23.1597222,188.97037 23.1597222,188.97037 23.1597222,188.97037 L23.1597222,188.890535 C23.1597222,188.97037 23.1597222,188.97037 23.1597222,188.890535" id="Shape"></path>
            <path d="M17.0104167,191.764609 L16.9305556,191.764609 C16.9305556,191.764609 16.9305556,191.764609 17.0104167,191.764609" id="Shape"></path>
            <path d="M10.3819444,192.802469 C10.3819444,192.882305 10.3819444,192.882305 10.3819444,192.802469" id="Shape"></path>
            <path d="M16.6909722,191.844444 C16.6909722,191.764609 16.6111111,191.764609 16.6111111,191.684774 C16.6111111,191.684774 16.6111111,191.684774 16.6111111,191.764609 L16.6909722,191.844444 Z" id="Shape"></path>
            <path d="M6.22916667,193.441152 C6.30902778,193.441152 6.22916667,193.121811 6.30902778,192.96214 C6.38888889,192.882305 6.38888889,193.201646 6.38888889,193.361317 C6.46875,193.281481 6.46875,193.041975 6.54861111,193.041975 C6.54861111,193.121811 6.54861111,193.121811 6.54861111,193.201646 C6.62847222,192.96214 6.70833333,193.201646 6.78819444,192.882305 C6.78819444,192.882305 6.78819444,192.96214 6.78819444,192.96214 C6.78819444,192.802469 6.78819444,192.642798 6.78819444,192.562963 C6.78819444,192.562963 6.86805556,192.403292 6.86805556,192.562963 C6.86805556,192.562963 6.86805556,192.642798 6.86805556,192.722634 L6.86805556,192.642798 C6.94791667,192.882305 6.78819444,192.722634 6.78819444,192.96214 C6.86805556,192.882305 6.94791667,192.642798 6.94791667,192.722634 C6.94791667,192.96214 6.78819444,192.802469 6.86805556,193.041975 L6.78819444,192.96214 C6.86805556,193.361317 6.70833333,192.96214 6.78819444,193.361317 C6.86805556,193.441152 6.86805556,193.201646 7.02777778,193.281481 C7.02777778,193.121811 7.02777778,193.041975 7.02777778,192.882305 C7.1875,192.642798 7.1875,193.520988 7.26736111,193.201646 C7.26736111,193.041975 7.26736111,192.642798 7.34722222,192.882305 L7.34722222,193.201646 C7.42708333,193.201646 7.42708333,192.722634 7.50694444,192.96214 C7.50694444,193.121811 7.42708333,193.041975 7.42708333,193.121811 C7.50694444,193.361317 7.50694444,192.96214 7.50694444,192.96214 L7.50694444,193.201646 C7.58680556,193.121811 7.74652778,192.96214 7.82638889,192.882305 C7.82638889,192.96214 7.82638889,193.041975 7.82638889,193.121811 C7.98611111,192.96214 8.14583333,193.121811 8.30555556,193.281481 L8.38541667,193.041975 C8.38541667,193.041975 8.38541667,193.121811 8.38541667,193.201646 C8.46527778,193.281481 8.38541667,193.041975 8.38541667,192.96214 C8.38541667,192.96214 8.46527778,193.121811 8.38541667,193.201646 C8.46527778,192.96214 8.625,192.722634 8.78472222,192.96214 L8.78472222,193.041975 C8.86458333,193.121811 8.86458333,192.562963 8.94444444,192.802469 L8.94444444,192.882305 C9.10416667,192.96214 9.34375,192.722634 9.50347222,193.041975 C9.50347222,192.722634 9.66319444,193.201646 9.66319444,192.722634 C9.82291667,192.96214 9.74305556,193.041975 9.90277778,193.201646 C9.98263889,193.201646 9.90277778,192.882305 9.98263889,192.882305 L9.98263889,193.121811 L9.98263889,192.882305 L10.0625,193.201646 L10.0625,193.121811 C10.0625,193.121811 9.98263889,193.041975 9.98263889,192.96214 C10.0625,192.882305 10.1423611,193.121811 10.2222222,193.201646 L10.3819444,192.96214 C10.3819444,193.041975 10.3819444,193.121811 10.3819444,193.201646 C10.4618056,192.96214 10.4618056,193.441152 10.4618056,193.201646 C10.4618056,193.121811 10.4618056,193.041975 10.4618056,193.041975 C10.5416667,193.201646 10.6215278,193.201646 10.7013889,193.121811 L10.7013889,193.281481 C10.8611111,193.281481 10.9409722,193.201646 11.1006944,193.121811 C11.0208333,193.041975 11.0208333,192.722634 11.0208333,192.722634 L11.1006944,192.96214 C11.1006944,192.802469 11.0208333,192.882305 11.1006944,192.642798 C11.1805556,192.642798 11.1805556,192.96214 11.1805556,193.041975 L11.2604167,192.96214 C11.2604167,193.041975 11.2604167,193.041975 11.2604167,193.201646 C11.2604167,193.041975 11.4201389,193.441152 11.4201389,193.201646 L11.4201389,193.281481 C11.5798611,193.281481 11.5798611,193.201646 11.7395833,193.121811 C11.7395833,192.882305 11.7395833,192.96214 11.7395833,192.722634 C11.8194444,192.802469 11.9791667,192.96214 12.0590278,192.882305 C12.1388889,192.722634 12.0590278,192.722634 12.0590278,192.562963 C12.0590278,192.802469 12.21875,192.722634 12.1388889,192.882305 C12.21875,192.802469 12.2986111,192.802469 12.3784722,192.642798 C12.3784722,192.562963 12.2986111,192.562963 12.2986111,192.483128 C12.2986111,192.483128 12.3784722,192.562963 12.3784722,192.642798 C12.4583333,192.323457 12.8576389,193.201646 12.9375,192.722634 L13.0173611,192.483128 C13.0972222,192.483128 13.0173611,192.642798 13.0972222,192.722634 C13.1770833,192.323457 13.3368056,192.722634 13.4166667,192.483128 C13.65625,193.041975 13.7361111,192.403292 13.9756944,192.722634 L13.9756944,192.562963 C13.9756944,192.403292 14.0555556,192.642798 14.0555556,192.642798 C14.0555556,192.562963 13.9756944,192.562963 13.9756944,192.483128 C14.2152778,192.243621 14.6145833,192.562963 14.9340278,192.642798 C15.0138889,192.642798 14.8541667,191.92428 15.0138889,192.243621 L15.0138889,192.483128 C15.1736111,192.163786 15.4930556,192.403292 15.5729167,192.083951 C15.5729167,192.163786 15.5729167,192.243621 15.5729167,192.243621 C15.6527778,192.403292 15.7326389,192.243621 15.7326389,192.083951 C15.7326389,192.083951 15.8125,192.243621 15.8125,192.323457 C15.8923611,192.403292 15.8923611,192.083951 15.9722222,192.243621 C15.9722222,192.243621 15.9722222,192.323457 15.9722222,192.323457 C15.9722222,192.243621 16.1319444,192.323457 16.0520833,192.083951 C16.1319444,192.163786 16.2118056,191.92428 16.2916667,192.083951 C16.2916667,191.844444 16.4513889,192.163786 16.3715278,191.844444 C16.4513889,192.163786 16.6111111,192.083951 16.6111111,191.92428 C16.6111111,192.004115 16.6909722,192.004115 16.6909722,192.163786 C16.7708333,192.163786 16.7708333,192.083951 16.6909722,191.92428 C16.9305556,192.323457 16.7708333,191.525103 17.0104167,192.083951 C17.0902778,191.844444 17.25,191.684774 17.4097222,191.525103 C17.4895833,191.844444 17.25,191.604938 17.3298611,192.004115 C17.4097222,191.844444 17.4097222,191.525103 17.5694444,191.525103 C17.6493056,191.525103 17.5694444,191.684774 17.5694444,191.764609 C17.6493056,191.604938 17.8888889,191.684774 17.8888889,191.445267 C17.8888889,191.445267 17.8888889,191.525103 17.8888889,191.525103 C17.8888889,191.525103 17.96875,191.525103 17.8888889,191.365432 L17.8888889,191.445267 C17.8090278,191.205761 17.8090278,190.966255 17.8090278,190.806584 C17.8888889,191.285597 17.96875,190.88642 18.0486111,191.445267 C18.0486111,191.445267 18.0486111,191.365432 18.0486111,191.205761 C18.0486111,191.205761 18.1284722,191.285597 18.1284722,191.445267 C18.2083333,191.365432 18.1284722,191.205761 18.2083333,191.125926 C18.2083333,191.205761 18.2083333,191.205761 18.2083333,191.365432 C18.2083333,191.205761 18.2083333,191.046091 18.2881944,191.125926 C18.2881944,191.205761 18.2881944,191.205761 18.2881944,191.205761 C18.3680556,191.125926 18.3680556,190.726749 18.5277778,190.88642 C18.6076389,191.205761 18.6076389,190.966255 18.6875,191.285597 L18.7673611,191.205761 L18.6875,191.046091 C18.7673611,191.046091 18.7673611,190.806584 18.8472222,190.88642 L18.8472222,191.046091 L18.9270833,190.966255 L18.8472222,190.88642 C18.8472222,190.726749 18.6875,190.567078 18.8472222,190.567078 C18.8472222,190.567078 18.9270833,190.567078 19.0069444,190.726749 C19.0069444,190.646914 19.0069444,190.487243 19.0868056,190.567078 C19.1666667,190.646914 19.1666667,190.88642 19.2465278,190.966255 C19.1666667,190.726749 19.3263889,190.88642 19.3263889,190.567078 C19.3263889,190.646914 19.40625,190.806584 19.40625,190.806584 L19.3263889,190.646914 C19.40625,190.726749 19.40625,190.726749 19.40625,190.806584 C19.4861111,190.806584 19.2465278,190.487243 19.40625,190.567078 C19.40625,190.567078 19.40625,190.646914 19.40625,190.646914 C19.5659722,190.726749 19.5659722,190.487243 19.6458333,190.487243 C19.8055556,190.726749 19.5659722,190.567078 19.7256944,190.806584 C19.8055556,190.726749 19.8854167,190.407407 20.0451389,190.407407 C19.8854167,190.00823 20.2048611,190.567078 20.2048611,190.327572 C20.2048611,190.327572 20.2847222,190.567078 20.2847222,190.487243 C20.3645833,190.487243 20.4444444,190.327572 20.5243056,190.167901 L20.5243056,190.247737 C20.6041667,190.327572 20.6840278,190.247737 20.7638889,190.247737 C20.7638889,190.167901 20.7638889,190.167901 20.6840278,190.00823 C21.0833333,190.487243 20.84375,189.609053 21.2430556,190.00823 C21.2430556,190.00823 21.2430556,190.088066 21.2430556,190.088066 L21.3229167,189.928395 C21.2430556,189.768724 21.2430556,189.84856 21.1631944,189.688889 C21.1631944,189.609053 21.1631944,189.449383 21.1631944,189.449383 C21.1631944,189.609053 21.2430556,189.688889 21.3229167,189.768724 C21.3229167,189.688889 21.2430556,189.688889 21.2430556,189.609053 C21.4027778,189.84856 21.0833333,189.289712 21.3229167,189.449383 L21.3229167,189.529218 C21.3229167,189.449383 21.3229167,189.369547 21.4027778,189.369547 C21.4826389,189.529218 21.4027778,189.449383 21.4826389,189.609053 C21.5625,189.609053 21.4027778,189.209877 21.5625,189.369547 C21.5625,189.449383 21.5625,189.449383 21.5625,189.529218 C21.7222222,189.768724 21.7222222,189.688889 21.7222222,189.688889 L21.8819444,189.768724 L21.8020833,189.688889 C21.6423611,189.130041 21.8819444,189.529218 21.8020833,189.130041 C21.8819444,189.449383 21.8819444,189.289712 21.9618056,189.529218 C22.0416667,189.609053 22.0416667,189.609053 22.1215278,189.688889 C22.1215278,189.529218 22.28125,189.768724 22.2013889,189.529218 C22.2013889,189.609053 22.28125,189.529218 22.28125,189.688889 C22.28125,189.609053 22.2013889,189.529218 22.2013889,189.449383 C22.2013889,189.209877 22.5208333,189.688889 22.5208333,189.289712 C22.5208333,189.130041 22.4409722,188.890535 22.5208333,188.730864 C22.6006944,188.8107 22.6006944,188.97037 22.6006944,188.97037 C22.6805556,189.050206 22.7604167,189.050206 22.7604167,188.890535 C22.7604167,188.97037 22.8402778,188.97037 22.8402778,189.050206 C22.8402778,189.050206 22.7604167,188.8107 22.8402778,188.890535 C22.8402778,188.97037 22.9201389,189.130041 22.9201389,189.209877 C22.9201389,189.130041 22.9201389,188.97037 22.9201389,188.890535 C23,188.97037 23,189.050206 23,189.209877 C23,189.130041 23.0798611,189.050206 23,188.8107 L22.9201389,188.730864 C22.9201389,188.730864 23,188.890535 23,188.97037 C23,189.130041 22.9201389,188.97037 22.8402778,188.890535 L22.8402778,188.8107 C22.6006944,188.411523 22.7604167,188.97037 22.6805556,188.97037 L22.6006944,188.651029 L22.6805556,188.97037 C22.6006944,188.890535 22.5208333,188.730864 22.5208333,188.651029 C22.4409722,188.491358 22.5208333,188.8107 22.4409722,188.651029 C22.4409722,188.651029 22.4409722,188.651029 22.4409722,188.571193 L22.4409722,188.651029 C22.4409722,188.571193 22.3611111,188.411523 22.3611111,188.491358 C22.2013889,188.331687 22.3611111,188.8107 22.2013889,188.571193 C22.1215278,188.730864 22.28125,188.8107 22.28125,189.130041 L21.9618056,188.571193 L22.0416667,188.8107 C22.0416667,188.8107 21.9618056,188.8107 21.9618056,188.730864 C21.9618056,188.890535 22.0416667,188.8107 22.0416667,188.97037 C21.8819444,188.8107 21.9618056,189.130041 21.7222222,188.8107 C21.8020833,188.97037 21.8020833,188.890535 21.8020833,189.050206 C21.6423611,188.651029 21.7222222,189.130041 21.6423611,188.97037 C21.5625,188.730864 21.6423611,188.8107 21.5625,188.730864 C21.6423611,189.050206 21.4027778,188.730864 21.4027778,188.8107 C21.4826389,189.050206 21.3229167,188.97037 21.3229167,189.050206 C21.3229167,188.97037 21.0833333,188.97037 21.0034722,188.890535 L21.0034722,188.8107 C21.0833333,189.050206 21.0034722,189.050206 21.0034722,189.130041 C20.9236111,188.97037 20.9236111,188.890535 20.9236111,188.8107 L20.84375,188.8107 C20.84375,188.890535 20.84375,188.97037 20.84375,188.97037 L20.7638889,188.730864 C20.6840278,188.730864 20.7638889,189.050206 20.6041667,188.890535 C20.6840278,189.050206 20.9236111,189.369547 20.84375,189.529218 C20.7638889,189.449383 20.7638889,189.289712 20.7638889,189.209877 C20.7638889,189.209877 20.7638889,189.289712 20.7638889,189.289712 L20.7638889,189.130041 C20.6840278,189.050206 20.7638889,189.289712 20.7638889,189.289712 C20.6840278,189.130041 20.6840278,189.209877 20.6840278,189.050206 C20.6840278,189.050206 20.7638889,189.130041 20.6840278,189.050206 C20.6041667,189.050206 20.5243056,188.97037 20.5243056,188.890535 C20.5243056,188.97037 20.6041667,189.050206 20.6041667,189.130041 C20.5243056,189.130041 20.5243056,188.97037 20.4444444,188.890535 C20.4444444,188.97037 20.3645833,188.890535 20.4444444,189.130041 C20.4444444,189.130041 20.3645833,189.050206 20.3645833,188.97037 C20.3645833,189.050206 20.2048611,189.050206 20.3645833,189.289712 C20.3645833,189.289712 20.3645833,189.289712 20.3645833,189.289712 C20.3645833,189.529218 20.125,189.289712 20.0451389,189.369547 L20.0451389,189.289712 C20.0451389,189.369547 19.8854167,189.369547 19.9652778,189.609053 C19.9652778,189.609053 19.8854167,189.529218 19.8055556,189.369547 C19.8055556,189.449383 19.8055556,189.529218 19.6458333,189.449383 C19.6458333,189.289712 19.5659722,189.369547 19.6458333,189.369547 C19.5659722,189.369547 19.4861111,189.209877 19.4861111,189.449383 C19.40625,189.289712 19.3263889,189.209877 19.3263889,189.289712 L19.40625,189.369547 C19.40625,189.369547 19.3263889,189.369547 19.3263889,189.369547 L19.2465278,189.130041 C19.0069444,188.890535 19.1666667,189.768724 18.9270833,189.289712 C18.9270833,189.449383 19.0069444,189.369547 19.0868056,189.609053 C19.0069444,189.609053 18.8472222,189.289712 18.7673611,189.289712 C18.6076389,189.209877 18.8472222,189.688889 18.6875,189.609053 C18.7673611,189.688889 18.8472222,189.928395 18.7673611,190.00823 C18.6875,190.00823 18.5277778,189.688889 18.6076389,189.609053 C18.6076389,189.609053 18.6076389,189.609053 18.6076389,189.688889 C18.6076389,189.688889 18.6076389,189.609053 18.6076389,189.529218 L18.6076389,189.609053 C18.5277778,189.529218 18.4479167,189.529218 18.4479167,189.449383 C18.4479167,189.529218 18.4479167,189.609053 18.5277778,189.609053 C18.3680556,189.529218 18.3680556,189.688889 18.2881944,189.609053 C18.2881944,189.688889 18.3680556,189.768724 18.3680556,189.768724 C18.2083333,189.688889 18.3680556,189.928395 18.2881944,190.00823 C18.2083333,189.84856 18.2083333,189.688889 18.1284722,189.84856 C18.0486111,189.768724 18.0486111,189.609053 18.0486111,189.529218 C18.0486111,189.688889 17.8888889,189.449383 17.8090278,189.449383 L17.8090278,189.369547 C17.8090278,189.449383 17.8090278,189.449383 17.7291667,189.449383 L17.8090278,189.609053 C17.8090278,189.609053 17.7291667,189.609053 17.7291667,189.529218 C17.7291667,189.688889 17.8090278,189.84856 17.8090278,190.00823 C17.7291667,189.928395 17.7291667,190.167901 17.6493056,189.928395 C17.8090278,190.00823 17.5694444,189.688889 17.6493056,189.609053 C17.6493056,189.609053 17.6493056,189.609053 17.5694444,189.609053 C17.5694444,189.609053 17.5694444,189.529218 17.5694444,189.529218 C17.4097222,189.369547 17.6493056,189.84856 17.4895833,189.84856 C17.4895833,189.688889 17.4097222,189.609053 17.4097222,189.609053 C17.4097222,189.609053 17.4895833,189.84856 17.4895833,189.928395 C17.4097222,189.84856 17.4097222,190.00823 17.4097222,190.00823 L17.4895833,190.00823 C17.4895833,190.167901 17.4895833,190.167901 17.4895833,190.167901 C17.4895833,190.088066 17.4895833,190.088066 17.4895833,190.00823 C17.4895833,190.247737 17.3298611,189.768724 17.25,190.00823 C17.1701389,189.928395 17.1701389,189.768724 17.0902778,189.688889 C17.0902778,189.84856 16.9305556,189.529218 16.9305556,189.688889 C17.0104167,189.84856 17.0104167,189.84856 17.0104167,190.00823 L17.0902778,189.84856 L17.0902778,190.167901 C17.1701389,190.167901 17.1701389,190.00823 17.1701389,190.088066 C17.1701389,190.247737 17.1701389,190.167901 17.25,190.327572 C17.0902778,190.088066 17.1701389,190.487243 17.0902778,190.327572 L16.9305556,189.84856 C16.7708333,189.688889 16.8506944,190.167901 16.6909722,190.088066 L16.7708333,190.167901 C16.7708333,190.327572 16.6909722,190.247737 16.6909722,190.327572 C16.6909722,190.167901 16.6111111,190.088066 16.53125,190.00823 C16.53125,190.088066 16.4513889,190.00823 16.53125,190.327572 L16.4513889,190.167901 C16.2916667,190.088066 16.4513889,190.646914 16.3715278,190.646914 C16.3715278,190.487243 16.2916667,190.407407 16.2916667,190.247737 C16.2916667,190.247737 16.2118056,190.247737 16.2916667,190.327572 C16.2118056,190.247737 16.2916667,190.567078 16.2118056,190.407407 C16.2118056,190.487243 16.2916667,190.646914 16.2118056,190.646914 C16.2118056,190.646914 16.2118056,190.567078 16.2118056,190.567078 C16.2118056,190.646914 16.2118056,190.646914 16.2916667,190.806584 C16.0520833,190.327572 16.0520833,190.88642 15.8125,190.487243 C15.7326389,190.567078 15.6527778,190.646914 15.6527778,190.646914 C15.6527778,190.567078 15.6527778,190.567078 15.6527778,190.567078 C15.4930556,190.407407 15.7326389,191.046091 15.5729167,190.88642 C15.4930556,190.646914 15.5729167,190.726749 15.5729167,190.646914 C15.4131944,190.167901 15.4930556,190.726749 15.3333333,190.487243 C15.2534722,190.327572 15.2534722,190.726749 15.1736111,190.726749 C15.1736111,190.726749 15.1736111,190.646914 15.1736111,190.646914 C15.1736111,190.88642 15.09375,191.046091 15.0138889,191.125926 C15.0138889,190.88642 15.0138889,191.046091 14.9340278,190.806584 C14.9340278,190.806584 15.0138889,191.125926 14.9340278,191.205761 C14.8541667,191.125926 14.7743056,191.046091 14.7743056,190.806584 L14.8541667,190.806584 C14.7743056,190.567078 14.7743056,190.806584 14.6944444,190.806584 L14.6944444,190.646914 C14.6145833,190.726749 14.6944444,191.046091 14.5347222,191.046091 L14.5347222,191.125926 C14.5347222,191.445267 14.4548611,190.966255 14.4548611,191.205761 L14.375,190.88642 C14.375,190.966255 14.2951389,191.205761 14.2152778,191.285597 C14.2152778,191.046091 14.2951389,190.88642 14.2951389,190.726749 C14.2152778,190.726749 14.1354167,190.806584 14.2152778,190.966255 C14.2152778,190.966255 14.2152778,190.88642 14.2152778,190.88642 C14.2152778,191.125926 14.2152778,191.285597 14.1354167,191.285597 C14.0555556,190.646914 13.8958333,191.205761 13.7361111,190.726749 C13.65625,190.966255 13.4166667,190.646914 13.2569444,190.726749 C13.4166667,191.205761 13.1770833,190.726749 13.3368056,191.205761 C13.3368056,191.205761 13.2569444,191.205761 13.2569444,191.205761 L13.0972222,190.966255 C13.0173611,190.806584 13.0972222,190.88642 13.0972222,190.726749 C13.0173611,190.726749 13.0173611,190.567078 12.9375,190.407407 C13.0173611,190.567078 12.9375,190.646914 12.8576389,190.567078 L12.9375,190.806584 C12.8576389,191.046091 12.7777778,190.407407 12.6979167,190.726749 L12.6979167,190.567078 C12.6180556,190.646914 12.4583333,190.567078 12.4583333,190.966255 C12.4583333,190.88642 12.3784722,190.806584 12.4583333,190.726749 C12.2986111,190.726749 12.21875,191.205761 12.0590278,190.966255 L12.0590278,190.88642 C12.0590278,190.88642 12.0590278,191.125926 11.9791667,190.966255 C11.9791667,190.88642 11.9791667,190.88642 11.9791667,190.806584 C11.9791667,190.88642 11.9791667,191.046091 11.8993056,190.966255 L11.8993056,190.806584 C11.7395833,190.646914 11.7395833,191.125926 11.6597222,191.285597 C11.5798611,190.966255 11.5,190.806584 11.4201389,190.806584 L11.4201389,190.726749 C11.2604167,190.726749 11.1805556,191.046091 11.0208333,191.205761 C10.8611111,190.806584 10.7013889,191.125926 10.4618056,190.88642 C10.4618056,190.966255 10.4618056,191.125926 10.4618056,191.205761 C10.3819444,191.125926 10.3819444,191.445267 10.3819444,191.125926 C10.3020833,190.806584 10.2222222,190.88642 10.2222222,190.88642 L10.3020833,191.285597 C10.0625,190.726749 9.90277778,191.525103 9.82291667,191.046091 C9.82291667,191.125926 9.74305556,191.125926 9.74305556,191.285597 L9.74305556,191.046091 C9.66319444,190.966255 9.58333333,190.966255 9.42361111,191.046091 L9.42361111,190.88642 C9.34375,190.88642 9.42361111,191.525103 9.34375,191.525103 L9.26388889,191.205761 C9.10416667,191.205761 9.02430556,190.966255 8.86458333,191.285597 C8.86458333,191.205761 8.86458333,191.125926 8.86458333,191.125926 C8.78472222,191.125926 8.625,190.88642 8.70486111,191.365432 C8.70486111,191.046091 8.54513889,191.365432 8.54513889,191.445267 L8.54513889,191.205761 C8.54513889,191.525103 8.54513889,191.604938 8.46527778,191.684774 C8.46527778,191.684774 8.46527778,191.525103 8.46527778,191.525103 C8.38541667,191.445267 8.46527778,191.764609 8.38541667,191.604938 L8.38541667,191.445267 C8.30555556,191.445267 8.30555556,191.525103 8.30555556,191.684774 C8.30555556,191.764609 8.14583333,191.604938 8.14583333,191.445267 C8.14583333,191.604938 8.14583333,191.764609 8.06597222,191.684774 C8.06597222,191.604938 8.06597222,191.525103 8.06597222,191.525103 C7.98611111,191.365432 7.90625,191.764609 7.82638889,191.604938 C7.82638889,191.525103 7.82638889,191.525103 7.82638889,191.445267 C7.90625,191.445267 7.98611111,191.445267 7.98611111,191.445267 C7.98611111,191.205761 7.90625,191.205761 7.90625,190.88642 C7.82638889,191.046091 7.74652778,191.365432 7.74652778,191.285597 C7.74652778,191.285597 7.74652778,191.285597 7.74652778,191.205761 C7.74652778,191.205761 7.74652778,191.205761 7.66666667,191.205761 C7.66666667,191.205761 7.66666667,191.125926 7.58680556,191.125926 C7.58680556,190.966255 7.50694444,191.046091 7.50694444,191.046091 C7.50694444,191.285597 7.50694444,191.205761 7.50694444,191.445267 C7.50694444,191.445267 7.50694444,191.445267 7.50694444,191.445267 C7.50694444,191.445267 7.50694444,191.445267 7.50694444,191.445267 C7.50694444,191.445267 7.58680556,191.445267 7.58680556,191.445267 C7.58680556,191.525103 7.50694444,191.684774 7.50694444,191.525103 C7.50694444,191.684774 7.50694444,191.844444 7.50694444,191.92428 C7.42708333,191.604938 7.34722222,191.445267 7.34722222,191.285597 C7.26736111,191.445267 7.10763889,191.365432 7.02777778,191.764609 C7.02777778,191.844444 7.02777778,191.684774 6.94791667,191.604938 C6.94791667,191.525103 6.94791667,191.604938 7.02777778,191.525103 C6.94791667,191.604938 6.86805556,191.604938 6.86805556,191.844444 C6.78819444,191.684774 6.86805556,191.604938 6.78819444,191.604938 L6.78819444,191.525103 C6.54861111,191.046091 6.46875,192.243621 6.22916667,191.684774 C6.22916667,191.684774 6.22916667,191.764609 6.22916667,191.764609 C5.98958333,191.525103 5.67013889,192.004115 5.43055556,191.604938 C5.35069444,191.525103 5.35069444,191.684774 5.27083333,191.844444 L5.27083333,191.604938 L5.19097222,191.844444 C5.11111111,192.083951 5.03125,191.285597 4.87152778,191.604938 L4.87152778,191.764609 C4.79166667,191.764609 4.71180556,191.844444 4.71180556,191.684774 C4.71180556,191.684774 4.71180556,191.844444 4.71180556,191.764609 L4.71180556,191.604938 L4.79166667,191.92428 C4.71180556,191.844444 4.79166667,191.445267 4.71180556,191.365432 C4.63194444,191.445267 4.55208333,191.764609 4.55208333,191.844444 C4.55208333,191.844444 4.63194444,191.92428 4.63194444,192.083951 L4.55208333,192.163786 C4.55208333,192.562963 4.47222222,192.882305 4.63194444,193.201646 L4.71180556,192.96214 L4.71180556,193.121811 L4.63194444,193.121811 C4.63194444,193.281481 4.71180556,193.121811 4.71180556,193.041975 C4.71180556,193.121811 4.71180556,193.201646 4.71180556,193.201646 L4.79166667,192.882305 C4.79166667,193.041975 4.71180556,193.201646 4.79166667,193.281481 C4.87152778,193.121811 4.79166667,192.96214 4.79166667,192.882305 C4.79166667,193.041975 4.79166667,193.201646 4.87152778,193.041975 C4.87152778,193.121811 4.87152778,193.201646 4.87152778,193.201646 C4.95138889,193.121811 4.95138889,193.121811 5.03125,192.96214 C5.03125,193.201646 5.19097222,192.882305 5.19097222,193.281481 C5.19097222,193.201646 5.27083333,193.041975 5.27083333,192.96214 C5.19097222,193.361317 5.43055556,192.96214 5.43055556,193.441152 C5.51041667,193.041975 5.59027778,193.281481 5.67013889,193.041975 C5.67013889,193.041975 5.67013889,193.121811 5.67013889,193.121811 C5.75,193.121811 5.75,193.281481 5.75,193.361317 C5.75,193.041975 5.82986111,192.96214 5.90972222,192.802469 C5.98958333,193.121811 5.90972222,193.201646 5.90972222,193.441152 C5.90972222,193.201646 5.98958333,193.201646 5.98958333,192.96214 C6.06944444,193.121811 6.06944444,193.041975 6.06944444,193.281481 C6.06944444,192.882305 6.14930556,193.201646 6.14930556,192.96214 C6.22916667,193.121811 6.14930556,193.361317 6.22916667,193.201646 C6.30902778,193.281481 6.22916667,193.441152 6.22916667,193.441152 M7.98611111,192.722634 C7.98611111,192.722634 7.98611111,192.722634 7.98611111,192.722634 C7.90625,192.722634 7.98611111,192.722634 7.98611111,192.722634 M8.14583333,192.722634 C8.06597222,192.722634 8.06597222,192.722634 8.14583333,192.722634 C8.06597222,192.642798 8.06597222,192.562963 8.06597222,192.562963 C8.06597222,192.562963 8.06597222,192.642798 8.14583333,192.722634 M7.74652778,191.125926 C7.74652778,191.125926 7.74652778,191.205761 7.74652778,191.125926 C7.74652778,191.205761 7.74652778,191.205761 7.74652778,191.205761 C7.74652778,191.205761 7.74652778,191.205761 7.74652778,191.125926" id="Shape"></path>
            <path d="M7.66666667,191.445267 C7.66666667,191.445267 7.66666667,191.445267 7.66666667,191.445267 C7.66666667,191.525103 7.66666667,191.525103 7.66666667,191.445267 Z" id="Shape"></path>
            <path d="M20.6041667,189.050206 C20.6041667,189.050206 20.6041667,189.050206 20.6041667,189.050206 C20.6840278,189.050206 20.6041667,189.050206 20.6041667,189.050206" id="Shape"></path>
            <polygon id="Shape" points="10.2222222 192.96214 10.2222222 192.882305"></polygon>
            <path d="M21.6423611,189.449383 C21.7222222,189.449383 21.7222222,189.449383 21.6423611,189.449383 C21.7222222,189.449383 21.7222222,189.449383 21.6423611,189.449383" id="Shape"></path>
            <path d="M22.28125,189.369547 C22.28125,189.369547 22.28125,189.289712 22.28125,189.289712 L22.28125,189.369547 Z" id="Shape"></path>
            <path d="M18.2881944,191.125926 C18.2881944,191.125926 18.2881944,191.125926 18.2881944,191.125926 C18.2881944,191.205761 18.2881944,191.125926 18.2881944,191.125926" id="Shape"></path>
            <path d="M19.40625,190.167901 C19.40625,190.247737 19.40625,190.247737 19.40625,190.247737 C19.40625,190.327572 19.40625,190.327572 19.40625,190.167901" id="Shape"></path>
            <path d="M19.3263889,190.327572 C19.3263889,190.407407 19.40625,190.327572 19.3263889,190.327572 C19.3263889,190.327572 19.3263889,190.327572 19.3263889,190.327572" id="Shape"></path>
            <path d="M23.4791667,188.97037 C23.4791667,188.890535 23.4791667,188.890535 23.4791667,188.97037" id="Shape"></path>
            <path d="M23.4791667,188.8107 C23.4791667,188.890535 23.4791667,188.890535 23.4791667,188.8107" id="Shape"></path>
            <path d="M23,189.050206 C23,189.050206 23.1597222,189.209877 23.1597222,189.130041 L23.1597222,189.050206 C23.1597222,189.209877 22.9201389,188.97037 23,189.050206" id="Shape"></path>
            <path d="M22.2013889,188.331687 L22.28125,188.331687 C22.2013889,188.251852 22.2013889,188.172016 22.2013889,188.092181 C21.9618056,188.012346 22.28125,188.331687 22.2013889,188.331687" id="Shape"></path>
            <path d="M21.8819444,188.331687 C21.8819444,188.251852 21.8020833,188.251852 21.8020833,188.172016 C21.8020833,188.251852 21.8020833,188.251852 21.8819444,188.331687" id="Shape"></path>
            <path d="M19.9652778,189.050206 L19.8854167,188.890535 C19.8854167,188.97037 19.9652778,188.97037 19.9652778,189.050206" id="Shape"></path>
            <polygon id="Shape" points="19.9652778 190.247737 20.0451389 190.327572 20.0451389 190.167901"></polygon>
            <polygon id="Shape" points="19.2465278 188.890535 19.2465278 188.890535 19.2465278 188.97037"></polygon>
            <path d="M16.1319444,190.00823 L16.2118056,190.247737 C16.2118056,190.167901 16.1319444,189.928395 16.1319444,190.00823" id="Shape"></path>
            <path d="M14.7743056,190.567078 C14.6944444,190.487243 14.6944444,190.407407 14.6944444,190.487243 C14.6944444,190.487243 14.7743056,190.567078 14.7743056,190.567078" id="Shape"></path>
            <polygon id="Shape" points="10.3819444 190.88642 10.3819444 190.806584"></polygon>
        </g>
    </g>
</svg>
